<svg xmlns="http://www.w3.org/2000/svg" xmlns:xlink="http://www.w3.org/1999/xlink" width="348.935" height="274.943" viewBox="0 0 348.935 274.943"><defs><clipPath id="a"><rect width="348.935" height="274.943" fill="none"/></clipPath></defs><g clip-path="url(#a)"><path d="M330.164,54.524s-.915-8.459,10.973-7.544c0,0,2.493-8.084,11.263-9.145,9.895-1.2,13.2,5.994,14.343,7.594,0,0,15.823-3.936,17.652,9.1Z" transform="translate(-49.698 -5.675)" fill="#edf3f5"/><path d="M12.488,110.143s.647-11.982,13.571-8.233c0,0,4.977-8.109,14.283-5.765a11.432,11.432,0,0,1,7.305,5.409,11.23,11.23,0,0,1,.883,8.59Z" transform="translate(-1.88 -14.409)" fill="#edf3f5"/><rect width="47.433" height="97.401" transform="translate(82.48 176.651)" fill="#b5ccd6"/><rect width="40.573" height="94.195" transform="translate(22.108 179.857)" fill="#b5ccd6"/><rect width="39.77" height="5.415" transform="translate(17.848 179.858)" fill="#b5ccd6"/><rect width="47.433" height="146.309" transform="translate(43.494 127.743)" fill="#b5ccd6"/><rect width="36.501" height="127.282" transform="translate(102.142 146.77)" fill="#b5ccd6"/><path d="M373.924,171.089H330.607v6.983h3.845v9.42H321.74V127.358H290.806v166.67h78.74V178.073h4.378Z" transform="translate(-43.776 -19.172)" fill="#b5ccd6"/><line x2="15.02" transform="translate(84.752 90.554)" fill="none" stroke="#8e6a8f" stroke-miterlimit="10" stroke-width="2.951"/><line x2="15.02" transform="translate(84.752 152.674)" fill="none" stroke="#8e6a8f" stroke-miterlimit="10" stroke-width="2.951"/><line x2="15.02" transform="translate(84.752 120.143)" fill="none" stroke="#8e6a8f" stroke-miterlimit="10" stroke-width="2.951"/><rect width="23.89" height="97.139" transform="translate(65.981 73.325)" fill="#ece4da"/><path d="M102.56,184.457H76.244V84.891H102.56Zm-23.89-2.428h21.463V87.317H78.671Z" transform="translate(-11.477 -12.779)" fill="#3e2d63"/></g><path d="M85.732,122.043a5.109,5.109,0,1,1,5.1,4.77A4.8,4.8,0,0,1,85.732,122.043Zm9.461-19.528v9.173H92.6V108.11H89.06v3.578H86.466v-9.173H89.06v3.446H92.6v-3.446Zm-5.654,31.941H86.722V132.4h8.216v2.057h-2.8v7.116H89.539Zm5.169,20.053v2H87.344V147.34h7.194v2H89.912v1.546h4.076v1.939H89.912v1.678Zm-6.958,7.773h2.594V169.4h4.377v2.057H87.75Zm5.556-40.238a2.481,2.481,0,1,0-2.477,2.621A2.456,2.456,0,0,0,93.307,122.043Z" transform="translate(-12.906 -15.432)" fill="#3e2d63"/><g clip-path="url(#a)"><rect width="102.34" height="16.546" transform="translate(125.295 26.734)" fill="#ece4da"/><path d="M244.368,44.52A44.521,44.521,0,1,1,199.848,0,44.521,44.521,0,0,1,244.368,44.52" transform="translate(-23.382 0)" fill="#ece4da"/><path d="M174.689,27.508s8.947-18,27.927-18,28.218,18,28.218,18Z" transform="translate(-26.297 -1.431)" fill="#c4dbf0"/><path d="M199.533,27.384l-3.89-.831L206.674,8.678l3.968.7Z" transform="translate(-29.451 -1.306)" fill="#def0fd"/><path d="M205.346,28.232l-2.125-1.312L213.872,9.954,216,11.266Z" transform="translate(-30.592 -1.498)" fill="#def0fd"/><path d="M232.5,28.526H172.341l.888-1.786c.093-.187,9.514-18.691,29.034-18.691s28.927,17.914,29.318,18.676Zm-56.02-2.473H228.3c-2.894-4.438-11.579-15.532-26.034-15.532-14.492,0-22.975,11.107-25.778,15.532" transform="translate(-25.943 -1.212)" fill="#3e2d63"/><rect width="2.473" height="18.004" transform="translate(175.084 8.073)" fill="#3e2d63"/><path d="M0,0H153.388V237.44H0Z" transform="translate(99.772 36.307)" fill="#ece4da"/><rect width="153.388" height="8.018" transform="translate(99.772 39.271)" fill="#3e2d63"/><rect width="153.388" height="4.272" transform="translate(99.772 32.034)" fill="#3e2d63"/><rect width="153.388" height="3.237" transform="translate(99.772 124.528)" fill="#dfd5c8"/><rect width="153.388" height="3.237" transform="translate(99.772 196.076)" fill="#dfd5c8"/><rect width="20.1" height="41.406" transform="translate(211.238 65.461)" fill="#c4dbf0"/><path d="M250.232,107.56l-1.782-4.243L265.374,75.9l3.187,1.968Z" transform="translate(-37.4 -11.426)" fill="#def0fd"/><rect width="37.838" height="2.497" transform="matrix(0.525, -0.851, 0.851, 0.525, 210.173, 104.265)" fill="#def0fd"/><rect width="28.482" height="4.898" transform="translate(206.833 108.114)" fill="#8e6a8f"/><rect width="28.482" height="3.144" transform="translate(206.833 113.012)" fill="#dfd5c8"/><path d="M269.788,119.483H247.215V75.605h22.573Zm-20.1-2.473h17.627V78.078H249.688Z" transform="translate(-37.214 -11.381)" fill="#3e2d63"/><rect width="20.1" height="2.473" transform="translate(211.238 84.926)" fill="#3e2d63"/><rect width="20.1" height="41.406" transform="translate(166.484 65.461)" fill="#c4dbf0"/><path d="M197.547,107.56l-1.782-4.243L212.689,75.9l3.187,1.968Z" transform="translate(-29.469 -11.426)" fill="#def0fd"/><rect width="37.838" height="2.497" transform="matrix(0.525, -0.851, 0.851, 0.525, 165.419, 104.265)" fill="#def0fd"/><rect width="28.482" height="4.898" transform="translate(162.079 108.114)" fill="#8e6a8f"/><rect width="28.482" height="3.144" transform="translate(162.079 113.012)" fill="#dfd5c8"/><path d="M217.1,119.483H194.53V75.605H217.1ZM197,117.011H214.63V78.078H197Z" transform="translate(-29.283 -11.381)" fill="#3e2d63"/><rect width="20.1" height="2.473" transform="translate(166.484 84.926)" fill="#3e2d63"/><rect width="20.1" height="41.406" transform="translate(121.729 65.461)" fill="#c4dbf0"/><path d="M144.861,107.56l-1.782-4.243L160,75.9l3.187,1.968Z" transform="translate(-21.538 -11.426)" fill="#def0fd"/><rect width="37.838" height="2.496" transform="matrix(0.525, -0.851, 0.851, 0.525, 120.665, 104.265)" fill="#def0fd"/><rect width="28.482" height="4.898" transform="translate(117.325 108.114)" fill="#8e6a8f"/><rect width="28.482" height="3.144" transform="translate(117.325 113.012)" fill="#dfd5c8"/><path d="M164.417,119.483H141.844V75.605h22.573Zm-20.1-2.473h17.627V78.078H144.318Z" transform="translate(-21.352 -11.381)" fill="#3e2d63"/><rect width="20.1" height="2.473" transform="translate(121.729 84.926)" fill="#3e2d63"/><rect width="20.1" height="41.406" transform="translate(211.238 137.662)" fill="#c4dbf0"/><path d="M250.232,192.556l-1.782-4.243L265.374,160.9l3.187,1.968Z" transform="translate(-37.4 -24.221)" fill="#def0fd"/><rect width="37.838" height="2.497" transform="matrix(0.525, -0.851, 0.851, 0.525, 210.173, 176.466)" fill="#def0fd"/><rect width="28.482" height="4.898" transform="translate(206.833 180.316)" fill="#8e6a8f"/><rect width="28.482" height="3.144" transform="translate(206.833 185.214)" fill="#dfd5c8"/><path d="M269.788,204.479H247.215V160.6h22.573Zm-20.1-2.473h17.627V163.074H249.688Z" transform="translate(-37.214 -24.176)" fill="#3e2d63"/><rect width="20.1" height="2.473" transform="translate(211.238 157.128)" fill="#3e2d63"/><rect width="20.1" height="41.406" transform="translate(166.484 137.662)" fill="#c4dbf0"/><path d="M197.547,192.556l-1.782-4.243L212.689,160.9l3.187,1.968Z" transform="translate(-29.469 -24.221)" fill="#def0fd"/><rect width="37.838" height="2.497" transform="matrix(0.525, -0.851, 0.851, 0.525, 165.419, 176.466)" fill="#def0fd"/><rect width="28.482" height="4.898" transform="translate(162.079 180.316)" fill="#8e6a8f"/><rect width="28.482" height="3.144" transform="translate(162.079 185.214)" fill="#dfd5c8"/><path d="M217.1,204.479H194.53V160.6H217.1ZM197,202.007H214.63V163.074H197Z" transform="translate(-29.283 -24.176)" fill="#3e2d63"/><rect width="20.1" height="2.473" transform="translate(166.484 157.128)" fill="#3e2d63"/><rect width="20.1" height="41.406" transform="translate(121.729 137.662)" fill="#c4dbf0"/><path d="M144.861,192.556l-1.782-4.243L160,160.9l3.187,1.968Z" transform="translate(-21.538 -24.221)" fill="#def0fd"/><rect width="37.838" height="2.496" transform="matrix(0.525, -0.851, 0.851, 0.525, 120.665, 176.466)" fill="#def0fd"/><rect width="28.482" height="4.898" transform="translate(117.325 180.316)" fill="#8e6a8f"/><rect width="28.482" height="3.144" transform="translate(117.325 185.214)" fill="#dfd5c8"/><path d="M164.417,204.479H141.844V160.6h22.573Zm-20.1-2.473h17.627V163.074H144.318Z" transform="translate(-21.352 -24.176)" fill="#3e2d63"/><rect width="20.1" height="2.473" transform="translate(121.729 157.128)" fill="#3e2d63"/><rect width="89.186" height="60.245" transform="translate(131.737 213.502)" fill="#8e6a8f"/><path d="M221.33,254.043a16.713,16.713,0,1,1-16.713-16.713,16.713,16.713,0,0,1,16.713,16.713" transform="translate(-28.286 -35.726)" fill="#8e6a8f"/><rect width="73.975" height="52.898" transform="translate(139.343 220.849)" fill="#3e2d63"/><line y2="52.506" transform="translate(176.33 220.045)" fill="none" stroke="#8e6a8f" stroke-miterlimit="10" stroke-width="2.838"/><path d="M206.719,242.561l1.35,3.235,3.493.284-2.66,2.283.81,3.411-2.993-1.824-2.993,1.824.81-3.411-2.66-2.283,3.493-.284Z" transform="translate(-30.389 -36.514)" fill="#ece4da"/><path d="M199.881,289.176a1.839,1.839,0,1,1-1.839-1.839,1.839,1.839,0,0,1,1.839,1.839" transform="translate(-29.535 -43.254)" fill="#8e6a8f"/><path d="M218.3,289.176a1.839,1.839,0,1,1-1.839-1.839,1.839,1.839,0,0,1,1.839,1.839" transform="translate(-32.308 -43.254)" fill="#8e6a8f"/><path d="M355.215,250.274a22.337,22.337,0,0,0-4.186-13.1,6.061,6.061,0,0,1-1.091-4.321,20.5,20.5,0,0,0,.157-2.531c0-9.908-6.857-17.941-15.315-17.941s-15.316,8.033-15.316,17.941a20.5,20.5,0,0,0,.158,2.531,6.066,6.066,0,0,1-1.091,4.321,22.582,22.582,0,0,0-.248,25.839,6.957,6.957,0,0,1,1.22,4.406q-.038.627-.039,1.267c0,9.908,6.857,17.94,15.316,17.94s15.315-8.032,15.315-17.94q0-.64-.038-1.267a6.961,6.961,0,0,1,1.219-4.406,22.332,22.332,0,0,0,3.939-12.738" transform="translate(-47.319 -31.97)" fill="#ece4da"/><rect width="1.696" height="74.462" transform="translate(285.755 198.671)" fill="#3e2d63"/><rect width="1.695" height="10.679" transform="translate(278.965 209.221) rotate(-40.942)" fill="#3e2d63"/><rect width="12.314" height="1.694" transform="matrix(0.708, -0.707, 0.707, 0.708, 286.004, 230.143)" fill="#3e2d63"/><path d="M93.594,250.274a22.337,22.337,0,0,0-4.186-13.1,6.057,6.057,0,0,1-1.091-4.321,20.5,20.5,0,0,0,.157-2.531c0-9.908-6.857-17.941-15.315-17.941s-15.316,8.033-15.316,17.941A20.5,20.5,0,0,0,58,232.851a6.066,6.066,0,0,1-1.091,4.321,22.582,22.582,0,0,0-.248,25.839,6.957,6.957,0,0,1,1.22,4.406q-.038.627-.039,1.267c0,9.908,6.857,17.94,15.316,17.94s15.315-8.032,15.315-17.94q0-.64-.038-1.267a6.961,6.961,0,0,1,1.219-4.406,22.332,22.332,0,0,0,3.939-12.738" transform="translate(-7.937 -31.97)" fill="#ece4da"/><rect width="1.696" height="74.462" transform="translate(63.516 198.671)" fill="#3e2d63"/><rect width="1.695" height="10.679" transform="translate(56.727 209.221) rotate(-40.942)" fill="#3e2d63"/><rect width="12.315" height="1.694" transform="matrix(0.707, -0.707, 0.707, 0.707, 63.766, 230.145)" fill="#3e2d63"/><rect width="348.935" height="2.391" transform="translate(0 272.551)" fill="#3e2d63"/></g></svg>