<svg xmlns="http://www.w3.org/2000/svg" xmlns:xlink="http://www.w3.org/1999/xlink" width="319.967" height="275.231" viewBox="0 0 319.967 275.231"><defs><clipPath id="a"><rect width="319.967" height="275.231" fill="none"/></clipPath><clipPath id="c"><rect width="8.931" height="8.097" fill="none"/></clipPath><clipPath id="d"><rect width="15.629" height="14.168" fill="none"/></clipPath><clipPath id="e"><rect width="8.932" height="8.097" fill="none"/></clipPath><clipPath id="j"><rect width="15.629" height="14.169" fill="none"/></clipPath><clipPath id="t"><rect width="52.255" height="90.785" fill="none"/></clipPath><clipPath id="u"><rect width="33.705" height="14.369" fill="none"/></clipPath><clipPath id="v"><rect width="6.3" height="6.312" fill="none"/></clipPath></defs><g clip-path="url(#a)"><path d="M303.216,216.062V326.078H369.57V282.846h3.692V278.23H347.244V216.062Z" transform="translate(-72.2 -51.447)" fill="#e3dcd2"/><g clip-path="url(#a)"><path d="M372.85,89.312A18.832,18.832,0,1,1,354.018,70.48,18.831,18.831,0,0,1,372.85,89.312" transform="translate(-79.812 -16.782)" fill="#e3dcd2"/><path d="M345.444,170.564s1.787-5.359,7.146-5.5,3.435,2.531,9.069,1.982,3.572-6.379,12.367-7.754,12.5,11.268,12.5,11.268Z" transform="translate(-82.255 -37.906)" fill="#fdfaf7"/><path d="M14.133,120.715a11.645,11.645,0,0,1,10.458-7.058c7.843-.176,7.248,2.027,13.272,1.83,5.455-.179,5.229-7.476,18.1-9.241s18.3,14.469,18.3,14.469Z" transform="translate(-3.365 -25.267)" fill="#fdfaf7"/><path d="M75.334,320.537h0A16.533,16.533,0,0,1,58.8,304v-25.75a16.533,16.533,0,0,1,33.066,0V304a16.533,16.533,0,0,1-16.533,16.533" transform="translate(-14.001 -62.319)" fill="#b4c95e"/><line y2="57.92" transform="translate(61.333 216.606)" fill="none" stroke="#4c342e" stroke-miterlimit="10" stroke-width="1.783"/><line y1="9.044" x2="8.535" transform="translate(61.333 227.435)" fill="none" stroke="#4c342e" stroke-miterlimit="10" stroke-width="1.783"/><path d="M342.288,320.537h0A16.533,16.533,0,0,1,325.755,304v-25.75a16.533,16.533,0,0,1,33.066,0V304a16.533,16.533,0,0,1-16.533,16.533" transform="translate(-77.567 -62.319)" fill="#b4c95e"/><line y2="57.92" transform="translate(264.721 216.606)" fill="none" stroke="#4c342e" stroke-miterlimit="10" stroke-width="1.783"/><line y1="9.044" x2="8.535" transform="translate(264.721 227.435)" fill="none" stroke="#4c342e" stroke-miterlimit="10" stroke-width="1.783"/><line x2="310.615" transform="translate(9.352 274.632)" fill="none" stroke="#4c342e" stroke-miterlimit="10" stroke-width="1.574"/><rect width="140.39" height="225.909" transform="translate(92.891 48.723)" fill="#d2775c"/><rect width="19.535" height="40.404" transform="translate(111.485 69.129)" fill="#4c342e"/><rect width="15.638" height="32.361" transform="translate(113.433 73.367)" fill="#80b5dd"/><rect width="18.071" height="2.214" transform="translate(112.377 88.224)" fill="#4c342e"/><path d="M166.119,93.051a31.15,31.15,0,0,0-21.269-.036l-1.462-3.4a34.58,34.58,0,0,1,24.015-.036Z" transform="translate(-34.143 -20.824)" fill="#ddab84"/><rect width="23.041" height="4.364" transform="translate(110.17 107.351)" fill="#ddab84"/><rect width="23.041" height="2.803" transform="translate(110.17 111.715)" fill="#854635"/><g transform="translate(113.434 73.365)" opacity="0.53"><g clip-path="url(#c)"><path d="M155.217,96.294l-6.331,5.777v2.32l8.932-8.1Z" transform="translate(-148.886 -96.294)" fill="#9fd5e1"/></g></g><g transform="translate(113.443 73.367)" opacity="0.53"><g clip-path="url(#d)"><path d="M159.976,96.3,148.9,106.4v4.059L164.526,96.3Z" transform="translate(-148.897 -96.296)" fill="#9fd5e1"/></g></g><rect width="19.535" height="40.404" transform="translate(152.982 69.129)" fill="#4c342e"/><rect width="15.637" height="32.361" transform="translate(154.932 73.367)" fill="#80b5dd"/><rect width="18.071" height="2.214" transform="translate(153.874 88.224)" fill="#4c342e"/><path d="M220.585,93.051a31.15,31.15,0,0,0-21.269-.036l-1.462-3.4a34.58,34.58,0,0,1,24.015-.036Z" transform="translate(-47.112 -20.824)" fill="#ddab84"/><rect width="23.041" height="4.364" transform="translate(151.667 107.351)" fill="#ddab84"/><rect width="23.041" height="2.803" transform="translate(151.667 111.715)" fill="#854635"/><g transform="translate(154.931 73.365)" opacity="0.53"><g clip-path="url(#e)"><path d="M209.683,96.294l-6.331,5.777v2.32l8.932-8.1Z" transform="translate(-203.352 -96.294)" fill="#9fd5e1"/></g></g><g transform="translate(154.94 73.367)" opacity="0.53"><g clip-path="url(#d)"><path d="M214.442,96.3,203.363,106.4v4.059L218.992,96.3Z" transform="translate(-203.364 -96.296)" fill="#9fd5e1"/></g></g><rect width="19.535" height="40.404" transform="translate(194.479 69.129)" fill="#4c342e"/><rect width="15.638" height="32.361" transform="translate(196.428 73.367)" fill="#80b5dd"/><rect width="18.071" height="2.214" transform="translate(195.37 88.224)" fill="#4c342e"/><path d="M275.051,93.051a31.153,31.153,0,0,0-21.27-.036l-1.461-3.4a34.58,34.58,0,0,1,24.015-.036Z" transform="translate(-60.081 -20.824)" fill="#ddab84"/><rect width="23.041" height="4.364" transform="translate(193.164 107.351)" fill="#ddab84"/><rect width="23.041" height="2.803" transform="translate(193.164 111.715)" fill="#854635"/><g transform="translate(196.428 73.365)" opacity="0.53"><g clip-path="url(#e)"><path d="M264.149,96.294l-6.331,5.777v2.32l8.932-8.1Z" transform="translate(-257.818 -96.294)" fill="#9fd5e1"/></g></g><g transform="translate(196.437 73.367)" opacity="0.53"><g clip-path="url(#d)"><path d="M268.908,96.3,257.83,106.4v4.059L273.458,96.3Z" transform="translate(-257.83 -96.296)" fill="#9fd5e1"/></g></g><rect width="19.535" height="40.404" transform="translate(111.485 139.493)" fill="#4c342e"/><rect width="15.638" height="32.361" transform="translate(113.433 143.731)" fill="#80b5dd"/><rect width="18.071" height="2.214" transform="translate(112.377 158.588)" fill="#4c342e"/><path d="M166.119,185.406a31.15,31.15,0,0,0-21.269-.036l-1.462-3.4a34.58,34.58,0,0,1,24.015-.036Z" transform="translate(-34.143 -42.815)" fill="#ddab84"/><rect width="23.041" height="4.364" transform="translate(110.17 177.715)" fill="#ddab84"/><rect width="23.041" height="2.803" transform="translate(110.17 182.079)" fill="#854635"/><g transform="translate(113.434 143.729)" opacity="0.53"><g clip-path="url(#c)"><path d="M155.217,188.649l-6.331,5.777v2.32l8.932-8.1Z" transform="translate(-148.886 -188.649)" fill="#9fd5e1"/></g></g><g transform="translate(113.443 143.731)" opacity="0.53"><g clip-path="url(#j)"><path d="M159.976,188.651,148.9,198.76v4.059l15.629-14.168Z" transform="translate(-148.897 -188.651)" fill="#9fd5e1"/></g></g><rect width="19.535" height="40.404" transform="translate(152.982 139.493)" fill="#4c342e"/><rect width="15.637" height="32.361" transform="translate(154.932 143.731)" fill="#80b5dd"/><rect width="18.071" height="2.214" transform="translate(153.874 158.588)" fill="#4c342e"/><path d="M220.585,185.406a31.15,31.15,0,0,0-21.269-.036l-1.462-3.4a34.58,34.58,0,0,1,24.015-.036Z" transform="translate(-47.112 -42.815)" fill="#ddab84"/><rect width="23.041" height="4.364" transform="translate(151.667 177.715)" fill="#ddab84"/><rect width="23.041" height="2.803" transform="translate(151.667 182.079)" fill="#854635"/><g transform="translate(154.931 143.729)" opacity="0.53"><g clip-path="url(#e)"><path d="M209.683,188.649l-6.331,5.777v2.32l8.932-8.1Z" transform="translate(-203.352 -188.649)" fill="#9fd5e1"/></g></g><g transform="translate(154.94 143.731)" opacity="0.53"><g clip-path="url(#j)"><path d="M214.442,188.651,203.363,198.76v4.059l15.629-14.168Z" transform="translate(-203.364 -188.651)" fill="#9fd5e1"/></g></g><rect width="19.535" height="40.404" transform="translate(194.479 139.493)" fill="#4c342e"/><rect width="15.638" height="32.361" transform="translate(196.428 143.731)" fill="#80b5dd"/><rect width="18.071" height="2.214" transform="translate(195.37 158.588)" fill="#4c342e"/><path d="M275.051,185.406a31.153,31.153,0,0,0-21.27-.036l-1.461-3.4a34.58,34.58,0,0,1,24.015-.036Z" transform="translate(-60.081 -42.815)" fill="#ddab84"/><rect width="23.041" height="4.364" transform="translate(193.164 177.715)" fill="#ddab84"/><rect width="23.041" height="2.803" transform="translate(193.164 182.079)" fill="#854635"/><g transform="translate(196.428 143.729)" opacity="0.53"><g clip-path="url(#e)"><path d="M264.149,188.649l-6.331,5.777v2.32l8.932-8.1Z" transform="translate(-257.818 -188.649)" fill="#9fd5e1"/></g></g><g transform="translate(196.437 143.731)" opacity="0.53"><g clip-path="url(#j)"><path d="M268.908,188.651,257.83,198.76v4.059l15.629-14.168Z" transform="translate(-257.83 -188.651)" fill="#9fd5e1"/></g></g><rect width="19.535" height="40.404" transform="translate(111.485 211.429)" fill="#4c342e"/><rect width="15.638" height="32.361" transform="translate(113.433 215.666)" fill="#80b5dd"/><rect width="18.071" height="2.214" transform="translate(112.377 230.523)" fill="#4c342e"/><path d="M166.119,279.823a31.15,31.15,0,0,0-21.269-.036l-1.462-3.4a34.58,34.58,0,0,1,24.015-.036Z" transform="translate(-34.143 -65.297)" fill="#ddab84"/><rect width="23.041" height="4.364" transform="translate(110.17 249.65)" fill="#ddab84"/><rect width="23.041" height="2.803" transform="translate(110.17 254.014)" fill="#854635"/><g transform="translate(113.434 215.665)" opacity="0.53"><g clip-path="url(#c)"><path d="M155.217,283.067l-6.331,5.777v2.32l8.932-8.1Z" transform="translate(-148.886 -283.067)" fill="#9fd5e1"/></g></g><g transform="translate(113.443 215.666)" opacity="0.53"><g clip-path="url(#d)"><path d="M159.976,283.068,148.9,293.177v4.059l15.629-14.168Z" transform="translate(-148.897 -283.068)" fill="#9fd5e1"/></g></g><rect width="19.535" height="40.404" transform="translate(152.982 211.429)" fill="#4c342e"/><rect width="15.637" height="32.361" transform="translate(154.932 215.666)" fill="#80b5dd"/><rect width="18.071" height="2.214" transform="translate(153.874 230.523)" fill="#4c342e"/><path d="M220.585,279.823a31.15,31.15,0,0,0-21.269-.036l-1.462-3.4a34.58,34.58,0,0,1,24.015-.036Z" transform="translate(-47.112 -65.297)" fill="#ddab84"/><rect width="23.041" height="4.364" transform="translate(151.667 249.65)" fill="#ddab84"/><rect width="23.041" height="2.803" transform="translate(151.667 254.014)" fill="#854635"/><g transform="translate(154.931 215.665)" opacity="0.53"><g clip-path="url(#e)"><path d="M209.683,283.067l-6.331,5.777v2.32l8.932-8.1Z" transform="translate(-203.352 -283.067)" fill="#9fd5e1"/></g></g><g transform="translate(154.94 215.666)" opacity="0.53"><g clip-path="url(#d)"><path d="M214.442,283.068l-11.079,10.109v4.059l15.629-14.168Z" transform="translate(-203.364 -283.068)" fill="#9fd5e1"/></g></g><rect width="146.732" height="4.364" transform="translate(89.721 123.574)" fill="#ddab84"/><rect width="140.39" height="1.819" transform="translate(92.891 127.939)" fill="#ae5c4a"/><rect width="146.732" height="4.364" transform="translate(89.721 194.343)" fill="#ddab84"/><rect width="140.39" height="1.819" transform="translate(92.891 198.708)" fill="#ae5c4a"/><rect width="140.39" height="6.007" transform="translate(92.891 42.717)" fill="#c4664f"/><rect width="140.39" height="2.705" transform="translate(92.891 40.012)" fill="#ae5c4a"/><rect width="148.836" height="9.199" transform="translate(88.449 30.813)" fill="#ddab84"/><rect width="140.39" height="5.195" transform="translate(92.891 269.436)" fill="#ae5c4a"/><rect width="27.459" height="5.195" transform="translate(190.517 259.046)" fill="#ddab84"/><rect width="27.459" height="1.146" transform="translate(190.517 263.095)" fill="#bf8059"/><rect width="31.53" height="5.195" transform="translate(188.482 264.241)" fill="#ddab84"/><rect width="34.827" height="5.195" transform="translate(186.834 269.436)" fill="#ddab84"/><rect width="31.53" height="1.146" transform="translate(188.482 268.291)" fill="#bf8059"/><rect width="22.547" height="38.191" transform="translate(192.794 220.855)" fill="#4c342e"/><rect width="12.976" height="27.024" transform="translate(197.511 219.297)" fill="none" stroke="#bf8059" stroke-miterlimit="10" stroke-width="1.05"/><rect width="12.976" height="5.259" transform="translate(197.511 250.156)" fill="none" stroke="#bf8059" stroke-miterlimit="10" stroke-width="1.05"/><path d="M277.325,271.137H246.491l-3.2,14.279h37.233Z" transform="translate(-57.931 -64.561)" fill="#ddab84"/><path d="M274.451,297.834H249.365a6.073,6.073,0,0,1-6.073-6.073v-1.882h37.232v1.882a6.073,6.073,0,0,1-6.073,6.073" transform="translate(-57.931 -69.024)" fill="#80b5dd"/><path d="M250.548,291.569l.523,1.61h1.693l-1.37,1,.523,1.61-1.37-1-1.37,1,.523-1.61-1.37-1h1.693Z" transform="translate(-59.131 -69.427)" fill="#f7f2ed"/><path d="M258.547,291.569l.523,1.61h1.693l-1.37,1,.523,1.61-1.37-1-1.37,1,.523-1.61-1.37-1h1.693Z" transform="translate(-61.036 -69.427)" fill="#f7f2ed"/><path d="M267.034,291.569l.523,1.61h1.693l-1.37,1,.523,1.61-1.37-1-1.37,1,.523-1.61-1.37-1h1.693Z" transform="translate(-63.057 -69.427)" fill="#f7f2ed"/><path d="M275.183,291.569l.523,1.61H277.4l-1.37,1,.523,1.61-1.37-1-1.37,1,.523-1.61-1.37-1h1.693Z" transform="translate(-64.997 -69.427)" fill="#f7f2ed"/><path d="M283.52,291.569l.523,1.61h1.693l-1.37,1,.523,1.61-1.37-1-1.37,1,.523-1.61-1.37-1H283Z" transform="translate(-66.982 -69.427)" fill="#f7f2ed"/><line y2="9.144" transform="translate(135.917 21.669)" fill="none" stroke="#854635" stroke-miterlimit="10" stroke-width="3.206"/><line y2="9.144" transform="translate(191.484 21.669)" fill="none" stroke="#854635" stroke-miterlimit="10" stroke-width="3.206"/><rect width="88.796" height="22.076" transform="translate(118.975 1.221)" fill="#d2775c"/><rect width="88.796" height="22.076" transform="translate(118.975 1.221)" fill="none" stroke="#c4664f" stroke-miterlimit="10" stroke-width="3.206"/></g><text transform="translate(132.858 16.482)" fill="#fdfaf7" font-size="14" font-family="Montserrat-ExtraBold, Montserrat" font-weight="800"><tspan x="0" y="0" letter-spacing="0.1em">H</tspan><tspan y="0" letter-spacing="0.09em">O</tspan><tspan y="0" letter-spacing="0.099em">TE</tspan><tspan y="0">L</tspan></text><g clip-path="url(#a)"><path d="M84.825,187.028H34.459a4.075,4.075,0,0,0-4.075,4.075V303.047a4.075,4.075,0,0,0,4.075,4.075H84.825a4.074,4.074,0,0,0,4.075-4.075V191.1a4.074,4.074,0,0,0-4.075-4.075" transform="translate(-7.235 -44.534)" fill="#fff"/><rect width="52.255" height="90.785" transform="translate(26.188 155.739)" fill="#75b0e6"/><path d="M72.29,195.245h-11.2a.723.723,0,0,0,0,1.445h11.2a.723.723,0,0,0,0-1.445" transform="translate(-14.375 -46.491)" fill="#75b0e6"/><path d="M80.487,195.213a.962.962,0,1,0,1.36,0,.962.962,0,0,0-1.36,0" transform="translate(-19.098 -46.416)" fill="#75b0e6"/><path d="M48.043,321.858l-.065.075-.113-.1-.022.025-.006.008a.146.146,0,0,0-.03.15l.029.082.085.015.027,0a.152.152,0,0,0,.114-.056l0,0c.01-.01.018-.021.027-.032l-.114-.1Z" transform="translate(-11.381 -76.634)" fill="#c0725c"/><rect width="52.094" height="90.504" transform="translate(26.346 155.84)" fill="#75b0e6"/><rect width="49.87" height="46.138" transform="translate(27.487 157.004)" fill="#c5d1ef"/><path d="M69.781,229.268l-1.224-1.413,1.883-1.507-4.52-5.934-3.3,2.543,1.978,2.731-2.825,1.978L59.7,224.936l-3.506,2.6,7.649,10.3,10.172-7.158-2.261-2.92Z" transform="translate(-13.381 -52.484)" fill="#f6e27a"/><path d="M93.061,225.754l.283-2.449,1.507-.188-.377-5.556-1.224-.377v-2.449l1.131-.188-.189-6.121-6.027.282.188,3.485L86,213.511l-2.731-3.3-4.049,2.543L82.89,218.6l1.318-.565,1.036,1.6-2.015,1.045,3.617,5.83,1.318-.659,1.507,2.542-.848.565,4.8,6.874,1.7-1.413-.754-8.193Z" transform="translate(-18.863 -49.629)" fill="#f7e576"/><path d="M44.892,261.216h1.364L37.194,247.8a13.128,13.128,0,0,1,20.838,13.417h1.16a14.256,14.256,0,0,0-23.12-13.961l.038.957Z" transform="translate(-8.589 -58.074)" fill="#fff"/><path d="M49.3,264.081l2.062-1.563a3.673,3.673,0,1,0-4.439-5.854l-2.965,2.248,3.49,5.168Z" transform="translate(-10.468 -60.939)" fill="#fff"/><rect width="1.13" height="10.396" transform="matrix(0.833, -0.553, 0.553, 0.833, 30.877, 188.303)" fill="#fff"/><path d="M54.918,265.949l-1.448-2.184-.942.624,1.035,1.56Z" transform="translate(-12.507 -62.806)" fill="#fff"/><rect width="0.848" height="10.396" transform="translate(40.013 199.699) rotate(-81.932)" fill="#fff"/><rect width="10.396" height="0.847" transform="translate(38.698 197.307) rotate(-77.538)" fill="#fff"/><path d="M36.077,208.06q1.739-.937,3.677-1.987H36.077Z" transform="translate(-8.59 -49.069)" fill="#89c5ef"/><path d="M36.077,214.212v6.432l21.9-14.571H48.306Z" transform="translate(-8.59 -49.069)" fill="#fff"/><path d="M72.862,250.046l5.655,8.552,7.945-5.256,1.789,2.449,3.2-2.354-7.722-11.019Z" transform="translate(-17.35 -57.723)" fill="#f7e576"/><path d="M36.077,226.961v7.156l3.3-2.289-1.13-2.166,2.731-1.79,4.708,7.534,5.934-4.049L44.458,221.28Z" transform="translate(-8.59 -52.69)" fill="#f6e27a"/><path d="M72.667,218.543l21.992,30.883v-3.409L74.278,217.4Z" transform="translate(-17.303 -51.765)" fill="#fff"/><path d="M51.235,241.294c1.488.421,5.222,1.477,7.75,4.579L43.676,256.411l1.281,1.862,15.267-10.509a23.234,23.234,0,0,1,2,6.162c.1.562.157.982.2,1.352a7.356,7.356,0,0,0,.493,2.08,9.29,9.29,0,0,0,1.026,1.893h1.8a8.166,8.166,0,0,1-1.517-2.416,6.118,6.118,0,0,1-.4-1.737c-.047-.368-.107-.827-.216-1.425a24.493,24.493,0,0,0-2.218-6.714L75.142,237.5l-1.281-1.862-13.709,9.437c-2.828-3.521-7.06-4.72-8.532-5.136a20.53,20.53,0,0,0-9.542-.2,25.733,25.733,0,0,0-6,1.817V243.1a24.28,24.28,0,0,1,6.241-1.979,19,19,0,0,1,8.917.172" transform="translate(-8.59 -56.108)" fill="#fff"/><path d="M99.122,264.943v-5.4l-7.713,5.4Z" transform="translate(-21.766 -61.8)" fill="#fff"/><path d="M46.574,261.773l-10.5-15.543v3.11l8.4,12.433Z" transform="translate(-8.59 -58.631)" fill="#fff"/><path d="M2.123,0h8.764a2.124,2.124,0,0,1,2.124,2.124v1.94a2.123,2.123,0,0,1-2.123,2.123H2.123A2.123,2.123,0,0,1,0,4.064V2.123A2.123,2.123,0,0,1,2.123,0Z" transform="translate(38.126 168.413) rotate(-35.453)" fill="#f7e576"/><path d="M48.991,217.793a1,1,0,1,0,1,1,1,1,0,0,0-1-1" transform="translate(-11.428 -51.86)" fill="#82bf64"/><path d="M51.841,215.568a1,1,0,1,0,1,1,1,1,0,0,0-1-1" transform="translate(-12.106 -51.33)" fill="#82bf64"/><path d="M54.677,213.67a1,1,0,1,0,1,1,1,1,0,0,0-1-1" transform="translate(-12.781 -50.878)" fill="#82bf64"/><path d="M57.729,211.692a1,1,0,1,0,1,1,1,1,0,0,0-1-1" transform="translate(-13.508 -50.407)" fill="#82bf64"/><path d="M60.474,209.652a1,1,0,1,0,1,1,1,1,0,0,0-1-1" transform="translate(-14.162 -49.921)" fill="#82bf64"/><path d="M68.493,208.071a1,1,0,1,0,1,1,1,1,0,0,0-1-1" transform="translate(-16.071 -49.545)" fill="#82bf64"/><path d="M70.539,210.693a1,1,0,1,0,1,1,1,1,0,0,0-1-1" transform="translate(-16.558 -50.169)" fill="#82bf64"/><path d="M72.55,213.315a1,1,0,1,0,1,1,1,1,0,0,0-1-1" transform="translate(-17.037 -50.793)" fill="#82bf64"/><path d="M66.716,220.79a6.8,6.8,0,0,0-6.388,9.048L66.8,243.409l6.37-13.621a6.8,6.8,0,0,0-6.459-9" transform="translate(-14.273 -52.573)" fill="#dc7777"/><path d="M67.8,225.295a3.366,3.366,0,1,0,3.379,3.352,3.365,3.365,0,0,0-3.379-3.352" transform="translate(-15.346 -53.646)" fill="#e0708f"/><path d="M67.873,225.589a3.142,3.142,0,1,0,3.153,3.129,3.141,3.141,0,0,0-3.153-3.129" transform="translate(-15.416 -53.716)" fill="#fff"/><path d="M63.585,223.111a5.282,5.282,0,0,0-.554.443,5.537,5.537,0,0,0-1.528,2.434.587.587,0,0,0,.442.751h0a.585.585,0,0,0,.676-.392,4.37,4.37,0,0,1,1.2-1.928,4,4,0,0,1,.425-.341.587.587,0,1,0-.664-.968" transform="translate(-14.638 -53.101)" fill="#edb9a4"/><path d="M62.486,232.282h0a.526.526,0,0,0-.343.692c.335.888,2.968,6.3,3.233,6.2h0c.278-.105-1.925-5.716-2.249-6.571a.526.526,0,0,0-.642-.318" transform="translate(-14.789 -55.304)" fill="#edb9a4"/><path d="M49.292,290.5H40.613a.744.744,0,0,0-.808.648v.3a.744.744,0,0,0,.808.648h8.679a.743.743,0,0,0,.808-.648v-.3a.743.743,0,0,0-.808-.648" transform="translate(-9.478 -69.173)" fill="#fff"/><path d="M75.667,290.5H57.133a.816.816,0,1,0,0,1.592H75.667a.816.816,0,1,0,0-1.592" transform="translate(-13.368 -69.173)" fill="#fff"/><path d="M92.983,290.5H85.769a.681.681,0,0,0-.74.594v.405a.681.681,0,0,0,.74.593h7.214a.681.681,0,0,0,.74-.593V291.1a.681.681,0,0,0-.74-.594" transform="translate(-20.247 -69.173)" fill="#fff"/><path d="M54.368,286.4H40.8a.816.816,0,1,0,0,1.592H54.368a.816.816,0,1,0,0-1.592" transform="translate(-9.478 -68.196)" fill="#fff"/><path d="M69.892,286.4H63.6a.816.816,0,1,0,0,1.592h6.289a.816.816,0,1,0,0-1.592" transform="translate(-14.909 -68.196)" fill="#fff"/><path d="M90.557,286.4H76.9a.816.816,0,1,0,0,1.592H90.557a.816.816,0,1,0,0-1.592" transform="translate(-18.074 -68.196)" fill="#fff"/><path d="M54.169,282.307H40.6a.816.816,0,1,0,0,1.592H54.169a.816.816,0,1,0,0-1.592" transform="translate(-9.431 -67.221)" fill="#fff"/><path d="M77.161,282.307H63.4a.816.816,0,1,0,0,1.592H77.161a.816.816,0,1,0,0-1.592" transform="translate(-14.861 -67.221)" fill="#fff"/><path d="M93.081,282.307H86.628a.647.647,0,0,0-.7.565v.463a.647.647,0,0,0,.7.565h6.452a.648.648,0,0,0,.7-.565v-.463a.648.648,0,0,0-.7-.565" transform="translate(-20.46 -67.221)" fill="#fff"/><path d="M39.463,208.755a1.348,1.348,0,1,0,1.349,1.349,1.349,1.349,0,0,0-1.349-1.349" transform="translate(-9.075 -49.707)" fill="#75b0e6"/><path d="M48.587,208.755a1.348,1.348,0,1,0,1.349,1.349,1.349,1.349,0,0,0-1.349-1.349" transform="translate(-11.248 -49.707)" fill="#75b0e6"/><path d="M44.025,208.755a1.348,1.348,0,1,0,1.349,1.349,1.348,1.348,0,0,0-1.349-1.349" transform="translate(-10.162 -49.707)" fill="#75b0e6"/><path d="M95.672,207.773H89.255a.486.486,0,0,0-.485.485v3.224a.486.486,0,0,0,.485.484h6.417a.486.486,0,0,0,.485-.484v-3.224a.486.486,0,0,0-.485-.485" transform="translate(-21.137 -49.474)" fill="#fff"/><path d="M98.918,209.5h-.581a.206.206,0,0,0-.2.2v1.181a.206.206,0,0,0,.2.206h.581a.206.206,0,0,0,.2-.206V209.7a.206.206,0,0,0-.2-.2" transform="translate(-23.367 -49.885)" fill="#fff"/><path d="M89.377,208.486v3.054a.108.108,0,0,0,.107.107h3.548v-3.268H89.484a.109.109,0,0,0-.107.107" transform="translate(-21.282 -49.618)" fill="#75b0e6"/><g transform="translate(26.189 155.739)" opacity="0.2"><g clip-path="url(#t)"><path d="M81.344,228.217c-2.59,9.064-12.56,43.946-44.8,63.912q-1.095.679-2.169,1.3V295.2H86.628V204.412h-.967a123.411,123.411,0,0,1-4.318,23.805" transform="translate(-34.373 -204.412)" fill="#669ed9"/></g></g><path d="M85.227,205.781l1.4,89.415V204.412H34.373Z" transform="translate(-8.185 -48.673)" fill="#5d95d2"/><g transform="translate(36.04 225.86)" opacity="0.3"><g clip-path="url(#u)"><path d="M77.562,296.448H50.752a3.514,3.514,0,0,0-3.448,3.577v7.215a3.514,3.514,0,0,0,3.448,3.577h26.81a3.514,3.514,0,0,0,3.448-3.577v-7.215a3.514,3.514,0,0,0-3.448-3.577" transform="translate(-47.304 -296.448)" fill="#2a277f"/></g></g><path d="M77.578,296.448H49.848a2.546,2.546,0,0,0-2.545,2.545v8.394a2.545,2.545,0,0,0,2.545,2.545h27.73a2.545,2.545,0,0,0,2.545-2.545v-8.394a2.546,2.546,0,0,0-2.545-2.545" transform="translate(-11.263 -70.588)" fill="#edcf5b"/><g transform="translate(34.74 205.652)" opacity="0.16"><g clip-path="url(#v)"><path d="M51.453,272.183l-1.787-.168-.96-1.946-.361-.144-.03.936-.187.379-.306.619-.077.156-2.147.312v.217l1.521,1.483-.663,2.025.328.145,1.921-1.01,1.92,1.05-.334-2.209,1.606-1.794Z" transform="translate(-45.598 -269.925)" fill="#1a1050"/></g></g><path d="M48.232,270.209l-.391.792-.094.19-.475.964-2.148.1v.217l1.554,1.514-.367,1.922v.217l1.921-1.01,1.921,1.01V275.9l-.367-1.922,1.554-1.514v-.217l-2.148-.1Z" transform="translate(-10.745 -64.341)" fill="#cc8c24"/><path d="M49.193,271.871l-.96-1.946-.961,1.946-2.147.312,1.553,1.515-.366,2.139,1.921-1.01,1.92,1.01-.366-2.139,1.553-1.515Z" transform="translate(-10.745 -64.273)" fill="#f4e03f"/><path d="M49.195,272.371l-.756-1.531-.755,1.531-1.689.245,1.222,1.192-.289,1.682,1.511-.794,1.512.794-.289-1.682,1.222-1.192Z" transform="translate(-10.952 -64.491)" fill="#f4e03f"/><path d="M47.509,274.453l-.289,1.682,1.511-.794,1.512.794-.289-1.682.926-.9c-.834.746-2.738,1.22-3.371.9" transform="translate(-11.244 -65.136)" fill="#e8bc32"/><path d="M52.142,273.4l-.118.115a1.541,1.541,0,0,0,.118-.115" transform="translate(-12.388 -65.1)" fill="#e8bc32"/><path d="M45.994,273.165l1.222,1.192-1.067-1.214Z" transform="translate(-10.952 -65.039)" fill="#e6bc33"/><path d="M48.115,270.964l-.57,1.154-1.272.185a1.186,1.186,0,1,0,1.842-1.339" transform="translate(-11.018 -64.52)" fill="#f6e84b"/><path d="M48.439,270.84l-.756,1.531-1.689.245.148.144,1.654-.2.643-1.315.632,1.315,1.635.232.178-.173-1.689-.245Z" transform="translate(-10.952 -64.491)" fill="#e4b633"/><path d="M47.258,276.4l.251-1.464v-.2l-.289,1.682Z" transform="translate(-11.244 -65.418)" fill="#d1982b"/><path d="M50.808,274.934l.251,1.464.037.019-.289-1.682Z" transform="translate(-12.098 -65.418)" fill="#d1982b"/><path d="M48.35,271.463l-.3.618a.345.345,0,0,0,.069.007.364.364,0,0,0,.376-.351.342.342,0,0,0-.14-.273" transform="translate(-11.44 -64.639)" fill="#fdf9a6"/><g transform="translate(49.219 205.652)" opacity="0.16"><g clip-path="url(#v)"><path d="M70.456,272.183l-1.787-.168-.96-1.946-.361-.144-.03.936-.187.379-.306.619-.077.156-2.147.312v.217l1.521,1.483-.663,2.025.328.145,1.921-1.01,1.921,1.05-.335-2.209,1.606-1.794Z" transform="translate(-64.602 -269.925)" fill="#1a1050"/></g></g><path d="M70.343,272.251l-2.147-.1-.961-1.946-.391.791-.094.191-.475.964-2.148.1v.216l1.554,1.515-.367,1.922v.216l1.921-1.01,1.921,1.01V275.9l-.366-1.922,1.553-1.515Z" transform="translate(-15.27 -64.341)" fill="#cc8c24"/><path d="M68.2,271.871l-.96-1.946-.961,1.946-2.147.312,1.553,1.515-.366,2.139,1.921-1.01,1.92,1.01L68.79,273.7l1.553-1.515Z" transform="translate(-15.27 -64.273)" fill="#f4e03f"/><path d="M68.2,272.371l-.756-1.531-.755,1.531L65,272.616l1.222,1.192-.289,1.682,1.511-.794,1.512.794-.289-1.682,1.222-1.192Z" transform="translate(-15.477 -64.491)" fill="#f4e03f"/><path d="M66.513,274.453l-.29,1.682,1.511-.794,1.512.794-.288-1.682.926-.9c-.834.746-2.738,1.22-3.371.9" transform="translate(-15.769 -65.136)" fill="#e8bc32"/><path d="M71.146,273.4l-.118.115a1.54,1.54,0,0,0,.118-.115" transform="translate(-16.913 -65.1)" fill="#e8bc32"/><path d="M65,273.165l1.222,1.192-1.067-1.214Z" transform="translate(-15.477 -65.039)" fill="#e6bc33"/><path d="M67.118,270.964l-.57,1.154-1.272.185a1.186,1.186,0,1,0,1.842-1.339" transform="translate(-15.543 -64.52)" fill="#f6e84b"/><path d="M67.443,270.84l-.756,1.531L65,272.616l.148.144,1.654-.2.643-1.315.632,1.315,1.635.232.178-.173-1.689-.245Z" transform="translate(-15.477 -64.491)" fill="#e4b633"/><path d="M66.261,276.4l.251-1.464v-.2l-.289,1.682Z" transform="translate(-15.769 -65.418)" fill="#d1982b"/><path d="M69.811,274.934l.251,1.464.037.019-.289-1.682Z" transform="translate(-16.623 -65.418)" fill="#d1982b"/><path d="M67.353,271.463l-.3.618a.345.345,0,0,0,.069.007.364.364,0,0,0,.376-.351.342.342,0,0,0-.14-.273" transform="translate(-15.965 -64.639)" fill="#fdf9a6"/><g transform="translate(41.98 205.652)" opacity="0.16"><g clip-path="url(#v)"><path d="M60.954,272.183l-1.787-.168-.96-1.946-.361-.144-.03.936-.187.379-.306.619-.077.156-2.147.312v.217l1.521,1.483-.663,2.025.328.145,1.921-1.01,1.921,1.05-.335-2.209,1.606-1.794Z" transform="translate(-55.1 -269.925)" fill="#1a1050"/></g></g><path d="M60.841,272.251l-2.147-.1-.961-1.946-.391.791-.094.191-.475.964-2.148.1v.216l1.554,1.515-.367,1.922v.216l1.921-1.01,1.921,1.01V275.9l-.366-1.922,1.553-1.515Z" transform="translate(-13.007 -64.341)" fill="#cc8c24"/><path d="M58.694,271.871l-.96-1.946-.961,1.946-2.147.312L56.18,273.7l-.366,2.139,1.921-1.01,1.92,1.01-.366-2.139,1.553-1.515Z" transform="translate(-13.007 -64.273)" fill="#f4e03f"/><path d="M58.7,272.371l-.756-1.531-.755,1.531-1.689.245,1.222,1.192-.289,1.682,1.511-.794,1.512.794-.289-1.682,1.222-1.192Z" transform="translate(-13.215 -64.491)" fill="#f4e03f"/><path d="M57.011,274.453l-.289,1.682,1.511-.794,1.512.794-.289-1.682.926-.9c-.834.746-2.738,1.22-3.371.9" transform="translate(-13.506 -65.136)" fill="#e8bc32"/><path d="M61.644,273.4l-.118.115a1.541,1.541,0,0,0,.118-.115" transform="translate(-14.65 -65.1)" fill="#e8bc32"/><path d="M55.5,273.165l1.222,1.192-1.067-1.214Z" transform="translate(-13.214 -65.039)" fill="#e6bc33"/><path d="M57.617,270.964l-.571,1.154-1.272.185a1.186,1.186,0,1,0,1.843-1.339" transform="translate(-13.281 -64.52)" fill="#f6e84b"/><path d="M57.941,270.84l-.756,1.531-1.689.245.148.144,1.654-.2.643-1.315.632,1.315,1.635.232.178-.173-1.689-.245Z" transform="translate(-13.214 -64.491)" fill="#e4b633"/><path d="M56.759,276.4l.251-1.464v-.2l-.289,1.682Z" transform="translate(-13.506 -65.418)" fill="#d1982b"/><path d="M60.31,274.934l.251,1.464.037.019-.289-1.682Z" transform="translate(-14.361 -65.418)" fill="#d1982b"/><path d="M57.851,271.463l-.3.618a.345.345,0,0,0,.069.007.364.364,0,0,0,.376-.351.342.342,0,0,0-.14-.273" transform="translate(-13.702 -64.639)" fill="#fdf9a6"/><g transform="translate(63.818 205.669)" opacity="0.16"><g clip-path="url(#v)"><path d="M89.618,272.2l-1.787-.168-.96-1.946-.361-.145-.03.936-.187.379-.3.619-.078.156-2.147.312v.217l1.521,1.483-.663,2.025.328.145,1.921-1.01,1.921,1.05-.335-2.209,1.606-1.794Z" transform="translate(-83.763 -269.946)" fill="#1a1050"/></g></g><path d="M89.5,272.272l-2.147-.1-.961-1.946-.391.791-.094.191-.475.964-2.148.1v.216L84.843,274l-.367,1.922v.216l1.921-1.009,1.921,1.009v-.216L87.951,274l1.553-1.515Z" transform="translate(-19.832 -64.346)" fill="#cc8c24"/><path d="M87.358,271.892l-.96-1.946-.961,1.946-2.147.312,1.553,1.515-.366,2.139,1.921-1.01,1.92,1.01-.366-2.139L89.5,272.2Z" transform="translate(-19.832 -64.278)" fill="#f4e03f"/><path d="M87.36,272.392l-.756-1.531-.755,1.531-1.689.245,1.222,1.192-.289,1.682,1.511-.794,1.512.794-.289-1.682,1.222-1.192Z" transform="translate(-20.04 -64.496)" fill="#f4e03f"/><path d="M85.674,274.475l-.289,1.682,1.511-.794,1.512.794-.289-1.682.926-.9c-.834.746-2.738,1.22-3.371.9" transform="translate(-20.331 -65.141)" fill="#e8bc32"/><path d="M90.307,273.42l-.118.115c.042-.037.082-.076.118-.115" transform="translate(-21.475 -65.105)" fill="#e8bc32"/><path d="M84.159,273.186l1.222,1.192-1.067-1.214Z" transform="translate(-20.04 -65.044)" fill="#e6bc33"/><path d="M86.28,270.985l-.57,1.154-1.272.185a1.186,1.186,0,1,0,1.842-1.339" transform="translate(-20.106 -64.525)" fill="#f6e84b"/><path d="M86.6,270.861l-.756,1.531-1.689.245.148.144,1.654-.2.643-1.315.632,1.315,1.635.232.178-.173-1.689-.245Z" transform="translate(-20.039 -64.496)" fill="#e4b633"/><path d="M85.423,276.42l.251-1.464v-.2l-.289,1.682Z" transform="translate(-20.331 -65.423)" fill="#d1982b"/><path d="M88.973,274.955l.251,1.464.037.019-.289-1.682Z" transform="translate(-21.186 -65.423)" fill="#d1982b"/><path d="M86.515,271.484l-.3.618a.347.347,0,0,0,.069.007.364.364,0,0,0,.376-.351.342.342,0,0,0-.14-.273" transform="translate(-20.528 -64.644)" fill="#fdf9a6"/><g transform="translate(56.579 205.669)" opacity="0.16"><g clip-path="url(#v)"><path d="M80.116,272.2l-1.787-.168-.96-1.946-.361-.145-.03.936-.187.379-.306.619-.077.156-2.147.312v.217l1.521,1.483-.663,2.025.328.145,1.921-1.01,1.921,1.05-.335-2.209,1.606-1.794Z" transform="translate(-74.261 -269.946)" fill="#1a1050"/></g></g><path d="M80,272.272l-2.147-.1-.961-1.946-.391.791-.094.191-.475.964-2.148.1v.216L75.342,274l-.367,1.922v.216l1.921-1.009,1.921,1.009v-.216L78.449,274,80,272.489Z" transform="translate(-17.57 -64.346)" fill="#cc8c24"/><path d="M77.856,271.892l-.96-1.946-.961,1.946-2.147.312,1.553,1.515-.366,2.139,1.921-1.01,1.92,1.01-.366-2.139L80,272.2Z" transform="translate(-17.57 -64.278)" fill="#f4e03f"/><path d="M77.858,272.392l-.756-1.531-.755,1.531-1.689.245,1.222,1.192-.289,1.682,1.511-.794,1.512.794-.289-1.682,1.222-1.192Z" transform="translate(-17.777 -64.496)" fill="#f4e03f"/><path d="M76.172,274.475l-.289,1.682,1.511-.794,1.512.794-.289-1.682.926-.9c-.834.746-2.738,1.22-3.371.9" transform="translate(-18.069 -65.141)" fill="#e8bc32"/><path d="M80.805,273.42l-.118.115c.042-.037.082-.076.118-.115" transform="translate(-19.213 -65.105)" fill="#e8bc32"/><path d="M74.658,273.186l1.222,1.192-1.067-1.214Z" transform="translate(-17.777 -65.044)" fill="#e6bc33"/><path d="M76.778,270.985l-.57,1.154-1.272.185a1.186,1.186,0,1,0,1.842-1.339" transform="translate(-17.843 -64.525)" fill="#f6e84b"/><path d="M77.1,270.861l-.756,1.531-1.689.245.148.144,1.654-.2.643-1.315.632,1.315,1.635.232.178-.173-1.689-.245Z" transform="translate(-17.777 -64.496)" fill="#e4b633"/><path d="M75.921,276.42l.251-1.464v-.2l-.289,1.682Z" transform="translate(-18.069 -65.423)" fill="#d1982b"/><path d="M79.471,274.955l.251,1.464.037.019-.289-1.682Z" transform="translate(-18.923 -65.423)" fill="#d1982b"/><path d="M77.013,271.484l-.3.618a.347.347,0,0,0,.069.007.364.364,0,0,0,.376-.351.342.342,0,0,0-.14-.273" transform="translate(-18.265 -64.644)" fill="#fdf9a6"/><path d="M79.518,296.837a16.879,16.879,0,0,1-2.589,4.523c-1.448,1.8-3.969,4.149-9.917,6.171a50.554,50.554,0,0,1-16.569,2.49q.075,0,.153,0h27.73a2.544,2.544,0,0,0,2.545-2.545v-8.394a2.545,2.545,0,0,0-1.353-2.249" transform="translate(-12.011 -70.681)" fill="#e9c347"/></g><text transform="translate(39.21 235.964)" font-size="9" font-family="MyriadPro-Regular, Myriad Pro"><tspan x="0" y="0" letter-spacing="-0.002em">A</tspan><tspan y="0">irBN</tspan><tspan y="0" letter-spacing="-0.012em">B</tspan><tspan y="0">.</tspan></text><g clip-path="url(#a)"><path d="M40.8,182.847a3.185,3.185,0,0,0-3.185-3.185H4.589A3.184,3.184,0,0,0,1.4,182.847v9.888a3.185,3.185,0,0,0,3.185,3.185H49.874l-9.073-3.6Z" transform="translate(-0.334 -42.78)" fill="#a5b8df"/><path d="M9.9,188.708A4.074,4.074,0,0,0,5.867,192.2a.511.511,0,0,0,.5.586h7.057a.511.511,0,0,0,.5-.586A4.074,4.074,0,0,0,9.9,188.708" transform="translate(-1.396 -44.934)" fill="#fff"/><path d="M10.6,184.167a1.787,1.787,0,1,0,1.787,1.787,1.787,1.787,0,0,0-1.787-1.787" transform="translate(-2.099 -43.853)" fill="#fff"/><path d="M26.509,191.487H19.9a.455.455,0,1,0,0,.907h6.606a.455.455,0,1,0,0-.907" transform="translate(-4.624 -45.596)" fill="#fff"/><path d="M34.066,191.487H31.005a.455.455,0,1,0,0,.907h3.061a.455.455,0,1,0,0-.907" transform="translate(-7.268 -45.596)" fill="#fff"/><path d="M44.126,191.487h-6.65a.455.455,0,1,0,0,.907h6.65a.455.455,0,1,0,0-.907" transform="translate(-8.809 -45.596)" fill="#fff"/><path d="M24.1,189.111H19.871a.383.383,0,0,0-.393.369v.17a.383.383,0,0,0,.393.369H24.1a.383.383,0,0,0,.393-.369v-.17a.383.383,0,0,0-.393-.369" transform="translate(-4.638 -45.03)" fill="#fff"/><path d="M36.934,189.111H27.912a.455.455,0,1,0,0,.907h9.022a.455.455,0,1,0,0-.907" transform="translate(-6.531 -45.03)" fill="#fff"/><path d="M45.364,189.111H41.852a.351.351,0,0,0-.36.338v.231a.351.351,0,0,0,.36.338h3.512a.352.352,0,0,0,.36-.338v-.231a.352.352,0,0,0-.36-.338" transform="translate(-9.88 -45.03)" fill="#fff"/><path d="M26.567,186.772H19.961a.455.455,0,1,0,0,.907h6.606a.455.455,0,1,0,0-.907" transform="translate(-4.638 -44.473)" fill="#fff"/><path d="M34.123,186.772H31.062a.455.455,0,1,0,0,.907h3.061a.455.455,0,1,0,0-.907" transform="translate(-7.281 -44.473)" fill="#fff"/><path d="M44.183,186.772h-6.65a.455.455,0,1,0,0,.907h6.65a.455.455,0,1,0,0-.907" transform="translate(-8.822 -44.473)" fill="#fff"/><path d="M26.47,184.44H19.864a.455.455,0,1,0,0,.907H26.47a.455.455,0,1,0,0-.907" transform="translate(-4.615 -43.918)" fill="#fff"/><path d="M37.661,184.44h-6.7a.455.455,0,1,0,0,.907h6.7a.455.455,0,1,0,0-.907" transform="translate(-7.258 -43.918)" fill="#fff"/><path d="M45.411,184.44h-3.14a.333.333,0,0,0-.343.322v.264a.333.333,0,0,0,.343.322h3.14a.334.334,0,0,0,.343-.322v-.264a.334.334,0,0,0-.343-.322" transform="translate(-9.984 -43.918)" fill="#fff"/><path d="M26.527,193.892H19.921a.455.455,0,1,0,0,.907h6.606a.455.455,0,1,0,0-.907" transform="translate(-4.628 -46.168)" fill="#fff"/><path d="M37.719,193.892h-6.7a.455.455,0,1,0,0,.907h6.7a.455.455,0,1,0,0-.907" transform="translate(-7.272 -46.168)" fill="#fff"/><path d="M45.468,193.892h-3.14a.333.333,0,0,0-.343.322v.264a.333.333,0,0,0,.343.322h3.14a.334.334,0,0,0,.343-.322v-.264a.334.334,0,0,0-.343-.322" transform="translate(-9.997 -46.168)" fill="#fff"/><path d="M23.864,225.3l.018-.851-.443.727a.889.889,0,0,1-.779.427l-.85-.018.731.4a.889.889,0,0,1,.457.835l-.052.833.4-.731a.89.89,0,0,1,.835-.458l.834.052-.727-.443a.89.89,0,0,1-.427-.779" transform="translate(-5.193 -53.445)" fill="#fff"/><path d="M39.4,217.488a3.185,3.185,0,0,0-3.185-3.185H3.185A3.184,3.184,0,0,0,0,217.488v9.888a3.185,3.185,0,0,0,3.185,3.185H48.47l-9.073-3.6Z" transform="translate(0 -51.028)" fill="#dc7777"/><path d="M27.738,225.8H22.182a.456.456,0,0,0,0,.907h5.556a.456.456,0,0,0,0-.907" transform="translate(-5.185 -53.765)" fill="#fff"/><path d="M34.843,225.8H31.782a.455.455,0,1,0,0,.907h3.061a.455.455,0,1,0,0-.907" transform="translate(-7.453 -53.765)" fill="#fff"/><path d="M44.9,225.8H38.252a.455.455,0,1,0,0,.907H44.9a.455.455,0,1,0,0-.907" transform="translate(-8.993 -53.765)" fill="#fff"/><path d="M25.3,223.421H22a.344.344,0,0,0-.307.369v.17a.344.344,0,0,0,.307.369h3.3a.343.343,0,0,0,.307-.369v-.17a.343.343,0,0,0-.307-.369" transform="translate(-5.166 -53.2)" fill="#fff"/><path d="M37.711,223.421H28.689a.455.455,0,1,0,0,.907h9.022a.455.455,0,1,0,0-.907" transform="translate(-6.716 -53.2)" fill="#fff"/><path d="M46.14,223.421H42.628a.351.351,0,0,0-.36.338v.231a.351.351,0,0,0,.36.338H46.14a.351.351,0,0,0,.36-.338v-.231a.351.351,0,0,0-.36-.338" transform="translate(-10.065 -53.2)" fill="#fff"/><path d="M27.779,221.083H22.185a.456.456,0,0,0,0,.907h5.595a.456.456,0,0,0,0-.907" transform="translate(-5.185 -52.643)" fill="#fff"/><path d="M34.9,221.083H31.839a.455.455,0,1,0,0,.907H34.9a.455.455,0,1,0,0-.907" transform="translate(-7.466 -52.643)" fill="#fff"/><path d="M44.96,221.083H38.31a.455.455,0,1,0,0,.907h6.65a.455.455,0,1,0,0-.907" transform="translate(-9.007 -52.643)" fill="#fff"/><path d="M27.71,218.751H22.18a.457.457,0,0,0,0,.907H27.71a.457.457,0,0,0,0-.907" transform="translate(-5.185 -52.088)" fill="#fff"/><path d="M38.438,218.751h-6.7a.455.455,0,1,0,0,.907h6.7a.455.455,0,1,0,0-.907" transform="translate(-7.443 -52.088)" fill="#fff"/><path d="M46.188,218.751h-3.14a.333.333,0,0,0-.343.322v.264a.333.333,0,0,0,.343.322h3.14a.334.334,0,0,0,.343-.322v-.264a.334.334,0,0,0-.343-.322" transform="translate(-10.169 -52.088)" fill="#fff"/><path d="M27.75,228.2H22.182a.456.456,0,0,0,0,.907H27.75a.456.456,0,0,0,0-.907" transform="translate(-5.185 -54.338)" fill="#fff"/><path d="M38.5,228.2H31.8a.455.455,0,1,0,0,.907h6.7a.455.455,0,1,0,0-.907" transform="translate(-7.457 -54.338)" fill="#fff"/><path d="M46.245,228.2H43.1a.333.333,0,0,0-.343.322v.264a.333.333,0,0,0,.343.322h3.14a.334.334,0,0,0,.343-.322v-.264a.334.334,0,0,0-.343-.322" transform="translate(-10.182 -54.338)" fill="#fff"/><path d="M9.57,217.411a5.835,5.835,0,1,0,5.835,5.835,5.834,5.834,0,0,0-5.835-5.835" transform="translate(-0.889 -51.769)" fill="#fff"/><path d="M11.505,226.284a4.974,4.974,0,0,0-1.166-.518.535.535,0,0,0-.357-.065.76.76,0,0,0-.356.324c-.1.139-.1.2-.178.243a.393.393,0,0,1-.324-.033,5.269,5.269,0,0,1-1.976-2.3.277.277,0,0,1,.033-.226c.051-.08.126-.085.307-.162a.837.837,0,0,0,.341-.194.584.584,0,0,0,.1-.389,1.656,1.656,0,0,0-.1-.485c-.087-.316-.117-.434-.194-.68-.092-.292-.123-.359-.194-.421a.63.63,0,0,0-.389-.13,1.531,1.531,0,0,0-1.02.373,1.656,1.656,0,0,0-.518.842,1.853,1.853,0,0,0-.049.632,2.841,2.841,0,0,0,.259,1,8.436,8.436,0,0,0,1.1,1.813,10.893,10.893,0,0,0,1.3,1.312,4.01,4.01,0,0,0,.712.55,2.424,2.424,0,0,0,1.02.389A1.81,1.81,0,0,0,10.906,228a1.756,1.756,0,0,0,.68-.632c.109-.176.33-.535.194-.826-.043-.092-.12-.149-.275-.259" transform="translate(-1.3 -52.682)" fill="#75b0e6"/><path d="M11.871,224.369h-.858c.014-.02.028-.039.042-.056a2.987,2.987,0,0,1,.366-.369c.181-.161.311-.28.388-.357a1.382,1.382,0,0,0,.234-.322.942.942,0,0,0,.117-.465.926.926,0,0,0-.056-.315.863.863,0,0,0-.157-.268.744.744,0,0,0-.236-.184,1.115,1.115,0,0,0-.489-.1,1.054,1.054,0,0,0-.417.077.853.853,0,0,0-.472.486.849.849,0,0,0-.059.3.3.3,0,0,0,.071.207.239.239,0,0,0,.183.079.226.226,0,0,0,.192-.089.75.75,0,0,0,.1-.216,1,1,0,0,1,.056-.152.371.371,0,0,1,.333-.2.361.361,0,0,1,.184.05.348.348,0,0,1,.133.137.412.412,0,0,1,.05.2.571.571,0,0,1-.048.219.85.85,0,0,1-.142.224,1.544,1.544,0,0,1-.238.222,3.115,3.115,0,0,0-.28.259c-.129.13-.275.286-.434.467a.737.737,0,0,0-.114.2.564.564,0,0,0-.053.2.314.314,0,0,0,.331.318h1.326a.269.269,0,0,0,.211-.082.288.288,0,0,0,.069-.193.254.254,0,0,0-.09-.2.361.361,0,0,0-.243-.074" transform="translate(-2.444 -52.846)" fill="#75b0e6"/><path d="M15,223.817a.563.563,0,0,0-.242-.046h-.032V222.3c0-.319-.174-.386-.318-.386a.239.239,0,0,0-.178.075,1.592,1.592,0,0,0-.158.2l-.955,1.393-.066.1c-.019.027-.037.055-.054.084a.448.448,0,0,0-.042.09.28.28,0,0,0-.014.089.353.353,0,0,0,.1.262.4.4,0,0,0,.289.1h.859v.321a.389.389,0,0,0,.072.251.26.26,0,0,0,.4,0,.391.391,0,0,0,.072-.253V224.3h.065a.375.375,0,0,0,.232-.061.24.24,0,0,0,.086-.2.223.223,0,0,0-.109-.222m-.814-1v.95h-.645Z" transform="translate(-3.08 -52.84)" fill="#75b0e6"/></g></g></svg>