<svg id="Grupo_746478" data-name="Grupo 746478" xmlns="http://www.w3.org/2000/svg" xmlns:xlink="http://www.w3.org/1999/xlink" width="181.237" height="71.837" viewBox="0 0 181.237 71.837">
  <defs>
    <clipPath id="clip-path">
      <rect id="Rectángulo_289478" data-name="Rectángulo 289478" width="181.237" height="71.837" fill="none"/>
    </clipPath>
  </defs>
  <g id="Grupo_746478-2" data-name="Grupo 746478" clip-path="url(#clip-path)">
    <g id="Grupo_746479" data-name="Grupo 746479">
      <path id="Trazado_509412" data-name="Trazado 509412" d="M396.46,29.784c-.514.131-.817.583-1.168.9a10.869,10.869,0,0,1-1.17.905,10,10,0,0,1-2.752,1.357,11.322,11.322,0,0,1-3.807.226,7.9,7.9,0,0,1-5.466-2.752,10.313,10.313,0,0,1-1.736-2.375c-1.329-2.556-1.847-6.859-1.205-10.632.593-3.486,2.285-6,4.938-7.39a7.166,7.166,0,0,1,3.206-.905,19.848,19.848,0,0,1,3.921.114c2.434.354,3.7,1.734,5.277,2.94-.041-1.7.038-3.715.038-5.693,0-1.918-.051-3.912.565-5.127A2.755,2.755,0,0,1,400.607.227a3.266,3.266,0,0,1,.83.527c.226.184.618.435.677.641a11.592,11.592,0,0,1,0,2.074c0,6.151.077,12.157.077,18.361V25.3c0,1.322.03,2.669-.039,4.072-.055,1.152-.181,2.813-.754,3.318a2.7,2.7,0,0,1-.98.414,2.669,2.669,0,0,1-2.376-.188,3.833,3.833,0,0,1-1.582-3.129m-8.144-15.835a6.121,6.121,0,0,0-2.941,3.884c-.7,2.452-.646,5.789.453,7.766a6.612,6.612,0,0,0,.979,1.282,5.174,5.174,0,0,0,4.977,1.584,6.041,6.041,0,0,0,4.184-4.939,13.988,13.988,0,0,0,.151-2.9,9.659,9.659,0,0,0-.754-3.884,7.75,7.75,0,0,0-2.45-2.6,4.9,4.9,0,0,0-2.79-.754,5.324,5.324,0,0,0-1.81.565" transform="translate(-260.544 0)" fill="#565656" fill-rule="evenodd"/>
      <path id="Trazado_509413" data-name="Trazado 509413" d="M145.54,48.717c-.045-.149-.16.082-.225.151a10.654,10.654,0,0,1-4.562,3.167,9.839,9.839,0,0,1-6.937-.49c-3.534-1.777-5.73-5.429-5.73-10.783a24.451,24.451,0,0,1,.264-3.883,10.5,10.5,0,0,1,1.055-3.053,9.192,9.192,0,0,1,4.072-4.185,7.923,7.923,0,0,1,3.28-.867,14.58,14.58,0,0,1,3.808.3,8.088,8.088,0,0,1,4,2.224,5.351,5.351,0,0,0,1.093.942,11.065,11.065,0,0,0,.151-1.131,3.285,3.285,0,0,1,1.244-2.149,4.143,4.143,0,0,1,3.167.075,2.957,2.957,0,0,1,.943,1.659,66.093,66.093,0,0,1,.264,7.012c.08,2.279,0,4.782,0,7.314,0,2.3-.044,4.736-.151,7.087a13.894,13.894,0,0,1-.414,3.242,8.1,8.1,0,0,1-5.278,5.693,18.317,18.317,0,0,1-6.522.792,15.505,15.505,0,0,1-6.145-1.169,9.862,9.862,0,0,1-2.224-1.432,5.835,5.835,0,0,1-1.659-2,2.6,2.6,0,0,1,3.167-3.62,6.149,6.149,0,0,1,2.149,1.772,9.72,9.72,0,0,0,2.187,1.733,8.435,8.435,0,0,0,6.522-.226c2.342-1.289,2.211-4.6,2.487-8.181m-8.03-15.043a6.148,6.148,0,0,0-3.13,4.336c-.8,3.246-.022,6.638,1.584,8.331a5.088,5.088,0,0,0,3.694,1.583,5.491,5.491,0,0,0,3.619-1.395,6.938,6.938,0,0,0,1.923-3.091,11.126,11.126,0,0,0,.189-3.581,10.342,10.342,0,0,0-.641-3.205,6.517,6.517,0,0,0-2-2.488,5.666,5.666,0,0,0-3.505-1.056,5.181,5.181,0,0,0-1.735.565" transform="translate(-88.081 -19.725)" fill="#565656" fill-rule="evenodd"/>
      <path id="Trazado_509414" data-name="Trazado 509414" d="M521.156,49.861c-1.816,1.063-3.167,2.241-5.391,2.79-2.079.513-5.279.549-7.127-.34a7.23,7.23,0,0,1-2.224-1.848,6.479,6.479,0,0,1-1.431-2.639,6.6,6.6,0,0,1,1.659-6.108c1.451-1.464,4.314-2.031,6.785-2.6,1.785-.411,3.83-.826,5.731-1.319.617-.16,1.439-.356,1.584-.754a2.4,2.4,0,0,0-.19-1.433,3.415,3.415,0,0,0-2.336-2.564,7.89,7.89,0,0,0-3.053-.076,5.529,5.529,0,0,0-2.527.83,7.471,7.471,0,0,0-1.659,1.7c-.41.564-.952,1.63-1.622,1.847a3.721,3.721,0,0,1-2.148-.113,2.187,2.187,0,0,1-1.359-2.036c-.069-2.393,1.8-4.1,3.318-4.976a10.446,10.446,0,0,1,2.978-1.169,25.85,25.85,0,0,1,3.883-.264c2.529-.118,5.417.094,7.088,1.018a6.2,6.2,0,0,1,2.112,1.885,16.58,16.58,0,0,1,1.055,1.96,3.445,3.445,0,0,1,.339.641,7.52,7.52,0,0,1,.038,1.093c.11,3.934.033,8.036.453,11.763a12.263,12.263,0,0,0,.377,1.847,4.648,4.648,0,0,1,.263,1.961,3.07,3.07,0,0,1-1.885,2,2.777,2.777,0,0,1-2.413-.49,3.529,3.529,0,0,1-.679-.452,6.456,6.456,0,0,1-.338-.6,17.006,17.006,0,0,0-1.282-1.545m-3.771-7.955c-.8.191-1.592.4-2.374.6a12.107,12.107,0,0,0-2.262.716,3.692,3.692,0,0,0-1.585,1.395,3.085,3.085,0,0,0,1.282,3.884,4.788,4.788,0,0,0,2.715.528,6.761,6.761,0,0,0,4.41-2.224,6.344,6.344,0,0,0,1.208-3.77c.019-.426.086-1.373-.114-1.584-.147-.154-.621-.09-.754-.075a21.728,21.728,0,0,0-2.527.528" transform="translate(-347.124 -19.774)" fill="#565656" fill-rule="evenodd"/>
      <path id="Trazado_509415" data-name="Trazado 509415" d="M262.9,28.915a20.89,20.89,0,0,1,5.579.452,9.461,9.461,0,0,1,3.921,2.074,11.358,11.358,0,0,1,3.469,5.541,10.864,10.864,0,0,1,.377,2.6c.045.987-.031,1.942-.077,2.866a11.543,11.543,0,0,1-.338,2.677,12.234,12.234,0,0,1-2.113,3.883,10.785,10.785,0,0,1-7.916,4.072,12.811,12.811,0,0,1-9.312-2.563,11.762,11.762,0,0,1-3.921-8.068,12.718,12.718,0,0,1,2.413-9.463,11.73,11.73,0,0,1,5.353-3.656,9.2,9.2,0,0,1,2.564-.415m-.6,4.825a5.6,5.6,0,0,0-1.432.868c-2.119,1.869-2.853,6.344-1.7,9.915a5.892,5.892,0,0,0,2.263,3.243,5.79,5.79,0,0,0,4.525.679,3.874,3.874,0,0,0,1.054-.453,6.878,6.878,0,0,0,2.3-2.337c.785-1.32.829-3.338.829-5.278a8.9,8.9,0,0,0-.3-2.753,7.363,7.363,0,0,0-1.017-2.073,5.155,5.155,0,0,0-6.523-1.81" transform="translate(-173.616 -19.867)" fill="#565656" fill-rule="evenodd"/>
      <path id="Trazado_509416" data-name="Trazado 509416" d="M19.62,49.955c-2.506,1.575-5.152,3.316-9.162,3.2a7.337,7.337,0,0,1-6.145-3.129,5.566,5.566,0,0,1-1.055-3.695A6.708,6.708,0,0,1,4.426,42.49,7.775,7.775,0,0,1,8.611,40c1.7-.512,3.577-.892,5.39-1.282,1.381-.3,2.752-.563,4.072-.942A2.621,2.621,0,0,0,19.2,37.25a5.125,5.125,0,0,0-.377-1.659,4.063,4.063,0,0,0-.565-1.47,4.275,4.275,0,0,0-2.186-1.093,7.934,7.934,0,0,0-4.675.6c-1.333.719-1.984,1.96-2.978,3.13a1.731,1.731,0,0,1-.83.678,2.829,2.829,0,0,1-2.978-.9,2.651,2.651,0,0,1-.3-1.282,5.384,5.384,0,0,1,2.111-4.185,9.24,9.24,0,0,1,4.26-2,25.9,25.9,0,0,1,4.524-.151c2.61.04,5.25.166,6.862,1.244a6.417,6.417,0,0,1,2.224,2.526,12.7,12.7,0,0,1,.716,4.185c.178,3.82-.1,8.182.678,11.5a12.882,12.882,0,0,1,.415,2,2.089,2.089,0,0,1-1.132,2.224,2.589,2.589,0,0,1-2.337.453c-1.366-.479-2.279-2.192-3.016-3.091M18.563,41.4a68.4,68.4,0,0,0-6.785,1.7,6.644,6.644,0,0,0-.943.3A2.852,2.852,0,0,0,9.29,45.619a2.978,2.978,0,0,0,.641,2.187,3.7,3.7,0,0,0,2.45,1.32,7.507,7.507,0,0,0,3.2-.49c2.174-.838,3.507-2.788,3.619-5.618a3.169,3.169,0,0,0-.188-1.659,1.264,1.264,0,0,0-.453.038" transform="translate(-2.235 -19.87)" fill="#565656" fill-rule="evenodd"/>
    </g>
    <path id="Trazado_509417" data-name="Trazado 509417" d="M527.9,165.744a11.892,11.892,0,1,1-11.892-11.892A11.892,11.892,0,0,1,527.9,165.744" transform="translate(-346.666 -105.799)" fill="#01a8df" fill-rule="evenodd"/>
    <path id="Trazado_509418" data-name="Trazado 509418" d="M401.871,165.744a11.892,11.892,0,1,1-11.892-11.892,11.891,11.891,0,0,1,11.892,11.892" transform="translate(-259.998 -105.799)" fill="#a24699" fill-rule="evenodd"/>
    <path id="Trazado_509419" data-name="Trazado 509419" d="M275.843,165.744a11.892,11.892,0,1,1-11.892-11.892,11.893,11.893,0,0,1,11.892,11.892" transform="translate(-173.332 -105.799)" fill="#02af56" fill-rule="evenodd"/>
    <path id="Trazado_509420" data-name="Trazado 509420" d="M149.813,165.744a11.892,11.892,0,1,1-11.892-11.892,11.892,11.892,0,0,1,11.892,11.892" transform="translate(-86.667 -105.799)" fill="#fcb616" fill-rule="evenodd"/>
    <path id="Trazado_509421" data-name="Trazado 509421" d="M23.784,165.744a11.892,11.892,0,1,1-11.892-11.892,11.892,11.892,0,0,1,11.892,11.892" transform="translate(0 -105.799)" fill="#ed353f" fill-rule="evenodd"/>
  </g>
</svg>
