<svg xmlns="http://www.w3.org/2000/svg" xmlns:xlink="http://www.w3.org/1999/xlink" width="92.585" height="104.797" viewBox="0 0 92.585 104.797">
  <defs>
    <clipPath id="clip-path">
      <rect id="Rectángulo_289480" data-name="Rectángulo 289480" width="92.585" height="104.797" fill="#ff5a5f"/>
    </clipPath>
  </defs>
  <g id="Grupo_746483" data-name="Grupo 746483" clip-path="url(#clip-path)">
    <path id="Trazado_509422" data-name="Trazado 509422" d="M110.36,55.453a16.791,16.791,0,0,0-1.239-5.924c-.572-1.459-1.236-2.881-1.885-4.307Q99.5,28.351,90.993,11.847c-.8-1.537-1.577-3.083-2.419-4.6A16.277,16.277,0,0,0,85.538,3.2a11.855,11.855,0,0,0-7.4-3.2H76.88a11.8,11.8,0,0,0-7.6,3.295A16.442,16.442,0,0,0,66.35,7.254c-.831,1.488-1.6,3.01-2.382,4.523q-5.7,11.07-11.07,22.31c-2.132,4.484-4.246,8.975-6.28,13.5a22.052,22.052,0,0,0-1.893,5.9,15.052,15.052,0,0,0,8.893,16,15.328,15.328,0,0,0,6.95,1.23,19.057,19.057,0,0,0,8.938-2.979,39.03,39.03,0,0,0,7.959-6.857,40.2,40.2,0,0,0,7.347,6.473,19.668,19.668,0,0,0,8.857,3.309,15.093,15.093,0,0,0,15.624-9.413,14.971,14.971,0,0,0,1.065-5.8M77.481,54.112c-.867-1.021-1.631-2.125-2.4-3.222a39.435,39.435,0,0,1-3.41-5.965,19.589,19.589,0,0,1-1.638-5.449,9.4,9.4,0,0,1,.416-4.493,6.623,6.623,0,0,1,2.641-3.259,8.192,8.192,0,0,1,9.531.593,6.928,6.928,0,0,1,2.293,4.469,14.412,14.412,0,0,1-1.043,6.63,42.387,42.387,0,0,1-6.393,10.7m28.07,4.788a10.631,10.631,0,0,1-5.006,6.274,10.925,10.925,0,0,1-7.077,1.2,17.683,17.683,0,0,1-8.184-4.016,43.456,43.456,0,0,1-4.831-4.665,55.633,55.633,0,0,0,6.338-9.607,23.733,23.733,0,0,0,2.74-9.675,12.728,12.728,0,0,0-1.349-6.259A11.491,11.491,0,0,0,81.8,26.673a13.054,13.054,0,0,0-7.908-.248,11.455,11.455,0,0,0-8.446,10.3,19.986,19.986,0,0,0,1.723,9.243,48.839,48.839,0,0,0,7.3,11.683,39.963,39.963,0,0,1-4.238,4.211,19.055,19.055,0,0,1-8.086,4.379,11.091,11.091,0,0,1-7.379-.865,10.609,10.609,0,0,1-5.443-6.656,10.945,10.945,0,0,1,.241-6.414c.579-1.7,1.365-3.319,2.1-4.954q7.654-16.689,16.061-33.02c.835-1.62,1.658-3.247,2.541-4.841A10.87,10.87,0,0,1,73.022,6.05a7.338,7.338,0,0,1,9.1.171,12.685,12.685,0,0,1,2.88,3.911c1.731,3.251,3.393,6.54,5.056,9.825q7.117,14.092,13.678,28.453a34.425,34.425,0,0,1,1.813,4.532,10.887,10.887,0,0,1,0,5.958" transform="translate(-31.218)" fill="#ff5a5f"/>
    <path id="Trazado_509423" data-name="Trazado 509423" d="M66.383,265.322a2.9,2.9,0,1,1-1.049.447,2.943,2.943,0,0,1,1.049-.447" transform="translate(-44.887 -185.834)" fill="#ff5a5f"/>
    <path id="Trazado_509424" data-name="Trazado 509424" d="M93.948,292.686a5.673,5.673,0,0,1,3.323-1.709,7.812,7.812,0,0,1,2.491.158c-.01,1.317,0,2.633,0,3.951a6.62,6.62,0,0,0-3.926.063,4.671,4.671,0,0,0-1.8,1.182c-.108.092-.082.241-.092.369.008,3.68-.006,7.362.005,11.041a1.261,1.261,0,0,1-.041.434c-1.421.033-2.844.006-4.266.011q0-8.416,0-16.833c1.2.006,2.4,0,3.593,0a.637.637,0,0,1,.64.377,3.483,3.483,0,0,1,.071.954" transform="translate(-62.799 -203.827)" fill="#ff5a5f"/>
    <path id="Trazado_509425" data-name="Trazado 509425" d="M196.9,292.7a6.148,6.148,0,0,1,4.4-1.759,7.173,7.173,0,0,1,4.782,1.571,5.2,5.2,0,0,1,1.807,2.719,14.4,14.4,0,0,1,.338,4.04q0,4.458,0,8.917c-1.433,0-2.866.01-4.3-.006q0-4.455,0-8.912a6.255,6.255,0,0,0-.534-3.277,2.565,2.565,0,0,0-2-1.139,4.685,4.685,0,0,0-4.063,1.437.54.54,0,0,0-.19.412c-.014.459.056.92.016,1.38-.056.625.031,1.249.01,1.876-.021,1.182-.016,2.362,0,3.543-.081,1.562.061,3.13-.033,4.69-1.428,0-2.854,0-4.281,0,0-5.614-.01-11.226.005-16.839,1.1.008,2.209,0,3.313,0a.638.638,0,0,1,.671.432,4.7,4.7,0,0,1,.055.914" transform="translate(-135.105 -203.823)" fill="#ff5a5f"/>
    <path id="Trazado_509426" data-name="Trazado 509426" d="M66.533,309.152q0-8.419,0-16.838,2.134,0,4.266,0c.011,5.612,0,11.225,0,16.836q-2.136,0-4.272,0" transform="translate(-46.609 -204.789)" fill="#ff5a5f"/>
    <path id="Trazado_509427" data-name="Trazado 509427" d="M17.275,291.344c-1.127,0-2.254,0-3.382-.007-.3,0-.679.013-.824.326a2.927,2.927,0,0,0-.092,1.018,5.723,5.723,0,0,0-3.616-1.72,8.667,8.667,0,0,0-5.945,1.664A8.424,8.424,0,0,0,.47,296.758,10.841,10.841,0,0,0,0,299.125v1.153a8.872,8.872,0,0,0,3.065,6.354,8.705,8.705,0,0,0,5.064,1.981h.958a5.8,5.8,0,0,0,3.89-1.786,2.994,2.994,0,0,0,.089,1.027.732.732,0,0,0,.718.326c1.163,0,2.328,0,3.492-.005q0-8.412,0-16.83m-4.431,11.591a4.559,4.559,0,0,1-3.586,1.615,5.028,5.028,0,0,1-3.907-1.687,5.048,5.048,0,0,1-.988-3.989,4.435,4.435,0,0,1,1.63-2.891,5.24,5.24,0,0,1,2.883-1.051,4.683,4.683,0,0,1,4.087,1.787c.052,1.829,0,3.663.025,5.5-.015.241.052.531-.143.72" transform="translate(0 -203.817)" fill="#ff5a5f"/>
    <path id="Trazado_509428" data-name="Trazado 509428" d="M145.811,278.2a8.394,8.394,0,0,0-3.327-3.947,8.727,8.727,0,0,0-5.173-1.264,5.787,5.787,0,0,0-3.794,1.735c-.006-3.144,0-6.287,0-9.431-1.434,0-2.869-.007-4.3,0,.007,8.3-.012,16.614.01,24.918,1.188,0,2.376.006,3.564,0a.654.654,0,0,0,.695-.438,5,5,0,0,0,.039-.926,5.755,5.755,0,0,0,3.933,1.8h.878a8.564,8.564,0,0,0,6.217-3.109,9.432,9.432,0,0,0,1.265-9.344m-5.014,7.085a5.213,5.213,0,0,1-3.588,1.306,4.543,4.543,0,0,1-3.566-1.639.518.518,0,0,1-.132-.4q0-2.89,0-5.779A4.761,4.761,0,0,1,137,276.96a5.269,5.269,0,0,1,3.805,1.326,5.084,5.084,0,0,1-.01,7" transform="translate(-90.522 -185.858)" fill="#ff5a5f"/>
    <path id="Trazado_509429" data-name="Trazado 509429" d="M266.874,276.123a8.541,8.541,0,0,0-7.848-3.06,5.67,5.67,0,0,0-3.213,1.667c-.009-3.142,0-6.285,0-9.429q-2.147,0-4.293,0,0,12.459,0,24.92c1.128.008,2.259,0,3.388.008.3,0,.667-.019.818-.322a2.937,2.937,0,0,0,.092-1.036,5.809,5.809,0,0,0,3.87,1.788h.967a8.571,8.571,0,0,0,6.155-3.073,9.063,9.063,0,0,0,1.986-5.252v-1.126a9.14,9.14,0,0,0-1.917-5.087m-3.351,8.684a5.211,5.211,0,0,1-4.914,1.721,4.445,4.445,0,0,1-2.771-1.711c-.071-.708-.007-1.423-.028-2.133.015-1.307-.032-2.618.021-3.922a4.65,4.65,0,0,1,2.764-1.711,5.033,5.033,0,0,1,5.293,2.251,5.213,5.213,0,0,1-.365,5.505" transform="translate(-176.206 -185.863)" fill="#ff5a5f"/>
  </g>
</svg>
