<svg xmlns="http://www.w3.org/2000/svg" xmlns:xlink="http://www.w3.org/1999/xlink" width="187.421" height="187.421" viewBox="0 0 187.421 187.421">
  <defs>
    <filter id="Trazado_501704" x="0" y="0" width="187.421" height="187.421" filterUnits="userSpaceOnUse">
      <feOffset dy="3" input="SourceAlpha"/>
      <feGaussianBlur stdDeviation="9" result="blur"/>
      <feFlood flood-opacity="0.161"/>
      <feComposite operator="in" in2="blur"/>
      <feComposite in="SourceGraphic"/>
    </filter>
  </defs>
  <g id="Grupo_765829" data-name="Grupo 765829" transform="translate(-1050.337 -4410.95)">
    <path id="Trazado_501649" data-name="Trazado 501649" d="M429.081,28.184a2.584,2.584,0,1,0,2.584,2.584,2.58,2.58,0,0,0-2.584-2.584" transform="translate(635.906 4431.495)" fill="#333"/>
    <g id="Grupo_765828" data-name="Grupo 765828" transform="translate(0 -0.002)">
      <path id="Trazado_501669" data-name="Trazado 501669" d="M490.823,3.349a2.594,2.594,0,1,0,2.584,2.584,2.592,2.592,0,0,0-2.584-2.584" transform="translate(668.609 4418.34)" fill="#333"/>
      <path id="Trazado_501671" data-name="Trazado 501671" d="M484.111,3.349a2.594,2.594,0,1,0,2.584,2.584,2.592,2.592,0,0,0-2.584-2.584" transform="translate(665.053 4418.34)" fill="#333"/>
      <g id="Grupo_765827" data-name="Grupo 765827">
        <path id="Trazado_501652" data-name="Trazado 501652" d="M429.081,21.46a2.584,2.584,0,1,0,2.584,2.584,2.58,2.58,0,0,0-2.584-2.584" transform="translate(635.906 4427.933)" fill="#333"/>
        <path id="Trazado_501653" data-name="Trazado 501653" d="M433.657,9.251a2.7,2.7,0,0,0-1.6-.552,2.543,2.543,0,0,0-2.031,1,2.583,2.583,0,1,0,3.635-.448" transform="translate(637.48 4421.174)" fill="#333"/>
        <path id="Trazado_501654" data-name="Trazado 501654" d="M429.786,14.81a2.2,2.2,0,0,0-.465-.05,2.619,2.619,0,1,0,.465.05" transform="translate(636.028 4424.384)" fill="#333"/>
        <path id="Trazado_501655" data-name="Trazado 501655" d="M532.45,41.575a2.593,2.593,0,1,0,2.584,2.6,2.595,2.595,0,0,0-2.584-2.6" transform="translate(690.658 4438.588)" fill="#333"/>
        <path id="Trazado_501656" data-name="Trazado 501656" d="M531.067,13.294a2.575,2.575,0,0,0,.43-3.618V9.659a2.629,2.629,0,0,0-2.031-.982,2.532,2.532,0,0,0-1.6.569,2.581,2.581,0,1,0,3.2,4.048" transform="translate(689.076 4421.163)" fill="#333"/>
        <path id="Trazado_501657" data-name="Trazado 501657" d="M532.45,34.863a2.584,2.584,0,1,0,2.584,2.584,2.58,2.58,0,0,0-2.584-2.584" transform="translate(690.658 4435.033)" fill="#333"/>
        <path id="Trazado_501658" data-name="Trazado 501658" d="M532.45,48.3a2.584,2.584,0,1,0,2.584,2.585A2.581,2.581,0,0,0,532.45,48.3" transform="translate(690.658 4442.149)" fill="#333"/>
        <path id="Trazado_501659" data-name="Trazado 501659" d="M532.45,28.15a2.584,2.584,0,1,0,2.584,2.584,2.58,2.58,0,0,0-2.584-2.584" transform="translate(690.658 4431.477)" fill="#333"/>
        <path id="Trazado_501660" data-name="Trazado 501660" d="M437.281,4.589a2.589,2.589,0,1,0,1.068,4.944,2.588,2.588,0,0,0-1.068-4.944" transform="translate(640.247 4418.997)" fill="#333"/>
        <path id="Trazado_501661" data-name="Trazado 501661" d="M529.666,17.8a2.586,2.586,0,1,0,2.55-3.067,2.389,2.389,0,0,0-.483.052,2.586,2.586,0,0,0-2.067,3.015" transform="translate(690.529 4424.372)" fill="#333"/>
        <path id="Trazado_501662" data-name="Trazado 501662" d="M532.45,21.438a2.584,2.584,0,1,0,2.584,2.584,2.58,2.58,0,0,0-2.584-2.584" transform="translate(690.658 4427.921)" fill="#333"/>
        <path id="Trazado_501663" data-name="Trazado 501663" d="M504.26,3.349a2.594,2.594,0,1,0,2.582,2.584,2.592,2.592,0,0,0-2.582-2.584" transform="translate(675.726 4418.34)" fill="#333"/>
        <path id="Trazado_501664" data-name="Trazado 501664" d="M497.535,3.349a2.594,2.594,0,1,0,2.584,2.584,2.6,2.6,0,0,0-2.584-2.584" transform="translate(672.164 4418.34)" fill="#333"/>
        <path id="Trazado_501665" data-name="Trazado 501665" d="M510.972,3.349a2.594,2.594,0,1,0,2.584,2.584,2.592,2.592,0,0,0-2.584-2.584" transform="translate(679.281 4418.34)" fill="#333"/>
        <path id="Trazado_501666" data-name="Trazado 501666" d="M525.28,4.818h.017a2.582,2.582,0,1,0-2.135,4.7,2.579,2.579,0,1,0,2.119-4.7" transform="translate(686.301 4418.991)" fill="#333"/>
        <path id="Trazado_501667" data-name="Trazado 501667" d="M443.813,3.349A2.594,2.594,0,1,0,446.4,5.933a2.605,2.605,0,0,0-2.584-2.584" transform="translate(643.708 4418.34)" fill="#333"/>
        <path id="Trazado_501668" data-name="Trazado 501668" d="M517.684,3.349a2.594,2.594,0,1,0,2.584,2.584,2.592,2.592,0,0,0-2.584-2.584" transform="translate(682.836 4418.34)" fill="#333"/>
        <path id="Trazado_501670" data-name="Trazado 501670" d="M457.249,3.349a2.594,2.594,0,1,0,2.584,2.584,2.592,2.592,0,0,0-2.584-2.584" transform="translate(650.825 4418.34)" fill="#333"/>
        <path id="Trazado_501672" data-name="Trazado 501672" d="M463.961,3.349a2.594,2.594,0,1,0,2.584,2.584,2.592,2.592,0,0,0-2.584-2.584" transform="translate(654.381 4418.34)" fill="#333"/>
        <path id="Trazado_501673" data-name="Trazado 501673" d="M450.537,3.349a2.594,2.594,0,1,0,2.584,2.584,2.592,2.592,0,0,0-2.584-2.584" transform="translate(647.27 4418.34)" fill="#333"/>
        <path id="Trazado_501674" data-name="Trazado 501674" d="M477.4,3.349a2.594,2.594,0,1,0,2.584,2.584A2.592,2.592,0,0,0,477.4,3.349" transform="translate(661.498 4418.34)" fill="#333"/>
        <path id="Trazado_501675" data-name="Trazado 501675" d="M470.685,3.349a2.594,2.594,0,1,0,2.567,2.584,2.581,2.581,0,0,0-2.567-2.584" transform="translate(657.942 4418.34)" fill="#333"/>
        <g id="Grupo_765826" data-name="Grupo 765826">
          <path id="Trazado_501648" data-name="Trazado 501648" d="M429.081,34.9a2.584,2.584,0,1,0,2.584,2.584,2.58,2.58,0,0,0-2.584-2.584" transform="translate(635.906 4435.05)" fill="#333"/>
          <path id="Trazado_501650" data-name="Trazado 501650" d="M429.081,41.609a2.584,2.584,0,1,0,2.584,2.584,2.58,2.58,0,0,0-2.584-2.584" transform="translate(635.906 4438.605)" fill="#333"/>
          <path id="Trazado_501651" data-name="Trazado 501651" d="M429.081,48.322a2.584,2.584,0,1,0,2.584,2.584,2.58,2.58,0,0,0-2.584-2.584" transform="translate(635.906 4442.162)" fill="#333"/>
          <path id="Trazado_501676" data-name="Trazado 501676" d="M532.45,55.034a2.3,2.3,0,0,0-.5.052,2.924,2.924,0,0,0-1.326.705,2.616,2.616,0,0,0-.757,1.826,2.38,2.38,0,0,0,.206,1,2.121,2.121,0,0,0,.223.448,3.445,3.445,0,0,0,.327.4,2.629,2.629,0,0,0,2.327.69,2.757,2.757,0,0,0,.5-.138,3.443,3.443,0,0,0,.431-.242,2.4,2.4,0,0,0,.4-.311,3.431,3.431,0,0,0,.327-.4,3.676,3.676,0,0,0,.242-.448c.051-.154.1-.327.138-.482a2.694,2.694,0,0,0,.05-.517,2.616,2.616,0,0,0-.757-1.826,2.587,2.587,0,0,0-1.826-.757" transform="translate(690.658 4445.717)" fill="#333"/>
          <path id="Trazado_501701" data-name="Trazado 501701" d="M430.573,52.223a6.891,6.891,0,0,0-6.891,6.891V116.82a28.279,28.279,0,0,0,28.247,28.247h115.41a28.279,28.279,0,0,0,28.247-28.247V85.467a6.891,6.891,0,1,0-13.782,0V116.82a14.481,14.481,0,0,1-14.465,14.463H451.929a14.48,14.48,0,0,1-14.465-14.463V59.114a6.891,6.891,0,0,0-6.891-6.891" transform="translate(634.415 4444.228)" fill="#04425b"/>
          <path id="Trazado_501702" data-name="Trazado 501702" d="M428.485,56.165a.861.861,0,0,0-.861.861v57.706a22.241,22.241,0,0,0,22.217,22.217H565.25a22.242,22.242,0,0,0,22.217-22.217V83.379a.861.861,0,0,0-1.722,0v31.352a20.518,20.518,0,0,1-20.495,20.493H449.841a20.517,20.517,0,0,1-20.495-20.493V57.026a.861.861,0,0,0-.861-.861" transform="translate(636.502 4446.316)" fill="#fff"/>
          <g transform="matrix(1, 0, 0, 1, 1050.34, 4410.95)" filter="url(#Trazado_501704)">
            <path id="Trazado_501704-2" data-name="Trazado 501704" d="M436.26,24.085V133.374a12.065,12.065,0,0,0,12.066,12.066H557.615a12.066,12.066,0,0,0,12.066-12.066V24.085a12.067,12.067,0,0,0-12.066-12.066H448.326A12.066,12.066,0,0,0,436.26,24.085" transform="translate(-409.26 11.98)" fill="#fff"/>
          </g>
          <path id="Trazado_501705" data-name="Trazado 501705" d="M429.081,53.937a2.595,2.595,0,0,0-1.826,4.427,2.7,2.7,0,0,0,3.651,0,3.422,3.422,0,0,0,.329-.4,3.681,3.681,0,0,0,.24-.448,4.741,4.741,0,0,0,.138-.482,2.587,2.587,0,0,0-2.532-3.1" transform="translate(635.906 4445.136)" fill="#fff"/>
          <path id="Trazado_530293" data-name="Trazado 530293" d="M33.75,14.023H28.984L27.914,17H26.367L30.711,5.625h1.313L36.375,17H34.836ZM29.438,12.8H33.3l-1.937-5.32Zm11.633,3.18a2.082,2.082,0,0,0,1.352-.469,1.649,1.649,0,0,0,.641-1.172H44.43a2.621,2.621,0,0,1-.5,1.383,3.293,3.293,0,0,1-1.23,1.047,3.55,3.55,0,0,1-1.629.391A3.482,3.482,0,0,1,38.324,16a4.59,4.59,0,0,1-1.02-3.152v-.242a5.089,5.089,0,0,1,.453-2.2,3.451,3.451,0,0,1,1.3-1.492,3.7,3.7,0,0,1,2-.531,3.39,3.39,0,0,1,2.363.852,3.043,3.043,0,0,1,1,2.211H43.063a1.992,1.992,0,0,0-.621-1.348,1.932,1.932,0,0,0-1.379-.527,2.023,2.023,0,0,0-1.707.793,3.724,3.724,0,0,0-.605,2.293v.273a3.65,3.65,0,0,0,.6,2.25A2.033,2.033,0,0,0,41.07,15.977Zm8.375,0a2.082,2.082,0,0,0,1.352-.469,1.649,1.649,0,0,0,.641-1.172H52.8a2.621,2.621,0,0,1-.5,1.383,3.293,3.293,0,0,1-1.23,1.047,3.55,3.55,0,0,1-1.629.391A3.482,3.482,0,0,1,46.7,16a4.59,4.59,0,0,1-1.02-3.152v-.242a5.089,5.089,0,0,1,.453-2.2,3.451,3.451,0,0,1,1.3-1.492,3.7,3.7,0,0,1,2-.531,3.39,3.39,0,0,1,2.363.852,3.043,3.043,0,0,1,1,2.211H51.438a1.992,1.992,0,0,0-.621-1.348,1.932,1.932,0,0,0-1.379-.527,2.023,2.023,0,0,0-1.707.793,3.724,3.724,0,0,0-.605,2.293v.273a3.65,3.65,0,0,0,.6,2.25A2.033,2.033,0,0,0,49.445,15.977Zm8.492,1.18a3.693,3.693,0,0,1-2.8-1.129,4.19,4.19,0,0,1-1.078-3.02v-.266a5.073,5.073,0,0,1,.48-2.246,3.748,3.748,0,0,1,1.344-1.547,3.378,3.378,0,0,1,1.871-.559A3.166,3.166,0,0,1,60.32,9.477a4.7,4.7,0,0,1,.914,3.109v.6H55.508a3,3,0,0,0,.73,2.02,2.3,2.3,0,0,0,1.777.77,2.517,2.517,0,0,0,1.3-.312,3.259,3.259,0,0,0,.93-.828l.883.688A3.55,3.55,0,0,1,57.938,17.156Zm-.18-7.578a1.928,1.928,0,0,0-1.469.637A3.1,3.1,0,0,0,55.555,12h4.234v-.109a2.753,2.753,0,0,0-.594-1.707A1.815,1.815,0,0,0,57.758,9.578Zm10.07,5.18a1.064,1.064,0,0,0-.441-.91,4.249,4.249,0,0,0-1.539-.559,7.277,7.277,0,0,1-1.742-.562,2.479,2.479,0,0,1-.953-.781,1.869,1.869,0,0,1-.309-1.078,2.193,2.193,0,0,1,.879-1.758,3.432,3.432,0,0,1,2.246-.719,3.532,3.532,0,0,1,2.332.742,2.357,2.357,0,0,1,.895,1.9H67.742a1.3,1.3,0,0,0-.5-1.023,1.888,1.888,0,0,0-1.27-.43,1.976,1.976,0,0,0-1.234.344,1.082,1.082,0,0,0-.445.9.877.877,0,0,0,.414.789,5.1,5.1,0,0,0,1.5.508,7.8,7.8,0,0,1,1.754.578,2.558,2.558,0,0,1,1,.809,1.988,1.988,0,0,1,.324,1.152,2.163,2.163,0,0,1-.906,1.816,3.8,3.8,0,0,1-2.352.684,4.257,4.257,0,0,1-1.8-.359,2.922,2.922,0,0,1-1.223-1,2.42,2.42,0,0,1-.441-1.395H64a1.5,1.5,0,0,0,.582,1.152,2.258,2.258,0,0,0,1.434.426,2.331,2.331,0,0,0,1.316-.332A1.02,1.02,0,0,0,67.828,14.758ZM70.773,12.7a4.993,4.993,0,0,1,.488-2.234A3.643,3.643,0,0,1,72.621,8.93a3.7,3.7,0,0,1,1.988-.539,3.565,3.565,0,0,1,2.793,1.2,4.6,4.6,0,0,1,1.066,3.18v.1A5.036,5.036,0,0,1,78,15.082a3.589,3.589,0,0,1-1.352,1.527,3.743,3.743,0,0,1-2.02.547,3.556,3.556,0,0,1-2.785-1.2A4.575,4.575,0,0,1,70.773,12.8Zm1.453.172a3.616,3.616,0,0,0,.652,2.258,2.211,2.211,0,0,0,3.5-.012,3.955,3.955,0,0,0,.648-2.418,3.61,3.61,0,0,0-.66-2.254,2.1,2.1,0,0,0-1.754-.863,2.075,2.075,0,0,0-1.727.852A3.925,3.925,0,0,0,72.227,12.867ZM89.461,17a3.036,3.036,0,0,1-.2-.891,3.225,3.225,0,0,1-2.406,1.047,2.984,2.984,0,0,1-2.051-.707,2.288,2.288,0,0,1-.8-1.793,2.39,2.39,0,0,1,1-2.051,4.733,4.733,0,0,1,2.824-.73h1.406v-.664A1.623,1.623,0,0,0,88.781,10a1.821,1.821,0,0,0-1.336-.449,2.108,2.108,0,0,0-1.3.391,1.151,1.151,0,0,0-.523.945H84.172a2,2,0,0,1,.449-1.223,3.066,3.066,0,0,1,1.219-.934,4.1,4.1,0,0,1,1.691-.344,3.342,3.342,0,0,1,2.289.73,2.635,2.635,0,0,1,.859,2.012v3.891a4.757,4.757,0,0,0,.3,1.852V17Zm-2.4-1.1a2.54,2.54,0,0,0,1.289-.352,2.127,2.127,0,0,0,.883-.914V12.9H88.1q-2.656,0-2.656,1.555a1.316,1.316,0,0,0,.453,1.063A1.742,1.742,0,0,0,87.063,15.9ZM32.57,39.977a2.082,2.082,0,0,0,1.352-.469,1.649,1.649,0,0,0,.641-1.172H35.93a2.621,2.621,0,0,1-.5,1.383,3.293,3.293,0,0,1-1.23,1.047,3.55,3.55,0,0,1-1.629.391A3.482,3.482,0,0,1,29.824,40a4.59,4.59,0,0,1-1.02-3.152v-.242a5.089,5.089,0,0,1,.453-2.2,3.451,3.451,0,0,1,1.3-1.492,3.7,3.7,0,0,1,2-.531,3.39,3.39,0,0,1,2.363.852,3.043,3.043,0,0,1,1,2.211H34.563a1.992,1.992,0,0,0-.621-1.348,1.932,1.932,0,0,0-1.379-.527,2.023,2.023,0,0,0-1.707.793,3.724,3.724,0,0,0-.605,2.293v.273a3.65,3.65,0,0,0,.6,2.25A2.033,2.033,0,0,0,32.57,39.977Zm9.07-6.133a4.331,4.331,0,0,0-.711-.055A1.9,1.9,0,0,0,39,35v6H37.555V32.547h1.406l.023.977A2.251,2.251,0,0,1,41,32.391a1.477,1.477,0,0,1,.641.109Zm4.836,7.313a3.693,3.693,0,0,1-2.8-1.129,4.19,4.19,0,0,1-1.078-3.02v-.266a5.073,5.073,0,0,1,.48-2.246,3.748,3.748,0,0,1,1.344-1.547,3.378,3.378,0,0,1,1.871-.559,3.166,3.166,0,0,1,2.563,1.086,4.7,4.7,0,0,1,.914,3.109v.6H44.047a3,3,0,0,0,.73,2.02,2.3,2.3,0,0,0,1.777.77,2.517,2.517,0,0,0,1.3-.312,3.258,3.258,0,0,0,.93-.828l.883.688A3.55,3.55,0,0,1,46.477,41.156Zm-.18-7.578a1.928,1.928,0,0,0-1.469.637A3.1,3.1,0,0,0,44.094,36h4.234v-.109a2.753,2.753,0,0,0-.594-1.707A1.815,1.815,0,0,0,46.3,33.578ZM47,29h1.75l-2.094,2.3-1.164,0Zm4.094,7.7a4.952,4.952,0,0,1,.922-3.129,3.137,3.137,0,0,1,4.766-.168V29h1.445V41H56.9l-.07-.906a2.943,2.943,0,0,1-2.414,1.063,2.887,2.887,0,0,1-2.395-1.2,5.008,5.008,0,0,1-.926-3.141Zm1.445.164a3.749,3.749,0,0,0,.594,2.25,1.919,1.919,0,0,0,1.641.813A2.108,2.108,0,0,0,56.781,38.7V34.813a2.125,2.125,0,0,0-1.992-1.2,1.929,1.929,0,0,0-1.656.82A4.128,4.128,0,0,0,52.539,36.867ZM62.039,41H60.594V32.547h1.445ZM60.477,30.3a.863.863,0,0,1,.215-.594.807.807,0,0,1,.637-.242.819.819,0,0,1,.641.242.854.854,0,0,1,.219.594.826.826,0,0,1-.219.586.834.834,0,0,1-.641.234.821.821,0,0,1-.637-.234A.834.834,0,0,1,60.477,30.3Zm5.836.2v2.047h1.578v1.117H66.313v5.249a1.173,1.173,0,0,0,.211.763.888.888,0,0,0,.719.254,3.5,3.5,0,0,0,.688-.094V41a4.215,4.215,0,0,1-1.109.155,1.8,1.8,0,0,1-1.461-.586,2.517,2.517,0,0,1-.492-1.664V33.664H63.328V32.547h1.539V30.5Zm2.727,6.2a4.993,4.993,0,0,1,.488-2.234,3.643,3.643,0,0,1,1.359-1.531,3.7,3.7,0,0,1,1.988-.539,3.565,3.565,0,0,1,2.793,1.2,4.6,4.6,0,0,1,1.066,3.18v.1a5.036,5.036,0,0,1-.473,2.215,3.589,3.589,0,0,1-1.352,1.527,3.743,3.743,0,0,1-2.02.547,3.556,3.556,0,0,1-2.785-1.2A4.575,4.575,0,0,1,69.039,36.8Zm1.453.172a3.616,3.616,0,0,0,.652,2.258,2.211,2.211,0,0,0,3.5-.012,3.955,3.955,0,0,0,.648-2.418,3.61,3.61,0,0,0-.66-2.254,2.1,2.1,0,0,0-1.754-.863,2.075,2.075,0,0,0-1.727.852A3.925,3.925,0,0,0,70.492,36.867Zm12.977,1.891a1.064,1.064,0,0,0-.441-.91,4.249,4.249,0,0,0-1.539-.559,7.277,7.277,0,0,1-1.742-.562,2.479,2.479,0,0,1-.953-.781,1.869,1.869,0,0,1-.309-1.078,2.193,2.193,0,0,1,.879-1.758,3.432,3.432,0,0,1,2.246-.719,3.532,3.532,0,0,1,2.332.742,2.357,2.357,0,0,1,.895,1.9H83.383a1.3,1.3,0,0,0-.5-1.023,1.888,1.888,0,0,0-1.27-.43,1.976,1.976,0,0,0-1.234.344,1.082,1.082,0,0,0-.445.9.877.877,0,0,0,.414.789,5.1,5.1,0,0,0,1.5.508,7.8,7.8,0,0,1,1.754.578,2.558,2.558,0,0,1,1,.809,1.988,1.988,0,0,1,.324,1.152,2.163,2.163,0,0,1-.906,1.816,3.8,3.8,0,0,1-2.352.684,4.257,4.257,0,0,1-1.8-.359,2.922,2.922,0,0,1-1.223-1A2.42,2.42,0,0,1,78.2,38.4h1.445a1.5,1.5,0,0,0,.582,1.152,2.258,2.258,0,0,0,1.434.426,2.331,2.331,0,0,0,1.316-.332A1.02,1.02,0,0,0,83.469,38.758Zm3.359,1.484a.905.905,0,0,1,.223-.625.848.848,0,0,1,.668-.25.874.874,0,0,1,.676.25.887.887,0,0,1,.23.625.839.839,0,0,1-.23.6.89.89,0,0,1-.676.242.8.8,0,0,1-.891-.844Z" transform="translate(1085 4480.246)" fill="#12263f"/>
        </g>
      </g>
    </g>
  </g>
</svg>
