<svg id="Grupo_746486" data-name="Grupo 746486" xmlns="http://www.w3.org/2000/svg" xmlns:xlink="http://www.w3.org/1999/xlink" width="205.451" height="55.102" viewBox="0 0 205.451 55.102">
  <defs>
    <clipPath id="clip-path">
      <rect id="Rectángulo_289482" data-name="Rectángulo 289482" width="205.451" height="55.102" fill="#1e3d79"/>
    </clipPath>
  </defs>
  <g id="Grupo_746487" data-name="Grupo 746487" transform="translate(0)" clip-path="url(#clip-path)">
    <path id="Trazado_509430" data-name="Trazado 509430" d="M147.711,53.511a15.616,15.616,0,1,0,15.962,15.612,15.79,15.79,0,0,0-15.962-15.612m0,23.878c-4.13,0-7.478-3.7-7.478-8.265s3.348-8.265,7.478-8.265,7.478,3.7,7.478,8.265-3.348,8.265-7.478,8.265" transform="translate(-100.524 -40.829)" fill="#1e3d79"/>
    <path id="Trazado_509431" data-name="Trazado 509431" d="M290.9,53.511a15.616,15.616,0,1,0,15.962,15.612A15.79,15.79,0,0,0,290.9,53.511m0,23.878c-4.13,0-7.478-3.7-7.478-8.265s3.348-8.265,7.478-8.265,7.478,3.7,7.478,8.265-3.348,8.265-7.478,8.265" transform="translate(-209.777 -40.829)" fill="#1e3d79"/>
    <path id="Trazado_509432" data-name="Trazado 509432" d="M32.932,113.326v9.352h-.087v-8.669a2.658,2.658,0,0,1,.087-.682" transform="translate(-25.061 -86.468)" fill="#1e3d79"/>
    <path id="Trazado_509433" data-name="Trazado 509433" d="M22.478,26.127s4.9-3.7,4.9-8.052V17.7A11.424,11.424,0,0,0,15.952,6.273H4.167A4.168,4.168,0,0,0,0,10.44V48.081H16.181c6.086,0,12.77-4.935,12.77-11.021V35.241a9.35,9.35,0,0,0-6.472-9.114M7.872,14.711a3.355,3.355,0,0,1,2.923-1.7H14.5a4.826,4.826,0,0,1,4.826,4.826v.422a4.9,4.9,0,0,1-4.9,4.9H7.872ZM20.729,35.773A5.223,5.223,0,0,1,15.505,41H7.784V32.327a2.658,2.658,0,0,1,.087-.682,2.7,2.7,0,0,1,2.613-2.019h5a5.244,5.244,0,0,1,5.244,5.244Z" transform="translate(0 -4.786)" fill="#1e3d79"/>
    <path id="Trazado_509434" data-name="Trazado 509434" d="M558.989,86.181h-8.746V56.094h5.645a3.1,3.1,0,0,1,3.1,3.1Z" transform="translate(-419.835 -42.8)" fill="#1e3d79"/>
    <path id="Trazado_509435" data-name="Trazado 509435" d="M449.964,47.886h-8.091a3.872,3.872,0,0,1-3.387-1.995l-5.405-9.749a1.99,1.99,0,0,0-1.741-1.026h-.778v12.77h-8.746V5.9H426.9a3.663,3.663,0,0,1,3.663,3.663V27.945h1.862a1.656,1.656,0,0,0,1.374-.732l6.328-9.414H449.8l-9.14,12.976a.962.962,0,0,0-.045,1.038Z" transform="translate(-321.846 -4.505)" fill="#1e3d79"/>
    <path id="Trazado_509436" data-name="Trazado 509436" d="M556.7,5.073A5.073,5.073,0,1,1,551.626,0,5.073,5.073,0,0,1,556.7,5.073" transform="translate(-417.02)" fill="#1e3d79"/>
    <path id="Trazado_509437" data-name="Trazado 509437" d="M631.448,53.282l0,0h-.006a12.93,12.93,0,0,0-4.871-.875c-6.822,0-9.621,3.913-9.621,3.913a3.039,3.039,0,0,0-3.039-3.039h-5.358V83.366h8.4V70.283a14.654,14.654,0,0,1,.637-4.374,7.2,7.2,0,0,1,5.486-5.284,4.12,4.12,0,0,1,5.423,2.814h0V80.265a3.1,3.1,0,0,0,3.1,3.1h5.645V62.375c0-4.206-2.045-7.573-5.792-9.093" transform="translate(-464.325 -39.984)" fill="#1e3d79"/>
    <path id="Trazado_509438" data-name="Trazado 509438" d="M767.984,52.929a5.01,5.01,0,0,0-4.21,2.286,14.168,14.168,0,0,0-8.858-2.811c-7.053,0-12.77,6.735-12.77,15.044s5.248,15.394,13.294,15.394a12.992,12.992,0,0,0,7.522-2.344v2.344s-1.225,7.522-14.169,3.323c0,0-1.574-.525-2.624,2.1-.688,1.716-1.15,2.909-1.386,3.528a.631.631,0,0,0,.282.78c1.27.712,5.108,2.514,11.425,2.514a18.835,18.835,0,0,0,6.778-1.225c4.849-1.879,8.44-5.895,8.44-11.818V52.929Zm-5.022,17.4c-.607,2.82-2.34,4.817-6.035,4.817-3.478,0-6.3-3.386-6.3-7.566s2.012-7.478,6.385-7.478c3.533,0,5.325,1.992,5.948,4.842a12.3,12.3,0,0,1,.262,2.636,13.234,13.234,0,0,1-.262,2.748" transform="translate(-566.257 -39.984)" fill="#1e3d79"/>
  </g>
</svg>
