<svg xmlns="http://www.w3.org/2000/svg" xmlns:xlink="http://www.w3.org/1999/xlink" width="55.158" height="30.775" viewBox="0 0 55.158 30.775">
  <defs>
    <clipPath id="clip-path">
      <rect id="Rectángulo_289676" data-name="Rectángulo 289676" width="55.158" height="30.776" fill="#fff"/>
    </clipPath>
  </defs>
  <g id="Grupo_746912" data-name="Grupo 746912" transform="translate(0)">
    <g id="Grupo_746911" data-name="Grupo 746911" transform="translate(0)" clip-path="url(#clip-path)">
      <path id="Trazado_512082" data-name="Trazado 512082" d="M2.507,3.823A1.257,1.257,0,0,1,3.761,2.57h8.775V12.6H2.507ZM15.043,2.57H25.072V12.6H15.043Zm12.536,0H37.608V12.6H27.579Zm12.536,0h8.336A2.487,2.487,0,0,1,50.9,4.638l1.442,8.9a21.423,21.423,0,0,1,.251,2.821H43.875L40.115,12.6ZM0,2.57V25.134a2.515,2.515,0,0,0,2.507,2.507h.125a7.711,7.711,0,0,1-.125-1.254,6.268,6.268,0,1,1,12.536,0,7.716,7.716,0,0,1-.125,1.254H37.733a7.717,7.717,0,0,1-.125-1.254,6.268,6.268,0,1,1,12.536,0,7.711,7.711,0,0,1-.125,1.254h2.633a2.515,2.515,0,0,0,2.507-2.507V17.111a28.827,28.827,0,0,0-.313-4.012L53.4,4.137A5.041,5.041,0,0,0,48.451,0H2.507A2.611,2.611,0,0,0,0,2.57" fill="#fff"/>
      <path id="Trazado_512083" data-name="Trazado 512083" d="M915.467,509.544a4.388,4.388,0,1,1-4.387-4.388,4.387,4.387,0,0,1,4.387,4.388" transform="translate(-867.204 -483.156)" fill="#fff"/>
      <path id="Trazado_512084" data-name="Trazado 512084" d="M109.519,509.544a4.388,4.388,0,1,1-4.388-4.388,4.387,4.387,0,0,1,4.388,4.388" transform="translate(-96.356 -483.156)" fill="#fff"/>
    </g>
  </g>
</svg>
