<svg xmlns="http://www.w3.org/2000/svg" xmlns:xlink="http://www.w3.org/1999/xlink" width="36.73" height="39.867" viewBox="0 0 36.73 39.867">
  <defs>
    <clipPath id="clip-path">
      <rect id="Rectángulo_289672" data-name="Rectángulo 289672" width="36.73" height="39.867" fill="#fff"/>
    </clipPath>
  </defs>
  <g id="Grupo_746901" data-name="Grupo 746901" transform="translate(0)">
    <g id="Grupo_746900" data-name="Grupo 746900" transform="translate(0)" clip-path="url(#clip-path)">
      <path id="Trazado_512069" data-name="Trazado 512069" d="M204.821,3.793v-1.8a1.99,1.99,0,0,0-3.98,0V7.663q0,.064,0,.128a1.99,1.99,0,0,0,3.972,0q0-.063,0-.128Zm-16.594,3.87V1.989a1.99,1.99,0,0,0-3.98,0V7.663q0,.064,0,.128a1.99,1.99,0,0,0,3.972,0q0-.063,0-.128" transform="translate(-176.032 0.001)" fill="#fff" fill-rule="evenodd"/>
      <path id="Trazado_512070" data-name="Trazado 512070" d="M26.818,119.183H1.753V96.765H34.978V111.2h-8.16ZM14.462,88.371a4.184,4.184,0,1,1-7.817-2.077V85.081H0v36.073H28.059l1.975-1.972,4.944-4.937,1.753-1.75V85.081H30.359v.976a4.184,4.184,0,1,1-7.12.236V85.081H13.765v.976a4.165,4.165,0,0,1,.7,2.314" transform="translate(0 -81.287)" fill="#fff" fill-rule="evenodd"/>
      <rect id="Rectángulo_289663" data-name="Rectángulo 289663" width="5.294" height="3.724" transform="translate(26.799 18.325)" fill="#fff"/>
      <rect id="Rectángulo_289664" data-name="Rectángulo 289664" width="5.294" height="3.724" transform="translate(19.424 18.325)" fill="#fff"/>
      <rect id="Rectángulo_289665" data-name="Rectángulo 289665" width="5.294" height="3.724" transform="translate(12.122 18.325)" fill="#fff"/>
      <rect id="Rectángulo_289666" data-name="Rectángulo 289666" width="5.294" height="3.724" transform="translate(12.122 30.702)" fill="#fff"/>
      <rect id="Rectángulo_289667" data-name="Rectángulo 289667" width="5.294" height="3.724" transform="translate(12.122 24.422)" fill="#fff"/>
      <rect id="Rectángulo_289668" data-name="Rectángulo 289668" width="5.294" height="3.724" transform="translate(4.819 24.422)" fill="#fff"/>
      <rect id="Rectángulo_289669" data-name="Rectángulo 289669" width="5.294" height="3.724" transform="translate(4.819 30.702)" fill="#fff"/>
      <rect id="Rectángulo_289670" data-name="Rectángulo 289670" width="5.294" height="3.724" transform="translate(19.424 24.422)" fill="#fff"/>
      <rect id="Rectángulo_289671" data-name="Rectángulo 289671" width="5.294" height="3.724" transform="translate(26.799 24.422)" fill="#fff"/>
    </g>
  </g>
</svg>
