<svg xmlns="http://www.w3.org/2000/svg" xmlns:xlink="http://www.w3.org/1999/xlink" width="297" height="84" viewBox="0 0 297 84">
  <defs>
    <clipPath id="clip-path">
      <rect id="Rectángulo_289493" data-name="Rectángulo 289493" width="297" height="84" transform="translate(-2472 -3496)" fill="#fff" stroke="#707070" stroke-width="1" opacity="0.63"/>
    </clipPath>
    <clipPath id="clip-path-2">
      <rect id="Rectángulo_289492" data-name="Rectángulo 289492" width="418.044" height="261.277" fill="none"/>
    </clipPath>
    <clipPath id="clip-path-3">
      <rect id="Rectángulo_289490" data-name="Rectángulo 289490" width="75.411" height="76.583" fill="none"/>
    </clipPath>
    <clipPath id="clip-path-4">
      <rect id="Rectángulo_289489" data-name="Rectángulo 289489" width="75.411" height="76.581" fill="none"/>
    </clipPath>
    <clipPath id="clip-path-5">
      <rect id="Rectángulo_289491" data-name="Rectángulo 289491" width="418.044" height="261.278" fill="none"/>
    </clipPath>
  </defs>
  <g id="Enmascarar_grupo_744583" data-name="Enmascarar grupo 744583" transform="translate(2472 3496)" clip-path="url(#clip-path)">
    <g id="Grupo_746516" data-name="Grupo 746516" transform="translate(-2535.349 -3584.917)">
      <g id="Grupo_746515" data-name="Grupo 746515" clip-path="url(#clip-path-2)">
        <g id="Grupo_746512" data-name="Grupo 746512" transform="translate(68.408 92.345)">
          <g id="Grupo_746511" data-name="Grupo 746511" clip-path="url(#clip-path-3)">
            <g id="Grupo_746510" data-name="Grupo 746510" transform="translate(0.001 0.002)" opacity="0.3" style="isolation: isolate">
              <g id="Grupo_746509" data-name="Grupo 746509">
                <g id="Grupo_746508" data-name="Grupo 746508" clip-path="url(#clip-path-4)">
                  <path id="Trazado_509465" data-name="Trazado 509465" d="M23.757,108.649l37.12,0a38.29,38.29,0,1,0,0-76.58H23.757Z" transform="translate(-23.758 -32.07)" fill="#550fed"/>
                </g>
              </g>
            </g>
          </g>
        </g>
        <g id="Grupo_746514" data-name="Grupo 746514" transform="translate(0 0)">
          <g id="Grupo_746513" data-name="Grupo 746513" clip-path="url(#clip-path-5)">
            <path id="Trazado_509466" data-name="Trazado 509466" d="M23.936,32.071l-.179,0v76.578h.179a38.29,38.29,0,1,0,0-76.58" transform="translate(44.651 60.278)" fill="#550fed"/>
            <path id="Trazado_509467" data-name="Trazado 509467" d="M78.654,40.259H74.162a.207.207,0,0,0-.207.21V48.71a8.207,8.207,0,0,0-6.531-2.793A11.405,11.405,0,0,0,56.156,57.142,11.035,11.035,0,0,0,67.208,68.369a9.007,9.007,0,0,0,6.747-2.833V67.6a.206.206,0,0,0,.207.207h4.492a.207.207,0,0,0,.21-.207V40.469a.208.208,0,0,0-.21-.21M67.769,63.715a6.576,6.576,0,1,1,6.358-6.574,6.517,6.517,0,0,1-6.358,6.574" transform="translate(105.545 75.667)" fill="#550fed"/>
            <path id="Trazado_509468" data-name="Trazado 509468" d="M77.042,42.224c-7.628,0-11.743,5.785-11.743,11.224s4.115,11.227,11.745,11.227A12.807,12.807,0,0,0,86.927,59.5a.212.212,0,0,0-.063-.314l-3.8-2.116a.214.214,0,0,0-.271.058,7.227,7.227,0,0,1-5.88,3.156,6.072,6.072,0,0,1-6.159-5.068H87.886a.207.207,0,0,0,.21-.207v-.821c0-8.25-6.464-11.961-11.054-11.961m-.6,4.394a6.07,6.07,0,0,1,5.891,4.463H70.787a5.711,5.711,0,0,1,5.65-4.463" transform="translate(122.73 79.36)" fill="#550fed"/>
            <path id="Trazado_509469" data-name="Trazado 509469" d="M86.931,51.646l-4.541-.864c-1.736-.305-2.548-.939-2.548-2,0-1.575,1.875-2.425,3.637-2.425a8.532,8.532,0,0,1,5.48,2.283.2.2,0,0,0,.155.049.212.212,0,0,0,.141-.078l2.551-3.153a.216.216,0,0,0,.043-.161.205.205,0,0,0-.086-.141,13.878,13.878,0,0,0-8.414-2.934c-5.526,0-8.417,3.539-8.417,7.035,0,3.421,2.154,5.151,7.688,6.168l2.548.475c1.69.311,2.551,1.057,2.551,2.211,0,.993-1.405,2.427-3.939,2.427a9.407,9.407,0,0,1-6.413-3,.207.207,0,0,0-.15-.066.211.211,0,0,0-.153.063L74,60.647a.208.208,0,0,0-.06.155.205.205,0,0,0,.075.15,14.337,14.337,0,0,0,9.551,3.723,9.75,9.75,0,0,0,6.957-2.43,6.786,6.786,0,0,0,2.111-4.82c0-3.176-1.866-5.065-5.7-5.779" transform="translate(138.968 79.36)" fill="#550fed"/>
            <path id="Trazado_509470" data-name="Trazado 509470" d="M93.232,42.224a8.862,8.862,0,0,0-6.747,2.851V43a.209.209,0,0,0-.207-.21H81.786a.21.21,0,0,0-.21.21V71.12a.207.207,0,0,0,.21.207h4.492a.208.208,0,0,0,.207-.207V61.885a8.2,8.2,0,0,0,6.531,2.79,11.405,11.405,0,0,0,11.267-11.224A11.035,11.035,0,0,0,93.232,42.224m-.561,4.653a6.576,6.576,0,1,1-6.355,6.571,6.517,6.517,0,0,1,6.355-6.571" transform="translate(153.322 79.36)" fill="#550fed"/>
            <path id="Trazado_509471" data-name="Trazado 509471" d="M102.08,42.224c-7.628,0-11.743,5.785-11.743,11.224s4.115,11.227,11.746,11.227a12.807,12.807,0,0,0,9.882-5.177.211.211,0,0,0,.04-.17.221.221,0,0,0-.1-.144l-3.8-2.116a.214.214,0,0,0-.271.058,7.231,7.231,0,0,1-5.88,3.156,6.075,6.075,0,0,1-6.162-5.068h17.136a.206.206,0,0,0,.207-.207v-.821c0-8.25-6.462-11.961-11.052-11.961m-.6,4.394a6.067,6.067,0,0,1,5.891,4.463H95.825a5.711,5.711,0,0,1,5.65-4.463" transform="translate(169.789 79.36)" fill="#550fed"/>
            <path id="Trazado_509472" data-name="Trazado 509472" d="M120.956,42.785H116.72a.211.211,0,0,0-.21.21v1.972a8.079,8.079,0,0,0-6.4-2.744A10.592,10.592,0,0,0,99.233,53.232c0,7.144,5.212,10.879,10.36,10.879a8.993,8.993,0,0,0,6.917-2.917v.852c0,4.1-3.473,5.966-6.7,5.966a6.325,6.325,0,0,1-4.754-2.5.209.209,0,0,0-.294-.049L101.09,68.14a.211.211,0,0,0-.086.141.218.218,0,0,0,.046.161,11.625,11.625,0,0,0,8.975,4.224,11.378,11.378,0,0,0,7.729-2.905,10.779,10.779,0,0,0,3.409-8.192V43a.209.209,0,0,0-.207-.21M110.5,59.461a6.006,6.006,0,0,1-6.1-6.315,6.059,6.059,0,1,1,12.108.043,6.009,6.009,0,0,1-6.01,6.272" transform="translate(186.509 79.36)" fill="#550fed"/>
            <path id="Trazado_509473" data-name="Trazado 509473" d="M130.379,42.785h-4.492a.209.209,0,0,0-.207.21v2.021a8.207,8.207,0,0,0-6.531-2.793,11.405,11.405,0,0,0-11.267,11.224,11.037,11.037,0,0,0,11.052,11.227,9.007,9.007,0,0,0,6.747-2.833V63.9a.206.206,0,0,0,.207.207h4.492a.207.207,0,0,0,.21-.207V43a.21.21,0,0,0-.21-.21M119.494,60.022a6.576,6.576,0,1,1,6.358-6.574,6.517,6.517,0,0,1-6.358,6.574" transform="translate(202.763 79.36)" fill="#550fed"/>
            <path id="Trazado_509474" data-name="Trazado 509474" d="M128.706,42.906a4.8,4.8,0,0,0-2.574-.682,4.6,4.6,0,0,0-3.982,2.353V43a.211.211,0,0,0-.21-.21h-4.233a.21.21,0,0,0-.21.21V63.9a.21.21,0,0,0,.21.21H122.2a.21.21,0,0,0,.21-.21V50.082a2.861,2.861,0,0,1,2.9-2.946,3.176,3.176,0,0,1,1.555.559.2.2,0,0,0,.187.037.205.205,0,0,0,.141-.13l1.6-4.449a.213.213,0,0,0-.083-.248" transform="translate(220.834 79.36)" fill="#550fed"/>
          </g>
        </g>
      </g>
    </g>
  </g>
</svg>
