<svg id="Grupo_746492" data-name="Grupo 746492" xmlns="http://www.w3.org/2000/svg" xmlns:xlink="http://www.w3.org/1999/xlink" width="107.08" height="115.718" viewBox="0 0 107.08 115.718">
  <defs>
    <clipPath id="clip-path">
      <rect id="Rectángulo_289484" data-name="Rectángulo 289484" width="107.08" height="115.718" fill="none"/>
    </clipPath>
  </defs>
  <g id="Grupo_746491" data-name="Grupo 746491" clip-path="url(#clip-path)">
    <path id="Trazado_509453" data-name="Trazado 509453" d="M114.557,81.219l25.478-43.179q-.629-1.79-1.421-3.51L93.51,15.488l-28.863,41.3c.1.669.223,1.339.355,2Z" transform="translate(-49.685 -11.904)" fill="#fff"/>
    <path id="Trazado_509454" data-name="Trazado 509454" d="M108.377,29.973l-1.571-4.446L93.478,7.714l2.393-.6,22.984,19.866,13.522-3.87a19.524,19.524,0,0,1,4.769-.486A39.015,39.015,0,0,0,63.18,44.885L95.573,33.632Z" transform="translate(-48.218 0)" fill="#1f3561"/>
    <path id="Trazado_509455" data-name="Trazado 509455" d="M141.2,112.932a21.135,21.135,0,0,1-4.663,2.338l-13.556,3.862-9.042,29.031-2.348.768,1.913-22.175-1.072-4.6-12.7,3.627-33.575,7.9a39.017,39.017,0,1,0,75.039-20.75" transform="translate(-50.853 -86.795)" fill="#1f3561"/>
    <path id="Trazado_509456" data-name="Trazado 509456" d="M82.3,409H77.507a.057.057,0,0,1-.047-.019l-4.125-5.034-4.128,5.034a.061.061,0,0,1-.048.019H65.325a.06.06,0,0,1-.056-.034.057.057,0,0,1,.009-.062l6.078-7.46-6.009-7.394a.063.063,0,0,1-.009-.066.072.072,0,0,1,.054-.037H70.18a.059.059,0,0,1,.046.03l3.619,4.484,3.683-4.489a.064.064,0,0,1,.048-.025h3.9a.074.074,0,0,1,.056.037.064.064,0,0,1-.01.066l-5.7,6.847L82.34,408.9a.05.05,0,0,1,.008.062A.056.056,0,0,1,82.3,409" transform="translate(-50.159 -304.714)" fill="#1f3562"/>
    <path id="Trazado_509457" data-name="Trazado 509457" d="M223.819,394.567a3.888,3.888,0,0,0-3.986,3.528h7.218v-.148a3.274,3.274,0,0,0-3.232-3.38m6.949,5.82a.06.06,0,0,1-.053.026H219.76c.224,2.55,1.882,4.005,4.566,4.005a12.63,12.63,0,0,0,5.885-1.881c.039-.024.09.014.09.062l-.008,3.365c0,.03-.016.047-.035.052a17.882,17.882,0,0,1-6.44,1.634,8.172,8.172,0,0,1,0-16.344c4.3,0,7.071,2.9,7.071,6.885,0,.645-.116,2.146-.122,2.2" transform="translate(-165.761 -302.687)" fill="#1f3562"/>
    <path id="Trazado_509458" data-name="Trazado 509458" d="M368.994,364.343a2.424,2.424,0,0,1-2.44-2.4,2.437,2.437,0,1,1,4.874,0,2.42,2.42,0,0,1-2.435,2.4m-1.972,18.16a.056.056,0,0,1-.061-.06V367.51a.056.056,0,0,1,.048-.057h3.961a.057.057,0,0,1,.049.057v14.933a.056.056,0,0,1-.059.06Z" transform="translate(-281.72 -278.221)" fill="#1f3562"/>
    <path id="Trazado_509459" data-name="Trazado 509459" d="M149.074,404.726a8.622,8.622,0,0,1-2.285-.323l.006-9.581a8.632,8.632,0,0,1,2.687-.46c2.742,0,4.585,2.022,4.585,5.032,0,3.24-1.959,5.332-4.993,5.332m1.073-13.415a10.465,10.465,0,0,0-3.425.607h-3.94a.059.059,0,0,0-.056.062v24.484a9.068,9.068,0,0,0,4.067-1.593l0-7.446a17.814,17.814,0,0,0,2.544.228c5.4,0,8.888-3.233,8.888-8.236a7.741,7.741,0,0,0-8.074-8.107" transform="translate(-109.693 -302.691)" fill="#1f3562"/>
    <path id="Trazado_509460" data-name="Trazado 509460" d="M299.446,373.951a7.29,7.29,0,0,1-3.369.955c-2.444,0-3.909-1.726-3.909-4.619,0-3.339,1.871-5.506,4.761-5.506a5.915,5.915,0,0,1,2.517.62Zm0-19.472V362.3a11.185,11.185,0,0,0-3.2-.485,8.056,8.056,0,0,0-8.239,8.24c0,4.672,3.126,8.066,7.428,8.066a9.553,9.553,0,0,0,4.526-1.216l-.006,1.351a9.1,9.1,0,0,0,3.555-1.512v-23.86a8.772,8.772,0,0,0-4.064,1.6" transform="translate(-221.352 -273.154)" fill="#1f3562"/>
    <path id="Trazado_509461" data-name="Trazado 509461" d="M407.129,403.575A6.41,6.41,0,0,1,404,404.6c-2.617,0-4.181-1.723-4.181-4.622,0-3.292,1.844-5.506,4.589-5.506a6.054,6.054,0,0,1,2.722.86Zm4.07-11.714a.173.173,0,0,0-.172-.168l-3.2.006a.173.173,0,0,0-.174.172v.543h-.081a9.793,9.793,0,0,0-3.978-.947,8.058,8.058,0,0,0-7.9,8.374c0,4.75,3.107,7.933,7.73,7.933a5.072,5.072,0,0,0,4.3-1.793V407.9a9.17,9.17,0,0,0,3.463-1.513Z" transform="translate(-304.119 -302.811)" fill="#1f3562"/>
    <path id="Trazado_509462" data-name="Trazado 509462" d="M4.232,375h9.915a9,9,0,0,1-1.384,3.728H2.446A2.456,2.456,0,0,1,.021,376.51c0-.016-.011-.033-.015-.049V356.906c0-.014.012-.033.015-.048a2.459,2.459,0,0,1,2.425-2.222c.041,0,.079.008.116.008l11.562,0a9.054,9.054,0,0,1-1.383,3.754H4.232v5.322h8.422a.061.061,0,0,1,.062.057v3.694a.061.061,0,0,1-.062.057H4.232V375Z" transform="translate(-0.005 -274.504)" fill="#1f3562"/>
  </g>
</svg>
