<svg xmlns="http://www.w3.org/2000/svg" xmlns:xlink="http://www.w3.org/1999/xlink" width="295" height="496.744" viewBox="0 0 295 496.744">
  <defs>
    <clipPath id="clip-path">
      <rect id="Rectángulo_289634" data-name="Rectángulo 289634" width="175.504" height="70.324" fill="none"/>
    </clipPath>
  </defs>
  <g id="Grupo_765824" data-name="Grupo 765824" transform="translate(-1126.92 -8849.137)">
    <rect id="Rectángulo_289621" data-name="Rectángulo 289621" width="35.946" height="35.946" transform="translate(1276.334 8923.783) rotate(45)" fill="#ff690f"/>
    <g id="Grupo_746860" data-name="Grupo 746860" transform="translate(1235.933 8989.756)">
      <path id="Trazado_150879" data-name="Trazado 150879" d="M-2970-10240.482v78.942" transform="translate(3010.336 10240.482)" fill="none" stroke="#ffb338" stroke-width="1" stroke-dasharray="5 5"/>
      <path id="Trazado_150880" data-name="Trazado 150880" d="M-3001.047-10181.678h78.974" transform="translate(3001.047 10260.62)" fill="none" stroke="#ffb338" stroke-width="3"/>
    </g>
    <g id="Grupo_746867" data-name="Grupo 746867" transform="translate(1191.92 8849.137)">
      <g id="Grupo_746867-2" data-name="Grupo 746867" clip-path="url(#clip-path)">
        <path id="Trazado_512041" data-name="Trazado 512041" d="M52.11,109.942c0,.693,0,1.295,0,1.9q-.02,12.444-.032,24.889c0,1.111.07,2.038-1.553,2.039-1.673,0-1.7-.947-1.706-2.149-.02-3.133-.16-6.266-.113-9.4.021-1.406-.517-1.823-1.83-1.8q-5.714.1-11.429.066c-1.312-.009-1.862.41-1.829,1.812.074,3.255-.06,6.515.021,9.77.036,1.444-.563,1.751-1.854,1.76-1.348.01-1.626-.563-1.619-1.782q.074-12.721.024-25.442c-.006-1.284.248-1.888,1.71-1.881,1.382.006,1.816.425,1.77,1.8-.1,3.008,0,6.023-.083,9.032-.037,1.318.316,1.863,1.744,1.83q5.9-.139,11.8-.028c1.335.024,1.731-.517,1.7-1.722q-.109-4.052-.146-8.106c-.024-3.025,0-3.025,3.428-2.587" transform="translate(-19.02 -69.18)"/>
        <path id="Trazado_512042" data-name="Trazado 512042" d="M297.475,138.531c.725-2.041,1.371-3.947,2.076-5.831,2.667-7.128,5.4-14.231,7.992-21.385.521-1.437,1.343-1.606,2.628-1.6s2.131.134,2.655,1.575c3.149,8.649,6.408,17.258,9.623,25.882.143.384.223.793.329,1.178-2.8.934-3.324.682-4.222-1.741-.7-1.882-.988-4.412-2.362-5.4-1.307-.943-3.783-.27-5.746-.294-1.66-.02-3.324.045-4.98-.051a1.776,1.776,0,0,0-2.133,1.467c-.358,1.3-.879,2.552-1.338,3.822-1.035,2.862-1.037,2.862-4.523,2.384m13-24.309-.584.006-4.872,13.449h10.354l-4.9-13.455" transform="translate(-187.559 -69.174)"/>
        <path id="Trazado_512043" data-name="Trazado 512043" d="M385.657,136a8.52,8.52,0,0,1-8.581,3.323,8.622,8.622,0,0,1-5.312-3.4,11.46,11.46,0,0,1,.56-14.558c3.61-3.869,7.79-3.807,13.47.316V109.9c.747-.046,1.394-.058,2.034-.13,1.222-.139,1.41.535,1.4,1.559-.031,4.792-.017,9.585-.012,14.377,0,3.686.033,7.373.013,11.059,0,.834.4,1.926-1.147,1.995-1.322.059-2.18-.207-2.043-1.766.018-.2-.159-.424-.387-.985m-6.232.371c3.916-.022,6.509-2.922,6.557-7.333.047-4.305-2.81-7.574-6.618-7.571-3.719,0-6.72,3.453-6.635,7.632.086,4.274,2.866,7.294,6.7,7.272" transform="translate(-232.922 -69.196)"/>
        <path id="Trazado_512044" data-name="Trazado 512044" d="M.828,153.774" transform="translate(-0.522 -96.955)"/>
        <path id="Trazado_512045" data-name="Trazado 512045" d="M201.013,144.263a6.351,6.351,0,0,0,3.562,6.4c2.33,1.072,5.751.735,7.182-1.153,1.408-1.859,2.555-1.226,4.469,0-1.543,1.382-2.719,3.027-4.315,3.761-6.312,2.908-13.367-.61-14.3-7.595a11.83,11.83,0,0,1,1.341-7.63,9.474,9.474,0,0,1,11.448-4.3c4.055,1.34,6.665,5.7,6.07,10.52Zm11.855-2.831c-.007-2.925-2.332-5.017-5.637-5.159-3.031-.13-5.948,2.191-5.876,5.159Z" transform="translate(-124.514 -83.994)"/>
        <path id="Trazado_512046" data-name="Trazado 512046" d="M99.823,144.047c-.022-6.3,3.995-10.462,10.082-10.454,5.983.007,10.052,4.179,10.067,10.32.015,6.259-4.07,10.577-10.02,10.593-6.047.016-10.107-4.176-10.129-10.459m16.771-.016c0-4.339-2.936-7.635-6.769-7.6-3.671.037-6.77,3.467-6.8,7.527-.032,4.2,3.033,7.527,6.913,7.5,3.906-.023,6.656-3.095,6.657-7.435" transform="translate(-62.939 -84.231)"/>
        <path id="Trazado_512047" data-name="Trazado 512047" d="M444.427,138.91c-2.326-2.489-4.707-3.291-7.108-2.113a3.519,3.519,0,0,0-1.8,2.383c-.049.7.962,1.816,1.757,2.16a37.427,37.427,0,0,0,4.948,1.371c3.374.93,5.394,3.125,5.333,5.761-.062,2.719-2.022,4.927-5.371,5.738-4.5,1.089-9.511-.968-10.7-5.095,2.324-1.387,2.324-1.387,3.923.5a5.52,5.52,0,0,0,6.843,1.352,3.725,3.725,0,0,0,1.681-2.538,3.214,3.214,0,0,0-1.69-2.307c-1.41-.679-3.074-.806-4.565-1.345a14.613,14.613,0,0,1-3.932-1.9,4.692,4.692,0,0,1-.066-7.5c2.816-2.431,8.71-2.516,11.526-.1a22.378,22.378,0,0,1,2.067,2.388l-2.856,1.251" transform="translate(-272.059 -84.175)"/>
        <path id="Trazado_512048" data-name="Trazado 512048" d="M159.2,127.28c-.461-2.584-.463-2.638,2.119-2.759,1.082-.051,1.377-.531,1.346-1.485-.037-1.1,0-2.211-.045-3.315-.052-1.131.613-1.312,1.524-1.3s1.73.006,1.751,1.288c.025,1.513-.363,3.472.42,4.4.658.777,2.74.348,4.191.459.052,0,.1.063.286.187v2.831c-1.132,0-2.218.054-3.3-.015-1.176-.075-1.686.375-1.671,1.574.037,2.946-.035,5.895.033,8.84.06,2.621,1.029,3.551,3.6,3.5,1.91-.039,1.444,1.592,2.021,2.511a5.862,5.862,0,0,1-8.786-4.959c-.069-2.946-.074-5.895-.054-8.842.017-2.539.051-2.538-2.4-2.659a5.233,5.233,0,0,1-.729-.08,1.116,1.116,0,0,1-.313-.173" transform="translate(-100.23 -74.665)"/>
        <path id="Trazado_512049" data-name="Trazado 512049" d="M258.873,109.983c3.416-.407,3.413-.407,3.416,2.649q.012,12.079.032,24.157c0,1.066.171,2.094-1.5,2.08-1.542-.013-1.951-.6-1.942-2.091.051-8.3.006-16.6-.006-24.894,0-.6,0-1.2,0-1.9" transform="translate(-163.22 -69.226)"/>
        <path id="Trazado_512050" data-name="Trazado 512050" d="M359.3,42.629c-.428.233-.858.507-1.285.7a9.075,9.075,0,0,1-3.782.74,8.306,8.306,0,0,1-5.184-1.52,10.081,10.081,0,0,1-3.975-8.225,8.835,8.835,0,0,1,8.927-9,7.583,7.583,0,0,1,4.015,1.091,6.471,6.471,0,0,1,2.727,3.86l-9.159,3.7-3,.234c.975,4.95,4.326,7.835,8.03,7.835a10.069,10.069,0,0,0,4.757-1.364Zm-3.664-11.616c.74-.273,1.13-.507,1.13-1.053a3.867,3.867,0,0,0-3.86-3.352c-1.56,0-4.482,1.208-4.482,5.419,0,.663.078,1.364.117,2.066Z" transform="translate(-217.571 -15.965)" fill="#e53028" fill-rule="evenodd"/>
        <path id="Trazado_512051" data-name="Trazado 512051" d="M328.038,27.52h-6.9c.9-1.168,1.053-1.286,1.053-2.065V19.1c0-3.039.04-7.367.155-11.421.039-1.988.2-4.483.234-6.276h-3.04L322.464,0h5.574c-1.208.7-1.6.936-1.753,2.3-.311,3-.351,7.756-.351,13.292v9c0,1.52.272,1.754,1.559,1.871.664.078,1.326.116,1.988.194Z" transform="translate(-201.471)" fill="#31a947" fill-rule="evenodd"/>
        <path id="Trazado_512052" data-name="Trazado 512052" d="M283.943,43.571l-1.4-1.091a2.139,2.139,0,0,1-1.013-1.676,2.738,2.738,0,0,1,1.092-1.909c1.636-1.287,3.274-2.651,3.274-5.535a6.571,6.571,0,0,0-2.768-5.263h2.417l2.494-1.4h-8.029a10.617,10.617,0,0,0-6.977,2.144,7.006,7.006,0,0,0-2.5,5.223A6.164,6.164,0,0,0,277,40.181c.391,0,.819-.04,1.249-.078a3.472,3.472,0,0,0-.39,1.52,4.1,4.1,0,0,0,1.168,2.651c-1.753.117-5.028.311-7.445,1.792a5.614,5.614,0,0,0-3,4.757c0,2.885,2.728,5.575,8.381,5.575,6.7,0,10.252-3.7,10.252-7.368,0-2.69-1.557-4.016-3.274-5.458m-5.107-4.482c-3.352,0-4.873-4.328-4.873-6.939a4.5,4.5,0,0,1,.858-2.885,3.646,3.646,0,0,1,2.728-1.286c3.236,0,4.912,4.366,4.912,7.172A3.948,3.948,0,0,1,281.489,38a4,4,0,0,1-2.652,1.091m.04,15.669c-4.171,0-6.861-1.988-6.861-4.754s2.5-3.7,3.352-4.016a15.625,15.625,0,0,1,4.094-.624,6.351,6.351,0,0,1,.9.039c2.964,2.105,4.249,3.157,4.249,5.146,0,2.416-1.987,4.209-5.73,4.209" transform="translate(-169.344 -16.83)" fill="#006db6" fill-rule="evenodd"/>
        <path id="Trazado_512053" data-name="Trazado 512053" d="M226.3,43.992a9.2,9.2,0,0,1-9.51-9.2c0-5.107,4.171-9.472,10.1-9.472a9.114,9.114,0,0,1,9.317,9.2,9.525,9.525,0,0,1-9.9,9.472m4.873-3.157a7.059,7.059,0,0,0,1.169-4.328c0-3.43-1.637-9.98-6.471-9.98a5.436,5.436,0,0,0-3.508,1.326,5.9,5.9,0,0,0-1.792,4.756c0,3.859,1.91,10.213,6.626,10.213a4.985,4.985,0,0,0,3.977-1.987" transform="translate(-136.685 -15.965)" fill="#ffde00" fill-rule="evenodd"/>
        <path id="Trazado_512054" data-name="Trazado 512054" d="M170.173,43.992a9.2,9.2,0,0,1-9.512-9.2c0-5.107,4.171-9.472,10.1-9.472a9.114,9.114,0,0,1,9.316,9.2,9.524,9.524,0,0,1-9.9,9.472m4.871-3.157a7.054,7.054,0,0,0,1.169-4.328c0-3.43-1.637-9.98-6.47-9.98a5.44,5.44,0,0,0-3.509,1.326,5.9,5.9,0,0,0-1.793,4.756c0,3.859,1.911,10.213,6.627,10.213a4.983,4.983,0,0,0,3.975-1.987" transform="translate(-101.297 -15.965)" fill="#e53028" fill-rule="evenodd"/>
        <path id="Trazado_512055" data-name="Trazado 512055" d="M110.988,29.393l-5.225,1.2a38.7,38.7,0,0,1-6.031.622c-10.086,0-13.923-7.418-13.923-13.23,0-7.09,5.446-13.667,14.764-13.667a21.112,21.112,0,0,1,5.591.767,14.252,14.252,0,0,1,4.823,2.266l-3.033,2.887-1.278.293.913-1.462a10.441,10.441,0,0,0-7.82-3.435c-5.775,0-10.123,4.386-10.123,10.781,0,6.87,4.97,13.339,12.936,13.339a10.9,10.9,0,0,0,4.642-.914V22.96l-5.518.293,2.923-1.572h7.747l-.95.914a.853.853,0,0,0-.365.584c-.037.33-.074,1.389-.074,1.754Z" transform="translate(-54.103 -2.726)" fill="#006db6" fill-rule="evenodd"/>
      </g>
    </g>
    <rect id="Rectángulo_289635" data-name="Rectángulo 289635" width="295" height="278" rx="10" transform="translate(1126.92 9067.881)" fill="#ffb338" opacity="0.91"/>
    <g id="Grupo_746866" data-name="Grupo 746866" transform="translate(1146.92 9095.293)">
      <text id="Es_una_plataforma_online_como_una_evolución_de_Google_Hotel_Finder_especialmente_para_la_distribución_hotelera_que_dirige_la_audiencia_en_busca_por_alojamiento_directamente_para_las_reservas_o_ventas_directas._" data-name="Es una plataforma online, como una evolución de Google Hotel Finder, especialmente para la distribución hotelera que dirige la audiencia en busca por alojamiento directamente para las reservas o ventas directas.

" fill="#12263f" font-size="16" font-family="Roboto-Regular, Roboto"><tspan x="0" y="17">Es una plataforma online, como </tspan><tspan x="0" y="41">una evolución de Google Hotel </tspan><tspan x="0" y="65">Finder, especialmente para la </tspan><tspan x="0" y="89">distribución hotelera que dirige la </tspan><tspan x="0" y="113">audiencia en busca por alojamiento </tspan><tspan x="0" y="137">directamente para las reservas o </tspan><tspan x="0" y="161">ventas directas.</tspan></text>
    </g>
  </g>
</svg>
