<svg xmlns="http://www.w3.org/2000/svg" xmlns:xlink="http://www.w3.org/1999/xlink" width="322.935" height="71.643" viewBox="0 0 322.935 71.643">
  <defs>
    <clipPath id="clip-path">
      <rect id="Rect치ngulo_289486" data-name="Rect치ngulo 289486" width="322.926" height="71.23" fill="none"/>
    </clipPath>
    <clipPath id="clip-path-2">
      <rect id="Rect치ngulo_289487" data-name="Rect치ngulo 289487" width="322.369" height="71.637" fill="none"/>
    </clipPath>
  </defs>
  <g id="Grupo_746501" data-name="Grupo 746501" transform="translate(0 0.276)">
    <g id="Grupo_746502" data-name="Grupo 746502" transform="translate(0 0.136)">
      <g id="Grupo_746501-2" data-name="Grupo 746501" clip-path="url(#clip-path)">
        <path id="Trazado_509463" data-name="Trazado 509463" d="M9.555,0H61.509a9.909,9.909,0,0,1,9.734,9.6c.017,2.181,0,4.362.007,6.543q0,22.607,0,45.215a9.914,9.914,0,0,1-9.818,9.871H9.806A9.922,9.922,0,0,1,0,61.515V9.721A9.934,9.934,0,0,1,9.555,0m2.207,11.492a.984.984,0,0,0-.422.871q0,23.022,0,46.042a1.906,1.906,0,0,0,.155,1.058.986.986,0,0,0,.873.441q7.1,0,14.2,0a.959.959,0,0,0,.968-.948c.008-4.248,0-8.5,0-12.745-.535-.009-1.071.012-1.605-.009a.43.43,0,0,1-.231-.747q4.5-4.592,9.006-9.178a.949.949,0,0,0,0-1.318q-4.5-4.591-9.01-9.178a.433.433,0,0,1,.225-.749c.536-.021,1.074,0,1.612-.008q0-6.33,0-12.658a.983.983,0,0,0-.448-.889,1.766,1.766,0,0,0-.979-.152q-6.689,0-13.379,0a1.636,1.636,0,0,0-.972.169m31.984.771c-.01,4.253,0,8.507,0,12.759.547.009,1.1-.015,1.641.01a.422.422,0,0,1,.216.726q-4.516,4.615-9.046,9.219a.941.941,0,0,0,.036,1.316q4.5,4.589,9.008,9.177a.422.422,0,0,1-.211.728c-.548.025-1.1,0-1.644.011,0,4.252-.006,8.5,0,12.757a.962.962,0,0,0,1,.937q7.058.007,14.117,0a.983.983,0,0,0,1.043-1.041q0-23.249,0-46.5a.97.97,0,0,0-.956-1.038q-7.1-.013-14.2,0a.963.963,0,0,0-1,.937M118.58,24.848a11.6,11.6,0,0,1,8.758,3.194,10.452,10.452,0,0,1,2.727,4.576A10.882,10.882,0,0,1,130,38.759a10.72,10.72,0,0,1-4.953,6.107,12.113,12.113,0,0,1-11.655.08,10.6,10.6,0,0,1-5.015-6.091A10.662,10.662,0,0,1,114.021,26a11.859,11.859,0,0,1,4.559-1.148m-.434,6.217a4.1,4.1,0,0,0-2.579,1.916,5.212,5.212,0,0,0,.2,5.528,4.17,4.17,0,0,0,3.71,1.764,4.111,4.111,0,0,0,3.414-2.171,5.167,5.167,0,0,0-.628-5.808,4.245,4.245,0,0,0-4.114-1.229m130.9-6.218a11.584,11.584,0,0,1,8.84,3.292,10.433,10.433,0,0,1,2.563,4.26,10.857,10.857,0,0,1,.056,6.178,10.7,10.7,0,0,1-4.885,6.218,12.131,12.131,0,0,1-11.109.492,10.637,10.637,0,0,1-5.763-6.711,10.631,10.631,0,0,1,4.487-11.884,11.712,11.712,0,0,1,5.811-1.845m-.434,6.214A4.24,4.24,0,0,0,245.564,34a5.041,5.041,0,0,0,1.52,5.412,4.306,4.306,0,0,0,4.39.471,4.391,4.391,0,0,0,2.33-2.975,5.053,5.053,0,0,0-1.406-4.933,4.27,4.27,0,0,0-3.782-.92M139.006,24.988a19.138,19.138,0,0,1,5.073.169,13.075,13.075,0,0,1,5.235,2.038c.208.15.493.29.52.58.037.228-.128.409-.247.582-.865,1.192-1.724,2.39-2.587,3.582a.53.53,0,0,1-.75.165,10.933,10.933,0,0,0-5.352-1.732,2.838,2.838,0,0,0-1.594.24.739.739,0,0,0-.159,1.124,2.625,2.625,0,0,0,1.05.514c1.079.314,2.2.455,3.287.72a13.831,13.831,0,0,1,4.907,1.971A4.987,4.987,0,0,1,150.416,38a6.636,6.636,0,0,1-1.1,5.2,7.5,7.5,0,0,1-3.807,2.551,15.716,15.716,0,0,1-6.287.472,15.551,15.551,0,0,1-7.713-2.8c-.208-.16-.491-.315-.5-.613-.02-.228.153-.395.284-.555.958-1.133,1.906-2.274,2.863-3.409a.541.541,0,0,1,.789-.066,11.863,11.863,0,0,0,7.057,2.084,2.431,2.431,0,0,0,1.172-.284.734.734,0,0,0,.084-1.162,2.824,2.824,0,0,0-.946-.446c-1.008-.3-2.052-.46-3.074-.71a15.518,15.518,0,0,1-4.871-1.845,5.113,5.113,0,0,1-2.291-3.1,6.582,6.582,0,0,1,1.326-5.651,8.487,8.487,0,0,1,5.6-2.679m81.258.233c1.713-.015,3.432,0,5.149-.006a.561.561,0,0,1,.6.4c.9,2.675,1.784,5.356,2.691,8.03a.523.523,0,0,0,.986-.04q1.117-3.758,2.219-7.52c.083-.321.176-.786.594-.8,2.007-.011,4.011,0,6.016,0a.53.53,0,0,1,.511.734q-3.186,9.816-6.378,19.629a.558.558,0,0,1-.517.458c-1.753.012-3.5,0-5.253,0a.542.542,0,0,1-.553-.4q-1.453-4.1-2.9-8.2c-.08-.207-.131-.463-.349-.566a.527.527,0,0,0-.749.326c-1,2.816-1.989,5.632-2.989,8.446a.55.55,0,0,1-.568.4c-1.6,0-3.206,0-4.807,0a1.855,1.855,0,0,1-.641-.056c-.256-.116-.3-.416-.383-.65q-3.148-9.7-6.3-19.39a.526.526,0,0,1,.494-.731q3.046-.009,6.094,0a.533.533,0,0,1,.529.394c.783,2.638,1.554,5.28,2.338,7.917a.528.528,0,0,0,.878.236,2.277,2.277,0,0,0,.278-.661q1.26-3.769,2.522-7.535a.529.529,0,0,1,.492-.408M85.85,25.828a.518.518,0,0,1,.509-.549c1.941-.008,3.882,0,5.823,0a.53.53,0,0,1,.58.558q.005,3.367,0,6.736,3.163,0,6.325,0c0-2.246,0-4.493,0-6.739a.524.524,0,0,1,.546-.555q2.914,0,5.83,0a.524.524,0,0,1,.537.552q0,9.785,0,19.571a.525.525,0,0,1-.531.552q-2.912.007-5.823,0a.526.526,0,0,1-.559-.557c0-2.285,0-4.569,0-6.853q-3.163,0-6.323,0c0,2.284,0,4.568,0,6.853a.533.533,0,0,1-.585.559c-1.942,0-3.884.006-5.827,0a.518.518,0,0,1-.5-.551q0-9.785,0-19.572Zm65.788.006a.534.534,0,0,1,.6-.559h17.909a.532.532,0,0,1,.584.562q0,2.348,0,4.7a.542.542,0,0,1-.59.589c-1.833,0-3.666,0-5.5,0q0,7.132,0,14.264a.535.535,0,0,1-.585.566c-1.94,0-3.882.006-5.823,0a.519.519,0,0,1-.5-.552q0-7.137,0-14.275c-1.86-.005-3.721.006-5.58-.005a.527.527,0,0,1-.509-.576q0-2.355,0-4.71m21.268-.18a.527.527,0,0,1,.546-.378q8.265,0,16.53,0a.526.526,0,0,1,.547.555q.006,2.267,0,4.533a.533.533,0,0,1-.553.579q-5.147.007-10.292,0c0,.7,0,1.4,0,2.1,3.187.006,6.375,0,9.564,0a.521.521,0,0,1,.539.526c.007,1.3,0,2.6,0,3.9a.53.53,0,0,1-.544.563c-3.187.007-6.375,0-9.562,0,0,.748,0,1.5,0,2.245H190.07a.533.533,0,0,1,.6.505c.008,1.538,0,3.077,0,4.613a.537.537,0,0,1-.6.553q-8.314,0-16.626,0a.527.527,0,0,1-.562-.555q-.006-9.551,0-19.1a4.031,4.031,0,0,1,.02-.643Zm19.636.18a.527.527,0,0,1,.571-.558c1.942,0,3.885,0,5.828,0a.52.52,0,0,1,.513.548q.005,7.112,0,14.224,4.585,0,9.169,0a.524.524,0,0,1,.555.546q.005,2.4,0,4.8a.531.531,0,0,1-.559.555q-7.712,0-15.419,0a.632.632,0,0,1-.5-.149c-.2-.175-.158-.458-.16-.693q.007-9.639,0-19.28m70.132,0a.527.527,0,0,1,.562-.562q4.155,0,8.308,0a16.735,16.735,0,0,1,6.02.72,6.872,6.872,0,0,1,3.649,2.9,7.48,7.48,0,0,1,.856,4.595,6.406,6.406,0,0,1-1.786,3.855,7.881,7.881,0,0,1-1.727,1.316.526.526,0,0,0-.157.789c1.3,1.9,2.611,3.8,3.9,5.7a.519.519,0,0,1-.418.8c-2.185.012-4.373,0-6.556,0a.559.559,0,0,1-.545-.283q-1.86-2.811-3.714-5.622H269.59c0,1.784,0,3.569,0,5.352a.53.53,0,0,1-.532.55c-1.941.006-3.883,0-5.823,0a.528.528,0,0,1-.562-.557q0-9.781,0-19.56Zm6.916,5.225c0,1.348,0,2.694,0,4.042,1.024.012,2.048,0,3.071,0a3,3,0,0,0,2.039-.673,2.029,2.029,0,0,0,.331-2.3,2.412,2.412,0,0,0-2.1-1.06c-1.111-.027-2.221-.005-3.335-.013ZM284.4,25.827a.517.517,0,0,1,.523-.549c1.938-.006,3.877,0,5.817,0a.53.53,0,0,1,.571.558q.009,7.107,0,14.216c3.072,0,6.143,0,9.215,0a.52.52,0,0,1,.509.537q.006,2.4,0,4.807a.543.543,0,0,1-.607.558q-7.756,0-15.512,0a.518.518,0,0,1-.518-.554q-.005-9.786,0-19.572m18.295,0a.527.527,0,0,1,.586-.552c1.447,0,2.893,0,4.339,0a45.245,45.245,0,0,1,5.91.191,13.229,13.229,0,0,1,5.052,1.677,8.691,8.691,0,0,1,3.079,3.1,10.315,10.315,0,0,1,1.276,5.032v.4a9.915,9.915,0,0,1-2.435,6.636,10.024,10.024,0,0,1-3.663,2.51,16.826,16.826,0,0,1-6.175,1.127c-2.4.008-4.8,0-7.2,0-.208-.006-.445.021-.6-.137a.613.613,0,0,1-.174-.515q.007-9.738,0-19.477m6.912,5.474q0,4.311,0,8.623a12.346,12.346,0,0,0,3.269-.243,4.057,4.057,0,0,0,2.376-1.517,4.564,4.564,0,0,0,.7-2.919,3.951,3.951,0,0,0-.941-2.493,4.473,4.473,0,0,0-2.495-1.292,14.552,14.552,0,0,0-2.9-.159" transform="translate(0 0)" fill="#ff7346" fill-rule="evenodd"/>
      </g>
    </g>
    <g id="Grupo_746504" data-name="Grupo 746504" transform="translate(0.567 -0.276)">
      <g id="Grupo_746503" data-name="Grupo 746503" clip-path="url(#clip-path-2)">
        <path id="Trazado_509464" data-name="Trazado 509464" d="M123.3,122.886a1.636,1.636,0,0,1,.972-.169q6.689,0,13.379,0a1.766,1.766,0,0,1,.979.152.983.983,0,0,1,.448.889q0,6.329,0,12.658c-.538.008-1.075-.013-1.612.008a.433.433,0,0,0-.225.749q4.5,4.591,9.01,9.178a.949.949,0,0,1,0,1.318q-4.5,4.592-9.006,9.178a.43.43,0,0,0,.231.747c.534.02,1.07,0,1.605.009,0,4.248.006,8.5,0,12.745a.959.959,0,0,1-.968.948q-7.1.012-14.2,0a.987.987,0,0,1-.873-.441,1.906,1.906,0,0,1-.155-1.058q0-23.021,0-46.042a.984.984,0,0,1,.422-.871m31.984.771a.963.963,0,0,1,1-.937q7.1,0,14.2,0a.97.97,0,0,1,.956,1.038q0,23.249,0,46.5a.983.983,0,0,1-1.043,1.041q-7.058,0-14.118,0a.962.962,0,0,1-1-.937c-.009-4.253,0-8.505,0-12.757.548-.01,1.1.014,1.644-.01a.421.421,0,0,0,.211-.728q-4.5-4.594-9.008-9.177a.941.941,0,0,1-.036-1.315q4.517-4.616,9.046-9.219a.422.422,0,0,0-.216-.726c-.546-.025-1.094,0-1.641-.01,0-4.253-.006-8.506,0-12.759" transform="translate(-112.108 -110.982)" fill="#fff" fill-rule="evenodd"/>
      </g>
    </g>
  </g>
</svg>
