<svg xmlns="http://www.w3.org/2000/svg" xmlns:xlink="http://www.w3.org/1999/xlink" width="615.503" height="440.588" viewBox="0 0 615.503 440.588">
  <defs>
    <clipPath id="clip-path">
      <rect width="615.503" height="440.588" fill="none"/>
    </clipPath>
    <clipPath id="clip-path-3">
      <rect id="Rectángulo_292011" data-name="Rectángulo 292011" width="615.502" height="440.587" fill="none"/>
    </clipPath>
    <clipPath id="clip-path-4">
      <rect id="Rectángulo_291964" data-name="Rectángulo 291964" width="159.122" height="4.562" fill="none"/>
    </clipPath>
    <clipPath id="clip-path-5">
      <rect id="Rectángulo_291966" data-name="Rectángulo 291966" width="69.356" height="25.408" fill="none"/>
    </clipPath>
    <clipPath id="clip-path-6">
      <rect id="Rectángulo_291978" data-name="Rectángulo 291978" width="92.049" height="56.096" fill="none"/>
    </clipPath>
    <clipPath id="clip-path-7">
      <rect id="Rectángulo_291979" data-name="Rectángulo 291979" width="30.058" height="35.818" fill="none"/>
    </clipPath>
    <clipPath id="clip-path-8">
      <rect id="Rectángulo_291991" data-name="Rectángulo 291991" width="212.442" height="83.011" fill="none"/>
    </clipPath>
    <clipPath id="clip-path-9">
      <rect id="Rectángulo_292004" data-name="Rectángulo 292004" width="9.506" height="9.369" fill="none"/>
    </clipPath>
    <clipPath id="clip-path-10">
      <rect id="Rectángulo_292005" data-name="Rectángulo 292005" width="100.576" height="100.561" fill="none"/>
    </clipPath>
    <clipPath id="clip-path-11">
      <rect id="Rectángulo_292006" data-name="Rectángulo 292006" width="86.289" height="87.224" fill="none"/>
    </clipPath>
    <clipPath id="clip-path-12">
      <rect id="Rectángulo_292007" data-name="Rectángulo 292007" width="74.506" height="75.419" fill="none"/>
    </clipPath>
    <clipPath id="clip-path-13">
      <rect id="Rectángulo_292008" data-name="Rectángulo 292008" width="106.803" height="106.787" fill="none"/>
    </clipPath>
    <clipPath id="clip-path-14">
      <rect id="Rectángulo_292009" data-name="Rectángulo 292009" width="8.051" height="8.065" fill="none"/>
    </clipPath>
  </defs>
  <g id="Cuadrícula_de_repetición_1" data-name="Cuadrícula de repetición 1" clip-path="url(#clip-path)">
    <g id="Grupo_751650" data-name="Grupo 751650">
      <g id="Grupo_751694" data-name="Grupo 751694" clip-path="url(#clip-path)">
        <g id="Grupo_751693" data-name="Grupo 751693" transform="translate(0 0.001)">
          <g id="Grupo_751692" data-name="Grupo 751692" clip-path="url(#clip-path-3)">
            <path id="Trazado_517028" data-name="Trazado 517028" d="M1390.75,308.916a50.648,50.648,0,1,0,35.6-62.155,50.706,50.706,0,0,0-35.6,62.155m11.614-4.874h0a38.2,38.2,0,1,1,45.667,28.857h0a38.2,38.2,0,0,1-45.667-28.858" transform="translate(-936.041 -165.097)" fill="#faa928"/>
            <path id="Trazado_517029" data-name="Trazado 517029" d="M1290.1,256.217c.8.936,1.964.765,4.843.37,5.151-.708,10.3-1.416,15.475-1.943a3.357,3.357,0,0,1,2.54,1.261c2.968,4.135,5.686,8.45,8.694,12.553.932,1.272,1.209,2.071.419,3.533-3.159,5.843-6.154,11.775-9.177,17.608,4.1,4.459,16.65,12.6,21.7,14,3.873-5.006,7.906-10.061,11.736-15.266,1.192-1.62,2.086-1.943,4.135-1.422a133.275,133.275,0,0,0,14.5,2.66c1.971.273,3.171.683,3.794,2.829,1.616,5.563,3.569,11.027,5.28,16.564.46,1.488,1.18,2.174,2.717,1.84q10.847-2.356,21.691-4.725c1.778-.386,1.308-1.763,1.183-2.867-.635-5.59-1.24-11.187-2.062-16.75-.309-2.089.258-3.154,2.089-4.265,4.846-2.941,9.5-6.2,14.594-9.57l18.882,9.692a75.846,75.846,0,0,0,13.7-21.721l-16.406-12.792c1.039-6.689,2.138-12.864,2.876-19.082a2.859,2.859,0,0,1,2.4-2.9c5.459-1.676,10.867-3.523,16.315-5.237,1.178-.371,1.972-.766,1.862-2.219a72.54,72.54,0,0,0-4.455-21.443c-.608-1.538-1.438-1.812-2.888-1.634-5.836.718-11.686,1.325-17.519,2.066a2.648,2.648,0,0,1-3.064-1.377c-3.106-4.654-6.416-9.18-9.835-13.611a2.251,2.251,0,0,1-.208-2.893c3.035-5.912,6.026-11.846,9.108-17.924a81.359,81.359,0,0,0-21.339-13.768l-13.331,17.1-20.921-3.77c-1.583-4.835-3.366-10.419-5.242-15.971-1.54-4.556-.645-4.349-5.757-3.749a7.961,7.961,0,0,1-1.5-.1l-12.975,2.927a15.8,15.8,0,0,1-2.765,1.14c-2.495.524-3.415,1.679-2.978,4.421.91,5.716,1.463,11.491,2.025,17.256a3.076,3.076,0,0,1-1.065,2.339c-4.016,2.991-8.3,5.641-12.149,8.83-1.881,1.56-3.086,1.485-5.041.436-5.547-2.975-11.215-5.723-17.4-8.845L1290.766,191.2c1.25,1.013,1.96,1.608,2.69,2.177,4.5,3.51,8.975,7.061,13.539,10.49,1.3.974,1.419,1.863,1.127,3.415-1,5.333-1.657,10.729-2.621,16.069a3.391,3.391,0,0,1-1.888,2.165c-4.411,1.571-8.909,2.9-13.353,4.382-3.6,1.2-4.927,1.659-5.355,3.3Zm28.788-16.858a52.443,52.443,0,1,1,24.545,31.758,52.1,52.1,0,0,1-24.545-31.758" transform="translate(-865.909 -95.071)" fill="#faa928"/>
            <path id="Trazado_517030" data-name="Trazado 517030" d="M147.322,317.521c.6.4,1.215.1,2.743-.634,2.734-1.3,5.469-2.607,8.245-3.811a1.887,1.887,0,0,1,1.616.278c2.333,1.848,4.557,3.842,6.907,5.664a1.665,1.665,0,0,1,.821,1.948c-.775,3.894-1.444,7.809-2.145,11.674,3.013,1.836,11.319,4.3,14.349,4.226,1.309-3.539,2.7-7.135,3.952-10.781a1.866,1.866,0,0,1,2.053-1.535,74.662,74.662,0,0,0,8.474-1.009c1.137-.187,1.869-.163,2.573.957,1.822,2.9,3.815,5.686,5.685,8.555.5.771,1.016,1.038,1.811.579q5.612-3.24,11.222-6.487c.92-.532.43-1.237.176-1.847-1.283-3.087-2.552-6.183-3.934-9.223a2.231,2.231,0,0,1,.445-2.8c2.193-2.528,4.227-5.2,6.485-8.021l12.071,2.251a46.7,46.7,0,0,0,3.963-14.816l-11.217-4.456c-.54-4.008-.961-7.733-1.589-11.418a1.738,1.738,0,0,1,.844-2.08c2.743-1.912,5.429-3.911,8.16-5.842.59-.417.964-.782.661-1.594a43.7,43.7,0,0,0-6.042-11.49,1.292,1.292,0,0,0-1.872-.431c-3.112,1.429-6.25,2.8-9.355,4.239a1.494,1.494,0,0,1-1.927-.254c-2.5-2.121-5.083-4.133-7.715-6.071a1.365,1.365,0,0,1-.6-1.619c.694-3.911,1.361-7.827,2.054-11.842a45.739,45.739,0,0,0-14.111-4.153L187.6,247.78l-12.212,1.493c-1.683-2.49-3.6-5.373-5.566-8.222-1.613-2.338-1.082-2.375-3.813-1.14a4.527,4.527,0,0,1-.845.2l-6.7,3.938a9.226,9.226,0,0,1-1.341,1.134c-1.294.736-1.611,1.556-.911,3.049,1.457,3.111,2.726,6.319,4,9.518a1.9,1.9,0,0,1-.2,1.524c-1.725,2.411-3.657,4.676-5.254,7.171a2.153,2.153,0,0,1-2.718,1.129c-3.567-.734-7.164-1.317-11.109-2.024l-4.08,14.656c.861.362,1.353.578,1.853.776,3.079,1.222,6.147,2.474,9.246,3.639.88.331,1.1.818,1.193,1.757.336,3.225.872,6.427,1.228,9.65a2.067,2.067,0,0,1-.684,1.568c-2.181,1.668-4.45,3.212-6.663,4.836-1.791,1.314-2.451,1.808-2.415,2.82Zm13.128-14.666a32.015,32.015,0,0,1-3.815-23.665,31.289,31.289,0,0,1,13.491-19.582,29.335,29.335,0,0,1,22.894-4.028,30.041,30.041,0,0,1,18.886,13.886,32.012,32.012,0,0,1,3.815,23.665,31.289,31.289,0,0,1-13.491,19.582,29.334,29.334,0,0,1-22.894,4.028,30.039,30.039,0,0,1-18.886-13.886" transform="translate(-92.224 -158.824)" fill="#f16d4a"/>
            <path id="Trazado_517031" data-name="Trazado 517031" d="M878.808,329.221H838.591a8.8,8.8,0,0,0-8.8,8.8v11.853a8.8,8.8,0,0,0,8.8,8.8h40.217a8.8,8.8,0,0,0,8.8-8.8V338.023a8.8,8.8,0,0,0-8.8-8.8" transform="translate(-559.202 -221.866)" fill="#0b0a08"/>
            <path id="Trazado_517032" data-name="Trazado 517032" d="M719.413,1269.476l-44.68,20.594v4.562H833.854v-4.562l-45.083-20.594Z" transform="translate(-454.709 -855.513)" fill="#352424"/>
            <rect id="Rectángulo_291962" data-name="Rectángulo 291962" width="69.386" height="103.317" transform="translate(264.704 310.647)" fill="#0b0a08"/>
            <path id="Trazado_517033" data-name="Trazado 517033" d="M693.26,590.655V391.521a17.132,17.132,0,0,0-17.132-17.132h-386.1a17.132,17.132,0,0,0-17.132,17.131V590.655Z" transform="translate(-183.904 -252.305)" fill="#0b0a08"/>
            <g id="Grupo_751661" data-name="Grupo 751661" transform="translate(220.024 434.558)" opacity="0.3" style="mix-blend-mode: multiply;isolation: isolate">
              <g id="Grupo_751660" data-name="Grupo 751660">
                <g id="Grupo_751659" data-name="Grupo 751659" clip-path="url(#clip-path-4)">
                  <rect id="Rectángulo_291963" data-name="Rectángulo 291963" width="159.121" height="4.562" transform="translate(0 0)" fill="#0b0a08"/>
                </g>
              </g>
            </g>
            <g id="Grupo_751664" data-name="Grupo 751664" transform="translate(264.704 388.555)" opacity="0.3" style="mix-blend-mode: multiply;isolation: isolate">
              <g id="Grupo_751663" data-name="Grupo 751663">
                <g id="Grupo_751662" data-name="Grupo 751662" clip-path="url(#clip-path-5)">
                  <rect id="Rectángulo_291965" data-name="Rectángulo 291965" width="69.358" height="25.408" fill="#352424"/>
                </g>
              </g>
            </g>
            <path id="Trazado_517034" data-name="Trazado 517034" d="M272.892,1037.6v31.911c0,6.638,4.388,12.018,9.8,12.018H683.461c5.412,0,9.8-5.381,9.8-12.018V1037.6Z" transform="translate(-183.904 -699.248)" fill="#352424"/>
            <path id="Trazado_517035" data-name="Trazado 517035" d="M915.32,345.147a3.9,3.9,0,1,1-3.9-3.9,3.9,3.9,0,0,1,3.9,3.9" transform="translate(-611.582 -229.968)" fill="#f16d4a"/>
            <path id="Trazado_517036" data-name="Trazado 517036" d="M703.756,599.878V409.923a9.183,9.183,0,0,0-9.341-9.016H312.409a9.183,9.183,0,0,0-9.341,9.016V599.878Z" transform="translate(-204.24 -270.176)" fill="#fef6e4"/>
            <path id="Trazado_517037" data-name="Trazado 517037" d="M798.491,73.9l-.052,8.047,5.1-4.814,16.1-10.961-13.156,2.9s-6.573,2.5-6.9,2.881a16.606,16.606,0,0,0-1.1,1.95" transform="translate(-538.075 -44.592)" fill="#efe7d3"/>
            <path id="Trazado_517038" data-name="Trazado 517038" d="M778.679,69.86l27.647-3.691L785.175,73.9Z" transform="translate(-524.759 -44.592)" fill="#fef6e4"/>
            <path id="Trazado_517039" data-name="Trazado 517039" d="M812.456,80.737l-7.985-4.91,19.236-9.658Z" transform="translate(-542.14 -44.593)" fill="#fef6e4"/>
            <path id="Trazado_517040" data-name="Trazado 517040" d="M691.322,136.891a17.856,17.856,0,0,1,.12-1.937c.069-.593.17-1.194.3-1.787l.642.14c-.125.571-.222,1.151-.289,1.723a17.038,17.038,0,0,0-.115,1.865q0,.272,0,.544l-.657.016c0-.191-.007-.381-.006-.564m1.781-7.8a24.989,24.989,0,0,1,2.106-3.739l.543.369a24.323,24.323,0,0,0-2.05,3.639Zm20.5-3.906-.122-.059.293-.588.1.049a.393.393,0,0,0,.068.012,3.024,3.024,0,0,0,1.781-.454,2.785,2.785,0,0,0,.9-1.328l.621.213a3.475,3.475,0,0,1-1.121,1.633,3.654,3.654,0,0,1-2.262.588.856.856,0,0,1-.264-.067m-15.734-3.189a34.227,34.227,0,0,1,3.083-2.969l.425.5a33.532,33.532,0,0,0-3.023,2.912Zm12.49-1.567a7.985,7.985,0,0,1,0-1.943,9.425,9.425,0,0,1,.194-1.09l.639.153a8.8,8.8,0,0,0-.181,1.014,7.329,7.329,0,0,0,0,1.783,6.051,6.051,0,0,0,.282,1.2l-.621.214a6.729,6.729,0,0,1-.312-1.331m2.712-3.714-.088-.029.2-.625.1.032a6.609,6.609,0,0,1,3.419,2.584l-.553.355a5.94,5.94,0,0,0-3.076-2.317m-8.372.159a15.031,15.031,0,0,1,2.654-.974c.535-.094,1.027-.161,1.506-.207l.062.654c-.461.044-.936.109-1.454.2a13.606,13.606,0,0,0-2.5.926Zm7.614-3.436a14.682,14.682,0,0,1,2.88-3.222l.42.5a14.024,14.024,0,0,0-2.751,3.078Z" transform="translate(-465.888 -74.275)" fill="#fef6e4"/>
            <path id="Trazado_517041" data-name="Trazado 517041" d="M776.117,102.536a12.663,12.663,0,0,1,2.009-.647l-.148-.64a13.314,13.314,0,0,0-2.113.681Z" transform="translate(-522.863 -68.234)" fill="#fef6e4"/>
            <rect id="Rectángulo_291967" data-name="Rectángulo 291967" width="19.066" height="147.579" transform="translate(204.446 159.087)" fill="#35974d"/>
            <rect id="Rectángulo_291968" data-name="Rectángulo 291968" width="19.066" height="102.564" transform="translate(177.819 203.269)" fill="#35974d"/>
            <rect id="Rectángulo_291969" data-name="Rectángulo 291969" width="19.067" height="115.605" transform="translate(231.456 191.061)" fill="#35974d"/>
            <rect id="Rectángulo_291970" data-name="Rectángulo 291970" width="19.067" height="120.151" transform="translate(151.191 185.682)" fill="#35974d"/>
            <rect id="Rectángulo_291971" data-name="Rectángulo 291971" width="19.066" height="84.527" transform="translate(124.564 221.306)" fill="#35974d"/>
            <rect id="Rectángulo_291972" data-name="Rectángulo 291972" width="19.066" height="114.399" transform="translate(204.446 192.267)" fill="#287540"/>
            <rect id="Rectángulo_291973" data-name="Rectángulo 291973" width="19.066" height="78.926" transform="translate(177.819 226.908)" fill="#287540"/>
            <rect id="Rectángulo_291974" data-name="Rectángulo 291974" width="19.067" height="89.793" transform="translate(231.456 216.873)" fill="#287540"/>
            <rect id="Rectángulo_291975" data-name="Rectángulo 291975" width="19.067" height="92.459" transform="translate(151.191 213.374)" fill="#287540"/>
            <rect id="Rectángulo_291976" data-name="Rectángulo 291976" width="19.066" height="65.046" transform="translate(124.564 240.787)" fill="#287540"/>
            <path id="Trazado_517042" data-name="Trazado 517042" d="M358.271,698.4l-4.331-2.244,12.2-23.536,7.035,5.7,14.271-27.191,17.7,19.2,32.107-70.505,17.987,28.743,32.65-50.761,4.1,2.641-36.81,57.22-17.249-27.564-31.392,68.936-17.987-19.518-13.821,26.335-7.01-5.684Z" transform="translate(-238.523 -389.397)" fill="#f16d4a"/>
            <path id="Trazado_517043" data-name="Trazado 517043" d="M749.383,579.849l-4.412-6.493-7.737-1.332,15.349-10.487Z" transform="translate(-496.829 -378.426)" fill="#f16d4a"/>
            <g id="Grupo_751667" data-name="Grupo 751667" transform="translate(270.587 250.57)" opacity="0.5">
              <g id="Grupo_751666" data-name="Grupo 751666">
                <g id="Grupo_751665" data-name="Grupo 751665" clip-path="url(#clip-path-6)">
                  <rect id="Rectángulo_291977" data-name="Rectángulo 291977" width="92.05" height="56.095" transform="translate(0 0)" fill="#fef6e4"/>
                </g>
              </g>
            </g>
            <path id="Trazado_517044" data-name="Trazado 517044" d="M1000.49,75.5H951.122a4.367,4.367,0,0,0-4.359,4.374v28.86a4.367,4.367,0,0,0,4.359,4.374h34.543c2.221,3.109,6.247,8.678,6.6,8.678.333,0-.308-5.259-.759-8.678h8.981a4.367,4.367,0,0,0,4.359-4.374V79.873a4.366,4.366,0,0,0-4.359-4.374" transform="translate(-638.032 -50.88)" fill="#35974d"/>
            <path id="Trazado_517045" data-name="Trazado 517045" d="M1025.486,144.765c0,1.267,1.658,2.294,3.7,2.294s3.705-1.027,3.705-2.294-1.659-2.294-3.705-2.294-3.7,1.027-3.7,2.294" transform="translate(-691.084 -96.014)" fill="#f4c338"/>
            <path id="Trazado_517046" data-name="Trazado 517046" d="M1002.327,0a16.7,16.7,0,0,1,10.941,29.325c-.012.013-2.609,2.82-3.038,5.76l-.078,1.8a2.524,2.524,0,0,1-.654,1.589c-.035.039-.072.076-.109.112H995.266c-.038-.036-.074-.073-.109-.112a2.523,2.523,0,0,1-.654-1.589l-.077-1.8c-.429-2.94-3.025-5.746-3.038-5.76A16.7,16.7,0,0,1,1002.327,0" transform="translate(-664.221 -0.003)" fill="#fef6e4"/>
            <path id="Trazado_517047" data-name="Trazado 517047" d="M1022.18,128.754h0a7.1,7.1,0,0,0,7.1-7.1v-3.325h-14.195v3.325a7.1,7.1,0,0,0,7.1,7.1" transform="translate(-684.074 -79.745)" fill="#352424"/>
            <g id="Grupo_751670" data-name="Grupo 751670" transform="translate(324.752 2.768)" opacity="0.3">
              <g id="Grupo_751669" data-name="Grupo 751669">
                <g id="Grupo_751668" data-name="Grupo 751668" clip-path="url(#clip-path-7)">
                  <path id="Trazado_517048" data-name="Trazado 517048" d="M1005.06,35.2a16.714,16.714,0,0,0,13.4-26.707,16.7,16.7,0,0,1,1.732,26.558c-.012.013-2.609,2.82-3.038,5.76l-.078,1.8a2.524,2.524,0,0,1-.654,1.589c-.035.039-.072.076-.109.112h-14.124c-.037-.036-.074-.073-.109-.112a2.523,2.523,0,0,1-.655-1.589l-.078-1.8c-.428-2.94-3.025-5.746-3.038-5.76a16.787,16.787,0,0,1-2.414-2.589,16.631,16.631,0,0,0,9.167,2.738" transform="translate(-995.893 -8.489)" fill="#efe7d3"/>
                </g>
              </g>
            </g>
            <path id="Trazado_517049" data-name="Trazado 517049" d="M1022.9,39.383l3.318-14.476,2.913,8.42.854-.3-3.943-11.4L1022.651,36.4l-3.469-8.467-3.213,5.424.778.461,2.287-3.861Z" transform="translate(-684.671 -14.578)" fill="#f4c338"/>
            <path id="Trazado_517050" data-name="Trazado 517050" d="M1048.62,75.536l.079.008a.763.763,0,0,0,.838-.681l2.322-22.414a.764.764,0,0,0-.681-.838l-.08-.008a.763.763,0,0,0-.838.681L1047.94,74.7a.764.764,0,0,0,.681.838" transform="translate(-706.213 -34.774)" fill="#352424"/>
            <path id="Trazado_517051" data-name="Trazado 517051" d="M1016.9,75.548h0a.8.8,0,0,1-.882-.716L1013.7,52.5a.8.8,0,1,1,1.6-.165l2.313,22.334a.8.8,0,0,1-.716.882" transform="translate(-683.141 -34.783)" fill="#352424"/>
            <path id="Trazado_517052" data-name="Trazado 517052" d="M1014.006,119.9h13.829a.786.786,0,0,0,0-1.571h-13.829a.786.786,0,1,0,0,1.571" transform="translate(-682.819 -79.745)" fill="#f4c338"/>
            <path id="Trazado_517053" data-name="Trazado 517053" d="M1014.006,129.563h13.829a.786.786,0,0,0,0-1.571h-13.829a.786.786,0,1,0,0,1.571" transform="translate(-682.819 -86.256)" fill="#f4c338"/>
            <path id="Trazado_517054" data-name="Trazado 517054" d="M1014.006,140.373h13.829a.786.786,0,0,0,0-1.571h-13.829a.786.786,0,1,0,0,1.571" transform="translate(-682.819 -93.541)" fill="#f4c338"/>
            <path id="Trazado_517055" data-name="Trazado 517055" d="M80.247,589.84l.714,6.369c.189.276.507.265,1.3.244,1.411-.038,2.823-.074,4.234-.062a.911.911,0,0,1,.648.416c.677,1.2,1.282,2.45,1.971,3.647a.749.749,0,0,1,.007.966c-1.027,1.482-2.012,2.994-3,4.478a19.737,19.737,0,0,0,5.438,4.427c1.194-1.235,2.434-2.479,3.623-3.77a.869.869,0,0,1,1.159-.26,36.248,36.248,0,0,0,3.835,1.151c.524.133.835.279.939.877.27,1.55.634,3.083.93,4.628.08.415.254.622.678.578l6-.628c.491-.051.406-.437.4-.739,0-1.528,0-3.056-.056-4.582a.988.988,0,0,1,.691-1.089c1.4-.649,2.749-1.389,4.225-2.147l4.806,3.179a20.591,20.591,0,0,0,4.346-5.453l-4.045-3.942c.48-1.774.961-3.408,1.346-5.064a.777.777,0,0,1,.734-.713c1.523-.289,3.038-.626,4.559-.926.329-.065.555-.148.569-.543a19.7,19.7,0,0,0-.562-5.92.619.619,0,0,0-.731-.527c-1.6.02-3.193.009-4.79.035a.72.72,0,0,1-.786-.463c-.7-1.349-1.457-2.669-2.248-3.967a.612.612,0,0,1,.03-.787c1-1.5,1.98-3.017,2.993-4.565a22.083,22.083,0,0,0-5.348-4.353l-4.108,4.216-5.533-1.642c-.283-1.352-.6-2.912-.938-4.466-.28-1.276-.044-1.193-1.442-1.184a2.178,2.178,0,0,1-.4-.071l-3.589.4a4.242,4.242,0,0,1-.78.225c-.689.067-.972.351-.936,1.1.075,1.57.052,3.145.031,4.717a.836.836,0,0,1-.357.6c-1.174.687-2.409,1.274-3.542,2.021a1.022,1.022,0,0,1-1.373-.033c-1.408-.969-2.856-1.879-4.432-2.906l-4.368,5.365c.307.311.481.492.661.668,1.11,1.082,2.211,2.174,3.341,3.235a.78.78,0,0,1,.2.955c-.429,1.409-.768,2.846-1.187,4.258a.922.922,0,0,1-.574.528c-1.238.292-2.491.516-3.734.784-1.006.216-1.379.3-1.544.729m12.748,1.635a10.372,10.372,0,1,1,11.463,9.151,10.371,10.371,0,0,1-11.463-9.151" transform="translate(-54.079 -382.234)" fill="#35974d"/>
            <rect id="Rectángulo_291980" data-name="Rectángulo 291980" width="58.291" height="7.608" transform="translate(111.118 145.46)" fill="#faa928"/>
            <rect id="Rectángulo_291981" data-name="Rectángulo 291981" width="48.736" height="7.608" transform="translate(111.118 159.409)" fill="#faa928"/>
            <rect id="Rectángulo_291982" data-name="Rectángulo 291982" width="27.845" height="7.608" transform="translate(111.118 173.358)" fill="#faa928"/>
            <rect id="Rectángulo_291983" data-name="Rectángulo 291983" width="85.542" height="12.637" transform="translate(273.495 290.047)" fill="#f4c338"/>
            <rect id="Rectángulo_291984" data-name="Rectángulo 291984" width="111.061" height="14.134" transform="translate(371.966 248.896)" fill="#287540"/>
            <rect id="Rectángulo_291985" data-name="Rectángulo 291985" width="111.061" height="14.134" transform="translate(371.966 269.876)" fill="#287540"/>
            <rect id="Rectángulo_291986" data-name="Rectángulo 291986" width="111.061" height="14.134" transform="translate(371.966 290.857)" fill="#287540"/>
            <rect id="Rectángulo_291987" data-name="Rectángulo 291987" width="85.542" height="4.185" transform="translate(273.495 278.564)" fill="#352424"/>
            <rect id="Rectángulo_291988" data-name="Rectángulo 291988" width="85.542" height="4.185" transform="translate(273.495 267.237)" fill="#352424"/>
            <rect id="Rectángulo_291989" data-name="Rectángulo 291989" width="85.542" height="4.184" transform="translate(273.495 255.91)" fill="#352424"/>
            <g id="Grupo_751673" data-name="Grupo 751673" transform="translate(270.587 155.437)" opacity="0.5">
              <g id="Grupo_751672" data-name="Grupo 751672">
                <g id="Grupo_751671" data-name="Grupo 751671" clip-path="url(#clip-path-8)">
                  <rect id="Rectángulo_291990" data-name="Rectángulo 291990" width="212.441" height="83.011" transform="translate(0)" fill="#fef6e4"/>
                </g>
              </g>
            </g>
            <path id="Trazado_517056" data-name="Trazado 517056" d="M1042.231,519.505a74.5,74.5,0,0,0-10.519.26c-22.753,2.3-42.258,17.069-58.551,33.117-3.521,3.469-7.326,7.217-12.217,7.924-5.906.853-11.408-3-15.808-7.027-7.689-7.042-16.015-15.967-26.369-14.747-7.405.872-13.018,6.789-18.445,11.9s-12.489,10.055-19.744,8.336c-6.465-1.532-11.257-6.818-16.572-10.8-11.971-8.977-25.8-.615-34.215,7.528v32.5h212.441Z" transform="translate(-559.203 -350.05)" fill="#287540"/>
            <path id="Trazado_517057" data-name="Trazado 517057" d="M1042.231,580.286a74.441,74.441,0,0,0-10.519.26c-22.753,2.3-42.258,17.069-58.551,33.117-3.521,3.469-7.326,7.217-12.217,7.924-5.906.853-11.408-3-15.808-7.027-7.689-7.042-16.015-15.967-26.369-14.747-7.405.872-13.018,6.789-18.445,11.9s-12.489,10.055-19.744,8.336c-6.465-1.532-11.257-6.818-16.572-10.8-11.971-8.977-25.8-.615-34.215,7.528V629.46h212.441Z" transform="translate(-559.203 -391.011)" fill="#35974d"/>
            <rect id="Rectángulo_291992" data-name="Rectángulo 291992" width="15.151" height="1.754" transform="translate(281.201 181.188)" fill="#f4c338"/>
            <rect id="Rectángulo_291993" data-name="Rectángulo 291993" width="13.915" height="1.754" transform="translate(281.201 185.186)" fill="#f4c338"/>
            <rect id="Rectángulo_291994" data-name="Rectángulo 291994" width="12.001" height="1.754" transform="translate(379.766 171.925)" fill="#f4c338"/>
            <rect id="Rectángulo_291995" data-name="Rectángulo 291995" width="15.151" height="1.754" transform="translate(376.616 175.923)" fill="#f4c338"/>
            <rect id="Rectángulo_291996" data-name="Rectángulo 291996" width="15.151" height="1.754" transform="translate(437.016 161.265)" fill="#f4c338"/>
            <rect id="Rectángulo_291997" data-name="Rectángulo 291997" width="10.207" height="1.754" transform="translate(441.96 165.263)" fill="#f4c338"/>
            <rect id="Rectángulo_291998" data-name="Rectángulo 291998" width="0.269" height="10.35" transform="translate(297.225 187.079) rotate(-30.851)" fill="#f4c338"/>
            <rect id="Rectángulo_291999" data-name="Rectángulo 291999" width="10.35" height="0.269" transform="matrix(0.513, -0.859, 0.859, 0.513, 369.59, 186.563)" fill="#f4c338"/>
            <rect id="Rectángulo_292000" data-name="Rectángulo 292000" width="10.35" height="0.269" transform="matrix(0.513, -0.859, 0.859, 0.513, 436.064, 176.924)" fill="#f4c338"/>
            <rect id="Rectángulo_292001" data-name="Rectángulo 292001" width="20.993" height="14.134" transform="translate(371.966 248.896)" fill="#f16d4a"/>
            <rect id="Rectángulo_292002" data-name="Rectángulo 292002" width="51.494" height="14.134" transform="translate(371.966 269.876)" fill="#f16d4a"/>
            <rect id="Rectángulo_292003" data-name="Rectángulo 292003" width="24.72" height="14.134" transform="translate(371.966 290.857)" fill="#f16d4a"/>
            <path id="Trazado_517058" data-name="Trazado 517058" d="M1130.546,228.27l-2.52,7.559,7.679-3.02Z" transform="translate(-760.187 -153.834)" fill="#f79c8d"/>
            <path id="Trazado_517059" data-name="Trazado 517059" d="M1138.506,159.289c-.512.021-1.914.489-3.966,4.353-2.62,4.934-6.448,19.838-6.448,19.838l11.428,4.241,1.469-3.111,2.418-23.95s-4.759-1.377-4.9-1.372" transform="translate(-760.231 -107.347)" fill="#efe7d3"/>
            <path id="Trazado_517060" data-name="Trazado 517060" d="M1173.638,152.7a70.019,70.019,0,0,0-15.107,2.15s-2.757,23.616,2.482,41.561c1.173,4.017-.97,16.652-.97,16.652l33.863-.445s-4.012-30.546-2.5-35.48,1.548-22.129,1.548-22.129-.232-.036-7.608-1.307a76.9,76.9,0,0,0-11.707-1" transform="translate(-780.256 -102.908)" fill="#fef6e4"/>
            <path id="Trazado_517061" data-name="Trazado 517061" d="M1212.84,472.227s-.749,8.617-2.126,11,.072,6.443.145,7,2.9,1.352,7.4.875,4.422-1.511,4.06-3.182-2.755-3.818-2.9-5.409,1.377-7.318,1.377-7.318Z" transform="translate(-815.512 -318.239)" fill="#f7a491"/>
            <path id="Trazado_517062" data-name="Trazado 517062" d="M1114.558,314.906s-23.376-1.294-28.6,1.857,6.721,17.171,6.721,17.171,13.784-.336,46.7.718c7.553.242,6.61-17.794,5.2-19.453s-30.023-.293-30.023-.293" transform="translate(-730.95 -211.863)" fill="#288340"/>
            <path id="Trazado_517063" data-name="Trazado 517063" d="M1217.807,515.586c4.628-.491,4.056-2.757,3.683-4.478-.234-1.077-1.562-2.347-2.353-3.548a7.722,7.722,0,0,1-3.1,1.5c-2.088.615-4.949-.6-6.772-1.363a22.215,22.215,0,0,0-.619,5.95c.075.574,4.529,2.43,9.157,1.939" transform="translate(-814.506 -342.051)" fill="#0b0a08"/>
            <path id="Trazado_517064" data-name="Trazado 517064" d="M1217.455,332.051c-.934,7.043-5.558,42.105-5.558,42.105l10.729,1.326s13.194-45.764,12.518-52.764-5.616-7.589-5.616-7.589-9.6-1.722-12.073,16.922" transform="translate(-816.708 -212.341)" fill="#287540"/>
            <path id="Trazado_517065" data-name="Trazado 517065" d="M1185.422,167.755c-3.166-1.183-4.715,27.248-5.142,38.95-5.607.537-15.38,0-17.813-.178-1.144-.086-3.783-1.049-4.921-1.2a11.438,11.438,0,0,0-2.8-.132c-.211.037-6.055,2.419-6.555,2.941-.62.648-2.3,2.282-2.013,2.988s3.224-1.968,3.224-1.968l1.437-.8c-1.789,1.742-5.2,4.036-4.71,4.871.479.815,3.558-1.513,5.752-3.1-1.881,1.694-4.219,4.725-3.681,5.2.484.425,3.144-3.084,5.986-4.1,1.053-.374,2.1.663,2.931.788a5.984,5.984,0,0,0,2.146.119l3.077-.87c1.048.095,1.075.712,2.133.937,1.229.261,3.245.535,4.81.916,9.012,2.194,12.018,3.213,14.777,3.212,8.358-.005,8.842-45.778,1.359-48.575" transform="translate(-772.356 -113.028)" fill="#f7a491"/>
            <path id="Trazado_517066" data-name="Trazado 517066" d="M1258.6,188.957c.593-11.987.507-26.761-6.236-29.282-2.66-.995-7.35,4.986-6.507,29.526,3.6.3,8.884.534,12.743-.244" transform="translate(-839.53 -107.538)" fill="#efe7d3"/>
            <path id="Trazado_517067" data-name="Trazado 517067" d="M1169.47,233.89h.687l10.332,25.3-.712-.108Z" transform="translate(-788.116 -157.621)" fill="#f79c8d"/>
            <path id="Trazado_517068" data-name="Trazado 517068" d="M1099.213,494.831s.936,2.992-.74,4.97-8.642,3.919-9.556,4.991a3,3,0,0,0-.845,1.984l19.551-.536-.213-5.885-.9-4.229Z" transform="translate(-733.261 -333.472)" fill="#f7a491"/>
            <path id="Trazado_517069" data-name="Trazado 517069" d="M1091.023,512.17s5.024,2.025,7.45.826,2.353-1.532,3.055-1.084.954,5.964.954,5.964l-21.984.644c-1.53-.035-2.3-1.158-1.06-2.119a17.9,17.9,0,0,1,2.4-1.42c1.72-.983,9.189-2.81,9.189-2.81" transform="translate(-727.026 -344.855)" fill="#0b0a08"/>
            <path id="Trazado_517070" data-name="Trazado 517070" d="M1088.944,321.418c-1.511-3.169-4.948-7.295-11-4.81-5.767,2.37-7.315,8.2-5.5,14.16s13.8,41.031,14.216,45.852l9.565.063s-1.738-27.766-2.164-34.477a64.823,64.823,0,0,0-5.126-20.789" transform="translate(-722.25 -212.853)" fill="#287540"/>
            <path id="Trazado_517071" data-name="Trazado 517071" d="M1072.584,233.89h31.972a2.085,2.085,0,0,1,1.929,1.294l9.844,24.01h17.626a.892.892,0,1,1,0,1.783H1083.79a3.5,3.5,0,0,1-3.195-2.068l-9.912-22.082a2.085,2.085,0,0,1,1.9-2.938" transform="translate(-721.418 -157.622)" fill="#0b0a08"/>
            <path id="Trazado_517072" data-name="Trazado 517072" d="M1129.6,271.961a1.759,1.759,0,1,0,1.318-2.295,1.88,1.88,0,0,0-1.318,2.295" transform="translate(-761.215 -181.711)" fill="#fff"/>
            <path id="Trazado_517073" data-name="Trazado 517073" d="M1199.266,120.393l1.565,10.311s-5.713,12.277-9.124,11.212c-2.861-.893-1.1-11.756-1.1-11.756s1.56-5.833,1.092-8.753,7.568-1.014,7.568-1.014" transform="translate(-801.999 -80.724)" fill="#f7a491"/>
            <g id="Grupo_751676" data-name="Grupo 751676" transform="translate(388.563 40.359)" opacity="0.5">
              <g id="Grupo_751675" data-name="Grupo 751675">
                <g id="Grupo_751674" data-name="Grupo 751674" clip-path="url(#clip-path-9)">
                  <path id="Trazado_517074" data-name="Trazado 517074" d="M1191.623,132.847a34.231,34.231,0,0,0,1.169-7.948c2.15-.607,5.806-1.4,7.73-1.035l.562,4.5c-.1.124-.193.243-.3.354a14.909,14.909,0,0,1-9.209,4.425c.027-.187.044-.291.044-.291" transform="translate(-1191.579 -123.769)" fill="#f47458"/>
                </g>
              </g>
            </g>
            <path id="Trazado_517075" data-name="Trazado 517075" d="M1187.6,70.56c.2-.149,5.3,11.149,3.258,15.286s-7.591,6.948-10.456,5.025c-3.169-2.127-6.828-14.815-3.143-19.543s10.342-.768,10.342-.768" transform="translate(-792.321 -46.505)" fill="#f7a491"/>
            <path id="Trazado_517076" data-name="Trazado 517076" d="M1172.01,56.069c3.837-.342,12.723-.976,16.167,2.153,4.235,3.847,4.041,11.96,1.5,15.5a31.432,31.432,0,0,0-3.869,7.711l-.441-2.633c-.177-2.029.468-2.2.235-3.445a7.338,7.338,0,0,1-.11-2.318c.285-1.941-2.551-2.327-3.675-3.535-.865-.931-1.636-3.42-3.024-4.97l-1.426-1.074s-2.885-1.123-5.023.075-5.261-7.021-.338-7.46" transform="translate(-788.06 -37.588)" fill="#0b0a08"/>
            <path id="Trazado_517077" data-name="Trazado 517077" d="M1209.562,97.8c.4,1.444,1.409,2.424,2.243,2.191s1.181-1.593.776-3.036-1.409-2.424-2.242-2.191-1.181,1.593-.776,3.036" transform="translate(-815.021 -63.839)" fill="#f7a491"/>
            <path id="Trazado_517078" data-name="Trazado 517078" d="M1191.214,120.043l-4.865,1.182a2.189,2.189,0,0,0,2.716,1.362c2.627-.559,2.15-2.544,2.15-2.544" transform="translate(-799.492 -80.899)" fill="#fff"/>
            <path id="Trazado_517079" data-name="Trazado 517079" d="M266.879,832.149c1.45-1.179,12.671,3.744,12.528,5.458s7.83,18.329,7.83,18.329l13.776-10.984.006,0c.122-.4,1.428-4.67,1.491-5.434.067-.8,2.394-2.2,3.475-2s-.924,1.563-1.056,1.811c-.359.677,1.028.932,1.028.932s3.934-1.261,4.018-2.546,2.775,2.246,2.458,2.738-6.737,5.659-7.663,6.783c0,0-17.819,20.37-19.087,20.9-1.113.467-5.082-6.552-8.832-11.213s-14.507-21.1-9.973-24.783" transform="translate(-179.114 -560.672)" fill="#f7a491"/>
            <path id="Trazado_517080" data-name="Trazado 517080" d="M131.926,1278.024s-2.449,2.389-2.5,3.266-.217,10.27.783,11.147,3.936,1.5,2.992,2.485c-.713.745-6.2.586-9.84.386-1.062-.059-2.394-8.531-2.814-9.777-.611-1.808-2.1-5.882-1.541-7.142a10.593,10.593,0,0,1,3.389-3.055,16.666,16.666,0,0,0,3.754-4Z" transform="translate(-80.114 -856.766)" fill="#f48c7f"/>
            <path id="Trazado_517081" data-name="Trazado 517081" d="M230.474,1308.631s-2.191,6.19-2.194,6.206c-.163.981-.8,3.4-.8,4.3,0,3.349,15.1-2.843,11.719-4.327a3.575,3.575,0,0,1-1.368-2.348,7.842,7.842,0,0,1,1.272-3.959Z" transform="translate(-153.298 -881.811)" fill="#f7a491"/>
            <path id="Trazado_517082" data-name="Trazado 517082" d="M257.589,955.424s1.1,11.1,1.1,11.262c0,17.951,3.558,53.015,2.882,56.39-1.651,8.232-19.419,50.224-19.419,50.224l-9.6-1.148,12.514-50.277-4.605-20.236-6.516-40Z" transform="translate(-156.717 -643.87)" fill="#efe7d3"/>
            <path id="Trazado_517083" data-name="Trazado 517083" d="M157.743,968.511l-1.822,10.518-4.93,43.286-18.775,42.305s2.641,6.156,6.537,7.021l29.882-43.435L187.2,972.627l-.652-12.347Z" transform="translate(-89.102 -647.143)" fill="#fef6e4"/>
            <path id="Trazado_517084" data-name="Trazado 517084" d="M292.3,814.368l-13.316,1.359s-.611-10.917-.611-16.124c0-6.318.538-14.455,1.3-14.28a11.605,11.605,0,0,1,6.742,4.033c5.941,8.163,5.884,25.012,5.884,25.012" transform="translate(-187.597 -529.236)" fill="#288340"/>
            <path id="Trazado_517085" data-name="Trazado 517085" d="M232.7,797.621c.278,1.926,5.4,54.293,5.4,54.293C213.849,863.624,200.47,854,200.47,854s.793-36.773-.157-41.778c-.63-3.311-1.414-25.316.732-25.932A53.748,53.748,0,0,1,210.4,784.3c2.938-.3,14.35-.482,16.392.2a26,26,0,0,1,5.908,13.115" transform="translate(-134.538 -528.368)" fill="#35974d"/>
            <path id="Trazado_517086" data-name="Trazado 517086" d="M119.99,1283.414s5.643,15.89,7.852,16.657c.586.2,3.4.72,3.932,1.965a5.388,5.388,0,0,1,0,1.627H120.012s-1.488-7-2.076-10.077c0,0-3.114-7.516-2.768-8.2s4.822-1.973,4.822-1.973" transform="translate(-77.595 -864.905)" fill="#f16d4a"/>
            <path id="Trazado_517087" data-name="Trazado 517087" d="M224.842,1333.2l1.73-5.464s3.632,1.537,5.449,1.281a55.106,55.106,0,0,0,5.362-1.281c7.25,2.387,13.189,3.545,12.109,5.464Z" transform="translate(-151.523 -894.777)" fill="#f16d4a"/>
            <path id="Trazado_517088" data-name="Trazado 517088" d="M323.474,914.681a3.134,3.134,0,0,0,.366-.272c-.431-5.13-.353-10.1,1.257-11.783-.039-.08-.391-.829-.758-1.6-1.866,1.443-2.753,5.278-2.4,11.5a10.661,10.661,0,0,0,.246,1.289c.541.594,1.031.978,1.294.868" transform="translate(-216.904 -607.208)" fill="#f7a491"/>
            <path id="Trazado_517089" data-name="Trazado 517089" d="M239.345,752.555l-1.563,10.3s5.708,12.265,9.115,11.2c2.859-.892,1.1-11.745,1.1-11.745s-1.558-5.828-1.091-8.745-7.561-1.013-7.561-1.013" transform="translate(-160.243 -506.744)" fill="#f7a491"/>
            <path id="Trazado_517090" data-name="Trazado 517090" d="M249.869,753.569c.467-2.917-7.561-1.013-7.561-1.013l-.129.854a4.749,4.749,0,0,0,.871,1.436,10.571,10.571,0,0,0,7.02,3.177,15.909,15.909,0,0,1-.2-4.454" transform="translate(-163.206 -506.744)" fill="#f47458"/>
            <path id="Trazado_517091" data-name="Trazado 517091" d="M237.252,702.477c-.227-.083-1.819,11.732,1.2,14.983s8.907,4.315,11.018,1.754c2.335-2.832,2.218-15.53-2.479-18.874s-9.741,2.137-9.741,2.137" transform="translate(-159.468 -471.238)" fill="#f7a491"/>
            <path id="Trazado_517092" data-name="Trazado 517092" d="M233.2,683.043a13.04,13.04,0,0,0-6.846,3.9c-1.648.195-3.889,1.106-6.2,4.936a9.58,9.58,0,0,0,2.568,12.489c3.311,2.56,3.266,5.518,3.266,5.518l.523-1.53a8.563,8.563,0,0,0,.415-3.6,7.034,7.034,0,0,0-.536-2.166c-.8-1.71,1.711-2.846,2.414-4.268.541-1.1.567-3.6,1.42-5.412l1.019-1.382s2.35-1.829,4.649-1.313,1.968-8.122-2.69-7.173" transform="translate(-147.463 -460.261)" fill="#0e2e35"/>
            <path id="Trazado_517093" data-name="Trazado 517093" d="M242.732,731.157c.024,1.441-.631,2.621-1.463,2.635s-1.527-1.143-1.551-2.584.631-2.621,1.464-2.636,1.526,1.143,1.55,2.585" transform="translate(-161.548 -490.993)" fill="#f7a491"/>
            <path id="Trazado_517094" data-name="Trazado 517094" d="M264.006,746.225l4.554-.236a1.993,1.993,0,0,1-2.015,1.9c-2.438.2-2.539-1.661-2.539-1.661" transform="translate(-177.916 -502.73)" fill="#fff"/>
            <path id="Trazado_517095" data-name="Trazado 517095" d="M329.561,822.328q-1.6-1.643-3-3.378l-19.875,19.408c-1.221,1.193-.8,3.6.939,5.386s4.141,2.259,5.363,1.067L332.868,825.4q-1.7-1.433-3.307-3.075" transform="translate(-206.211 -551.899)" fill="#352424"/>
            <g id="Grupo_751679" data-name="Grupo 751679" transform="translate(109.532 184.531)" opacity="0.6">
              <g id="Grupo_751678" data-name="Grupo 751678">
                <g id="Grupo_751677" data-name="Grupo 751677" clip-path="url(#clip-path-10)">
                  <path id="Trazado_517096" data-name="Trazado 517096" d="M421.207,652.034a50.129,50.129,0,1,1,1.062-71.1,50.284,50.284,0,0,1-1.062,71.1" transform="translate(-335.895 -565.891)" fill="#efe7d3"/>
                </g>
              </g>
            </g>
            <g id="Grupo_751682" data-name="Grupo 751682" transform="translate(123.676 197.919)" style="mix-blend-mode: soft-light;isolation: isolate">
              <g id="Grupo_751681" data-name="Grupo 751681">
                <g id="Grupo_751680" data-name="Grupo 751680" clip-path="url(#clip-path-11)">
                  <path id="Trazado_517097" data-name="Trazado 517097" d="M379.27,678.55a50.082,50.082,0,0,0,31.916,15.621L465.559,638.9c-.01-.1-.018-.208-.03-.312a50.422,50.422,0,0,0-15.814-31.645Z" transform="translate(-379.27 -606.946)" fill="#fff"/>
                </g>
              </g>
            </g>
            <g id="Grupo_751685" data-name="Grupo 751685" transform="translate(109.968 184.473)" style="mix-blend-mode: soft-light;isolation: isolate">
              <g id="Grupo_751684" data-name="Grupo 751684">
                <g id="Grupo_751683" data-name="Grupo 751683" clip-path="url(#clip-path-12)">
                  <path id="Trazado_517098" data-name="Trazado 517098" d="M387.513,565.715,337.23,616.825c.024,1.547.115,3.105.283,4.673a50.528,50.528,0,0,0,6.315,19.637l67.907-69.024a49.666,49.666,0,0,0-24.223-6.395" transform="translate(-337.23 -565.715)" fill="#fff"/>
                </g>
              </g>
            </g>
            <path id="Trazado_517099" data-name="Trazado 517099" d="M413.413,562.768a57.024,57.024,0,1,0-1.2,80.385,56.848,56.848,0,0,0,1.2-80.385m-76.881,75.083a50.441,50.441,0,1,1,71.11.621,50.285,50.285,0,0,1-71.11-.621" transform="translate(-212.798 -367.798)" fill="#f4c338"/>
            <g id="Grupo_751688" data-name="Grupo 751688" transform="translate(106.419 181.418)" opacity="0.5" style="mix-blend-mode: multiply;isolation: isolate">
              <g id="Grupo_751687" data-name="Grupo 751687">
                <g id="Grupo_751686" data-name="Grupo 751686" clip-path="url(#clip-path-13)">
                  <path id="Trazado_517100" data-name="Trazado 517100" d="M418.068,572.315a53.564,53.564,0,1,0-1.128,75.507,53.4,53.4,0,0,0,1.128-75.507M343.662,644.98a50.441,50.441,0,1,1,71.11.621,50.285,50.285,0,0,1-71.11-.621" transform="translate(-326.346 -556.345)" fill="#faa928"/>
                </g>
              </g>
            </g>
            <path id="Trazado_517101" data-name="Trazado 517101" d="M107.8,940.728l-3.089-3.2a8.053,8.053,0,0,1,.208-11.386l57.38-55.63a8.052,8.052,0,0,1,11.385.208l3.089,3.2a8.052,8.052,0,0,1-.208,11.385l-57.38,55.631a8.052,8.052,0,0,1-11.385-.208" transform="translate(-69.047 -585.125)" fill="#287540"/>
            <path id="Trazado_517102" data-name="Trazado 517102" d="M126.438,877.769a1.455,1.455,0,0,1-.006-.337c.357-3.627,3.368-34.079,3.875-35.374.458-1.169,13.962-20.483,13.962-20.483l6.638,9.042L137.92,847.941c-.292,1.1-4.977,21.658-4.977,21.658s-.96,3.747-1.391,5.992c.2.541.389,1.051.56,1.471a13.534,13.534,0,0,0,1.4,2.249,15.4,15.4,0,0,1,1.658,2.933c.138.529.385,1.628.526,2.291s.333,1.435.365,1.8a3.472,3.472,0,0,0,.419.965.579.579,0,0,1-.684.836c-.472-.157-.839-.767-1.066-1.148-.639-1.074-.98-3.036-1.139-2.932s-.719,3.431-.807,3.808a40.988,40.988,0,0,1-1.14,4.947c-.379.706-.88.588-1.014.146-.114-.381.419-5.787.419-5.787s.067-.69-.235-.475-.8,5.124-1.006,5.842-.689,1.1-1.1.522c-.494-.7.355-5.908.355-5.908s.1-.654-.184-.594-.63,4.244-.847,4.606a.552.552,0,0,1-1.029-.112c-.308-.711.491-5.352.491-5.352s-.039-.37-.214-.247-.728,3.667-1.088,4a.383.383,0,0,1-.555.008c-.662-.452.353-3.823.343-5.5s.768-3.56.535-5.557c-.014-.125-.055-.433-.081-.626" transform="translate(-84.519 -553.668)" fill="#f8a492"/>
            <path id="Trazado_517103" data-name="Trazado 517103" d="M150.878,813.23l11.535,7.745s6.5-9.675,9.992-13.12c4.372-4.314-1.593-17.533-4.409-16.785-6.3,1.673-17.118,22.159-17.118,22.159" transform="translate(-101.678 -533.09)" fill="#35974d"/>
            <path id="Trazado_517104" data-name="Trazado 517104" d="M676.35,204.747l.484.433a.6.6,0,0,0,.836-.021l8.583-9.442a.584.584,0,0,0-.065-.828l-.484-.433a.6.6,0,0,0-.836.021l-8.583,9.442a.584.584,0,0,0,.065.828" transform="translate(-455.659 -130.938)" fill="#0b0a08"/>
            <path id="Trazado_517105" data-name="Trazado 517105" d="M585.751,202.528c1.147-.933,10.019,2.962,9.906,4.318s6.191,14.5,6.191,14.5l10.893-8.691,0,0c.1-.314,1.129-3.694,1.179-4.3.053-.634,1.893-1.744,2.748-1.581s-.731,1.237-.835,1.434c-.284.536.812.737.812.737s3.147-1.729,3.214-2.745.717-3.147,1.4-2.7c.351.23.348,1.742.238,2.459.2-.814.488-1.733.767-1.824.509-.167.762.482.67.8s-.915,3.775-1.165,4.164-5.326,4.478-6.059,5.367c0,0-14.089,16.117-15.092,16.539-.88.37-4.018-5.185-6.984-8.872s-11.47-16.692-7.885-19.609" transform="translate(-394.159 -136.39)" fill="#f7a491"/>
            <path id="Trazado_517106" data-name="Trazado 517106" d="M706.3,506.428s.663,7.24.227,9.6a9.112,9.112,0,0,1-.336,1.158c-.449,1.324.781,5.366.781,5.366l16.5.061c.9,0,.3-.566-.433-1.089a33.307,33.307,0,0,0-5.972-3.2c-.248-.116-1.155-.676-1.482-.87A11.4,11.4,0,0,1,713.2,515.4c-1.2-1.3-1.383-7.682-1.383-7.682Z" transform="translate(-475.841 -341.287)" fill="#f7a491"/>
            <path id="Trazado_517107" data-name="Trazado 517107" d="M713.821,539.717a14.961,14.961,0,0,1-9.4-.252c-.449,1.322-1.294,5.79-.79,5.79,4.138,0,7.639.783,19.494.6.425-.007.373-1.464.1-1.786-.765-.889-9.076-4.154-9.4-4.348" transform="translate(-474.082 -363.551)" fill="#352424"/>
            <path id="Trazado_517108" data-name="Trazado 517108" d="M764,467.31s3.609,6.312,4.192,8.641a9.129,9.129,0,0,1,.174,1.193c.141,1.391,2.938,4.557,2.938,4.557l15.036-6.793c.819-.37.036-.639-.846-.811a33.3,33.3,0,0,0-6.762-.433c-.275,0-1.331-.135-1.709-.176a11.41,11.41,0,0,1-3.022-.876c-1.632-.685-4.448-6.415-4.448-6.415Z" transform="translate(-514.865 -314.175)" fill="#f7a491"/>
            <path id="Trazado_517109" data-name="Trazado 517109" d="M498.535,90.151c-1.981-4.014-6.883-6.291-11.353-6.3-14.193-.018-16,18.243-25.034,25.286-2.71,2.112-5.732,3.842-8.313,6.1a12.349,12.349,0,0,0,.682,4.39,18.543,18.543,0,0,0,2.193,4.119l3.825-2.216-1.662,4.83c3.41,3.546,7.951,6.161,12.377,8.6A44.782,44.782,0,0,0,490.7,140c2.5-5.037,4.255-10.623,6.172-15.828,2.3-6.239,4.223-12.734,4.507-19.394a29.653,29.653,0,0,0-2.846-14.625" transform="translate(-305.841 -56.511)" fill="#0b0a08"/>
            <path id="Trazado_517110" data-name="Trazado 517110" d="M786.045,488.2a14.959,14.959,0,0,1-8.653,3.671c.14,1.389,1.227,5.805,1.685,5.6,3.764-1.717,7.275-2.459,17.983-7.549.383-.182-.269-1.487-.654-1.665-1.065-.491-9.982-.012-10.361-.052" transform="translate(-523.892 -328.891)" fill="#352424"/>
            <path id="Trazado_517111" data-name="Trazado 517111" d="M583.077,169.941c6.446,2.185,9.194,18.514,9.194,18.514s-10.113,2.823-12.7,1.343c0,0-2.941-13.036-3.995-12.581Z" transform="translate(-387.883 -114.526)" fill="#efe7d3"/>
            <path id="Trazado_517112" data-name="Trazado 517112" d="M543.318,165.765h0a2.42,2.42,0,0,0,.65-.134c1.2-.214,4.343.521,6.38,1.38,2.477,1.045,3.973,10.263,3.744,20.286-.092,1.532-1.247,25.135-1.364,25.21-2.955,1.9-20.56,2.83-21.785,1.211s-2.17-29.6-2.765-30.58l-1.171-17.114c2.067-.617,13.142-.281,16.312-.259" transform="translate(-355.154 -111.596)" fill="#fef6e4"/>
            <path id="Trazado_517113" data-name="Trazado 517113" d="M554.873,140.393s1.148,5.937.918,8.279.876,9.889,5.832,9.914.941-9.6.474-11.891a87.881,87.881,0,0,1-.577-9.4Z" transform="translate(-373.934 -92.526)" fill="#f7a491"/>
            <path id="Trazado_517114" data-name="Trazado 517114" d="M561.624,140.861c-.077-1.943-.1-3.564-.1-3.564l-6.647,3.1s.235,1.214.471,2.761a5.805,5.805,0,0,0,6.279-2.293" transform="translate(-373.935 -92.527)" fill="#f47458"/>
            <path id="Trazado_517115" data-name="Trazado 517115" d="M539.588,94.923a8.235,8.235,0,0,0-3.5,4.5c-.937,3.08.129,11.027,6.746,12.945s9.483-4.375,8.12-9.3-4.327-11.151-11.368-8.151" transform="translate(-361.078 -63.442)" fill="#f7a491"/>
            <path id="Trazado_517116" data-name="Trazado 517116" d="M579.022,110.455c-.13,1.321-.859,2.332-1.629,2.256s-1.289-1.208-1.159-2.529.859-2.332,1.628-2.256,1.289,1.208,1.159,2.529" transform="translate(-388.316 -72.73)" fill="#f7a491"/>
            <path id="Trazado_517117" data-name="Trazado 517117" d="M535.349,95.313s-1.2,8.866-4.066,10.466-1.666,5.533-1.666,5.533-2.6-9.132-.333-12.065a12.616,12.616,0,0,1,6.066-3.933" transform="translate(-356.063 -64.233)" fill="#0b0a08"/>
            <path id="Trazado_517118" data-name="Trazado 517118" d="M535.5,128.526c.777,1.155.774,2.518-.007,3.043s-2.044.015-2.821-1.14-.774-2.517.006-3.043,2.044-.015,2.821,1.14" transform="translate(-358.578 -85.708)" fill="#f7a491"/>
            <path id="Trazado_517119" data-name="Trazado 517119" d="M562.466,132.823,557.8,134a2.12,2.12,0,0,0,2.627,1.315c2.519-.556,2.037-2.489,2.037-2.489" transform="translate(-375.908 -89.512)" fill="#fff"/>
            <path id="Trazado_517120" data-name="Trazado 517120" d="M442.432,265.539c.076-.215.262-.225.452-.237a46.919,46.919,0,0,0,5.5-.586,3.972,3.972,0,0,0,.879-.254,2.312,2.312,0,0,1,1.523-.1,3.1,3.1,0,0,0,.851.063c.927-.033,3.544-1.016,4.9-1.3a.8.8,0,0,0,.615-.614c1.171-5.33,3.666-17.284,3.915-21.2.319-5,3.056-27.606,3.056-27.606l9.3,2.28s-2.277,16.446-3.073,24.531c-.614,6.242-7.407,19.906-9.235,23.761a3.89,3.89,0,0,1-3.489,3.075,1.146,1.146,0,0,0-.718.414,5.178,5.178,0,0,1-1.131,1.048,2.715,2.715,0,0,0-.769.815c-.374.584-.705,1.193-1.033,1.8-.217.4-.454.538-.8.455a.725.725,0,0,1-.559-.8,3.65,3.65,0,0,1,.494-1.833.989.989,0,0,0-.115-1.314,4.184,4.184,0,0,0-.717-.748,1.2,1.2,0,0,0-.953-.313,15.217,15.217,0,0,1-2,.438l-.554.131c-.019,0-.3.074-.3.074-.047.014-1.024.152-1.36.163-.27.009-.706.041-1.077.07a5.936,5.936,0,0,1-1.077-.127,1.3,1.3,0,0,1-.872-.318c-.1-.086-.2-.185-.156-.339a.342.342,0,0,1,.292-.235,13.136,13.136,0,0,0,1.346-.27c-.34.01-1.405.019-1.745.021a1.6,1.6,0,0,1-1.187-.478c-.129-.13-.278-.258-.2-.474" transform="translate(-298.145 -144.021)" fill="#f7a491"/>
            <path id="Trazado_517121" data-name="Trazado 517121" d="M509.857,166.674c-4.552-.827-8.668,19.563-8.668,19.563s10.113,2.823,12.7,1.343c0,0,2.942-13.036,4-12.581Z" transform="translate(-337.756 -112.308)" fill="#fef6e4"/>
            <path id="Trazado_517122" data-name="Trazado 517122" d="M553.336,297.727v3.721l34.978,7.356L597,334.884l-4.838-3.3,1.117,40.159-7.357.051s-12.748-33.694-8.567-50.64l-38.713.592s-17.545-6.775-8.492-27.2Z" transform="translate(-355.522 -198.494)" fill="#287540"/>
            <path id="Trazado_517123" data-name="Trazado 517123" d="M606.623,315.725s36.285.243,38.862,2.228,21.914,51.3,21.914,51.3l-8.434,3.15s-16.779-27.978-17.667-29.974-7.387-16.585-9.867-18.074-24.808-8.631-24.808-8.631" transform="translate(-408.809 -212.771)" fill="#35974d"/>
            <path id="Trazado_517124" data-name="Trazado 517124" d="M1626.116,1277.1s1.057,7.376,2.876,9.756a18.8,18.8,0,0,1,2.458,3.253c1.14,2.247.51,5.593-.331,7.436-.432.946.031.943-.952,1.248a6.024,6.024,0,0,1-7.243-3.42,17.437,17.437,0,0,1-1.421-6.285c-.311-6.7-2.382-10.1-2.382-10.1Z" transform="translate(-1091.141 -860.65)" fill="#f7a491"/>
            <path id="Trazado_517125" data-name="Trazado 517125" d="M1501.978,1287.446s-.653,8.317-.123,11.02c.284,1.448,1.864,4.427,1.139,5.789a3.648,3.648,0,0,1-1.553,1.7l-18.786.3c-1.023.016-.347-.646.478-1.256,1.351-1,2.44-1.658,6.754-3.757.281-.137,1.306-.792,1.676-1.019a13.047,13.047,0,0,0,2.687-2.387c1.349-1.51,1.467-8.835,1.467-8.835Z" transform="translate(-998.827 -867.623)" fill="#f7a491"/>
            <path id="Trazado_517126" data-name="Trazado 517126" d="M1495.183,944.106s-2.366,13.5-.813,22.357,9.008,90.915,9.008,90.915l8.285.47s1.736-34.279,1.426-39.046-2.769-12.745-2.769-12.745l.825-27.676-10.455-36.359Z" transform="translate(-1006.714 -634.838)" fill="#efe7d3"/>
            <path id="Trazado_517127" data-name="Trazado 517127" d="M1524.475,933.371s6.523,9.874,8.077,18.047-1.14,33.287,1.848,44c1.617,5.8,7.747,14.749,8.679,22.24s4.588,27.114,4.588,27.114l-8.281,1.651-19.245-49.006-15.1-44.294-3.867-22.812Z" transform="translate(-1011.658 -626.943)" fill="#fef6e4"/>
            <path id="Trazado_517128" data-name="Trazado 517128" d="M1629.053,1320.734a9.235,9.235,0,0,0,9.079-3.815c1.147,2.252,1.707,5.612.863,7.461-.743,1.629-2.915,1.583-4.625,1.646a4.462,4.462,0,0,1-4.1-2.526,15.2,15.2,0,0,1-1.213-2.766" transform="translate(-1097.834 -887.485)" fill="#f16d4a"/>
            <path id="Trazado_517129" data-name="Trazado 517129" d="M1488.769,1325.771a16.91,16.91,0,0,0,10.7-.423c.53,1.51,1.232,3.405.86,4.5-.456,1.338-1.105,1.64-1.679,1.655-4.538.12-16.623.283-20.083.328a.569.569,0,0,1-.439-.934c.858-1.031,10.276-4.9,10.646-5.123" transform="translate(-996.031 -893.165)" fill="#f16d4a"/>
            <path id="Trazado_517130" data-name="Trazado 517130" d="M1402.5,851.847c-.346-.736,3.3-1.738,3.421-2.53s-4.775-.346-5.02-1.007c-.452-1.216,5.328-.818,5.156-1.392s-6.112-1.276-5.589-2.345,6.083,1.372,6.172.675-5.375-1.8-5.435-3.306c-.032-.8,9.1,3.076,10.053,2.539s-1.51-4.07-.771-4.709,3.943,6.749,4.521,6.965,13.1,4,17.364,4.63c.36-1.442,3.562-9.379,3.871-10.739,2.5,1.416,5.688-.288,8.247.973-1.289,4.544-4.182,19.511-5.338,20.185-3.52,2.052-22.042-7.732-25.1-9.464s-4.629-.906-6.626-1.347-4.577,1.608-4.922.872" transform="translate(-943.767 -565.905)" fill="#f7a491"/>
            <path id="Trazado_517131" data-name="Trazado 517131" d="M1505.84,701.027c-.931-4.235-1.844-8.5.612-13.149a11.944,11.944,0,0,1,9.4-6.4c11.268-1.336,8.86,9.182,24.608,11.459,4.894.708,9.44,1.388,13.526,3.821,7.378,4.395,10.162,11.444,5.27,22.928-11.981,28.121-40.647,3.685-45.019-1.289-4.339-4.936-7.8-14.641-8.4-17.367" transform="translate(-1014.148 -459.173)" fill="#f16d4a"/>
            <path id="Trazado_517132" data-name="Trazado 517132" d="M1522.34,782.671s5.69.646,9.093,4.348-5.5,33.459-6.12,38.17,5.918,17.751,5.918,17.751-22.217,4.416-27.993.6c0,0-.507-36.416.112-39.781s5.775-17.052,7.013-18.4,11.978-2.692,11.978-2.692" transform="translate(-1012.914 -527.45)" fill="#35974d"/>
            <path id="Trazado_517133" data-name="Trazado 517133" d="M1537.542,747.1s.045.253.125.683c.383,2.064,1.861,8.911,2.858,10.793,1.206,2.275-4.128,9.53-9.261,8.644-1.528-.263,1.292-6.666,1.156-7.344-.259-1.3-.611-3.069-.971-4.885-.2-1.024-.409-2.063-.6-3.039-.549-2.774-1-5.043-1-5.043Z" transform="translate(-1030.979 -503.348)" fill="#f7a491"/>
            <g id="Grupo_751691" data-name="Grupo 751691" transform="translate(498.87 243.558)" opacity="0.5">
              <g id="Grupo_751690" data-name="Grupo 751690">
                <g id="Grupo_751689" data-name="Grupo 751689" clip-path="url(#clip-path-14)">
                  <path id="Trazado_517134" data-name="Trazado 517134" d="M1537.666,747.781c-.08-.43-.125-.683-.125-.683l-7.693-.191s.448,2.269,1,5.043c.193.971.4,2,.6,3.022a7.213,7.213,0,0,0,3.673-1.838A9.687,9.687,0,0,0,1537.9,749c-.095-.486-.174-.9-.233-1.224" transform="translate(-1529.849 -746.906)" fill="#f47458"/>
                </g>
              </g>
            </g>
            <path id="Trazado_517135" data-name="Trazado 517135" d="M1522.94,691.416a9.079,9.079,0,0,1,5.41,3.368c2.273,2.934,4.722,12.006-.923,16.939s-11.225-.651-12.052-6.571-.66-13.95,7.565-13.737" transform="translate(-1021.005 -465.95)" fill="#f7a491"/>
            <path id="Trazado_517136" data-name="Trazado 517136" d="M1510.718,722.763c.356,1.427,1.291,2.391,2.088,2.153s1.155-1.588.8-3.015-1.291-2.391-2.089-2.153-1.155,1.587-.8,3.015" transform="translate(-1017.994 -485.022)" fill="#f7a491"/>
            <path id="Trazado_517137" data-name="Trazado 517137" d="M1528.564,691.191s7.373,8.464,10.838,8.863,3.921,4.983,3.921,4.983-1.239-10.563-4.67-12.6-10.089-1.245-10.089-1.245" transform="translate(-1030.113 -465.699)" fill="#f16d4a"/>
            <path id="Trazado_517138" data-name="Trazado 517138" d="M1558.177,719.956c-.282,1.532.285,2.937,1.266,3.138s2-.878,2.287-2.411-.285-2.937-1.266-3.138-2,.879-2.286,2.41" transform="translate(-1050.021 -483.545)" fill="#f7a491"/>
            <path id="Trazado_517139" data-name="Trazado 517139" d="M1507.1,856.7l-23.824,3.485a1.311,1.311,0,0,0-1.107,1.487l4.65,31.784a1.31,1.31,0,0,0,1.486,1.107l23.824-3.485a1.311,1.311,0,0,0,1.107-1.487l-4.649-31.784a1.311,1.311,0,0,0-1.487-1.107" transform="translate(-998.835 -577.328)" fill="#352424"/>
            <path id="Trazado_517140" data-name="Trazado 517140" d="M1504.149,857.835a.266.266,0,0,1,.224-.3l9.938-1.454a.266.266,0,0,1,.3.225l.151,1.033-10.463,1.531Z" transform="translate(-1013.658 -576.919)" fill="#fef6e4"/>
            <path id="Trazado_517141" data-name="Trazado 517141" d="M1515.378,856.226a1.584,1.584,0,1,0,1.338-1.8,1.584,1.584,0,0,0-1.338,1.8m.563-.082a1.016,1.016,0,1,1,1.152.858,1.015,1.015,0,0,1-1.152-.858" transform="translate(-1021.216 -575.797)" fill="#fef6e4"/>
            <path id="Trazado_517142" data-name="Trazado 517142" d="M1504.275,860.173a.266.266,0,0,0-.125.265l.151,1.033,10.463-1.531a1.31,1.31,0,0,1-1.106,1.485l-7.872,1.151a1.31,1.31,0,0,1-1.485-1.106l-.151-1.033a.266.266,0,0,1,.125-.265" transform="translate(-1013.658 -579.523)" fill="#efe7d3"/>
            <path id="Trazado_517143" data-name="Trazado 517143" d="M1526.876,742.484l5.362-.028a2.344,2.344,0,0,1-2.47,2.117c-2.874.1-2.891-2.089-2.891-2.089" transform="translate(-1028.976 -500.349)" fill="#fff"/>
            <path id="Trazado_517144" data-name="Trazado 517144" d="M1526.777,881.651l-8.633.882s.141,7.326-.007,8.169c0,0-14.761,4.092-20.931,5.2,0,0-2.809-1.592-3.945-2.1a27.555,27.555,0,0,0-4.867-1.147c-.675-.088-.445.652.135.91a5.616,5.616,0,0,1,2.507,1.832,4.688,4.688,0,0,1-1.863-.154c-.645-.287-1.533-.9-1.547-1.21s-.161-1.075-.372-1.035c-.054.01-.126.26-.2.521s-.141.5-.2.753c-.108.449-.233,1.105-.281,1.4a20.344,20.344,0,0,0,.359,3.188c.106,1.2.449,1.738,1.084,2.045a15.691,15.691,0,0,0,3.71.75c2.937.3,5.635-.542,6.813-.674s19.974-2,19.974-2,7.472-1.076,7.968-2.362.3-14.975.3-14.975" transform="translate(-1001.802 -594.154)" fill="#f7a491"/>
            <path id="Trazado_517145" data-name="Trazado 517145" d="M1571.375,792.446s2.724,1.292,5.12,6.872c2.276,5.3,2.944,31.765,2.944,31.765l-9.029-1.5-4.589-12.338a22.627,22.627,0,0,1,2.339-22.5c1.271-1.739,2.442-2.79,3.215-2.29" transform="translate(-1053.899 -533.954)" fill="#288340"/>
            <rect id="Rectángulo_292010" data-name="Rectángulo 292010" width="615.502" height="2.288" transform="translate(0 438.299)" fill="#35974d"/>
          </g>
        </g>
      </g>
    </g>
  </g>
</svg>
