<svg xmlns="http://www.w3.org/2000/svg" xmlns:xlink="http://www.w3.org/1999/xlink" width="1115.771" height="366.702" viewBox="0 0 1115.771 366.702"><defs><clipPath id="a"><rect width="58.043" height="42.242" fill="none"/></clipPath></defs><g transform="translate(-255 -2570)"><g transform="translate(495 2708.702)"><path d="M-7882.7-9088.009l-5.708-3.135h-92.715l-5.369,3.168,52.822,51.463Z" transform="translate(7986.502 9134.933)" fill="#5184ae"/><path d="M0,0H92.813V109.91H0Z" transform="translate(5.495)" fill="#2e4c64"/><path d="M-7881-9088.577v159.691l52.853-51.367,50.952,51.367v-159.691l-50.952,51.321Z" transform="translate(7881 9135.499)" fill="#93bee1"/><text transform="translate(15 123.246)" fill="#12263f" font-size="16" font-family="Roboto-Regular, Roboto"><tspan x="0" y="0">Especifico</tspan></text></g><g transform="translate(628 2708.562)"><path d="M-7882.7-9088.009l-5.708-3.135h-92.715l-5.369,3.168,52.822,51.463Z" transform="translate(7986.502 9135.073)" fill="#199391"/><rect width="92" height="109" transform="translate(5.718 0.439)" fill="#006462"/><path d="M-7881-9088.577v159.691l52.853-51.367,50.952,51.367v-159.691l-50.952,51.321Z" transform="translate(7881 9135.64)" fill="#28b8b5"/><text transform="translate(23.719 123.438)" fill="#12263f" font-size="16" font-family="Roboto-Regular, Roboto"><tspan x="0" y="0">Medible</tspan></text></g><g transform="translate(756 2708.702)"><path d="M-7882.7-9088.009l-5.708-3.135h-92.715l-5.369,3.168,52.822,51.463Z" transform="translate(7986.502 9134.933)" fill="#3d5313"/><path d="M0,0H92.813V109.91H0Z" transform="translate(5.495)" fill="#486218"/><path d="M-7881-9088.577v159.691l52.853-51.367,50.952,51.367v-159.691l-50.952,51.321Z" transform="translate(7881 9135.499)" fill="#7eac2a"/><text transform="translate(13.27 125.298)" fill="#12263f" font-size="16" font-family="Roboto-Regular, Roboto"><tspan x="0" y="0">Alcanzable</tspan></text></g><path d="M-7882.7-9088.009l-5.708-3.135h-92.715l-5.369,3.168,52.822,51.463Z" transform="translate(8861.502 11843.635)" fill="#b88b0c"/><path d="M0,0H92.813V109.91H0Z" transform="translate(880.496 2708.702)" fill="#b88b0c"/><path d="M-7881-9088.577v159.691l52.853-51.367,50.952,51.367v-159.691l-50.952,51.321Z" transform="translate(8756 11844.201)" fill="#f1bc27"/><text transform="translate(896.59 2832)" fill="#12263f" font-size="16" font-family="Roboto-Regular, Roboto"><tspan x="0" y="0">Realista </tspan></text><g transform="translate(0 111)"><text transform="translate(511 2583)" fill="#12263f" font-size="116" font-family="Roboto-Bold, Roboto" font-weight="700" letter-spacing="0.39em"><tspan x="0" y="0">S</tspan></text><text transform="translate(629 2583)" fill="#12263f" font-size="116" font-family="Roboto-Bold, Roboto" font-weight="700" letter-spacing="0.39em"><tspan x="0" y="0">M</tspan></text><text transform="translate(769 2583)" fill="#12263f" font-size="116" font-family="Roboto-Bold, Roboto" font-weight="700" letter-spacing="0.39em"><tspan x="0" y="0">A</tspan></text><text transform="translate(890 2583)" fill="#12263f" font-size="116" font-family="Roboto-Bold, Roboto" font-weight="700" letter-spacing="0.39em"><tspan x="0" y="0">R</tspan></text><text transform="translate(1017 2583)" fill="#12263f" font-size="116" font-family="Roboto-Bold, Roboto" font-weight="700" letter-spacing="0.39em"><tspan x="0" y="0">T</tspan></text></g><g transform="translate(1001 2708.702)"><path d="M-7882.7-9088.009l-5.708-3.135h-92.715l-5.369,3.168,52.822,51.463Z" transform="translate(7986.502 9134.933)" fill="#ad5a06"/><path d="M0,0H92.813V109.91H0Z" transform="translate(5.495)" fill="#c06408"/><path d="M-7881-9088.577v159.691l52.853-51.367,50.952,51.367v-159.691l-50.952,51.321Z" transform="translate(7881 9135.499)" fill="#f79d43"/><text transform="translate(24.804 125.298)" fill="#12263f" font-size="16" font-family="Roboto-Regular, Roboto"><tspan x="0" y="0">Tiempo</tspan></text></g><g transform="translate(531 2731)" fill="none" stroke="#fff" stroke-width="3"><circle cx="16" cy="16" r="16" stroke="none"/><circle cx="16" cy="16" r="14.5" fill="none"/></g><g transform="translate(540 2742)" fill="#fff" stroke="#fff" stroke-width="3"><ellipse cx="6.5" cy="6" rx="6.5" ry="6" stroke="none"/><ellipse cx="6.5" cy="6" rx="5" ry="4.5" fill="none"/></g><g transform="translate(665 2727.916)"><path d="M-7770.931-8903.781v27.521h30.757" transform="translate(7770.931 8903.781)" fill="none" stroke="#fff" stroke-width="2"/><g transform="translate(4.8 5.838)" fill="#fff" stroke="#fff" stroke-width="1"><rect width="3.664" height="17.097" stroke="none"/><rect x="0.5" y="0.5" width="2.664" height="16.097" fill="none"/></g><g transform="translate(10.906 11.944)" fill="#fff" stroke="#fff" stroke-width="1"><rect width="3.664" height="10.991" stroke="none"/><rect x="0.5" y="0.5" width="2.664" height="9.991" fill="none"/></g><g transform="translate(23.119 11.944)" fill="#fff" stroke="#fff" stroke-width="1"><rect width="3.664" height="10.991" stroke="none"/><rect x="0.5" y="0.5" width="2.664" height="9.991" fill="none"/></g><g transform="translate(17.012 5.838)" fill="#fff" stroke="#fff" stroke-width="1"><rect width="3.664" height="17.097" stroke="none"/><rect x="0.5" y="0.5" width="2.664" height="16.097" fill="none"/></g></g><g transform="translate(793 2727.915)"><path d="M-7770.931-8903.781v27.521h30.757" transform="translate(7770.931 8903.781)" fill="none" stroke="#fff" stroke-width="2"/><g transform="translate(3.62 3.854)"><path d="M607.034,2784.767l7.6-6.227,4.358,4.607,9.339-10.708" transform="translate(-607.034 -2767.397)" fill="none" stroke="#fff" stroke-width="2"/><g transform="matrix(0.719, 0.695, -0.695, 0.719, 22.25, 0)" fill="#fff"><path d="M 5.203974723815918 4.384879589080811 L 0.9021245837211609 4.384879589080811 L 3.053049564361572 0.9433995485305786 L 5.203974723815918 4.384879589080811 Z" stroke="none"/><path d="M 3.053049564361572 1.886799573898315 L 1.80424976348877 3.884879589080811 L 4.301849365234375 3.884879589080811 L 3.053049564361572 1.886799573898315 M 3.053049564361572 -4.76837158203125e-07 L 6.106099605560303 4.884879589080811 L -4.76837158203125e-07 4.884879589080811 L 3.053049564361572 -4.76837158203125e-07 Z" stroke="none" fill="#fff"/></g></g></g><g transform="translate(908.8 2723.811)"><g transform="translate(0.2 0.19)" fill="none" stroke="#fff" stroke-width="2"><ellipse cx="13" cy="14.5" rx="13" ry="14.5" stroke="none"/><ellipse cx="13" cy="14.5" rx="12" ry="13.5" fill="none"/></g><g transform="translate(10.2 0.19)" fill="none" stroke="#fff" stroke-width="2"><ellipse cx="13" cy="14.5" rx="13" ry="14.5" stroke="none"/><ellipse cx="13" cy="14.5" rx="12" ry="13.5" fill="none"/></g></g><g transform="translate(1037.9 2723.811)"><g transform="translate(0.1 0.19)" fill="none" stroke="#fff" stroke-width="2"><ellipse cx="15" cy="16" rx="15" ry="16" stroke="none"/><ellipse cx="15" cy="16" rx="14" ry="15" fill="none"/></g><path d="M-7511.4-8897.534v8.842h6.183" transform="translate(7524.891 8907.418)" fill="none" stroke="#fff" stroke-width="1.5"/></g><path d="M4,0H56a4,4,0,0,1,4,4V23a4,4,0,0,1-4,4H4a4,4,0,0,1-4-4V4A4,4,0,0,1,4,0Z" transform="translate(516 2570)" fill="#2e4c64"/><path d="M4,0H78a4,4,0,0,1,4,4V23a4,4,0,0,1-4,4H4a4,4,0,0,1-4-4V4A4,4,0,0,1,4,0Z" transform="translate(639 2570)" fill="#006462"/><path d="M4,0H78a4,4,0,0,1,4,4V23a4,4,0,0,1-4,4H4a4,4,0,0,1-4-4V4A4,4,0,0,1,4,0Z" transform="translate(767 2570)" fill="#486218"/><path d="M4,0H82a4,4,0,0,1,4,4V23a4,4,0,0,1-4,4H4a4,4,0,0,1-4-4V4A4,4,0,0,1,4,0Z" transform="translate(1010 2570)" fill="#c06408"/><path d="M4,0H94a4,4,0,0,1,4,4V23a4,4,0,0,1-4,4H4a4,4,0,0,1-4-4V4A4,4,0,0,1,4,0Z" transform="translate(879 2570)" fill="#b88b0c"/><text transform="translate(522 2590)" fill="#fff" font-size="18" font-family="Roboto-Regular, Roboto"><tspan x="0" y="0">¿Que?</tspan></text><text transform="translate(643 2590)" fill="#fff" font-size="18" font-family="Roboto-Regular, Roboto"><tspan x="0" y="0">¿Cuanto?</tspan></text><text transform="translate(775 2590)" fill="#fff" font-size="18" font-family="Roboto-Regular, Roboto"><tspan x="0" y="0">¿Como?</tspan></text><text transform="translate(886 2590)" fill="#fff" font-size="18" font-family="Roboto-Regular, Roboto" letter-spacing="-0.017em"><tspan x="0" y="0">¿Con que?</tspan></text><text transform="translate(1013 2590)" fill="#fff" font-size="18" font-family="Roboto-Regular, Roboto"><tspan x="0" y="0">¿Cuándo?</tspan></text><g transform="translate(255 2602.478)"><path d="M235.078,357.9c2.446,13.111,33.332,21.272,68.986,18.225s62.576-16.144,60.131-29.255-33.332-21.271-68.987-18.225-62.575,16.144-60.13,29.255" transform="translate(-197.763 -42.534)" fill="#b4c6d5"/><path d="M365.748,215.865s-.676,18.909-2.37,23.375-23.567,22.342-23.567,22.342l6.005-37.724Z" transform="translate(-211.365 -27.992)" fill="#f19c7c"/><path d="M365.557,229.154c.565-6.432.811-13.29.811-13.29l-19.932,7.994L344.582,235.5c7.03-1.971,14.01-4.131,20.975-6.35" transform="translate(-211.983 -27.992)" fill="#d86c5d"/><path d="M205.487,264.55s5.94,21.869,8.679,26.5,41.019,4.054,41.019,4.054L251.27,285.4l-16.294-9.42-3.66-22.318Z" transform="translate(-193.946 -32.894)" fill="#f19c7c"/><path d="M250.407,298.984c5.842.089,10.169.024,10.169.024l-3.915-9.711-9.6-5.548c1.085,5.085,2.218,10.159,3.341,15.235" transform="translate(-199.338 -36.796)" fill="#d86c5d"/><path d="M225.57,271.621q4.379.253,8.763.441l-3.017-18.4-25.83,10.893s.819,3.014,1.988,7.039a116.976,116.976,0,0,1,18.1.031" transform="translate(-193.946 -32.894)" fill="#d86c5d"/><path d="M294.884,344.235s-.06,22.239-5.635,21.883-6.75-23.93-6.75-23.93Z" transform="translate(-203.933 -44.374)" fill="#fff"/><path d="M294.093,355.774a100.3,100.3,0,0,0,.79-11.539L282.5,342.189a114.145,114.145,0,0,0,1.558,13.359,22.568,22.568,0,0,1,10.037.225" transform="translate(-203.933 -44.374)" fill="#352c38"/><path d="M293.3,355.225a.484.484,0,0,1-.229-.057,8.62,8.62,0,0,0-5.6-1.184,3.987,3.987,0,0,0-1.827.809.487.487,0,1,1-.672-.7,4.809,4.809,0,0,1,2.231-1.043,9.3,9.3,0,0,1,6.325,1.264.487.487,0,0,1-.23.916Z" transform="translate(-204.266 -45.796)" fill="#fff"/><path d="M293.392,352.705a.484.484,0,0,1-.229-.057,8.62,8.62,0,0,0-5.6-1.184,3.988,3.988,0,0,0-1.827.809.487.487,0,1,1-.672-.7,4.809,4.809,0,0,1,2.231-1.043,9.3,9.3,0,0,1,6.325,1.264.487.487,0,0,1-.23.916Z" transform="translate(-204.278 -45.47)" fill="#fff"/><path d="M293.473,350.538a.485.485,0,0,1-.229-.057,8.62,8.62,0,0,0-5.6-1.184,3.987,3.987,0,0,0-1.827.809.487.487,0,1,1-.672-.7,4.809,4.809,0,0,1,2.231-1.043,9.3,9.3,0,0,1,6.325,1.264.487.487,0,0,1-.23.916Z" transform="translate(-204.289 -45.188)" fill="#fff"/><path d="M316.182,346.845s10.879,19.4,15.575,16.372S326,339.028,326,339.028Z" transform="translate(-208.3 -43.964)" fill="#fff"/><path d="M322.3,355.808a100.381,100.381,0,0,1-6.308-9.695l-1.3-12.723L325.81,338.3a114.326,114.326,0,0,1,5.143,12.428,22.56,22.56,0,0,0-8.657,5.083" transform="translate(-208.106 -43.233)" fill="#352c38"/><path d="M323.153,355.874a.487.487,0,0,1-.409-.75,9.294,9.294,0,0,1,4.909-4.184,4.808,4.808,0,0,1,2.456-.175.487.487,0,0,1-.244.943h0a3.985,3.985,0,0,0-1.989.183,8.619,8.619,0,0,0-4.314,3.76A.487.487,0,0,1,323.153,355.874Z" transform="translate(-209.174 -45.508)" fill="#fff"/><path d="M321.843,353.717a.487.487,0,0,1-.409-.751,9.293,9.293,0,0,1,4.909-4.183,4.809,4.809,0,0,1,2.456-.175.487.487,0,0,1-.244.943h0a3.987,3.987,0,0,0-1.989.183,8.619,8.619,0,0,0-4.314,3.76A.487.487,0,0,1,321.843,353.717Z" transform="translate(-209.004 -45.228)" fill="#fff"/><path d="M320.718,351.864a.487.487,0,0,1-.409-.751,9.293,9.293,0,0,1,4.909-4.183,4.808,4.808,0,0,1,2.456-.175.487.487,0,0,1-.244.943h0a3.987,3.987,0,0,0-1.989.183,8.619,8.619,0,0,0-4.314,3.76A.486.486,0,0,1,320.718,351.864Z" transform="translate(-208.858 -44.988)" fill="#fff"/><path d="M301.763,264.81l9.6,65.527,15.482.58s11.2-43.288,14.017-68.256-39.1,2.15-39.1,2.15" transform="translate(-206.431 -32.691)" fill="#567d9b"/><path d="M246.391,256.957s1.241,34.094,29.912,72.42c0,0,7.758,5.325,14.984.561L288.8,288.861s32.534-8.457,44.793-26.623l1.229-32.781Z" transform="translate(-199.25 -29.755)" fill="#6f96bd"/><path d="M341.979,206.292l6.919,21.749,19.885-10s2.653-20.626-6.091-36.647-20.713,24.9-20.713,24.9" transform="translate(-211.646 -23.041)" fill="#1f1a21"/><path d="M237.071,165.939s-47,32.218-43.259,53.5A332.68,332.68,0,0,0,202.268,256l31.383,1.177.283-7.54s24,23.552,57.7,15,40.512-49.072,40.512-49.072,21.109-22.527,11.3-37.332-37.467-24.953-37.467-24.953Z" transform="translate(-192.404 -19.877)" fill="#352c38"/><path d="M263.626,181.852c12.218,4.264,26.862,5.763,39.3,1.489,11.526-3.961,19.887-12.093,26.594-21.758a130.542,130.542,0,0,0-17.533-8.305l-68.913,12.661s-1.2.822-3.189,2.285c7.364,5.5,15.086,10.609,23.742,13.629" transform="translate(-198.406 -19.877)" fill="#1f1a21"/><path d="M228.688,258.468c-6.929-4.986-14.129-9.582-21.016-14.626a160.364,160.364,0,0,1-13.1-10.54,327.363,327.363,0,0,0,7.824,33.076l31.383,1.176.211-5.607q-2.7-1.6-5.3-3.48" transform="translate(-192.53 -30.254)" fill="#1f1a21"/><path d="M272.024,63.516l15.948-3.492s34.255,59.233,22.755,86.7c-9.353,22.343-65.858,39.723-83.1-13.281-20.023-61.559,10.044-74.854,44.394-69.931" transform="translate(-195.983 -7.784)" fill="#f19c7c"/><path d="M283.171,55.885c-14.874-7.508-32.627-16.513-43.644-30.1-6.869,3.033-14.39,6.057-20.847,10.533-10.735,7.44-11.113,16.005-9.99,21.221-5.182,1.5-13.163,5.353-15.908,15.071-4.192,14.838,16.683,51.973,16.683,51.973-2.467-6.909,1.265-9.5,5.823-9.877,1.658-.139,4.833,5.835,8.584,14.306a77.628,77.628,0,0,1,8.738-4.875c-4.477-11.326-7.791-21.244-7.791-21.244,17.652-10.245,4.3-29.83,4.3-29.83,17.158,2.915,38.656-.823,58.677-13.664.383-.246.73-.5,1.088-.752-1.911-.889-3.817-1.8-5.712-2.756" transform="translate(-192.226 -3.344)" fill="#965450"/><path d="M215.289,116.076c1.658-.139,4.833,5.835,8.584,14.306a77.641,77.641,0,0,1,8.738-4.875c-4.477-11.326-7.791-21.244-7.791-21.244,17.652-10.245,4.3-29.83,4.3-29.83a70.119,70.119,0,0,0,16.048.782,52.241,52.241,0,0,1-16.027-8.745c-7.828-6.393-10.723-16.791-9.109-26.527.181-1.092.388-2.3.631-3.557-.668.422-1.332.852-1.981,1.3-10.735,7.44-11.113,16.005-9.99,21.221-5.182,1.5-13.163,5.353-15.908,15.071-4.192,14.838,16.683,51.974,16.683,51.974-2.467-6.909,1.265-9.5,5.823-9.878" transform="translate(-192.226 -4.718)" fill="#76413b"/><path d="M251.684,70.5s52.392,2.335,55.726-38.134S268.789-8.769,270.8,20.085s24.887.326,10.415-9.607-24.689-4.059-24.4,12.363,12.357-7.058-2.957-10.359-13.588,15.323-4.071,20.032,1.9,37.982,1.9,37.982" transform="translate(-198.744 0)" fill="#965450"/><path d="M269.29,97.864l-.425-.059c-.268-.05-.678-.084-1.169-.171-1-.143-2.394-.341-4-.534-.8-.095-1.664-.185-2.554-.24-.89-.079-1.81-.08-2.733-.087a23.806,23.806,0,0,0-2.735.222,12.907,12.907,0,0,0-2.545.663,9.953,9.953,0,0,0-2.251,1.152,12.827,12.827,0,0,0-1.962,1.641c-.311.3-.561.662-.869.97-.284.332-.517.7-.791,1.031s-.47.715-.716,1.054l-.351.514-.3.525-.6.993-.509.938c-.333.591-.649,1.116-.866,1.566s-.445.795-.576,1.037l-.225.37s-.029-.145-.084-.419c-.039-.272-.129-.679-.178-1.192a11.967,11.967,0,0,1-.112-1.872c0-.364.006-.749.018-1.161.048-.409.1-.839.149-1.287a9.622,9.622,0,0,1,.264-1.4,14.8,14.8,0,0,1,.42-1.494c.19-.506.386-1.028.627-1.554.267-.518.544-1.046.876-1.566a12.434,12.434,0,0,1,1.154-1.514l.672-.725c.231-.239.507-.438.762-.658a12.179,12.179,0,0,1,3.552-2.051,13.839,13.839,0,0,1,3.927-.81,13.412,13.412,0,0,1,1.9.017,14.579,14.579,0,0,1,1.8.217,18.05,18.05,0,0,1,3.21.9,18.946,18.946,0,0,1,2.637,1.244,19.17,19.17,0,0,1,2.037,1.334,17.126,17.126,0,0,1,1.433,1.209,11.251,11.251,0,0,1,.844.866c.186.209.275.332.275.332" transform="translate(-198.775 -11.894)" fill="#76413b"/><path d="M281.785,95.149a3.849,3.849,0,0,1-.113-.378,9.236,9.236,0,0,1-.217-1.084,13.587,13.587,0,0,1-.005-3.949,12.367,12.367,0,0,1,2.177-5.507,9.87,9.87,0,0,1,2.755-2.541,9.328,9.328,0,0,1,3.788-1.312,11.212,11.212,0,0,1,3.789.217c.582.132,1.132.319,1.679.5.515.218,1.023.429,1.507.664a17.629,17.629,0,0,1,2.537,1.6,18.42,18.42,0,0,1,1.975,1.715,20.909,20.909,0,0,1,1.454,1.634,14.033,14.033,0,0,1,.982,1.376c.265.383.44.72.572.933l.186.344-.383-.1c-.239-.077-.609-.163-1.037-.319l-1.55-.526c-.6-.19-1.231-.456-1.934-.688s-1.431-.532-2.208-.756c-.763-.279-1.565-.48-2.36-.721-.4-.075-.8-.178-1.2-.279-.4-.044-.791-.125-1.176-.184a9.117,9.117,0,0,0-2.171-.009,5.745,5.745,0,0,0-1.872.511,8.24,8.24,0,0,0-1.712,1.113,17.406,17.406,0,0,0-2.844,3.4c-.784,1.188-1.427,2.285-1.889,3.07-.211.4-.42.709-.534.929l-.2.339" transform="translate(-203.778 -10.413)" fill="#76413b"/><path d="M281.243,99.079q1.379,1.435,2.659,2.936c.868.992,1.694,2.012,2.527,3.029s1.621,2.062,2.433,3.092l2.35,3.15q1.162,1.582,2.285,3.194c.755,1.07,1.486,2.155,2.222,3.238s1.449,2.18,2.144,3.291,1.419,2.2,2.083,3.333l.65,1.105-1.037.462c-.825.368-1.643.749-2.473,1.107l-2.5,1.057c-1.687.668-3.366,1.348-5.107,1.912,1.452-1.114,2.965-2.111,4.473-3.119l2.289-1.459c.767-.48,1.545-.938,2.316-1.409l-.387,1.567c-.819-1.024-1.584-2.087-2.37-3.136s-1.548-2.111-2.309-3.178-1.5-2.144-2.232-3.231-1.459-2.174-2.168-3.275l-2.1-3.319c-.672-1.126-1.365-2.238-2.02-3.376s-1.311-2.277-1.928-3.441-1.229-2.332-1.794-3.532" transform="translate(-203.77 -12.848)" fill="#d86c5d"/><path d="M254.1,119.955l-.1-.285a6.757,6.757,0,0,1-.252-.817,8.77,8.77,0,0,1-.247-1.321,9.1,9.1,0,0,1-.06-1.764,8.217,8.217,0,0,1,.365-2.1,7.266,7.266,0,0,1,3-4.064l.6-.34.076-.042.019-.01.01-.005.059-.028.036-.015.142-.06.285-.12.576-.238.7-.2a7.763,7.763,0,0,1,1.4-.209,7.872,7.872,0,0,1,1.4.083,6.954,6.954,0,0,1,2.52.932,8.265,8.265,0,0,1,1.852,1.575,9.185,9.185,0,0,1,1.236,1.717,9.933,9.933,0,0,1,.755,1.586,10.263,10.263,0,0,1,.414,1.272c.105.353.136.648.179.838s.056.3.056.3l-.568-.995c-.191-.307-.412-.682-.7-1.089a15.565,15.565,0,0,0-.995-1.311,12.05,12.05,0,0,0-1.332-1.349,9.18,9.18,0,0,0-1.681-1.144,6.369,6.369,0,0,0-1.984-.592,6.053,6.053,0,0,0-1.052-.036,6.338,6.338,0,0,0-1.04.181l-.5.115-.573.221-.288.112-.143.057-.036.014c.1-.043.023-.01.043-.018l-.008,0-.015.008-.058.031-.473.25a6.538,6.538,0,0,0-1.587,1.339,8.408,8.408,0,0,0-1.668,3.483,13.3,13.3,0,0,0-.277,1.612c-.048.489-.084.928-.087,1.283s-.015.649-.008.845l0,.3" transform="translate(-200.161 -14.048)" fill="#1f1a21"/><path d="M291.85,107.689s-.044-.09-.126-.259a6.41,6.41,0,0,1-.332-.748,8.452,8.452,0,0,1-.384-1.227,8.652,8.652,0,0,1-.255-1.669,7.85,7.85,0,0,1,.11-2.037,6.79,6.79,0,0,1,.764-2.216,6.868,6.868,0,0,1,1.627-1.983l.534-.391.068-.049a.525.525,0,0,1,.078-.05l.032-.018.128-.073.257-.145.52-.292.644-.268a6.544,6.544,0,0,1,2.647-.435,6.669,6.669,0,0,1,2.5.6,7.875,7.875,0,0,1,1.936,1.287,8.8,8.8,0,0,1,1.367,1.493,11.174,11.174,0,0,1,1.433,2.582c.138.325.2.6.264.776s.086.274.086.274l-.652-.881c-.216-.271-.467-.6-.784-.956a14.9,14.9,0,0,0-1.092-1.133,11.445,11.445,0,0,0-1.418-1.131,8.8,8.8,0,0,0-1.725-.9,6.111,6.111,0,0,0-1.952-.339,5.834,5.834,0,0,0-1,.084,6.141,6.141,0,0,0-.968.289l-.46.165-.52.274-.26.139-.13.07-.033.017c.082-.047.008,0,.019-.008l-.052.037-.42.291a6.228,6.228,0,0,0-1.358,1.45,8.059,8.059,0,0,0-1.192,3.5,12.75,12.75,0,0,0-.081,1.562c.009.47.023.89.061,1.228s.06.619.088.8.037.285.037.285" transform="translate(-205 -12.426)" fill="#1f1a21"/><path d="M263.463,146.392s.674.235,1.849.6,2.862.847,4.886,1.328c1.015.232,2.115.461,3.277.676s2.4.376,3.667.525,2.589.2,3.919.241a35.446,35.446,0,0,0,4.016-.162,30.157,30.157,0,0,0,3.947-.619c.642-.144,1.266-.336,1.9-.483.61-.207,1.224-.391,1.812-.61.579-.244,1.158-.467,1.712-.713.545-.265,1.1-.5,1.608-.775l1.48-.834,1.346-.862c.447-.262.809-.6,1.2-.863.378-.282.762-.525,1.074-.809.632-.556,1.247-.992,1.687-1.419.9-.836,1.446-1.3,1.446-1.3s-.355.61-1.037,1.662c-.334.533-.819,1.116-1.362,1.807a23.458,23.458,0,0,1-2.027,2.151l-1.272,1.132-1.474,1.083c-.516.359-1.078.681-1.641,1.036s-1.193.611-1.807.929c-.628.285-1.286.534-1.945.807-.675.219-1.356.466-2.06.641a26.55,26.55,0,0,1-4.325.765,29.852,29.852,0,0,1-4.369.087,33.487,33.487,0,0,1-4.173-.513,31.113,31.113,0,0,1-3.795-.923,32.557,32.557,0,0,1-3.28-1.166,32.9,32.9,0,0,1-4.629-2.324,17.805,17.805,0,0,1-1.626-1.095" transform="translate(-201.464 -18.196)" fill="#d86c5d"/><path d="M228.594,147.975s-7.523-25.3-15.714-22.557c-6.315,2.113-5.961,39.844,22.279,30Z" transform="translate(-194.474 -16.237)" fill="#f19c7c"/><path d="M224.389,154.587a7.294,7.294,0,0,1-2.269-.6,3.306,3.306,0,0,1-1.065-.724,1.954,1.954,0,0,1-.4-.642,1.728,1.728,0,0,1-.1-.83,2.3,2.3,0,0,1,.243-.755,3.423,3.423,0,0,1,.4-.6,6.587,6.587,0,0,1,.943-.891,10.3,10.3,0,0,1,1.007-.712c.339-.229.695-.4,1.044-.6l-.519,1.249-1.686-3.62c-.557-1.209-1.156-2.4-1.727-3.589s-1.173-2.365-1.8-3.507a25.9,25.9,0,0,0-1.995-3.213,4.18,4.18,0,0,0-.97-1c-.058-.046-.03-.011-.005-.042a.11.11,0,0,0,.091-.016l.01-.007,0,0,0,0c.056-.023-.122.05.125-.053l-.057.024-.116.051a1.051,1.051,0,0,0-.1.046.059.059,0,0,0,.033,0c.018,0,.036-.05.005-.008a.692.692,0,0,0-.144.172,4.351,4.351,0,0,0-.514,1.478,14.61,14.61,0,0,0-.212,1.869c-.1,1.29-.068,2.618-.052,3.953l.149,4.042a29.048,29.048,0,0,1-1.232-3.9,27.258,27.258,0,0,1-.711-4.074,14.865,14.865,0,0,1-.028-2.153,5.957,5.957,0,0,1,.571-2.374,3.067,3.067,0,0,1,.445-.641,2.123,2.123,0,0,1,.377-.345c.075-.057.152-.11.23-.162l.125-.069.111-.059.056-.03c.252-.107.08-.033.14-.058l.018-.005.036-.01.071-.019a3.292,3.292,0,0,1,.588-.093,2.677,2.677,0,0,1,.963.2,5.662,5.662,0,0,1,2.029,1.63,22.264,22.264,0,0,1,2.352,3.561c.342.6.644,1.22.95,1.835s.591,1.235.867,1.858c.563,1.242,1.048,2.513,1.533,3.781s.9,2.554,1.317,3.86l.292.926-.811.323a18.2,18.2,0,0,0-1.95.856,3.039,3.039,0,0,0-1.317,1.126.572.572,0,0,0-.046.3.9.9,0,0,0,.123.358,2.991,2.991,0,0,0,.666.738,9.841,9.841,0,0,0,1.915,1.17" transform="translate(-194.883 -17.126)" fill="#d86c5d"/></g><g transform="translate(1201.315 2600.635)"><path d="M169.088,407.189c-4.653,15.4-42.75,21.125-85.094,12.793S11.1,392.415,15.75,377.017s42.75-21.125,85.094-12.792,72.9,27.567,68.244,42.964" transform="translate(-15.282 -87.741)" fill="#b4c6d5"/><path d="M59.013,386.46s7.019,30.431,14.571,29.272c5.577-.857.451-31.616.451-31.616Z" transform="translate(34.642 -87.895)" fill="#dd744b"/><path d="M129.44,365.578s-29.235,40.075,10.246,6.523Z" transform="translate(-88.479 -87.775)" fill="#dd744b"/><path d="M58.59,261.186s4.479,65.7,19.822,104.848c0,0,3.807,6.78,12.74,4.858l11.334-40.765,8.413,4.609,20.095,54.8s7.229,1.949,18.026-2.814l1.27-87.173Z" transform="translate(-39.042 -87.097)" fill="#352c38"/><path d="M139.966,329.557c-11.024-5.788-21.554-12.616-30.19-21.677-.861-.9-1.7-1.828-2.524-2.757,3.085,20.107,7.815,43.4,14.791,61.2,0,0,3.806,6.78,12.74,4.858l10.789-38.811c-1.885-.91-3.758-1.84-5.607-2.811" transform="translate(-82.673 -87.382)" fill="#1f1a21"/><path d="M87.631,194.726s27.062,6.351,22.009,29.335-77.8,33.762-98.978,7.625,55.319-44.177,76.969-36.96" transform="translate(52.238 -86.655)" fill="#fddec0"/><path d="M29.988,194.736s1.631.468,4.353,1.585a51.971,51.971,0,0,1,10.584,5.758,30.834,30.834,0,0,1,5.767,5.348,19.268,19.268,0,0,1,4.117,16.529,12.751,12.751,0,0,1-1.457,4.239,17.735,17.735,0,0,1-2.786,3.683,33.857,33.857,0,0,1-7.635,5.758,67.221,67.221,0,0,1-8.592,4.059c-2.9,1.116-5.76,2.061-8.511,2.855-2.756.776-5.4,1.417-7.849,1.954-4.912,1.041-9.075,1.658-12,2.032s-4.613.531-4.613.531l1.214.057c.793.023,1.958.083,3.441.071a93.263,93.263,0,0,0,12.281-.822c2.533-.329,5.269-.789,8.132-1.442A75.511,75.511,0,0,0,35.34,244.4a57.641,57.641,0,0,0,9.134-4.024,35.239,35.239,0,0,0,8.427-6.266,20.94,20.94,0,0,0,3.238-4.4,16.018,16.018,0,0,0,1.74-5.214,22.8,22.8,0,0,0-.56-10.319,21.538,21.538,0,0,0-4.835-8.306,29.692,29.692,0,0,0-6.554-5.308,40.77,40.77,0,0,0-6.291-3.126,47.367,47.367,0,0,0-5.095-1.713c-1.432-.4-2.578-.63-3.356-.785s-1.2-.209-1.2-.209" transform="translate(109.881 -86.665)" fill="#fddec0"/><path d="M91.809,256.528s-5.349,40.906-14.97,53.589c-14.853,19.578-60.914,0-60.914,0Z" transform="translate(61.826 -87.066)" fill="#ffac9d"/><g transform="translate(95.592 169.461)" opacity="0.5"><g clip-path="url(#a)"><path d="M15.925,297.517l58.043-40.99s-3.292,25.17-9.356,42.144c-16.254.164-32.529.3-48.688-1.154" transform="translate(-15.925 -256.528)" fill="#d66363"/></g></g><path d="M60.776,185.7s-28.487,5.127-31.783,18.923c-3.4,14.244,1.461,88.7,24.75,99.664,0,0,42.308,33.242,73.113,23.325,0,0,11.424-40.266,30.13-73.154,0,0-7.341-23.033-37.248-35.733S60.776,185.7,60.776,185.7" transform="translate(-15.364 -86.607)" fill="#6f96bd"/><path d="M88.79,294.8c-19.264-3.938-34.016-11.342-46.312-27.173,3.172,17.154,1.235,26.589,18.555,39.982,0,0,43.819,30.448,74.624,20.532a412.754,412.754,0,0,1,15.763-43.752A88.9,88.9,0,0,1,88.79,294.8" transform="translate(-24.165 -87.139)" fill="#567d9b"/><path d="M102.029,204.594s49.793,42.051,42.216,59.371-49.793,46.17-95.009,32.811c-40.855-12.069-37.351-31.392-38.321-59.537-3.247-94.175,91.114-32.645,91.114-32.645" transform="translate(13.664 -86.601)" fill="#6f96bd"/><path d="M36.865,185.789c32.05-3.583,73.84,18.809,73.84,18.809s7.616,6.674,17.138,16.068C113.57,231.009,84.908,248.344,64.6,238.155c-22.5-11.291-26.882-41.044-27.736-52.366" transform="translate(4.988 -86.605)" fill="#567d9b"/><path d="M9.825,291.384s21.313,2.857,32.948,0c0,0,12.38-26.651,1.751-41.978s-34.7,41.978-34.7,41.978" transform="translate(110.862 -87.003)" fill="#6f96bd"/><path d="M142.343,119.529S114.381,67.57,67.293,95.714,35.361,179.631,61.88,184.76s80.463-65.232,80.463-65.232" transform="translate(-9.512 -85.967)" fill="#fddec0"/><path d="M149.451,121.3s-.365-.742-1.135-2.09-1.933-3.309-3.613-5.677a85.836,85.836,0,0,0-6.546-8.186,66.57,66.57,0,0,0-10.1-9.184,52.985,52.985,0,0,0-14.345-7.659,46.337,46.337,0,0,0-18.1-2.438,55.37,55.37,0,0,0-18.88,4.961l-2.273,1.044c-.755.356-1.469.789-2.208,1.181l-2.2,1.208-.551.3c-.268.157-.373.234-.567.355l-1.04.664a77.476,77.476,0,0,0-8.209,5.845A66.442,66.442,0,0,0,46.21,116.574a57.126,57.126,0,0,0-9.139,36.05A53.994,53.994,0,0,0,40.9,168.433a42.942,42.942,0,0,0,7.08,11.739A31.976,31.976,0,0,0,56,187l.91.553.908.436c.591.274,1.135.547,1.657.762,1.079.353,1.972.708,2.727.894l2.326.5-2.274-.673c-.733-.238-1.594-.659-2.622-1.08-.5-.247-1.011-.562-1.571-.866l-.863-.474-.861-.591a31.08,31.08,0,0,1-7.419-7.054,44.687,44.687,0,0,1-6.282-11.657,55,55,0,0,1-3.147-15.3,56.923,56.923,0,0,1,1.751-17.278,55.679,55.679,0,0,1,7.594-16.881,63.462,63.462,0,0,1,12.908-14.155,73.579,73.579,0,0,1,7.873-5.67L70.65,97.8c.154-.1.387-.255.475-.3l.528-.293,2.1-1.17c.705-.38,1.39-.8,2.109-1.146l2.163-1.007a54.257,54.257,0,0,1,17.8-4.967A45.5,45.5,0,0,1,112.953,90.8c1.326.392,2.592.917,3.858,1.377,1.222.57,2.467,1.045,3.622,1.663,1.163.6,2.319,1.173,3.394,1.847l1.616.967,1.538,1.026a73.306,73.306,0,0,1,10.309,8.5,84.992,84.992,0,0,1,6.91,7.73c1.776,2.267,3.109,4.106,3.968,5.393s1.284,2,1.284,2" transform="translate(-16.62 -85.959)" fill="#fddec0"/><path d="M108.218,122.952S57.424,93.063,38.686,145.625s7.921,90.726,46.054,73.906,62.478-62.666,23.478-96.58" transform="translate(9.099 -86.144)" fill="#ffac9d"/><path d="M73,107.126S34.274,73.87,8.175,114.853s16.658,57.762,39.39,56.679l-6.664-13.5,12.076,13.547S45.4,182.9,49.73,193.724c0,0,4.1-24.536,18.221-18.583s3.969,26.16-10.1,22.912l5.052,1.263s34.451-.668,34.639-44.02C97.666,126.069,73,107.126,73,107.126" transform="translate(71.917 -86.013)" fill="#fddec0"/><path d="M99.217,175.476s-1.841-.056-5.014-.49a63.106,63.106,0,0,1-12.809-3.147,49.585,49.585,0,0,1-7.926-3.686,36.591,36.591,0,0,1-7.634-5.907,32.01,32.01,0,0,1-5.9-8.359,35.389,35.389,0,0,1-3.123-10.116l-.2-1.326-.1-.628-.057-.685c-.066-.909-.173-1.837-.2-2.726q-.015-1.32-.029-2.634.077-1.325.155-2.641a31.8,31.8,0,0,1,2.534-9.915,31.1,31.1,0,0,1,5.222-8.047,36.342,36.342,0,0,1,6.561-5.7,49.26,49.26,0,0,1,11.775-5.847,42.139,42.139,0,0,1,4.838-1.394s-.457.049-1.307.193-2.1.374-3.653.8a50.88,50.88,0,0,0-5.533,1.827,42.335,42.335,0,0,0-6.8,3.381,34.878,34.878,0,0,0-7.067,5.639,31,31,0,0,0-5.773,8.359,32.239,32.239,0,0,0-2.88,10.5q-.091,1.389-.184,2.788.007,1.414.014,2.836c.028.936.126,1.831.187,2.751l.052.686.1.733.2,1.4a37.528,37.528,0,0,0,3.388,10.7,32.614,32.614,0,0,0,6.429,8.78,35.842,35.842,0,0,0,8.185,5.962A45.759,45.759,0,0,0,81,173.011a53,53,0,0,0,7.378,1.72c2.222.362,4.174.563,5.782.672s2.875.113,3.737.11,1.32-.037,1.32-.037" transform="translate(16.476 -86.064)" fill="#fddec0"/><path d="M21.8,194.24s4.343-23.845,18.679-19.951S48.5,205.966,21.8,198.569Z" transform="translate(99.851 -86.529)" fill="#ffac9d"/><path d="M26.959,196.151a14.9,14.9,0,0,0,2.818.043,8.716,8.716,0,0,0,1.432-.234,3.653,3.653,0,0,0,1.447-.67,1.723,1.723,0,0,0,.6-1.845,2.9,2.9,0,0,0-.356-.822,5.168,5.168,0,0,0-.472-.658,14.139,14.139,0,0,0-2.224-1.952l.389.828c.105-.568.23-1.188.37-1.778s.3-1.185.486-1.765a22.1,22.1,0,0,1,1.326-3.343,9.931,9.931,0,0,1,2-2.717,4.505,4.505,0,0,1,2.779-1.2,1.835,1.835,0,0,1,.391-.012l.2,0,.1,0H38.3l-.092-.016h.007l.03.006.935.172a2.366,2.366,0,0,1,.724.253l.327.127.312.219a2.325,2.325,0,0,1,.6.486,3.188,3.188,0,0,1,.512.612,7.164,7.164,0,0,1,.751,1.51l.253.848.171.887c.081.6.166,1.213.188,1.834a26.052,26.052,0,0,1-.105,3.777A16.211,16.211,0,0,0,43.843,187a14.458,14.458,0,0,0,.122-1.963l-.055-1-.157-1.007a7.3,7.3,0,0,0-.726-1.977,4.72,4.72,0,0,0-.616-.908,3.856,3.856,0,0,0-.795-.788c-.147-.119-.289-.244-.443-.358l-.537-.266a4.745,4.745,0,0,0-1.045-.415l-.923-.227-.029-.007-.131-.022-.069-.006-.138-.013-.275-.024a3.242,3.242,0,0,0-.556-.016,6.347,6.347,0,0,0-4.107,1.626A10.381,10.381,0,0,0,30.876,183a18.71,18.71,0,0,0-1.361,3.757q-.241.958-.411,1.926a18.832,18.832,0,0,0-.257,1.97l-.04.57.429.257a12.7,12.7,0,0,1,2.108,1.5,4.236,4.236,0,0,1,.4.42,1.685,1.685,0,0,1,.264.412.617.617,0,0,1,.066.328.647.647,0,0,1-.177.336,2.92,2.92,0,0,1-.975.648,9.84,9.84,0,0,1-1.259.443,23.182,23.182,0,0,1-2.7.581" transform="translate(98.707 -86.557)" fill="#d66363"/><path d="M115.782,163.251c-.037,1.147-.136,2.281-.243,3.406s-.261,2.238-.456,3.337-.414,2.187-.717,3.246a23.2,23.2,0,0,1-1.053,3.095c-.207.5-.446.982-.683,1.46s-.513.934-.795,1.383a16.179,16.179,0,0,1-1.992,2.427,11.507,11.507,0,0,1-1.2,1,14.177,14.177,0,0,1-1.314.848,10.93,10.93,0,0,1-1.42.686c-.477.233-1,.341-1.5.531l-2.038.775,1.81.891c3.15,1.55,6.328,3.052,9.639,4.312-2.824-2.14-5.78-4.04-8.764-5.889l-.228,1.665a15.777,15.777,0,0,0,1.753-.48,12.835,12.835,0,0,0,1.7-.691,10.92,10.92,0,0,0,1.587-.942,13.446,13.446,0,0,0,1.442-1.157,13.006,13.006,0,0,0,1.261-1.345,15.7,15.7,0,0,0,1.06-1.493,16.374,16.374,0,0,0,1.558-3.257,20.487,20.487,0,0,0,.9-3.437,25.9,25.9,0,0,0,.36-3.489,26.816,26.816,0,0,0-.1-3.474,21.3,21.3,0,0,0-.566-3.409" transform="translate(-48.714 -86.461)" fill="#d66363"/><path d="M114.059,201.128s-.586.169-1.618.4c-.509.133-1.146.234-1.854.4-.722.121-1.525.289-2.41.419s-1.839.268-2.852.369c-1.007.143-2.082.151-3.18.246-1.1.045-2.242.032-3.393.021a31.74,31.74,0,0,1-3.474-.276L93.54,202.5c-.571-.1-1.132-.24-1.694-.357-.555-.139-1.126-.212-1.664-.372l-1.593-.488a23.534,23.534,0,0,1-2.966-1.093l-1.364-.56-1.218-.648c-.77-.435-1.534-.761-2.147-1.15l-1.582-1.034c-.892-.566-1.423-.881-1.423-.881s.4.446,1.147,1.213c.374.38.828.85,1.367,1.371a24.4,24.4,0,0,0,1.987,1.542l1.168.856c.429.255.891.488,1.357.745l1.448.779a11.943,11.943,0,0,0,1.585.656l1.666.628a16.216,16.216,0,0,0,1.757.472c.6.138,1.2.3,1.805.418l1.847.257a33.911,33.911,0,0,0,3.7.216,16.556,16.556,0,0,0,1.81-.073c.6-.05,1.187-.054,1.76-.141a30.925,30.925,0,0,0,3.287-.552c.515-.12,1.021-.208,1.5-.345l1.378-.409c.883-.25,1.666-.575,2.363-.834.689-.289,1.286-.54,1.762-.786.483-.226.848-.438,1.1-.578l.378-.221" transform="translate(-21.986 -86.673)" fill="#d66363"/><path d="M111.406,166.5c-.429,3.832.507,7.082,2.09,7.26s3.217-2.785,3.647-6.616-.507-7.083-2.091-7.261-3.216,2.785-3.646,6.617" transform="translate(-58.371 -86.438)" fill="#1f1a21"/><path d="M70.151,173.492c-.429,3.832.507,7.082,2.091,7.26s3.216-2.785,3.646-6.616-.507-7.083-2.091-7.261-3.216,2.785-3.646,6.617" transform="translate(23.872 -86.484)" fill="#1f1a21"/><path d="M124.45,157.967a9.8,9.8,0,0,0-.109-1.26,17.719,17.719,0,0,0-.763-3.236,17.334,17.334,0,0,0-2.071-4.314,13.329,13.329,0,0,0-1.8-2.178,10.326,10.326,0,0,0-2.536-1.783,7.764,7.764,0,0,0-3.2-.719,6.6,6.6,0,0,0-1.6.2,7.153,7.153,0,0,0-1.445.484,11.913,11.913,0,0,0-1.244.68c-.371.259-.713.529-1.045.791a12.2,12.2,0,0,0-1.591,1.68c-.217.279-.439.53-.616.794l-.477.765a8.894,8.894,0,0,0-.7,1.274c-.348.726-.509,1.155-.509,1.155s.391-.262,1.009-.747c.3-.25.687-.531,1.118-.847s.91-.674,1.44-1.026c.517-.378,1.121-.688,1.716-1.037l.94-.448c.329-.1.643-.261.975-.338a6.184,6.184,0,0,1,1.955-.229,5.62,5.62,0,0,1,1.892.508,9.376,9.376,0,0,1,1.812,1.181,18.255,18.255,0,0,1,1.638,1.6,41.933,41.933,0,0,1,2.684,3.391l2.531,3.663" transform="translate(-59.053 -86.339)" fill="#1f1a21"/><path d="M61.876,161.627l1.323-.718c.835-.453,2.028-1.076,3.447-1.775a47.387,47.387,0,0,1,4.9-2.063,25.881,25.881,0,0,1,2.78-.809,18.8,18.8,0,0,1,2.867-.433,13.292,13.292,0,0,1,2.807.117c.463.039.892.195,1.34.271.427.141.858.269,1.271.432a13.267,13.267,0,0,1,2.3,1.215,21.746,21.746,0,0,1,1.947,1.46c.533.549,1.109,1,1.526,1.487s.856.868,1.143,1.241c.609.72,1,1.129,1,1.129s-.134-.532-.442-1.454a12.118,12.118,0,0,0-.678-1.621,14.846,14.846,0,0,0-1.147-2.01,14.658,14.658,0,0,0-1.814-2.136,12.429,12.429,0,0,0-2.588-1.908,11.679,11.679,0,0,0-3.286-1.2,13.568,13.568,0,0,0-3.585-.259,16.968,16.968,0,0,0-3.456.63,18.4,18.4,0,0,0-3.1,1.205,22.509,22.509,0,0,0-2.648,1.52,24.368,24.368,0,0,0-2.153,1.635,22.126,22.126,0,0,0-2.839,2.832,12.248,12.248,0,0,0-.915,1.215" transform="translate(17.461 -86.391)" fill="#1f1a21"/></g></g></svg>