<svg xmlns="http://www.w3.org/2000/svg" xmlns:xlink="http://www.w3.org/1999/xlink" width="403.148" height="280.375" viewBox="0 0 403.148 280.375"><defs><clipPath id="a"><rect width="326.516" height="245.88" fill="#b3b0d1"/></clipPath><clipPath id="c"><rect width="34.269" height="33.411" fill="#b3b0d1"/></clipPath><clipPath id="d"><rect width="18.754" height="18.285" fill="#b3b0d1"/></clipPath><clipPath id="e"><rect width="18.753" height="18.285" fill="#b3b0d1"/></clipPath><clipPath id="g"><rect width="34.269" height="33.413" fill="#b3b0d1"/></clipPath><clipPath id="h"><rect width="110.731" height="107.963" fill="#b3b0d1"/></clipPath><clipPath id="i"><rect width="152.92" height="149.098" fill="#b3b0d1"/></clipPath><clipPath id="j"><rect width="87.065" height="84.888" fill="#b3b0d1"/></clipPath><clipPath id="k"><rect width="81.952" height="79.902" fill="#b3b0d1"/></clipPath><clipPath id="l"><rect width="50.614" height="49.348" fill="#b3b0d1"/></clipPath><clipPath id="m"><rect width="403.148" height="280.375" fill="none"/></clipPath><clipPath id="n"><path d="M255.4,1382.239c-11.447,2.949,3.432,14.609,1.938,19.325s-7.547,3.381-8.027,9.362,9.555,6.536,8.309,11.96-6.945,4.706-6.514,9.271c.806,8.549,15.421,7.4,15.485,11.662s-6.328,1.374-7.878,8.164c-1.235,5.41,15.951,15.927,23.866,15.761s19.661-9.319,19.558-16.13c-.111-7.33-11.222-5.757-12.948-10.235s8.317-9.356,5.345-15.418c-2.588-5.279-7.553-3.76-11.35-7.165s7.105-12.895-.21-18.266a6.848,6.848,0,0,0-5.021-1.226,9.368,9.368,0,0,1-6.006-1.361c-4.413-2.677-3.373-16.186-13.082-16.187a13.924,13.924,0,0,0-3.466.484" transform="translate(-249.293 -1381.755)" fill="#6ca179"/></clipPath><clipPath id="o"><rect width="403.148" height="280.376" fill="none"/></clipPath><clipPath id="p"><path d="M5.035,1722.487c-2.582.042-5.035.445-5.035,2.477v0a3.372,3.372,0,0,0,.135.9c4.443,15.943,9.351,31.564,12.821,34.462,3.974,3.318,13.825,5.222,13.825,5.222l-8.993,5,36.738,33.486,24.577-.327c-2.257-28.158-8.715-50.213-30.677-65.8-.57-.4-2.479.417-4.388,1.238s-3.794,1.631-4.378,1.246c-1.172-.773.314-8.213-.894-8.953a63.249,63.249,0,0,0-32.7-8.961q-.517,0-1.028.008" transform="translate(0 -1722.479)" fill="#6ca179"/></clipPath><clipPath id="r"><path d="M2908.252,1409.384a9.368,9.368,0,0,1-6.006,1.361,6.849,6.849,0,0,0-5.021,1.226c-7.315,5.372,3.587,14.862-.21,18.266s-8.762,1.885-11.35,7.164c-2.971,6.062,7.072,10.94,5.345,15.418s-12.837,2.906-12.948,10.235c-.1,6.811,11.643,15.964,19.558,16.13s25.1-10.351,23.866-15.761c-1.551-6.791-7.942-3.9-7.878-8.164s14.679-3.113,15.485-11.662c.43-4.565-5.268-3.848-6.514-9.271s8.788-5.979,8.309-11.96-6.533-4.646-8.027-9.362,13.385-16.377,1.938-19.325a13.942,13.942,0,0,0-3.466-.484c-9.709,0-8.669,13.51-13.082,16.188" transform="translate(-2878.062 -1393.196)" fill="#6ca179"/></clipPath><clipPath id="t"><path d="M2933.247,1742.882c-1.208.74.278,8.18-.894,8.953-.584.385-2.481-.43-4.378-1.246s-3.819-1.642-4.388-1.238c-21.961,15.585-28.42,37.64-30.677,65.8l24.577.327,36.739-33.486-8.993-5s9.851-1.9,13.825-5.222c3.47-2.9,8.379-18.519,12.821-34.462.785-2.818-1.975-3.329-4.9-3.377q-.512-.008-1.028-.008a63.25,63.25,0,0,0-32.7,8.961" transform="translate(-2892.91 -1733.921)" fill="#6ca179"/></clipPath><clipPath id="v"><path d="M178.946,1103.612a.572.572,0,0,0,.568.576l31.016.226a.572.572,0,0,0,.576-.568l.094-12.951-32.161-.234Z" transform="translate(-178.946 -1090.661)" fill="none"/></clipPath><linearGradient id="w" x1="-2.085" y1="5.177" x2="-2.077" y2="5.177" gradientUnits="objectBoundingBox"><stop offset="0" stop-color="#484857"/><stop offset="1" stop-color="#2e2e2e"/></linearGradient><clipPath id="y"><path d="M172.664,996.328l-.071,9.8c0,.133.554.56.679.6l13.954,4.576,4.547,0,11.948-3.8a20.762,20.762,0,0,0,2.651-1.132l.071-9.8a.307.307,0,0,0-.3-.309l-33.165-.242h0a.307.307,0,0,0-.307.3" transform="translate(-172.593 -996.023)" fill="none"/></clipPath><linearGradient id="z" x1="-1.835" y1="5.245" x2="-1.827" y2="5.245" xlink:href="#w"/><clipPath id="ab"><path d="M298.756,1112.885l-.035,4.772a.392.392,0,0,0,.389.395l3.655.027a.392.392,0,0,0,.395-.389l.035-4.772a.392.392,0,0,0-.389-.395l-3.655-.027h0a.392.392,0,0,0-.392.389" transform="translate(-298.721 -1112.496)" fill="none"/></clipPath><linearGradient id="ac" x1="-5.862" y1="34.408" x2="-5.842" y2="34.408" gradientUnits="objectBoundingBox"><stop offset="0" stop-color="#c1c7d6"/><stop offset="1" stop-color="#a5a9b8"/></linearGradient><clipPath id="ae"><path d="M2719.905,466.393a8.846,8.846,0,1,1,.661.024c-.219,0-.439-.008-.661-.024m-15.169-10.072c-.991,13.417,13.315,35.187,13.315,35.187s17.246-18.046,18.339-32.849a15.87,15.87,0,0,0-14.658-17q-.6-.044-1.186-.044a15.87,15.87,0,0,0-15.81,14.7" transform="translate(-2704.687 -441.62)" fill="#636aea"/></clipPath><clipPath id="af"><path d="M712.743,743.386a6.305,6.305,0,1,1,.472.018q-.234,0-.472-.018M701.926,736.2c-.706,9.568,9.494,25.091,9.494,25.091s12.3-12.868,13.077-23.424a11.317,11.317,0,0,0-10.452-12.119c-.283-.021-.566-.031-.845-.031A11.317,11.317,0,0,0,701.926,736.2" transform="translate(-701.891 -725.721)" fill="#fbcc34"/></clipPath><clipPath id="ag"><path d="M1307.734,1059.1a9.281,9.281,0,0,1-3.967-6.4,9.326,9.326,0,0,1-.071-1.883,9.311,9.311,0,0,1,5.323-7.818q.207-.1.42-.185a9.212,9.212,0,0,1,.874-.309,9.322,9.322,0,0,1,.916-.223c.156-.03.314-.056.473-.078a9.274,9.274,0,0,1,3.688.226q.219.059.434.128a9.343,9.343,0,0,1,4.652,3.343q.134.181.259.369a9.247,9.247,0,0,1,1.163,2.48,9.39,9.39,0,0,1,.3,1.389,9.292,9.292,0,0,1-3.7,8.774q-.181.133-.369.259t-.382.241q-.195.116-.4.223a9.284,9.284,0,0,1-3.091,1,9.4,9.4,0,0,1-1.292.09,9.273,9.273,0,0,1-5.237-1.622m5.446-28.957-6.189.86a.484.484,0,0,0-.413.546l.454,3.268a.482.482,0,0,1-.307.515,17.154,17.154,0,0,0-4.733,2.782.482.482,0,0,1-.6.017l-2.635-1.992a.484.484,0,0,0-.679.094l-3.768,4.984a.484.484,0,0,0,.094.678l2.635,1.992a.482.482,0,0,1,.148.582,17.148,17.148,0,0,0-1.386,5.312.482.482,0,0,1-.412.436l-3.268.454a.485.485,0,0,0-.413.547l.86,6.189a.484.484,0,0,0,.547.413l3.268-.454a.483.483,0,0,1,.516.307,17.147,17.147,0,0,0,2.782,4.733.482.482,0,0,1,.016.6l-1.992,2.635a.485.485,0,0,0,.094.679l4.984,3.768a.484.484,0,0,0,.678-.094l1.992-2.635a.482.482,0,0,1,.582-.148,17.141,17.141,0,0,0,5.312,1.386.482.482,0,0,1,.436.412l.454,3.268a.484.484,0,0,0,.547.413l6.189-.86a.484.484,0,0,0,.413-.546l-.454-3.269a.482.482,0,0,1,.307-.515,17.145,17.145,0,0,0,4.733-2.782.481.481,0,0,1,.6-.017l2.635,1.992a.485.485,0,0,0,.679-.094l3.768-4.984a.485.485,0,0,0-.094-.679l-2.635-1.992a.482.482,0,0,1-.148-.582,17.138,17.138,0,0,0,1.386-5.312.482.482,0,0,1,.412-.436l3.268-.454a.485.485,0,0,0,.413-.547l-.86-6.189a.484.484,0,0,0-.546-.413l-3.268.454a.482.482,0,0,1-.516-.307,17.144,17.144,0,0,0-2.782-4.733.482.482,0,0,1-.016-.6l1.992-2.635a.485.485,0,0,0-.094-.679l-4.984-3.768a.484.484,0,0,0-.678.094l-1.992,2.635a.481.481,0,0,1-.581.148,17.149,17.149,0,0,0-5.312-1.386.483.483,0,0,1-.436-.412l-.454-3.268a.485.485,0,0,0-.479-.418.53.53,0,0,0-.068,0" transform="translate(-1291.703 -1030.14)" fill="#fbcc34"/></clipPath><clipPath id="ah"><path d="M1609.37,1259.574q-.682-.086-1.353-.236t-1.324-.364a14.344,14.344,0,0,1-8.932-8.534,14.131,14.131,0,0,1-.436-1.347,14.351,14.351,0,0,1,2.473-12.444q.427-.556.912-1.072a14.252,14.252,0,0,1,1.028-.989,14.439,14.439,0,0,1,5.016-2.84q.674-.218,1.359-.367a14.311,14.311,0,0,1,17.322,13.019q.047.691.026,1.38a14.291,14.291,0,0,1-6.649,11.683q-.313.2-.632.378a14.4,14.4,0,0,1-1.3.649,14.23,14.23,0,0,1-2.693.873q-.684.149-1.375.229-.345.04-.691.063-.48.032-.959.032a14.394,14.394,0,0,1-1.794-.113m3.287-46.281-1.112,4.958a.742.742,0,0,1-.721.577,26.379,26.379,0,0,0-8.322,1.441.742.742,0,0,1-.873-.3l-2.717-4.288a.745.745,0,0,0-1.029-.231l-8.12,5.144a.745.745,0,0,0-.231,1.028l2.717,4.288a.742.742,0,0,1-.1.917,26.379,26.379,0,0,0-4.858,6.909.741.741,0,0,1-.829.4l-4.958-1.112a.745.745,0,0,0-.89.564l-2.1,9.38a.745.745,0,0,0,.564.89l4.958,1.112a.741.741,0,0,1,.577.72,26.379,26.379,0,0,0,1.441,8.322.742.742,0,0,1-.3.873l-4.288,2.717a.745.745,0,0,0-.231,1.028l5.145,8.12a.745.745,0,0,0,1.028.231l4.288-2.717a.742.742,0,0,1,.917.1,26.389,26.389,0,0,0,6.909,4.858.741.741,0,0,1,.4.829l-1.112,4.958a.745.745,0,0,0,.564.89l9.379,2.1a.745.745,0,0,0,.89-.564l1.112-4.958a.741.741,0,0,1,.72-.577,26.387,26.387,0,0,0,8.322-1.441.742.742,0,0,1,.873.3l2.717,4.288a.745.745,0,0,0,1.028.231l8.12-5.144a.746.746,0,0,0,.231-1.029l-2.717-4.288a.742.742,0,0,1,.1-.917,26.381,26.381,0,0,0,4.858-6.909.741.741,0,0,1,.829-.4l4.958,1.112a.745.745,0,0,0,.891-.564l2.1-9.379a.745.745,0,0,0-.564-.891l-4.958-1.112a.741.741,0,0,1-.577-.72,26.386,26.386,0,0,0-1.441-8.322.742.742,0,0,1,.3-.873l4.288-2.717a.746.746,0,0,0,.231-1.028l-5.145-8.12a.745.745,0,0,0-1.029-.231l-4.288,2.717a.742.742,0,0,1-.917-.1,26.373,26.373,0,0,0-6.909-4.858.741.741,0,0,1-.4-.829l1.112-4.958a.745.745,0,0,0-.564-.89l-9.379-2.1a.745.745,0,0,0-.89.564" transform="translate(-1578.49 -1212.711)" fill="#636aea"/></clipPath><clipPath id="aj"><path d="M1983.245,724.163a19.967,19.967,0,1,0,19.967-19.967,19.967,19.967,0,0,0-19.967,19.967" transform="translate(-1983.245 -704.196)" fill="#fbcc34"/></clipPath><clipPath id="al"><path d="M1702.826,2156.709s-3.678.169-6.814.238-6.933,3.624-12.055,5.4a13.061,13.061,0,0,0-7.134,5.818c-.964,1.817.425,3.405,2.393,3.288a4.515,4.515,0,0,0,.674-.106c-1.621,2.558.691,4.4,3.237,3.792-1.469,1.812.211,3.456,1.831,3.336a11.576,11.576,0,0,0,1.353-.21l-.03.031a2.034,2.034,0,0,0,.36,2.22c.775.678,1.9.453,7.282-.744l16.267-7.127c.746-.3,3.74-1.414,3.74-1.414l-.724-15.4a62.3,62.3,0,0,1-10.378.879" transform="translate(-1676.51 -2155.83)" fill="none"/></clipPath><linearGradient id="am" x1="-4.916" y1="1.533" x2="-4.913" y2="1.533" gradientUnits="objectBoundingBox"><stop offset="0" stop-color="#d1552d"/><stop offset="0.26" stop-color="#d1552d"/><stop offset="1" stop-color="#bd4322"/></linearGradient><clipPath id="ao"><path d="M2033.9,1608.7c-4.411,19.341-5.482,24.65-7.186,27.621s-29.316,10.068-35.888,11.462c0,0-6.188,7.082-1.444,13.9,0,0,40.317-2.239,46.793-5.055s18.16-13.125,18.16-13.125l-2.125-59.845s-13.9,5.7-18.31,25.038" transform="translate(-1987.59 -1583.664)" fill="#fbcc34"/></clipPath><clipPath id="ap"><path d="M2340.243,1529.513l-.3.071-.306.08-.306.087c-.408.12-.82.261-1.231.421q-.464.177-.927.389l-.1.047q-.722.329-1.439.728c-.1.057-.207.114-.309.172,0,0-.006,0-.009,0q-.765.436-1.519.938c-.1.067-.2.135-.3.2-.156.105-.313.215-.468.325l-.134.1q-.3.216-.6.439l-.043.031c-.084.065-.169.13-.253.194q-.295.228-.587.463t-.579.477q-.286.242-.571.491l-.282.249q-.593.528-1.163,1.084c-.058.056-.113.115-.171.171q-.257.253-.509.509c-.058.059-.117.115-.175.175l-.147.154q-.39.4-.762.818l-.205.228-.061.068q-.483.541-.934,1.089-.229.28-.453.56c-.224.281-.44.56-.648.84-.07.094-.138.187-.206.281h0a25.9,25.9,0,0,0-2.739,4.572,34.5,34.5,0,0,0-1.266,3.346,90.133,90.133,0,0,0-2.359,9.073c-.293,1.376-.574,2.8-.841,4.252h0c-.031.168-.061.337-.093.507-.007.043-.016.085-.023.128-.077.424-.151.85-.226,1.279-.035.215-.073.43-.11.646s-.073.432-.108.646c-.017.11-.036.219-.054.329h0q-.079.483-.155.968c-.033.208-.066.417-.1.625-.036.229-.07.457-.105.686s-.064.43-.1.645c-.006.037-.011.075-.017.114h0c-.027.178-.053.358-.079.537l-.094.654c-.037.262-.073.524-.11.786-.023.171-.047.342-.07.511h0l-.085.655c-.056.41-.107.82-.158,1.229q-.045.359-.087.714c-.026.214-.052.429-.077.642s-.05.427-.074.641-.047.424-.071.636c0,.043-.009.084-.014.127q-.062.57-.12,1.136c-.066.628-.127,1.25-.182,1.862-.018.2-.036.393-.053.588-.077.864-.145,1.713-.2,2.54,0,.05-.007.1-.011.147-.007.1-.013.2-.02.3-.08,1.189-.141,2.331-.181,3.416-.02.527-.054,1.075-.1,1.642a81.346,81.346,0,0,1-2.249,12.054c-.8,3.2-1.732,6.468-2.658,9.569-.984,3.292-1.967,6.4-2.794,9.038l-1.058,3.135-.04.121-.032.094-4.057,12.028c2.025,0,4.633.1,7.612.222,9.14.385,21.761,1.039,31.656,0,.99-.1,1.952-.225,2.881-.365.893-.134,16.9-.219,17.657-.712-.854-14.1-1.783-47.763-1.1-55.851.01-.122.02-.245.03-.369.02-.246.037-.5.054-.746.009-.125.016-.251.024-.377.016-.252.03-.505.043-.762s.024-.513.034-.772q.023-.577.038-1.165.032-1.3.021-2.64c0-.211,0-.423-.007-.635,0-.177-.006-.353-.01-.531,0-.067,0-.135,0-.2,0-.119,0-.239-.009-.36q-.006-.284-.017-.568c0-.027,0-.054,0-.081q-.011-.306-.023-.611-.031-.756-.075-1.519c-.649-11.235-3.412-23.455-8.522-30.71l-.043-.058c-.061-.084-.121-.168-.181-.252l-.184-.248c-.061-.081-.122-.162-.185-.244l-.186-.239-.188-.235c-.064-.077-.127-.154-.191-.229s-.128-.152-.192-.226-.131-.149-.2-.224-.13-.144-.2-.215-.132-.142-.2-.212c-.133-.141-.268-.279-.4-.412l-.2-.2c-.058-.057-.118-.112-.177-.167-.014-.014-.029-.027-.043-.04-.134-.122-.269-.242-.4-.359-.07-.061-.141-.121-.212-.179q-.2-.166-.409-.325-.119-.092-.239-.179l-.2-.144c-.08-.057-.161-.112-.242-.167-.053-.036-.105-.071-.158-.1-.094-.063-.188-.122-.283-.179-.078-.048-.157-.1-.237-.142a7.676,7.676,0,0,0-1.206-.568,7.386,7.386,0,0,0-.753-.234c-.169-.044-.34-.081-.513-.113a8.674,8.674,0,0,0-1.582-.142,10.983,10.983,0,0,0-2.393.278" transform="translate(-2301.564 -1529.235)" fill="#fbcc34"/></clipPath><clipPath id="aq"><path d="M2416.821,1691.065c-.708,2.448-1.28,4.939-1.824,7.428-.139.622-.267,1.244-.418,1.864l-.453,1.862q-.442,1.865-.857,3.734-.836,3.738-1.627,7.486l1.776.319q.445-3.8.931-7.6.244-1.9.509-3.791l.279-1.89c.1-.629.231-1.254.343-1.881.463-2.505.952-5,1.578-7.465a49.979,49.979,0,0,1,2.374-7.226,49.96,49.96,0,0,0-2.612,7.155" transform="translate(-2411.642 -1683.91)" fill="none"/></clipPath><linearGradient id="ar" x1="-34.677" y1="3.074" x2="-34.663" y2="3.074" gradientUnits="objectBoundingBox"><stop offset="0" stop-color="#bd4322"/><stop offset="1" stop-color="#ac371e"/></linearGradient><clipPath id="as"><path d="M2021.2,1659.63c-6.809,10.609-16.349,37.685-21.1,43.069a4.823,4.823,0,0,1-2.652,2.058c-1.9.633-31.47,2.969-32.9,2.969-.407,0-1.008.491-1.659,1.193a14.246,14.246,0,0,0-3.718,9.932,18.034,18.034,0,0,0,.786,5.817s40.021,8.273,48.571,5.107,31.51-28.66,40.219-41.01c3.066-4.348,7.165-20.743-.158-30.085-4.66-5.945-12.826-6.809-12.826-6.809a7.823,7.823,0,0,0-2.471-.348c-2.836,0-7.667,1.206-12.1,8.107" transform="translate(-1959.172 -1651.523)" fill="#fbcc34"/></clipPath><clipPath id="at"><path d="M2305.82,2119.922a11.5,11.5,0,0,0-.079,1.252,10.457,10.457,0,0,0,.262,2.457,9.9,9.9,0,0,0,.805,2.292,11.118,11.118,0,0,0,1.276,2.015,10.922,10.922,0,0,1-.924-2.154,9.335,9.335,0,0,1-.408-2.261,9.527,9.527,0,0,1,.119-2.255,10.373,10.373,0,0,1,.247-1.087,6.925,6.925,0,0,1,.364-.991l-1.407-.556a8.267,8.267,0,0,0-.254,1.287" transform="translate(-2305.74 -2118.635)" fill="none"/></clipPath><linearGradient id="au" x1="-109.85" y1="4.629" x2="-109.803" y2="4.629" xlink:href="#ar"/><clipPath id="av"><path d="M2043.265,1749.6h0m18.465-40.332q-1.641,2.743-3.115,5.577c-1.979,3.769-3.8,7.61-5.6,11.454l-5.339,11.54q-1.349,2.87-2.78,5.68c-.479.933-.972,1.857-1.5,2.747a17.323,17.323,0,0,1-1.69,2.487l-.195.359c.01-.031-.006.017-.013.033s-.021.051-.035.079c-.026.055-.057.112-.091.168a2.478,2.478,0,0,1-.24.327,2.887,2.887,0,0,1-.651.543,3.948,3.948,0,0,1-.395.208,2.725,2.725,0,0,1-.393.137c-.292.066-.676.127-1.034.181-1.468.213-2.969.386-4.464.555-2.994.338-5.992.679-8.994.994l-9,1.01-9,1.035c1.512.006,3.024-.039,4.534-.09s3.02-.11,4.53-.18c3.02-.126,6.035-.312,9.052-.486,3.014-.207,6.03-.4,9.045-.665,1.509-.135,3.012-.272,4.536-.457.389-.051.753-.095,1.2-.185a4.491,4.491,0,0,0,.681-.216,5.807,5.807,0,0,0,.615-.3,4.5,4.5,0,0,0,1.1-.88,4.246,4.246,0,0,0,.434-.581c.064-.1.125-.213.181-.328.029-.056.054-.119.081-.179l0-.01a19.482,19.482,0,0,0,1.8-2.614c.56-.933,1.074-1.877,1.572-2.827,1-1.9,1.9-3.829,2.8-5.761s1.767-3.87,2.615-5.817l2.527-5.843c1.669-3.9,3.335-7.794,5.064-11.659.879-1.925,1.749-3.855,2.707-5.74.476-.944.953-1.889,1.48-2.806a26.81,26.81,0,0,1,1.685-2.692,35.573,35.573,0,0,0-3.7,5.2" transform="translate(-2007.197 -1704.067)" fill="none"/></clipPath><linearGradient id="aw" x1="-3.861" y1="1.778" x2="-3.859" y2="1.778" xlink:href="#ar"/><clipPath id="ax"><path d="M2373.181,1928.673c-.287.707-.591,1.406-.938,2.079a13.606,13.606,0,0,1-1.155,1.918c-.463.6-.935,1.2-1.417,1.794-1.9,2.391-3.881,4.717-5.868,7.038-2.007,2.3-4,4.617-6.058,6.875-2.039,2.274-4.1,4.531-6.2,6.746q-3.114,3.357-6.353,6.587-3.209,3.259-6.608,6.3c-.562.512-1.144,1-1.719,1.492-.587.476-1.169.963-1.768,1.421a21.66,21.66,0,0,1-3.748,2.438,7.807,7.807,0,0,1-2.083.683c-.733.151-1.485.246-2.241.327s-1.519.128-2.282.164-1.531.067-2.3.08a41.643,41.643,0,0,0,4.607.277,19.777,19.777,0,0,0,2.33-.128,8.659,8.659,0,0,0,2.327-.552,22.107,22.107,0,0,0,4.11-2.289c1.292-.867,2.513-1.821,3.715-2.791a143.038,143.038,0,0,0,13.388-12.718q3.14-3.378,6.163-6.857c1.99-2.342,3.971-4.692,5.854-7.121,1.9-2.415,3.736-4.883,5.475-7.423.435-.637.851-1.278,1.274-1.931a12.52,12.52,0,0,0,1.029-2.119,26.659,26.659,0,0,0,1.26-4.445q-.365,1.091-.8,2.152" transform="translate(-2322.451 -1926.521)" fill="none"/></clipPath><linearGradient id="ay" x1="-5.048" y1="1.335" x2="-5.046" y2="1.335" xlink:href="#ar"/><clipPath id="az"><path d="M2551.934,1492.323c-3.51.467-20.826,2.127-19.77,6.844l.569,5.889a22.557,22.557,0,0,0,8.738,2.588c4.78.222,13.99-1.968,15.175-5.411l-1.345-8.5s.113-1.484-2.331-1.484a7.893,7.893,0,0,0-1.036.075" transform="translate(-2532.117 -1492.248)" fill="none"/></clipPath><linearGradient id="ba" x1="-11.067" y1="7.25" x2="-11.063" y2="7.25" xlink:href="#ar"/><clipPath id="bc"><path d="M2548.878,1383.207l-.225,8.649c7.317-.335,15.28-4.027,19.689-10.385l-.015-5.911-8.772-1.547Z" transform="translate(-2548.654 -1374.013)" fill="none"/></clipPath><linearGradient id="bd" x1="-14.499" y1="7.088" x2="-14.494" y2="7.088" xlink:href="#ar"/><clipPath id="bf"><path d="M1040.378,1636.707s12.725,8.993,19.466,11.1,49.9,2.153,49.9,2.153c3.983-7.292,1.994-15.236,1.994-15.236-6.683-.68-42.66-5.356-44.674-8.127s-4.054-11.978-10.518-30.732-16.8-23.187-16.8-23.187Z" transform="translate(-1039.747 -1572.675)" fill="#45627b"/></clipPath><clipPath id="bg"><path d="M760.335,1544.275c-10.762,6.276-14.935,30.876-13.578,47.027.68,8.088-.323,41.042-1.177,55.139.427.279,5.915.063,10.765-.153,3.725-.166,7.074-.332,7.461-.274,13.243,1.994,29.586-.142,38.447-.142l-1.979-13.243c-2.836-9.043-7.484-23.54-7.805-32.3-.453-12.351-3.621-32.3-7.241-40.377-3.064-6.835-12.937-16.732-20.837-16.732a7.924,7.924,0,0,0-4.055,1.056" transform="translate(-745.58 -1543.219)" fill="#45627b"/></clipPath><clipPath id="bi"><rect width="45.777" height="23.525" fill="none"/></clipPath><clipPath id="bj"><path d="M752.468,1665.767s-8.2.353-13.225,6c-7.891,8.867-4.823,25.485-2.034,30.016,7.922,12.87,29.246,39.745,37.583,43.438s47.127,9,47.127,9c.648-1.3.727.185,3.275-10.964.816-3.572,4.17-8.555,1.851-11.392-.606-.741-8.565-2.538-8.971-2.563-1.422-.089-28.8-7.61-30.66-8.361a4.823,4.823,0,0,1-2.519-2.22c-4.405-5.669-12.238-33.288-18.372-44.3-4.293-7.708-9.462-8.865-12.178-8.865a7.214,7.214,0,0,0-1.877.212" transform="translate(-734.211 -1665.555)" fill="none"/></clipPath><clipPath id="bl"><path d="M940.564,1512.1s12.732,4.982,20.494,13.1l.543.013,3.658-2.08a.525.525,0,0,0,.079-.858L952.07,1510.6l-10.638-1.264Z" transform="translate(-940.564 -1509.341)" fill="none"/></clipPath><linearGradient id="bm" x1="-4.205" y1="7.011" x2="-4.201" y2="7.011" gradientUnits="objectBoundingBox"><stop offset="0" stop-color="#ff7d43"/><stop offset="1" stop-color="#ff5b33"/></linearGradient><clipPath id="bo"><path d="M820.746,1507.391a35.079,35.079,0,0,0-4.564,6.155,21.192,21.192,0,0,0,5.257,5.981c3.494,2.9,13.576,7.367,17.85,9.194a1.285,1.285,0,0,0,1.788-1.28c-.179-2.337,1.458-5.259,1.3-8.283,0,0-11.557-3.354-19.024-11.766a1.168,1.168,0,0,0-.923-.4,7.957,7.957,0,0,0-1.689.395" transform="translate(-816.182 -1506.997)" fill="none"/></clipPath><linearGradient id="bp" x1="-3.469" y1="5.048" x2="-3.465" y2="5.048" xlink:href="#bm"/><clipPath id="br"><path d="M1049.747,1594.363s6.5,3.92,8.849,3.808l-7.729-6.5Z" transform="translate(-1049.747 -1591.675)" fill="none"/></clipPath><linearGradient id="bs" x1="-13.288" y1="15.447" x2="-13.275" y2="15.447" xlink:href="#bm"/></defs><g transform="translate(5831.888 3067.511)"><g transform="translate(-5782.794 -3051.991)" opacity="0.35"><g clip-path="url(#a)"><g clip-path="url(#a)"><g transform="translate(141.37)" style="mix-blend-mode:multiply;isolation:isolate"><g clip-path="url(#c)"><path d="M117.2,16.706a17.14,17.14,0,0,0-34.269,0,17.14,17.14,0,0,0,34.269,0" transform="translate(-82.936 -0.001)" fill="#b3b0d1"/></g></g><g transform="translate(307.762 139.668)" style="mix-blend-mode:multiply;isolation:isolate"><g clip-path="url(#d)"><path d="M199.3,91.079a9.38,9.38,0,1,0-9.377,9.142,9.261,9.261,0,0,0,9.377-9.142" transform="translate(-180.551 -81.937)" fill="#b3b0d1"/></g></g><g transform="translate(53.782 6.711)" style="mix-blend-mode:multiply;isolation:isolate"><g clip-path="url(#e)"><path d="M50.3,13.079a9.38,9.38,0,0,0-18.754,0,9.38,9.38,0,0,0,18.754,0" transform="translate(-31.552 -3.937)" fill="#b3b0d1"/></g></g><g transform="translate(133.896 216.373)" style="mix-blend-mode:multiply;isolation:isolate"><g clip-path="url(#e)"><path d="M97.3,136.079a9.38,9.38,0,1,0-9.377,9.142,9.262,9.262,0,0,0,9.377-9.142" transform="translate(-78.552 -126.937)" fill="#b3b0d1"/></g></g><g transform="translate(0 134.66)" style="mix-blend-mode:multiply;isolation:isolate"><g clip-path="url(#g)"><path d="M34.269,95.706A16.925,16.925,0,0,0,17.134,79a16.712,16.712,0,1,0,0,33.413A16.925,16.925,0,0,0,34.269,95.706" transform="translate(0 -79)" fill="#b3b0d1"/></g></g><g transform="translate(14.125 33.116)" style="mix-blend-mode:multiply;isolation:isolate"><g clip-path="url(#h)"><path d="M119.018,73.41c0-29.813-24.788-53.982-55.366-53.982S8.287,43.6,8.287,73.41s24.788,53.982,55.365,53.982,55.366-24.169,55.366-53.982" transform="translate(-8.286 -19.428)" fill="#b3b0d1"/></g></g><g transform="translate(148.256 22.35)" style="mix-blend-mode:multiply;isolation:isolate"><g clip-path="url(#i)"><path d="M239.9,87.661c0-41.172-34.233-74.548-76.46-74.548s-76.46,33.376-76.46,74.548,34.233,74.55,76.46,74.55,76.46-33.377,76.46-74.55" transform="translate(-86.975 -13.111)" fill="#b3b0d1"/></g></g><g transform="translate(42.261 160.991)" style="mix-blend-mode:multiply;isolation:isolate"><g clip-path="url(#j)"><path d="M111.858,136.891c0-23.441-19.49-42.444-43.533-42.444s-43.531,19-43.531,42.444,19.49,42.444,43.531,42.444,43.533-19,43.533-42.444" transform="translate(-24.792 -94.446)" fill="#b3b0d1"/></g></g><g transform="translate(165.842 148.995)" style="mix-blend-mode:multiply;isolation:isolate"><g clip-path="url(#k)"><path d="M179.244,127.361c0-22.064-18.345-39.952-40.976-39.952S97.293,105.3,97.293,127.361s18.345,39.952,40.975,39.952,40.976-17.888,40.976-39.952" transform="translate(-97.292 -87.409)" fill="#b3b0d1"/></g></g><g transform="translate(273.083 159.932)" style="mix-blend-mode:multiply;isolation:isolate"><g clip-path="url(#l)"><path d="M210.82,118.5c0-13.626-11.33-24.674-25.306-24.674s-25.308,11.047-25.308,24.674,11.33,24.674,25.308,24.674S210.82,132.127,210.82,118.5" transform="translate(-160.206 -93.826)" fill="#b3b0d1"/></g></g></g></g></g><g transform="translate(-5831.888 -3067.511)"><g clip-path="url(#m)"><g transform="translate(27.924 154.775)"><g clip-path="url(#n)"><rect width="104.012" height="97.029" transform="translate(-45.715 58.102) rotate(-55.206)" fill="#6ca179"/></g></g><g transform="translate(0 0)"><g clip-path="url(#o)"><path d="M341.724,1493.6h-.019a.783.783,0,0,1-.764-.8c.184-7.746-2.571-20.614-7.756-36.234a274,274,0,0,0-15.864-38.307.783.783,0,0,1,1.387-.728c10.221,19.484,24.219,57.558,23.8,75.306a.783.783,0,0,1-.783.765" transform="translate(-281.698 -1258.372)" fill="#2e2e2e"/></g></g><g transform="translate(0 192.94)"><g clip-path="url(#p)"><rect width="112.235" height="111.644" transform="matrix(0.576, -0.817, 0.817, 0.576, -38.406, 54.483)" fill="#6ca179"/></g></g><g transform="translate(0 0)"><g clip-path="url(#o)"><path d="M104.719,1821.1a.783.783,0,0,1-.744-.54c-12.9-39.528-37.642-57.716-60.139-70.295a.783.783,0,1,1,.764-1.367c15.11,8.448,26.417,17,35.584,26.9,11.253,12.157,19.522,26.64,25.279,44.276a.784.784,0,0,1-.745,1.026" transform="translate(-38.57 -1552.907)" fill="#2e2e2e"/></g></g><g transform="translate(322.38 156.056)"><g clip-path="url(#r)"><rect width="97.029" height="104.012" transform="translate(-40.475 28.054) rotate(-34.794)" fill="#6ca179"/></g></g><g transform="translate(0 0)"><g clip-path="url(#o)"><path d="M3056.952,1505.038a.783.783,0,0,1-.783-.765c-.421-17.748,13.577-55.822,23.8-75.306a.783.783,0,0,1,1.387.728A273.97,273.97,0,0,0,3065.491,1468c-5.185,15.62-7.939,28.488-7.756,36.234a.783.783,0,0,1-.764.8h-.019" transform="translate(-2713.83 -1268.532)" fill="#2e2e2e"/></g></g><g transform="translate(324.044 194.222)"><g clip-path="url(#t)"><rect width="112.175" height="112.609" transform="translate(-38.406 27.073) rotate(-35.181)" fill="#6ca179"/></g></g><g transform="translate(0 0)"><g clip-path="url(#o)"><path d="M3002.353,1832.537a.784.784,0,0,1-.745-1.027c5.757-17.636,14.026-32.119,25.279-44.276,9.167-9.9,20.474-18.451,35.584-26.9a.783.783,0,1,1,.764,1.367c-22.5,12.579-47.236,30.767-60.139,70.295a.783.783,0,0,1-.744.541" transform="translate(-2665.354 -1563.065)" fill="#2e2e2e"/><path d="M132.345,872.807a27.055,27.055,0,1,1-27.055-27.055,27.055,27.055,0,0,1,27.055,27.055" transform="translate(-69.472 -751.016)" fill="#fff"/></g></g><g transform="translate(20.044 122.168)"><g clip-path="url(#v)"><rect width="13.991" height="32.357" transform="translate(-0.103 13.755) rotate(-89.582)" fill="url(#w)"/></g></g><g transform="translate(0 0)"><g clip-path="url(#o)"><path d="M271.82,941.458h-.005a.723.723,0,0,1-.717-.728l.029-3.95a1.806,1.806,0,0,0-1.791-1.817l-7.119-.052H262.2a1.806,1.806,0,0,0-1.8,1.791l-.029,3.95a.722.722,0,1,1-1.445-.01l.029-3.95a3.248,3.248,0,0,1,3.272-3.225l7.119.052a3.253,3.253,0,0,1,3.225,3.273l-.029,3.95a.722.722,0,0,1-.722.717" transform="translate(-229.923 -828.905)" fill="#2e2e2e"/></g></g><g transform="translate(19.333 111.568)"><g clip-path="url(#y)"><rect width="15.531" height="33.964" transform="matrix(0.007, -1, 1, 0.007, -0.113, 15.283)" fill="url(#z)"/></g></g><g transform="translate(0 0)"><g clip-path="url(#o)"><path d="M185.246,1089.36a.72.72,0,0,1-.245-.043l-13.615-4.916a.722.722,0,1,1,.491-1.359l13.615,4.916a.722.722,0,0,1-.245,1.4" transform="translate(-151.764 -961.689)" fill="#2e2e2e"/><path d="M333.9,1092.457a.723.723,0,0,1-.217-1.411l14.405-4.55a.722.722,0,0,1,.435,1.378l-14.406,4.55a.723.723,0,0,1-.218.034" transform="translate(-295.861 -964.764)" fill="#2e2e2e"/></g></g><g transform="translate(33.461 124.614)"><g clip-path="url(#ab)"><rect width="5.611" height="4.511" transform="translate(-0.036 5.584) rotate(-89.645)" fill="url(#ac)"/></g></g><g transform="translate(0 0)"><g clip-path="url(#o)"><path d="M300.1,1121.148l.035-4.735a.267.267,0,0,0-.265-.269l-3.619-.026a.553.553,0,0,0-.069.006.552.552,0,0,1,.518-.352l3.629.026a.257.257,0,0,1,.255.258l-.035,4.746a.551.551,0,0,1-.488.543.553.553,0,0,0,.039-.2" transform="translate(-263.007 -990.791)" fill="#f6f6f6"/><path d="M297.042,1113.074h-.008l-3.655-.027a1.114,1.114,0,0,1-1.106-1.122l.035-4.772a1.115,1.115,0,0,1,1.114-1.106h.009l3.655.027a1.114,1.114,0,0,1,1.106,1.122l-.035,4.772a1.116,1.116,0,0,1-1.114,1.106m0-1.445h0Zm-3.324-.024,2.994.022.03-4.111-2.994-.022Zm-.331,0h0Z" transform="translate(-259.534 -982.155)" fill="#2e2e2e"/><path d="M859.374,806.329a.782.782,0,0,1-.608-.289,29.612,29.612,0,0,1-2.319-3.283.783.783,0,0,1,1.338-.814,28.038,28.038,0,0,0,2.2,3.108.783.783,0,0,1-.607,1.277" transform="translate(-760.411 -711.781)" fill="#2e2e2e"/><path d="M821.132,74.835h-.042a.783.783,0,0,1-.741-.823A36.191,36.191,0,0,1,821.709,66a.783.783,0,1,1,1.506.429,34.639,34.639,0,0,0-1.3,7.659.783.783,0,0,1-.781.742m116.785-7.183a36.041,36.041,0,0,1-4.151-.245.783.783,0,0,1,.181-1.556,32.716,32.716,0,0,0,7.76,0,.783.783,0,1,1,.193,1.554,32.388,32.388,0,0,1-3.983.242m-20.17-6.022a.778.778,0,0,1-.429-.129,30.757,30.757,0,0,1-6.186-5.307.783.783,0,1,1,1.174-1.037,29.189,29.189,0,0,0,5.872,5.035.783.783,0,0,1-.431,1.438m38.774-2.214a.783.783,0,0,1-.639-1.234,17.667,17.667,0,0,0,2.874-6.994.783.783,0,0,1,1.54.288,19.218,19.218,0,0,1-3.133,7.609.782.782,0,0,1-.641.332m-126.2-7.664a.783.783,0,0,1-.621-1.259,58.177,58.177,0,0,1,5.345-6.042.783.783,0,0,1,1.1,1.115,56.629,56.629,0,0,0-5.2,5.879.782.782,0,0,1-.622.307m75.519-11.064h-.023a.783.783,0,0,1-.76-.805,27.651,27.651,0,0,1,1.5-8.027.783.783,0,1,1,1.484.5,26.075,26.075,0,0,0-1.415,7.572.783.783,0,0,1-.782.761m48.166-3.64a.779.779,0,0,1-.469-.156,40.241,40.241,0,0,0-6.719-3.962.783.783,0,0,1,.676-1.413,41.782,41.782,0,0,1,6.982,4.122.783.783,0,0,1-.47,1.41m-104.65-1.6a.783.783,0,0,1-.389-1.464,75.781,75.781,0,0,1,7.192-3.6.783.783,0,1,1,.627,1.435,74.22,74.22,0,0,0-7.043,3.527.78.78,0,0,1-.387.1m187.494-.815a.782.782,0,0,1-.565-.241c-1.785-1.858-3.707-3.691-5.714-5.449a.783.783,0,0,1,1.032-1.178c2.041,1.787,4,3.652,5.812,5.542a.783.783,0,0,1-.565,1.326m-106-7.215a.783.783,0,0,1-.185-.022c-2.5-.6-5.105-1.142-7.752-1.6a.783.783,0,0,1,.267-1.543c2.68.463,5.323,1.008,7.853,1.62a.783.783,0,0,1-.183,1.545M872.9,26.663a.783.783,0,0,1-.168-1.548c2.559-.567,5.212-1.056,7.885-1.454a.783.783,0,0,1,.231,1.549c-2.637.393-5.254.875-7.777,1.434a.784.784,0,0,1-.17.019m32.993-2.687h-.035c-2.016-.089-4.057-.134-6.066-.134h-.012c-.61,0-1.23,0-1.842.013h-.011a.783.783,0,0,1-.01-1.566c.623-.008,1.254-.017,1.875-.013,2.032,0,4.1.045,6.135.135a.783.783,0,0,1-.034,1.565m111.32-5.068a.779.779,0,0,1-.412-.118c-2.217-1.377-4.527-2.7-6.864-3.942a.783.783,0,0,1,.733-1.384c2.369,1.255,4.71,2.6,6.957,4a.783.783,0,0,1-.414,1.449m-101.054-.7a.783.783,0,0,1-.582-1.307,45.755,45.755,0,0,1,5.93-5.505.783.783,0,1,1,.96,1.238,44.2,44.2,0,0,0-5.726,5.316.781.781,0,0,1-.582.259M994.513,7.979a.78.78,0,0,1-.264-.046c-2.486-.889-5.02-1.7-7.533-2.411a.783.783,0,0,1,.427-1.507c2.546.721,5.115,1.543,7.634,2.443a.783.783,0,0,1-.264,1.521M937.2,4.828a.783.783,0,0,1-.245-1.527,63.271,63.271,0,0,1,7.8-2.017.783.783,0,1,1,.3,1.538,61.691,61.691,0,0,0-7.609,1.966.781.781,0,0,1-.245.04m32.827-2.669a.8.8,0,0,1-.092-.005c-2.651-.309-5.3-.508-7.875-.59A.783.783,0,0,1,962.081,0h.025c2.618.084,5.312.285,8.007.6a.783.783,0,0,1-.09,1.561" transform="translate(-728.459 0.002)" fill="#2e2e2e"/><path d="M2843.107,422.307a.783.783,0,0,1-.7-.422c-.586-1.128-1.222-2.264-1.888-3.377a.783.783,0,0,1,1.344-.8c.682,1.139,1.333,2.3,1.933,3.459a.783.783,0,0,1-.694,1.145" transform="translate(-2522.25 -370.577)" fill="#2e2e2e"/></g></g><g transform="translate(302.96 49.467)"><g clip-path="url(#ae)"><rect width="52.204" height="36.872" transform="matrix(0.074, -0.997, 0.997, 0.074, -4.604, 49.618)" fill="#636aea"/></g></g><g transform="translate(78.621 81.29)"><g clip-path="url(#af)"><rect width="37.226" height="26.292" transform="translate(-3.283 35.382) rotate(-85.779)" fill="#fbcc34"/></g></g><g transform="translate(144.688 115.389)"><g clip-path="url(#ag)"><rect width="45.415" height="45.445" transform="translate(-2.948 42.389) rotate(-86.065)" fill="#fbcc34"/></g></g><g transform="translate(176.811 135.839)"><g clip-path="url(#ah)"><rect width="71.664" height="71.599" transform="translate(-6.566 0.651) rotate(-5.728)" fill="#636aea"/></g></g><g transform="translate(0 0)"><g clip-path="url(#o)"><path d="M1967.165,653.738a27.909,27.909,0,1,1-27.909-27.909,27.909,27.909,0,0,1,27.909,27.909" transform="translate(-1697.25 -555.728)" fill="#fff"/></g></g><g transform="translate(222.149 78.879)"><g clip-path="url(#aj)"><rect width="55.966" height="55.966" transform="translate(-19.252 25.261) rotate(-52.688)" fill="#fbcc34"/></g></g><g transform="translate(0 0)"><g clip-path="url(#o)"><path d="M2111.785,786.461a4.6,4.6,0,0,1-1.6,3.6,8.14,8.14,0,0,1-4.613,1.749v3.271h-2.005V791.9a15.565,15.565,0,0,1-6.136-1.146v-3.181a15.318,15.318,0,0,0,3.03,1.063,13.682,13.682,0,0,0,3.106.445v-5.638l-1.266-.467a8.92,8.92,0,0,1-3.611-2.269,4.821,4.821,0,0,1-1.138-3.264,4.248,4.248,0,0,1,1.621-3.422,8.024,8.024,0,0,1,4.395-1.628v-2.533h2.005v2.488a16.607,16.607,0,0,1,5.8,1.236l-1.1,2.759a16.167,16.167,0,0,0-4.7-1.116v5.488l1.146.437a10.461,10.461,0,0,1,3.965,2.322,4.3,4.3,0,0,1,1.1,2.985m-10.689-9.046a2.018,2.018,0,0,0,.535,1.432,5.488,5.488,0,0,0,1.937,1.131v-4.689a3.527,3.527,0,0,0-1.84.739,1.774,1.774,0,0,0-.633,1.387m7.131,9.272a1.877,1.877,0,0,0-.61-1.44,6.289,6.289,0,0,0-2.043-1.093v4.809q2.654-.407,2.653-2.276" transform="translate(-1862.493 -683.627)" fill="#fff"/><path d="M1548.949,2413.086c-.1.052-.214.1-.326.148a4.045,4.045,0,0,1-4.049-.392,6.026,6.026,0,0,0-2.493-1.2c-1.077-.284-2.325-.461-3.73-.736-.382-.074-.776-.156-1.181-.249-.422-.1-.858-.206-1.3-.334-.248-.069-.5-.146-.755-.226a8.859,8.859,0,0,1-1.366-.579,24.152,24.152,0,0,1-4.817-3.554c-1.066-.971-1.987-1.915-2.631-2.6-.6-.643-.96-1.06-.96-1.06l1.2.113h0l14.365,1.35.273.026s.3.176.786.478h0c1.073.661,3.068,1.922,4.842,3.228.284.211.566.421.833.631a19.286,19.286,0,0,1,1.62,1.39c.172.168.329.331.466.489.054.06.1.121.15.179a3.1,3.1,0,0,1,.317.47,1.3,1.3,0,0,1,.143.383c.147.835-.469,1.577-1.382,2.043" transform="translate(-1354.479 -2133.215)" fill="#ff7261"/><path d="M1722.917,2417.922a3.11,3.11,0,0,1-3-1.724c.147.835-.469,1.577-1.382,2.043-.1-.132-.189-.268-.282-.406a17.894,17.894,0,0,1-1.143-2.021c-.113-.231-.215-.449-.306-.649-.081-.179-.152-.344-.214-.49-.178-.42-.277-.686-.277-.686s.015-.561.074-1.335c.042-.561.111-1.233.216-1.888l.013-.08c.012-.082.027-.161.041-.241h0a10.018,10.018,0,0,1,.244-1.051h0c.252-.843.612-1.415,1.119-1.257l4.147,6.539.31.49.412.649.181.287a9.819,9.819,0,0,1-.158,1.82" transform="translate(-1524.066 -2138.371)" fill="#ff7261"/><path d="M1523.676,2332.795a3.111,3.111,0,0,1-3-1.724c-.068-.129-.135-.258-.2-.383-.086-.16-.171-.317-.257-.471-.032-.06-.066-.12-.1-.179-.092-.167-.185-.33-.274-.489-1.243-2.2-2.236-3.657-2.467-3.989l-.05-.07c0,.012.015.064.037.15.092.371.339,1.373.617,2.519.11.451.223.924.333,1.39.039.165.078.328.115.489.053.222.1.44.152.65.213.913.381,1.68.431,2.021a1.157,1.157,0,0,1,.018.159,1.532,1.532,0,0,1-.062.394,4.045,4.045,0,0,1-4.049-.392c-.323-.823-.6-1.553-.838-2.182l-.246-.65-.185-.489c-.662-1.732-.919-2.26-1.082-1.512l-.035,1.512-.011.489-.013.65-.009.4s-.026.248-.074.586c-1.076-.285-2.325-.462-3.73-.736-.007-.081-.011-.164-.015-.249,0-.017,0-.033,0-.049q-.01-.314-.024-.6c-.008-.171-.017-.335-.026-.489a21.44,21.44,0,0,0-.22-2.208s-3.274-1.511-3.938-1.233a8.867,8.867,0,0,1-5.2-.113,15.727,15.727,0,0,1-3.005-1.186h0a21.189,21.189,0,0,1-2.92-1.832s-1.62-1.527-1.381-5.958c.172-3.15,3.244-4.774,3.244-4.774s1.922.182,4.54.448c4.916.5,12.286,1.292,13.96,1.712,2.566.648,4.2,2.99,5.571,5.116,1.169,1.817,4.428,7.715,5.52,10.028.09.189.162.354.221.489a2.669,2.669,0,0,1,.127.342,2.806,2.806,0,0,1,.065.308,1.68,1.68,0,0,1-1.538,2.107" transform="translate(-1324.825 -2053.243)" fill="#ff927e"/><path d="M1645.926,2399.873a.324.324,0,0,1-.121-.245,6.13,6.13,0,0,0-3.529-5.264.325.325,0,1,1,.258-.6,6.906,6.906,0,0,1,3.923,5.845.326.326,0,0,1-.53.262" transform="translate(-1458.145 -2125.61)" fill="#ff7261"/><path d="M1684.881,2372.575a.326.326,0,0,1-.108-.164,22.675,22.675,0,0,0-1.6-4.174,8.386,8.386,0,0,0-2.4-2.116.326.326,0,0,1,.328-.563,8.888,8.888,0,0,1,2.618,2.328,22.705,22.705,0,0,1,1.681,4.347.326.326,0,0,1-.518.342" transform="translate(-1492.361 -2100.545)" fill="#ff7261"/></g></g><g transform="translate(187.791 241.481)"><g clip-path="url(#al)"><rect width="38.069" height="25.366" transform="translate(-0.65)" fill="url(#am)"/></g></g><g transform="translate(0 0)"><g clip-path="url(#o)"><path d="M1665.575,2115.167c2.565.038,7.932-1.924,11.834-2.667,4.756-.907,6.886-.077,9.513,1.408,2.2,1.242,4.292,2.568,5.11,3.989.662,1.149.771,2.309-.254,3.227-1.96,1.755-6.443-.936-7.587-1.51-3.663,1.672-15.4,6.952-17.216,8.749a4.388,4.388,0,0,0-.634.779,15.123,15.123,0,0,1-1.775-1.727Z" transform="translate(-1478.113 -1875.537)" fill="#ff927e"/><path d="M1702.331,2253.686a.783.783,0,0,1-.185-1.544c3.191-.777,11.232-4.314,11.313-4.349a.783.783,0,0,1,.632,1.433c-.335.148-8.25,3.628-11.574,4.438a.775.775,0,0,1-.186.022" transform="translate(-1510.953 -1995.951)" fill="#b43d20"/><path d="M1806.648,2167.388a.78.78,0,0,1-.3-.06,16.174,16.174,0,0,0-3.1-.728.783.783,0,0,1,.208-1.552,17.387,17.387,0,0,1,3.491.833.783.783,0,0,1-.3,1.507" transform="translate(-1600.658 -1922.528)" fill="#ff7261"/><path d="M1730.684,2291.53a.783.783,0,0,1-.185-1.544c2.587-.632,8.587-2.6,10.238-3.781a.783.783,0,1,1,.913,1.273c-1.909,1.369-8.122,3.381-10.779,4.03a.78.78,0,0,1-.187.023" transform="translate(-1536.13 -2029.99)" fill="#b43d20"/><path d="M1759.186,2334.849a.783.783,0,0,1-.161-1.55,40.021,40.021,0,0,0,6.222-1.924.783.783,0,1,1,.586,1.452,41.178,41.178,0,0,1-6.485,2,.788.788,0,0,1-.163.017" transform="translate(-1561.439 -2070.18)" fill="#b43d20"/><path d="M1928.438,2261.721a21.954,21.954,0,0,0-1.973-4.141c-.664-1.079-1.943-1.984-3.319-1.054a2.241,2.241,0,0,0-.47,2.776c.5,1.023,1.937,4.029,2.936,4.6a2.087,2.087,0,0,0,2.886-1.554,2.537,2.537,0,0,0-.061-.626" transform="translate(-1707.073 -2003.423)" fill="#ff927e"/><path d="M1826.193,2326.57c1.376-.929,2.292-.556,3,.555.94,1.481,1.836,2.472,1.8,3.592s-1.613,1.627-2.6,1.418-1.493-1.2-1.992-2.219-.958-2.838-.207-3.345" transform="translate(-1621.284 -2065.496)" fill="#ff927e"/><path d="M1847.555,2292.671a2.349,2.349,0,0,1,3.333.657c1.18,2.011,3.023,4.462,2.983,5.737s-2.049,2.265-3.175,1.819c-1.06-.42-3.042-3.775-3.605-4.94a2.8,2.8,0,0,1,.464-3.273" transform="translate(-1639.915 -2035.483)" fill="#ff927e"/><path d="M1879.579,2263.619a2.412,2.412,0,0,1,3.841.309c1.012,1.4,3.187,5.386,3.209,6.5a2.211,2.211,0,0,1-2.188,2.162c-1.1.146-1.849-.453-3-2.211-1.308-2-2.187-3.263-2.34-4.312a3.176,3.176,0,0,1,.478-2.447" transform="translate(-1668.576 -2009.347)" fill="#ff927e"/><path d="M1921.282,2282.021a.783.783,0,0,1-.682-.4l-1.75-3.078a.783.783,0,1,1,1.362-.775l1.75,3.078a.784.784,0,0,1-.68,1.171" transform="translate(-1703.823 -2022.28)" fill="#ff7261"/><path d="M1879.03,2299.4a.783.783,0,0,1-.675-.384l-2.5-4.221a.783.783,0,0,1,1.348-.8l2.5,4.22a.783.783,0,0,1-.673,1.183" transform="translate(-1665.639 -2036.697)" fill="#ff7261"/><path d="M1847.864,2327.977a.783.783,0,0,1-.669-.375l-1.727-2.831a.783.783,0,1,1,1.337-.816l1.727,2.831a.784.784,0,0,1-.668,1.191" transform="translate(-1638.649 -2063.307)" fill="#ff7261"/></g></g><g transform="translate(222.636 177.391)"><g clip-path="url(#ao)"><rect width="69.698" height="78.025" transform="translate(-2.955 0)" fill="#fbcc34"/></g></g><g transform="translate(257.805 171.294)"><g clip-path="url(#ap)"><rect width="59.912" height="106.11" transform="translate(-0.053 -0.03)" fill="#fbcc34"/></g></g><g transform="translate(270.135 188.62)"><g clip-path="url(#aq)"><rect width="7.79" height="29.848" fill="url(#ar)"/></g></g><g transform="translate(219.453 184.992)"><g clip-path="url(#as)"><rect width="96.879" height="81.515" transform="matrix(1, -0.001, 0.001, 1, -0.137, 0)" fill="#fbcc34"/></g></g><g transform="translate(258.273 237.315)"><g clip-path="url(#at)"><rect width="2.351" height="9.303" transform="translate(-0.007)" fill="url(#au)"/></g></g><g transform="translate(224.832 190.878)"><g clip-path="url(#av)"><rect width="58.234" height="50.323" transform="translate(0 0)" fill="url(#aw)"/></g></g><g transform="translate(260.145 215.795)"><g clip-path="url(#ax)"><rect width="51.531" height="48.38" fill="url(#ay)"/></g></g><g transform="translate(283.63 167.151)"><g clip-path="url(#az)"><rect width="25.537" height="15.618" transform="translate(-1.01)" fill="url(#ba)"/></g></g><g transform="translate(0 0)"><g clip-path="url(#o)"><path d="M2512.741,1039.328l3.166-2.506s14.225-3.643,27.432,3.8,8.216,22.888,6.828,27.854-9.848,16.045-15.057,16.106-22.368-45.255-22.368-45.255" transform="translate(-2231.282 -919.893)" fill="#3a0d0d"/><path d="M2567.422,1390.8l-.04-15.242-8.772-1.547-10.677,9.194-.344,10.853c8.213,3.151,16.588.584,19.833-3.258" transform="translate(-2262.226 -1220.105)" fill="#c54b27"/></g></g><g transform="translate(285.482 153.907)"><g clip-path="url(#bc)"><rect width="19.689" height="17.844" transform="translate(0 0)" fill="url(#bd)"/></g></g><g transform="translate(0 0)"><g clip-path="url(#o)"><path d="M2401.642,1116.879c2.219-.892,3.421-1.612,3.913-4.718q.124-.51.253-1.025c3.11-12.363,11.89-20.2,21.915-16.462s15.637,17.691,12.245,29.98c-3.576,12.951-17.961,16.721-27.987,12.982-7.112-2.653-8.841-8.5-8.109-16.2a5.771,5.771,0,0,1-3.234-2.04,1.256,1.256,0,0,1,.073-1.937,2.783,2.783,0,0,1,.93-.578" transform="translate(-2131.358 -971.224)" fill="#c54b27"/><path d="M2503.09,1246.708l.33.087a1.121,1.121,0,0,0,1.365-.8l.531-2.025a1.12,1.12,0,0,0-.8-1.365l-.33-.087a1.121,1.121,0,0,0-1.365.8l-.531,2.025a1.121,1.121,0,0,0,.8,1.365" transform="translate(-2221.971 -1103.31)" fill="#131313"/><path d="M2518.032,1068.113l-1.491,4.014s-5.417-2.2-7.065.157-1.776,2.779-2.764,3.07a2.91,2.91,0,0,1-2.675-.359c-1.208-.891-1.193-1.133.126-3.583,1.431-2.656-5.3-3.021-3.736-9.768.967-4.18-2.214-7.515-3.717-7.322-.969.125-12.364,2.208-14.56-3.155-1.091-2.666.666-7.052,2.207-8.625a10.1,10.1,0,0,1,9.636-2.312l11.641,3.354,10.2,9.523Z" transform="translate(-2203.815 -923.378)" fill="#3a0d0d"/><path d="M2496.883,1208.109a.756.756,0,0,1,.129-1.43,7.323,7.323,0,0,1,7.927,3.449.756.756,0,0,1-1.312.752,5.841,5.841,0,0,0-6.268-2.727.754.754,0,0,1-.475-.043" transform="translate(-2216.795 -1071.336)" fill="#820900"/><path d="M2702.679,1320.212c-2.576,3.056-6.386,4.082-8.511,2.291s-1.759-5.72.817-8.776,6.387-4.082,8.511-2.291,1.759,5.72-.817,8.776" transform="translate(-2391.158 -1163.755)" fill="#c54b27"/><path d="M2730.617,1352.549a.567.567,0,0,1-.143-.95l3.565-3.07a.567.567,0,0,1,.74.86l-3.565,3.069a.567.567,0,0,1-.6.09" transform="translate(-2424.45 -1197.354)" fill="#820900"/><path d="M2432.737,1383.381a.568.568,0,0,1,.34-1.076c.049.01,4.934.986,8.158.41a.567.567,0,1,1,.2,1.117c-3.439.614-8.375-.372-8.584-.414a.572.572,0,0,1-.115-.036" transform="translate(-2159.937 -1227.458)" fill="#820900"/></g></g><g transform="translate(116.465 176.16)"><g clip-path="url(#bf)"><rect width="73.984" height="77.282" transform="translate(0)" fill="#45627b"/></g></g><g transform="translate(83.515 172.861)"><g clip-path="url(#bg)"><rect width="104.846" height="56.958" transform="translate(-0.285 104.788) rotate(-89.943)" fill="#45627b"/></g></g><g transform="translate(0 0)"><g clip-path="url(#o)"><g transform="translate(84.444 206.264)" opacity="0.05"><g clip-path="url(#bi)"><path d="M780.522,1843.939c5.19-.259,11.607-.092,16.542-2.514a187.28,187.28,0,0,1,2.593,20.288,11.731,11.731,0,0,1-4.206,1.342c-13.5,1.74-27.185,3.081-40.315.28-.479-2.678-.832-5.131-1.009-7.23a81.229,81.229,0,0,1-.1-11.34c8.7,1,17.748-.154,26.491-.825" transform="translate(-753.88 -1841.425)" fill="#fff"/></g></g><path d="M1108.33,1727.423q-.794-3.751-1.627-7.486-.418-1.869-.857-3.734l-.453-1.862c-.151-.62-.279-1.242-.418-1.864-.544-2.49-1.116-4.98-1.824-7.428a49.989,49.989,0,0,0-2.611-7.155,50.028,50.028,0,0,1,2.374,7.226c.626,2.463,1.115,4.96,1.578,7.465.113.627.242,1.253.343,1.881l.279,1.89q.268,1.892.509,3.791.488,3.794.931,7.6Z" transform="translate(-977.265 -1507.707)" fill="#007d7d"/></g></g><g transform="translate(82.241 186.564)"><g clip-path="url(#bj)"><rect width="94.885" height="103.448" transform="translate(-8.481 88.493) rotate(-86.365)" fill="#45627b"/></g></g><g transform="translate(0 0)"><g clip-path="url(#o)"><path d="M1179.9,2151.865a6.993,6.993,0,0,1,.3,1.012,10.328,10.328,0,0,1,.178,1.1,9.513,9.513,0,0,1-.021,2.258,9.34,9.34,0,0,1-.548,2.231,10.943,10.943,0,0,1-1.057,2.092,11.161,11.161,0,0,0,1.4-1.932,9.919,9.919,0,0,0,.946-2.238,10.467,10.467,0,0,0,.415-2.436,11.52,11.52,0,0,0,0-1.254,8.225,8.225,0,0,0-.174-1.3Z" transform="translate(-1046.72 -1910.414)" fill="#007d7d"/><path d="M1009.766,1724.019a26.784,26.784,0,0,1,1.514,2.792c.469.947.886,1.921,1.3,2.892.838,1.942,1.587,3.922,2.344,5.9,1.485,3.965,2.9,7.957,4.327,11.952l2.158,5.989c.724,2,1.481,3.982,2.247,5.968s1.552,3.969,2.432,5.924c.437.979.892,1.953,1.392,2.919a18.851,18.851,0,0,0,1.738,2.863l-.172-.37a2.393,2.393,0,0,0,.069.238c.022.062.044.126.07.183.048.118.1.23.16.339a4.272,4.272,0,0,0,.4.607,4.5,4.5,0,0,0,1.041.946,5.788,5.788,0,0,0,.595.341,4.473,4.473,0,0,0,.666.258c.44.118.8.184,1.186.259,1.51.279,3,.51,4.5.739,2.993.45,5.947,2.077,8.942,2.472,3,.362,6.534,2.249,9.54,2.563,1.5.164,3.194,1.283,4.7,1.424s2.9.765,4.414.854l-9.4-3.7-8.259-2.563c-2.976-.5-6.709-2.128-9.676-2.652-1.481-.262-2.968-.528-4.421-.832-.354-.076-.733-.161-1.021-.245a2.709,2.709,0,0,1-.384-.162,4.028,4.028,0,0,1-.381-.232,2.881,2.881,0,0,1-.616-.583,2.452,2.452,0,0,1-.219-.341c-.03-.058-.058-.117-.08-.174-.013-.029-.02-.055-.03-.081s-.019-.065-.011-.033l-.172-.37a17.322,17.322,0,0,1-1.531-2.588c-.468-.922-.9-1.874-1.323-2.835q-1.247-2.891-2.42-5.843l-4.608-11.851c-1.559-3.949-3.14-7.9-4.879-11.781q-1.289-2.919-2.762-5.76a35.555,35.555,0,0,0-3.369-5.423" transform="translate(-896.659 -1530.906)" fill="#007d7d"/><path d="M789.408,1981.33c-.765-.062-1.528-.134-2.288-.224s-1.518-.18-2.268-.305-1.494-.271-2.216-.467a7.8,7.8,0,0,1-2.036-.812,21.661,21.661,0,0,1-3.588-2.667c-.569-.494-1.12-1.016-1.676-1.528-.543-.53-1.094-1.05-1.623-1.6q-3.192-3.252-6.2-6.7-3.022-3.432-5.93-6.971c-1.958-2.342-3.871-4.723-5.764-7.12-1.912-2.382-3.758-4.816-5.618-7.24-1.837-2.44-3.671-4.885-5.417-7.39-.444-.619-.877-1.255-1.3-1.879a13.645,13.645,0,0,1-1.033-1.986c-.3-.693-.564-1.41-.806-2.134s-.467-1.457-.665-2.2a26.632,26.632,0,0,0,.98,4.516,12.514,12.514,0,0,0,.895,2.178c.381.678.757,1.344,1.151,2.007,1.577,2.643,3.255,5.221,5,7.75,1.728,2.542,3.559,5.011,5.4,7.472q2.792,3.668,5.723,7.228a143.1,143.1,0,0,0,12.569,13.528c1.139,1.044,2.3,2.072,3.534,3.018a22.132,22.132,0,0,0,3.959,2.541,8.662,8.662,0,0,0,2.288.7,19.77,19.77,0,0,0,2.317.273,41.582,41.582,0,0,0,4.615.011" transform="translate(-657.978 -1713.913)" fill="#007d7d"/><path d="M828.831,1056.419s-7.175-4.7-10.072-15.212,1.583-19.427,12.618-22.457c10.688-2.935,12.3-4.984,15.942-6.813,5.828-2.926,13.624-2.692,17.541,2.734,3.867,5.356,3.047,9.583,1.052,12.731-2.663,4.2-10.245,5.717-10.245,5.717Z" transform="translate(-726.285 -896.929)" fill="#820900"/></g></g><g transform="translate(105.355 169.066)"><g clip-path="url(#bl)"><rect width="25.054" height="15.876" transform="translate(0 0)" fill="url(#bm)"/></g></g><g transform="translate(0 0)"><g clip-path="url(#o)"><path d="M895.11,1405.619a6.913,6.913,0,0,0,7.266-3.243l1.711-16.4-9.356-10.381-8.824.425-2.24,17.264s-4.837,11.059,11.442,12.339" transform="translate(-784.089 -1221.507)" fill="#ff927e"/><path d="M903.012,1376.017l-.754,5.814c3.543,6.807,10.916,11.435,18.073,12.68l.86-8.538-9.355-10.381Z" transform="translate(-801.193 -1221.507)" fill="#ff7261"/><path d="M935.7,1138.075a6.661,6.661,0,0,1-3.332-5.663c-.009-.347-.019-.695-.03-1.046-.427-12.637-7.3-22.073-17.8-20.545-5.582.812-11.459,4.593-15.467,9.837-2.973,3.889-.02,8.3-.054,13.185a17.9,17.9,0,0,0,.2,2.721c1.987,13.816,13.673,20.189,21.6,19.2,7.471-.931,10.35-6.395,11.252-14.011a6.463,6.463,0,0,0,3.791-1.221c1.5-1.044-.151-2.457-.151-2.457" transform="translate(-797.182 -986.249)" fill="#ff927e"/><path d="M942.959,1326.394a8.7,8.7,0,0,0,5.217,4.333c4.017,1.4,4.726.225,6.33-.515s8.036-2.034,10.162-.724-.733,2.5-.733,2.5l-.976,3.008a9.575,9.575,0,0,1,.575,2.5c.185,1.61-.539,6.508-3.689,8.155s-18.789-5.4-20.583-6.83-4.718-4.5-4.417-7.4,1.076-8.181.886-10.347,7.228,5.311,7.228,5.311" transform="translate(-830.111 -1172.755)" fill="#820900"/><path d="M1129.819,1279.2l-.44.019a1.061,1.061,0,0,1-1.1-1.01l-.1-2.175a1.061,1.061,0,0,1,1.01-1.1l.44-.019a1.06,1.06,0,0,1,1.1,1.01l.1,2.175a1.061,1.061,0,0,1-1.01,1.1" transform="translate(-1001.808 -1132.103)" fill="#131313"/><path d="M852.838,1301.335c1.858,3.5,5.337,5.294,7.772,4s2.9-5.177,1.045-8.679-5.337-5.294-7.772-4-2.9,5.177-1.045,8.679" transform="translate(-756.3 -1147.489)" fill="#ff927e"/><path d="M882.562,1333.809a.626.626,0,0,0,.171-.091.617.617,0,0,0,.12-.864l-2.813-3.722a.617.617,0,1,0-.984.744l2.814,3.722a.616.616,0,0,0,.693.211" transform="translate(-780.479 -1180.036)" fill="#ff655b"/><path d="M1115.1,1417.32c-.837.8,1.3,2.329,2.888,2.816a10.01,10.01,0,0,0,4.887.313,19.964,19.964,0,0,0,.976-3.008c-1.109-.023-2.227-.021-3.335-.1-2.824-.195-4.57-.836-5.416-.024" transform="translate(-990.029 -1258.206)" fill="#820900"/><path d="M1115.123,1420.346l-.021.016c-.837.8,1.3,2.329,2.888,2.816a10.516,10.516,0,0,0,2.552.463c-.832-1.3-1.854-2.647-5.419-3.3" transform="translate(-990.029 -1261.249)" fill="#e2323a"/><path d="M869.676,1079.182l-.069,1.851s5.2.025,6.309,2.653,4.8,12.23,5.7,12.719c1.11.605,3.787-.311,4.439-.605,1.357-.61-2.363-10.214-3.129-12.865-.831-2.874,6.328.6,7.724-8.805.441-2.97.5-5.007,3.106-5.536.95-.193,8.682,3.286,12.647-2.141,4.544-6.219-2.576-11.753-2.576-11.753l-16.506.95-11.878,7.1Z" transform="translate(-772.2 -936.559)" fill="#820900"/><path d="M1096.438,1240.521a.822.822,0,0,0,.084-1.52,7.338,7.338,0,0,0-8.491,1.7.822.822,0,0,0,1.222,1.1,5.724,5.724,0,0,1,6.564-1.317.819.819,0,0,0,.621.035" transform="translate(-965.971 -1099.588)" fill="#820900"/><path d="M1119.692,1417.607a10.408,10.408,0,0,1-5.08-.325c-1.236-.379-3.083-1.472-3.336-2.538a.981.981,0,0,1,.284-.968c.729-.7,1.873-.548,3.455-.337.666.089,1.421.189,2.274.248.831.057,1.687.071,2.515.083l.8.013.513.011-.122.5a20.472,20.472,0,0,1-1,3.07l-.087.205Zm.1-3.015c-.838-.013-1.705-.026-2.558-.085-.879-.06-1.648-.163-2.326-.253-1.355-.18-2.333-.31-2.778.115a.164.164,0,0,0-.053.185c.138.582,1.54,1.562,2.777,1.942a9.616,9.616,0,0,0,4.473.339,19.375,19.375,0,0,0,.742-2.239l-.277,0" transform="translate(-986.771 -1254.959)" fill="#ff655b"/></g></g><g transform="translate(91.423 168.803)"><g clip-path="url(#bo)"><rect width="26.353" height="22.104" transform="translate(0 0)" fill="url(#bp)"/></g></g><g transform="translate(0 0)"><g clip-path="url(#o)"><path d="M820.794,1575.29a16.941,16.941,0,0,0,2.221,2.978,25.921,25.921,0,0,0,2.707,2.578,33.541,33.541,0,0,0,3.07,2.136q1.6.96,3.238,1.824c1.1.565,2.212,1.1,3.331,1.621,1.13.5,2.252,1.006,3.4,1.454,1.14.465,2.294.9,3.45,1.318l.871.305.219.076a1.771,1.771,0,0,0,.258.066,1.37,1.37,0,0,0,.53,0,1.286,1.286,0,0,0,.831-.567,1.321,1.321,0,0,0,.164-.926,1.071,1.071,0,0,1-1.423,1.078,1.38,1.38,0,0,1-.179-.075l-.2-.1-.822-.419-3.3-1.63c-2.2-1.086-4.4-2.149-6.555-3.287-1.088-.551-2.154-1.137-3.208-1.739s-2.082-1.24-3.083-1.91c-.969-.692-1.936-1.452-2.859-2.242a28.162,28.162,0,0,1-2.654-2.531" transform="translate(-728.854 -1398.837)" fill="#b23b1f"/><path d="M1110.454,1582.765q1.366,1.2,2.707,2.425c.447.409.891.822,1.329,1.244.219.212.436.425.649.648.107.113.211.224.316.357a1.274,1.274,0,0,1,.081.115.473.473,0,0,1,.049.106.286.286,0,0,1,.006.131.487.487,0,0,1-.028.079.678.678,0,0,1-.094.136c-.03.036-.058.064-.087.095a7.332,7.332,0,0,1-.709.608q-.364.281-.745.536a10.023,10.023,0,0,1-1.6.895,3.324,3.324,0,0,1-.895.256,1.1,1.1,0,0,1-.48-.05.7.7,0,0,1-.211-.13l-.167-.154a17.36,17.36,0,0,1-1.267-1.3,17.309,17.309,0,0,0,1.337,1.22l.175.143a.567.567,0,0,0,.178.1.956.956,0,0,0,.415.017,3.161,3.161,0,0,0,.827-.291,9.767,9.767,0,0,0,1.505-.961q.357-.271.695-.564a7.011,7.011,0,0,0,.632-.609c.022-.026.046-.052.062-.076a.29.29,0,0,0,.024-.034l.007-.012,0-.006,0,0,0,.005a.051.051,0,0,0-.008.026s0,0,0,.011a.146.146,0,0,0,0,.026.267.267,0,0,0,.006.039c.006.019,0,.01,0,0s-.032-.042-.054-.066c-.089-.1-.2-.2-.3-.3-.217-.2-.443-.4-.67-.594-.456-.391-.922-.774-1.389-1.154q-1.4-1.14-2.832-2.252h0a.426.426,0,0,1,.524-.672l.019.016" transform="translate(-985.05 -1405.38)" fill="#a22026"/></g></g><g transform="translate(117.585 178.288)"><g clip-path="url(#br)"><rect width="8.849" height="6.609" fill="url(#bs)"/></g></g></g></g></g></svg>