<svg xmlns="http://www.w3.org/2000/svg" xmlns:xlink="http://www.w3.org/1999/xlink" width="395.174" height="292.452" viewBox="0 0 395.174 292.452"><defs><clipPath id="a"><rect width="342.256" height="257.732" fill="#ffb338"/></clipPath><clipPath id="c"><rect width="35.921" height="35.022" fill="#ffb338"/></clipPath><clipPath id="d"><rect width="19.658" height="19.166" fill="#ffb338"/></clipPath><clipPath id="e"><rect width="19.657" height="19.166" fill="#ffb338"/></clipPath><clipPath id="g"><rect width="35.921" height="35.023" fill="#ffb338"/></clipPath><clipPath id="h"><rect width="116.069" height="113.168" fill="#ffb338"/></clipPath><clipPath id="i"><rect width="160.292" height="156.285" fill="#ffb338"/></clipPath><clipPath id="j"><rect width="91.262" height="88.98" fill="#ffb338"/></clipPath><clipPath id="k"><rect width="85.902" height="83.754" fill="#ffb338"/></clipPath><clipPath id="l"><rect width="53.054" height="51.727" fill="#ffb338"/></clipPath><clipPath id="m"><rect width="386.756" height="292.452" fill="none"/></clipPath></defs><g transform="translate(8963.418 2441)"><g transform="translate(-8963.418 -2427.238)" opacity="0.35"><g clip-path="url(#a)"><g clip-path="url(#a)"><g transform="translate(148.185)" style="mix-blend-mode:multiply;isolation:isolate"><g clip-path="url(#c)"><path d="M118.857,17.511a17.966,17.966,0,0,0-35.921,0,17.966,17.966,0,0,0,35.921,0" transform="translate(-82.936 -0.001)" fill="#ffb338"/></g></g><g transform="translate(322.598 146.4)" style="mix-blend-mode:multiply;isolation:isolate"><g clip-path="url(#d)"><path d="M200.209,91.519a9.832,9.832,0,1,0-9.829,9.582,9.708,9.708,0,0,0,9.829-9.582" transform="translate(-180.551 -81.937)" fill="#ffb338"/></g></g><g transform="translate(56.374 7.034)" style="mix-blend-mode:multiply;isolation:isolate"><g clip-path="url(#e)"><path d="M51.209,13.519a9.832,9.832,0,0,0-19.658,0,9.832,9.832,0,0,0,19.658,0" transform="translate(-31.552 -3.937)" fill="#ffb338"/></g></g><g transform="translate(140.351 226.804)" style="mix-blend-mode:multiply;isolation:isolate"><g clip-path="url(#e)"><path d="M98.209,136.519A9.832,9.832,0,1,0,88.38,146.1a9.708,9.708,0,0,0,9.829-9.582" transform="translate(-78.552 -126.937)" fill="#ffb338"/></g></g><g transform="translate(0 141.152)" style="mix-blend-mode:multiply;isolation:isolate"><g clip-path="url(#g)"><path d="M35.921,96.511A17.741,17.741,0,0,0,17.96,79a17.517,17.517,0,1,0,0,35.024,17.741,17.741,0,0,0,17.96-17.512" transform="translate(0 -79)" fill="#ffb338"/></g></g><g transform="translate(14.806 34.713)" style="mix-blend-mode:multiply;isolation:isolate"><g clip-path="url(#h)"><path d="M124.356,76.012c0-31.25-25.983-56.584-58.035-56.584S8.287,44.762,8.287,76.012,34.27,132.6,66.32,132.6s58.035-25.334,58.035-56.584" transform="translate(-8.286 -19.428)" fill="#ffb338"/></g></g><g transform="translate(155.402 23.428)" style="mix-blend-mode:multiply;isolation:isolate"><g clip-path="url(#i)"><path d="M247.267,91.254c0-43.157-35.883-78.141-80.146-78.141S86.975,48.1,86.975,91.254,122.858,169.4,167.121,169.4s80.146-34.986,80.146-78.143" transform="translate(-86.975 -13.111)" fill="#ffb338"/></g></g><g transform="translate(44.298 168.752)" style="mix-blend-mode:multiply;isolation:isolate"><g clip-path="url(#j)"><path d="M116.054,138.937c0-24.571-20.43-44.49-45.632-44.49s-45.63,19.919-45.63,44.49,20.43,44.49,45.63,44.49,45.632-19.919,45.632-44.49" transform="translate(-24.792 -94.446)" fill="#ffb338"/></g></g><g transform="translate(173.837 156.178)" style="mix-blend-mode:multiply;isolation:isolate"><g clip-path="url(#k)"><path d="M183.194,129.287c0-23.128-19.229-41.878-42.951-41.878s-42.95,18.75-42.95,41.878,19.229,41.878,42.95,41.878,42.951-18.75,42.951-41.878" transform="translate(-97.292 -87.409)" fill="#ffb338"/></g></g><g transform="translate(286.247 167.642)" style="mix-blend-mode:multiply;isolation:isolate"><g clip-path="url(#l)"><path d="M213.26,119.688c0-14.283-11.876-25.863-26.526-25.863s-26.528,11.58-26.528,25.863,11.877,25.863,26.528,25.863,26.526-11.578,26.526-25.863" transform="translate(-160.206 -93.826)" fill="#ffb338"/></g></g></g></g></g><g transform="translate(-8955 -2441)"><g clip-path="url(#m)"><path d="M103.557,58.069c-.841,22,.806,39.934,3.679,40.043a.8.8,0,0,0,.4-.11l68.815-10.3a8.118,8.118,0,0,0,.057.917l.292,2.257a7.8,7.8,0,0,0,7.432,6.789,7.56,7.56,0,0,0,1.306-.06l19.505-2.531a7.8,7.8,0,0,0,6.732-8.734l-.295-2.262a7.856,7.856,0,0,0-.373-1.56l16.668-2.5v-.013a1.224,1.224,0,0,0,.4.08c1.971.074,3.742-4.352,3.952-9.885s-1.217-10.082-3.189-10.157a1.293,1.293,0,0,0-.394.047L110.764,18.632a.857.857,0,0,0-.491-.209c-2.872-.107-5.879,17.643-6.716,39.646m77,29.023,26.361-3.942a3.591,3.591,0,0,1,.526,1.456l.3,2.275a3.442,3.442,0,0,1,.026.614,3.728,3.728,0,0,1-3.248,3.548l-19.5,2.533a4.511,4.511,0,0,1-.636.03,3.733,3.733,0,0,1-3.554-3.251l-.293-2.242a4.14,4.14,0,0,1-.027-.646,2.932,2.932,0,0,1,.047-.375" fill="#1f353e"/><line x1="66.472" y1="24.461" transform="translate(29.977 4.666)" fill="none" stroke="#feb338" stroke-linecap="round" stroke-width="9.332"/><line x1="68.143" y2="19.329" transform="translate(26.106 86.896)" fill="none" stroke="#feb338" stroke-linecap="round" stroke-width="9.332"/><line x1="66.212" y1="2.522" transform="translate(26.241 55.186)" fill="none" stroke="#feb338" stroke-linecap="round" stroke-width="9.332"/><path d="M293.319,111.943A35.726,35.726,0,1,1,329.237,76.4a35.7,35.7,0,0,1-35.918,35.544" fill="#1f353e"/><path d="M244.032,212.683l3.7-45.114.829-4.847S220.534,198.6,214.5,195.516c-1.258-.653-17.639-32.11-19.492-38.414s-9.563-31.009-7.551-53.057,24.224-3,24.224-3l15.906,42.444,27.257-28.611,3.168,1.586s24,10.868,35.507,11.78c11.506-.912,35.506-11.78,35.506-11.78s27.434,12.322,33.473,15.409c1.256.654,14.522,34.564,16.377,40.868s9.564,31.008,7.551,53.055-27.107,3-27.107,3l-6.05-41.539L339.3,167.569l3.694,45.03Z" fill="#1f353e"/><line x1="46.102" y1="46.102" transform="translate(54.764 88.613)" fill="none" stroke="#1f353e" stroke-linecap="round" stroke-width="8.504"/><line y1="46.102" x2="46.1" transform="translate(95.767 88.613)" fill="none" stroke="#1f353e" stroke-linecap="round" stroke-width="8.504"/><path d="M98.595,134.711l-2.828,0,1.412,1.412Z" fill="#1f353e"/><path d="M9.337,243.529V144.743H184.019v21.921h10.236l-.025-18.377a14.128,14.128,0,0,0-3.582-9.451,12.665,12.665,0,0,0-9.371-4.243c-.014,0-.034,0-.056,0L98.6,134.71l-1.416,1.416,2.55,2.55-2.55-2.55-2.55,2.55,2.55-2.55-1.412-1.412-82.822.115a12.63,12.63,0,0,0-9.364,4.239A14.078,14.078,0,0,0,0,148.513a1.453,1.453,0,0,1,0,.167l.124,91.5a14.116,14.116,0,0,0,3.583,9.439,12.659,12.659,0,0,0,9.353,4.252.034.034,0,0,1,.017-.005l.016.008,60.541-.088a12.339,12.339,0,0,0-.1,1.531l.036,23.018-16.488.028.027,13.467,80.449-.121-.02-13.476-14.7.028-.035-23.015a12.735,12.735,0,0,0-.105-1.527l18.917-.026v-10.16Zm76.55,34.784-.042-23.018a.2.2,0,0,1,.191-.188l24.26-.037a.194.194,0,0,1,.193.189l.034,23.012Z" fill="#1f353e"/><path d="M147.364,166.664H168.25V156.28H26.106v72.993H141.614V172.414a5.75,5.75,0,0,1,5.75-5.75" fill="#ffb338" stroke="#feb338" stroke-width="1"/><rect width="163.69" height="117.012" rx="5" transform="translate(153.891 175.44)" fill="#1f353e"/><path d="M235.736,233.97a31.863,31.863,0,1,1-31.864-31.864,31.864,31.864,0,0,1,31.864,31.864" fill="#1f353e"/><path d="M235.736,233.97a31.863,31.863,0,1,1-31.864-31.864A31.864,31.864,0,0,1,235.736,233.97Z" fill="none" stroke="#fff" stroke-width="6"/><rect width="63.525" height="16.586" transform="translate(241.846 192.776)" fill="#fff"/><path d="M308.275,170.826H298.138l2.2-71.734h5.736Z" fill="#1f353e"/><path d="M310.7,94.077c0,1.549-3.357,2.8-7.5,2.8s-7.5-1.255-7.5-2.8,3.355-2.8,7.5-2.8,7.5,1.256,7.5,2.8" fill="#1f353e"/><rect width="14.648" height="14.65" transform="translate(255.016 165.268)" fill="#1f353e"/><rect width="14.648" height="14.65" transform="translate(277.696 165.268)" fill="#1f353e"/></g></g></g></svg>