<svg xmlns="http://www.w3.org/2000/svg" xmlns:xlink="http://www.w3.org/1999/xlink" width="1030" height="207.17" viewBox="0 0 1030 207.17"><defs><clipPath id="a"><rect width="1030" height="207.17" fill="none"/></clipPath><clipPath id="c"><rect width="177.508" height="112.636" fill="none"/></clipPath><clipPath id="d"><rect width="177.509" height="112.636" fill="none"/></clipPath></defs><g transform="translate(-285 -9092.499)"><g transform="translate(0 194)"><g transform="translate(285 8898.499)"><g clip-path="url(#a)"><rect width="814.506" height="15.611" transform="translate(215.496 167.901)" fill="#e6e6e6"/><g transform="translate(0 0)"><g clip-path="url(#a)"><path d="M221.538,133.4H16.094A15.343,15.343,0,0,1,.75,118.058V91.344A15.342,15.342,0,0,1,16.094,76H221.538a15.343,15.343,0,0,1,15.344,15.342v26.714A15.344,15.344,0,0,1,221.538,133.4" transform="translate(0.714 72.305)" fill="#fff"/><path d="M7.863-.75H228.269a8.623,8.623,0,0,1,8.613,8.613V49.536a8.623,8.623,0,0,1-8.613,8.613H7.863A8.623,8.623,0,0,1-.75,49.536V7.863A8.623,8.623,0,0,1,7.863-.75Zm220.406,57.4a7.121,7.121,0,0,0,7.113-7.113V7.863A7.121,7.121,0,0,0,228.269.75H7.863A7.121,7.121,0,0,0,.75,7.863V49.536a7.121,7.121,0,0,0,7.113,7.113Z" transform="translate(1.463 148.307)" fill="#ffc93c"/><g transform="translate(32.138 35.981)" style="mix-blend-mode:multiply;isolation:isolate"><g clip-path="url(#c)"><path d="M16.469,105.856H90.664l14.559,25.219,14.561-25.219h74.192V18.439H16.469Z" transform="translate(-16.469 -18.439)" fill="#ffc93c"/></g></g><path d="M41.009,42.508a15.879,15.879,0,0,1-6.426-1.3,14.434,14.434,0,0,1-5.127-3.791c-3-3.455-4.585-8.4-4.585-14.309S26.456,12.257,29.456,8.8a14.435,14.435,0,0,1,5.127-3.792,16.623,16.623,0,0,1,12.874,0A14.379,14.379,0,0,1,52.583,8.8c2.986,3.448,4.565,8.4,4.565,14.308S55.569,33.972,52.583,37.42a14.377,14.377,0,0,1-5.125,3.791A15.951,15.951,0,0,1,41.009,42.508Zm0-38.044c-9.348,0-15.388,7.319-15.388,18.647s6.04,18.647,15.388,18.647S56.4,34.438,56.4,23.111,50.357,4.464,41.009,4.464Zm0,30.845a6.245,6.245,0,0,1-5.462-2.947c-1.366-2.07-2.059-5.183-2.059-9.252s.693-7.18,2.059-9.25a6.245,6.245,0,0,1,5.462-2.946,6.624,6.624,0,0,1,3.094.715,6.522,6.522,0,0,1,2.414,2.231c1.371,2.067,2.066,5.179,2.066,9.251s-.7,7.185-2.066,9.252A6.522,6.522,0,0,1,44.1,34.594,6.623,6.623,0,0,1,41.009,35.309Zm0-23.645a5.5,5.5,0,0,0-4.836,2.61c-1.284,1.946-1.935,4.919-1.935,8.837s.651,6.893,1.935,8.839a5.829,5.829,0,0,0,9.719,0c1.288-1.942,1.941-4.915,1.941-8.838s-.653-6.894-1.941-8.836A5.552,5.552,0,0,0,41.009,11.665Z" transform="translate(24.018 3.89)"/><path d="M43.477,4.038H60.1V41.569H50.834V11.617H43.477Zm15.868.75H44.227v6.08h7.357V40.819h7.762Z" transform="translate(41.719 4.198)"/><path d="M61.578,28.822a5.452,5.452,0,0,1-3.877-1.56,5.524,5.524,0,0,1-1.6-3.964,5.472,5.472,0,0,1,10.944,0,5.524,5.524,0,0,1-1.6,3.964A5.452,5.452,0,0,1,61.578,28.822Zm0-10.194A4.542,4.542,0,0,0,56.856,23.3a4.722,4.722,0,1,0,9.444,0A4.542,4.542,0,0,0,61.578,18.628Z" transform="translate(53.734 17.365)"/><path d="M356.628,133.4H151.184a15.343,15.343,0,0,1-15.344-15.344V91.344A15.342,15.342,0,0,1,151.184,76H356.628a15.343,15.343,0,0,1,15.344,15.342v26.714A15.344,15.344,0,0,1,356.628,133.4" transform="translate(129.232 72.305)" fill="#fff"/><path d="M7.863-.75H228.269a8.623,8.623,0,0,1,8.613,8.613V49.537a8.622,8.622,0,0,1-8.612,8.612H7.863A8.623,8.623,0,0,1-.75,49.536V7.863A8.623,8.623,0,0,1,7.863-.75Zm220.407,57.4a7.12,7.12,0,0,0,7.112-7.112V7.863A7.121,7.121,0,0,0,228.269.75H7.863A7.121,7.121,0,0,0,.75,7.863V49.536a7.121,7.121,0,0,0,7.113,7.113Z" transform="translate(265.071 148.307)" fill="#ffc93c"/><g transform="translate(293.619 33.866)" style="mix-blend-mode:multiply;isolation:isolate"><g clip-path="url(#d)"><path d="M150.469,104.772h74.194l14.559,25.219,14.561-25.219h74.193V17.355H150.469Z" transform="translate(-150.469 -17.355)" fill="#ffc93c"/></g></g><path d="M168.209,43.225a15.879,15.879,0,0,1-6.426-1.3,14.434,14.434,0,0,1-5.127-3.791c-3-3.455-4.585-8.4-4.585-14.309s1.585-10.853,4.585-14.308a14.435,14.435,0,0,1,5.127-3.792,16.623,16.623,0,0,1,12.874,0,14.379,14.379,0,0,1,5.125,3.792c2.986,3.448,4.565,8.4,4.565,14.308s-1.578,10.861-4.565,14.309a14.377,14.377,0,0,1-5.125,3.792A15.951,15.951,0,0,1,168.209,43.225Zm0-38.044c-9.348,0-15.388,7.319-15.388,18.647s6.04,18.647,15.388,18.647S183.6,35.155,183.6,23.828,177.557,5.181,168.209,5.181Zm0,30.845a6.245,6.245,0,0,1-5.462-2.947c-1.366-2.07-2.059-5.183-2.059-9.252s.693-7.18,2.059-9.25a6.245,6.245,0,0,1,5.462-2.946,6.624,6.624,0,0,1,3.094.715,6.522,6.522,0,0,1,2.414,2.231c1.371,2.067,2.066,5.179,2.066,9.251s-.7,7.185-2.066,9.252a6.522,6.522,0,0,1-2.414,2.231A6.623,6.623,0,0,1,168.209,36.026Zm0-23.645a5.5,5.5,0,0,0-4.836,2.61c-1.284,1.946-1.935,4.919-1.935,8.837s.651,6.893,1.935,8.839a5.829,5.829,0,0,0,9.719,0c1.288-1.942,1.941-4.915,1.941-8.838s-.653-6.895-1.941-8.836A5.552,5.552,0,0,0,168.209,12.382Z" transform="translate(145.03 4.572)"/><path d="M200.743,42.592H172.2V36.539l14.3-13.511c3.086-2.937,3.719-4.724,3.719-6.5,0-3.469-3-4.2-5.51-4.2a8.627,8.627,0,0,0-7.316,3.523l-.208.288-6.822-4.4.217-.318a15.318,15.318,0,0,1,6.032-5.1,20.324,20.324,0,0,1,8.885-1.9,16.2,16.2,0,0,1,10.137,3.016,10.118,10.118,0,0,1,3.9,8.236,12.129,12.129,0,0,1-1.18,5.516,22.216,22.216,0,0,1-5.088,6.372L185.5,34.907h15.247Zm-27.8-.75h27.045V35.657H183.609l9.145-8.635c5.023-4.663,6.031-7.8,6.031-11.34,0-6.38-5.215-10.5-13.286-10.5-6.035,0-11.14,2.31-14.076,6.351L177,15.126a9.374,9.374,0,0,1,7.71-3.549,7.339,7.339,0,0,1,4.634,1.284,4.424,4.424,0,0,1,1.626,3.663c0,1.973-.672,3.927-3.953,7.049l-14.07,13.29Z" transform="translate(162.578 4.572)"/><path d="M194.379,29.539a5.452,5.452,0,0,1-3.877-1.56,5.524,5.524,0,0,1-1.6-3.964,5.472,5.472,0,0,1,10.944,0,5.524,5.524,0,0,1-1.6,3.964A5.452,5.452,0,0,1,194.379,29.539Zm0-10.194a4.542,4.542,0,0,0-4.722,4.669,4.722,4.722,0,1,0,9.444,0A4.542,4.542,0,0,0,194.379,19.345Z" transform="translate(180.075 18.047)"/><path d="M626.807,133.4H421.362a15.344,15.344,0,0,1-15.343-15.344V91.344A15.343,15.343,0,0,1,421.362,76H626.807a15.342,15.342,0,0,1,15.344,15.342v26.714A15.343,15.343,0,0,1,626.807,133.4" transform="translate(386.269 72.305)" fill="#fff"/><path d="M7.863-.75H228.269a8.623,8.623,0,0,1,8.613,8.613V49.537a8.622,8.622,0,0,1-8.612,8.612H7.863A8.623,8.623,0,0,1-.75,49.536V7.863A8.623,8.623,0,0,1,7.863-.75Zm220.407,57.4a7.12,7.12,0,0,0,7.112-7.112V7.863A7.121,7.121,0,0,0,228.269.75H7.863A7.121,7.121,0,0,0,.75,7.863V49.536a7.121,7.121,0,0,0,7.113,7.113Z" transform="translate(792.288 148.307)" fill="#ffc93c"/><g transform="translate(820.485 35.981)" style="mix-blend-mode:multiply;isolation:isolate"><g clip-path="url(#d)"><path d="M420.469,105.856h74.194l14.559,25.219,14.561-25.219h74.193V18.439H420.469Z" transform="translate(-420.469 -18.439)" fill="#ffc93c"/></g></g><path d="M436.662,44.308a15.878,15.878,0,0,1-6.426-1.3,14.434,14.434,0,0,1-5.127-3.791c-3-3.455-4.585-8.4-4.585-14.309s1.585-10.853,4.585-14.308a14.436,14.436,0,0,1,5.127-3.792,16.623,16.623,0,0,1,12.874,0,14.379,14.379,0,0,1,5.125,3.792c2.986,3.448,4.565,8.4,4.565,14.308s-1.578,10.861-4.565,14.309a14.377,14.377,0,0,1-5.125,3.792A15.951,15.951,0,0,1,436.662,44.308Zm0-38.044c-9.348,0-15.388,7.319-15.388,18.647s6.04,18.647,15.388,18.647,15.388-7.319,15.388-18.647S446.01,6.264,436.662,6.264Zm0,30.845a6.245,6.245,0,0,1-5.462-2.947c-1.366-2.07-2.059-5.183-2.059-9.252s.693-7.18,2.059-9.25a6.245,6.245,0,0,1,5.462-2.946,6.624,6.624,0,0,1,3.094.715,6.522,6.522,0,0,1,2.414,2.231c1.371,2.067,2.066,5.179,2.066,9.251s-.7,7.185-2.066,9.252a6.522,6.522,0,0,1-2.414,2.231A6.623,6.623,0,0,1,436.662,37.109Zm0-23.645a5.5,5.5,0,0,0-4.836,2.61c-1.284,1.946-1.935,4.919-1.935,8.837s.651,6.893,1.935,8.839a5.5,5.5,0,0,0,4.836,2.61,5.552,5.552,0,0,0,4.883-2.611c1.288-1.942,1.941-4.915,1.941-8.838s-.653-6.895-1.941-8.836A5.552,5.552,0,0,0,436.662,13.465Z" transform="translate(400.425 5.603)"/><path d="M468.8,43.369h-9.051V35.643h-19.81V29.417L457.463,5.838h9.858L451.242,27.958h8.769V21.076H468.8v6.882h5.991v7.685H468.8Zm-8.3-.75h7.551V34.893h5.991V28.708h-5.991V21.826h-7.288v6.882H449.77L465.849,6.588H457.84L440.687,29.665v5.228H460.5Z" transform="translate(418.894 5.911)"/><path d="M465.927,30.622a5.452,5.452,0,0,1-3.877-1.56,5.524,5.524,0,0,1-1.6-3.964,5.472,5.472,0,0,1,10.944,0,5.524,5.524,0,0,1-1.6,3.964A5.452,5.452,0,0,1,465.927,30.622Zm0-10.194A4.542,4.542,0,0,0,461.2,25.1a4.722,4.722,0,1,0,9.444,0A4.542,4.542,0,0,0,465.927,20.428Z" transform="translate(438.414 19.078)"/><path d="M491.717,133.4H286.272a15.344,15.344,0,0,1-15.344-15.344V91.344A15.343,15.343,0,0,1,286.272,76H491.717a15.342,15.342,0,0,1,15.344,15.342v26.714A15.343,15.343,0,0,1,491.717,133.4" transform="translate(257.75 72.305)" fill="#fff"/><path d="M7.863-.75H228.269a8.623,8.623,0,0,1,8.613,8.613V49.537a8.622,8.622,0,0,1-8.612,8.612H7.863A8.623,8.623,0,0,1-.75,49.536V7.863A8.623,8.623,0,0,1,7.863-.75Zm220.407,57.4a7.12,7.12,0,0,0,7.112-7.112V7.863A7.121,7.121,0,0,0,228.269.75H7.863A7.121,7.121,0,0,0,.75,7.863V49.536a7.121,7.121,0,0,0,7.113,7.113Z" transform="translate(528.68 148.307)" fill="#ffc93c"/><g transform="translate(557.052 35.981)" style="mix-blend-mode:multiply;isolation:isolate"><g clip-path="url(#d)"><path d="M285.469,105.856h74.194l14.559,25.219,14.561-25.219h74.193V18.439H285.469Z" transform="translate(-285.468 -18.439)" fill="#ffc93c"/></g></g><path d="M307.37,42.508a15.879,15.879,0,0,1-6.426-1.3,14.434,14.434,0,0,1-5.127-3.791c-3-3.455-4.585-8.4-4.585-14.309s1.585-10.853,4.585-14.308a14.435,14.435,0,0,1,5.127-3.792,16.623,16.623,0,0,1,12.874,0A14.379,14.379,0,0,1,318.944,8.8c2.986,3.448,4.565,8.4,4.565,14.308s-1.578,10.861-4.565,14.309a14.377,14.377,0,0,1-5.125,3.791A15.951,15.951,0,0,1,307.37,42.508Zm0-38.044c-9.348,0-15.388,7.319-15.388,18.647s6.04,18.647,15.388,18.647,15.388-7.319,15.388-18.647S316.718,4.464,307.37,4.464Zm0,30.845a6.245,6.245,0,0,1-5.462-2.947c-1.366-2.07-2.059-5.183-2.059-9.252s.693-7.18,2.059-9.25a6.245,6.245,0,0,1,5.462-2.946,6.624,6.624,0,0,1,3.094.715,6.522,6.522,0,0,1,2.414,2.231c1.371,2.067,2.066,5.179,2.066,9.251s-.7,7.185-2.066,9.252a6.522,6.522,0,0,1-2.414,2.231A6.623,6.623,0,0,1,307.37,35.309Zm0-23.645a5.5,5.5,0,0,0-4.836,2.61c-1.284,1.946-1.935,4.919-1.935,8.837s.651,6.893,1.935,8.839a5.828,5.828,0,0,0,9.719,0c1.288-1.942,1.941-4.915,1.941-8.838s-.653-6.895-1.941-8.836A5.552,5.552,0,0,0,307.37,11.665Z" transform="translate(277.422 3.89)"/><path d="M311.354,4.038h26.5v6.033L329.9,19.134a12.429,12.429,0,0,1,7.03,3.647,10.429,10.429,0,0,1,2.606,7.169,11.19,11.19,0,0,1-3.825,8.544c-2.765,2.424-6.841,3.705-11.788,3.705-5.362,0-10.687-1.5-14.244-4.008L309.41,38l3.659-7.2.357.269A17.607,17.607,0,0,0,323.708,34.3a8.673,8.673,0,0,0,4.828-1.177,3.646,3.646,0,0,0,1.682-3.176c0-2.75-2.19-4.144-6.509-4.144h-4.262V19.665l7.109-8.048h-15.2Zm25.746.75h-25v6.08h16.114L320.2,19.949v5.107h3.512c6,0,7.259,2.662,7.259,4.894a4.413,4.413,0,0,1-2.01,3.8,9.4,9.4,0,0,1-5.249,1.306,19.483,19.483,0,0,1-5.76-.885,16.839,16.839,0,0,1-4.613-2.238l-2.962,5.831a25.088,25.088,0,0,0,13.545,3.687c10.971,0,14.863-6.194,14.863-11.5,0-5.5-3.523-9.216-9.667-10.192l-.672-.107L337.1,9.788Z" transform="translate(294.817 4.198)"/><path d="M333.217,28.822a5.451,5.451,0,0,1-3.877-1.56,5.524,5.524,0,0,1-1.6-3.964,5.472,5.472,0,0,1,10.944,0,5.524,5.524,0,0,1-1.6,3.964A5.452,5.452,0,0,1,333.217,28.822Zm0-10.194a4.542,4.542,0,0,0-4.722,4.669,4.722,4.722,0,1,0,9.444,0A4.542,4.542,0,0,0,333.217,18.628Z" transform="translate(312.159 17.365)"/></g></g></g></g><text transform="translate(347.683 8962)" fill="#12263f" font-size="16" font-family="Roboto-Regular, Roboto"><tspan x="11.624" y="17">Desarrollo de </tspan><tspan x="29.456" y="41">las 4 P’s</tspan></text><text transform="translate(595.683 8962)" fill="#12263f" font-size="16" font-family="Roboto-Regular, Roboto"><tspan x="15.256" y="17">Modelo de las 5 </tspan><tspan x="10.354" y="41">fuerzas de Porter </tspan></text><text transform="translate(848.683 8951)" fill="#12263f" font-size="16" font-family="Roboto-Regular, Roboto"><tspan x="3.116" y="17">Extendieron el modelo </tspan><tspan x="27.069" y="38">de las 4P’s a un </tspan><tspan x="27.795" y="59">modelo de 7P’s</tspan></text><text transform="translate(1126 8962)" fill="#12263f" font-size="16" font-family="Roboto-Regular, Roboto"><tspan x="49.69" y="17">1993 </tspan><tspan x="3.151" y="41">Robert Lauterborn </tspan></text><text transform="translate(311.683 9065.669)" fill="#12263f" font-size="16" font-family="Roboto-Regular, Roboto"><tspan x="7.717" y="17" xml:space="preserve">1960  Jerome McCarthy</tspan></text><text transform="translate(573.683 9065.669)" fill="#12263f" font-size="16" font-family="Roboto-Regular, Roboto"><tspan x="25.51" y="17">1979 Michel Porter</tspan></text><text transform="translate(820.683 9053.669)" fill="#12263f" font-size="16" font-family="Roboto-Regular, Roboto"><tspan x="40.999" y="17">Principios de los 80</tspan><tspan x="7.077" y="39">Bernard Booms y Mary Bitner </tspan></text><text transform="translate(1100.683 9055.169)" fill="#12263f" font-size="16" font-family="Roboto-Regular, Roboto"><tspan x="10.631" y="17">Evolución de las 4 P’s a </tspan><tspan x="63.795" y="39">las 4 C’s</tspan></text></g></g></svg>