<svg xmlns="http://www.w3.org/2000/svg" xmlns:xlink="http://www.w3.org/1999/xlink" width="162.5" height="122.179" viewBox="0 0 162.5 122.179"><defs><clipPath id="a"><rect width="162.5" height="122.179" fill="none"/></clipPath></defs><g clip-path="url(#a)"><path d="M412.28,21.325l-1.422-.391a5.348,5.348,0,0,0,.331-1.843V10.653a5.373,5.373,0,0,0-5.373-5.373H353.855l-4.639-1.274-3.283,2.1c-.066.041-.133.081-.2.126l-.031.019h0a5.363,5.363,0,0,0-2.3,4.4v8.439a5.373,5.373,0,0,0,5.373,5.373h57.031a5.344,5.344,0,0,0,3.068-.966h0Z" transform="translate(-252.327 -2.943)" fill="#8c3454"/><path d="M391.044,73.208v9.017l10.54-10.54Z" transform="translate(-287.326 -52.672)" fill="#8c3454"/><path d="M353.855,5.28l-4.639-1.274-3.283,2.1c-.066.041-.133.081-.2.126l-.031.019h0a5.362,5.362,0,0,0-2.3,4.4v8.439a5.343,5.343,0,0,0,.848,2.89l35.581-16.7Z" transform="translate(-252.327 -2.943)" fill="#a83b5d"/><path d="M419.536,19.184H362.5a5.373,5.373,0,0,1-5.373-5.373V5.373A5.373,5.373,0,0,1,362.5,0h57.031a5.373,5.373,0,0,1,5.373,5.373v8.439a5.373,5.373,0,0,1-5.373,5.373" transform="translate(-262.408)" fill="#ff5050"/><path d="M398.237,66.016v9.017l10.54-10.54Z" transform="translate(-292.611 -47.387)" fill="#ff5050"/><path d="M376.739,21.2l-2.365-.344-1.041-3.205h-1.478l-1.509,3.059-3.376.49,2.443,2.381-.577,3.362h1.478l1.568-1.573,2.992,1.573h1.478l-1.324-4.074Z" transform="translate(-269.637 -12.966)" fill="#a83b5d"/><path d="M386.744,42.014l2.594,1.364h1.478L390.4,42.1l-3.746-2.082Z" transform="translate(-284.101 -29.406)" fill="#8c3454"/><path d="M382.684,17.646h-1.478L379.7,20.705h1.478l1.556-2.914Z" transform="translate(-278.988 -12.966)" fill="#8c3454"/><path d="M368.448,31.027H366.97l2.443,2.381h1.478Z" transform="translate(-269.637 -22.798)" fill="#8c3454"/><path d="M378.937,20.7l-1.509-3.059-1.51,3.059-3.375.49,2.443,2.381-.577,3.362,3.019-1.587,3.019,1.587-.577-3.362,2.443-2.381Z" transform="translate(-273.731 -12.966)" fill="#ffc91f"/><path d="M382.389,22.67l-1.3-2.643-1.3,2.643-2.917.424,2.11,2.057-.5,2.9,2.609-1.371,2.609,1.371-.5-2.9,2.111-2.057Z" transform="translate(-276.907 -14.715)" fill="none" stroke="#ffe578" stroke-miterlimit="10" stroke-width="2"/><path d="M383.105,28.472l-.347,2.022,4.409-4.409-.647-.094-.713-1.444-3.322,3.322Z" transform="translate(-281.037 -18.036)" fill="#ffe578"/><path d="M392.317,31.014l-.27-.039-4.481,4.481.653-.343Z" transform="translate(-284.77 -22.759)" fill="#ffe578"/><path d="M425.038,21.2l-2.365-.344-1.041-3.205h-1.478l-1.509,3.059-3.376.49,2.443,2.381-.577,3.362h1.478l1.568-1.573,2.992,1.573h1.478l-1.324-4.074Z" transform="translate(-305.125 -12.966)" fill="#a83b5d"/><path d="M435.042,42.014l2.594,1.364h1.478L438.7,42.1l-3.746-2.082Z" transform="translate(-319.589 -29.406)" fill="#8c3454"/><path d="M430.982,17.646H429.5l-1.509,3.059h1.478l1.556-2.914Z" transform="translate(-314.476 -12.966)" fill="#8c3454"/><path d="M416.746,31.027h-1.478l2.443,2.381h1.478Z" transform="translate(-305.125 -22.798)" fill="#8c3454"/><path d="M427.236,20.7l-1.509-3.059L424.217,20.7l-3.375.49,2.442,2.381-.577,3.362,3.019-1.587,3.019,1.587-.577-3.362,2.443-2.381Z" transform="translate(-309.22 -12.966)" fill="#ffc91f"/><path d="M430.687,22.67l-1.3-2.643-1.3,2.643-2.917.424,2.11,2.057-.5,2.9,2.609-1.371,2.609,1.371-.5-2.9,2.111-2.057Z" transform="translate(-312.395 -14.715)" fill="none" stroke="#ffe578" stroke-miterlimit="10" stroke-width="2"/><path d="M431.4,28.472l-.347,2.022,4.409-4.409-.647-.094-.713-1.444-3.322,3.322Z" transform="translate(-316.525 -18.036)" fill="#ffe578"/><path d="M440.615,31.014l-.27-.039-4.481,4.481.653-.343Z" transform="translate(-320.258 -22.759)" fill="#ffe578"/><path d="M473.336,21.2l-2.365-.344-1.041-3.205h-1.478l-1.51,3.059-3.375.49,2.443,2.381-.577,3.362h1.478l1.568-1.573,2.992,1.573h1.478l-1.324-4.074Z" transform="translate(-340.612 -12.966)" fill="#a83b5d"/><path d="M483.341,42.014l2.594,1.364h1.478L487,42.1l-3.746-2.082Z" transform="translate(-355.077 -29.406)" fill="#8c3454"/><path d="M479.28,17.646H477.8l-1.509,3.059h1.478l1.556-2.914Z" transform="translate(-349.964 -12.966)" fill="#8c3454"/><path d="M465.045,31.027h-1.478l2.443,2.381h1.478Z" transform="translate(-340.613 -22.798)" fill="#8c3454"/><path d="M475.534,20.7l-1.509-3.059-1.51,3.059-3.375.49,2.442,2.381-.577,3.362,3.019-1.587,3.019,1.587-.577-3.362L478.91,21.2Z" transform="translate(-344.708 -12.966)" fill="#ffc91f"/><path d="M478.986,22.67l-1.3-2.643-1.3,2.643-2.917.424,2.11,2.057-.5,2.9,2.609-1.371,2.609,1.371-.5-2.9,2.111-2.057Z" transform="translate(-347.882 -14.715)" fill="none" stroke="#ffe578" stroke-miterlimit="10" stroke-width="2"/><path d="M479.7,28.472l-.347,2.022,4.409-4.409-.647-.094-.713-1.444-3.322,3.322Z" transform="translate(-352.013 -18.036)" fill="#ffe578"/><path d="M488.913,31.014l-.27-.039-4.481,4.481.653-.343Z" transform="translate(-355.746 -22.759)" fill="#ffe578"/><path d="M521.634,21.2l-2.365-.344-1.041-3.205h-1.478l-1.509,3.059-3.376.49,2.443,2.381-.577,3.362h1.478l1.568-1.573,2.992,1.573h1.478l-1.324-4.074Z" transform="translate(-376.1 -12.966)" fill="#a83b5d"/><path d="M531.64,42.014l2.594,1.364h1.478L535.3,42.1l-3.746-2.082Z" transform="translate(-390.566 -29.406)" fill="#8c3454"/><path d="M527.578,17.646H526.1l-1.509,3.059h1.478l1.556-2.914Z" transform="translate(-385.451 -12.966)" fill="#8c3454"/><path d="M513.343,31.027h-1.478l2.443,2.381h1.478Z" transform="translate(-376.101 -22.798)" fill="#8c3454"/><path d="M523.832,20.7l-1.509-3.059L520.813,20.7l-3.376.49,2.443,2.381-.577,3.362,3.019-1.587,3.019,1.587-.577-3.362,2.443-2.381Z" transform="translate(-380.195 -12.966)" fill="#ffc91f"/><path d="M527.284,22.67l-1.3-2.643-1.3,2.643-2.917.424,2.11,2.057-.5,2.9,2.609-1.371,2.609,1.371-.5-2.9,2.111-2.057Z" transform="translate(-383.37 -14.715)" fill="none" stroke="#ffe578" stroke-miterlimit="10" stroke-width="2"/><path d="M528,28.472l-.347,2.022,4.409-4.409-.647-.094-.713-1.444-3.322,3.322Z" transform="translate(-387.501 -18.036)" fill="#ffe578"/><path d="M537.212,31.014l-.27-.039-4.481,4.481.653-.343Z" transform="translate(-391.234 -22.759)" fill="#ffe578"/><path d="M569.933,21.2l-2.365-.344-1.041-3.205h-1.478l-1.509,3.059-3.375.49,2.442,2.381-.577,3.362h1.478l1.568-1.573,2.992,1.573h1.478l-1.324-4.074Z" transform="translate(-411.589 -12.966)" fill="#a83b5d"/><path d="M579.938,42.014l2.594,1.364h1.478L583.6,42.1l-3.746-2.082Z" transform="translate(-426.054 -29.406)" fill="#8c3454"/><path d="M575.877,17.646H574.4l-1.509,3.059h1.478l1.556-2.914Z" transform="translate(-420.939 -12.966)" fill="#8c3454"/><path d="M561.641,31.027h-1.478l2.443,2.381h1.478Z" transform="translate(-411.589 -22.798)" fill="#8c3454"/><path d="M572.131,20.7l-1.509-3.059L569.112,20.7l-3.375.49,2.442,2.381-.577,3.362,3.019-1.587,3.019,1.587-.577-3.362,2.443-2.381Z" transform="translate(-415.684 -12.966)" fill="#ffc91f"/><path d="M575.582,22.67l-1.3-2.643-1.3,2.643-2.917.424,2.11,2.057-.5,2.9,2.609-1.371,2.609,1.371-.5-2.9,2.111-2.057Z" transform="translate(-418.858 -14.715)" fill="none" stroke="#ffe578" stroke-miterlimit="10" stroke-width="2"/><path d="M576.3,28.472l-.347,2.022,4.409-4.409-.647-.094L579,24.547l-3.322,3.322Z" transform="translate(-422.989 -18.036)" fill="#ffe578"/><path d="M585.51,31.014l-.27-.039-4.481,4.481.653-.343Z" transform="translate(-426.722 -22.759)" fill="#ffe578"/><path d="M471.97,244.5l-2.741-3.185-.908-4.531v-1.65l-1.709,1.709a10.725,10.725,0,0,1-4.743,7.818l-1.953-.16-1.709,1.709a10.741,10.741,0,0,1,8.405,9.366l1.709-1.709.3-3.5a10.741,10.741,0,0,1,6.4-4.16l1.709-1.709Z" transform="translate(-336.674 -172.768)" fill="#d8a235"/><path d="M473.056,235.134a10.741,10.741,0,0,1-8.405,9.366,10.741,10.741,0,0,1,8.405,9.366,10.741,10.741,0,0,1,8.405-9.366,10.741,10.741,0,0,1-8.405-9.366" transform="translate(-341.41 -172.768)" fill="#ffd064"/><path d="M494.633,262.707l-6.123,6.123a10.7,10.7,0,0,1,.757,1.161l6.5-6.5a10.73,10.73,0,0,1-1.136-.782" transform="translate(-358.94 -193.028)" fill="#ffe578"/><path d="M483.255,250.672l-6.508,6.508a10.782,10.782,0,0,1,2.717,2.3l6.03-6.03a10.771,10.771,0,0,1-2.239-2.779" transform="translate(-350.297 -184.185)" fill="#ffe578"/><path d="M125.619,26.542l-2.741-3.185-.908-4.531v-1.65l-1.709,1.709a10.725,10.725,0,0,1-4.743,7.818l-1.952-.16-1.709,1.709a10.741,10.741,0,0,1,8.405,9.367l1.709-1.709.3-3.5a10.741,10.741,0,0,1,6.4-4.161l1.709-1.709Z" transform="translate(-82.187 -12.62)" fill="#d8a235"/><path d="M126.7,17.176a10.741,10.741,0,0,1-8.405,9.366,10.741,10.741,0,0,1,8.405,9.366,10.741,10.741,0,0,1,8.405-9.366,10.741,10.741,0,0,1-8.405-9.366" transform="translate(-86.922 -12.62)" fill="#ffd064"/><path d="M148.282,44.749l-6.123,6.123a10.707,10.707,0,0,1,.757,1.161l6.5-6.5a10.764,10.764,0,0,1-1.136-.782" transform="translate(-104.454 -32.88)" fill="#ffe578"/><path d="M136.9,32.714,130.4,39.222a10.783,10.783,0,0,1,2.717,2.3l6.03-6.03a10.771,10.771,0,0,1-2.239-2.779" transform="translate(-95.811 -24.037)" fill="#ffe578"/><path d="M382.572,190.61l-1-1.157-.33-1.645v-.6l-.621.621a3.894,3.894,0,0,1-1.722,2.839l-.709-.058-.621.621a3.9,3.9,0,0,1,3.052,3.4l.621-.621.109-1.27a3.9,3.9,0,0,1,2.322-1.511l.621-.621Z" transform="translate(-277.428 -137.555)" fill="#d8a235"/><path d="M382.967,187.209a3.9,3.9,0,0,1-3.052,3.4,3.9,3.9,0,0,1,3.052,3.4,3.9,3.9,0,0,1,3.052-3.4,3.9,3.9,0,0,1-3.052-3.4" transform="translate(-279.149 -137.555)" fill="#ffd064"/><path d="M390.8,197.221l-2.223,2.224a3.963,3.963,0,0,1,.275.421l2.361-2.361a3.885,3.885,0,0,1-.413-.284" transform="translate(-285.514 -144.911)" fill="#ffe578"/><path d="M386.67,192.851l-2.363,2.363a3.916,3.916,0,0,1,.987.835l2.189-2.19a3.919,3.919,0,0,1-.813-1.009" transform="translate(-282.376 -141.7)" fill="#ffe578"/><path d="M169.351,93.205l-1.268-1.473-.42-2.1v-.763l-.79.791a4.961,4.961,0,0,1-2.194,3.616l-.9-.074-.79.791a4.968,4.968,0,0,1,3.888,4.332l.79-.79.139-1.617A4.966,4.966,0,0,1,170.76,94l.791-.791Z" transform="translate(-119.756 -65.301)" fill="#d8a235"/><path d="M169.853,88.873a4.968,4.968,0,0,1-3.888,4.332,4.968,4.968,0,0,1,3.888,4.332,4.968,4.968,0,0,1,3.888-4.332,4.968,4.968,0,0,1-3.888-4.332" transform="translate(-121.945 -65.301)" fill="#ffd064"/><path d="M179.833,101.626,177,104.458a4.971,4.971,0,0,1,.35.537l3.007-3.007a4.971,4.971,0,0,1-.525-.362" transform="translate(-130.054 -74.671)" fill="#ffe578"/><path d="M174.57,96.059l-3.01,3.01a4.992,4.992,0,0,1,1.257,1.064l2.789-2.789a4.977,4.977,0,0,1-1.035-1.285" transform="translate(-126.056 -70.581)" fill="#ffe578"/><path d="M544.491,207.518l-1.268-1.473-.42-2.1v-.763l-.79.791a4.961,4.961,0,0,1-2.194,3.616l-.9-.074-.79.79a4.968,4.968,0,0,1,3.888,4.332l.79-.79.139-1.617a4.969,4.969,0,0,1,2.958-1.924l.791-.79Z" transform="translate(-395.396 -149.294)" fill="#d8a235"/><path d="M544.992,203.186a4.968,4.968,0,0,1-3.888,4.332,4.968,4.968,0,0,1,3.888,4.332,4.968,4.968,0,0,1,3.888-4.332,4.968,4.968,0,0,1-3.888-4.332" transform="translate(-397.585 -149.294)" fill="#ffd064"/><path d="M554.973,215.939l-2.832,2.832a4.972,4.972,0,0,1,.35.537L555.5,216.3a5,5,0,0,1-.525-.362" transform="translate(-405.694 -158.665)" fill="#ffe578"/><path d="M549.711,210.372l-3.01,3.01a4.981,4.981,0,0,1,1.257,1.064l2.789-2.789a4.967,4.967,0,0,1-1.035-1.285" transform="translate(-401.697 -154.574)" fill="#ffe578"/><path d="M5,181.476l-1-1.157-.33-1.645v-.6l-.621.621a3.894,3.894,0,0,1-1.722,2.839l-.709-.058L0,182.1a3.9,3.9,0,0,1,3.052,3.4l.621-.621.109-1.27A3.9,3.9,0,0,1,6.1,182.1l.621-.621Z" transform="translate(0 -130.843)" fill="#d8a235"/><path d="M5.392,178.074a3.9,3.9,0,0,1-3.052,3.4,3.9,3.9,0,0,1,3.052,3.4,3.9,3.9,0,0,1,3.052-3.4,3.9,3.9,0,0,1-3.052-3.4" transform="translate(-1.719 -130.843)" fill="#ffd064"/><path d="M13.227,188.087,11,190.31a3.909,3.909,0,0,1,.275.421l2.361-2.361a3.883,3.883,0,0,1-.413-.284" transform="translate(-8.085 -138.2)" fill="#ffe578"/><path d="M9.1,183.717,6.732,186.08a3.911,3.911,0,0,1,.987.835l2.19-2.19a3.919,3.919,0,0,1-.813-1.009" transform="translate(-4.946 -134.989)" fill="#ffe578"/><path d="M27.081,255.628c1.045-1.956,4.131-4.147,6.367-3.253s.581,3.667.581,3.667Z" transform="translate(-19.898 -185.285)" fill="#ffb692"/><path d="M83.305,289.72c-14.418,32.095-33.82,23.66-45.023-.414" transform="translate(-28.128 -212.572)" fill="none" stroke="#ffb692" stroke-miterlimit="10" stroke-width="9"/><path d="M176.493,274.579l-13.907-5.82,4.737-11.319a7.538,7.538,0,1,1,13.907,5.82Z" transform="translate(-119.463 -185.757)" fill="#d8a235"/><path d="M202.5,298.168h41.794l2.726-41.722a10.155,10.155,0,0,0-6.229-11.791l-9.647-3.74a20.692,20.692,0,0,0-14.336-.228l-8.638,3.036a10.156,10.156,0,0,0-6.592,11.645Z" transform="translate(-147.952 -175.989)" fill="#3d672f"/><path d="M261.751,246.14a2.22,2.22,0,0,0-.536-1.456l-4.629-1.795c-.255-.1-.513-.191-.772-.28a55.964,55.964,0,0,0-7.479-.406c-1.91,0-3.682.051-5.256.186-.278.085-.555.175-.83.271l-5.823,2.046a2.468,2.468,0,0,0-.434,1.432c0,3.244,5.766,5.874,12.879,5.874s12.879-2.63,12.879-5.874" transform="translate(-173.4 -177.963)" fill="#ffb692"/><path d="M269.076,210.306c0-19.548-3.817-9.389-8.525-9.389s-8.525-8.9-8.525,9.389c0,6.851,3.817,6.259,8.525,6.259s8.525.592,8.525-6.259" transform="translate(-185.179 -145.688)" fill="#ffb692"/><path d="M252.7,204.6c.8-10.465,4.235-3.679,8.348-3.679,4.559,0,8.282-9.524,8.514,7.617-7.285,2.382-12.937-.383-16.862-3.939" transform="translate(-185.672 -145.689)" fill="#d88d87"/><path d="M251.023,264.185l6.219.907,1.1.777" transform="translate(-184.443 -194.114)" fill="none" stroke="#d88d87" stroke-miterlimit="10" stroke-width="1"/><path d="M290.832,267.075l1.1-.842,7-.583" transform="translate(-213.693 -195.191)" fill="none" stroke="#d88d87" stroke-miterlimit="10" stroke-width="1"/><path d="M46.226,230.622l-2.146-2.541-1.846-.586a3.976,3.976,0,0,1-3.69.689l-9.1-2.885a4,4,0,0,1-2.669-4.7l4-17.071a3.976,3.976,0,0,1,5.073-2.883l10.384,3.294a3.946,3.946,0,0,1,1.69,1.064l.5-.1c2.5-.509,2.649-.539,5.42-2.469a109.63,109.63,0,0,0,8.765-7.61l2.512-7.919.876-.5a5.3,5.3,0,0,1,4.308-.485,6.62,6.62,0,0,1,3.109,2.218,2.574,2.574,0,0,1,.477,1.129c.2,1.252,1.121,7.666-.36,11.011-.709,1.6-1.972,3.979-3.018,5.889l14.246,4.519.217.118a5.106,5.106,0,0,1,2.373,6.079,5.527,5.527,0,0,1-3.279,3.527,6.086,6.086,0,0,1-.284,2.309,5.446,5.446,0,0,1-3.294,3.318,6.041,6.041,0,0,1-.3,2.243,5.609,5.609,0,0,1-3.4,3.39,6.124,6.124,0,0,1-.4,2.435c-.966,2.718-4.841,3.638-6.006,3.856l-.633.118Z" transform="translate(-19.601 -136.427)" fill="#a0b8e8"/><path d="M55.6,221.246l-2.146-2.541-1.846-.586a3.976,3.976,0,0,1-3.69.689l-9.1-2.885a4,4,0,0,1-2.669-4.7l4-17.071a3.976,3.976,0,0,1,5.073-2.883l10.384,3.294a3.948,3.948,0,0,1,1.69,1.064l.5-.1c2.5-.509,2.649-.539,5.42-2.469a109.631,109.631,0,0,0,8.765-7.61l2.512-7.919.876-.5a5.3,5.3,0,0,1,4.308-.485,6.62,6.62,0,0,1,3.109,2.218,2.574,2.574,0,0,1,.477,1.129c.2,1.252,1.121,7.666-.36,11.011-.709,1.6-1.972,3.979-3.018,5.889l14.246,4.519.217.118a5.106,5.106,0,0,1,2.373,6.079,5.527,5.527,0,0,1-3.279,3.527,6.086,6.086,0,0,1-.284,2.309,5.447,5.447,0,0,1-3.294,3.319,6.04,6.04,0,0,1-.3,2.242,5.609,5.609,0,0,1-3.4,3.39,6.124,6.124,0,0,1-.4,2.435c-.966,2.718-4.841,3.638-6.006,3.856l-.633.118Z" transform="translate(-26.49 -129.538)" fill="#fff"/><path d="M97.8,208.977a4.516,4.516,0,0,0-2.092-5.381l-.167-.091-14.878-4.72c1.058-1.916,2.554-4.693,3.343-6.474,1.414-3.193.512-9.455.316-10.678a1.972,1.972,0,0,0-.367-.869,5.993,5.993,0,0,0-2.814-2.008,4.722,4.722,0,0,0-3.838.436l-.674.381-2.488,7.844a112.4,112.4,0,0,1-8.944,7.771c-2.872,2-3.081,2.043-5.64,2.564l-.837.17a3.364,3.364,0,0,0-1.646-1.15l-10.384-3.294a3.384,3.384,0,0,0-4.318,2.454l-4,17.072a3.4,3.4,0,0,0,2.271,4l9.1,2.885a3.387,3.387,0,0,0,3.372-.79l2.327.738,2.146,2.54,23.222,7.367.487-.091c1.086-.2,4.7-1.053,5.557-3.473a5.13,5.13,0,0,0,.318-2.631,4.992,4.992,0,0,0,3.7-5.627,5.066,5.066,0,0,0,3.372-3.109,5.376,5.376,0,0,0,.206-2.521,5.006,5.006,0,0,0,3.357-3.315" transform="translate(-28.129 -131.18)" fill="#568aff"/><path d="M104.384,205.151,98.76,222.879l2.253.715,2.146,2.54,22.207,7.045s3.514-.656,4.062-2.195a2.611,2.611,0,0,0-.254-2.737c-.365-.617.13-.874.5-.844s2.966-.417,3.519-2.16a2.543,2.543,0,0,0-.395-2.664.543.543,0,0,1,.416-.754c.294,0,3.011-.373,3.573-2.143a3.065,3.065,0,0,0-.389-2.868.668.668,0,0,1,.587-.641c.6-.133,2.71-.262,3.366-2.327a2.573,2.573,0,0,0-1.157-3.053l-17-5.394s3.193-5.6,4.443-8.42c.926-2.091.574-6.337.33-8.4a2.94,2.94,0,0,0-2.1-2.513,2.763,2.763,0,0,0-2.159.305l-2.408,7.59a122.718,122.718,0,0,1-9.543,8.308c-3.145,2.19-3.6,2.313-6.374,2.878" transform="translate(-72.565 -136.645)" fill="#fff"/><path d="M51.551,241.787l10.384,3.294a1.412,1.412,0,0,1,.919,1.773l-5.286,16.663a1.412,1.412,0,0,1-1.773.919l-9.1-2.885a1.412,1.412,0,0,1-.948-1.668l4-17.071a1.412,1.412,0,0,1,1.8-1.024" transform="translate(-33.589 -177.608)" fill="#3758a3"/><path d="M205.308,266.085a2.771,2.771,0,0,0-1.192-1.473l-15.507-4.919v0l-1.5-.472.622,1.2.5.158,0-.006,16.8,5.331a2.222,2.222,0,0,1,.269.184" transform="translate(-137.484 -190.465)" fill="#bacadd"/><path d="M124.867,186.069a2.763,2.763,0,0,0-2.159.305l-2.408,7.59a122.718,122.718,0,0,1-9.543,8.308c-3.145,2.19-3.6,2.313-6.374,2.878l-5.624,17.728,1.21.384,5.337-16.823c2.777-.565,3.229-.688,6.374-2.878a122.718,122.718,0,0,0,9.543-8.308l2.408-7.59a2.747,2.747,0,0,1,3.162.21,2.891,2.891,0,0,0-1.926-1.8" transform="translate(-72.565 -136.645)" fill="#bacadd"/><path d="M187.651,361.185l-3.424-1.827s-12.508.224-17.563-5.083c0,0-1.112-5.616,3.105-9.091l9.792,3.089a7.136,7.136,0,0,1-.408-3.722,1.4,1.4,0,0,1,2.735-.053c0,.02.008.041.012.062.4,2.092,3.291,2.458,3.666,5.934l7.4,3.126Z" transform="translate(-122.362 -252.328)" fill="#ffb692"/><path d="M167.979,365.578c-.054.172-.1.342-.146.512a41.758,41.758,0,0,0,10.485,3.117c-3.335-.528-8.59-2.833-10.338-3.629" transform="translate(-123.318 -268.614)" fill="#d88d87"/><path d="M207.363,379.26q.181.029.355.05c-.088-.012-.206-.028-.355-.05" transform="translate(-152.363 -278.667)" fill="#d88d87"/><path d="M171.22,357.051a8.492,8.492,0,0,0-.442.741,61.611,61.611,0,0,0,10.647,2.878,104.357,104.357,0,0,1-10.205-3.619" transform="translate(-125.482 -262.349)" fill="#d88d87"/><path d="M208.7,379.449l.181.023c-.059-.006-.12-.015-.181-.023" transform="translate(-153.346 -278.806)" fill="#d88d87"/><path d="M166.545,376.023q-.011.252-.012.483a40.477,40.477,0,0,0,9.8,2.758,55.866,55.866,0,0,1-9.791-3.241" transform="translate(-122.363 -276.289)" fill="#d88d87"/><path d="M20.043,267.682a2.11,2.11,0,0,0,1.185,1.378,4.678,4.678,0,0,0,4.243-.8s1.371-1.033,2.778,2.053a1.838,1.838,0,0,0,1.541-.438c.738-.635,2.355-6.44,1.912-8.317-.75-3.177-6.576-3.689-8.589-2.582a6.659,6.659,0,0,0-3.071,8.7" transform="translate(-14.301 -189.897)" fill="#ffb692"/><path d="M42.113,288.011c.086-.181.176-.394.267-.633-.912-1.964-2.993-4.845-6.652-2.689,3.478-1.408,5.683.987,6.385,3.322" transform="translate(-26.252 -208.617)" fill="#d88d87"/><path d="M44.759,278.941c.079-.275.156-.56.23-.85-.881-1.963-2.973-5.009-6.707-2.809,3.646-1.476,5.894,1.228,6.477,3.659" transform="translate(-28.128 -201.705)" fill="#d88d87"/><path d="M40.836,265.874c3.549-1.437,5.773,1.087,6.426,3.465.058-.328.105-.648.141-.953-.952-1.953-3.018-4.6-6.568-2.511" transform="translate(-30.005 -194.793)" fill="#d88d87"/><path d="M241.821,309.739c29.235,15.974,39.333-5.2,33.675-28.632" transform="translate(-177.682 -206.548)" fill="none" stroke="#ffb692" stroke-miterlimit="10" stroke-width="9"/><path d="M356.173,278.029,341.18,279.6,339.9,267.4a7.538,7.538,0,1,1,14.993-1.57Z" transform="translate(-249.718 -190.358)" fill="#3d672f"/><path d="M64.831,113.717a13.164,13.164,0,1,0-2.364,4.405l4.958.486,2.112-2.112Z" transform="translate(-28.723 -71.006)" fill="#3a9b9b"/><path d="M75.386,110.647l-2.713-4.522a13.173,13.173,0,1,0-2.245,4.036Z" transform="translate(-34.573 -65.156)" fill="#a7e070"/><path d="M63.623,130.078a2.075,2.075,0,1,0,2.075,2.075,2.075,2.075,0,0,0-2.075-2.075" transform="translate(-45.223 -95.577)" fill="#3a9b9b"/><path d="M89.634,130.078a2.075,2.075,0,1,0,2.075,2.075,2.075,2.075,0,0,0-2.075-2.075" transform="translate(-64.335 -95.577)" fill="#3a9b9b"/><path d="M115.645,130.078a2.075,2.075,0,1,0,2.075,2.075,2.075,2.075,0,0,0-2.075-2.075" transform="translate(-83.447 -95.577)" fill="#3a9b9b"/><path d="M67.072,126.629a2.075,2.075,0,1,0,2.075,2.075,2.075,2.075,0,0,0-2.075-2.075" transform="translate(-47.758 -93.043)" fill="#fff"/><path d="M93.083,126.629a2.075,2.075,0,1,0,2.075,2.075,2.075,2.075,0,0,0-2.075-2.075" transform="translate(-66.87 -93.043)" fill="#fff"/><path d="M119.094,126.629a2.075,2.075,0,1,0,2.075,2.075,2.075,2.075,0,0,0-2.075-2.075" transform="translate(-85.982 -93.043)" fill="#fff"/><path d="M218.776,86.109c-8.15,4.772.294,14.9.294,14.9Z" transform="translate(-158.143 -63.27)" fill="#5b4031"/><path d="M221.047,134.816c.457,2.82-.7,5.4-2.584,5.753s-3.783-1.639-4.24-4.459.7-5.4,2.584-5.753,3.783,1.639,4.24,4.459" transform="translate(-157.331 -95.752)" fill="#ffb692"/><path d="M222.356,139.939a1.613,1.613,0,0,1,.852.076c-.006-.047-.01-.093-.018-.14-.3-1.863-1.556-3.182-2.8-2.946s-2.009,1.938-1.707,3.8a3.557,3.557,0,0,0,1.948,2.869c-.242-1.807.512-3.431,1.725-3.66" transform="translate(-160.632 -100.591)" fill="#d88d87"/><path d="M244.715,72.237h-7.586A10.8,10.8,0,0,0,226.365,83V98.669a15.03,15.03,0,0,0,30.06,0V83.947a11.745,11.745,0,0,0-11.71-11.71" transform="translate(-166.325 -53.077)" fill="#ffb692"/><path d="M226.476,82.248c9.587,4.019,19.4-2.858,24.7-8.105a11.617,11.617,0,0,0-6.38-1.907H237.21a10.8,10.8,0,0,0-10.734,10.012" transform="translate(-166.407 -53.077)" fill="#d88d87"/><path d="M236.816,43.541a1.124,1.124,0,0,0-1.627-.969c-21.835,10.862-24.6,1.876-24.6,1.876l.979.587s-5.482-9.2,2.252-15.37,14.88,1.762,15.566,6.559l-.1-3.035a7,7,0,0,1,1.566,3.916s9.888-.783,13.8,6.265.2,15.761.2,15.761a20.315,20.315,0,0,1-8.04-15.592" transform="translate(-154.069 -20.141)" fill="#664631"/><path d="M293.559,123.1l-2.487-.954a1.5,1.5,0,1,1,1.073-2.8l2.487.954a1.5,1.5,0,0,1-1.073,2.8" transform="translate(-213.164 -87.619)" fill="#664631"/><path d="M245.667,122.962l-2.4,1.16a1.5,1.5,0,1,1-1.3-2.7l2.4-1.16a1.5,1.5,0,0,1,1.3,2.7" transform="translate(-177.167 -88.257)" fill="#664631"/><path d="M265.421,171.37s4.268.33,4.285,1.065-1.891,1.086-2.416.77a15.521,15.521,0,0,1-1.869-1.836" transform="translate(-195.022 -125.917)" fill="#d88d87"/><path d="M250.019,140.774a1.653,1.653,0,1,1-1.653-1.653,1.653,1.653,0,0,1,1.653,1.653" transform="translate(-181.276 -102.221)" fill="#34344f"/><path d="M294.83,140.774a1.653,1.653,0,1,1-1.653-1.653,1.653,1.653,0,0,1,1.653,1.653" transform="translate(-214.202 -102.221)" fill="#34344f"/><path d="M266.693,140.011c-.521,1.869-1.127,3.706-1.755,5.535-.315.913-.636,1.828-.965,2.731l-.054.155c0,.008-.011.043,0-.007a.129.129,0,0,0-.006-.051c0-.01,0,0,.008.019a1.381,1.381,0,0,0,.2.232c.163.159.337.324.517.48.356.321.724.636,1.076.98a8.682,8.682,0,0,1-1.3-.68,5.756,5.756,0,0,1-.607-.435,1.811,1.811,0,0,1-.295-.3.541.541,0,0,1-.076-.14.329.329,0,0,1-.02-.139.283.283,0,0,1,.017-.094l.059-.19c.149-.465.319-.916.485-1.372s.332-.909.507-1.36q.515-1.356,1.065-2.7c.366-.9.746-1.787,1.152-2.668" transform="translate(-193.542 -102.875)" fill="#34344f"/><path d="M330.4,134.816c-.457,2.82.7,5.4,2.584,5.753s3.783-1.639,4.24-4.459-.7-5.4-2.584-5.753-3.783,1.639-4.24,4.459" transform="translate(-242.693 -95.752)" fill="#ffb692"/><path d="M335.827,139.939a1.612,1.612,0,0,0-.852.076c.006-.047.01-.093.018-.14.3-1.863,1.556-3.182,2.8-2.946s2.009,1.938,1.707,3.8a3.557,3.557,0,0,1-1.948,2.869c.242-1.807-.512-3.431-1.725-3.66" transform="translate(-246.128 -100.591)" fill="#d88d87"/><path d="M228.684,41.464a12.58,12.58,0,0,0-2.783-3.831c.189,4.15-.508,11.007-7.229,10.8-6.174-.188-7.2-5.246-7.15-8.845a10.106,10.106,0,0,0-1.832,5.937,10.908,10.908,0,0,0,18.994-4.062" transform="translate(-154.073 -27.651)" fill="#7a513b"/><path d="M264.5,178.9a35.15,35.15,0,0,0,6.785-2.322c1.566-.75,3.137,1.193,2.422,3.025a6.39,6.39,0,0,1-5.016,4.308,5.927,5.927,0,0,1-4.82-.886c-1.426-1.1-1.013-3.733.628-4.125" transform="translate(-193.245 -129.624)" fill="#34344f"/><path d="M275.159,189.653a6.388,6.388,0,0,0,5.016-4.307,2.555,2.555,0,0,0,.169-.822,6.49,6.49,0,0,0-4.138.084,6.32,6.32,0,0,0-4.4,4.9s0,.008,0,.012a7.137,7.137,0,0,0,3.353.132" transform="translate(-199.714 -135.364)" fill="#ff9292"/><path d="M278.443,189.164c.314.453,1.373.292,2.363-.361s1.539-1.548,1.225-2-1.373-.292-2.364.361-1.539,1.548-1.224,2" transform="translate(-204.525 -137.066)" fill="#ffabab"/><path d="M264.5,178.9a35.148,35.148,0,0,0,6.785-2.322,1.765,1.765,0,0,1,2.358,1.017,12.969,12.969,0,0,1-5.995,3.287,14.547,14.547,0,0,1-4.634.484A2.236,2.236,0,0,1,264.5,178.9" transform="translate(-193.249 -129.625)" fill="#fff"/><path d="M444.946,128.6h-20.61a4.975,4.975,0,0,0-4.975,4.975v10.305a4.972,4.972,0,0,0,4.62,4.957v5.585l5.567-5.567h15.4a4.975,4.975,0,0,0,4.975-4.975V133.579a4.975,4.975,0,0,0-4.975-4.975" transform="translate(-308.132 -94.494)" fill="#3758a3"/><path d="M455.031,118.52H434.42a4.975,4.975,0,0,0-4.975,4.975V133.8a4.972,4.972,0,0,0,4.62,4.957v5.585l5.568-5.567h15.4a4.975,4.975,0,0,0,4.975-4.975V123.495a4.975,4.975,0,0,0-4.975-4.975" transform="translate(-315.542 -87.084)" fill="#568aff"/><path d="M453.223,144.579h0a.649.649,0,0,0,.649.649h16.65a.649.649,0,0,0,0-1.3h-16.65a.649.649,0,0,0-.649.649" transform="translate(-333.013 -105.755)" fill="#3758a3"/><path d="M453.871,155.554h16.65a.649.649,0,0,0,0-1.3h-16.65a.649.649,0,0,0,0,1.3" transform="translate(-333.012 -113.342)" fill="#3758a3"/><path d="M453.871,165.88h16.65a.649.649,0,0,0,0-1.3h-16.65a.649.649,0,0,0,0,1.3" transform="translate(-333.012 -120.929)" fill="#3758a3"/><path d="M456.223,141.579h0a.649.649,0,0,0,.649.649h16.65a.649.649,0,0,0,0-1.3h-16.65a.649.649,0,0,0-.649.649" transform="translate(-335.217 -103.551)" fill="#fff"/><path d="M456.871,152.554h16.65a.649.649,0,0,0,0-1.3h-16.65a.649.649,0,1,0,0,1.3" transform="translate(-335.216 -111.138)" fill="#fff"/><path d="M456.871,162.88h16.65a.649.649,0,0,0,0-1.3h-16.65a.649.649,0,1,0,0,1.3" transform="translate(-335.216 -118.725)" fill="#fff"/></g></svg>