<svg xmlns="http://www.w3.org/2000/svg" width="1117" height="459.852" viewBox="0 0 1117 459.852"><g transform="translate(-255 -13777.574)"><g transform="translate(0 60)"><g transform="translate(255 13778.148)"><path d="M235.088,359.907c2.61,13.993,35.573,22.7,73.626,19.451s66.785-17.229,64.175-31.223-35.573-22.7-73.627-19.451-66.784,17.229-64.174,31.223" transform="translate(-195.264 -23.334)" fill="#b4c6d5"/><path d="M367.493,215.865s-.722,20.18-2.529,24.947-25.153,23.845-25.153,23.845L346.22,224.4Z" transform="translate(-202.726 -15.357)" fill="#f19c7c"/><path d="M366.967,230.048c.6-6.864.866-14.184.866-14.184L346.56,224.4l-1.978,12.429c7.5-2.1,14.952-4.408,22.385-6.777" transform="translate(-203.065 -15.357)" fill="#d86c5d"/><path d="M205.487,265.283s6.339,23.339,9.263,28.285,43.778,4.327,43.778,4.327L254.35,287.53l-17.39-10.054-3.906-23.819Z" transform="translate(-193.17 -18.046)" fill="#f19c7c"/><path d="M250.632,300.009c6.235.095,10.853.026,10.853.026l-4.178-10.364-10.241-5.921c1.158,5.427,2.368,10.843,3.566,16.26" transform="translate(-196.128 -20.186)" fill="#d86c5d"/><path d="M226.921,272.83q4.673.27,9.353.471l-3.22-19.643-27.568,11.626s.874,3.217,2.122,7.513a124.839,124.839,0,0,1,19.314.033" transform="translate(-193.17 -18.046)" fill="#d86c5d"/><path d="M295.717,344.373s-.064,23.735-6.014,23.355-7.2-25.539-7.2-25.539Z" transform="translate(-198.648 -24.344)" fill="#fff"/><path d="M294.873,356.688a107.052,107.052,0,0,0,.843-12.315L282.5,342.189a121.818,121.818,0,0,0,1.663,14.258,24.086,24.086,0,0,1,10.712.241" transform="translate(-198.648 -24.344)" fill="#352c38"/><path d="M293.868,355.381a.517.517,0,0,1-.244-.061,9.2,9.2,0,0,0-5.976-1.264,4.256,4.256,0,0,0-1.949.863.52.52,0,1,1-.717-.752,5.133,5.133,0,0,1,2.381-1.113c1.38-.291,3.672-.294,6.75,1.349a.52.52,0,0,1-.245.978Z" transform="translate(-198.848 -25.14)" fill="#fff"/><path d="M293.962,352.861a.516.516,0,0,1-.244-.061,9.2,9.2,0,0,0-5.976-1.264,4.256,4.256,0,0,0-1.949.863.52.52,0,1,1-.717-.752,5.132,5.132,0,0,1,2.381-1.113c1.38-.291,3.672-.294,6.75,1.349a.52.52,0,0,1-.245.978Z" transform="translate(-198.855 -24.962)" fill="#fff"/><path d="M294.043,350.694a.517.517,0,0,1-.244-.061,9.2,9.2,0,0,0-5.976-1.263,4.255,4.255,0,0,0-1.949.863.52.52,0,1,1-.717-.752,5.133,5.133,0,0,1,2.381-1.113c1.38-.291,3.672-.294,6.75,1.349a.52.52,0,0,1-.245.978Z" transform="translate(-198.861 -24.807)" fill="#fff"/><path d="M316.182,347.371s11.611,20.7,16.623,17.473-6.14-25.816-6.14-25.816Z" transform="translate(-201.045 -24.119)" fill="#fff"/><path d="M322.808,357.316a107.127,107.127,0,0,1-6.732-10.347l-1.392-13.579,11.875,5.237a122.018,122.018,0,0,1,5.489,13.264,24.077,24.077,0,0,0-9.239,5.425" transform="translate(-200.938 -23.718)" fill="#352c38"/><path d="M323.186,356.223a.52.52,0,0,1-.436-.8c1.889-2.935,3.892-4.048,5.239-4.465a5.131,5.131,0,0,1,2.622-.187.52.52,0,0,1-.26,1.006h0a4.253,4.253,0,0,0-2.123.2,9.2,9.2,0,0,0-4.6,4.013A.519.519,0,0,1,323.186,356.223Z" transform="translate(-201.541 -24.983)" fill="#fff"/><path d="M321.876,354.067a.52.52,0,0,1-.436-.8c1.889-2.934,3.892-4.047,5.24-4.465a5.132,5.132,0,0,1,2.622-.187.52.52,0,0,1-.26,1.006h0a4.255,4.255,0,0,0-2.123.195,9.2,9.2,0,0,0-4.6,4.013A.519.519,0,0,1,321.876,354.067Z" transform="translate(-201.447 -24.829)" fill="#fff"/><path d="M320.751,352.214a.52.52,0,0,1-.436-.8c1.889-2.934,3.892-4.047,5.239-4.464a5.131,5.131,0,0,1,2.622-.187.52.52,0,0,1-.26,1.006h0a4.255,4.255,0,0,0-2.123.195,9.2,9.2,0,0,0-4.6,4.013A.519.519,0,0,1,320.751,352.214Z" transform="translate(-201.367 -24.698)" fill="#fff"/><path d="M301.763,265.666,312.009,335.6l16.523.619s11.951-46.2,14.96-72.847-41.73,2.294-41.73,2.294" transform="translate(-200.019 -17.935)" fill="#567d9b"/><path d="M246.391,258.806s1.325,36.387,31.924,77.29c0,0,8.28,5.683,15.992.6l-2.659-43.839s34.723-9.026,47.806-28.414l1.312-34.985Z" transform="translate(-196.079 -16.324)" fill="#6f96bd"/><path d="M341.979,208.217l7.384,23.212,21.223-10.673s2.831-22.013-6.5-39.111-22.106,26.572-22.106,26.572" transform="translate(-202.88 -12.641)" fill="#1f1a21"/><path d="M239.995,166.79s-50.162,34.385-46.168,57.1a355.055,355.055,0,0,0,9.025,39.02l33.494,1.256.3-8.048s25.61,25.136,61.584,16.007,43.237-52.373,43.237-52.373S364,195.709,353.53,179.909s-39.987-26.631-39.987-26.631Z" transform="translate(-192.324 -10.905)" fill="#352c38"/><path d="M265.222,183.774c13.039,4.55,28.668,6.151,41.944,1.589,12.3-4.227,21.225-12.906,28.382-23.221a139.323,139.323,0,0,0-18.713-8.864L243.287,166.79s-1.278.877-3.4,2.438c7.859,5.871,16.1,11.323,25.338,14.546" transform="translate(-195.617 -10.905)" fill="#1f1a21"/><path d="M230.982,260.161c-7.395-5.321-15.079-10.227-22.429-15.61A171.149,171.149,0,0,1,194.57,233.3a349.381,349.381,0,0,0,8.35,35.3l33.494,1.255.225-5.984q-2.88-1.712-5.657-3.714" transform="translate(-192.393 -16.598)" fill="#1f1a21"/><path d="M275.443,63.751l17.02-3.727s36.559,63.217,24.286,92.536c-9.982,23.846-70.288,42.4-88.687-14.174-21.369-65.7,10.719-79.888,47.38-74.635" transform="translate(-194.287 -4.27)" fill="#f19c7c"/><path d="M289.288,57.91c-15.874-8.013-34.821-17.623-46.58-32.129-7.331,3.237-15.358,6.465-22.249,11.241C209,44.963,208.6,54.1,209.8,59.67c-5.53,1.6-14.048,5.713-16.978,16.084-4.473,15.836,17.805,55.469,17.805,55.469-2.633-7.373,1.35-10.134,6.215-10.542,1.769-.149,5.158,6.227,9.161,15.268a82.853,82.853,0,0,1,9.326-5.2c-4.778-12.087-8.315-22.673-8.315-22.673,18.839-10.934,4.588-31.837,4.588-31.837,18.313,3.111,41.256-.879,62.624-14.583.409-.263.779-.534,1.161-.8-2.04-.948-4.074-1.921-6.1-2.942" transform="translate(-192.226 -1.834)" fill="#965450"/><path d="M216.84,121.436c1.769-.149,5.158,6.227,9.161,15.268a82.862,82.862,0,0,1,9.326-5.2c-4.778-12.087-8.315-22.673-8.315-22.673C245.851,97.9,231.6,76.992,231.6,76.992a74.835,74.835,0,0,0,17.127.835,55.754,55.754,0,0,1-17.1-9.333c-8.354-6.822-11.444-17.92-9.721-28.311.193-1.166.414-2.453.673-3.8-.713.451-1.421.909-2.114,1.39C209,45.717,208.6,54.858,209.8,60.425c-5.53,1.6-14.048,5.713-16.978,16.084-4.473,15.836,17.805,55.47,17.805,55.47-2.633-7.373,1.35-10.134,6.215-10.543" transform="translate(-192.226 -2.589)" fill="#76413b"/><path d="M252.3,75.239s55.915,2.492,59.474-40.7-41.218-43.9-39.077-13.1,26.561.348,11.116-10.253-26.35-4.332-26.037,13.194,13.188-7.533-3.155-11.055-14.5,16.354-4.344,21.38S252.3,75.239,252.3,75.239" transform="translate(-195.802 0)" fill="#965450"/><path d="M271.077,98.277l-.453-.063c-.286-.053-.724-.09-1.247-.183-1.063-.152-2.555-.364-4.273-.57-.858-.1-1.776-.2-2.726-.256-.949-.085-1.932-.085-2.917-.093a25.406,25.406,0,0,0-2.919.237,13.774,13.774,0,0,0-2.716.708,10.623,10.623,0,0,0-2.4,1.23,13.69,13.69,0,0,0-2.094,1.751c-.332.323-.6.707-.927,1.035-.3.354-.552.747-.844,1.1s-.5.764-.764,1.125l-.374.549-.322.56-.643,1.06-.543,1c-.356.631-.693,1.191-.924,1.671s-.475.848-.615,1.107l-.241.395s-.031-.155-.09-.447c-.042-.291-.137-.725-.19-1.273a12.768,12.768,0,0,1-.12-2c0-.388.006-.8.019-1.239.051-.437.1-.9.159-1.374a10.272,10.272,0,0,1,.281-1.5,15.8,15.8,0,0,1,.449-1.595c.2-.54.412-1.1.67-1.658.285-.553.581-1.116.935-1.671a13.27,13.27,0,0,1,1.232-1.616l.717-.774c.246-.255.541-.467.814-.7a13,13,0,0,1,3.791-2.189,14.77,14.77,0,0,1,4.191-.865,14.313,14.313,0,0,1,2.029.018,15.561,15.561,0,0,1,1.923.231,19.265,19.265,0,0,1,3.426.965,20.221,20.221,0,0,1,2.814,1.327,20.461,20.461,0,0,1,2.174,1.424A18.279,18.279,0,0,1,269.882,97a12,12,0,0,1,.9.924c.2.223.294.355.294.355" transform="translate(-195.819 -6.525)" fill="#76413b"/><path d="M281.817,96.148a4.109,4.109,0,0,1-.121-.4,9.858,9.858,0,0,1-.231-1.156,14.5,14.5,0,0,1-.006-4.214,13.2,13.2,0,0,1,2.323-5.878,10.534,10.534,0,0,1,2.941-2.712,9.956,9.956,0,0,1,4.042-1.4,11.966,11.966,0,0,1,4.043.231c.621.141,1.208.34,1.792.532.55.232,1.091.458,1.609.709a18.815,18.815,0,0,1,2.708,1.713,19.659,19.659,0,0,1,2.108,1.83,22.315,22.315,0,0,1,1.552,1.743,14.982,14.982,0,0,1,1.048,1.469c.283.409.469.768.61,1l.2.367-.409-.106c-.255-.082-.65-.174-1.107-.34l-1.654-.561c-.635-.2-1.313-.487-2.064-.734s-1.527-.568-2.356-.807c-.815-.3-1.67-.513-2.519-.769-.43-.08-.853-.19-1.278-.3-.423-.046-.844-.134-1.255-.2a9.73,9.73,0,0,0-2.317-.009,6.132,6.132,0,0,0-2,.545,8.794,8.794,0,0,0-1.827,1.188,18.577,18.577,0,0,0-3.035,3.632c-.837,1.268-1.522,2.438-2.017,3.276-.225.424-.449.757-.57.992l-.209.361" transform="translate(-198.564 -5.713)" fill="#76413b"/><path d="M281.243,99.079q1.471,1.531,2.838,3.134c.926,1.059,1.808,2.148,2.7,3.232s1.73,2.2,2.6,3.3l2.508,3.362q1.24,1.689,2.438,3.409c.805,1.142,1.586,2.3,2.371,3.455s1.546,2.327,2.289,3.512,1.514,2.35,2.223,3.558l.694,1.18-1.107.493c-.881.393-1.754.8-2.64,1.182l-2.669,1.128c-1.8.713-3.593,1.439-5.451,2.041,1.549-1.189,3.165-2.252,4.773-3.329l2.443-1.557c.818-.513,1.649-1,2.472-1.5l-.413,1.673c-.874-1.093-1.69-2.227-2.529-3.347s-1.652-2.253-2.464-3.391-1.6-2.289-2.382-3.448-1.557-2.32-2.314-3.5l-2.245-3.542c-.717-1.2-1.456-2.389-2.156-3.6s-1.4-2.43-2.057-3.673-1.312-2.488-1.914-3.769" transform="translate(-198.559 -7.048)" fill="#d86c5d"/><path d="M254.144,120.736l-.106-.3a7.216,7.216,0,0,1-.269-.872,9.359,9.359,0,0,1-.264-1.41,9.707,9.707,0,0,1-.064-1.883,8.769,8.769,0,0,1,.389-2.243,7.755,7.755,0,0,1,3.2-4.338l.643-.363.081-.045.02-.011.01-.006.063-.03.038-.016.151-.064.3-.128.615-.255.749-.213a8.285,8.285,0,0,1,1.5-.223,8.4,8.4,0,0,1,1.492.088,7.422,7.422,0,0,1,2.689.995,8.82,8.82,0,0,1,1.977,1.681,9.8,9.8,0,0,1,1.319,1.833,10.6,10.6,0,0,1,.805,1.692,10.952,10.952,0,0,1,.442,1.358c.112.377.145.691.191.895s.059.315.059.315-.22-.386-.607-1.062c-.2-.328-.439-.728-.743-1.162a16.609,16.609,0,0,0-1.062-1.4,12.862,12.862,0,0,0-1.422-1.44,9.8,9.8,0,0,0-1.795-1.221,6.8,6.8,0,0,0-2.118-.632,6.461,6.461,0,0,0-1.123-.038,6.764,6.764,0,0,0-1.11.193l-.532.123-.611.236-.307.12-.152.06-.039.015c.1-.046.025-.01.046-.02l-.008,0-.016.008-.062.033-.505.267a6.978,6.978,0,0,0-1.693,1.429,8.974,8.974,0,0,0-1.781,3.717,14.2,14.2,0,0,0-.3,1.72c-.051.522-.09.99-.093,1.369s-.016.693-.008.9l0,.321" transform="translate(-196.579 -7.707)" fill="#1f1a21"/><path d="M291.926,108.488s-.047-.1-.135-.277a6.839,6.839,0,0,1-.354-.8,9.021,9.021,0,0,1-.41-1.31,9.233,9.233,0,0,1-.272-1.782,8.379,8.379,0,0,1,.117-2.174,7.247,7.247,0,0,1,.816-2.365,7.33,7.33,0,0,1,1.736-2.116l.569-.417.072-.052a.561.561,0,0,1,.084-.054l.034-.02.137-.078.274-.155.555-.312.687-.286a6.985,6.985,0,0,1,2.825-.464,7.118,7.118,0,0,1,2.666.643,8.4,8.4,0,0,1,2.067,1.374,9.388,9.388,0,0,1,1.459,1.593,11.925,11.925,0,0,1,1.529,2.756c.148.346.215.64.281.829s.092.293.092.293l-.7-.94c-.23-.289-.5-.643-.837-1.02a15.913,15.913,0,0,0-1.166-1.209,12.216,12.216,0,0,0-1.513-1.208,9.393,9.393,0,0,0-1.841-.959,6.522,6.522,0,0,0-2.083-.361,6.227,6.227,0,0,0-1.07.09,6.556,6.556,0,0,0-1.033.308l-.491.176-.555.293-.278.149-.138.074-.035.019c.087-.05.008,0,.02-.008l-.056.039-.449.31a6.646,6.646,0,0,0-1.449,1.548,8.6,8.6,0,0,0-1.273,3.73,13.6,13.6,0,0,0-.086,1.667c.009.5.025.95.065,1.311s.064.66.094.858.039.3.039.3" transform="translate(-199.234 -6.817)" fill="#1f1a21"/><path d="M263.463,146.8s.719.251,1.974.642,3.054.9,5.215,1.417c1.083.247,2.257.492,3.5.722s2.558.4,3.913.56,2.763.209,4.183.257a37.821,37.821,0,0,0,4.286-.173,32.188,32.188,0,0,0,4.212-.66c.686-.153,1.352-.359,2.025-.516.651-.221,1.306-.417,1.934-.651.618-.26,1.235-.5,1.827-.761.581-.283,1.17-.533,1.716-.828l1.58-.89,1.436-.92c.477-.28.864-.637,1.281-.921.4-.3.813-.56,1.146-.863.674-.594,1.331-1.059,1.8-1.514.959-.892,1.543-1.39,1.543-1.39s-.379.651-1.106,1.774c-.357.568-.874,1.191-1.454,1.928a25.035,25.035,0,0,1-2.163,2.3l-1.358,1.208-1.573,1.155c-.551.384-1.151.726-1.751,1.105s-1.273.652-1.928.991c-.671.3-1.373.57-2.076.861-.721.234-1.447.5-2.2.685a28.338,28.338,0,0,1-4.616.816,31.858,31.858,0,0,1-4.663.093,35.743,35.743,0,0,1-4.454-.547,33.206,33.206,0,0,1-4.05-.986,34.742,34.742,0,0,1-3.5-1.245,35.114,35.114,0,0,1-4.941-2.48,19.007,19.007,0,0,1-1.735-1.168" transform="translate(-197.294 -9.983)" fill="#d86c5d"/><path d="M229.874,149.506s-8.029-27-16.771-24.074c-6.74,2.255-6.362,42.524,23.777,32.014Z" transform="translate(-193.459 -8.908)" fill="#f19c7c"/><path d="M225.175,156.1a7.785,7.785,0,0,1-2.422-.636,3.528,3.528,0,0,1-1.137-.773,2.085,2.085,0,0,1-.431-.685,1.845,1.845,0,0,1-.107-.886,2.455,2.455,0,0,1,.259-.805,3.654,3.654,0,0,1,.426-.636,7.03,7.03,0,0,1,1.006-.951,10.988,10.988,0,0,1,1.075-.76c.361-.244.741-.429,1.114-.64l-.554,1.333-1.8-3.863c-.594-1.29-1.234-2.557-1.843-3.831-.625-1.266-1.252-2.524-1.919-3.743a27.637,27.637,0,0,0-2.129-3.429,4.461,4.461,0,0,0-1.036-1.072c-.062-.049-.033-.012-.006-.045a.118.118,0,0,0,.1-.017l.01-.007,0,0,0,0c.059-.024-.13.053.134-.057l-.061.026-.124.055a1.12,1.12,0,0,0-.1.049.063.063,0,0,0,.035,0c.02,0,.038-.053.006-.008a.74.74,0,0,0-.154.184,4.643,4.643,0,0,0-.549,1.577,15.594,15.594,0,0,0-.227,2c-.111,1.377-.072,2.794-.056,4.219l.159,4.314a31,31,0,0,1-1.315-4.158,29.093,29.093,0,0,1-.759-4.348,15.866,15.866,0,0,1-.03-2.3,6.357,6.357,0,0,1,.609-2.534,3.273,3.273,0,0,1,.475-.685,2.266,2.266,0,0,1,.4-.368c.08-.06.163-.117.245-.173l.134-.073.118-.063.059-.032c.268-.114.085-.035.15-.062l.02-.006.038-.01.076-.02a3.514,3.514,0,0,1,.628-.1,2.857,2.857,0,0,1,1.028.218,6.043,6.043,0,0,1,2.165,1.74,23.761,23.761,0,0,1,2.51,3.8c.365.643.687,1.3,1.014,1.958s.631,1.318.925,1.983c.6,1.325,1.118,2.683,1.636,4.035s.965,2.726,1.405,4.12l.311.988-.866.345a19.418,19.418,0,0,0-2.082.913,3.243,3.243,0,0,0-1.405,1.2.611.611,0,0,0-.049.316.965.965,0,0,0,.131.382,3.194,3.194,0,0,0,.711.788,10.5,10.5,0,0,0,2.044,1.248" transform="translate(-193.684 -9.396)" fill="#d86c5d"/></g><g transform="translate(-225 -152.571)"><text transform="translate(1320.651 14186.006)" fill="#12263f" font-size="17" font-family="Roboto-Regular, Roboto"><tspan x="-29.376" y="0">servicio</tspan></text><rect width="151.262" height="154.279" transform="translate(777 14104.431)" fill="#3d672f"/><path d="M-7457,1610.7h750.7l19.063,33.181H-7457Z" transform="translate(8234 12450.986)" fill="#ffb338"/><path d="M-7457,1610.7h729.2l18.519,33.181H-7457Z" transform="translate(8233.999 12407.393)" fill="#ffb338"/><path d="M-7457,1610.7h710.4l18.041,33.181H-7457Z" transform="translate(8233.999 12364.28)" fill="#ffb338"/><path d="M-7457,1610.7h689.924l17.522,33.181H-7457Z" transform="translate(8234 12321.165)" fill="#ffb338"/><path d="M-7087.96,1796.55h52.431l73.234-155.266h-127.091Z" transform="translate(8510.528 12462.052)" fill="#3d672f"/><path d="M-7041.293,1841.732h36.372l75.941-158.551-82.055-166.7h-37.414l82.238,166.7Z" transform="translate(8525.98 12414.94)" fill="#eb6f2d"/><g transform="translate(1259.447 14104.431)"><rect width="151.262" height="154.279" transform="translate(0 0.258)" fill="#3d672f"/><text transform="translate(74.845 68.258)" fill="#fff" font-size="22" font-family="Roboto-Italic, Roboto" font-style="italic"><tspan x="-48.222" y="0">Marketing</tspan><tspan font-family="Roboto-Regular, Roboto" font-style="normal"><tspan x="-40.401" y="35">y ventas</tspan></tspan></text></g><text transform="translate(1466.172 14170.848)" fill="#fff" font-size="22" font-family="Roboto-Regular, Roboto"><tspan x="-38.871" y="0">Servicio</tspan></text><text transform="translate(1532.373 14020.182) rotate(65)" fill="#12263f" font-size="22" font-family="Roboto-Regular, Roboto"><tspan x="-37.377" y="0">Margen</tspan></text><text transform="translate(1534.347 14173.256) rotate(115)" fill="#12263f" font-size="22" font-family="Roboto-Regular, Roboto"><tspan x="-37.377" y="0">Margen</tspan></text><text transform="translate(1122 14085.688)" fill="#12263f" font-size="20" font-family="Roboto-Regular, Roboto"><tspan x="-40.371" y="0">Compras</tspan></text><text transform="translate(1122 14041.096)" fill="#12263f" font-size="22" font-family="Roboto-Regular, Roboto"><tspan x="-118.733" y="0">Desarrollo de tecnología</tspan></text><text transform="translate(1122 13997.983)" fill="#12263f" font-size="22" font-family="Roboto-Regular, Roboto"><tspan x="-148.994" y="0">Gestión de recursos humanos </tspan></text><text transform="translate(1122 13956.93)" fill="#12263f" font-size="22" font-family="Roboto-Regular, Roboto"><tspan x="-143.532" y="0">infraestructura de la empresa</tspan></text><text transform="translate(1122 13893.146)" fill="#12263f" font-size="22" font-family="Roboto-Bold, Roboto" font-weight="700"><tspan x="-116.735" y="0">Actividades de soporte </tspan></text><text transform="translate(1126 14323.997)" fill="#12263f" font-size="22" font-family="Roboto-Bold, Roboto" font-weight="700"><tspan x="-107.905" y="0">Actividades primarias</tspan></text><text transform="translate(854.068 14169.848)" fill="#fff" font-size="21" font-family="Roboto-Regular, Roboto"><tspan x="-45.322" y="0">Logística </tspan><tspan x="-49.562" y="32">de entrada</tspan></text><g transform="translate(937.816 14104.431)"><rect width="151.262" height="154.279" transform="translate(0 0.258)" fill="#3d672f"/><text transform="translate(74.495 85.258)" fill="#fff" font-size="20" font-family="Roboto-Regular, Roboto" letter-spacing="-0.032em"><tspan x="-52.547" y="0">Operaciones</tspan></text></g><g transform="translate(1099.427 14104.431)"><rect width="151.262" height="154.279" transform="translate(0 0.258)" fill="#3d672f"/><text transform="translate(73.66 69.258)" fill="#fff" font-size="22" font-family="Roboto-Regular, Roboto"><tspan x="-44.757" y="0">Logística</tspan><tspan x="-44.79" y="33">de Salida</tspan></text></g><path d="M-7474.3,1481.21l.243-10.04h688.938l-.243,13.833" transform="translate(8251.805 12441.086)" fill="none" stroke="#727997" stroke-width="2"/><path d="M-7474,1477.117v14.865h697.915v-20.811" transform="translate(8251.5 12793.916)" fill="none" stroke="#727997" stroke-width="2"/></g></g></g></svg>