<svg xmlns="http://www.w3.org/2000/svg" xmlns:xlink="http://www.w3.org/1999/xlink" width="412.401" height="313.973" viewBox="0 0 412.401 313.973"><defs><clipPath id="a"><path d="M17.3,0H382.7A17.3,17.3,0,0,1,400,17.3V130.944a17.3,17.3,0,0,1-17.3,17.3H17.3A17.3,17.3,0,0,1,0,130.945V17.3A17.3,17.3,0,0,1,17.3,0Z" fill="#ffb338"/></clipPath><clipPath id="b"><rect width="262.547" height="257.959" fill="none"/></clipPath><filter id="c" x="25.135" y="257.594" width="70.068" height="56.379" filterUnits="userSpaceOnUse"><feOffset dy="3" input="SourceAlpha"/><feGaussianBlur stdDeviation="3" result="d"/><feFlood flood-opacity="0.161"/><feComposite operator="in" in2="d"/><feComposite in="SourceGraphic"/></filter><filter id="e" x="0" y="0" width="412.401" height="274.641" filterUnits="userSpaceOnUse"><feOffset dy="3" input="SourceAlpha"/><feGaussianBlur stdDeviation="8" result="f"/><feFlood flood-opacity="0.161"/><feComposite operator="in" in2="f"/><feComposite in="SourceGraphic"/></filter></defs><g transform="translate(-803.999 -14553.246)"><g transform="translate(810 14635.102)" clip-path="url(#a)"><path d="M0,0H400V148.246H0Z" transform="translate(0 0)" fill="#ffb338"/></g><path d="M0,0H262.547V257.959H0Z" transform="translate(810 14597.287)" fill="none"/><path d="M0,0H262.547V257.959H0V0Z" transform="translate(813.115 14597.287)" fill="none"/><path d="M51.421,16.609H47.193L46.455,19h-3.3L47.853,6.2h2.9L55.482,19H52.168Zm-3.489-2.382h2.751L49.3,9.789ZM60.3,16.891a1.317,1.317,0,0,0,.967-.338,1.241,1.241,0,0,0,.334-.945h2.777a3.288,3.288,0,0,1-1.121,2.566,4.168,4.168,0,0,1-2.887,1,4.22,4.22,0,0,1-3.27-1.3,5.125,5.125,0,0,1-1.2-3.6v-.123a5.792,5.792,0,0,1,.532-2.544,3.872,3.872,0,0,1,1.534-1.7,4.573,4.573,0,0,1,2.373-.593,4.116,4.116,0,0,1,2.944,1.028,3.647,3.647,0,0,1,1.09,2.786H61.6A1.626,1.626,0,0,0,61.238,12a1.244,1.244,0,0,0-.967-.4q-1.151,0-1.345,1.468a10.357,10.357,0,0,0-.062,1.283,4.068,4.068,0,0,0,.343,1.986A1.187,1.187,0,0,0,60.3,16.891Zm8.78-9.765V9.49h1.564v2.057H69.078V15.9a1.111,1.111,0,0,0,.193.747,1.037,1.037,0,0,0,.765.211,4.345,4.345,0,0,0,.738-.053v2.118a5.466,5.466,0,0,1-1.67.255,3.1,3.1,0,0,1-2.259-.721,2.954,2.954,0,0,1-.729-2.188v-4.72H64.9V9.49h1.213V7.126ZM74.932,19H71.961V9.49h2.971ZM71.785,7.038A1.322,1.322,0,0,1,72.242,6a1.943,1.943,0,0,1,2.373,0,1.322,1.322,0,0,1,.457,1.037,1.322,1.322,0,0,1-.457,1.037,1.943,1.943,0,0,1-2.373,0A1.322,1.322,0,0,1,71.785,7.038Zm8.763,8.438,1.5-5.985h3.12L82.068,19H79.045l-3.1-9.51h3.129ZM89.179,19H86.208V9.49h2.971ZM86.032,7.038A1.322,1.322,0,0,1,86.489,6a1.943,1.943,0,0,1,2.373,0,1.322,1.322,0,0,1,.457,1.037,1.322,1.322,0,0,1-.457,1.037,1.943,1.943,0,0,1-2.373,0A1.322,1.322,0,0,1,86.032,7.038Zm4.6,7.137a5.809,5.809,0,0,1,.976-3.56,3.211,3.211,0,0,1,2.725-1.3,2.731,2.731,0,0,1,2.145,1V5.5h2.971V19H96.781l-.149-1.02a2.8,2.8,0,0,1-2.32,1.2,3.205,3.205,0,0,1-2.689-1.3A5.993,5.993,0,0,1,90.629,14.175Zm2.962.185q0,2.531,1.477,2.531a1.458,1.458,0,0,0,1.406-.826V12.443a1.419,1.419,0,0,0-1.389-.844q-1.371,0-1.485,2.215ZM106.484,19a3.344,3.344,0,0,1-.281-.853,2.754,2.754,0,0,1-2.285,1.028,3.374,3.374,0,0,1-2.285-.813,2.588,2.588,0,0,1-.94-2.043,2.66,2.66,0,0,1,1.143-2.338,5.821,5.821,0,0,1,3.322-.791h.914v-.5q0-1.316-1.134-1.316a.927.927,0,0,0-1.055,1.042h-2.962a2.655,2.655,0,0,1,1.173-2.239,4.931,4.931,0,0,1,2.993-.86,4.323,4.323,0,0,1,2.874.888,3.086,3.086,0,0,1,1.081,2.435v4.21a4.311,4.311,0,0,0,.4,2V19Zm-1.854-1.934a1.652,1.652,0,0,0,.918-.237,1.487,1.487,0,0,0,.523-.536V14.772h-.861q-1.547,0-1.547,1.389a.848.848,0,0,0,.272.655A.986.986,0,0,0,104.63,17.066Zm5.678-2.892a5.809,5.809,0,0,1,.976-3.56,3.211,3.211,0,0,1,2.725-1.3,2.731,2.731,0,0,1,2.145,1V5.5h2.971V19H116.46l-.149-1.02a2.8,2.8,0,0,1-2.32,1.2,3.205,3.205,0,0,1-2.689-1.3A5.993,5.993,0,0,1,110.308,14.175Zm2.962.185q0,2.531,1.477,2.531a1.458,1.458,0,0,0,1.406-.826V12.443a1.419,1.419,0,0,0-1.389-.844q-1.371,0-1.485,2.215Zm12.138,4.816a4.889,4.889,0,0,1-3.542-1.305,4.507,4.507,0,0,1-1.354-3.4v-.246a5.84,5.84,0,0,1,.541-2.575,3.955,3.955,0,0,1,1.578-1.727,4.763,4.763,0,0,1,2.461-.611,4.117,4.117,0,0,1,3.164,1.244,4.887,4.887,0,0,1,1.16,3.467v1.151h-5.889a2.135,2.135,0,0,0,.694,1.257,2.066,2.066,0,0,0,1.389.457,2.662,2.662,0,0,0,2.2-.984l1.354,1.6a3.784,3.784,0,0,1-1.569,1.217A5.3,5.3,0,0,1,125.407,19.176Zm-.334-7.576q-1.3,0-1.547,1.723h2.988v-.229a1.467,1.467,0,0,0-.36-1.1A1.434,1.434,0,0,0,125.073,11.6Zm10.512,4.729a.684.684,0,0,0-.4-.606,6.016,6.016,0,0,0-1.5-.475,6.853,6.853,0,0,1-1.828-.646,3.062,3.062,0,0,1-1.1-.971,2.319,2.319,0,0,1-.378-1.31,2.628,2.628,0,0,1,1.081-2.158,4.453,4.453,0,0,1,2.83-.848,4.934,4.934,0,0,1,3.023.853,2.666,2.666,0,0,1,1.143,2.241h-2.971q0-1.143-1.2-1.143a1.194,1.194,0,0,0-.782.259.8.8,0,0,0-.316.646.737.737,0,0,0,.387.642,3.654,3.654,0,0,0,1.235.4,10.671,10.671,0,0,1,1.49.378,2.706,2.706,0,0,1,2.145,2.646,2.491,2.491,0,0,1-1.156,2.118,5.068,5.068,0,0,1-2.993.817,5.172,5.172,0,0,1-2.18-.439,3.645,3.645,0,0,1-1.494-1.2,2.707,2.707,0,0,1-.536-1.591h2.769a1.145,1.145,0,0,0,.439.962,1.808,1.808,0,0,0,1.081.3,1.422,1.422,0,0,0,.91-.246A.787.787,0,0,0,135.585,16.328Zm-88.132,24a.684.684,0,0,0-.4-.606,6.016,6.016,0,0,0-1.5-.475,6.853,6.853,0,0,1-1.828-.646,3.062,3.062,0,0,1-1.1-.971,2.319,2.319,0,0,1-.378-1.31,2.628,2.628,0,0,1,1.081-2.158,4.453,4.453,0,0,1,2.83-.848,4.934,4.934,0,0,1,3.023.853,2.666,2.666,0,0,1,1.143,2.241H47.356q0-1.143-1.2-1.143a1.194,1.194,0,0,0-.782.259.8.8,0,0,0-.316.646.737.737,0,0,0,.387.642,3.654,3.654,0,0,0,1.235.4,10.671,10.671,0,0,1,1.49.378,2.706,2.706,0,0,1,2.145,2.646,2.491,2.491,0,0,1-1.156,2.118,5.068,5.068,0,0,1-2.993.817,5.172,5.172,0,0,1-2.18-.439,3.645,3.645,0,0,1-1.494-1.2,2.707,2.707,0,0,1-.536-1.591h2.769a1.145,1.145,0,0,0,.439.962,1.808,1.808,0,0,0,1.081.3,1.422,1.422,0,0,0,.91-.246A.787.787,0,0,0,47.453,40.328Zm8.842,2.848a4.889,4.889,0,0,1-3.542-1.305,4.507,4.507,0,0,1-1.354-3.4v-.246a5.84,5.84,0,0,1,.541-2.575,3.955,3.955,0,0,1,1.578-1.727,4.763,4.763,0,0,1,2.461-.611,4.117,4.117,0,0,1,3.164,1.244,4.887,4.887,0,0,1,1.16,3.467v1.151H54.414a2.135,2.135,0,0,0,.694,1.257,2.066,2.066,0,0,0,1.389.457,2.662,2.662,0,0,0,2.2-.984l1.354,1.6a3.784,3.784,0,0,1-1.569,1.217A5.3,5.3,0,0,1,56.295,43.176ZM55.961,35.6q-1.3,0-1.547,1.723H57.4v-.229a1.467,1.467,0,0,0-.36-1.1A1.434,1.434,0,0,0,55.961,35.6Zm9.554,5.291a1.317,1.317,0,0,0,.967-.338,1.241,1.241,0,0,0,.334-.945h2.777a3.288,3.288,0,0,1-1.121,2.566,4.168,4.168,0,0,1-2.887,1,4.22,4.22,0,0,1-3.27-1.3,5.125,5.125,0,0,1-1.2-3.6v-.123a5.792,5.792,0,0,1,.532-2.544,3.872,3.872,0,0,1,1.534-1.7,4.573,4.573,0,0,1,2.373-.593A4.116,4.116,0,0,1,68.5,34.343a3.647,3.647,0,0,1,1.09,2.786H66.815A1.626,1.626,0,0,0,66.455,36a1.244,1.244,0,0,0-.967-.4q-1.151,0-1.345,1.468a10.357,10.357,0,0,0-.062,1.283,4.068,4.068,0,0,0,.343,1.986A1.187,1.187,0,0,0,65.514,40.891Zm11,1.081a3.054,3.054,0,0,1-2.54,1.2,3,3,0,0,1-2.369-.91,3.826,3.826,0,0,1-.8-2.615V33.49h2.962v6.179a1.065,1.065,0,0,0,1.187,1.222,1.548,1.548,0,0,0,1.45-.729V33.49h2.979V43H76.6Zm7.207-8.481.1,1.116a3.225,3.225,0,0,1,2.716-1.292,2.713,2.713,0,0,1,2.219.888,4.226,4.226,0,0,1,.76,2.672V43H86.538V37a1.6,1.6,0,0,0-.29-1.059,1.342,1.342,0,0,0-1.055-.338,1.413,1.413,0,0,0-1.292.686V43H80.939V33.49Zm7.058,4.685a5.809,5.809,0,0,1,.976-3.56,3.211,3.211,0,0,1,2.725-1.3,2.731,2.731,0,0,1,2.145,1V29.5h2.971V43H96.926l-.149-1.02a2.8,2.8,0,0,1-2.32,1.2,3.205,3.205,0,0,1-2.689-1.3A5.993,5.993,0,0,1,90.774,38.175Zm2.962.185q0,2.531,1.477,2.531a1.458,1.458,0,0,0,1.406-.826V36.443A1.419,1.419,0,0,0,95.23,35.6q-1.371,0-1.485,2.215ZM106.63,43a3.344,3.344,0,0,1-.281-.853,2.754,2.754,0,0,1-2.285,1.028,3.374,3.374,0,0,1-2.285-.813,2.588,2.588,0,0,1-.94-2.043,2.66,2.66,0,0,1,1.143-2.338,5.821,5.821,0,0,1,3.322-.791h.914v-.5q0-1.316-1.134-1.316a.927.927,0,0,0-1.055,1.042h-2.962a2.655,2.655,0,0,1,1.173-2.239,4.931,4.931,0,0,1,2.993-.86,4.323,4.323,0,0,1,2.874.888,3.086,3.086,0,0,1,1.081,2.435v4.21a4.311,4.311,0,0,0,.4,2V43Zm-1.854-1.934a1.652,1.652,0,0,0,.918-.237,1.487,1.487,0,0,0,.523-.536V38.772h-.861q-1.547,0-1.547,1.389a.848.848,0,0,0,.272.655A.986.986,0,0,0,104.775,41.066Zm11.8-4.9-.976-.07a1.752,1.752,0,0,0-1.793.879V43h-2.962V33.49h2.777l.1,1.222a2.294,2.294,0,0,1,2.083-1.4,2.888,2.888,0,0,1,.826.105ZM120.771,43H117.8V33.49h2.971Zm-3.146-11.962A1.322,1.322,0,0,1,118.082,30a1.943,1.943,0,0,1,2.373,0,1.405,1.405,0,0,1,0,2.074,1.943,1.943,0,0,1-2.373,0A1.322,1.322,0,0,1,117.625,31.038ZM127.952,43a3.344,3.344,0,0,1-.281-.853,2.754,2.754,0,0,1-2.285,1.028,3.374,3.374,0,0,1-2.285-.813,2.588,2.588,0,0,1-.94-2.043,2.66,2.66,0,0,1,1.143-2.338,5.821,5.821,0,0,1,3.322-.791h.914v-.5q0-1.316-1.134-1.316a.927.927,0,0,0-1.055,1.042h-2.962a2.655,2.655,0,0,1,1.173-2.239,4.931,4.931,0,0,1,2.993-.86,4.323,4.323,0,0,1,2.874.888,3.086,3.086,0,0,1,1.081,2.435v4.21a4.311,4.311,0,0,0,.4,2V43ZM126.1,41.066a1.652,1.652,0,0,0,.918-.237,1.487,1.487,0,0,0,.523-.536V38.772h-.861q-1.547,0-1.547,1.389a.848.848,0,0,0,.272.655A.986.986,0,0,0,126.1,41.066Zm11.03-.738a.684.684,0,0,0-.4-.606,6.016,6.016,0,0,0-1.5-.475A6.853,6.853,0,0,1,133.4,38.6a3.062,3.062,0,0,1-1.1-.971,2.319,2.319,0,0,1-.378-1.31,2.628,2.628,0,0,1,1.081-2.158,4.453,4.453,0,0,1,2.83-.848,4.934,4.934,0,0,1,3.023.853A2.666,2.666,0,0,1,140,36.408h-2.971q0-1.143-1.2-1.143a1.194,1.194,0,0,0-.782.259.8.8,0,0,0-.316.646.737.737,0,0,0,.387.642,3.654,3.654,0,0,0,1.235.4,10.671,10.671,0,0,1,1.49.378,2.706,2.706,0,0,1,2.145,2.646,2.491,2.491,0,0,1-1.156,2.118,5.068,5.068,0,0,1-2.993.817,5.172,5.172,0,0,1-2.18-.439,3.645,3.645,0,0,1-1.494-1.2,2.707,2.707,0,0,1-.536-1.591h2.769a1.145,1.145,0,0,0,.439.962,1.808,1.808,0,0,0,1.081.3,1.422,1.422,0,0,0,.91-.246A.787.787,0,0,0,137.128,40.328Z" transform="translate(919.415 14811.477)" fill="#12263f"/><g transform="matrix(1, 0, 0, 1, 804, 14553.25)" filter="url(#c)"><path d="M26.4-18.71a36.456,36.456,0,0,1-.841,8.255,19.235,19.235,0,0,1-2.433,6.069A10.949,10.949,0,0,1,19.215-.634,10.7,10.7,0,0,1,13.949.647,9.99,9.99,0,0,1,8.967-.582,10.441,10.441,0,0,1,5.279-4.167,18.167,18.167,0,0,1,3-9.95,35.764,35.764,0,0,1,2.226-17.8,40.484,40.484,0,0,1,3.041-26.4a19.652,19.652,0,0,1,2.394-6.25,10.655,10.655,0,0,1,3.921-3.8,11.008,11.008,0,0,1,5.37-1.281Q26.4-37.731,26.4-18.71Zm-4.348.414q0-15.838-7.531-15.838-7.945,0-7.945,16.123,0,15.036,7.79,15.036Q22.049-2.976,22.049-18.3Zm26.5-9.083a7.673,7.673,0,0,0-.531-2.976,5.9,5.9,0,0,0-1.449-2.109,5.938,5.938,0,0,0-2.161-1.255,8.462,8.462,0,0,0-2.691-.414,8.9,8.9,0,0,0-2.433.336,11.826,11.826,0,0,0-2.316.932,14.248,14.248,0,0,0-2.174,1.423,15.7,15.7,0,0,0-1.954,1.837V-34.16a12.689,12.689,0,0,1,4-2.653,14.078,14.078,0,0,1,5.4-.919,13.026,13.026,0,0,1,4.218.66,9.671,9.671,0,0,1,3.364,1.928,8.913,8.913,0,0,1,2.239,3.131,10.561,10.561,0,0,1,.815,4.27,14.642,14.642,0,0,1-.5,3.985,12.325,12.325,0,0,1-1.527,3.364,16.234,16.234,0,0,1-2.575,3.028,36.474,36.474,0,0,1-3.649,2.95Q42-12.551,40.306-11.231A19.048,19.048,0,0,0,37.615-8.76a7.172,7.172,0,0,0-1.4,2.3,8.051,8.051,0,0,0-.4,2.653H54.294V0h-22.9V-1.837a15.312,15.312,0,0,1,.518-4.192,10.886,10.886,0,0,1,1.708-3.442,19.1,19.1,0,0,1,3.118-3.261q1.928-1.63,4.723-3.675a29.858,29.858,0,0,0,3.377-2.769,14.4,14.4,0,0,0,2.187-2.64A9.48,9.48,0,0,0,48.2-24.494,11.549,11.549,0,0,0,48.549-27.38Z" transform="translate(31.91 301.33)" fill="#12263f"/></g><g transform="matrix(1, 0, 0, 1, 804, 14553.25)" filter="url(#e)"><path d="M5015.819,11911.543l-24.937-35.015c-.079-.11-.151-.222-.22-.335H4855a18,18,0,0,1-18-18V11705a18,18,0,0,1,18-18h328.4a18,18,0,0,1,18,18v153.192a18,18,0,0,1-18,18H5049.125c-.068.113-.142.225-.22.335l-24.94,35.015a5,5,0,0,1-8.145,0Z" transform="translate(-4813 -11666)" fill="#fff"/></g></g></svg>