<svg xmlns="http://www.w3.org/2000/svg" width="295" height="495.121" viewBox="0 0 295 495.121">
  <g id="Grupo_765823" data-name="Grupo 765823" transform="translate(-809.92 -8877.129)">
    <g id="Rectángulo_289620" data-name="Rectángulo 289620" transform="translate(961.334 8928.197) rotate(45)" fill="#ff690f" stroke="#ff690f" stroke-width="1">
      <rect width="35.946" height="35.946" stroke="none"/>
      <rect x="0.5" y="0.5" width="34.946" height="34.946" fill="none"/>
    </g>
    <g id="Grupo_746857" data-name="Grupo 746857" transform="translate(920.933 8998.631)">
      <path id="Trazado_150879" data-name="Trazado 150879" d="M-2970-10240.482v78.942" transform="translate(3010.336 10240.482)" fill="none" stroke="#ff690f" stroke-width="1" stroke-dasharray="5 5"/>
      <path id="Trazado_150880" data-name="Trazado 150880" d="M-3001.047-10181.678h78.974" transform="translate(3001.047 10260.62)" fill="none" stroke="#ff690f" stroke-width="3"/>
    </g>
    <path id="Trazado_512056" data-name="Trazado 512056" d="M10,0H285a10,10,0,0,1,10,10V268a10,10,0,0,1-10,10H10A10,10,0,0,1,0,268V10A10,10,0,0,1,10,0Z" transform="translate(809.92 9094.25)" fill="#eb6f2d" opacity="0.91"/>
    <g id="Grupo_746865" data-name="Grupo 746865" transform="translate(806.92 9083.274)">
      <text id="Busca_en_cientos_de_webs_de_viajes_a_la_vez_y_muestra_a_los_viajeros_la_información_que_necesitan_para_elegir_el_vuelo_hotel_carro_de_alquiler_o_paquete_de_viaje_perfecto._" data-name="Busca en cientos de webs de viajes a la vez y muestra a los viajeros la información que necesitan para elegir el vuelo, hotel, carro de alquiler o paquete de viaje perfecto.

" transform="translate(23 31.771)" fill="#12263f" font-size="16" font-family="Roboto-Regular, Roboto"><tspan x="0" y="17">Busca en cientos de webs de viajes </tspan><tspan x="0" y="41">a la vez y muestra a los viajeros la </tspan><tspan x="0" y="65">información que necesitan para </tspan><tspan x="0" y="89">elegir el vuelo, hotel, carro de </tspan><tspan x="0" y="113">alquiler o paquete de viaje perfecto.</tspan></text>
    </g>
    <g id="Grupo_746864" data-name="Grupo 746864" transform="translate(849.451 8877.129)">
      <rect id="Rectángulo_289625" data-name="Rectángulo 289625" width="42.332" height="42.332" fill="#ff690f"/>
      <rect id="Rectángulo_289626" data-name="Rectángulo 289626" width="5.145" height="21.166" transform="translate(13.05 10.592)" fill="#fff"/>
      <path id="Trazado_512036" data-name="Trazado 512036" d="M212.327,140.949h-5.676L200.8,130.375l5.853-10.574h5.676l-5.888,10.574Z" transform="translate(-183.045 -109.209)" fill="#fff"/>
      <rect id="Rectángulo_289627" data-name="Rectángulo 289627" width="42.332" height="42.332" transform="translate(44.683)" fill="#ff690f"/>
      <path id="Trazado_512037" data-name="Trazado 512037" d="M635.4,137.541l-.92,3.077H629l6.967-21.219h6.542l6.914,21.219h-5.605l-.919-3.042Zm3.748-12.059-2.476,7.9h4.951Z" transform="translate(-573.389 -108.843)" fill="#fff"/>
      <rect id="Rectángulo_289628" data-name="Rectángulo 289628" width="42.332" height="42.332" transform="translate(89.349)" fill="#ff690f"/>
      <path id="Trazado_512038" data-name="Trazado 512038" d="M1154.933,140.618h-5.181v-9.354L1142.8,119.4h6.118l3.43,6.507,3.377-6.507h6.03l-6.826,11.865Z" transform="translate(-1041.766 -108.843)" fill="#fff"/>
      <rect id="Rectángulo_289629" data-name="Rectángulo 289629" width="42.332" height="42.332" transform="translate(134.032)" fill="#ff690f"/>
      <path id="Trazado_512039" data-name="Trazado 512039" d="M1646,137.541l-.919,3.077H1639.6l6.967-21.219h6.542l6.914,21.219h-5.605l-.919-3.042Zm3.748-12.059-2.475,7.9h4.951Z" transform="translate(-1494.64 -108.843)" fill="#fff"/>
      <rect id="Rectángulo_289630" data-name="Rectángulo 289630" width="42.332" height="42.332" transform="translate(178.698)" fill="#ff690f"/>
      <rect id="Rectángulo_289631" data-name="Rectángulo 289631" width="5.145" height="21.166" transform="translate(191.747 10.592)" fill="#fff"/>
      <path id="Trazado_512040" data-name="Trazado 512040" d="M2233.528,140.949h-5.676L2222,130.375l5.853-10.574h5.676l-5.888,10.574Z" transform="translate(-2025.548 -109.209)" fill="#fff"/>
    </g>
  </g>
</svg>
