<svg xmlns="http://www.w3.org/2000/svg" xmlns:xlink="http://www.w3.org/1999/xlink" width="424.667" height="299.278" viewBox="0 0 424.667 299.278">
  <defs>
    <filter id="Trazado_501745" x="70.32" y="52.754" width="335.599" height="258.524" filterUnits="userSpaceOnUse">
      <feOffset dy="3" input="SourceAlpha"/>
      <feGaussianBlur stdDeviation="3" result="blur"/>
      <feFlood flood-opacity="0.161"/>
      <feComposite operator="in" in2="blur"/>
      <feComposite in="SourceGraphic"/>
    </filter>
    <clipPath id="clip-path">
      <rect id="Rectángulo_275969" data-name="Rectángulo 275969" width="12.146" height="12.145" fill="#ffb338"/>
    </clipPath>
    <clipPath id="clip-path-2">
      <path id="Trazado_501742" data-name="Trazado 501742" d="M55.35,49.088l-3.659,3.659L49.51,50.566l3.659-3.66L49.31,43.047,51.555,40.8l3.858,3.858L59.074,41l2.181,2.181-3.66,3.659,3.86,3.86L59.21,52.947Z" transform="translate(-49.31 -40.802)" fill="#ffb338"/>
    </clipPath>
    <filter id="Trazado_501947" x="154.369" y="10.596" width="52.466" height="52.466" filterUnits="userSpaceOnUse">
      <feOffset dy="3" input="SourceAlpha"/>
      <feGaussianBlur stdDeviation="3" result="blur-2"/>
      <feFlood flood-opacity="0.161"/>
      <feComposite operator="in" in2="blur-2"/>
      <feComposite in="SourceGraphic"/>
    </filter>
    <clipPath id="clip-path-3">
      <rect id="Rectángulo_275974" data-name="Rectángulo 275974" width="330.444" height="265.858" fill="none"/>
    </clipPath>
    <linearGradient id="linear-gradient" x1="-0.084" y1="1.037" x2="-0.079" y2="1.037" gradientUnits="objectBoundingBox">
      <stop offset="0" stop-color="#0078b2"/>
      <stop offset="0.184" stop-color="#0078b2"/>
      <stop offset="1" stop-color="#86cff2"/>
    </linearGradient>
    <clipPath id="clip-path-4">
      <rect id="Rectángulo_275970" data-name="Rectángulo 275970" width="315.914" height="266.352" fill="#fff"/>
    </clipPath>
    <clipPath id="clip-path-5">
      <path id="Trazado_501744" data-name="Trazado 501744" d="M264.76,18.233c85.614-.343,17.84,85.047,54.645,137.056,27.533,38.906,79.66,75.984,54.232,109.089-27.9,36.321-89.994-16.033-180.818,15.92C116.9,307.009,39.391,203.258,72.295,123.51,89.788,81.115,207.653,18.462,264.76,18.233" transform="translate(-64.52 -18.232)" fill="#b6e1fd"/>
    </clipPath>
    <clipPath id="clip-path-6">
      <g transform="matrix(1, 0, 0, 1, 0, 0)" filter="url(#Trazado_501745)">
        <path id="Trazado_501745-2" data-name="Trazado 501745" d="M327.019,46.614c-36.9-11.211-67.227,9.5-94.221,30.665s-58.667-1.032-76.521-21.2C134.444,31.417,94,30.471,73.868,58.319,57.738,80.63,59.192,117.982,94.63,135.438c34.005,16.751,61.009,37.91,68.074,68.12s12.538,62.447,47.739,72.584c27.209,7.834,49.4-9.556,50.842-36.874,1.457-27.67,15.714-36.163,37.586-40.253s39.649-6.355,55.014-19.111,25.771-29.018,27.588-58.389-17.557-63.694-54.454-74.9" transform="translate(-63.99 -37.5)" fill="#ffb338"/>
      </g>
    </clipPath>
    <filter id="Trazado_501751" x="37.879" y="17.207" width="395.927" height="328.532" filterUnits="userSpaceOnUse">
      <feOffset dy="3" input="SourceAlpha"/>
      <feGaussianBlur stdDeviation="9" result="blur-3"/>
      <feFlood flood-opacity="0.161"/>
      <feComposite operator="in" in2="blur-3"/>
      <feComposite in="SourceGraphic"/>
    </filter>
    <clipPath id="clip-path-7">
      <rect id="Rectángulo_275974-2" data-name="Rectángulo 275974" width="346.188" height="278.524" fill="none"/>
    </clipPath>
    <filter id="Trazado_501750" x="312.959" y="87.764" width="59.679" height="59.679" filterUnits="userSpaceOnUse">
      <feOffset dy="3" input="SourceAlpha"/>
      <feGaussianBlur stdDeviation="3" result="blur-4"/>
      <feFlood flood-opacity="0.161"/>
      <feComposite operator="in" in2="blur-4"/>
      <feComposite in="SourceGraphic"/>
    </filter>
    <filter id="Trazado_501957" x="113.381" y="202.516" width="52.379" height="52.379" filterUnits="userSpaceOnUse">
      <feOffset dy="3" input="SourceAlpha"/>
      <feGaussianBlur stdDeviation="3" result="blur-5"/>
      <feFlood flood-opacity="0.161"/>
      <feComposite operator="in" in2="blur-5"/>
      <feComposite in="SourceGraphic"/>
    </filter>
    <clipPath id="clip-path-10">
      <rect id="Rectángulo_278212" data-name="Rectángulo 278212" width="348.935" height="274.943" fill="none"/>
    </clipPath>
  </defs>
  <g id="Grupo_765826" data-name="Grupo 765826" transform="translate(268.846 6244.965)">
    <g id="Grupo_744824" data-name="Grupo 744824" transform="translate(16898.48 7682.931)" opacity="0.59">
      <g id="Grupo_733941" data-name="Grupo 733941" transform="translate(-17094.076 -13869.142)">
        <g id="Grupo_733900" data-name="Grupo 733900" transform="translate(0 0)">
          <g id="Grupo_733899" data-name="Grupo 733899" clip-path="url(#clip-path)">
            <g id="Grupo_733898" data-name="Grupo 733898" transform="translate(0.001)">
              <g id="Grupo_733897" data-name="Grupo 733897" clip-path="url(#clip-path-2)">
                <rect id="Rectángulo_275968" data-name="Rectángulo 275968" width="12.145" height="12.145" transform="translate(0)" fill="#ffb338"/>
              </g>
            </g>
          </g>
        </g>
      </g>
      <g transform="matrix(1, 0, 0, 1, -17167.33, -13927.9)" filter="url(#Trazado_501947)">
        <path id="Trazado_501947-2" data-name="Trazado 501947" d="M253.515,101.464a17.233,17.233,0,1,1-17.233-17.233,17.233,17.233,0,0,1,17.233,17.233" transform="translate(-55.68 -67.63)" fill="#ffb338"/>
      </g>
      <g id="Grupo_733943" data-name="Grupo 733943" transform="translate(-17167.326 -13910.068)" opacity="0.75">
        <g id="Grupo_733918" data-name="Grupo 733918" transform="translate(0 0)">
          <g id="Grupo_733917" data-name="Grupo 733917" clip-path="url(#clip-path-3)">
            <path id="Trazado_501748" data-name="Trazado 501748" d="M201.747,35.394h0C175.229,64.175,145.188,81.9,97.9,81.9q-6.921,0-14.349-.513-2.415-.167-4.791-.166c-33.741,0-60.686,25.036-60.686,60.284,0,20.322,8.955,44.035,30.727,68.3,40.815,45.5,94.93,62.786,141.393,62.786,23.325,0,44.724-4.358,61.542-11.692C321.472,230.491,347,173.147,347,121.743c0-30-8.693-57.974-22.369-77.394C306.427,18.5,283.516,8.254,261.46,8.254c-22.9,0-44.885,11.048-59.712,27.14h0C216.575,19.3,238.556,8.254,261.46,8.254c22.056,0,44.967,10.245,63.17,36.095C338.306,63.768,347,91.744,347,121.743c0,51.4-25.526,108.748-95.26,139.154-16.818,7.334-38.216,11.692-61.542,11.692-46.463,0-100.578-17.29-141.393-62.786-21.772-24.267-30.727-47.98-30.727-68.3,0-35.248,26.945-60.284,60.686-60.284q2.374,0,4.791.166,7.435.516,14.349.513c47.286,0,77.327-17.721,103.845-46.5Z" transform="translate(-17.316 -7.492)" fill="url(#linear-gradient)"/>
          </g>
        </g>
      </g>
      <rect id="Rectángulo_275984" data-name="Rectángulo 275984" width="242.076" height="209.034" transform="translate(-17131.604 -13876.134)" fill="none"/>
      <g id="Grupo_733905" data-name="Grupo 733905" transform="translate(-17087.162 -13899.896)">
        <g id="Grupo_733904" data-name="Grupo 733904" opacity="0.19" clip-path="url(#clip-path-4)">
          <g id="Grupo_733903" data-name="Grupo 733903" transform="translate(0 0.001)">
            <g id="Grupo_733902" data-name="Grupo 733902" clip-path="url(#clip-path-5)">
              <path id="Trazado_501743" data-name="Trazado 501743" d="M501.165,333.4,117.708,533.059,6.468,114.588,389.924-85.067Z" transform="translate(-99.108 -79.779)" fill="#b6e1fd"/>
            </g>
          </g>
        </g>
      </g>
      <g id="Grupo_733907" data-name="Grupo 733907" transform="translate(-17088.006 -13869.142)" opacity="0.51" clip-path="url(#clip-path-6)">
        <g transform="matrix(1, 0, 0, 1, -79.32, -58.75)" filter="url(#Trazado_501751)">
          <path id="Trazado_501751-2" data-name="Trazado 501751" d="M0,0H333.575V263.892H0Z" transform="translate(64.88 51.98) rotate(-1.85)" fill="#ffb338"/>
        </g>
      </g>
      <rect id="Rectángulo_275972" data-name="Rectángulo 275972" width="317.599" height="240.523" transform="translate(-17088.006 -13869.142)" fill="none"/>
      <g id="Grupo_733919" data-name="Grupo 733919" transform="translate(-17162.074 -13916.617)" opacity="0.75">
        <g id="Grupo_733918-2" data-name="Grupo 733918" transform="translate(0 0)">
          <g id="Grupo_733917-2" data-name="Grupo 733917" clip-path="url(#clip-path-7)">
            <path id="Trazado_501748-2" data-name="Trazado 501748" d="M210.5,36.687h0C182.717,66.839,151.244,85.4,101.705,85.4q-7.251,0-15.033-.538-2.53-.175-5.019-.174c-35.349,0-63.577,26.229-63.577,63.156,0,21.29,9.382,46.133,32.191,71.556,42.76,47.664,99.452,65.778,148.129,65.778,24.437,0,46.855-4.566,64.474-12.249,73.056-31.854,99.8-91.93,99.8-145.784,0-31.428-9.107-60.736-23.434-81.081-19.07-27.081-43.072-37.814-66.18-37.814-23.995,0-47.024,11.574-62.557,28.433h0c15.534-16.858,38.563-28.433,62.557-28.433,23.107,0,47.11,10.733,66.18,37.814,14.327,20.345,23.434,49.654,23.434,81.081,0,53.854-26.743,113.93-99.8,145.784-17.619,7.684-40.037,12.249-64.474,12.249-48.677,0-105.37-18.114-148.129-65.778-22.809-25.423-32.191-50.266-32.191-71.556,0-36.927,28.228-63.156,63.577-63.156q2.487,0,5.019.174,7.789.541,15.033.538c49.539,0,81.011-18.566,108.793-48.718Z" transform="translate(-17.28 -7.456)" fill="url(#linear-gradient)"/>
          </g>
        </g>
      </g>
      <rect id="Rectángulo_275973" data-name="Rectángulo 275973" width="253.61" height="218.993" transform="translate(-17124.648 -13881.065)" fill="none"/>
      <g id="Grupo_733982" data-name="Grupo 733982" transform="translate(-16783.037 -13725.452)">
        <g id="Grupo_733900-2" data-name="Grupo 733900" transform="translate(0 0)">
          <g id="Grupo_733899-2" data-name="Grupo 733899" clip-path="url(#clip-path)">
            <g id="Grupo_733898-2" data-name="Grupo 733898" transform="translate(0.001)">
              <g id="Grupo_733897-2" data-name="Grupo 733897" clip-path="url(#clip-path-2)">
                <rect id="Rectángulo_275968-2" data-name="Rectángulo 275968" width="12.145" height="12.145" transform="translate(0)" fill="#ffb338"/>
              </g>
            </g>
          </g>
        </g>
      </g>
      <g transform="matrix(1, 0, 0, 1, -17167.33, -13927.9)" filter="url(#Trazado_501750)">
        <path id="Trazado_501750-2" data-name="Trazado 501750" d="M260.728,105.071a20.84,20.84,0,1,1-20.84-20.84,20.839,20.839,0,0,1,20.84,20.84" transform="translate(102.91 9.53)" fill="#ffb338"/>
      </g>
      <g transform="matrix(1, 0, 0, 1, -17167.33, -13927.9)" filter="url(#Trazado_501957)">
        <path id="Trazado_501957-2" data-name="Trazado 501957" d="M253.428,101.421a17.19,17.19,0,1,1-17.19-17.19,17.189,17.189,0,0,1,17.19,17.19" transform="translate(-96.67 124.29)" fill="#ffb338"/>
      </g>
    </g>
    <g id="Grupo_744827" data-name="Grupo 744827" transform="translate(-193.114 -6244.965)">
      <g id="Grupo_737040" data-name="Grupo 737040">
        <g id="Grupo_737039" data-name="Grupo 737039" clip-path="url(#clip-path-10)">
          <path id="Trazado_502529" data-name="Trazado 502529" d="M330.164,54.524s-.915-8.459,10.973-7.544c0,0,2.493-8.084,11.263-9.145,9.895-1.2,13.2,5.994,14.343,7.594,0,0,15.823-3.936,17.652,9.1Z" transform="translate(-49.698 -5.675)" fill="#edf3f5"/>
          <path id="Trazado_502530" data-name="Trazado 502530" d="M12.488,110.143s.647-11.982,13.571-8.233c0,0,4.977-8.109,14.283-5.765a11.432,11.432,0,0,1,7.305,5.409,11.23,11.23,0,0,1,.883,8.59Z" transform="translate(-1.88 -14.409)" fill="#edf3f5"/>
          <rect id="Rectángulo_278206" data-name="Rectángulo 278206" width="47.433" height="97.401" transform="translate(82.48 176.651)" fill="#b5ccd6"/>
          <rect id="Rectángulo_278207" data-name="Rectángulo 278207" width="40.573" height="94.195" transform="translate(22.108 179.857)" fill="#b5ccd6"/>
          <rect id="Rectángulo_278208" data-name="Rectángulo 278208" width="39.77" height="5.415" transform="translate(17.848 179.858)" fill="#b5ccd6"/>
          <rect id="Rectángulo_278209" data-name="Rectángulo 278209" width="47.433" height="146.309" transform="translate(43.494 127.743)" fill="#b5ccd6"/>
          <rect id="Rectángulo_278210" data-name="Rectángulo 278210" width="36.501" height="127.282" transform="translate(102.142 146.77)" fill="#b5ccd6"/>
          <path id="Trazado_502531" data-name="Trazado 502531" d="M373.924,171.089H330.607v6.983h3.845v9.42H321.74V127.358H290.806v166.67h78.74V178.073h4.378Z" transform="translate(-43.776 -19.172)" fill="#b5ccd6"/>
          <line id="Línea_2425" data-name="Línea 2425" x2="15.02" transform="translate(84.752 90.554)" fill="none" stroke="#8e6a8f" stroke-miterlimit="10" stroke-width="2.951"/>
          <line id="Línea_2426" data-name="Línea 2426" x2="15.02" transform="translate(84.752 152.674)" fill="none" stroke="#8e6a8f" stroke-miterlimit="10" stroke-width="2.951"/>
          <line id="Línea_2427" data-name="Línea 2427" x2="15.02" transform="translate(84.752 120.143)" fill="none" stroke="#8e6a8f" stroke-miterlimit="10" stroke-width="2.951"/>
          <rect id="Rectángulo_278211" data-name="Rectángulo 278211" width="23.89" height="97.139" transform="translate(65.981 73.325)" fill="#ece4da"/>
          <path id="Trazado_502532" data-name="Trazado 502532" d="M102.56,184.457H76.244V84.891H102.56Zm-23.89-2.428h21.463V87.317H78.671Z" transform="translate(-11.477 -12.779)" fill="#3e2d63"/>
        </g>
      </g>
      <path id="Trazado_502533" data-name="Trazado 502533" d="M85.732,122.043a5.109,5.109,0,1,1,5.1,4.77A4.8,4.8,0,0,1,85.732,122.043Zm9.461-19.528v9.173H92.6V108.11H89.06v3.578H86.466v-9.173H89.06v3.446H92.6v-3.446Zm-5.654,31.941H86.722V132.4h8.216v2.057h-2.8v7.116H89.539Zm5.169,20.053v2H87.344V147.34h7.194v2H89.912v1.546h4.076v1.939H89.912v1.678Zm-6.958,7.773h2.594V169.4h4.377v2.057H87.75Zm5.556-40.238a2.481,2.481,0,1,0-2.477,2.621A2.456,2.456,0,0,0,93.307,122.043Z" transform="translate(-12.906 -15.432)" fill="#3e2d63"/>
      <g id="Grupo_737042" data-name="Grupo 737042">
        <g id="Grupo_737041" data-name="Grupo 737041" clip-path="url(#clip-path-10)">
          <rect id="Rectángulo_278213" data-name="Rectángulo 278213" width="102.34" height="16.546" transform="translate(125.295 26.734)" fill="#ece4da"/>
          <path id="Trazado_502534" data-name="Trazado 502534" d="M244.368,44.52A44.521,44.521,0,1,1,199.848,0,44.521,44.521,0,0,1,244.368,44.52" transform="translate(-23.382 0)" fill="#ece4da"/>
          <path id="Trazado_502535" data-name="Trazado 502535" d="M174.689,27.508s8.947-18,27.927-18,28.218,18,28.218,18Z" transform="translate(-26.297 -1.431)" fill="#c4dbf0"/>
          <path id="Trazado_502536" data-name="Trazado 502536" d="M199.533,27.384l-3.89-.831L206.674,8.678l3.968.7Z" transform="translate(-29.451 -1.306)" fill="#def0fd"/>
          <path id="Trazado_502537" data-name="Trazado 502537" d="M205.346,28.232l-2.125-1.312L213.872,9.954,216,11.266Z" transform="translate(-30.592 -1.498)" fill="#def0fd"/>
          <path id="Trazado_502538" data-name="Trazado 502538" d="M232.5,28.526H172.341l.888-1.786c.093-.187,9.514-18.691,29.034-18.691s28.927,17.914,29.318,18.676Zm-56.02-2.473H228.3c-2.894-4.438-11.579-15.532-26.034-15.532-14.492,0-22.975,11.107-25.778,15.532" transform="translate(-25.943 -1.212)" fill="#3e2d63"/>
          <rect id="Rectángulo_278214" data-name="Rectángulo 278214" width="2.473" height="18.004" transform="translate(175.084 8.073)" fill="#3e2d63"/>
          <path id="Trazado_502557" data-name="Trazado 502557" d="M0,0H153.388V237.44H0Z" transform="translate(99.772 36.307)" fill="#ece4da"/>
          <rect id="Rectángulo_278216" data-name="Rectángulo 278216" width="153.388" height="8.018" transform="translate(99.772 39.271)" fill="#3e2d63"/>
          <rect id="Rectángulo_278217" data-name="Rectángulo 278217" width="153.388" height="4.272" transform="translate(99.772 32.034)" fill="#3e2d63"/>
          <rect id="Rectángulo_278218" data-name="Rectángulo 278218" width="153.388" height="3.237" transform="translate(99.772 124.528)" fill="#dfd5c8"/>
          <rect id="Rectángulo_278219" data-name="Rectángulo 278219" width="153.388" height="3.237" transform="translate(99.772 196.076)" fill="#dfd5c8"/>
          <rect id="Rectángulo_278220" data-name="Rectángulo 278220" width="20.1" height="41.406" transform="translate(211.238 65.461)" fill="#c4dbf0"/>
          <path id="Trazado_502539" data-name="Trazado 502539" d="M250.232,107.56l-1.782-4.243L265.374,75.9l3.187,1.968Z" transform="translate(-37.4 -11.426)" fill="#def0fd"/>
          <rect id="Rectángulo_278221" data-name="Rectángulo 278221" width="37.838" height="2.497" transform="matrix(0.525, -0.851, 0.851, 0.525, 210.173, 104.265)" fill="#def0fd"/>
          <rect id="Rectángulo_278222" data-name="Rectángulo 278222" width="28.482" height="4.898" transform="translate(206.833 108.114)" fill="#8e6a8f"/>
          <rect id="Rectángulo_278223" data-name="Rectángulo 278223" width="28.482" height="3.144" transform="translate(206.833 113.012)" fill="#dfd5c8"/>
          <path id="Trazado_502540" data-name="Trazado 502540" d="M269.788,119.483H247.215V75.605h22.573Zm-20.1-2.473h17.627V78.078H249.688Z" transform="translate(-37.214 -11.381)" fill="#3e2d63"/>
          <rect id="Rectángulo_278224" data-name="Rectángulo 278224" width="20.1" height="2.473" transform="translate(211.238 84.926)" fill="#3e2d63"/>
          <rect id="Rectángulo_278225" data-name="Rectángulo 278225" width="20.1" height="41.406" transform="translate(166.484 65.461)" fill="#c4dbf0"/>
          <path id="Trazado_502541" data-name="Trazado 502541" d="M197.547,107.56l-1.782-4.243L212.689,75.9l3.187,1.968Z" transform="translate(-29.469 -11.426)" fill="#def0fd"/>
          <rect id="Rectángulo_278226" data-name="Rectángulo 278226" width="37.838" height="2.497" transform="matrix(0.525, -0.851, 0.851, 0.525, 165.419, 104.265)" fill="#def0fd"/>
          <rect id="Rectángulo_278227" data-name="Rectángulo 278227" width="28.482" height="4.898" transform="translate(162.079 108.114)" fill="#8e6a8f"/>
          <rect id="Rectángulo_278228" data-name="Rectángulo 278228" width="28.482" height="3.144" transform="translate(162.079 113.012)" fill="#dfd5c8"/>
          <path id="Trazado_502542" data-name="Trazado 502542" d="M217.1,119.483H194.53V75.605H217.1ZM197,117.011H214.63V78.078H197Z" transform="translate(-29.283 -11.381)" fill="#3e2d63"/>
          <rect id="Rectángulo_278229" data-name="Rectángulo 278229" width="20.1" height="2.473" transform="translate(166.484 84.926)" fill="#3e2d63"/>
          <rect id="Rectángulo_278230" data-name="Rectángulo 278230" width="20.1" height="41.406" transform="translate(121.729 65.461)" fill="#c4dbf0"/>
          <path id="Trazado_502543" data-name="Trazado 502543" d="M144.861,107.56l-1.782-4.243L160,75.9l3.187,1.968Z" transform="translate(-21.538 -11.426)" fill="#def0fd"/>
          <rect id="Rectángulo_278231" data-name="Rectángulo 278231" width="37.838" height="2.496" transform="matrix(0.525, -0.851, 0.851, 0.525, 120.665, 104.265)" fill="#def0fd"/>
          <rect id="Rectángulo_278232" data-name="Rectángulo 278232" width="28.482" height="4.898" transform="translate(117.325 108.114)" fill="#8e6a8f"/>
          <rect id="Rectángulo_278233" data-name="Rectángulo 278233" width="28.482" height="3.144" transform="translate(117.325 113.012)" fill="#dfd5c8"/>
          <path id="Trazado_502544" data-name="Trazado 502544" d="M164.417,119.483H141.844V75.605h22.573Zm-20.1-2.473h17.627V78.078H144.318Z" transform="translate(-21.352 -11.381)" fill="#3e2d63"/>
          <rect id="Rectángulo_278234" data-name="Rectángulo 278234" width="20.1" height="2.473" transform="translate(121.729 84.926)" fill="#3e2d63"/>
          <rect id="Rectángulo_278235" data-name="Rectángulo 278235" width="20.1" height="41.406" transform="translate(211.238 137.662)" fill="#c4dbf0"/>
          <path id="Trazado_502545" data-name="Trazado 502545" d="M250.232,192.556l-1.782-4.243L265.374,160.9l3.187,1.968Z" transform="translate(-37.4 -24.221)" fill="#def0fd"/>
          <rect id="Rectángulo_278236" data-name="Rectángulo 278236" width="37.838" height="2.497" transform="matrix(0.525, -0.851, 0.851, 0.525, 210.173, 176.466)" fill="#def0fd"/>
          <rect id="Rectángulo_278237" data-name="Rectángulo 278237" width="28.482" height="4.898" transform="translate(206.833 180.316)" fill="#8e6a8f"/>
          <rect id="Rectángulo_278238" data-name="Rectángulo 278238" width="28.482" height="3.144" transform="translate(206.833 185.214)" fill="#dfd5c8"/>
          <path id="Trazado_502546" data-name="Trazado 502546" d="M269.788,204.479H247.215V160.6h22.573Zm-20.1-2.473h17.627V163.074H249.688Z" transform="translate(-37.214 -24.176)" fill="#3e2d63"/>
          <rect id="Rectángulo_278239" data-name="Rectángulo 278239" width="20.1" height="2.473" transform="translate(211.238 157.128)" fill="#3e2d63"/>
          <rect id="Rectángulo_278240" data-name="Rectángulo 278240" width="20.1" height="41.406" transform="translate(166.484 137.662)" fill="#c4dbf0"/>
          <path id="Trazado_502547" data-name="Trazado 502547" d="M197.547,192.556l-1.782-4.243L212.689,160.9l3.187,1.968Z" transform="translate(-29.469 -24.221)" fill="#def0fd"/>
          <rect id="Rectángulo_278241" data-name="Rectángulo 278241" width="37.838" height="2.497" transform="matrix(0.525, -0.851, 0.851, 0.525, 165.419, 176.466)" fill="#def0fd"/>
          <rect id="Rectángulo_278242" data-name="Rectángulo 278242" width="28.482" height="4.898" transform="translate(162.079 180.316)" fill="#8e6a8f"/>
          <rect id="Rectángulo_278243" data-name="Rectángulo 278243" width="28.482" height="3.144" transform="translate(162.079 185.214)" fill="#dfd5c8"/>
          <path id="Trazado_502548" data-name="Trazado 502548" d="M217.1,204.479H194.53V160.6H217.1ZM197,202.007H214.63V163.074H197Z" transform="translate(-29.283 -24.176)" fill="#3e2d63"/>
          <rect id="Rectángulo_278244" data-name="Rectángulo 278244" width="20.1" height="2.473" transform="translate(166.484 157.128)" fill="#3e2d63"/>
          <rect id="Rectángulo_278245" data-name="Rectángulo 278245" width="20.1" height="41.406" transform="translate(121.729 137.662)" fill="#c4dbf0"/>
          <path id="Trazado_502549" data-name="Trazado 502549" d="M144.861,192.556l-1.782-4.243L160,160.9l3.187,1.968Z" transform="translate(-21.538 -24.221)" fill="#def0fd"/>
          <rect id="Rectángulo_278246" data-name="Rectángulo 278246" width="37.838" height="2.496" transform="matrix(0.525, -0.851, 0.851, 0.525, 120.665, 176.466)" fill="#def0fd"/>
          <rect id="Rectángulo_278247" data-name="Rectángulo 278247" width="28.482" height="4.898" transform="translate(117.325 180.316)" fill="#8e6a8f"/>
          <rect id="Rectángulo_278248" data-name="Rectángulo 278248" width="28.482" height="3.144" transform="translate(117.325 185.214)" fill="#dfd5c8"/>
          <path id="Trazado_502550" data-name="Trazado 502550" d="M164.417,204.479H141.844V160.6h22.573Zm-20.1-2.473h17.627V163.074H144.318Z" transform="translate(-21.352 -24.176)" fill="#3e2d63"/>
          <rect id="Rectángulo_278249" data-name="Rectángulo 278249" width="20.1" height="2.473" transform="translate(121.729 157.128)" fill="#3e2d63"/>
          <rect id="Rectángulo_278250" data-name="Rectángulo 278250" width="89.186" height="60.245" transform="translate(131.737 213.502)" fill="#8e6a8f"/>
          <path id="Trazado_502551" data-name="Trazado 502551" d="M221.33,254.043a16.713,16.713,0,1,1-16.713-16.713,16.713,16.713,0,0,1,16.713,16.713" transform="translate(-28.286 -35.726)" fill="#8e6a8f"/>
          <rect id="Rectángulo_278251" data-name="Rectángulo 278251" width="73.975" height="52.898" transform="translate(139.343 220.849)" fill="#3e2d63"/>
          <line id="Línea_2428" data-name="Línea 2428" y2="52.506" transform="translate(176.33 220.045)" fill="none" stroke="#8e6a8f" stroke-miterlimit="10" stroke-width="2.838"/>
          <path id="Trazado_502552" data-name="Trazado 502552" d="M206.719,242.561l1.35,3.235,3.493.284-2.66,2.283.81,3.411-2.993-1.824-2.993,1.824.81-3.411-2.66-2.283,3.493-.284Z" transform="translate(-30.389 -36.514)" fill="#ece4da"/>
          <path id="Trazado_502553" data-name="Trazado 502553" d="M199.881,289.176a1.839,1.839,0,1,1-1.839-1.839,1.839,1.839,0,0,1,1.839,1.839" transform="translate(-29.535 -43.254)" fill="#8e6a8f"/>
          <path id="Trazado_502554" data-name="Trazado 502554" d="M218.3,289.176a1.839,1.839,0,1,1-1.839-1.839,1.839,1.839,0,0,1,1.839,1.839" transform="translate(-32.308 -43.254)" fill="#8e6a8f"/>
          <path id="Trazado_502555" data-name="Trazado 502555" d="M355.215,250.274a22.337,22.337,0,0,0-4.186-13.1,6.061,6.061,0,0,1-1.091-4.321,20.5,20.5,0,0,0,.157-2.531c0-9.908-6.857-17.941-15.315-17.941s-15.316,8.033-15.316,17.941a20.5,20.5,0,0,0,.158,2.531,6.066,6.066,0,0,1-1.091,4.321,22.582,22.582,0,0,0-.248,25.839,6.957,6.957,0,0,1,1.22,4.406q-.038.627-.039,1.267c0,9.908,6.857,17.94,15.316,17.94s15.315-8.032,15.315-17.94q0-.64-.038-1.267a6.961,6.961,0,0,1,1.219-4.406,22.332,22.332,0,0,0,3.939-12.738" transform="translate(-47.319 -31.97)" fill="#ece4da"/>
          <rect id="Rectángulo_278252" data-name="Rectángulo 278252" width="1.696" height="74.462" transform="translate(285.755 198.671)" fill="#3e2d63"/>
          <rect id="Rectángulo_278253" data-name="Rectángulo 278253" width="1.695" height="10.679" transform="translate(278.965 209.221) rotate(-40.942)" fill="#3e2d63"/>
          <rect id="Rectángulo_278254" data-name="Rectángulo 278254" width="12.314" height="1.694" transform="matrix(0.708, -0.707, 0.707, 0.708, 286.004, 230.143)" fill="#3e2d63"/>
          <path id="Trazado_502556" data-name="Trazado 502556" d="M93.594,250.274a22.337,22.337,0,0,0-4.186-13.1,6.057,6.057,0,0,1-1.091-4.321,20.5,20.5,0,0,0,.157-2.531c0-9.908-6.857-17.941-15.315-17.941s-15.316,8.033-15.316,17.941A20.5,20.5,0,0,0,58,232.851a6.066,6.066,0,0,1-1.091,4.321,22.582,22.582,0,0,0-.248,25.839,6.957,6.957,0,0,1,1.22,4.406q-.038.627-.039,1.267c0,9.908,6.857,17.94,15.316,17.94s15.315-8.032,15.315-17.94q0-.64-.038-1.267a6.961,6.961,0,0,1,1.219-4.406,22.332,22.332,0,0,0,3.939-12.738" transform="translate(-7.937 -31.97)" fill="#ece4da"/>
          <rect id="Rectángulo_278255" data-name="Rectángulo 278255" width="1.696" height="74.462" transform="translate(63.516 198.671)" fill="#3e2d63"/>
          <rect id="Rectángulo_278256" data-name="Rectángulo 278256" width="1.695" height="10.679" transform="translate(56.727 209.221) rotate(-40.942)" fill="#3e2d63"/>
          <rect id="Rectángulo_278257" data-name="Rectángulo 278257" width="12.315" height="1.694" transform="matrix(0.707, -0.707, 0.707, 0.707, 63.766, 230.145)" fill="#3e2d63"/>
          <rect id="Rectángulo_278258" data-name="Rectángulo 278258" width="348.935" height="2.391" transform="translate(0 272.551)" fill="#3e2d63"/>
        </g>
      </g>
    </g>
  </g>
</svg>
