<svg xmlns="http://www.w3.org/2000/svg" xmlns:xlink="http://www.w3.org/1999/xlink" width="44.763" height="41.389" viewBox="0 0 44.763 41.389">
  <defs>
    <clipPath id="clip-path">
      <rect id="Rectángulo_289673" data-name="Rectángulo 289673" width="43.653" height="29.9" fill="#fff"/>
    </clipPath>
    <clipPath id="clip-path-2">
      <rect id="Rectángulo_289674" data-name="Rectángulo 289674" width="15.568" height="10.532" fill="#fff"/>
    </clipPath>
    <clipPath id="clip-path-3">
      <rect id="Rectángulo_289675" data-name="Rectángulo 289675" width="13.604" height="17.925" fill="none"/>
    </clipPath>
  </defs>
  <g id="Grupo_746910" data-name="Grupo 746910" transform="translate(0)">
    <g id="Grupo_746904" data-name="Grupo 746904" transform="translate(1.11 11.488)">
      <g id="Grupo_746903" data-name="Grupo 746903" transform="translate(0)">
        <g id="Grupo_746902" data-name="Grupo 746902" clip-path="url(#clip-path)">
          <path id="Trazado_512071" data-name="Trazado 512071" d="M42.871,29.9H.782a.783.783,0,0,1-.628-1.249L21.2.3a.811.811,0,0,1,1.256,0L43.5,28.651a.783.783,0,0,1-.628,1.249M2.338,28.335H41.315L21.827,2.076Z" transform="translate(0 0.001)" fill="#fff"/>
          <path id="Trazado_512072" data-name="Trazado 512072" d="M107.583,105.864h-.021a.781.781,0,0,1-.558-.257l-4.18-4.6a.782.782,0,0,1,1.158-1.051l3.631,4,4.065-4.03a.78.78,0,0,1,1.1,0l4.065,4.03,3.629-4A.782.782,0,0,1,121.631,101l-4.18,4.6a.782.782,0,0,1-.559.257.726.726,0,0,1-.57-.226l-4.094-4.059-4.1,4.059a.78.78,0,0,1-.55.226" transform="translate(-90.402 -87.823)" fill="#fff"/>
        </g>
      </g>
      <path id="Trazado_512073" data-name="Trazado 512073" d="M-3862.861,1588.905l11.337-15.238,3.84,4.52,4.854-5.023,4.747,4.465,4.1-3.962,12.008,15.18Z" transform="translate(3864.566 -1560.132)" fill="#fff"/>
    </g>
    <g id="Grupo_746906" data-name="Grupo 746906" transform="translate(0 6.222)">
      <g id="Grupo_746905" data-name="Grupo 746905" clip-path="url(#clip-path-2)">
        <path id="Trazado_512074" data-name="Trazado 512074" d="M2.326,6.808A2.341,2.341,0,0,0,2.9,6.737a2.328,2.328,0,0,0,2.049,1.6A2.357,2.357,0,0,1,6.9,5.405a2.356,2.356,0,0,1,3.966-.815,2.36,2.36,0,0,1,2.405,1,2.344,2.344,0,0,1,.412-.072,2.326,2.326,0,0,0-3.459-2.792,2.326,2.326,0,0,0-3.229-1.5,2.326,2.326,0,0,0-4.368.955,2.371,2.371,0,0,0-.3-.019,2.326,2.326,0,0,0,0,4.652" transform="translate(0)" fill="#fff"/>
        <path id="Trazado_512075" data-name="Trazado 512075" d="M73.132,54.207a1.679,1.679,0,0,0-.81.207h0q-.067.037-.13.079a1.685,1.685,0,0,0-2.338-1.087,1.684,1.684,0,0,0-3.161.691,1.748,1.748,0,0,0-.218-.014A1.684,1.684,0,1,0,66.89,57.4a1.684,1.684,0,0,0,3.069.3,1.683,1.683,0,0,0,2.875-.157,1.684,1.684,0,1,0,.3-3.341" transform="translate(-59.248 -48.03)" fill="#fff"/>
      </g>
    </g>
    <g id="Grupo_746909" data-name="Grupo 746909" transform="translate(29.114 0)">
      <path id="Trazado_512076" data-name="Trazado 512076" d="M36.607,122.64l.3,2.4H40.57l.376-2.4Z" transform="translate(-31.975 -107.121)" fill="#fff"/>
      <path id="Trazado_512077" data-name="Trazado 512077" d="M13.571,80.842H9.2L5.246,74.778l.252-.164,3.865,5.927h4.046l3.862-5.927.252.164Z" transform="translate(-4.582 -65.172)" fill="#fff"/>
      <g id="Grupo_746908" data-name="Grupo 746908">
        <g id="Grupo_746907" data-name="Grupo 746907" clip-path="url(#clip-path-3)">
          <path id="Trazado_512078" data-name="Trazado 512078" d="M13.6,6.8A6.8,6.8,0,1,1,6.8,0a6.8,6.8,0,0,1,6.8,6.8" fill="#fff"/>
          <path id="Trazado_512079" data-name="Trazado 512079" d="M18.265,6.8c0,3.757-2.692,6.8-6.012,6.8S6.241,10.559,6.241,6.8,8.933,0,12.253,0s6.012,3.045,6.012,6.8" transform="translate(-5.451)" fill="#3d672f"/>
          <path id="Trazado_512080" data-name="Trazado 512080" d="M30.685,6.8c0,3.757-1.75,6.8-3.908,6.8s-3.908-3.045-3.908-6.8S24.619,0,26.777,0s3.908,3.045,3.908,6.8" transform="translate(-19.975)" fill="#fff"/>
          <path id="Trazado_512081" data-name="Trazado 512081" d="M43.992,6.8c0,3.757-.74,6.8-1.653,6.8s-1.653-3.045-1.653-6.8S41.425,0,42.338,0s1.653,3.045,1.653,6.8" transform="translate(-35.536)" fill="#3d672f"/>
        </g>
      </g>
    </g>
  </g>
</svg>
