<svg xmlns="http://www.w3.org/2000/svg" xmlns:xlink="http://www.w3.org/1999/xlink" width="367.016" height="558" viewBox="0 0 367.016 558">
  <defs>
    <filter id="Trazado_515170" x="265.697" y="13.268" width="101.318" height="81.041" filterUnits="userSpaceOnUse">
      <feOffset dy="3" input="SourceAlpha"/>
      <feGaussianBlur stdDeviation="3" result="blur"/>
      <feFlood flood-opacity="0.161"/>
      <feComposite operator="in" in2="blur"/>
      <feComposite in="SourceGraphic"/>
    </filter>
    <filter id="Trazado_515175" x="265.697" y="370.268" width="101.318" height="81.041" filterUnits="userSpaceOnUse">
      <feOffset dy="3" input="SourceAlpha"/>
      <feGaussianBlur stdDeviation="3" result="blur-2"/>
      <feFlood flood-opacity="0.161"/>
      <feComposite operator="in" in2="blur-2"/>
      <feComposite in="SourceGraphic"/>
    </filter>
    <filter id="Trazado_515173" x="265.697" y="177.479" width="101.318" height="81.041" filterUnits="userSpaceOnUse">
      <feOffset dy="3" input="SourceAlpha"/>
      <feGaussianBlur stdDeviation="3" result="blur-3"/>
      <feFlood flood-opacity="0.161"/>
      <feComposite operator="in" in2="blur-3"/>
      <feComposite in="SourceGraphic"/>
    </filter>
  </defs>
  <g id="Grupo_765838" data-name="Grupo 765838" transform="translate(-667 -2608.83)">
    <g transform="matrix(1, 0, 0, 1, 667, 2608.83)" filter="url(#Trazado_515170)">
      <path id="Trazado_515170-2" data-name="Trazado 515170" d="M-3411.682,3821.29h50.99v13.667l32.329-30.418-32.329-32.622V3786.9h-50.99Z" transform="translate(3686.38 -3752.65)" fill="#88bee2"/>
    </g>
    <g transform="matrix(1, 0, 0, 1, 667, 2608.83)" filter="url(#Trazado_515175)">
      <path id="Trazado_515175-2" data-name="Trazado 515175" d="M-3411.682,3821.29h50.99v13.667l32.329-30.418-32.329-32.622V3786.9h-50.99Z" transform="translate(3686.38 -3395.65)" fill="#88bee2"/>
    </g>
    <g transform="matrix(1, 0, 0, 1, 667, 2608.83)" filter="url(#Trazado_515173)">
      <path id="Trazado_515173-2" data-name="Trazado 515173" d="M-3411.682,3821.29h50.99v13.667l32.329-30.418-32.329-32.622V3786.9h-50.99Z" transform="translate(3686.38 -3588.44)" fill="#e89c21"/>
    </g>
    <g id="Grupo_750576" data-name="Grupo 750576" transform="translate(0 -12284.17)">
      <g id="Rectángulo_291459" data-name="Rectángulo 291459" transform="translate(667 14893)" fill="#b6e1fd" stroke="#88bee2" stroke-width="3">
        <rect width="247" height="96" rx="10" stroke="none"/>
        <rect x="1.5" y="1.5" width="244" height="93" rx="8.5" fill="none"/>
      </g>
      <text id="Las_motivaciones_y_las_necesidades_de_los_clientes_" data-name="Las motivaciones y las necesidades de los clientes
" transform="translate(697 14902)" fill="#12263f" font-size="18" font-family="Roboto-Black, Roboto" font-weight="800"><tspan x="1.47" y="19">Las motivaciones y las </tspan><tspan x="15.871" y="44">necesidades de los </tspan><tspan x="61.301" y="69">clientes</tspan></text>
    </g>
    <g id="Rectángulo_291459-2" data-name="Rectángulo 291459" transform="translate(667 2965.83)" fill="#b6e1fd" stroke="#88bee2" stroke-width="3">
      <rect width="247" height="96" rx="10" stroke="none"/>
      <rect x="1.5" y="1.5" width="244" height="93" rx="8.5" fill="none"/>
    </g>
    <path id="Trazado_518692" data-name="Trazado 518692" d="M21.9,13.9H16.93V19H13.845V6.2h8.561V8.585H16.93v2.944H21.9Zm1.09.255a5.613,5.613,0,0,1,.554-2.536,3.96,3.96,0,0,1,1.591-1.709,4.791,4.791,0,0,1,2.435-.6,4.373,4.373,0,0,1,3.366,1.323,5.076,5.076,0,0,1,1.23,3.6v.105a4.925,4.925,0,0,1-1.235,3.529,4.384,4.384,0,0,1-3.344,1.305,4.434,4.434,0,0,1-3.261-1.217A4.761,4.761,0,0,1,23,14.658Zm2.962.185a3.538,3.538,0,0,0,.413,1.934,1.376,1.376,0,0,0,1.222.615q1.582,0,1.617-2.435v-.3q0-2.558-1.635-2.558-1.485,0-1.608,2.206Zm13.271-2.171-.976-.07a1.752,1.752,0,0,0-1.793.879V19H33.5V9.49h2.777l.1,1.222a2.294,2.294,0,0,1,2.083-1.4,2.888,2.888,0,0,1,.826.105ZM43.095,9.49l.1,1.116a3.27,3.27,0,0,1,2.716-1.292,2.407,2.407,0,0,1,2.435,1.433,3.165,3.165,0,0,1,2.795-1.433q2.892,0,2.971,3.5V19H51.137V13a1.813,1.813,0,0,0-.246-1.063,1.048,1.048,0,0,0-.9-.334,1.4,1.4,0,0,0-1.31.782l.009.123V19H45.723V13.015a1.906,1.906,0,0,0-.237-1.081,1.045,1.045,0,0,0-.905-.334,1.42,1.42,0,0,0-1.3.782V19H40.317V9.49ZM61.156,19a3.344,3.344,0,0,1-.281-.853,2.754,2.754,0,0,1-2.285,1.028,3.374,3.374,0,0,1-2.285-.813,2.588,2.588,0,0,1-.94-2.043,2.66,2.66,0,0,1,1.143-2.338,5.821,5.821,0,0,1,3.322-.791h.914v-.5q0-1.316-1.134-1.316a.927.927,0,0,0-1.055,1.042H55.593a2.655,2.655,0,0,1,1.173-2.239,4.931,4.931,0,0,1,2.993-.86,4.323,4.323,0,0,1,2.874.888,3.086,3.086,0,0,1,1.081,2.435v4.21a4.311,4.311,0,0,0,.4,2V19ZM59.3,17.066a1.652,1.652,0,0,0,.918-.237,1.487,1.487,0,0,0,.523-.536V14.772h-.861q-1.547,0-1.547,1.389a.848.848,0,0,0,.272.655A.986.986,0,0,0,59.3,17.066Zm10.16-2.892a5.809,5.809,0,0,1,.976-3.56,3.211,3.211,0,0,1,2.725-1.3,2.731,2.731,0,0,1,2.145,1V5.5h2.971V19H75.614l-.149-1.02a2.8,2.8,0,0,1-2.32,1.2,3.205,3.205,0,0,1-2.689-1.3A5.993,5.993,0,0,1,69.462,14.175Zm2.962.185q0,2.531,1.477,2.531a1.458,1.458,0,0,0,1.406-.826V12.443a1.419,1.419,0,0,0-1.389-.844q-1.371,0-1.485,2.215Zm12.138,4.816a4.889,4.889,0,0,1-3.542-1.305,4.507,4.507,0,0,1-1.354-3.4v-.246a5.84,5.84,0,0,1,.541-2.575,3.955,3.955,0,0,1,1.578-1.727,4.763,4.763,0,0,1,2.461-.611,4.117,4.117,0,0,1,3.164,1.244,4.887,4.887,0,0,1,1.16,3.467v1.151H82.681a2.135,2.135,0,0,0,.694,1.257,2.066,2.066,0,0,0,1.389.457,2.662,2.662,0,0,0,2.2-.984l1.354,1.6a3.784,3.784,0,0,1-1.569,1.217A5.3,5.3,0,0,1,84.562,19.176ZM84.228,11.6q-1.3,0-1.547,1.723h2.988v-.229a1.467,1.467,0,0,0-.36-1.1A1.434,1.434,0,0,0,84.228,11.6Zm9.642,2.558a5.613,5.613,0,0,1,.554-2.536,3.96,3.96,0,0,1,1.591-1.709,4.791,4.791,0,0,1,2.435-.6,4.373,4.373,0,0,1,3.366,1.323,5.076,5.076,0,0,1,1.23,3.6v.105a4.925,4.925,0,0,1-1.235,3.529,4.384,4.384,0,0,1-3.344,1.305,4.434,4.434,0,0,1-3.261-1.217,4.761,4.761,0,0,1-1.327-3.3Zm2.962.185a3.538,3.538,0,0,0,.413,1.934,1.376,1.376,0,0,0,1.222.615q1.582,0,1.617-2.435v-.3q0-2.558-1.635-2.558-1.485,0-1.608,2.206Zm16.348-.026a5.735,5.735,0,0,1-1,3.538,3.2,3.2,0,0,1-2.694,1.323,2.742,2.742,0,0,1-2.153-.958v4.438h-2.962V9.49h2.769l.088.879a2.742,2.742,0,0,1,2.241-1.055,3.224,3.224,0,0,1,2.733,1.3,5.805,5.805,0,0,1,.976,3.564Zm-2.962-.185q0-2.531-1.477-2.531a1.394,1.394,0,0,0-1.406.756V16.1a1.439,1.439,0,0,0,1.424.791q1.415,0,1.459-2.443Zm8.868,5.045a4.889,4.889,0,0,1-3.542-1.305,4.507,4.507,0,0,1-1.354-3.4v-.246a5.84,5.84,0,0,1,.541-2.575,3.955,3.955,0,0,1,1.578-1.727,4.763,4.763,0,0,1,2.461-.611,4.117,4.117,0,0,1,3.164,1.244,4.887,4.887,0,0,1,1.16,3.467v1.151H117.2a2.135,2.135,0,0,0,.694,1.257,2.066,2.066,0,0,0,1.389.457,2.662,2.662,0,0,0,2.2-.984l1.354,1.6a3.784,3.784,0,0,1-1.569,1.217A5.3,5.3,0,0,1,119.085,19.176Zm-.334-7.576q-1.3,0-1.547,1.723h2.988v-.229a1.467,1.467,0,0,0-.36-1.1A1.434,1.434,0,0,0,118.751,11.6Zm11.285.571-.976-.07a1.752,1.752,0,0,0-1.793.879V19h-2.962V9.49h2.777l.1,1.222a2.294,2.294,0,0,1,2.083-1.4,2.888,2.888,0,0,1,.826.105ZM136.2,19a3.344,3.344,0,0,1-.281-.853,2.754,2.754,0,0,1-2.285,1.028,3.374,3.374,0,0,1-2.285-.813,2.588,2.588,0,0,1-.94-2.043,2.66,2.66,0,0,1,1.143-2.338,5.821,5.821,0,0,1,3.322-.791h.914v-.5q0-1.316-1.134-1.316a.927.927,0,0,0-1.055,1.042h-2.962a2.655,2.655,0,0,1,1.173-2.239,4.931,4.931,0,0,1,2.993-.86,4.323,4.323,0,0,1,2.874.888,3.086,3.086,0,0,1,1.081,2.435v4.21a4.311,4.311,0,0,0,.4,2V19Zm-1.854-1.934a1.652,1.652,0,0,0,.918-.237,1.487,1.487,0,0,0,.523-.536V14.772h-.861q-1.547,0-1.547,1.389a.848.848,0,0,0,.272.655A.986.986,0,0,0,134.343,17.066Zm10.072-.176a1.317,1.317,0,0,0,.967-.338,1.241,1.241,0,0,0,.334-.945h2.777a3.288,3.288,0,0,1-1.121,2.566,4.168,4.168,0,0,1-2.887,1,4.22,4.22,0,0,1-3.27-1.3,5.125,5.125,0,0,1-1.2-3.6v-.123a5.792,5.792,0,0,1,.532-2.544,3.872,3.872,0,0,1,1.534-1.7,4.573,4.573,0,0,1,2.373-.593,4.116,4.116,0,0,1,2.944,1.028,3.647,3.647,0,0,1,1.09,2.786h-2.777a1.626,1.626,0,0,0-.36-1.134,1.244,1.244,0,0,0-.967-.4q-1.151,0-1.345,1.468a10.357,10.357,0,0,0-.062,1.283,4.068,4.068,0,0,0,.343,1.986A1.187,1.187,0,0,0,144.415,16.891ZM152.87,19H149.9V9.49h2.971ZM149.724,7.038A1.322,1.322,0,0,1,150.181,6a1.943,1.943,0,0,1,2.373,0,1.322,1.322,0,0,1,.457,1.037,1.322,1.322,0,0,1-.457,1.037,1.943,1.943,0,0,1-2.373,0A1.322,1.322,0,0,1,149.724,7.038Zm4.6,7.119a5.613,5.613,0,0,1,.554-2.536,3.96,3.96,0,0,1,1.591-1.709,4.791,4.791,0,0,1,2.435-.6,4.373,4.373,0,0,1,3.366,1.323,5.076,5.076,0,0,1,1.23,3.6v.105a4.925,4.925,0,0,1-1.235,3.529,4.384,4.384,0,0,1-3.344,1.305,4.434,4.434,0,0,1-3.261-1.217,4.761,4.761,0,0,1-1.327-3.3Zm2.962.185a3.538,3.538,0,0,0,.413,1.934,1.376,1.376,0,0,0,1.222.615q1.582,0,1.617-2.435v-.3q0-2.558-1.635-2.558-1.485,0-1.608,2.206ZM159.3,5.5h3.129l-2.443,2.76-2.417,0Zm8.218,3.99.1,1.116a3.225,3.225,0,0,1,2.716-1.292,2.713,2.713,0,0,1,2.219.888,4.226,4.226,0,0,1,.76,2.672V19h-2.971V13a1.6,1.6,0,0,0-.29-1.059A1.342,1.342,0,0,0,169,11.6a1.413,1.413,0,0,0-1.292.686V19h-2.962V9.49Z" transform="translate(697 3001.83)" fill="#12263f"/>
    <g id="Grupo_750582" data-name="Grupo 750582" transform="translate(0 -12115.17)">
      <g id="Rectángulo_291459-3" data-name="Rectángulo 291459" transform="translate(667 14893)" fill="#ffb338" stroke="#e89c21" stroke-width="3">
        <rect width="247" height="96" rx="10" stroke="none"/>
        <rect x="1.5" y="1.5" width="244" height="93" rx="8.5" fill="none"/>
      </g>
      <text id="Segmento_de_mercado" data-name="Segmento de mercado" transform="translate(697 14916)" fill="#12263f" font-size="18" font-family="Roboto-Black, Roboto" font-weight="800"><tspan x="2.059" y="19">Segmento de mercado</tspan></text>
    </g>
    <g id="Rectángulo_291460" data-name="Rectángulo 291460" transform="translate(687 2690.83)" fill="#fff" stroke="#88bee2" stroke-width="3">
      <rect width="247" height="96" rx="10" stroke="none"/>
      <rect x="1.5" y="1.5" width="244" height="93" rx="8.5" fill="none"/>
    </g>
    <g id="Rectángulo_291469" data-name="Rectángulo 291469" transform="translate(687 3047.83)" fill="#fff" stroke="#88bee2" stroke-width="3">
      <rect width="247" height="119" rx="10" stroke="none"/>
      <rect x="1.5" y="1.5" width="244" height="116" rx="8.5" fill="none"/>
    </g>
    <g id="Rectángulo_291465" data-name="Rectángulo 291465" transform="translate(687 2858.83)" fill="#fff" stroke="#e89c21" stroke-width="3">
      <rect width="247" height="121" rx="10" stroke="none"/>
      <rect x="1.5" y="1.5" width="244" height="118" rx="8.5" fill="none"/>
    </g>
    <g id="Grupo_750578" data-name="Grupo 750578" transform="translate(381 -12286.17)">
      <text id="Comodidades_profesiones_gustos_culturales_deportivo_religión_etc._" data-name="Comodidades, profesiones, gustos culturales, deportivo, religión, etc. 
" transform="translate(332 14991)" fill="#12263f" font-size="16" font-family="Roboto-Regular, Roboto"><tspan x="0" y="17">Comodidades, profesiones, </tspan><tspan x="0" y="41">gustos culturales, deportivo, </tspan><tspan x="0" y="65">religión, etc. </tspan></text>
      <circle id="Elipse_6671" data-name="Elipse 6671" cx="3.5" cy="3.5" r="3.5" transform="translate(317 14998)" fill="#88bee2"/>
    </g>
    <g id="Grupo_750587" data-name="Grupo 750587" transform="translate(381 -11930.17)">
      <text id="Regular_de_acuerdo_al_calendario_preestablecido_o_eventual_cuando_el_cliente_desee_viajar_._" data-name="Regular (de acuerdo al calendario preestablecido) o eventual (cuando el cliente desee viajar).
" transform="translate(332 14991)" fill="#12263f" font-size="16" font-family="Roboto-Regular, Roboto"><tspan x="0" y="17">Regular (de acuerdo al </tspan><tspan x="0" y="41">calendario preestablecido) o </tspan><tspan x="0" y="65">eventual (cuando el cliente </tspan><tspan x="0" y="89">desee viajar).</tspan></text>
      <circle id="Elipse_6671-2" data-name="Elipse 6671" cx="3.5" cy="3.5" r="3.5" transform="translate(317 14998)" fill="#88bee2"/>
    </g>
    <g id="Grupo_750581" data-name="Grupo 750581" transform="translate(381 -12106.17)">
      <text id="Recreación_escolares_viajes_de_estudio_jóvenes_de_tercera_edad_familiares." data-name="Recreación, escolares, viajes de estudio, jóvenes, de tercera edad, familiares." transform="translate(332 14991)" fill="#12263f" font-size="16" font-family="Roboto-Regular, Roboto"><tspan x="0" y="17">Recreación, escolares, viajes </tspan><tspan x="0" y="41">de estudio, jóvenes, de </tspan><tspan x="0" y="65">tercera edad, familiares.</tspan></text>
      <circle id="Elipse_6671-3" data-name="Elipse 6671" cx="3.5" cy="3.5" r="3.5" transform="translate(317 14998)" fill="#e89c21"/>
    </g>
  </g>
</svg>
