<svg xmlns="http://www.w3.org/2000/svg" width="267" height="558" viewBox="0 0 267 558">
  <g id="Grupo_765839" data-name="Grupo 765839" transform="translate(-1048 -2608.83)">
    <g id="Rectángulo_291461" data-name="Rectángulo 291461" transform="translate(1048 2608.83)" fill="#5f914e" stroke="#4c793d" stroke-width="3">
      <rect width="247" height="96" rx="10" stroke="none"/>
      <rect x="1.5" y="1.5" width="244" height="93" rx="8.5" fill="none"/>
    </g>
    <g id="Rectángulo_291470" data-name="Rectángulo 291470" transform="translate(1048 2965.83)" fill="#5f914e" stroke="#4c793d" stroke-width="3">
      <rect width="247" height="96" rx="10" stroke="none"/>
      <rect x="1.5" y="1.5" width="244" height="93" rx="8.5" fill="none"/>
    </g>
    <text id="Temporada_" data-name="Temporada
" transform="translate(1116 2644.83)" fill="#fff" font-size="18" font-family="Roboto-Black, Roboto" font-weight="800"><tspan x="9.16" y="19">Temporada</tspan></text>
    <text id="Por_programa" data-name="Por programa" transform="translate(1113 3001.83)" fill="#fff" font-size="18" font-family="Roboto-Black, Roboto" font-weight="800"><tspan x="2.861" y="19">Por programa</tspan></text>
    <g id="Grupo_750583" data-name="Grupo 750583" transform="translate(381 -12115.17)">
      <g id="Rectángulo_291459" data-name="Rectángulo 291459" transform="translate(667 14893)" fill="#b6e1fd" stroke="#88bee2" stroke-width="3">
        <rect width="247" height="96" rx="10" stroke="none"/>
        <rect x="1.5" y="1.5" width="244" height="93" rx="8.5" fill="none"/>
      </g>
      <text id="Acontecimientos_especiales" data-name="Acontecimientos especiales" transform="translate(697 14915)" fill="#12263f" font-size="18" font-family="Roboto-Black, Roboto" font-weight="800"><tspan x="24.603" y="19">Acontecimientos </tspan><tspan x="50.113" y="44">especiales</tspan></text>
    </g>
    <g id="Rectángulo_291466" data-name="Rectángulo 291466" transform="translate(1068 2858.83)" fill="#fff" stroke="#88bee2" stroke-width="3">
      <rect width="247" height="121" rx="10" stroke="none"/>
      <rect x="1.5" y="1.5" width="244" height="118" rx="8.5" fill="none"/>
    </g>
    <g id="Grupo_750584" data-name="Grupo 750584" transform="translate(762 -12118.17)">
      <text id="Olimpiadas_mundiales_inauguraciones_estrenos_manifestaciones_culturales_conciertos_etc._" data-name="Olimpiadas mundiales inauguraciones, estrenos, manifestaciones culturales, conciertos, etc.
" transform="translate(332 14991)" fill="#12263f" font-size="16" font-family="Roboto-Regular, Roboto"><tspan x="0" y="17">Olimpiadas mundiales </tspan><tspan x="0" y="41">inauguraciones, estrenos, </tspan><tspan x="0" y="65">manifestaciones culturales, </tspan><tspan x="0" y="89">conciertos, etc.</tspan></text>
      <circle id="Elipse_6671" data-name="Elipse 6671" cx="3.5" cy="3.5" r="3.5" transform="translate(317 14998)" fill="#88bee2"/>
    </g>
    <g id="Rectángulo_291462" data-name="Rectángulo 291462" transform="translate(1068 2690.83)" fill="#fff" stroke="#4c793d" stroke-width="3">
      <rect width="247" height="96" rx="10" stroke="none"/>
      <rect x="1.5" y="1.5" width="244" height="93" rx="8.5" fill="none"/>
    </g>
    <g id="Rectángulo_291471" data-name="Rectángulo 291471" transform="translate(1068 3047.83)" fill="#fff" stroke="#4c793d" stroke-width="3">
      <rect width="247" height="119" rx="10" stroke="none"/>
      <rect x="1.5" y="1.5" width="244" height="116" rx="8.5" fill="none"/>
    </g>
    <g id="Grupo_750579" data-name="Grupo 750579" transform="translate(764 -12286.17)">
      <text id="Primavera_verano_otoño_o_invierno._" data-name="Primavera, verano, otoño o invierno.
" transform="translate(332 14991)" fill="#12263f" font-size="16" font-family="Roboto-Regular, Roboto"><tspan x="0" y="17">Primavera, verano, otoño o </tspan><tspan x="0" y="41">invierno.</tspan><tspan x="0" y="65"></tspan></text>
      <circle id="Elipse_6671-2" data-name="Elipse 6671" cx="3.5" cy="3.5" r="3.5" transform="translate(317 14998)" fill="#4c793d"/>
    </g>
    <g id="Grupo_750588" data-name="Grupo 750588" transform="translate(764 -11930.17)">
      <text id="Regional_por_varios_destinos_próximos_o_local_dentro_de_los_límites_de_una_ciudad_o_localidad_._" data-name="Regional (por varios destinos próximos) o local (dentro de los límites de una ciudad o localidad).

" transform="translate(332 14991)" fill="#12263f" font-size="16" font-family="Roboto-Regular, Roboto"><tspan x="0" y="17">Regional (por varios destinos </tspan><tspan x="0" y="41">próximos) o local (dentro de </tspan><tspan x="0" y="65">los límites de una ciudad o </tspan><tspan x="0" y="89">localidad).</tspan></text>
      <circle id="Elipse_6671-3" data-name="Elipse 6671" cx="3.5" cy="3.5" r="3.5" transform="translate(317 14998)" fill="#4c793d"/>
    </g>
  </g>
</svg>
