<svg id="Grupo_746918" data-name="Grupo 746918" xmlns="http://www.w3.org/2000/svg" xmlns:xlink="http://www.w3.org/1999/xlink" width="25.676" height="42.542" viewBox="0 0 25.676 42.542">
  <defs>
    <clipPath id="clip-path">
      <rect id="Rectángulo_289679" data-name="Rectángulo 289679" width="25.676" height="42.542" fill="#fff"/>
    </clipPath>
  </defs>
  <g id="Grupo_746917" data-name="Grupo 746917" transform="translate(0)" clip-path="url(#clip-path)">
    <path id="Trazado_512096" data-name="Trazado 512096" d="M25.676,27.855c0-9.783-16.3-9.449-16.374-14.329-.027-1.738,1.186-3.465,4.856-3.37a11.027,11.027,0,0,1,6.7,2.753L25.241,8.6a15.706,15.706,0,0,0-8.849-4.183V0h-5.82V4.522c-5.618.959-9.039,4.436-9.039,9.451,0,9.235,16.359,9.053,16.644,14.313.118,2.181-1.709,3.8-5.766,3.626a16.245,16.245,0,0,1-8.5-3.01L0,33.7c2.9,2.705,7.08,3.832,10.572,4.189v4.657h5.82v-4.9c6.124-1.113,9.284-4.885,9.284-9.791" fill="#fff"/>
  </g>
</svg>
