<svg xmlns="http://www.w3.org/2000/svg" xmlns:xlink="http://www.w3.org/1999/xlink" width="610" height="357.169" viewBox="0 0 610 357.169">
  <defs>
    <clipPath id="clip-path">
      <rect id="Rectángulo_275545" data-name="Rectángulo 275545" width="408.999" height="356.563" fill="none"/>
    </clipPath>
    <clipPath id="clip-path-3">
      <rect id="Rectángulo_275525" data-name="Rectángulo 275525" width="309.753" height="68.167" fill="none"/>
    </clipPath>
    <clipPath id="clip-path-5">
      <rect id="Rectángulo_275527" data-name="Rectángulo 275527" width="231.569" height="68.166" fill="none"/>
    </clipPath>
    <clipPath id="clip-path-7">
      <rect id="Rectángulo_275529" data-name="Rectángulo 275529" width="153.371" height="68.166" fill="none"/>
    </clipPath>
    <clipPath id="clip-path-9">
      <rect id="Rectángulo_275531" data-name="Rectángulo 275531" width="67.656" height="10.487" fill="none"/>
    </clipPath>
    <clipPath id="clip-path-11">
      <rect id="Rectángulo_275533" data-name="Rectángulo 275533" width="403.737" height="53.747" fill="none"/>
    </clipPath>
    <clipPath id="clip-path-12">
      <rect id="Rectángulo_275534" data-name="Rectángulo 275534" width="319.525" height="53.747" fill="none"/>
    </clipPath>
    <clipPath id="clip-path-13">
      <rect id="Rectángulo_275535" data-name="Rectángulo 275535" width="235.326" height="53.747" fill="none"/>
    </clipPath>
    <clipPath id="clip-path-14">
      <rect id="Rectángulo_275536" data-name="Rectángulo 275536" width="151.115" height="53.746" fill="none"/>
    </clipPath>
    <clipPath id="clip-path-15">
      <rect id="Rectángulo_275537" data-name="Rectángulo 275537" width="66.915" height="53.747" fill="none"/>
    </clipPath>
    <clipPath id="clip-path-17">
      <rect id="Rectángulo_275539" data-name="Rectángulo 275539" width="36.705" height="62.923" fill="#63c5bc"/>
    </clipPath>
    <clipPath id="clip-path-18">
      <rect id="Rectángulo_275540" data-name="Rectángulo 275540" width="78.188" height="62.923" fill="#d98143"/>
    </clipPath>
    <clipPath id="clip-path-19">
      <rect id="Rectángulo_275541" data-name="Rectángulo 275541" width="120.294" height="62.923" fill="#dd8c6e"/>
    </clipPath>
    <clipPath id="clip-path-20">
      <rect id="Rectángulo_275542" data-name="Rectángulo 275542" width="162.393" height="62.923" fill="none"/>
    </clipPath>
    <clipPath id="clip-path-21">
      <rect id="Rectángulo_275543" data-name="Rectángulo 275543" width="204.5" height="62.923" fill="none"/>
    </clipPath>
  </defs>
  <g id="Grupo_752592" data-name="Grupo 752592" transform="translate(-495 -6994.068)">
    <text id="Pirámide_de_Maslow" data-name="Pirámide de Maslow" transform="translate(495 6994.068)" fill="#12263f" font-size="18" font-family="Roboto-Black, Roboto" font-weight="800"><tspan x="0" y="19">Pirámide de Maslow</tspan></text>
    <path id="Trazado_496838" data-name="Trazado 496838" d="M-7708.572-5394.72l11.374-17.067h108.483" transform="translate(8498.572 12501.674)" fill="none" stroke="#727997" stroke-width="2" stroke-dasharray="5"/>
    <path id="Trazado_496840" data-name="Trazado 496840" d="M-7708.572-5394.72l11.374-17.067h81.626" transform="translate(8526.572 12572.492)" fill="none" stroke="#727997" stroke-width="2" stroke-dasharray="5"/>
    <path id="Trazado_496841" data-name="Trazado 496841" d="M-7708.572-5394.72l10.41-17.067h41.49" transform="translate(8567.572 12649.332)" fill="none" stroke="#727997" stroke-width="2" stroke-dasharray="5"/>
    <path id="Trazado_496842" data-name="Trazado 496842" d="M-7708.572-5394.72l11.374-17.067h8.626" transform="translate(8614.572 12729.793)" fill="none" stroke="#727997" stroke-width="2" stroke-dasharray="5"/>
    <path id="Trazado_496839" data-name="Trazado 496839" d="M-7708.572-5394.72l11.374-17.067h163.626" transform="translate(8456.072 12430.855)" fill="none" stroke="#727997" stroke-width="2" stroke-dasharray="5"/>
    <text id="Autorrealización_" data-name="Autorrealización " transform="translate(936 7007.136)" fill="#12263f" font-size="16" font-family="Roboto-Regular, Roboto"><tspan x="0" y="17">Autorrealización </tspan></text>
    <text id="Necesidades_del_sistema_" data-name="Necesidades del sistema " transform="translate(936 7077.386)" fill="#12263f" font-size="16" font-family="Roboto-Regular, Roboto"><tspan x="0" y="17">Necesidades del </tspan><tspan x="0" y="41">sistema </tspan></text>
    <text id="Necesidades_sociales_" data-name="Necesidades sociales " transform="translate(936 7149.938)" fill="#12263f" font-size="16" font-family="Roboto-Regular, Roboto"><tspan x="0" y="17">Necesidades sociales </tspan></text>
    <text id="Seguridad" transform="translate(936 7224.489)" fill="#12263f" font-size="16" font-family="Roboto-Regular, Roboto"><tspan x="0" y="17">Seguridad</tspan></text>
    <text id="Necesidad_básica_" data-name="Necesidad básica " transform="translate(944 7305.478)" fill="#12263f" font-size="16" font-family="Roboto-Regular, Roboto"><tspan x="0" y="17">Necesidad básica </tspan></text>
    <path id="Trazado_496843" data-name="Trazado 496843" d="M1221.829,22.459a9.537,9.537,0,1,1,9.537-9.537,9.548,9.548,0,0,1-9.537,9.537m0-17.459a7.922,7.922,0,1,0,7.922,7.922A7.931,7.931,0,0,0,1221.829,5" transform="translate(-299.329 7006.146)" fill="#414042"/>
    <path id="Trazado_496847" data-name="Trazado 496847" d="M1221.829,22.459a9.537,9.537,0,1,1,9.537-9.537,9.548,9.548,0,0,1-9.537,9.537m0-17.459a7.922,7.922,0,1,0,7.922,7.922A7.931,7.931,0,0,0,1221.829,5" transform="translate(-299.329 7147.553)" fill="#414042"/>
    <path id="Trazado_496849" data-name="Trazado 496849" d="M1221.829,22.459a9.537,9.537,0,1,1,9.537-9.537,9.548,9.548,0,0,1-9.537,9.537m0-17.459a7.922,7.922,0,1,0,7.922,7.922A7.931,7.931,0,0,0,1221.829,5" transform="translate(-299.329 7224.623)" fill="#414042"/>
    <path id="Trazado_496852" data-name="Trazado 496852" d="M1221.829,22.459a9.537,9.537,0,1,1,9.537-9.537,9.548,9.548,0,0,1-9.537,9.537m0-17.459a7.922,7.922,0,1,0,7.922,7.922A7.931,7.931,0,0,0,1221.829,5" transform="translate(-299.329 7304.08)" fill="#414042"/>
    <path id="Trazado_496844" data-name="Trazado 496844" d="M1233.284,18.87a5.508,5.508,0,1,0-5.508,5.508,5.508,5.508,0,0,0,5.508-5.508" transform="translate(-305.277 7000.198)" fill="#15a4a1"/>
    <path id="Trazado_496848" data-name="Trazado 496848" d="M1233.284,18.87a5.508,5.508,0,1,0-5.508,5.508,5.508,5.508,0,0,0,5.508-5.508" transform="translate(-305.277 7141.604)" fill="#ce4538"/>
    <path id="Trazado_496850" data-name="Trazado 496850" d="M1233.284,18.87a5.508,5.508,0,1,0-5.508,5.508,5.508,5.508,0,0,0,5.508-5.508" transform="translate(-305.277 7218.674)" fill="#b0253f"/>
    <path id="Trazado_496851" data-name="Trazado 496851" d="M1233.284,18.87a5.508,5.508,0,1,0-5.508,5.508,5.508,5.508,0,0,0,5.508-5.508" transform="translate(-305.277 7298.132)" fill="#831649"/>
    <g id="Grupo_731891" data-name="Grupo 731891" transform="translate(496.001 6994.674)">
      <g id="Grupo_731949" data-name="Grupo 731949" clip-path="url(#clip-path)">
        <path id="Trazado_496868" data-name="Trazado 496868" d="M107.067,622.924l366.893,73.41L437.871,633.41,143.149,560Z" transform="translate(-64.961 -339.77)" fill="#08384e"/>
        <g id="Grupo_731895" data-name="Grupo 731895">
          <g id="Grupo_731894" data-name="Grupo 731894" clip-path="url(#clip-path)">
            <g id="Grupo_731893" data-name="Grupo 731893" transform="translate(42.106 220.23)" opacity="0.5" style="mix-blend-mode: multiply;isolation: isolate">
              <g id="Grupo_731892" data-name="Grupo 731892">
                <g id="Grupo_731891-2" data-name="Grupo 731891" clip-path="url(#clip-path-3)">
                  <path id="Trazado_496869" data-name="Trazado 496869" d="M107.067,622.923l26.207,5.243H416.82L143.149,560Z" transform="translate(-107.067 -560)" fill="#0f546e"/>
                </g>
              </g>
            </g>
          </g>
        </g>
        <path id="Trazado_496870" data-name="Trazado 496870" d="M250.205,373.334l210.516,73.41L496.8,509.667l-282.688-73.41Z" transform="translate(-129.911 -226.513)" fill="#08384e"/>
        <g id="Grupo_731900" data-name="Grupo 731900">
          <g id="Grupo_731899" data-name="Grupo 731899" clip-path="url(#clip-path)">
            <g id="Grupo_731898" data-name="Grupo 731898" transform="translate(84.205 146.82)" opacity="0.5" style="mix-blend-mode: multiply;isolation: isolate">
              <g id="Grupo_731897" data-name="Grupo 731897">
                <g id="Grupo_731896" data-name="Grupo 731896" clip-path="url(#clip-path-5)">
                  <path id="Trazado_496871" data-name="Trazado 496871" d="M214.116,436.257l20.192,5.243H445.685L250.206,373.334Z" transform="translate(-214.116 -373.334)" fill="#0f546e"/>
                </g>
              </g>
            </g>
          </g>
        </g>
        <path id="Trazado_496872" data-name="Trazado 496872" d="M519.666,323,321.183,249.59l36.082-62.923,126.311,73.41Z" transform="translate(-194.872 -113.257)" fill="#08384e"/>
        <g id="Grupo_731905" data-name="Grupo 731905">
          <g id="Grupo_731904" data-name="Grupo 731904" clip-path="url(#clip-path)">
            <g id="Grupo_731903" data-name="Grupo 731903" transform="translate(126.311 73.41)" opacity="0.5" style="mix-blend-mode: multiply;isolation: isolate">
              <g id="Grupo_731902" data-name="Grupo 731902">
                <g id="Grupo_731901" data-name="Grupo 731901" clip-path="url(#clip-path-7)">
                  <path id="Trazado_496873" data-name="Trazado 496873" d="M321.183,249.59l14.177,5.243H474.554L357.266,186.667Z" transform="translate(-321.183 -186.667)" fill="#0f546e"/>
                </g>
              </g>
            </g>
          </g>
        </g>
        <path id="Trazado_496874" data-name="Trazado 496874" d="M542.51,225.321,428.233,151.91l46.576-5.243L506.428,162.4Z" transform="translate(-259.822 -88.988)" fill="#08384e"/>
        <g id="Grupo_731910" data-name="Grupo 731910">
          <g id="Grupo_731909" data-name="Grupo 731909" clip-path="url(#clip-path)">
            <g id="Grupo_731908" data-name="Grupo 731908" transform="translate(168.41 57.679)" opacity="0.5" style="mix-blend-mode: multiply;isolation: isolate">
              <g id="Grupo_731907" data-name="Grupo 731907">
                <g id="Grupo_731906" data-name="Grupo 731906" clip-path="url(#clip-path-9)">
                  <path id="Trazado_496875" data-name="Trazado 496875" d="M474.809,146.667l-46.576,5.243,8.163,5.244h59.492Z" transform="translate(-428.233 -146.667)" fill="#0f546e"/>
                </g>
              </g>
            </g>
          </g>
        </g>
        <path id="Trazado_496876" data-name="Trazado 496876" d="M464.322,0,428.233,62.923h72.178Z" transform="translate(-259.823 0)" fill="#15a4a1"/>
        <path id="Trazado_496877" data-name="Trazado 496877" d="M477.56,249.59H321.184l36.082-62.923h84.212Z" transform="translate(-194.872 -113.257)" fill="#fb0"/>
        <path id="Trazado_496878" data-name="Trazado 496878" d="M454.7,436.257H214.116l36.089-62.923h168.41Z" transform="translate(-129.911 -226.513)" fill="#ce4538"/>
        <path id="Trazado_496879" data-name="Trazado 496879" d="M431.854,622.923H107.067L143.149,560H395.772Z" transform="translate(-64.961 -339.77)" fill="#b0253f"/>
        <path id="Trazado_496880" data-name="Trazado 496880" d="M36.089,746.667,0,809.59H409L372.91,746.667Z" transform="translate(0 -453.026)" fill="#831649"/>
        <g id="Grupo_731928" data-name="Grupo 731928">
          <g id="Grupo_731927" data-name="Grupo 731927" clip-path="url(#clip-path)">
            <g id="Grupo_731913" data-name="Grupo 731913" transform="translate(2.631 298.229)" style="mix-blend-mode: screen;isolation: isolate">
              <g id="Grupo_731912" data-name="Grupo 731912">
                <g id="Grupo_731911" data-name="Grupo 731911" clip-path="url(#clip-path-11)">
                  <path id="Trazado_496881" data-name="Trazado 496881" d="M6.691,892.978H410.427l-.752-1.311H7.443Z" transform="translate(-6.691 -839.232)" fill="#0f546e"/>
                  <path id="Trazado_496882" data-name="Trazado 496882" d="M83.164,759.645H426.751L426,758.334H83.916Z" transform="translate(-53.09 -758.334)" fill="#0f546e"/>
                </g>
              </g>
            </g>
            <g id="Grupo_731916" data-name="Grupo 731916" transform="translate(44.737 224.818)" style="mix-blend-mode: screen;isolation: isolate">
              <g id="Grupo_731915" data-name="Grupo 731915">
                <g id="Grupo_731914" data-name="Grupo 731914" clip-path="url(#clip-path-12)">
                  <path id="Trazado_496883" data-name="Trazado 496883" d="M113.757,706.311H433.282L432.53,705H114.509Z" transform="translate(-113.757 -652.565)" fill="#0f546e"/>
                  <path id="Trazado_496884" data-name="Trazado 496884" d="M190.215,572.978H449.6l-.752-1.311H190.967Z" transform="translate(-160.146 -571.667)" fill="#0f546e"/>
                </g>
              </g>
            </g>
            <g id="Grupo_731919" data-name="Grupo 731919" transform="translate(86.836 151.408)" style="mix-blend-mode: screen;isolation: isolate">
              <g id="Grupo_731918" data-name="Grupo 731918">
                <g id="Grupo_731917" data-name="Grupo 731917" clip-path="url(#clip-path-13)">
                  <path id="Trazado_496885" data-name="Trazado 496885" d="M220.807,519.645H456.133l-.752-1.311H221.559Z" transform="translate(-220.807 -465.898)" fill="#0f546e"/>
                  <path id="Trazado_496886" data-name="Trazado 496886" d="M297.28,386.311H472.457L471.705,385H298.032Z" transform="translate(-267.206 -385)" fill="#0f546e"/>
                </g>
              </g>
            </g>
            <g id="Grupo_731922" data-name="Grupo 731922" transform="translate(128.942 77.998)" style="mix-blend-mode: screen;isolation: isolate">
              <g id="Grupo_731921" data-name="Grupo 731921">
                <g id="Grupo_731920" data-name="Grupo 731920" clip-path="url(#clip-path-14)">
                  <path id="Trazado_496887" data-name="Trazado 496887" d="M327.873,332.978H478.988l-.752-1.311H328.625Z" transform="translate(-327.874 -279.232)" fill="#0f546e"/>
                  <path id="Trazado_496888" data-name="Trazado 496888" d="M404.331,199.645h90.978l-.752-1.311H405.083Z" transform="translate(-374.263 -198.334)" fill="#0f546e"/>
                </g>
              </g>
            </g>
            <g id="Grupo_731925" data-name="Grupo 731925" transform="translate(171.042 4.588)" style="mix-blend-mode: screen;isolation: isolate">
              <g id="Grupo_731924" data-name="Grupo 731924">
                <g id="Grupo_731923" data-name="Grupo 731923" clip-path="url(#clip-path-15)">
                  <path id="Trazado_496889" data-name="Trazado 496889" d="M434.924,146.311h66.915L501.088,145H435.676Z" transform="translate(-434.924 -92.565)" fill="#de3f18"/>
                  <path id="Trazado_496890" data-name="Trazado 496890" d="M511.4,12.978h6.767l-.752-1.311h-5.262Z" transform="translate(-481.322 -11.667)" fill="#de3f18"/>
                </g>
              </g>
            </g>
          </g>
        </g>
        <g id="Grupo_731948" data-name="Grupo 731948">
          <g id="Grupo_731947" data-name="Grupo 731947" clip-path="url(#clip-path)">
            <path id="Trazado_496892" data-name="Trazado 496892" d="M503.82,68.85a8.3,8.3,0,1,0,8.3,8.3,8.311,8.311,0,0,0-8.3-8.3M507.4,82.522h-6.882V80.49h2.347V74.237h-2.025V72.69a7.618,7.618,0,0,0,2.694-.989h1.842v8.79H507.4ZM503.82,68.85a8.3,8.3,0,1,0,8.3,8.3,8.311,8.311,0,0,0-8.3-8.3M507.4,82.522h-6.882V80.49h2.347V74.237h-2.025V72.69a7.618,7.618,0,0,0,2.694-.989h1.842v8.79H507.4ZM503.82,68.85a8.3,8.3,0,1,0,8.3,8.3,8.311,8.311,0,0,0-8.3-8.3M507.4,82.522h-6.882V80.49h2.347V74.237h-2.025V72.69a7.618,7.618,0,0,0,2.694-.989h1.842v8.79H507.4ZM503.82,68.85a8.3,8.3,0,1,0,8.3,8.3,8.311,8.311,0,0,0-8.3-8.3M507.4,82.522h-6.882V80.49h2.347V74.237h-2.025V72.69a7.618,7.618,0,0,0,2.694-.989h1.842v8.79H507.4ZM503.82,68.85a8.3,8.3,0,1,0,8.3,8.3,8.311,8.311,0,0,0-8.3-8.3M507.4,82.522h-6.882V80.49h2.347V74.237h-2.025V72.69a7.618,7.618,0,0,0,2.694-.989h1.842v8.79H507.4ZM503.82,68.85a8.3,8.3,0,1,0,8.3,8.3,8.311,8.311,0,0,0-8.3-8.3M507.4,82.522h-6.882V80.49h2.347V74.237h-2.025V72.69a7.618,7.618,0,0,0,2.694-.989h1.842v8.79H507.4ZM503.82,68.85a8.3,8.3,0,1,0,8.3,8.3,8.311,8.311,0,0,0-8.3-8.3M507.4,82.522h-6.882V80.49h2.347V74.237h-2.025V72.69a7.618,7.618,0,0,0,2.694-.989h1.842v8.79H507.4ZM503.82,68.85a8.3,8.3,0,1,0,8.3,8.3,8.311,8.311,0,0,0-8.3-8.3M507.4,82.522h-6.882V80.49h2.347V74.237h-2.025V72.69a7.618,7.618,0,0,0,2.694-.989h1.842v8.79H507.4ZM503.82,68.85a8.3,8.3,0,1,0,8.3,8.3,8.311,8.311,0,0,0-8.3-8.3M507.4,82.522h-6.882V80.49h2.347V74.237h-2.025V72.69a7.618,7.618,0,0,0,2.694-.989h1.842v8.79H507.4ZM503.82,68.85a8.3,8.3,0,1,0,8.3,8.3,8.311,8.311,0,0,0-8.3-8.3M507.4,82.522h-6.882V80.49h2.347V74.237h-2.025V72.69a7.618,7.618,0,0,0,2.694-.989h1.842v8.79H507.4ZM503.82,68.85a8.3,8.3,0,1,0,8.3,8.3,8.311,8.311,0,0,0-8.3-8.3M507.4,82.522h-6.882V80.49h2.347V74.237h-2.025V72.69a7.618,7.618,0,0,0,2.694-.989h1.842v8.79H507.4ZM503.82,68.85a8.3,8.3,0,1,0,8.3,8.3,8.311,8.311,0,0,0-8.3-8.3M507.4,82.522h-6.882V80.49h2.347V74.237h-2.025V72.69a7.618,7.618,0,0,0,2.694-.989h1.842v8.79H507.4ZM503.82,66.667a10.487,10.487,0,1,0,10.487,10.487A10.485,10.485,0,0,0,503.82,66.667m0,19.663A9.176,9.176,0,1,1,513,77.154a9.186,9.186,0,0,1-9.176,9.176m0-17.481a8.3,8.3,0,1,0,8.3,8.3,8.311,8.311,0,0,0-8.3-8.3M507.4,82.522h-6.882V80.49h2.347V74.237h-2.025V72.69a7.618,7.618,0,0,0,2.694-.989h1.842v8.79H507.4ZM503.82,68.85a8.3,8.3,0,1,0,8.3,8.3,8.311,8.311,0,0,0-8.3-8.3M507.4,82.522h-6.882V80.49h2.347V74.237h-2.025V72.69a7.618,7.618,0,0,0,2.694-.989h1.842v8.79H507.4ZM503.82,68.85a8.3,8.3,0,1,0,8.3,8.3,8.311,8.311,0,0,0-8.3-8.3M507.4,82.522h-6.882V80.49h2.347V74.237h-2.025V72.69a7.618,7.618,0,0,0,2.694-.989h1.842v8.79H507.4ZM503.82,68.85a8.3,8.3,0,1,0,8.3,8.3,8.311,8.311,0,0,0-8.3-8.3M507.4,82.522h-6.882V80.49h2.347V74.237h-2.025V72.69a7.618,7.618,0,0,0,2.694-.989h1.842v8.79H507.4ZM503.82,68.85a8.3,8.3,0,1,0,8.3,8.3,8.311,8.311,0,0,0-8.3-8.3M507.4,82.522h-6.882V80.49h2.347V74.237h-2.025V72.69a7.618,7.618,0,0,0,2.694-.989h1.842v8.79H507.4ZM503.82,68.85a8.3,8.3,0,1,0,8.3,8.3,8.311,8.311,0,0,0-8.3-8.3M507.4,82.522h-6.882V80.49h2.347V74.237h-2.025V72.69a7.618,7.618,0,0,0,2.694-.989h1.842v8.79H507.4ZM503.82,68.85a8.3,8.3,0,1,0,8.3,8.3,8.311,8.311,0,0,0-8.3-8.3M507.4,82.522h-6.882V80.49h2.347V74.237h-2.025V72.69a7.618,7.618,0,0,0,2.694-.989h1.842v8.79H507.4ZM503.82,68.85a8.3,8.3,0,1,0,8.3,8.3,8.311,8.311,0,0,0-8.3-8.3M507.4,82.522h-6.882V80.49h2.347V74.237h-2.025V72.69a7.618,7.618,0,0,0,2.694-.989h1.842v8.79H507.4ZM503.82,68.85a8.3,8.3,0,1,0,8.3,8.3,8.311,8.311,0,0,0-8.3-8.3M507.4,82.522h-6.882V80.49h2.347V74.237h-2.025V72.69a7.618,7.618,0,0,0,2.694-.989h1.842v8.79H507.4ZM503.82,68.85a8.3,8.3,0,1,0,8.3,8.3,8.311,8.311,0,0,0-8.3-8.3M507.4,82.522h-6.882V80.49h2.347V74.237h-2.025V72.69a7.618,7.618,0,0,0,2.694-.989h1.842v8.79H507.4ZM503.82,68.85a8.3,8.3,0,1,0,8.3,8.3,8.311,8.311,0,0,0-8.3-8.3M507.4,82.522h-6.882V80.49h2.347V74.237h-2.025V72.69a7.618,7.618,0,0,0,2.694-.989h1.842v8.79H507.4Z" transform="translate(-299.321 -40.449)" fill="#fff"/>
            <path id="Trazado_496893" data-name="Trazado 496893" d="M503.82,242.183a8.3,8.3,0,1,0,8.3,8.3,8.311,8.311,0,0,0-8.3-8.3m4.188,13.672h-7.623V254.42c2.766-2.6,4.706-4.464,4.706-6a1.457,1.457,0,0,0-1.534-1.639,2.768,2.768,0,0,0-1.927,1.108l-1.363-1.344a4.59,4.59,0,0,1,3.631-1.724,3.321,3.321,0,0,1,3.579,3.448c0,1.822-1.7,3.762-3.461,5.6a17.682,17.682,0,0,1,1.809-.138h2.182Zm-4.188-13.672a8.3,8.3,0,1,0,8.3,8.3,8.311,8.311,0,0,0-8.3-8.3m4.188,13.672h-7.623V254.42c2.766-2.6,4.706-4.464,4.706-6a1.457,1.457,0,0,0-1.534-1.639,2.768,2.768,0,0,0-1.927,1.108l-1.363-1.344a4.59,4.59,0,0,1,3.631-1.724,3.321,3.321,0,0,1,3.579,3.448c0,1.822-1.7,3.762-3.461,5.6a17.682,17.682,0,0,1,1.809-.138h2.182Zm-4.188-13.672a8.3,8.3,0,1,0,8.3,8.3,8.311,8.311,0,0,0-8.3-8.3m4.188,13.672h-7.623V254.42c2.766-2.6,4.706-4.464,4.706-6a1.457,1.457,0,0,0-1.534-1.639,2.768,2.768,0,0,0-1.927,1.108l-1.363-1.344a4.59,4.59,0,0,1,3.631-1.724,3.321,3.321,0,0,1,3.579,3.448c0,1.822-1.7,3.762-3.461,5.6a17.682,17.682,0,0,1,1.809-.138h2.182Zm-4.188-13.672a8.3,8.3,0,1,0,8.3,8.3,8.311,8.311,0,0,0-8.3-8.3m4.188,13.672h-7.623V254.42c2.766-2.6,4.706-4.464,4.706-6a1.457,1.457,0,0,0-1.534-1.639,2.768,2.768,0,0,0-1.927,1.108l-1.363-1.344a4.59,4.59,0,0,1,3.631-1.724,3.321,3.321,0,0,1,3.579,3.448c0,1.822-1.7,3.762-3.461,5.6a17.682,17.682,0,0,1,1.809-.138h2.182Zm-4.188-13.672a8.3,8.3,0,1,0,8.3,8.3,8.311,8.311,0,0,0-8.3-8.3m4.188,13.672h-7.623V254.42c2.766-2.6,4.706-4.464,4.706-6a1.457,1.457,0,0,0-1.534-1.639,2.768,2.768,0,0,0-1.927,1.108l-1.363-1.344a4.59,4.59,0,0,1,3.631-1.724,3.321,3.321,0,0,1,3.579,3.448c0,1.822-1.7,3.762-3.461,5.6a17.682,17.682,0,0,1,1.809-.138h2.182Zm-4.188-13.672a8.3,8.3,0,1,0,8.3,8.3,8.311,8.311,0,0,0-8.3-8.3m4.188,13.672h-7.623V254.42c2.766-2.6,4.706-4.464,4.706-6a1.457,1.457,0,0,0-1.534-1.639,2.768,2.768,0,0,0-1.927,1.108l-1.363-1.344a4.59,4.59,0,0,1,3.631-1.724,3.321,3.321,0,0,1,3.579,3.448c0,1.822-1.7,3.762-3.461,5.6a17.682,17.682,0,0,1,1.809-.138h2.182Zm-4.188-13.672a8.3,8.3,0,1,0,8.3,8.3,8.311,8.311,0,0,0-8.3-8.3m4.188,13.672h-7.623V254.42c2.766-2.6,4.706-4.464,4.706-6a1.457,1.457,0,0,0-1.534-1.639,2.768,2.768,0,0,0-1.927,1.108l-1.363-1.344a4.59,4.59,0,0,1,3.631-1.724,3.321,3.321,0,0,1,3.579,3.448c0,1.822-1.7,3.762-3.461,5.6a17.682,17.682,0,0,1,1.809-.138h2.182Zm-4.188-13.672a8.3,8.3,0,1,0,8.3,8.3,8.311,8.311,0,0,0-8.3-8.3m4.188,13.672h-7.623V254.42c2.766-2.6,4.706-4.464,4.706-6a1.457,1.457,0,0,0-1.534-1.639,2.768,2.768,0,0,0-1.927,1.108l-1.363-1.344a4.59,4.59,0,0,1,3.631-1.724,3.321,3.321,0,0,1,3.579,3.448c0,1.822-1.7,3.762-3.461,5.6a17.682,17.682,0,0,1,1.809-.138h2.182Zm-4.188-13.672a8.3,8.3,0,1,0,8.3,8.3,8.311,8.311,0,0,0-8.3-8.3m4.188,13.672h-7.623V254.42c2.766-2.6,4.706-4.464,4.706-6a1.457,1.457,0,0,0-1.534-1.639,2.768,2.768,0,0,0-1.927,1.108l-1.363-1.344a4.59,4.59,0,0,1,3.631-1.724,3.321,3.321,0,0,1,3.579,3.448c0,1.822-1.7,3.762-3.461,5.6a17.682,17.682,0,0,1,1.809-.138h2.182Zm-4.188-13.672a8.3,8.3,0,1,0,8.3,8.3,8.311,8.311,0,0,0-8.3-8.3m4.188,13.672h-7.623V254.42c2.766-2.6,4.706-4.464,4.706-6a1.457,1.457,0,0,0-1.534-1.639,2.768,2.768,0,0,0-1.927,1.108l-1.363-1.344a4.59,4.59,0,0,1,3.631-1.724,3.321,3.321,0,0,1,3.579,3.448c0,1.822-1.7,3.762-3.461,5.6a17.682,17.682,0,0,1,1.809-.138h2.182Zm-4.188-13.672a8.3,8.3,0,1,0,8.3,8.3,8.311,8.311,0,0,0-8.3-8.3m4.188,13.672h-7.623V254.42c2.766-2.6,4.706-4.464,4.706-6a1.457,1.457,0,0,0-1.534-1.639,2.768,2.768,0,0,0-1.927,1.108l-1.363-1.344a4.59,4.59,0,0,1,3.631-1.724,3.321,3.321,0,0,1,3.579,3.448c0,1.822-1.7,3.762-3.461,5.6a17.682,17.682,0,0,1,1.809-.138h2.182Zm-4.188-13.672a8.3,8.3,0,1,0,8.3,8.3,8.311,8.311,0,0,0-8.3-8.3m4.188,13.672h-7.623V254.42c2.766-2.6,4.706-4.464,4.706-6a1.457,1.457,0,0,0-1.534-1.639,2.768,2.768,0,0,0-1.927,1.108l-1.363-1.344a4.59,4.59,0,0,1,3.631-1.724,3.321,3.321,0,0,1,3.579,3.448c0,1.822-1.7,3.762-3.461,5.6a17.682,17.682,0,0,1,1.809-.138h2.182ZM503.82,240a10.487,10.487,0,1,0,10.487,10.487A10.485,10.485,0,0,0,503.82,240m0,19.663A9.176,9.176,0,1,1,513,250.487a9.186,9.186,0,0,1-9.176,9.176m0-17.481a8.3,8.3,0,1,0,8.3,8.3,8.311,8.311,0,0,0-8.3-8.3m4.188,13.672h-7.623V254.42c2.766-2.6,4.706-4.464,4.706-6a1.457,1.457,0,0,0-1.534-1.639,2.768,2.768,0,0,0-1.927,1.108l-1.363-1.344a4.59,4.59,0,0,1,3.631-1.724,3.321,3.321,0,0,1,3.579,3.448c0,1.822-1.7,3.762-3.461,5.6a17.682,17.682,0,0,1,1.809-.138h2.182Zm-4.188-13.672a8.3,8.3,0,1,0,8.3,8.3,8.311,8.311,0,0,0-8.3-8.3m4.188,13.672h-7.623V254.42c2.766-2.6,4.706-4.464,4.706-6a1.457,1.457,0,0,0-1.534-1.639,2.768,2.768,0,0,0-1.927,1.108l-1.363-1.344a4.59,4.59,0,0,1,3.631-1.724,3.321,3.321,0,0,1,3.579,3.448c0,1.822-1.7,3.762-3.461,5.6a17.682,17.682,0,0,1,1.809-.138h2.182Zm-4.188-13.672a8.3,8.3,0,1,0,8.3,8.3,8.311,8.311,0,0,0-8.3-8.3m4.188,13.672h-7.623V254.42c2.766-2.6,4.706-4.464,4.706-6a1.457,1.457,0,0,0-1.534-1.639,2.768,2.768,0,0,0-1.927,1.108l-1.363-1.344a4.59,4.59,0,0,1,3.631-1.724,3.321,3.321,0,0,1,3.579,3.448c0,1.822-1.7,3.762-3.461,5.6a17.682,17.682,0,0,1,1.809-.138h2.182Zm-4.188-13.672a8.3,8.3,0,1,0,8.3,8.3,8.311,8.311,0,0,0-8.3-8.3m4.188,13.672h-7.623V254.42c2.766-2.6,4.706-4.464,4.706-6a1.457,1.457,0,0,0-1.534-1.639,2.768,2.768,0,0,0-1.927,1.108l-1.363-1.344a4.59,4.59,0,0,1,3.631-1.724,3.321,3.321,0,0,1,3.579,3.448c0,1.822-1.7,3.762-3.461,5.6a17.682,17.682,0,0,1,1.809-.138h2.182Zm-4.188-13.672a8.3,8.3,0,1,0,8.3,8.3,8.311,8.311,0,0,0-8.3-8.3m4.188,13.672h-7.623V254.42c2.766-2.6,4.706-4.464,4.706-6a1.457,1.457,0,0,0-1.534-1.639,2.768,2.768,0,0,0-1.927,1.108l-1.363-1.344a4.59,4.59,0,0,1,3.631-1.724,3.321,3.321,0,0,1,3.579,3.448c0,1.822-1.7,3.762-3.461,5.6a17.682,17.682,0,0,1,1.809-.138h2.182Zm-4.188-13.672a8.3,8.3,0,1,0,8.3,8.3,8.311,8.311,0,0,0-8.3-8.3m4.188,13.672h-7.623V254.42c2.766-2.6,4.706-4.464,4.706-6a1.457,1.457,0,0,0-1.534-1.639,2.768,2.768,0,0,0-1.927,1.108l-1.363-1.344a4.59,4.59,0,0,1,3.631-1.724,3.321,3.321,0,0,1,3.579,3.448c0,1.822-1.7,3.762-3.461,5.6a17.682,17.682,0,0,1,1.809-.138h2.182Zm-4.188-13.672a8.3,8.3,0,1,0,8.3,8.3,8.311,8.311,0,0,0-8.3-8.3m4.188,13.672h-7.623V254.42c2.766-2.6,4.706-4.464,4.706-6a1.457,1.457,0,0,0-1.534-1.639,2.768,2.768,0,0,0-1.927,1.108l-1.363-1.344a4.59,4.59,0,0,1,3.631-1.724,3.321,3.321,0,0,1,3.579,3.448c0,1.822-1.7,3.762-3.461,5.6a17.682,17.682,0,0,1,1.809-.138h2.182Zm-4.188-13.672a8.3,8.3,0,1,0,8.3,8.3,8.311,8.311,0,0,0-8.3-8.3m4.188,13.672h-7.623V254.42c2.766-2.6,4.706-4.464,4.706-6a1.457,1.457,0,0,0-1.534-1.639,2.768,2.768,0,0,0-1.927,1.108l-1.363-1.344a4.59,4.59,0,0,1,3.631-1.724,3.321,3.321,0,0,1,3.579,3.448c0,1.822-1.7,3.762-3.461,5.6a17.682,17.682,0,0,1,1.809-.138h2.182Zm-4.188-13.672a8.3,8.3,0,1,0,8.3,8.3,8.311,8.311,0,0,0-8.3-8.3m4.188,13.672h-7.623V254.42c2.766-2.6,4.706-4.464,4.706-6a1.457,1.457,0,0,0-1.534-1.639,2.768,2.768,0,0,0-1.927,1.108l-1.363-1.344a4.59,4.59,0,0,1,3.631-1.724,3.321,3.321,0,0,1,3.579,3.448c0,1.822-1.7,3.762-3.461,5.6a17.682,17.682,0,0,1,1.809-.138h2.182Zm-4.188-13.672a8.3,8.3,0,1,0,8.3,8.3,8.311,8.311,0,0,0-8.3-8.3m4.188,13.672h-7.623V254.42c2.766-2.6,4.706-4.464,4.706-6a1.457,1.457,0,0,0-1.534-1.639,2.768,2.768,0,0,0-1.927,1.108l-1.363-1.344a4.59,4.59,0,0,1,3.631-1.724,3.321,3.321,0,0,1,3.579,3.448c0,1.822-1.7,3.762-3.461,5.6a17.682,17.682,0,0,1,1.809-.138h2.182Zm-4.188-13.672a8.3,8.3,0,1,0,8.3,8.3,8.311,8.311,0,0,0-8.3-8.3m4.188,13.672h-7.623V254.42c2.766-2.6,4.706-4.464,4.706-6a1.457,1.457,0,0,0-1.534-1.639,2.768,2.768,0,0,0-1.927,1.108l-1.363-1.344a4.59,4.59,0,0,1,3.631-1.724,3.321,3.321,0,0,1,3.579,3.448c0,1.822-1.7,3.762-3.461,5.6a17.682,17.682,0,0,1,1.809-.138h2.182Z" transform="translate(-299.321 -145.616)" fill="#fff"/>
            <path id="Trazado_496894" data-name="Trazado 496894" d="M503.82,428.85a8.3,8.3,0,1,0,8.3,8.3,8.31,8.31,0,0,0-8.3-8.3m-.033,13.876a4.71,4.71,0,0,1-3.762-1.534l1.16-1.586a3.427,3.427,0,0,0,2.366,1.094c1.056,0,1.757-.465,1.757-1.278,0-.957-.564-1.553-2.916-1.553V436.1c1.947,0,2.556-.584,2.556-1.455,0-.748-.478-1.193-1.33-1.193a3,3,0,0,0-2.025.958l-1.259-1.534a5.072,5.072,0,0,1,3.408-1.384c2.229,0,3.73,1.076,3.73,2.97a2.561,2.561,0,0,1-1.809,2.406v.065a2.691,2.691,0,0,1,2.15,2.641c0,2.013-1.842,3.153-4.024,3.153m.033-13.876a8.3,8.3,0,1,0,8.3,8.3,8.31,8.31,0,0,0-8.3-8.3m-.033,13.876a4.71,4.71,0,0,1-3.762-1.534l1.16-1.586a3.427,3.427,0,0,0,2.366,1.094c1.056,0,1.757-.465,1.757-1.278,0-.957-.564-1.553-2.916-1.553V436.1c1.947,0,2.556-.584,2.556-1.455,0-.748-.478-1.193-1.33-1.193a3,3,0,0,0-2.025.958l-1.259-1.534a5.072,5.072,0,0,1,3.408-1.384c2.229,0,3.73,1.076,3.73,2.97a2.561,2.561,0,0,1-1.809,2.406v.065a2.691,2.691,0,0,1,2.15,2.641c0,2.013-1.842,3.153-4.024,3.153m.033-13.876a8.3,8.3,0,1,0,8.3,8.3,8.31,8.31,0,0,0-8.3-8.3m-.033,13.876a4.71,4.71,0,0,1-3.762-1.534l1.16-1.586a3.427,3.427,0,0,0,2.366,1.094c1.056,0,1.757-.465,1.757-1.278,0-.957-.564-1.553-2.916-1.553V436.1c1.947,0,2.556-.584,2.556-1.455,0-.748-.478-1.193-1.33-1.193a3,3,0,0,0-2.025.958l-1.259-1.534a5.072,5.072,0,0,1,3.408-1.384c2.229,0,3.73,1.076,3.73,2.97a2.561,2.561,0,0,1-1.809,2.406v.065a2.691,2.691,0,0,1,2.15,2.641c0,2.013-1.842,3.153-4.024,3.153m.033-13.876a8.3,8.3,0,1,0,8.3,8.3,8.31,8.31,0,0,0-8.3-8.3m-.033,13.876a4.71,4.71,0,0,1-3.762-1.534l1.16-1.586a3.427,3.427,0,0,0,2.366,1.094c1.056,0,1.757-.465,1.757-1.278,0-.957-.564-1.553-2.916-1.553V436.1c1.947,0,2.556-.584,2.556-1.455,0-.748-.478-1.193-1.33-1.193a3,3,0,0,0-2.025.958l-1.259-1.534a5.072,5.072,0,0,1,3.408-1.384c2.229,0,3.73,1.076,3.73,2.97a2.561,2.561,0,0,1-1.809,2.406v.065a2.691,2.691,0,0,1,2.15,2.641c0,2.013-1.842,3.153-4.024,3.153m.033-13.876a8.3,8.3,0,1,0,8.3,8.3,8.31,8.31,0,0,0-8.3-8.3m-.033,13.876a4.71,4.71,0,0,1-3.762-1.534l1.16-1.586a3.427,3.427,0,0,0,2.366,1.094c1.056,0,1.757-.465,1.757-1.278,0-.957-.564-1.553-2.916-1.553V436.1c1.947,0,2.556-.584,2.556-1.455,0-.748-.478-1.193-1.33-1.193a3,3,0,0,0-2.025.958l-1.259-1.534a5.072,5.072,0,0,1,3.408-1.384c2.229,0,3.73,1.076,3.73,2.97a2.561,2.561,0,0,1-1.809,2.406v.065a2.691,2.691,0,0,1,2.15,2.641c0,2.013-1.842,3.153-4.024,3.153m.033-13.876a8.3,8.3,0,1,0,8.3,8.3,8.31,8.31,0,0,0-8.3-8.3m-.033,13.876a4.71,4.71,0,0,1-3.762-1.534l1.16-1.586a3.427,3.427,0,0,0,2.366,1.094c1.056,0,1.757-.465,1.757-1.278,0-.957-.564-1.553-2.916-1.553V436.1c1.947,0,2.556-.584,2.556-1.455,0-.748-.478-1.193-1.33-1.193a3,3,0,0,0-2.025.958l-1.259-1.534a5.072,5.072,0,0,1,3.408-1.384c2.229,0,3.73,1.076,3.73,2.97a2.561,2.561,0,0,1-1.809,2.406v.065a2.691,2.691,0,0,1,2.15,2.641c0,2.013-1.842,3.153-4.024,3.153m.033-13.876a8.3,8.3,0,1,0,8.3,8.3,8.31,8.31,0,0,0-8.3-8.3m-.033,13.876a4.71,4.71,0,0,1-3.762-1.534l1.16-1.586a3.427,3.427,0,0,0,2.366,1.094c1.056,0,1.757-.465,1.757-1.278,0-.957-.564-1.553-2.916-1.553V436.1c1.947,0,2.556-.584,2.556-1.455,0-.748-.478-1.193-1.33-1.193a3,3,0,0,0-2.025.958l-1.259-1.534a5.072,5.072,0,0,1,3.408-1.384c2.229,0,3.73,1.076,3.73,2.97a2.561,2.561,0,0,1-1.809,2.406v.065a2.691,2.691,0,0,1,2.15,2.641c0,2.013-1.842,3.153-4.024,3.153m.033-13.876a8.3,8.3,0,1,0,8.3,8.3,8.31,8.31,0,0,0-8.3-8.3m-.033,13.876a4.71,4.71,0,0,1-3.762-1.534l1.16-1.586a3.427,3.427,0,0,0,2.366,1.094c1.056,0,1.757-.465,1.757-1.278,0-.957-.564-1.553-2.916-1.553V436.1c1.947,0,2.556-.584,2.556-1.455,0-.748-.478-1.193-1.33-1.193a3,3,0,0,0-2.025.958l-1.259-1.534a5.072,5.072,0,0,1,3.408-1.384c2.229,0,3.73,1.076,3.73,2.97a2.561,2.561,0,0,1-1.809,2.406v.065a2.691,2.691,0,0,1,2.15,2.641c0,2.013-1.842,3.153-4.024,3.153m.033-13.876a8.3,8.3,0,1,0,8.3,8.3,8.31,8.31,0,0,0-8.3-8.3m-.033,13.876a4.71,4.71,0,0,1-3.762-1.534l1.16-1.586a3.427,3.427,0,0,0,2.366,1.094c1.056,0,1.757-.465,1.757-1.278,0-.957-.564-1.553-2.916-1.553V436.1c1.947,0,2.556-.584,2.556-1.455,0-.748-.478-1.193-1.33-1.193a3,3,0,0,0-2.025.958l-1.259-1.534a5.072,5.072,0,0,1,3.408-1.384c2.229,0,3.73,1.076,3.73,2.97a2.561,2.561,0,0,1-1.809,2.406v.065a2.691,2.691,0,0,1,2.15,2.641c0,2.013-1.842,3.153-4.024,3.153m.033-13.876a8.3,8.3,0,1,0,8.3,8.3,8.31,8.31,0,0,0-8.3-8.3m-.033,13.876a4.71,4.71,0,0,1-3.762-1.534l1.16-1.586a3.427,3.427,0,0,0,2.366,1.094c1.056,0,1.757-.465,1.757-1.278,0-.957-.564-1.553-2.916-1.553V436.1c1.947,0,2.556-.584,2.556-1.455,0-.748-.478-1.193-1.33-1.193a3,3,0,0,0-2.025.958l-1.259-1.534a5.072,5.072,0,0,1,3.408-1.384c2.229,0,3.73,1.076,3.73,2.97a2.561,2.561,0,0,1-1.809,2.406v.065a2.691,2.691,0,0,1,2.15,2.641c0,2.013-1.842,3.153-4.024,3.153m.033-13.876a8.3,8.3,0,1,0,8.3,8.3,8.31,8.31,0,0,0-8.3-8.3m-.033,13.876a4.71,4.71,0,0,1-3.762-1.534l1.16-1.586a3.427,3.427,0,0,0,2.366,1.094c1.056,0,1.757-.465,1.757-1.278,0-.957-.564-1.553-2.916-1.553V436.1c1.947,0,2.556-.584,2.556-1.455,0-.748-.478-1.193-1.33-1.193a3,3,0,0,0-2.025.958l-1.259-1.534a5.072,5.072,0,0,1,3.408-1.384c2.229,0,3.73,1.076,3.73,2.97a2.561,2.561,0,0,1-1.809,2.406v.065a2.691,2.691,0,0,1,2.15,2.641c0,2.013-1.842,3.153-4.024,3.153m.033-13.876a8.3,8.3,0,1,0,8.3,8.3,8.31,8.31,0,0,0-8.3-8.3m-.033,13.876a4.71,4.71,0,0,1-3.762-1.534l1.16-1.586a3.427,3.427,0,0,0,2.366,1.094c1.056,0,1.757-.465,1.757-1.278,0-.957-.564-1.553-2.916-1.553V436.1c1.947,0,2.556-.584,2.556-1.455,0-.748-.478-1.193-1.33-1.193a3,3,0,0,0-2.025.958l-1.259-1.534a5.072,5.072,0,0,1,3.408-1.384c2.229,0,3.73,1.076,3.73,2.97a2.561,2.561,0,0,1-1.809,2.406v.065a2.691,2.691,0,0,1,2.15,2.641c0,2.013-1.842,3.153-4.024,3.153m.033-16.058a10.487,10.487,0,1,0,10.487,10.487,10.484,10.484,0,0,0-10.487-10.487m0,19.663A9.176,9.176,0,1,1,513,437.154a9.186,9.186,0,0,1-9.176,9.177m0-17.481a8.3,8.3,0,1,0,8.3,8.3,8.31,8.31,0,0,0-8.3-8.3m-.033,13.876a4.71,4.71,0,0,1-3.762-1.534l1.16-1.586a3.427,3.427,0,0,0,2.366,1.094c1.056,0,1.757-.465,1.757-1.278,0-.957-.564-1.553-2.916-1.553V436.1c1.947,0,2.556-.584,2.556-1.455,0-.748-.478-1.193-1.33-1.193a3,3,0,0,0-2.025.958l-1.259-1.534a5.072,5.072,0,0,1,3.408-1.384c2.229,0,3.73,1.076,3.73,2.97a2.561,2.561,0,0,1-1.809,2.406v.065a2.691,2.691,0,0,1,2.15,2.641c0,2.013-1.842,3.153-4.024,3.153m.033-13.876a8.3,8.3,0,1,0,8.3,8.3,8.31,8.31,0,0,0-8.3-8.3m-.033,13.876a4.71,4.71,0,0,1-3.762-1.534l1.16-1.586a3.427,3.427,0,0,0,2.366,1.094c1.056,0,1.757-.465,1.757-1.278,0-.957-.564-1.553-2.916-1.553V436.1c1.947,0,2.556-.584,2.556-1.455,0-.748-.478-1.193-1.33-1.193a3,3,0,0,0-2.025.958l-1.259-1.534a5.072,5.072,0,0,1,3.408-1.384c2.229,0,3.73,1.076,3.73,2.97a2.561,2.561,0,0,1-1.809,2.406v.065a2.691,2.691,0,0,1,2.15,2.641c0,2.013-1.842,3.153-4.024,3.153m.033-13.876a8.3,8.3,0,1,0,8.3,8.3,8.31,8.31,0,0,0-8.3-8.3m-.033,13.876a4.71,4.71,0,0,1-3.762-1.534l1.16-1.586a3.427,3.427,0,0,0,2.366,1.094c1.056,0,1.757-.465,1.757-1.278,0-.957-.564-1.553-2.916-1.553V436.1c1.947,0,2.556-.584,2.556-1.455,0-.748-.478-1.193-1.33-1.193a3,3,0,0,0-2.025.958l-1.259-1.534a5.072,5.072,0,0,1,3.408-1.384c2.229,0,3.73,1.076,3.73,2.97a2.561,2.561,0,0,1-1.809,2.406v.065a2.691,2.691,0,0,1,2.15,2.641c0,2.013-1.842,3.153-4.024,3.153m.033-13.876a8.3,8.3,0,1,0,8.3,8.3,8.31,8.31,0,0,0-8.3-8.3m-.033,13.876a4.71,4.71,0,0,1-3.762-1.534l1.16-1.586a3.427,3.427,0,0,0,2.366,1.094c1.056,0,1.757-.465,1.757-1.278,0-.957-.564-1.553-2.916-1.553V436.1c1.947,0,2.556-.584,2.556-1.455,0-.748-.478-1.193-1.33-1.193a3,3,0,0,0-2.025.958l-1.259-1.534a5.072,5.072,0,0,1,3.408-1.384c2.229,0,3.73,1.076,3.73,2.97a2.561,2.561,0,0,1-1.809,2.406v.065a2.691,2.691,0,0,1,2.15,2.641c0,2.013-1.842,3.153-4.024,3.153m.033-13.876a8.3,8.3,0,1,0,8.3,8.3,8.31,8.31,0,0,0-8.3-8.3m-.033,13.876a4.71,4.71,0,0,1-3.762-1.534l1.16-1.586a3.427,3.427,0,0,0,2.366,1.094c1.056,0,1.757-.465,1.757-1.278,0-.957-.564-1.553-2.916-1.553V436.1c1.947,0,2.556-.584,2.556-1.455,0-.748-.478-1.193-1.33-1.193a3,3,0,0,0-2.025.958l-1.259-1.534a5.072,5.072,0,0,1,3.408-1.384c2.229,0,3.73,1.076,3.73,2.97a2.561,2.561,0,0,1-1.809,2.406v.065a2.691,2.691,0,0,1,2.15,2.641c0,2.013-1.842,3.153-4.024,3.153m.033-13.876a8.3,8.3,0,1,0,8.3,8.3,8.31,8.31,0,0,0-8.3-8.3m-.033,13.876a4.71,4.71,0,0,1-3.762-1.534l1.16-1.586a3.427,3.427,0,0,0,2.366,1.094c1.056,0,1.757-.465,1.757-1.278,0-.957-.564-1.553-2.916-1.553V436.1c1.947,0,2.556-.584,2.556-1.455,0-.748-.478-1.193-1.33-1.193a3,3,0,0,0-2.025.958l-1.259-1.534a5.072,5.072,0,0,1,3.408-1.384c2.229,0,3.73,1.076,3.73,2.97a2.561,2.561,0,0,1-1.809,2.406v.065a2.691,2.691,0,0,1,2.15,2.641c0,2.013-1.842,3.153-4.024,3.153m.033-13.876a8.3,8.3,0,1,0,8.3,8.3,8.31,8.31,0,0,0-8.3-8.3m-.033,13.876a4.71,4.71,0,0,1-3.762-1.534l1.16-1.586a3.427,3.427,0,0,0,2.366,1.094c1.056,0,1.757-.465,1.757-1.278,0-.957-.564-1.553-2.916-1.553V436.1c1.947,0,2.556-.584,2.556-1.455,0-.748-.478-1.193-1.33-1.193a3,3,0,0,0-2.025.958l-1.259-1.534a5.072,5.072,0,0,1,3.408-1.384c2.229,0,3.73,1.076,3.73,2.97a2.561,2.561,0,0,1-1.809,2.406v.065a2.691,2.691,0,0,1,2.15,2.641c0,2.013-1.842,3.153-4.024,3.153m.033-13.876a8.3,8.3,0,1,0,8.3,8.3,8.31,8.31,0,0,0-8.3-8.3m-.033,13.876a4.71,4.71,0,0,1-3.762-1.534l1.16-1.586a3.427,3.427,0,0,0,2.366,1.094c1.056,0,1.757-.465,1.757-1.278,0-.957-.564-1.553-2.916-1.553V436.1c1.947,0,2.556-.584,2.556-1.455,0-.748-.478-1.193-1.33-1.193a3,3,0,0,0-2.025.958l-1.259-1.534a5.072,5.072,0,0,1,3.408-1.384c2.229,0,3.73,1.076,3.73,2.97a2.561,2.561,0,0,1-1.809,2.406v.065a2.691,2.691,0,0,1,2.15,2.641c0,2.013-1.842,3.153-4.024,3.153m.033-13.876a8.3,8.3,0,1,0,8.3,8.3,8.31,8.31,0,0,0-8.3-8.3m-.033,13.876a4.71,4.71,0,0,1-3.762-1.534l1.16-1.586a3.427,3.427,0,0,0,2.366,1.094c1.056,0,1.757-.465,1.757-1.278,0-.957-.564-1.553-2.916-1.553V436.1c1.947,0,2.556-.584,2.556-1.455,0-.748-.478-1.193-1.33-1.193a3,3,0,0,0-2.025.958l-1.259-1.534a5.072,5.072,0,0,1,3.408-1.384c2.229,0,3.73,1.076,3.73,2.97a2.561,2.561,0,0,1-1.809,2.406v.065a2.691,2.691,0,0,1,2.15,2.641c0,2.013-1.842,3.153-4.024,3.153m.033-13.876a8.3,8.3,0,1,0,8.3,8.3,8.31,8.31,0,0,0-8.3-8.3m-.033,13.876a4.71,4.71,0,0,1-3.762-1.534l1.16-1.586a3.427,3.427,0,0,0,2.366,1.094c1.056,0,1.757-.465,1.757-1.278,0-.957-.564-1.553-2.916-1.553V436.1c1.947,0,2.556-.584,2.556-1.455,0-.748-.478-1.193-1.33-1.193a3,3,0,0,0-2.025.958l-1.259-1.534a5.072,5.072,0,0,1,3.408-1.384c2.229,0,3.73,1.076,3.73,2.97a2.561,2.561,0,0,1-1.809,2.406v.065a2.691,2.691,0,0,1,2.15,2.641c0,2.013-1.842,3.153-4.024,3.153m.033-13.876a8.3,8.3,0,1,0,8.3,8.3,8.31,8.31,0,0,0-8.3-8.3m-.033,13.876a4.71,4.71,0,0,1-3.762-1.534l1.16-1.586a3.427,3.427,0,0,0,2.366,1.094c1.056,0,1.757-.465,1.757-1.278,0-.957-.564-1.553-2.916-1.553V436.1c1.947,0,2.556-.584,2.556-1.455,0-.748-.478-1.193-1.33-1.193a3,3,0,0,0-2.025.958l-1.259-1.534a5.072,5.072,0,0,1,3.408-1.384c2.229,0,3.73,1.076,3.73,2.97a2.561,2.561,0,0,1-1.809,2.406v.065a2.691,2.691,0,0,1,2.15,2.641c0,2.013-1.842,3.153-4.024,3.153" transform="translate(-299.321 -258.872)" fill="#fff"/>
            <path id="Trazado_496895" data-name="Trazado 496895" d="M504.037,620.511c-.269.6-.577,1.212-.885,1.829l-1.429,2.346H504v-1.75c0-.7.065-1.744.1-2.425Zm0,0c-.269.6-.577,1.212-.885,1.829l-1.429,2.346H504v-1.75c0-.7.065-1.744.1-2.425Zm0,0c-.269.6-.577,1.212-.885,1.829l-1.429,2.346H504v-1.75c0-.7.065-1.744.1-2.425Zm0,0c-.269.6-.577,1.212-.885,1.829l-1.429,2.346H504v-1.75c0-.7.065-1.744.1-2.425Zm-.216-4.995a8.3,8.3,0,1,0,8.3,8.3,8.311,8.311,0,0,0-8.3-8.3m3.762,11.083h-1.246v2.589H504V626.6h-4.687v-1.724l3.952-6.508h3.067v6.319h1.246Zm-4.431-4.26-1.429,2.346H504v-1.75c0-.7.065-1.744.1-2.425h-.072c-.269.6-.577,1.212-.885,1.829m.885-1.829c-.269.6-.577,1.212-.885,1.829l-1.429,2.346H504v-1.75c0-.7.065-1.744.1-2.425Zm0,0c-.269.6-.577,1.212-.885,1.829l-1.429,2.346H504v-1.75c0-.7.065-1.744.1-2.425Zm0,0c-.269.6-.577,1.212-.885,1.829l-1.429,2.346H504v-1.75c0-.7.065-1.744.1-2.425Zm0,0c-.269.6-.577,1.212-.885,1.829l-1.429,2.346H504v-1.75c0-.7.065-1.744.1-2.425Zm0,0c-.269.6-.577,1.212-.885,1.829l-1.429,2.346H504v-1.75c0-.7.065-1.744.1-2.425Zm0,0c-.269.6-.577,1.212-.885,1.829l-1.429,2.346H504v-1.75c0-.7.065-1.744.1-2.425Zm-.216-4.995a8.3,8.3,0,1,0,8.3,8.3,8.311,8.311,0,0,0-8.3-8.3m3.762,11.083h-1.246v2.589H504V626.6h-4.687v-1.724l3.952-6.508h3.067v6.319h1.246Zm-4.431-4.26-1.429,2.346H504v-1.75c0-.7.065-1.744.1-2.425h-.072c-.269.6-.577,1.212-.885,1.829m.885-1.829c-.269.6-.577,1.212-.885,1.829l-1.429,2.346H504v-1.75c0-.7.065-1.744.1-2.425Zm0,0c-.269.6-.577,1.212-.885,1.829l-1.429,2.346H504v-1.75c0-.7.065-1.744.1-2.425Zm0,0c-.269.6-.577,1.212-.885,1.829l-1.429,2.346H504v-1.75c0-.7.065-1.744.1-2.425Zm0,0c-.269.6-.577,1.212-.885,1.829l-1.429,2.346H504v-1.75c0-.7.065-1.744.1-2.425Zm0,0c-.269.6-.577,1.212-.885,1.829l-1.429,2.346H504v-1.75c0-.7.065-1.744.1-2.425Zm0,0c-.269.6-.577,1.212-.885,1.829l-1.429,2.346H504v-1.75c0-.7.065-1.744.1-2.425Zm-.216-4.995a8.3,8.3,0,1,0,8.3,8.3,8.311,8.311,0,0,0-8.3-8.3m3.762,11.083h-1.246v2.589H504V626.6h-4.687v-1.724l3.952-6.508h3.067v6.319h1.246Zm-4.431-4.26-1.429,2.346H504v-1.75c0-.7.065-1.744.1-2.425h-.072c-.269.6-.577,1.212-.885,1.829m.885-1.829c-.269.6-.577,1.212-.885,1.829l-1.429,2.346H504v-1.75c0-.7.065-1.744.1-2.425Zm0,0c-.269.6-.577,1.212-.885,1.829l-1.429,2.346H504v-1.75c0-.7.065-1.744.1-2.425Zm0,0c-.269.6-.577,1.212-.885,1.829l-1.429,2.346H504v-1.75c0-.7.065-1.744.1-2.425Zm0,0c-.269.6-.577,1.212-.885,1.829l-1.429,2.346H504v-1.75c0-.7.065-1.744.1-2.425Zm0,0c-.269.6-.577,1.212-.885,1.829l-1.429,2.346H504v-1.75c0-.7.065-1.744.1-2.425Zm0,0c-.269.6-.577,1.212-.885,1.829l-1.429,2.346H504v-1.75c0-.7.065-1.744.1-2.425Zm-.216-4.995a8.3,8.3,0,1,0,8.3,8.3,8.311,8.311,0,0,0-8.3-8.3m3.762,11.083h-1.246v2.589H504V626.6h-4.687v-1.724l3.952-6.508h3.067v6.319h1.246Zm-4.431-4.26-1.429,2.346H504v-1.75c0-.7.065-1.744.1-2.425h-.072c-.269.6-.577,1.212-.885,1.829m.885-1.829c-.269.6-.577,1.212-.885,1.829l-1.429,2.346H504v-1.75c0-.7.065-1.744.1-2.425Zm0,0c-.269.6-.577,1.212-.885,1.829l-1.429,2.346H504v-1.75c0-.7.065-1.744.1-2.425Zm0,0c-.269.6-.577,1.212-.885,1.829l-1.429,2.346H504v-1.75c0-.7.065-1.744.1-2.425Zm0,0c-.269.6-.577,1.212-.885,1.829l-1.429,2.346H504v-1.75c0-.7.065-1.744.1-2.425Zm0,0c-.269.6-.577,1.212-.885,1.829l-1.429,2.346H504v-1.75c0-.7.065-1.744.1-2.425Zm0,0c-.269.6-.577,1.212-.885,1.829l-1.429,2.346H504v-1.75c0-.7.065-1.744.1-2.425Zm-.216-4.995a8.3,8.3,0,1,0,8.3,8.3,8.311,8.311,0,0,0-8.3-8.3m3.762,11.083h-1.246v2.589H504V626.6h-4.687v-1.724l3.952-6.508h3.067v6.319h1.246Zm-4.431-4.26-1.429,2.346H504v-1.75c0-.7.065-1.744.1-2.425h-.072c-.269.6-.577,1.212-.885,1.829m.885-1.829c-.269.6-.577,1.212-.885,1.829l-1.429,2.346H504v-1.75c0-.7.065-1.744.1-2.425Zm0,0c-.269.6-.577,1.212-.885,1.829l-1.429,2.346H504v-1.75c0-.7.065-1.744.1-2.425Zm0,0c-.269.6-.577,1.212-.885,1.829l-1.429,2.346H504v-1.75c0-.7.065-1.744.1-2.425Zm0,0c-.269.6-.577,1.212-.885,1.829l-1.429,2.346H504v-1.75c0-.7.065-1.744.1-2.425Zm0,0c-.269.6-.577,1.212-.885,1.829l-1.429,2.346H504v-1.75c0-.7.065-1.744.1-2.425Zm0,0c-.269.6-.577,1.212-.885,1.829l-1.429,2.346H504v-1.75c0-.7.065-1.744.1-2.425Zm-.216-4.995a8.3,8.3,0,1,0,8.3,8.3,8.311,8.311,0,0,0-8.3-8.3m3.762,11.083h-1.246v2.589H504V626.6h-4.687v-1.724l3.952-6.508h3.067v6.319h1.246Zm-4.431-4.26-1.429,2.346H504v-1.75c0-.7.065-1.744.1-2.425h-.072c-.269.6-.577,1.212-.885,1.829m.885-1.829c-.269.6-.577,1.212-.885,1.829l-1.429,2.346H504v-1.75c0-.7.065-1.744.1-2.425Zm0,0c-.269.6-.577,1.212-.885,1.829l-1.429,2.346H504v-1.75c0-.7.065-1.744.1-2.425Zm0,0c-.269.6-.577,1.212-.885,1.829l-1.429,2.346H504v-1.75c0-.7.065-1.744.1-2.425Zm0,0c-.269.6-.577,1.212-.885,1.829l-1.429,2.346H504v-1.75c0-.7.065-1.744.1-2.425Zm0,0c-.269.6-.577,1.212-.885,1.829l-1.429,2.346H504v-1.75c0-.7.065-1.744.1-2.425Zm0,0c-.269.6-.577,1.212-.885,1.829l-1.429,2.346H504v-1.75c0-.7.065-1.744.1-2.425Zm-.216-4.995a8.3,8.3,0,1,0,8.3,8.3,8.311,8.311,0,0,0-8.3-8.3m3.762,11.083h-1.246v2.589H504V626.6h-4.687v-1.724l3.952-6.508h3.067v6.319h1.246Zm-4.431-4.26-1.429,2.346H504v-1.75c0-.7.065-1.744.1-2.425h-.072c-.269.6-.577,1.212-.885,1.829m.885-1.829c-.269.6-.577,1.212-.885,1.829l-1.429,2.346H504v-1.75c0-.7.065-1.744.1-2.425Zm0,0c-.269.6-.577,1.212-.885,1.829l-1.429,2.346H504v-1.75c0-.7.065-1.744.1-2.425Zm0,0c-.269.6-.577,1.212-.885,1.829l-1.429,2.346H504v-1.75c0-.7.065-1.744.1-2.425Zm0,0c-.269.6-.577,1.212-.885,1.829l-1.429,2.346H504v-1.75c0-.7.065-1.744.1-2.425Zm0,0c-.269.6-.577,1.212-.885,1.829l-1.429,2.346H504v-1.75c0-.7.065-1.744.1-2.425Zm0,0c-.269.6-.577,1.212-.885,1.829l-1.429,2.346H504v-1.75c0-.7.065-1.744.1-2.425Zm-.216-4.995a8.3,8.3,0,1,0,8.3,8.3,8.311,8.311,0,0,0-8.3-8.3m3.762,11.083h-1.246v2.589H504V626.6h-4.687v-1.724l3.952-6.508h3.067v6.319h1.246Zm-4.431-4.26-1.429,2.346H504v-1.75c0-.7.065-1.744.1-2.425h-.072c-.269.6-.577,1.212-.885,1.829m.885-1.829c-.269.6-.577,1.212-.885,1.829l-1.429,2.346H504v-1.75c0-.7.065-1.744.1-2.425Zm0,0c-.269.6-.577,1.212-.885,1.829l-1.429,2.346H504v-1.75c0-.7.065-1.744.1-2.425Zm0,0c-.269.6-.577,1.212-.885,1.829l-1.429,2.346H504v-1.75c0-.7.065-1.744.1-2.425Zm0,0c-.269.6-.577,1.212-.885,1.829l-1.429,2.346H504v-1.75c0-.7.065-1.744.1-2.425Zm0,0c-.269.6-.577,1.212-.885,1.829l-1.429,2.346H504v-1.75c0-.7.065-1.744.1-2.425Zm0,0c-.269.6-.577,1.212-.885,1.829l-1.429,2.346H504v-1.75c0-.7.065-1.744.1-2.425Zm-.216-4.995a8.3,8.3,0,1,0,8.3,8.3,8.311,8.311,0,0,0-8.3-8.3m3.762,11.083h-1.246v2.589H504V626.6h-4.687v-1.724l3.952-6.508h3.067v6.319h1.246Zm-4.431-4.26-1.429,2.346H504v-1.75c0-.7.065-1.744.1-2.425h-.072c-.269.6-.577,1.212-.885,1.829m.885-1.829c-.269.6-.577,1.212-.885,1.829l-1.429,2.346H504v-1.75c0-.7.065-1.744.1-2.425Zm0,0c-.269.6-.577,1.212-.885,1.829l-1.429,2.346H504v-1.75c0-.7.065-1.744.1-2.425Zm0,0c-.269.6-.577,1.212-.885,1.829l-1.429,2.346H504v-1.75c0-.7.065-1.744.1-2.425Zm0,0c-.269.6-.577,1.212-.885,1.829l-1.429,2.346H504v-1.75c0-.7.065-1.744.1-2.425Zm-.216-4.995a8.3,8.3,0,1,0,8.3,8.3,8.311,8.311,0,0,0-8.3-8.3m3.762,11.083h-1.246v2.589H504V626.6h-4.687v-1.724l3.952-6.508h3.067v6.319h1.246Zm-4.431-4.26-1.429,2.346H504v-1.75c0-.7.065-1.744.1-2.425h-.072c-.269.6-.577,1.212-.885,1.829m.885-1.829c-.269.6-.577,1.212-.885,1.829l-1.429,2.346H504v-1.75c0-.7.065-1.744.1-2.425Zm0,0c-.269.6-.577,1.212-.885,1.829l-1.429,2.346H504v-1.75c0-.7.065-1.744.1-2.425Zm0,0c-.269.6-.577,1.212-.885,1.829l-1.429,2.346H504v-1.75c0-.7.065-1.744.1-2.425Zm0,0c-.269.6-.577,1.212-.885,1.829l-1.429,2.346H504v-1.75c0-.7.065-1.744.1-2.425Zm-.216-4.995a8.3,8.3,0,1,0,8.3,8.3,8.311,8.311,0,0,0-8.3-8.3m3.762,11.083h-1.246v2.589H504V626.6h-4.687v-1.724l3.952-6.508h3.067v6.319h1.246Zm-4.431-4.26-1.429,2.346H504v-1.75c0-.7.065-1.744.1-2.425h-.072c-.269.6-.577,1.212-.885,1.829m.669-6.823a8.3,8.3,0,1,0,8.3,8.3,8.311,8.311,0,0,0-8.3-8.3m3.762,11.083h-1.246v2.589H504V626.6h-4.687v-1.724l3.952-6.508h3.067v6.319h1.246Zm-4.431-4.26-1.429,2.346H504v-1.75c0-.7.065-1.744.1-2.425h-.072c-.269.6-.577,1.212-.885,1.829m.669-9.006a10.487,10.487,0,1,0,10.487,10.487,10.484,10.484,0,0,0-10.487-10.487m0,19.663A9.176,9.176,0,1,1,513,623.821,9.186,9.186,0,0,1,503.82,633m0-17.481a8.3,8.3,0,1,0,8.3,8.3,8.311,8.311,0,0,0-8.3-8.3m3.762,11.083h-1.246v2.589H504V626.6h-4.687v-1.724l3.952-6.508h3.067v6.319h1.246Zm-4.431-4.26-1.429,2.346H504v-1.75c0-.7.065-1.744.1-2.425h-.072c-.269.6-.577,1.212-.885,1.829m.885-1.829c-.269.6-.577,1.212-.885,1.829l-1.429,2.346H504v-1.75c0-.7.065-1.744.1-2.425Zm0,0c-.269.6-.577,1.212-.885,1.829l-1.429,2.346H504v-1.75c0-.7.065-1.744.1-2.425Zm-.216-4.995a8.3,8.3,0,1,0,8.3,8.3,8.311,8.311,0,0,0-8.3-8.3m3.762,11.083h-1.246v2.589H504V626.6h-4.687v-1.724l3.952-6.508h3.067v6.319h1.246Zm-4.431-4.26-1.429,2.346H504v-1.75c0-.7.065-1.744.1-2.425h-.072c-.269.6-.577,1.212-.885,1.829m.885-1.829c-.269.6-.577,1.212-.885,1.829l-1.429,2.346H504v-1.75c0-.7.065-1.744.1-2.425Zm0,0c-.269.6-.577,1.212-.885,1.829l-1.429,2.346H504v-1.75c0-.7.065-1.744.1-2.425Zm-.216-4.995a8.3,8.3,0,1,0,8.3,8.3,8.311,8.311,0,0,0-8.3-8.3m3.762,11.083h-1.246v2.589H504V626.6h-4.687v-1.724l3.952-6.508h3.067v6.319h1.246Zm-4.431-4.26-1.429,2.346H504v-1.75c0-.7.065-1.744.1-2.425h-.072c-.269.6-.577,1.212-.885,1.829m.885-1.829c-.269.6-.577,1.212-.885,1.829l-1.429,2.346H504v-1.75c0-.7.065-1.744.1-2.425Zm0,0c-.269.6-.577,1.212-.885,1.829l-1.429,2.346H504v-1.75c0-.7.065-1.744.1-2.425Zm0,0c-.269.6-.577,1.212-.885,1.829l-1.429,2.346H504v-1.75c0-.7.065-1.744.1-2.425Zm0,0c-.269.6-.577,1.212-.885,1.829l-1.429,2.346H504v-1.75c0-.7.065-1.744.1-2.425Zm0,0c-.269.6-.577,1.212-.885,1.829l-1.429,2.346H504v-1.75c0-.7.065-1.744.1-2.425Zm0,0c-.269.6-.577,1.212-.885,1.829l-1.429,2.346H504v-1.75c0-.7.065-1.744.1-2.425Zm-.216-4.995a8.3,8.3,0,1,0,8.3,8.3,8.311,8.311,0,0,0-8.3-8.3m3.762,11.083h-1.246v2.589H504V626.6h-4.687v-1.724l3.952-6.508h3.067v6.319h1.246Zm-4.431-4.26-1.429,2.346H504v-1.75c0-.7.065-1.744.1-2.425h-.072c-.269.6-.577,1.212-.885,1.829m.885-1.829c-.269.6-.577,1.212-.885,1.829l-1.429,2.346H504v-1.75c0-.7.065-1.744.1-2.425Zm0,0c-.269.6-.577,1.212-.885,1.829l-1.429,2.346H504v-1.75c0-.7.065-1.744.1-2.425Zm0,0c-.269.6-.577,1.212-.885,1.829l-1.429,2.346H504v-1.75c0-.7.065-1.744.1-2.425Zm0,0c-.269.6-.577,1.212-.885,1.829l-1.429,2.346H504v-1.75c0-.7.065-1.744.1-2.425Zm0,0c-.269.6-.577,1.212-.885,1.829l-1.429,2.346H504v-1.75c0-.7.065-1.744.1-2.425Zm0,0c-.269.6-.577,1.212-.885,1.829l-1.429,2.346H504v-1.75c0-.7.065-1.744.1-2.425Zm-.216-4.995a8.3,8.3,0,1,0,8.3,8.3,8.311,8.311,0,0,0-8.3-8.3m3.762,11.083h-1.246v2.589H504V626.6h-4.687v-1.724l3.952-6.508h3.067v6.319h1.246Zm-4.431-4.26-1.429,2.346H504v-1.75c0-.7.065-1.744.1-2.425h-.072c-.269.6-.577,1.212-.885,1.829m.885-1.829c-.269.6-.577,1.212-.885,1.829l-1.429,2.346H504v-1.75c0-.7.065-1.744.1-2.425Zm0,0c-.269.6-.577,1.212-.885,1.829l-1.429,2.346H504v-1.75c0-.7.065-1.744.1-2.425Zm0,0c-.269.6-.577,1.212-.885,1.829l-1.429,2.346H504v-1.75c0-.7.065-1.744.1-2.425Zm0,0c-.269.6-.577,1.212-.885,1.829l-1.429,2.346H504v-1.75c0-.7.065-1.744.1-2.425Zm0,0c-.269.6-.577,1.212-.885,1.829l-1.429,2.346H504v-1.75c0-.7.065-1.744.1-2.425Zm0,0c-.269.6-.577,1.212-.885,1.829l-1.429,2.346H504v-1.75c0-.7.065-1.744.1-2.425Zm-.216-4.995a8.3,8.3,0,1,0,8.3,8.3,8.311,8.311,0,0,0-8.3-8.3m3.762,11.083h-1.246v2.589H504V626.6h-4.687v-1.724l3.952-6.508h3.067v6.319h1.246Zm-4.431-4.26-1.429,2.346H504v-1.75c0-.7.065-1.744.1-2.425h-.072c-.269.6-.577,1.212-.885,1.829m.885-1.829c-.269.6-.577,1.212-.885,1.829l-1.429,2.346H504v-1.75c0-.7.065-1.744.1-2.425Zm0,0c-.269.6-.577,1.212-.885,1.829l-1.429,2.346H504v-1.75c0-.7.065-1.744.1-2.425Zm0,0c-.269.6-.577,1.212-.885,1.829l-1.429,2.346H504v-1.75c0-.7.065-1.744.1-2.425Zm0,0c-.269.6-.577,1.212-.885,1.829l-1.429,2.346H504v-1.75c0-.7.065-1.744.1-2.425Zm0,0c-.269.6-.577,1.212-.885,1.829l-1.429,2.346H504v-1.75c0-.7.065-1.744.1-2.425Zm0,0c-.269.6-.577,1.212-.885,1.829l-1.429,2.346H504v-1.75c0-.7.065-1.744.1-2.425Zm-.216-4.995a8.3,8.3,0,1,0,8.3,8.3,8.311,8.311,0,0,0-8.3-8.3m3.762,11.083h-1.246v2.589H504V626.6h-4.687v-1.724l3.952-6.508h3.067v6.319h1.246Zm-4.431-4.26-1.429,2.346H504v-1.75c0-.7.065-1.744.1-2.425h-.072c-.269.6-.577,1.212-.885,1.829m.885-1.829c-.269.6-.577,1.212-.885,1.829l-1.429,2.346H504v-1.75c0-.7.065-1.744.1-2.425Zm0,0c-.269.6-.577,1.212-.885,1.829l-1.429,2.346H504v-1.75c0-.7.065-1.744.1-2.425Zm0,0c-.269.6-.577,1.212-.885,1.829l-1.429,2.346H504v-1.75c0-.7.065-1.744.1-2.425Zm0,0c-.269.6-.577,1.212-.885,1.829l-1.429,2.346H504v-1.75c0-.7.065-1.744.1-2.425Zm0,0c-.269.6-.577,1.212-.885,1.829l-1.429,2.346H504v-1.75c0-.7.065-1.744.1-2.425Zm0,0c-.269.6-.577,1.212-.885,1.829l-1.429,2.346H504v-1.75c0-.7.065-1.744.1-2.425Zm-.216-4.995a8.3,8.3,0,1,0,8.3,8.3,8.311,8.311,0,0,0-8.3-8.3m3.762,11.083h-1.246v2.589H504V626.6h-4.687v-1.724l3.952-6.508h3.067v6.319h1.246Zm-4.431-4.26-1.429,2.346H504v-1.75c0-.7.065-1.744.1-2.425h-.072c-.269.6-.577,1.212-.885,1.829m.885-1.829c-.269.6-.577,1.212-.885,1.829l-1.429,2.346H504v-1.75c0-.7.065-1.744.1-2.425Zm0,0c-.269.6-.577,1.212-.885,1.829l-1.429,2.346H504v-1.75c0-.7.065-1.744.1-2.425Zm0,0c-.269.6-.577,1.212-.885,1.829l-1.429,2.346H504v-1.75c0-.7.065-1.744.1-2.425Zm0,0c-.269.6-.577,1.212-.885,1.829l-1.429,2.346H504v-1.75c0-.7.065-1.744.1-2.425Zm0,0c-.269.6-.577,1.212-.885,1.829l-1.429,2.346H504v-1.75c0-.7.065-1.744.1-2.425Zm0,0c-.269.6-.577,1.212-.885,1.829l-1.429,2.346H504v-1.75c0-.7.065-1.744.1-2.425Zm-.216-4.995a8.3,8.3,0,1,0,8.3,8.3,8.311,8.311,0,0,0-8.3-8.3m3.762,11.083h-1.246v2.589H504V626.6h-4.687v-1.724l3.952-6.508h3.067v6.319h1.246Zm-4.431-4.26-1.429,2.346H504v-1.75c0-.7.065-1.744.1-2.425h-.072c-.269.6-.577,1.212-.885,1.829m.885-1.829c-.269.6-.577,1.212-.885,1.829l-1.429,2.346H504v-1.75c0-.7.065-1.744.1-2.425Zm0,0c-.269.6-.577,1.212-.885,1.829l-1.429,2.346H504v-1.75c0-.7.065-1.744.1-2.425Zm0,0c-.269.6-.577,1.212-.885,1.829l-1.429,2.346H504v-1.75c0-.7.065-1.744.1-2.425Zm0,0c-.269.6-.577,1.212-.885,1.829l-1.429,2.346H504v-1.75c0-.7.065-1.744.1-2.425Zm0,0c-.269.6-.577,1.212-.885,1.829l-1.429,2.346H504v-1.75c0-.7.065-1.744.1-2.425Zm0,0c-.269.6-.577,1.212-.885,1.829l-1.429,2.346H504v-1.75c0-.7.065-1.744.1-2.425Zm-.216-4.995a8.3,8.3,0,1,0,8.3,8.3,8.311,8.311,0,0,0-8.3-8.3m3.762,11.083h-1.246v2.589H504V626.6h-4.687v-1.724l3.952-6.508h3.067v6.319h1.246Zm-4.431-4.26-1.429,2.346H504v-1.75c0-.7.065-1.744.1-2.425h-.072c-.269.6-.577,1.212-.885,1.829m.885-1.829c-.269.6-.577,1.212-.885,1.829l-1.429,2.346H504v-1.75c0-.7.065-1.744.1-2.425Zm0,0c-.269.6-.577,1.212-.885,1.829l-1.429,2.346H504v-1.75c0-.7.065-1.744.1-2.425Zm0,0c-.269.6-.577,1.212-.885,1.829l-1.429,2.346H504v-1.75c0-.7.065-1.744.1-2.425Zm0,0c-.269.6-.577,1.212-.885,1.829l-1.429,2.346H504v-1.75c0-.7.065-1.744.1-2.425Zm0,0c-.269.6-.577,1.212-.885,1.829l-1.429,2.346H504v-1.75c0-.7.065-1.744.1-2.425Zm0,0c-.269.6-.577,1.212-.885,1.829l-1.429,2.346H504v-1.75c0-.7.065-1.744.1-2.425Zm-.216-4.995a8.3,8.3,0,1,0,8.3,8.3,8.311,8.311,0,0,0-8.3-8.3m3.762,11.083h-1.246v2.589H504V626.6h-4.687v-1.724l3.952-6.508h3.067v6.319h1.246Zm-4.431-4.26-1.429,2.346H504v-1.75c0-.7.065-1.744.1-2.425h-.072c-.269.6-.577,1.212-.885,1.829m.885-1.829c-.269.6-.577,1.212-.885,1.829l-1.429,2.346H504v-1.75c0-.7.065-1.744.1-2.425Zm0,0c-.269.6-.577,1.212-.885,1.829l-1.429,2.346H504v-1.75c0-.7.065-1.744.1-2.425Z" transform="translate(-299.321 -372.129)" fill="#fff"/>
            <path id="Trazado_496896" data-name="Trazado 496896" d="M503.82,802.183a8.3,8.3,0,1,0,8.3,8.3,8.31,8.31,0,0,0-8.3-8.3m.039,13.876a5.138,5.138,0,0,1-3.821-1.515l1.128-1.586a3.486,3.486,0,0,0,2.333,1.075,1.609,1.609,0,0,0,1.822-1.691,1.558,1.558,0,0,0-1.7-1.672,2.546,2.546,0,0,0-1.6.551l-1.127-.721.308-5.466h6.135v2.111h-3.972l-.184,2.032a2.673,2.673,0,0,1,1.207-.262,3.173,3.173,0,0,1,3.447,3.363,3.738,3.738,0,0,1-3.972,3.782m-.039-13.876a8.3,8.3,0,1,0,8.3,8.3,8.31,8.31,0,0,0-8.3-8.3m.039,13.876a5.138,5.138,0,0,1-3.821-1.515l1.128-1.586a3.486,3.486,0,0,0,2.333,1.075,1.609,1.609,0,0,0,1.822-1.691,1.558,1.558,0,0,0-1.7-1.672,2.546,2.546,0,0,0-1.6.551l-1.127-.721.308-5.466h6.135v2.111h-3.972l-.184,2.032a2.673,2.673,0,0,1,1.207-.262,3.173,3.173,0,0,1,3.447,3.363,3.738,3.738,0,0,1-3.972,3.782m-.039-13.876a8.3,8.3,0,1,0,8.3,8.3,8.31,8.31,0,0,0-8.3-8.3m.039,13.876a5.138,5.138,0,0,1-3.821-1.515l1.128-1.586a3.486,3.486,0,0,0,2.333,1.075,1.609,1.609,0,0,0,1.822-1.691,1.558,1.558,0,0,0-1.7-1.672,2.546,2.546,0,0,0-1.6.551l-1.127-.721.308-5.466h6.135v2.111h-3.972l-.184,2.032a2.673,2.673,0,0,1,1.207-.262,3.173,3.173,0,0,1,3.447,3.363,3.738,3.738,0,0,1-3.972,3.782m-.039-13.876a8.3,8.3,0,1,0,8.3,8.3,8.31,8.31,0,0,0-8.3-8.3m.039,13.876a5.138,5.138,0,0,1-3.821-1.515l1.128-1.586a3.486,3.486,0,0,0,2.333,1.075,1.609,1.609,0,0,0,1.822-1.691,1.558,1.558,0,0,0-1.7-1.672,2.546,2.546,0,0,0-1.6.551l-1.127-.721.308-5.466h6.135v2.111h-3.972l-.184,2.032a2.673,2.673,0,0,1,1.207-.262,3.173,3.173,0,0,1,3.447,3.363,3.738,3.738,0,0,1-3.972,3.782m-.039-13.876a8.3,8.3,0,1,0,8.3,8.3,8.31,8.31,0,0,0-8.3-8.3m.039,13.876a5.138,5.138,0,0,1-3.821-1.515l1.128-1.586a3.486,3.486,0,0,0,2.333,1.075,1.609,1.609,0,0,0,1.822-1.691,1.558,1.558,0,0,0-1.7-1.672,2.546,2.546,0,0,0-1.6.551l-1.127-.721.308-5.466h6.135v2.111h-3.972l-.184,2.032a2.673,2.673,0,0,1,1.207-.262,3.173,3.173,0,0,1,3.447,3.363,3.738,3.738,0,0,1-3.972,3.782m-.039-13.876a8.3,8.3,0,1,0,8.3,8.3,8.31,8.31,0,0,0-8.3-8.3m.039,13.876a5.138,5.138,0,0,1-3.821-1.515l1.128-1.586a3.486,3.486,0,0,0,2.333,1.075,1.609,1.609,0,0,0,1.822-1.691,1.558,1.558,0,0,0-1.7-1.672,2.546,2.546,0,0,0-1.6.551l-1.127-.721.308-5.466h6.135v2.111h-3.972l-.184,2.032a2.673,2.673,0,0,1,1.207-.262,3.173,3.173,0,0,1,3.447,3.363,3.738,3.738,0,0,1-3.972,3.782m-.039-13.876a8.3,8.3,0,1,0,8.3,8.3,8.31,8.31,0,0,0-8.3-8.3m.039,13.876a5.138,5.138,0,0,1-3.821-1.515l1.128-1.586a3.486,3.486,0,0,0,2.333,1.075,1.609,1.609,0,0,0,1.822-1.691,1.558,1.558,0,0,0-1.7-1.672,2.546,2.546,0,0,0-1.6.551l-1.127-.721.308-5.466h6.135v2.111h-3.972l-.184,2.032a2.673,2.673,0,0,1,1.207-.262,3.173,3.173,0,0,1,3.447,3.363,3.738,3.738,0,0,1-3.972,3.782m-.039-13.876a8.3,8.3,0,1,0,8.3,8.3,8.31,8.31,0,0,0-8.3-8.3m.039,13.876a5.138,5.138,0,0,1-3.821-1.515l1.128-1.586a3.486,3.486,0,0,0,2.333,1.075,1.609,1.609,0,0,0,1.822-1.691,1.558,1.558,0,0,0-1.7-1.672,2.546,2.546,0,0,0-1.6.551l-1.127-.721.308-5.466h6.135v2.111h-3.972l-.184,2.032a2.673,2.673,0,0,1,1.207-.262,3.173,3.173,0,0,1,3.447,3.363,3.738,3.738,0,0,1-3.972,3.782m-.039-13.876a8.3,8.3,0,1,0,8.3,8.3,8.31,8.31,0,0,0-8.3-8.3m.039,13.876a5.138,5.138,0,0,1-3.821-1.515l1.128-1.586a3.486,3.486,0,0,0,2.333,1.075,1.609,1.609,0,0,0,1.822-1.691,1.558,1.558,0,0,0-1.7-1.672,2.546,2.546,0,0,0-1.6.551l-1.127-.721.308-5.466h6.135v2.111h-3.972l-.184,2.032a2.673,2.673,0,0,1,1.207-.262,3.173,3.173,0,0,1,3.447,3.363,3.738,3.738,0,0,1-3.972,3.782m-.039-13.876a8.3,8.3,0,1,0,8.3,8.3,8.31,8.31,0,0,0-8.3-8.3m.039,13.876a5.138,5.138,0,0,1-3.821-1.515l1.128-1.586a3.486,3.486,0,0,0,2.333,1.075,1.609,1.609,0,0,0,1.822-1.691,1.558,1.558,0,0,0-1.7-1.672,2.546,2.546,0,0,0-1.6.551l-1.127-.721.308-5.466h6.135v2.111h-3.972l-.184,2.032a2.673,2.673,0,0,1,1.207-.262,3.173,3.173,0,0,1,3.447,3.363,3.738,3.738,0,0,1-3.972,3.782m-.039-13.876a8.3,8.3,0,1,0,8.3,8.3,8.31,8.31,0,0,0-8.3-8.3m.039,13.876a5.138,5.138,0,0,1-3.821-1.515l1.128-1.586a3.486,3.486,0,0,0,2.333,1.075,1.609,1.609,0,0,0,1.822-1.691,1.558,1.558,0,0,0-1.7-1.672,2.546,2.546,0,0,0-1.6.551l-1.127-.721.308-5.466h6.135v2.111h-3.972l-.184,2.032a2.673,2.673,0,0,1,1.207-.262,3.173,3.173,0,0,1,3.447,3.363,3.738,3.738,0,0,1-3.972,3.782m-.039-13.876a8.3,8.3,0,1,0,8.3,8.3,8.31,8.31,0,0,0-8.3-8.3m.039,13.876a5.138,5.138,0,0,1-3.821-1.515l1.128-1.586a3.486,3.486,0,0,0,2.333,1.075,1.609,1.609,0,0,0,1.822-1.691,1.558,1.558,0,0,0-1.7-1.672,2.546,2.546,0,0,0-1.6.551l-1.127-.721.308-5.466h6.135v2.111h-3.972l-.184,2.032a2.673,2.673,0,0,1,1.207-.262,3.173,3.173,0,0,1,3.447,3.363,3.738,3.738,0,0,1-3.972,3.782M503.82,800a10.487,10.487,0,1,0,10.487,10.487A10.484,10.484,0,0,0,503.82,800m0,19.663A9.176,9.176,0,1,1,513,810.488a9.187,9.187,0,0,1-9.176,9.177m0-17.481a8.3,8.3,0,1,0,8.3,8.3,8.31,8.31,0,0,0-8.3-8.3m.039,13.876a5.138,5.138,0,0,1-3.821-1.515l1.128-1.586a3.486,3.486,0,0,0,2.333,1.075,1.609,1.609,0,0,0,1.822-1.691,1.558,1.558,0,0,0-1.7-1.672,2.546,2.546,0,0,0-1.6.551l-1.127-.721.308-5.466h6.135v2.111h-3.972l-.184,2.032a2.673,2.673,0,0,1,1.207-.262,3.173,3.173,0,0,1,3.447,3.363,3.738,3.738,0,0,1-3.972,3.782m-.039-13.876a8.3,8.3,0,1,0,8.3,8.3,8.31,8.31,0,0,0-8.3-8.3m.039,13.876a5.138,5.138,0,0,1-3.821-1.515l1.128-1.586a3.486,3.486,0,0,0,2.333,1.075,1.609,1.609,0,0,0,1.822-1.691,1.558,1.558,0,0,0-1.7-1.672,2.546,2.546,0,0,0-1.6.551l-1.127-.721.308-5.466h6.135v2.111h-3.972l-.184,2.032a2.673,2.673,0,0,1,1.207-.262,3.173,3.173,0,0,1,3.447,3.363,3.738,3.738,0,0,1-3.972,3.782m-.039-13.876a8.3,8.3,0,1,0,8.3,8.3,8.31,8.31,0,0,0-8.3-8.3m.039,13.876a5.138,5.138,0,0,1-3.821-1.515l1.128-1.586a3.486,3.486,0,0,0,2.333,1.075,1.609,1.609,0,0,0,1.822-1.691,1.558,1.558,0,0,0-1.7-1.672,2.546,2.546,0,0,0-1.6.551l-1.127-.721.308-5.466h6.135v2.111h-3.972l-.184,2.032a2.673,2.673,0,0,1,1.207-.262,3.173,3.173,0,0,1,3.447,3.363,3.738,3.738,0,0,1-3.972,3.782m-.039-13.876a8.3,8.3,0,1,0,8.3,8.3,8.31,8.31,0,0,0-8.3-8.3m.039,13.876a5.138,5.138,0,0,1-3.821-1.515l1.128-1.586a3.486,3.486,0,0,0,2.333,1.075,1.609,1.609,0,0,0,1.822-1.691,1.558,1.558,0,0,0-1.7-1.672,2.546,2.546,0,0,0-1.6.551l-1.127-.721.308-5.466h6.135v2.111h-3.972l-.184,2.032a2.673,2.673,0,0,1,1.207-.262,3.173,3.173,0,0,1,3.447,3.363,3.738,3.738,0,0,1-3.972,3.782m-.039-13.876a8.3,8.3,0,1,0,8.3,8.3,8.31,8.31,0,0,0-8.3-8.3m.039,13.876a5.138,5.138,0,0,1-3.821-1.515l1.128-1.586a3.486,3.486,0,0,0,2.333,1.075,1.609,1.609,0,0,0,1.822-1.691,1.558,1.558,0,0,0-1.7-1.672,2.546,2.546,0,0,0-1.6.551l-1.127-.721.308-5.466h6.135v2.111h-3.972l-.184,2.032a2.673,2.673,0,0,1,1.207-.262,3.173,3.173,0,0,1,3.447,3.363,3.738,3.738,0,0,1-3.972,3.782m-.039-13.876a8.3,8.3,0,1,0,8.3,8.3,8.31,8.31,0,0,0-8.3-8.3m.039,13.876a5.138,5.138,0,0,1-3.821-1.515l1.128-1.586a3.486,3.486,0,0,0,2.333,1.075,1.609,1.609,0,0,0,1.822-1.691,1.558,1.558,0,0,0-1.7-1.672,2.546,2.546,0,0,0-1.6.551l-1.127-.721.308-5.466h6.135v2.111h-3.972l-.184,2.032a2.673,2.673,0,0,1,1.207-.262,3.173,3.173,0,0,1,3.447,3.363,3.738,3.738,0,0,1-3.972,3.782m-.039-13.876a8.3,8.3,0,1,0,8.3,8.3,8.31,8.31,0,0,0-8.3-8.3m.039,13.876a5.138,5.138,0,0,1-3.821-1.515l1.128-1.586a3.486,3.486,0,0,0,2.333,1.075,1.609,1.609,0,0,0,1.822-1.691,1.558,1.558,0,0,0-1.7-1.672,2.546,2.546,0,0,0-1.6.551l-1.127-.721.308-5.466h6.135v2.111h-3.972l-.184,2.032a2.673,2.673,0,0,1,1.207-.262,3.173,3.173,0,0,1,3.447,3.363,3.738,3.738,0,0,1-3.972,3.782m-.039-13.876a8.3,8.3,0,1,0,8.3,8.3,8.31,8.31,0,0,0-8.3-8.3m.039,13.876a5.138,5.138,0,0,1-3.821-1.515l1.128-1.586a3.486,3.486,0,0,0,2.333,1.075,1.609,1.609,0,0,0,1.822-1.691,1.558,1.558,0,0,0-1.7-1.672,2.546,2.546,0,0,0-1.6.551l-1.127-.721.308-5.466h6.135v2.111h-3.972l-.184,2.032a2.673,2.673,0,0,1,1.207-.262,3.173,3.173,0,0,1,3.447,3.363,3.738,3.738,0,0,1-3.972,3.782m-.039-13.876a8.3,8.3,0,1,0,8.3,8.3,8.31,8.31,0,0,0-8.3-8.3m.039,13.876a5.138,5.138,0,0,1-3.821-1.515l1.128-1.586a3.486,3.486,0,0,0,2.333,1.075,1.609,1.609,0,0,0,1.822-1.691,1.558,1.558,0,0,0-1.7-1.672,2.546,2.546,0,0,0-1.6.551l-1.127-.721.308-5.466h6.135v2.111h-3.972l-.184,2.032a2.673,2.673,0,0,1,1.207-.262,3.173,3.173,0,0,1,3.447,3.363,3.738,3.738,0,0,1-3.972,3.782m-.039-13.876a8.3,8.3,0,1,0,8.3,8.3,8.31,8.31,0,0,0-8.3-8.3m.039,13.876a5.138,5.138,0,0,1-3.821-1.515l1.128-1.586a3.486,3.486,0,0,0,2.333,1.075,1.609,1.609,0,0,0,1.822-1.691,1.558,1.558,0,0,0-1.7-1.672,2.546,2.546,0,0,0-1.6.551l-1.127-.721.308-5.466h6.135v2.111h-3.972l-.184,2.032a2.673,2.673,0,0,1,1.207-.262,3.173,3.173,0,0,1,3.447,3.363,3.738,3.738,0,0,1-3.972,3.782m-.039-13.876a8.3,8.3,0,1,0,8.3,8.3,8.31,8.31,0,0,0-8.3-8.3m.039,13.876a5.138,5.138,0,0,1-3.821-1.515l1.128-1.586a3.486,3.486,0,0,0,2.333,1.075,1.609,1.609,0,0,0,1.822-1.691,1.558,1.558,0,0,0-1.7-1.672,2.546,2.546,0,0,0-1.6.551l-1.127-.721.308-5.466h6.135v2.111h-3.972l-.184,2.032a2.673,2.673,0,0,1,1.207-.262,3.173,3.173,0,0,1,3.447,3.363,3.738,3.738,0,0,1-3.972,3.782" transform="translate(-299.321 -485.386)" fill="#fff"/>
            <g id="Grupo_731934" data-name="Grupo 731934" transform="translate(167.795)" opacity="0.5" style="mix-blend-mode: screen;isolation: isolate">
              <g id="Grupo_731933" data-name="Grupo 731933">
                <g id="Grupo_731932" data-name="Grupo 731932" clip-path="url(#clip-path-17)">
                  <path id="Trazado_496897" data-name="Trazado 496897" d="M426.667,62.923h36.7V0Z" transform="translate(-426.667 0)" fill="#63c5bc"/>
                </g>
              </g>
            </g>
            <g id="Grupo_731937" data-name="Grupo 731937" transform="translate(126.311 73.41)" opacity="0.5" style="mix-blend-mode: screen;isolation: isolate">
              <g id="Grupo_731936" data-name="Grupo 731936">
                <g id="Grupo_731935" data-name="Grupo 731935" clip-path="url(#clip-path-18)">
                  <path id="Trazado_496898" data-name="Trazado 496898" d="M321.183,249.59l36.082-62.923h42.106V249.59Z" transform="translate(-321.183 -186.667)" fill="#d98143"/>
                </g>
              </g>
            </g>
            <g id="Grupo_731940" data-name="Grupo 731940" transform="translate(84.946 146.82)" opacity="0.5" style="mix-blend-mode: screen;isolation: isolate">
              <g id="Grupo_731939" data-name="Grupo 731939">
                <g id="Grupo_731938" data-name="Grupo 731938" clip-path="url(#clip-path-19)">
                  <path id="Trazado_496899" data-name="Trazado 496899" d="M252.089,373.334h84.205v62.923H216Z" transform="translate(-216 -373.334)" fill="#dd8c6e"/>
                </g>
              </g>
            </g>
            <g id="Grupo_731943" data-name="Grupo 731943" transform="translate(42.106 220.23)" opacity="0.5" style="mix-blend-mode: screen;isolation: isolate">
              <g id="Grupo_731942" data-name="Grupo 731942">
                <g id="Grupo_731941" data-name="Grupo 731941" clip-path="url(#clip-path-20)">
                  <path id="Trazado_496900" data-name="Trazado 496900" d="M143.149,560H269.46v62.923H107.067Z" transform="translate(-107.067 -560)" fill="#0f546e"/>
                </g>
              </g>
            </g>
            <g id="Grupo_731946" data-name="Grupo 731946" transform="translate(0 293.64)" opacity="0.5" style="mix-blend-mode: screen;isolation: isolate">
              <g id="Grupo_731945" data-name="Grupo 731945">
                <g id="Grupo_731944" data-name="Grupo 731944" clip-path="url(#clip-path-21)">
                  <path id="Trazado_496901" data-name="Trazado 496901" d="M36.089,746.667H204.5V809.59H0Z" transform="translate(0 -746.667)" fill="#0f546e"/>
                </g>
              </g>
            </g>
          </g>
        </g>
      </g>
    </g>
    <g id="Grupo_731950" data-name="Grupo 731950" transform="translate(0 730.674)">
      <path id="Trazado_496845" data-name="Trazado 496845" d="M1221.829,22.459a9.537,9.537,0,1,1,9.537-9.537,9.548,9.548,0,0,1-9.537,9.537m0-17.459a7.922,7.922,0,1,0,7.922,7.922A7.931,7.931,0,0,0,1221.829,5" transform="translate(-299.329 6345.287)" fill="#414042"/>
      <path id="Trazado_496846" data-name="Trazado 496846" d="M1233.284,18.87a5.508,5.508,0,1,0-5.508,5.508,5.508,5.508,0,0,0,5.508-5.508" transform="translate(-305.277 6339.339)" fill="#fb0"/>
    </g>
  </g>
</svg>
