<svg xmlns="http://www.w3.org/2000/svg" xmlns:xlink="http://www.w3.org/1999/xlink" width="675.019" height="611.561" viewBox="0 0 675.019 611.561">
  <defs>
    <filter id="Rectángulo_39553" x="39.03" y="0" width="181.633" height="65.389" filterUnits="userSpaceOnUse">
      <feOffset dy="3" input="SourceAlpha"/>
      <feGaussianBlur stdDeviation="3" result="blur"/>
      <feFlood flood-opacity="0.161"/>
      <feComposite operator="in" in2="blur"/>
      <feComposite in="SourceGraphic"/>
    </filter>
    <filter id="Rectángulo_39553-2" x="206.87" y="178.449" width="155.736" height="59.874" filterUnits="userSpaceOnUse">
      <feOffset dy="3" input="SourceAlpha"/>
      <feGaussianBlur stdDeviation="3" result="blur-2"/>
      <feFlood flood-opacity="0.161"/>
      <feComposite operator="in" in2="blur-2"/>
      <feComposite in="SourceGraphic"/>
    </filter>
    <filter id="Rectángulo_39553-3" x="47.528" y="248.33" width="181.633" height="71.338" filterUnits="userSpaceOnUse">
      <feOffset dy="3" input="SourceAlpha"/>
      <feGaussianBlur stdDeviation="3" result="blur-3"/>
      <feFlood flood-opacity="0.161"/>
      <feComposite operator="in" in2="blur-3"/>
      <feComposite in="SourceGraphic"/>
    </filter>
    <filter id="Rectángulo_39553-4" x="25.434" y="430.787" width="241.864" height="180.773" filterUnits="userSpaceOnUse">
      <feOffset dy="3" input="SourceAlpha"/>
      <feGaussianBlur stdDeviation="3" result="blur-4"/>
      <feFlood flood-opacity="0.161"/>
      <feComposite operator="in" in2="blur-4"/>
      <feComposite in="SourceGraphic"/>
    </filter>
    <filter id="Rectángulo_39553-5" x="0" y="328.727" width="303.15" height="81.329" filterUnits="userSpaceOnUse">
      <feOffset dy="3" input="SourceAlpha"/>
      <feGaussianBlur stdDeviation="3" result="blur-5"/>
      <feFlood flood-opacity="0.161"/>
      <feComposite operator="in" in2="blur-5"/>
      <feComposite in="SourceGraphic"/>
    </filter>
    <filter id="Rectángulo_39553-6" x="405.8" y="0.469" width="243.562" height="65.389" filterUnits="userSpaceOnUse">
      <feOffset dy="3" input="SourceAlpha"/>
      <feGaussianBlur stdDeviation="3" result="blur-6"/>
      <feFlood flood-opacity="0.161"/>
      <feComposite operator="in" in2="blur-6"/>
      <feComposite in="SourceGraphic"/>
    </filter>
    <filter id="Rectángulo_39553-7" x="406.03" y="78.928" width="237.828" height="76.93" filterUnits="userSpaceOnUse">
      <feOffset dy="3" input="SourceAlpha"/>
      <feGaussianBlur stdDeviation="3" result="blur-7"/>
      <feFlood flood-opacity="0.161"/>
      <feComposite operator="in" in2="blur-7"/>
      <feComposite in="SourceGraphic"/>
    </filter>
    <filter id="Rectángulo_39553-8" x="19.03" y="73.178" width="221.28" height="96.577" filterUnits="userSpaceOnUse">
      <feOffset dy="3" input="SourceAlpha"/>
      <feGaussianBlur stdDeviation="3" result="blur-8"/>
      <feFlood flood-opacity="0.161"/>
      <feComposite operator="in" in2="blur-8"/>
      <feComposite in="SourceGraphic"/>
    </filter>
    <filter id="Elipse_6647" x="180.823" y="390.789" width="138" height="138" filterUnits="userSpaceOnUse">
      <feOffset dy="3" input="SourceAlpha"/>
      <feGaussianBlur stdDeviation="8" result="blur-9"/>
      <feFlood flood-opacity="0.161"/>
      <feComposite operator="in" in2="blur-9"/>
      <feComposite in="SourceGraphic"/>
    </filter>
    <filter id="Rectángulo_39553-9" x="422.03" y="479.279" width="237.828" height="86.534" filterUnits="userSpaceOnUse">
      <feOffset dy="3" input="SourceAlpha"/>
      <feGaussianBlur stdDeviation="3" result="blur-10"/>
      <feFlood flood-opacity="0.161"/>
      <feComposite operator="in" in2="blur-10"/>
      <feComposite in="SourceGraphic"/>
    </filter>
    <filter id="Rectángulo_39553-10" x="406.03" y="189.805" width="268.989" height="255.221" filterUnits="userSpaceOnUse">
      <feOffset dy="3" input="SourceAlpha"/>
      <feGaussianBlur stdDeviation="3" result="blur-11"/>
      <feFlood flood-opacity="0.161"/>
      <feComposite operator="in" in2="blur-11"/>
      <feComposite in="SourceGraphic"/>
    </filter>
  </defs>
  <g id="Grupo_746456" data-name="Grupo 746456" transform="translate(-464.408 -16866.211)">
    <g transform="matrix(1, 0, 0, 1, 464.41, 16866.21)" filter="url(#Rectángulo_39553)">
      <rect id="Rectángulo_39553-11" data-name="Rectángulo 39553" width="163.633" height="47.389" transform="translate(48.03 6)" fill="#fffbf2"/>
    </g>
    <path id="Trazado_190099" data-name="Trazado 190099" d="M164.269,7.477V48.034H16.151L2.268,42.56V1.929h148.12L164.269,7.4Zm-.91,40.2V7.552L150.012,2.288H3.179V42.411l13.348,5.263Z" transform="translate(505.963 16866.143)" fill="#fffbf2" stroke="#fdda88" stroke-width="2"/>
    <g transform="matrix(1, 0, 0, 1, 464.41, 16866.21)" filter="url(#Rectángulo_39553-2)">
      <rect id="Rectángulo_39553-12" data-name="Rectángulo 39553" width="137.736" height="41.873" transform="translate(215.87 184.45)" fill="#fffbf2"/>
    </g>
    <path id="Trazado_190099-2" data-name="Trazado 190099" d="M138.372,6.813v35.7H13.932L2.268,37.7V1.929H126.711l11.662,4.819ZM137.608,42.2V6.879L126.394,2.245H3.033V37.568L14.247,42.2Z" transform="translate(673.803 17044.592)" fill="#fffbf2" stroke="#fdda88" stroke-width="2"/>
    <g transform="matrix(1, 0, 0, 1, 464.41, 16866.21)" filter="url(#Rectángulo_39553-3)">
      <rect id="Rectángulo_39553-13" data-name="Rectángulo 39553" width="163.633" height="53.338" transform="translate(56.53 254.33)" fill="#fffbf2"/>
    </g>
    <path id="Trazado_190099-3" data-name="Trazado 190099" d="M164.269,8.193v45.79H16.151L2.268,47.8V1.929h148.12l13.881,6.18Zm-.91,45.385V8.277L150.012,2.334H3.179v45.3l13.348,5.943Z" transform="translate(514.461 17114.473)" fill="#fffbf2" stroke="#fdda88" stroke-width="2"/>
    <g transform="matrix(1, 0, 0, 1, 464.41, 16866.21)" filter="url(#Rectángulo_39553-4)">
      <rect id="Rectángulo_39553-14" data-name="Rectángulo 39553" width="223.864" height="162.773" transform="translate(34.43 436.79)" fill="#fffbf2"/>
    </g>
    <path id="Trazado_190099-4" data-name="Trazado 190099" d="M223.724,21.362V163.418H21.246L2.268,144.245V1.929H204.749L223.724,21.1Zm-1.244,140.8V21.623L204.234,3.186H3.513V143.725l18.246,18.436Z" transform="translate(492.366 17296.93)" fill="#fffbf2" stroke="#fdda88" stroke-width="2"/>
    <g transform="matrix(1, 0, 0, 1, 464.41, 16866.21)" filter="url(#Rectángulo_39553-5)">
      <rect id="Rectángulo_39553-15" data-name="Rectángulo 39553" width="285.15" height="63.328" transform="translate(9 334.73)" fill="#fffbf2"/>
    </g>
    <path id="Trazado_190099-5" data-name="Trazado 190099" d="M285.709,9.388V63.912H26.558L2.268,56.553V1.929H261.423l24.286,7.359Zm-1.592,54.042V9.488L260.764,2.411H3.862V56.353l23.353,7.076Z" transform="translate(466.732 17194.672)" fill="#fffbf2" stroke="#fdda88" stroke-width="2"/>
    <g transform="matrix(1, 0, 0, 1, 464.41, 16866.21)" filter="url(#Rectángulo_39553-6)">
      <rect id="Rectángulo_39553-16" data-name="Rectángulo 39553" width="225.562" height="47.389" transform="translate(414.8 6.47)" fill="#fffbf2"/>
    </g>
    <path id="Trazado_190099-6" data-name="Trazado 190099" d="M226.2,7.477V48.034H21.458L2.268,42.56V1.929H207.011L226.2,7.4Zm-1.258,40.2V7.552l-18.45-5.264H3.527V42.411l18.45,5.263Z" transform="translate(872.733 16866.611)" fill="#fffbf2" stroke="#fdda88" stroke-width="2"/>
    <g transform="matrix(1, 0, 0, 1, 464.41, 16866.21)" filter="url(#Rectángulo_39553-7)">
      <rect id="Rectángulo_39553-17" data-name="Rectángulo 39553" width="219.828" height="58.93" transform="translate(415.03 84.93)" fill="#fffbf2"/>
    </g>
    <path id="Trazado_190099-7" data-name="Trazado 190099" d="M220.464,8.866V59.575H20.966l-18.7-6.844V1.929h199.5l18.7,6.844Zm-1.226,50.26V8.959L201.261,2.378H3.495V52.545l17.978,6.581Z" transform="translate(872.963 16945.07)" fill="#35b5d5" stroke="#fdda88" stroke-width="2"/>
    <g transform="matrix(1, 0, 0, 1, 464.41, 16866.21)" filter="url(#Rectángulo_39553-8)">
      <rect id="Rectángulo_39553-18" data-name="Rectángulo 39553" width="203.28" height="78.577" transform="translate(28.03 79.18)" fill="#fffbf2"/>
    </g>
    <path id="Trazado_190099-8" data-name="Trazado 190099" d="M203.916,11.23V79.222H19.548L2.268,70.045V1.929h184.37l17.278,9.176Zm-1.133,67.39V11.355L186.169,2.531H3.4V69.8L20.016,78.62Z" transform="translate(485.963 16939.32)" fill="#fffbf2" stroke="#fdda88" stroke-width="2"/>
    <text id="Oferta_turística_" data-name="Oferta turística
" transform="translate(538.231 16881)" fill="#12263f" font-size="16" font-family="Roboto-Regular, Roboto"><tspan x="0" y="17">Oferta turística</tspan></text>
    <text id="Producto_" data-name="Producto
" transform="translate(955.001 16881)" fill="#12263f" font-size="16" font-family="Roboto-Regular, Roboto"><tspan x="0" y="17">Producto</tspan></text>
    <text id="Satisface_el_consumo_de_actividades_turísticas_" data-name="Satisface el consumo de actividades turísticas
" transform="translate(896.231 16955)" fill="#12263f" font-size="16" font-family="Roboto-Regular, Roboto"><tspan x="0" y="17">Satisface el consumo de </tspan><tspan x="0" y="41">actividades turísticas</tspan></text>
    <text id="Superestructura" transform="translate(687.575 17057.877)" fill="#12263f" font-size="16" font-family="Roboto-Regular, Roboto"><tspan x="0" y="17">Superestructura</tspan></text>
    <text id="Patrimonio_turístico_" data-name="Patrimonio turístico =
" transform="translate(512.231 17308.352)" fill="#12263f" font-size="16" font-family="Roboto-Regular, Roboto"><tspan x="0" y="17">Patrimonio turístico =</tspan></text>
    <text id="Donde:_A:_atractivo_turístico_P:_planta_turística_I:_infraestructura_A:_superestructura_" data-name="Donde:
A: atractivo turístico
P: planta turística
I: infraestructura
A: superestructura
" transform="translate(512.231 17337.352)" fill="#12263f" font-size="16" font-family="Roboto-Regular, Roboto"><tspan x="0" y="17">Donde:</tspan><tspan x="0" y="41">A: atractivo turístico</tspan><tspan x="0" y="65">P: planta turística</tspan><tspan x="0" y="89">I: infraestructura</tspan><tspan x="0" y="113">A: superestructura</tspan></text>
    <text id="Demanda_Turística_" data-name="Demanda Turística
" transform="translate(527.9 17135.402)" fill="#12263f" font-size="16" font-family="Roboto-Regular, Roboto"><tspan x="0" y="17">Demanda Turística</tspan></text>
    <text id="Venta_" data-name="Venta
" transform="translate(546 17054.74)" fill="#12263f" font-size="16" font-family="Roboto-Italic, Roboto" font-style="italic"><tspan x="0" y="17">Venta</tspan></text>
    <text id="Servicios_solicitados_efectivamente_por_el_consumidor_" data-name="Servicios solicitados efectivamente por el consumidor
" transform="translate(479.9 17205.547)" fill="#12263f" font-size="16" font-family="Roboto-Regular, Roboto"><tspan x="1.267" y="17">Servicios solicitados efectivamente </tspan><tspan x="62.833" y="41">por el consumidor</tspan></text>
    <text id="Bienes_y_servicios_puestos_efectivamente_en_el_mercado_" data-name="Bienes y servicios puestos
efectivamente en el mercado
" transform="translate(490.231 16947.25)" fill="#12263f" font-size="16" font-family="Roboto-Regular, Roboto"><tspan x="8.034" y="17">Bienes y servicios puestos</tspan><tspan x="32.484" y="41">efectivamente en el </tspan><tspan x="70.46" y="65">mercado</tspan></text>
    <path id="Trazado_504159" data-name="Trazado 504159" d="M-7630.513,5144.8h152.921" transform="translate(8326.231 11746)" fill="none" stroke="#93b0d0" stroke-width="4"/>
    <g id="Polígono_47" data-name="Polígono 47" transform="translate(857.166 16880.768) rotate(90)" fill="#f3f9ff">
      <path d="M 17.51792907714844 17.49999809265137 L 3.482079029083252 17.49999809265137 C 2.938399076461792 17.49999809265137 2.452149152755737 17.21853828430176 2.181359052658081 16.74708938598633 C 1.910579085350037 16.27563858032227 1.912459015846252 15.7138090133667 2.186408996582031 15.2441987991333 L 9.204329490661621 3.213468790054321 C 9.47615909576416 2.747478723526001 9.960518836975098 2.469268798828125 10.49999904632568 2.469268798828125 C 11.03947925567627 2.469268798828125 11.52383899688721 2.747478723526001 11.79566860198975 3.213468790054321 L 18.81358909606934 15.2441987991333 C 19.08753967285156 15.7138090133667 19.08941841125488 16.27563858032227 18.81863975524902 16.74708938598633 C 18.54785919189453 17.21853828430176 18.06160926818848 17.49999809265137 17.51792907714844 17.49999809265137 Z" stroke="none"/>
      <path d="M 10.49999904632568 2.969268798828125 C 10.32729911804199 2.969268798828125 9.897429466247559 3.017608642578125 9.636219024658203 3.465398788452148 L 2.61829948425293 15.49612808227539 C 2.355049133300781 15.9473991394043 2.528249740600586 16.34713935852051 2.61492919921875 16.4980583190918 C 2.701608657836914 16.64897918701172 2.959629058837891 16.99999809265137 3.482078552246094 16.99999809265137 L 17.51792907714844 16.99999809265137 C 18.04036903381348 16.99999809265137 18.29838943481445 16.64897918701172 18.38506889343262 16.4980583190918 C 18.47174835205078 16.34713935852051 18.64494895935059 15.9473991394043 18.38169860839844 15.49612808227539 L 11.36377906799316 3.465398788452148 C 11.10256862640381 3.017608642578125 10.67269897460938 2.969268798828125 10.49999904632568 2.969268798828125 M 10.49999904632568 1.969270706176758 C 11.17083930969238 1.969270706176758 11.84167861938477 2.300024032592773 12.22755908966064 2.961528778076172 L 19.24547958374023 14.99225807189941 C 20.02324867248535 16.32556915283203 19.06150817871094 17.99999809265137 17.51792907714844 17.99999809265137 L 3.482078552246094 17.99999809265137 C 1.93848991394043 17.99999809265137 0.9767494201660156 16.32556915283203 1.754518508911133 14.99225807189941 L 8.772439002990723 2.961528778076172 C 9.158319473266602 2.300024032592773 9.829158782958984 1.969270706176758 10.49999904632568 1.969270706176758 Z" stroke="none" fill="#93b0d0"/>
    </g>
    <g id="Trazado_504161" data-name="Trazado 504161" transform="translate(687.285 16901.768) rotate(-90)" fill="#f3f9ff">
      <path d="M 17.51792907714844 17.49999809265137 L 3.482079029083252 17.49999809265137 C 2.938399076461792 17.49999809265137 2.452149152755737 17.21853828430176 2.181359052658081 16.74708938598633 C 1.910579085350037 16.27563858032227 1.912459015846252 15.7138090133667 2.186408996582031 15.2441987991333 L 9.204329490661621 3.213468790054321 C 9.47615909576416 2.747478723526001 9.960518836975098 2.469268798828125 10.49999904632568 2.469268798828125 C 11.03947925567627 2.469268798828125 11.52383899688721 2.747478723526001 11.79566860198975 3.213468790054321 L 18.81358909606934 15.2441987991333 C 19.08753967285156 15.7138090133667 19.08941841125488 16.27563858032227 18.81863975524902 16.74708938598633 C 18.54785919189453 17.21853828430176 18.06160926818848 17.49999809265137 17.51792907714844 17.49999809265137 Z" stroke="none"/>
      <path d="M 10.49999904632568 2.969268798828125 C 10.32729911804199 2.969268798828125 9.897429466247559 3.017608642578125 9.636219024658203 3.465398788452148 L 2.61829948425293 15.49612808227539 C 2.355049133300781 15.9473991394043 2.528249740600586 16.34713935852051 2.61492919921875 16.4980583190918 C 2.701608657836914 16.64897918701172 2.959629058837891 16.99999809265137 3.482078552246094 16.99999809265137 L 17.51792907714844 16.99999809265137 C 18.04036903381348 16.99999809265137 18.29838943481445 16.64897918701172 18.38506889343262 16.4980583190918 C 18.47174835205078 16.34713935852051 18.64494895935059 15.9473991394043 18.38169860839844 15.49612808227539 L 11.36377906799316 3.465398788452148 C 11.10256862640381 3.017608642578125 10.67269897460938 2.969268798828125 10.49999904632568 2.969268798828125 M 10.49999904632568 1.969270706176758 C 11.17083930969238 1.969270706176758 11.84167861938477 2.300024032592773 12.22755908966064 2.961528778076172 L 19.24547958374023 14.99225807189941 C 20.02324867248535 16.32556915283203 19.06150817871094 17.99999809265137 17.51792907714844 17.99999809265137 L 3.482078552246094 17.99999809265137 C 1.93848991394043 17.99999809265137 0.9767494201660156 16.32556915283203 1.754518508911133 14.99225807189941 L 8.772439002990723 2.961528778076172 C 9.158319473266602 2.300024032592773 9.829158782958984 1.969270706176758 10.49999904632568 1.969270706176758 Z" stroke="none" fill="#93b0d0"/>
    </g>
    <path id="Trazado_504159-2" data-name="Trazado 504159" d="M-7630.512,5144.8h70.425" transform="translate(5741.53 24665.309) rotate(90)" fill="none" stroke="#93b0d0" stroke-width="4"/>
    <g id="Polígono_47-2" data-name="Polígono 47" transform="translate(607.23 17113.748) rotate(180)" fill="#f3f9ff">
      <path d="M 17.51792907714844 17.49999809265137 L 3.482079029083252 17.49999809265137 C 2.938399076461792 17.49999809265137 2.452149152755737 17.21853828430176 2.181359052658081 16.74708938598633 C 1.910579085350037 16.27563858032227 1.912459015846252 15.7138090133667 2.186408996582031 15.2441987991333 L 9.204329490661621 3.213468790054321 C 9.47615909576416 2.747478723526001 9.960518836975098 2.469268798828125 10.49999904632568 2.469268798828125 C 11.03947925567627 2.469268798828125 11.52383899688721 2.747478723526001 11.79566860198975 3.213468790054321 L 18.81358909606934 15.2441987991333 C 19.08753967285156 15.7138090133667 19.08941841125488 16.27563858032227 18.81863975524902 16.74708938598633 C 18.54785919189453 17.21853828430176 18.06160926818848 17.49999809265137 17.51792907714844 17.49999809265137 Z" stroke="none"/>
      <path d="M 10.49999904632568 2.969268798828125 C 10.32729911804199 2.969268798828125 9.897429466247559 3.017608642578125 9.636219024658203 3.465398788452148 L 2.61829948425293 15.49612808227539 C 2.355049133300781 15.9473991394043 2.528249740600586 16.34713935852051 2.61492919921875 16.4980583190918 C 2.701608657836914 16.64897918701172 2.959629058837891 16.99999809265137 3.482078552246094 16.99999809265137 L 17.51792907714844 16.99999809265137 C 18.04036903381348 16.99999809265137 18.29838943481445 16.64897918701172 18.38506889343262 16.4980583190918 C 18.47174835205078 16.34713935852051 18.64494895935059 15.9473991394043 18.38169860839844 15.49612808227539 L 11.36377906799316 3.465398788452148 C 11.10256862640381 3.017608642578125 10.67269897460938 2.969268798828125 10.49999904632568 2.969268798828125 M 10.49999904632568 1.969270706176758 C 11.17083930969238 1.969270706176758 11.84167861938477 2.300024032592773 12.22755908966064 2.961528778076172 L 19.24547958374023 14.99225807189941 C 20.02324867248535 16.32556915283203 19.06150817871094 17.99999809265137 17.51792907714844 17.99999809265137 L 3.482078552246094 17.99999809265137 C 1.93848991394043 17.99999809265137 0.9767494201660156 16.32556915283203 1.754518508911133 14.99225807189941 L 8.772439002990723 2.961528778076172 C 9.158319473266602 2.300024032592773 9.829158782958984 1.969270706176758 10.49999904632568 1.969270706176758 Z" stroke="none" fill="#93b0d0"/>
    </g>
    <g id="Grupo_741132" data-name="Grupo 741132" transform="translate(-9298.078 3453.9) rotate(-34)">
      <path id="Trazado_504159-3" data-name="Trazado 504159" d="M-7592.025,5182.159l122.835-37.359" transform="translate(8346 11700)" fill="none" stroke="#93b0d0" stroke-width="4"/>
    </g>
    <g id="Trazado_504160" data-name="Trazado 504160" transform="translate(769.228 17041.83) rotate(-141)" fill="#f3f9ff">
      <path d="M 17.51792907714844 17.49999809265137 L 3.482079029083252 17.49999809265137 C 2.938399076461792 17.49999809265137 2.452149152755737 17.21853828430176 2.181359052658081 16.74708938598633 C 1.910579085350037 16.27563858032227 1.912459015846252 15.7138090133667 2.186408996582031 15.2441987991333 L 9.204329490661621 3.213468790054321 C 9.47615909576416 2.747478723526001 9.960518836975098 2.469268798828125 10.49999904632568 2.469268798828125 C 11.03947925567627 2.469268798828125 11.52383899688721 2.747478723526001 11.79566860198975 3.213468790054321 L 18.81358909606934 15.2441987991333 C 19.08753967285156 15.7138090133667 19.08941841125488 16.27563858032227 18.81863975524902 16.74708938598633 C 18.54785919189453 17.21853828430176 18.06160926818848 17.49999809265137 17.51792907714844 17.49999809265137 Z" stroke="none"/>
      <path d="M 10.49999904632568 2.969268798828125 C 10.32729911804199 2.969268798828125 9.897429466247559 3.017608642578125 9.636219024658203 3.465398788452148 L 2.61829948425293 15.49612808227539 C 2.355049133300781 15.9473991394043 2.528249740600586 16.34713935852051 2.61492919921875 16.4980583190918 C 2.701608657836914 16.64897918701172 2.959629058837891 16.99999809265137 3.482078552246094 16.99999809265137 L 17.51792907714844 16.99999809265137 C 18.04036903381348 16.99999809265137 18.29838943481445 16.64897918701172 18.38506889343262 16.4980583190918 C 18.47174835205078 16.34713935852051 18.64494895935059 15.9473991394043 18.38169860839844 15.49612808227539 L 11.36377906799316 3.465398788452148 C 11.10256862640381 3.017608642578125 10.67269897460938 2.969268798828125 10.49999904632568 2.969268798828125 M 10.49999904632568 1.969270706176758 C 11.17083930969238 1.969270706176758 11.84167861938477 2.300024032592773 12.22755908966064 2.961528778076172 L 19.24547958374023 14.99225807189941 C 20.02324867248535 16.32556915283203 19.06150817871094 17.99999809265137 17.51792907714844 17.99999809265137 L 3.482078552246094 17.99999809265137 C 1.93848991394043 17.99999809265137 0.9767494201660156 16.32556915283203 1.754518508911133 14.99225807189941 L 8.772439002990723 2.961528778076172 C 9.158319473266602 2.300024032592773 9.829158782958984 1.969270706176758 10.49999904632568 1.969270706176758 Z" stroke="none" fill="#93b0d0"/>
    </g>
    <g id="Trazado_508951" data-name="Trazado 508951" transform="translate(849.235 16910.627) rotate(39)" fill="#f3f9ff">
      <path d="M 17.51795768737793 17.50016212463379 L 3.482058525085449 17.50016212463379 C 2.938378572463989 17.50016212463379 2.452138662338257 17.21870040893555 2.181348562240601 16.74726104736328 C 1.910558581352234 16.27581214904785 1.912448525428772 15.71398162841797 2.186388492584229 15.24435138702393 L 9.204339027404785 3.213491201400757 C 9.476168632507324 2.747501134872437 9.960528373718262 2.469301223754883 10.50000858306885 2.469301223754883 C 11.03948879241943 2.469301223754883 11.52384853363037 2.747501134872437 11.79567813873291 3.213491201400757 L 18.81362915039062 15.24435138702393 C 19.08756828308105 15.71398162841797 19.08945846557617 16.27581214904785 18.81866836547852 16.74726104736328 C 18.54787826538086 17.21870040893555 18.06163787841797 17.50016212463379 17.51795768737793 17.50016212463379 Z" stroke="none"/>
      <path d="M 10.50000858306885 2.969291687011719 C 10.32730865478516 2.969291687011719 9.897439002990723 3.017631530761719 9.636228561401367 3.465431213378906 L 2.618278503417969 15.4962911605835 C 2.355037689208984 15.94757080078125 2.528238296508789 16.34731101989746 2.614917755126953 16.49823188781738 C 2.70159912109375 16.64914131164551 2.959619522094727 17.00016021728516 3.482059478759766 17.00016021728516 L 17.51795959472656 17.00016021728516 C 18.04039764404297 17.00016021728516 18.29841804504395 16.64914131164551 18.38509941101074 16.49823188781738 C 18.47177886962891 16.34731101989746 18.64497756958008 15.94757080078125 18.38173866271973 15.4962911605835 L 11.36378860473633 3.465431213378906 C 11.10257816314697 3.017631530761719 10.67270851135254 2.969291687011719 10.50000858306885 2.969291687011719 M 10.50000858306885 1.969295501708984 C 11.17085075378418 1.969295501708984 11.84169387817383 2.300050735473633 12.22756862640381 2.96156120300293 L 19.24551773071289 14.99242115020752 C 20.02327919006348 16.32574081420898 19.06153869628906 18.00016021728516 17.51795959472656 18.00016021728516 L 3.482059478759766 18.00016021728516 C 1.938478469848633 18.00016021728516 0.9767379760742188 16.32574081420898 1.754499435424805 14.99242115020752 L 8.772448539733887 2.96156120300293 C 9.158323287963867 2.300050735473633 9.829166412353516 1.969295501708984 10.50000858306885 1.969295501708984 Z" stroke="none" fill="#93b0d0"/>
    </g>
    <g transform="matrix(1, 0, 0, 1, 464.41, 16866.21)" filter="url(#Elipse_6647)">
      <circle id="Elipse_6647-2" data-name="Elipse 6647" cx="45" cy="45" r="45" transform="translate(204.82 411.79)" fill="#fffbf2"/>
    </g>
    <text id="I" transform="translate(711.231 17279.613)" fill="#12263f" font-size="16" font-family="Roboto-Regular, Roboto"><tspan x="0" y="17">I</tspan></text>
    <text id="P" transform="translate(744.066 17309.926)" fill="#12263f" font-size="16" font-family="Roboto-Regular, Roboto"><tspan x="0" y="17">P</tspan></text>
    <text id="S" transform="translate(709.231 17342.926)" fill="#12263f" font-size="16" font-family="Roboto-Regular, Roboto"><tspan x="0" y="17">S</tspan></text>
    <text id="A" transform="translate(676.066 17309.926)" fill="#12263f" font-size="16" font-family="Roboto-Regular, Roboto"><tspan x="0" y="17">A</tspan></text>
    <g transform="matrix(1, 0, 0, 1, 464.41, 16866.21)" filter="url(#Rectángulo_39553-9)">
      <rect id="Rectángulo_39553-19" data-name="Rectángulo 39553" width="219.828" height="68.534" transform="translate(431.03 485.28)" fill="#fffbf2"/>
    </g>
    <path id="Trazado_190099-9" data-name="Trazado 190099" d="M220.464,10.021V69.178H20.966l-18.7-7.984V1.929h199.5l18.7,7.984Zm-1.226,58.633V10.13L201.261,2.452H3.495V60.977l17.978,7.677Z" transform="translate(888.963 17345.422)" fill="#fffbf2" stroke="#fdda88" stroke-width="2"/>
    <text id="Estructura_de_producción_del_sector_" data-name="Estructura de producción del sector

" transform="translate(902.39 17352.316)" fill="#12263f" font-size="16" font-family="Roboto-Regular, Roboto"><tspan x="0" y="17">Estructura de producción </tspan><tspan x="0" y="41">del sector</tspan></text>
    <path id="Trazado_504159-4" data-name="Trazado 504159" d="M0,0H27.652" transform="translate(1002.829 17054.578) rotate(-90)" fill="none" stroke="#93b0d0" stroke-width="4"/>
    <g id="Polígono_47-3" data-name="Polígono 47" transform="translate(992.329 17018.4)" fill="#f3f9ff">
      <path d="M 17.51792907714844 17.49999809265137 L 3.482079029083252 17.49999809265137 C 2.938399076461792 17.49999809265137 2.452149152755737 17.21853828430176 2.181359052658081 16.74708938598633 C 1.910579085350037 16.27563858032227 1.912459015846252 15.7138090133667 2.186408996582031 15.2441987991333 L 9.204329490661621 3.213468790054321 C 9.47615909576416 2.747478723526001 9.960518836975098 2.469268798828125 10.49999904632568 2.469268798828125 C 11.03947925567627 2.469268798828125 11.52383899688721 2.747478723526001 11.79566860198975 3.213468790054321 L 18.81358909606934 15.2441987991333 C 19.08753967285156 15.7138090133667 19.08941841125488 16.27563858032227 18.81863975524902 16.74708938598633 C 18.54785919189453 17.21853828430176 18.06160926818848 17.49999809265137 17.51792907714844 17.49999809265137 Z" stroke="none"/>
      <path d="M 10.49999904632568 2.969268798828125 C 10.32729911804199 2.969268798828125 9.897429466247559 3.017608642578125 9.636219024658203 3.465398788452148 L 2.61829948425293 15.49612808227539 C 2.355049133300781 15.9473991394043 2.528249740600586 16.34713935852051 2.61492919921875 16.4980583190918 C 2.701608657836914 16.64897918701172 2.959629058837891 16.99999809265137 3.482078552246094 16.99999809265137 L 17.51792907714844 16.99999809265137 C 18.04036903381348 16.99999809265137 18.29838943481445 16.64897918701172 18.38506889343262 16.4980583190918 C 18.47174835205078 16.34713935852051 18.64494895935059 15.9473991394043 18.38169860839844 15.49612808227539 L 11.36377906799316 3.465398788452148 C 11.10256862640381 3.017608642578125 10.67269897460938 2.969268798828125 10.49999904632568 2.969268798828125 M 10.49999904632568 1.969270706176758 C 11.17083930969238 1.969270706176758 11.84167861938477 2.300024032592773 12.22755908966064 2.961528778076172 L 19.24547958374023 14.99225807189941 C 20.02324867248535 16.32556915283203 19.06150817871094 17.99999809265137 17.51792907714844 17.99999809265137 L 3.482078552246094 17.99999809265137 C 1.93848991394043 17.99999809265137 0.9767494201660156 16.32556915283203 1.754518508911133 14.99225807189941 L 8.772439002990723 2.961528778076172 C 9.158319473266602 2.300024032592773 9.829158782958984 1.969270706176758 10.49999904632568 1.969270706176758 Z" stroke="none" fill="#93b0d0"/>
    </g>
    <path id="Trazado_504159-5" data-name="Trazado 504159" d="M0,0H27.652" transform="translate(1002.829 17302.832) rotate(90)" fill="none" stroke="#93b0d0" stroke-width="4"/>
    <g id="Polígono_47-4" data-name="Polígono 47" transform="translate(1013.329 17339.01) rotate(180)" fill="#f3f9ff">
      <path d="M 17.51792907714844 17.49999809265137 L 3.482079029083252 17.49999809265137 C 2.938399076461792 17.49999809265137 2.452149152755737 17.21853828430176 2.181359052658081 16.74708938598633 C 1.910579085350037 16.27563858032227 1.912459015846252 15.7138090133667 2.186408996582031 15.2441987991333 L 9.204329490661621 3.213468790054321 C 9.47615909576416 2.747478723526001 9.960518836975098 2.469268798828125 10.49999904632568 2.469268798828125 C 11.03947925567627 2.469268798828125 11.52383899688721 2.747478723526001 11.79566860198975 3.213468790054321 L 18.81358909606934 15.2441987991333 C 19.08753967285156 15.7138090133667 19.08941841125488 16.27563858032227 18.81863975524902 16.74708938598633 C 18.54785919189453 17.21853828430176 18.06160926818848 17.49999809265137 17.51792907714844 17.49999809265137 Z" stroke="none"/>
      <path d="M 10.49999904632568 2.969268798828125 C 10.32729911804199 2.969268798828125 9.897429466247559 3.017608642578125 9.636219024658203 3.465398788452148 L 2.61829948425293 15.49612808227539 C 2.355049133300781 15.9473991394043 2.528249740600586 16.34713935852051 2.61492919921875 16.4980583190918 C 2.701608657836914 16.64897918701172 2.959629058837891 16.99999809265137 3.482078552246094 16.99999809265137 L 17.51792907714844 16.99999809265137 C 18.04036903381348 16.99999809265137 18.29838943481445 16.64897918701172 18.38506889343262 16.4980583190918 C 18.47174835205078 16.34713935852051 18.64494895935059 15.9473991394043 18.38169860839844 15.49612808227539 L 11.36377906799316 3.465398788452148 C 11.10256862640381 3.017608642578125 10.67269897460938 2.969268798828125 10.49999904632568 2.969268798828125 M 10.49999904632568 1.969270706176758 C 11.17083930969238 1.969270706176758 11.84167861938477 2.300024032592773 12.22755908966064 2.961528778076172 L 19.24547958374023 14.99225807189941 C 20.02324867248535 16.32556915283203 19.06150817871094 17.99999809265137 17.51792907714844 17.99999809265137 L 3.482078552246094 17.99999809265137 C 1.93848991394043 17.99999809265137 0.9767494201660156 16.32556915283203 1.754518508911133 14.99225807189941 L 8.772439002990723 2.961528778076172 C 9.158319473266602 2.300024032592773 9.829158782958984 1.969270706176758 10.49999904632568 1.969270706176758 Z" stroke="none" fill="#93b0d0"/>
    </g>
    <g transform="matrix(1, 0, 0, 1, 464.41, 16866.21)" filter="url(#Rectángulo_39553-10)">
      <rect id="Rectángulo_39553-20" data-name="Rectángulo 39553" width="250.989" height="237.221" transform="translate(415.03 195.8)" fill="#fffbf2"/>
    </g>
    <path id="Trazado_190099-10" data-name="Trazado 190099" d="M250.849,30.32V237.866H23.57l-21.3-28.011V1.929H229.55l21.3,28.011Zm-1.4,205.709V30.7L228.972,3.765H3.666V209.094l20.481,26.935Z" transform="translate(872.963 17055.947)" fill="#fffbf2" stroke="#fdda88" stroke-width="2"/>
    <text id="Empresa_turística_" data-name="Empresa turística

" transform="translate(886.39 17065.363)" fill="#12263f" font-size="16" font-family="Roboto-Regular, Roboto"><tspan x="0" y="17">Empresa turística</tspan></text>
    <text id="Atractivo_turístico_Equipamiento_e_instalaciones_Infraestructura_sistemas_de_redes_propias_y_ajenas_que_apoyan_el_funcionamiento_del_sector_._Interna_Externa_" data-name="Atractivo turístico
Equipamiento e instalaciones 
Infraestructura (sistemas de redes propias y ajenas que apoyan el funcionamiento del sector).
Interna
Externa 

" transform="translate(902.89 17098.049)" fill="#12263f" font-size="16" font-family="Roboto-Regular, Roboto"><tspan x="0" y="17">Atractivo turístico</tspan><tspan x="0" y="41">Equipamiento e instalaciones </tspan><tspan x="0" y="65">Infraestructura (sistemas de </tspan><tspan x="0" y="89">redes propias y ajenas que </tspan><tspan x="0" y="113">apoyan el funcionamiento del </tspan><tspan x="0" y="137">sector).</tspan><tspan x="0" y="161">Interna</tspan><tspan x="0" y="185">Externa </tspan></text>
  </g>
</svg>
