<svg xmlns="http://www.w3.org/2000/svg" xmlns:xlink="http://www.w3.org/1999/xlink" width="355.405" height="46.858" viewBox="0 0 355.405 46.858">
  <defs>
    <clipPath id="clip-path">
      <rect id="Rectángulo_289500" data-name="Rectángulo 289500" width="355.405" height="46.858" transform="translate(0 0)" fill="none"/>
    </clipPath>
  </defs>
  <g id="Grupo_746519" data-name="Grupo 746519" transform="translate(0 0)">
    <g id="Grupo_746528" data-name="Grupo 746528" transform="translate(0 0.001)" clip-path="url(#clip-path)">
      <path id="Trazado_509485" data-name="Trazado 509485" d="M28.263,52.668a5.518,5.518,0,0,1,4.046,1.951q5.249,5.644,10.5,11.286c1.466,1.567,2.266,3.305.63,5.108-1.8,1.981-3.44.771-4.966-.61-2.761-2.5-5.638-4.885-8.268-7.516-1.586-1.586-2.659-1.373-4.135.064-2.668,2.6-5.506,5.017-8.234,7.554-1.447,1.347-3,2.273-4.711.679-1.6-1.493-1.335-3.275.051-4.8,3.716-4.086,7.482-8.127,11.257-12.159a5.355,5.355,0,0,1,3.829-1.559" transform="translate(-5.755 -25.197)" fill="#002e62"/>
      <path id="Trazado_509486" data-name="Trazado 509486" d="M19.237,27.676a6.569,6.569,0,0,1-2.216,4.8C13.354,35.891,9.669,39.284,6.013,42.71,4.418,44.2,2.668,44.871.921,43.2c-1.765-1.685-.68-3.217.637-4.65C3.906,36,6.084,33.281,8.566,30.869c1.946-1.89,2.246-3.247.112-5.283-2.687-2.563-5.018-5.5-7.486-8.288C.048,16.005-.4,14.563.928,13.179A2.846,2.846,0,0,1,5.1,12.807c4.457,4.062,8.819,8.232,13.116,12.463a6.254,6.254,0,0,1,1.021,2.406" transform="translate(0 -5.769)" fill="#e40c77"/>
      <path id="Trazado_509487" data-name="Trazado 509487" d="M55.117,30.879a6.621,6.621,0,0,1,2.134-4.8C60.593,22.527,63.966,19,67.326,15.461c1.325-1.4,2.813-2.557,4.637-.982,1.877,1.621,1.243,3.412-.1,5.088-2.254,2.8-4.372,5.725-6.8,8.371-1.8,1.967-2.041,3.413-.092,5.484,2.367,2.516,4.339,5.4,6.507,8.107,1.389,1.734,2.435,3.642.409,5.416-1.987,1.741-3.518.162-4.887-1.286q-4.9-5.181-9.789-10.363a6.774,6.774,0,0,1-2.094-4.416" transform="translate(-26.368 -6.566)" fill="#002e62"/>
      <path id="Trazado_509488" data-name="Trazado 509488" d="M29.782,17.82a5.627,5.627,0,0,1-4.122-1.815c-3.4-3.336-6.8-6.661-10.146-10.048C14.126,4.552,12.716,2.94,14.645,1c1.818-1.828,3.557-.745,5.115.542,2.577,2.129,5.165,4.254,7.628,6.511,1.781,1.633,3.138,2,5.1.038,2.534-2.535,5.475-4.663,8.249-6.956,1.434-1.185,3.079-1.7,4.5-.249,1.582,1.622.9,3.278-.551,4.713-3.474,3.44-6.932,6.9-10.415,10.326a5.878,5.878,0,0,1-4.486,1.9" transform="translate(-6.555 0)" fill="#e40c77"/>
      <path id="Trazado_509489" data-name="Trazado 509489" d="M429.684,44.878c.147-3.2.064-6.437.486-9.6,1.017-7.635,4.848-11.278,12.525-12.28a21.561,21.561,0,0,1,2.594-.175c1.785-.016,3.639-.5,3.691,2.525.049,2.884-1.561,2.751-3.49,2.784-4.89.083-7.875,2.016-9.05,5.932a13.076,13.076,0,0,0-.418,3.594c-.045,4.772-.116,9.549.02,14.318.077,2.678-1.35,2.821-3.449,2.867-2.248.049-2.915-.826-2.8-2.926.127-2.336.029-4.685.029-7.028l-.137-.006" transform="translate(-205.568 -10.899)" fill="#e40c77"/>
      <path id="Trazado_509490" data-name="Trazado 509490" d="M327.647,39.188c-2.955,0-5.911.05-8.864-.02-1.539-.037-1.938.455-1.642,2.006.793,4.157,3.464,6.81,7.675,7.293a21.659,21.659,0,0,0,7.522-.255c2.622-.627,2.8,1.542,3.351,2.932.658,1.659-.7,2.292-2.1,2.5-4.755.719-9.534,1.009-14.18-.5a11.457,11.457,0,0,1-7.382-6.9,21.862,21.862,0,0,1,.491-17.964c2.5-5.131,7.174-6.761,12.562-6.763a12.128,12.128,0,0,1,11.449,6.949,20.828,20.828,0,0,1,2.071,8.213c.158,1.757-.536,2.579-2.353,2.543-2.867-.057-5.736-.015-8.6-.015Zm-2.991-4.7c2,0,4-.008,5.993,0,.872.005,1.511-.093,1.447-1.263a7.058,7.058,0,0,0-7.188-6.531c-4.123-.1-7.29,2.543-7.678,6.281-.129,1.237.361,1.533,1.433,1.518,2-.027,4-.008,5.993-.009" transform="translate(-148.472 -10.292)" fill="#002e62"/>
      <path id="Trazado_509491" data-name="Trazado 509491" d="M609.519,39.188c-2.955,0-5.911.05-8.864-.02-1.539-.037-1.938.455-1.642,2.006.793,4.157,3.464,6.81,7.674,7.293a21.659,21.659,0,0,0,7.522-.255c2.622-.627,2.8,1.542,3.351,2.932.658,1.659-.7,2.292-2.1,2.5-4.755.719-9.534,1.009-14.18-.5a11.457,11.457,0,0,1-7.382-6.9,21.862,21.862,0,0,1,.491-17.964c2.5-5.131,7.174-6.761,12.562-6.763A12.128,12.128,0,0,1,618.4,28.462a20.83,20.83,0,0,1,2.071,8.213c.158,1.757-.536,2.579-2.353,2.543-2.867-.057-5.736-.015-8.6-.015Zm-2.991-4.7c2,0,4-.008,5.993,0,.872.005,1.511-.093,1.447-1.263a7.058,7.058,0,0,0-7.188-6.531c-4.123-.1-7.29,2.543-7.678,6.281-.129,1.237.361,1.533,1.433,1.518,2-.027,4-.008,5.993-.009" transform="translate(-283.324 -10.292)" fill="#e40c77"/>
      <path id="Trazado_509492" data-name="Trazado 509492" d="M494.7,38.877c0,2.086-.093,4.177.018,6.257.307,5.738-2.368,6.9-6.163,8.089a24.139,24.139,0,0,1-13.9.125c-5.019-1.423-7.051-4.639-6.687-10.547.279-4.522,3.152-7.573,7.86-8.319,3.457-.548,6.942-.277,10.412-.25,2.005.016,2.373-.8,1.988-2.557a5.063,5.063,0,0,0-5.013-4.38c-2.517-.093-5.04-.043-7.56-.053-1.555-.006-1.875-1.027-1.81-2.28.064-1.223-.454-3.1,1.393-3.129,4.824-.069,9.747-.781,14.375,1.414a8.555,8.555,0,0,1,5.043,7.81c.15,2.6.03,5.213.03,7.82h.015m-6.239,4.653c0-.955-.024-1.91.006-2.863.036-1.1-.474-1.589-1.56-1.558-2.858.082-5.725.04-8.573.258a4.294,4.294,0,0,0-4.154,3.981c-.333,2.355.9,3.954,2.951,4.993a11.646,11.646,0,0,0,5.852.875c4.851-.168,5.479-.815,5.478-5.685" transform="translate(-223.865 -10.367)" fill="#e40c77"/>
      <path id="Trazado_509493" data-name="Trazado 509493" d="M540.982,46.428c1.288-1.69,1.806-3.812,2.633-5.761,2.3-5.427,4.5-10.9,6.752-16.345.814-1.971,4.641-3.134,6.289-1.913.856.634.754,1.448.378,2.328-2.72,6.353-5.416,12.717-8.136,19.07-1.331,3.108-2.759,6.175-4.008,9.313a1.786,1.786,0,0,1-1.946,1.295c-1.3-.016-2.609-.106-3.9,0a2.345,2.345,0,0,1-2.591-1.678q-5.887-14.03-11.8-28.051c-.679-1.616-.17-2.406,1.631-2.594,2.65-.276,4.249.215,5.33,3.21,2.435,6.746,5.493,13.266,8.291,19.881.2.475.3,1.008,1.076,1.249" transform="translate(-250.865 -10.482)" fill="#e40c77"/>
      <path id="Trazado_509494" data-name="Trazado 509494" d="M277.485,22.3h1.822c2.924,0,4.089,1.22,3.585,4.022-.226,1.261-1.266,1.578-2.542,1.6-2.835.044-5.681-.315-8.488.692a7.255,7.255,0,0,0-5.1,6.78c-.017,1.82-.126,3.653.038,5.458.443,4.884,3.4,7.687,8.315,7.953,1.99.107,3.99.053,5.984.111a1.832,1.832,0,0,1,1.936,2.22c-.077,1.313.447,3.3-1.489,3.352-5.078.146-10.26.639-14.925-2.265a11.573,11.573,0,0,1-5.335-6.622,22.537,22.537,0,0,1,.708-15.974c2.168-4.795,6.7-6.8,11.856-7.23,1.205-.1,2.426-.015,3.64-.015V22.3" transform="translate(-124.465 -10.671)" fill="#002e62"/>
      <path id="Trazado_509495" data-name="Trazado 509495" d="M120.486,26.2c0-5.813.074-11.628-.035-17.439-.042-2.238.707-3.161,3-3.05,6.221.3,12.511.026,18.657.849,6.315.846,9.249,5.556,9.1,12.8-.126,6.258-3.733,10.985-9.575,11.828a85.223,85.223,0,0,1-11.922.6c-2.083.005-2.976.485-2.846,2.751.184,3.2-.03,6.421.074,9.627.081,2.488-1.421,2.471-3.232,2.5-1.862.028-3.269-.08-3.243-2.506.064-5.986.021-11.973.022-17.96M133.4,11.234V11.2a32.129,32.129,0,0,0-4.683.072c-.661.1-1.7.97-1.723,1.521-.15,3.993-.142,8-.018,11.991a2.2,2.2,0,0,0,1.431,1.6,72.378,72.378,0,0,0,9.894-.117c4.129-.438,6.5-3.634,6.3-7.862-.2-4.387-2.692-6.943-7.028-7.155-1.387-.068-2.781-.01-4.172-.01" transform="translate(-57.625 -2.728)" fill="#002e62"/>
      <path id="Trazado_509496" data-name="Trazado 509496" d="M386.843,29.02c0,4.95-.146,9.9.052,14.847.124,3.1-1.759,2.637-3.707,2.776-2.183.156-2.653-.782-2.641-2.729.064-9.986-.019-19.973.077-29.958.02-2.123-.552-2.967-2.775-2.829-2.768.172-5.555.009-8.333.041-2.01.023-2.386-1.058-2.391-2.844,0-1.752.512-2.627,2.327-2.625,9.812.011,19.625.024,29.437-.015,1.93-.008,2.279,1.019,2.283,2.653,0,1.731-.367,2.877-2.419,2.838-3.125-.058-6.256.076-9.377-.044-1.911-.073-2.608.563-2.568,2.52.106,5.121.036,10.246.036,15.37" transform="translate(-175.638 -2.719)" fill="#e40c77"/>
      <path id="Trazado_509497" data-name="Trazado 509497" d="M656.339,23.132c0-4.947.092-9.9-.043-14.841-.062-2.273,1.07-2.538,2.888-2.52,1.836.019,3.179.108,3.159,2.581-.07,8.5.036,17.011.064,25.517.016,4.711.515,5.552,5.018,7.256,2.473.936,2.087,2.733,1.6,4.019a2.374,2.374,0,0,1-2.821,1.524c-7.2-.788-9.858-3.833-9.864-11.037q-.006-6.25,0-12.5" transform="translate(-313.981 -2.761)" fill="#e40c77"/>
      <path id="Trazado_509498" data-name="Trazado 509498" d="M187.131,44.878c.147-3.2.064-6.437.486-9.6,1.017-7.635,4.848-11.278,12.525-12.28a21.562,21.562,0,0,1,2.594-.175c1.785-.016,3.639-.5,3.691,2.525.049,2.884-1.561,2.751-3.49,2.784-4.89.083-7.875,2.016-9.051,5.932a13.076,13.076,0,0,0-.418,3.594c-.045,4.772-.116,9.549.02,14.318.077,2.678-1.35,2.821-3.449,2.867-2.248.049-2.915-.826-2.8-2.926.127-2.336.029-4.685.029-7.028l-.137-.006" transform="translate(-89.526 -10.899)" fill="#002e62"/>
      <path id="Trazado_509499" data-name="Trazado 509499" d="M242.566,38.778c0,4.431-.092,8.865.038,13.293.066,2.264-.858,2.765-2.951,2.737s-3.195-.357-3.162-2.829q.175-13.292.009-26.588c-.026-2.372,1.133-2.639,3.072-2.674,2.064-.037,3.041.511,2.981,2.767-.118,4.428-.035,8.862-.035,13.294h.047" transform="translate(-113.141 -10.868)" fill="#002e62"/>
      <path id="Trazado_509500" data-name="Trazado 509500" d="M239.628,11.014c-2.246.408-3.139-.253-3.162-2.662-.024-2.5,1.073-2.745,3.1-2.759,2.083-.016,3.1.343,3.051,2.8-.045,2.4-.914,3.115-2.99,2.619" transform="translate(-113.129 -2.676)" fill="#002e62"/>
    </g>
  </g>
</svg>
