<svg xmlns="http://www.w3.org/2000/svg" width="1030" height="570.034" viewBox="0 0 1030 570.034"><g transform="translate(-285 -3128)"><rect width="271" height="179" transform="translate(347 3341)" fill="#d8e4f5"/><rect width="271" height="179" transform="translate(347 3519)" fill="#f7b6ba"/><rect width="349" height="150" transform="translate(617 3192)" fill="#f9d497"/><g transform="translate(617 3370)" fill="#fff" stroke="#707070" stroke-width="1" opacity="0.7"><rect width="349" height="150" stroke="none"/><rect x="0.5" y="0.5" width="348" height="149" fill="none"/></g><g transform="translate(617 3548)" fill="#fff" stroke="#707070" stroke-width="1"><rect width="349" height="150" stroke="none"/><rect x="0.5" y="0.5" width="348" height="149" fill="none"/></g><rect width="350" height="150" transform="translate(965 3192)" fill="#adc8ab"/><g transform="translate(965 3370)" fill="#fff" stroke="#707070" stroke-width="1" opacity="0.7"><rect width="350" height="150" stroke="none"/><rect x="0.5" y="0.5" width="349" height="149" fill="none"/></g><g transform="translate(965 3548)" fill="#fff" stroke="#707070" stroke-width="1" opacity="0.7"><rect width="350" height="150" stroke="none"/><rect x="0.5" y="0.5" width="349" height="149" fill="none"/></g><rect width="349" height="30" transform="translate(617 3163)" fill="#fcc46b"/><g transform="translate(617 3341)" fill="#fff" stroke="#707070" stroke-width="1" opacity="0.7"><rect width="349" height="30" stroke="none"/><rect x="0.5" y="0.5" width="348" height="29" fill="none"/></g><g transform="translate(617 3519)" fill="#fff" stroke="#707070" stroke-width="1" opacity="0.7"><rect width="349" height="30" stroke="none"/><rect x="0.5" y="0.5" width="348" height="29" fill="none"/></g><rect width="350" height="30" transform="translate(965 3163)" fill="#7ea067"/><g transform="translate(965 3341)" fill="#fff" stroke="#707070" stroke-width="1" opacity="0.7"><rect width="350" height="30" stroke="none"/><rect x="0.5" y="0.5" width="349" height="29" fill="none"/></g><g transform="translate(965 3519)" fill="#fff" stroke="#707070" stroke-width="1" opacity="0.7"><rect width="350" height="30" stroke="none"/><rect x="0.5" y="0.5" width="349" height="29" fill="none"/></g><rect width="698" height="36" transform="translate(617 3128)" fill="#a2a6ba"/><text transform="translate(678 3170)" fill="#12263f" font-size="16" font-family="Roboto-Bold, Roboto" font-weight="700"><tspan x="71.867" y="17">Debilidades</tspan></text><text transform="translate(678 3345)" fill="#12263f" font-size="16" font-family="Roboto-Bold, Roboto" font-weight="700"><tspan x="60.762" y="17">Estrategias DO</tspan></text><text transform="translate(662 3523)" fill="#12263f" font-size="16" font-family="Roboto-Bold, Roboto" font-weight="700"><tspan x="60.902" y="17">Estrategias DA</tspan></text><text transform="translate(1026 3170)" fill="#12263f" font-size="16" font-family="Roboto-Bold, Roboto" font-weight="700"><tspan x="76.152" y="17">Fortalezas</tspan></text><text transform="translate(1026 3345)" fill="#12263f" font-size="16" font-family="Roboto-Bold, Roboto" font-weight="700"><tspan x="61.578" y="17">Estrategias FO</tspan></text><text transform="translate(1026 3523)" fill="#12263f" font-size="16" font-family="Roboto-Bold, Roboto" font-weight="700"><tspan x="62.469" y="17">Estrategias FA</tspan></text><text transform="translate(852 3136)" fill="#12263f" font-size="16" font-family="Roboto-Bold, Roboto" font-weight="700"><tspan x="51.168" y="17">Factores internos</tspan></text><g transform="translate(70 34)"><text transform="translate(608 3171)" fill="#12263f" font-size="16" font-family="Roboto-Bold, Roboto" font-weight="700"><tspan x="0" y="17">Ejemplos:</tspan></text><text transform="translate(608 3199)" fill="#12263f" font-size="16" font-family="Roboto-Regular, Roboto"><tspan x="0" y="17">- Salarios inferiores a la medida.</tspan><tspan x="0" y="41">- Problemas Financieros.</tspan><tspan x="0" y="65">-Poca formación del personal.</tspan><tspan x="0" y="89">-Mala ubicación del negocio. </tspan></text></g><text transform="translate(657 3407)" fill="#12263f" font-size="16" font-family="Roboto-Regular, Roboto"><tspan x="0" y="17">Cómo las oportunidades nos ayudan </tspan><tspan x="0" y="41">a subsanar debilidades.</tspan></text><text transform="translate(657 3585)" fill="#12263f" font-size="16" font-family="Roboto-Regular, Roboto"><tspan x="0" y="17">Cómo las amenazas hacen notorias </tspan><tspan x="0" y="41">nuestras debilidades.</tspan></text><g transform="translate(66 30)"><text transform="translate(309 3327)" fill="#12263f" font-size="16" font-family="Roboto-Bold, Roboto" font-weight="700"><tspan x="0" y="17">Ejemplos:</tspan></text><text transform="translate(309 3355)" fill="#12263f" font-size="16" font-family="Roboto-Regular, Roboto"><tspan x="0" y="17">- Crecimiento de la industria</tspan><tspan x="0" y="41">- Alta demanda de productos </tspan><tspan x="0" y="65">relacionados.</tspan><tspan x="0" y="89">- Necesidades de expansión y </tspan><tspan x="0" y="113">nuevas inversiones.</tspan></text></g><g transform="translate(66 208)"><text transform="translate(309 3327)" fill="#12263f" font-size="16" font-family="Roboto-Bold, Roboto" font-weight="700"><tspan x="0" y="17">Ejemplos:</tspan></text><text transform="translate(309 3355)" fill="#12263f" font-size="16" font-family="Roboto-Regular, Roboto"><tspan x="0" y="17">- Conflictos germinales.</tspan><tspan x="0" y="41">- Regulación desfavorable.</tspan><tspan x="0" y="65">- Competencia muy agresiva.</tspan><tspan x="0" y="89">-Aumento de precio de </tspan><tspan x="0" y="113">insumos.</tspan></text></g><g transform="translate(89 34)"><text transform="translate(924 3171)" fill="#12263f" font-size="16" font-family="Roboto-Bold, Roboto" font-weight="700"><tspan x="0" y="17">Ejemplos:</tspan></text><text transform="translate(924 3199)" fill="#12263f" font-size="16" font-family="Roboto-Regular, Roboto"><tspan x="0" y="17">-Calidad del producto.</tspan><tspan x="0" y="41">- Excelente linea de producción. </tspan><tspan x="0" y="65">- Valoración positiva de los clientes.</tspan></text></g><text transform="translate(1013 3407)" fill="#12263f" font-size="16" font-family="Roboto-Regular, Roboto"><tspan x="0" y="17">Cómo las oportunidades potencia </tspan><tspan x="0" y="41">nuestras fortalezas.</tspan></text><text transform="translate(1013 3585)" fill="#12263f" font-size="16" font-family="Roboto-Regular, Roboto"><tspan x="0" y="17">Cómo nuestras fortalezas </tspan><tspan x="0" y="41">contrarestan las amenazas.</tspan></text><rect width="32" height="179" transform="translate(316 3519)" fill="#f7b6ba"/><rect width="32" height="179" transform="translate(316 3341)" fill="#d8e4f5"/><g transform="translate(285 3341)" fill="#a2a6ba" stroke="#707070" stroke-width="1"><rect width="32" height="357" stroke="none"/><rect x="0.5" y="0.5" width="31" height="356" fill="none"/></g><text transform="translate(321 3640) rotate(-90)" fill="#12263f" font-size="16" font-family="Roboto-Bold, Roboto" font-weight="700"><tspan x="0" y="17">Amenzas</tspan></text><text transform="translate(321 3485) rotate(-90)" fill="#12263f" font-size="16" font-family="Roboto-Bold, Roboto" font-weight="700"><tspan x="0" y="17">Oportunidades</tspan></text><text transform="translate(291 3586) rotate(-90)" fill="#12263f" font-size="16" font-family="Roboto-Bold, Roboto" font-weight="700"><tspan x="0" y="17">Factores externos </tspan></text><path d="M-4521-8210.5h-31" transform="translate(4868 11730)" fill="none" stroke="#707070" stroke-width="1"/><path d="M-3903-8032" transform="translate(4837 11730)" fill="none" stroke="#707070" stroke-width="1"/><g transform="translate(285 3128)" fill="#fff" stroke="#707070" stroke-width="1"><rect width="333" height="214" stroke="none"/><rect x="0.5" y="0.5" width="332" height="213" fill="none"/></g><text transform="translate(399 3213)" fill="#12263f" font-size="16" font-family="Roboto-Bold, Roboto" font-weight="700"><tspan x="1.613" y="17">MATRIZ DOFA</tspan><tspan x="11.977" y="41">Estrategias</tspan></text><path d="M-4490-8359v356.534" transform="translate(4837 11700)" fill="none" stroke="#707070" stroke-width="1"/><path d="M-4220.481-8002.466h-301" transform="translate(4838.481 11700)" fill="none" stroke="#707070" stroke-width="1"/></g></svg>