<svg xmlns="http://www.w3.org/2000/svg" xmlns:xlink="http://www.w3.org/1999/xlink" width="416.849" height="302.876" viewBox="0 0 416.849 302.876"><defs><filter id="a" x="74.303" y="44.274" width="351.546" height="270.602" filterUnits="userSpaceOnUse"><feOffset dy="3" input="SourceAlpha"/><feGaussianBlur stdDeviation="3" result="b"/><feFlood flood-opacity="0.161"/><feComposite operator="in" in2="b"/><feComposite in="SourceGraphic"/></filter><clipPath id="c"><rect width="12.756" height="12.755" fill="#ffb338"/></clipPath><clipPath id="d"><path d="M55.653,49.5,51.81,53.347,49.52,51.056l3.843-3.844L49.31,43.16,51.668,40.8l4.052,4.052,3.844-3.843L61.855,43.3l-3.844,3.843L62.065,51.2l-2.358,2.358Z" transform="translate(-49.31 -40.802)" fill="#ffb338"/></clipPath><filter id="e" x="162.572" y="0" width="54.196" height="54.196" filterUnits="userSpaceOnUse"><feOffset dy="3" input="SourceAlpha"/><feGaussianBlur stdDeviation="3" result="f"/><feFlood flood-opacity="0.161"/><feComposite operator="in" in2="f"/><feComposite in="SourceGraphic"/></filter><clipPath id="g"><rect width="347.037" height="279.207" fill="none"/></clipPath><linearGradient id="h" x1="-0.084" y1="1.037" x2="-0.079" y2="1.037" gradientUnits="objectBoundingBox"><stop offset="0" stop-color="#0078b2"/><stop offset="0.184" stop-color="#0078b2"/><stop offset="1" stop-color="#86cff2"/></linearGradient><clipPath id="i"><rect width="331.777" height="279.726" fill="#fff"/></clipPath><clipPath id="j"><path d="M274.815,18.233c89.913-.36,18.735,89.318,57.389,143.938,28.915,40.859,83.66,79.8,56.955,114.567-29.3,38.144-94.513-16.838-189.9,16.719C119.528,321.51,38.129,212.549,72.685,128.8,91.057,84.272,214.84,18.473,274.815,18.233" transform="translate(-64.52 -18.232)" fill="#f9d9a2"/></clipPath><clipPath id="k"><g transform="matrix(1, 0, 0, 1, 0, 0)" filter="url(#a)"><path d="M340.227,47.071c-38.751-11.773-70.6,9.977-98.953,32.2s-61.613-1.084-80.363-22.265c-22.93-25.9-65.4-26.894-86.547,2.353-16.94,23.431-15.414,62.658,21.8,80.991,35.713,17.592,64.073,39.814,71.492,71.541s13.168,65.583,50.136,76.228c28.575,8.227,51.882-10.036,53.4-38.726,1.53-29.059,16.5-37.978,39.473-42.274s41.64-6.674,57.776-20.071,27.065-30.475,28.974-61.321-18.439-66.892-57.188-78.662" transform="translate(-63.99 -37.5)" fill="#ffb338"/></g></clipPath><filter id="l" x="41.137" y="7.846" width="413.097" height="342.317" filterUnits="userSpaceOnUse"><feOffset dy="3" input="SourceAlpha"/><feGaussianBlur stdDeviation="9" result="m"/><feFlood flood-opacity="0.161"/><feComposite operator="in" in2="m"/><feComposite in="SourceGraphic"/></filter><clipPath id="n"><rect width="363.571" height="292.509" fill="none"/></clipPath><filter id="r" x="329.125" y="81.043" width="61.772" height="61.771" filterUnits="userSpaceOnUse"><feOffset dy="3" input="SourceAlpha"/><feGaussianBlur stdDeviation="3" result="s"/><feFlood flood-opacity="0.161"/><feComposite operator="in" in2="s"/><feComposite in="SourceGraphic"/></filter><filter id="t" x="119.526" y="201.558" width="54.105" height="54.105" filterUnits="userSpaceOnUse"><feOffset dy="3" input="SourceAlpha"/><feGaussianBlur stdDeviation="3" result="u"/><feFlood flood-opacity="0.161"/><feComposite operator="in" in2="u"/><feComposite in="SourceGraphic"/></filter><clipPath id="v"><rect width="295.737" height="177.206" fill="none"/></clipPath><clipPath id="w"><rect width="295.738" height="177.206" fill="none"/></clipPath><clipPath id="x"><rect width="56.675" height="47.496" fill="none"/></clipPath><linearGradient id="y" x1="-2.809" y1="1.688" x2="-2.806" y2="1.688" gradientUnits="objectBoundingBox"><stop offset="0" stop-color="#2c3482"/><stop offset="0.344" stop-color="#2c3482"/><stop offset="0.697" stop-color="#08964e"/><stop offset="1" stop-color="#08964e"/></linearGradient><clipPath id="aa"><rect width="4.096" height="4.096" fill="none"/></clipPath><clipPath id="ab"><rect width="2.645" height="2.645" fill="none"/></clipPath><clipPath id="ac"><rect width="5.592" height="5.592" fill="none"/></clipPath><clipPath id="ad"><rect width="3.665" height="3.665" fill="none"/></clipPath><clipPath id="ae"><rect width="2.614" height="2.614" fill="none"/></clipPath><clipPath id="af"><rect width="3.139" height="3.139" fill="none"/></clipPath><clipPath id="ag"><rect width="4.266" height="4.266" fill="none"/></clipPath><clipPath id="ai"><rect width="4.403" height="4.403" fill="none"/></clipPath><clipPath id="aj"><rect width="3.497" height="3.978" fill="none"/></clipPath><clipPath id="ak"><rect width="28.467" height="163.787" fill="none"/></clipPath><clipPath id="al"><rect width="23.668" height="162.128" fill="none"/></clipPath><clipPath id="am"><rect width="20.563" height="161.082" fill="none"/></clipPath><clipPath id="an"><rect width="10.736" height="12.688" fill="none"/></clipPath><clipPath id="ao"><rect width="1.934" height="1.164" fill="none"/></clipPath><clipPath id="ap"><rect width="4.993" height="5.012" fill="none"/></clipPath><clipPath id="aq"><rect width="4.095" height="4.095" fill="none"/></clipPath><clipPath id="at"><rect width="3.666" height="3.665" fill="none"/></clipPath><clipPath id="au"><rect width="2.615" height="2.614" fill="none"/></clipPath><clipPath id="ay"><rect width="4.402" height="4.403" fill="none"/></clipPath><clipPath id="ba"><rect width="28.381" height="163.787" fill="none"/></clipPath><clipPath id="bd"><rect width="10.736" height="13.664" fill="none"/></clipPath><clipPath id="be"><rect width="1.165" height="1.165" fill="none"/></clipPath><clipPath id="bf"><rect width="4.992" height="5.012" fill="none"/></clipPath><clipPath id="bg"><rect width="23.666" height="162.128" fill="none"/></clipPath><clipPath id="bi"><path d="M509.347,543.987c-.027.008-.055.018-.082.029a19.525,19.525,0,0,0-9.553,7.908,1.177,1.177,0,0,0-.141.939,1.159,1.159,0,0,0,.583.731l14.32,7.524a.754.754,0,0,0,.583.058.8.8,0,0,0,.455-.364.761.761,0,0,0,.064-.609l-4.755-15.439a1.179,1.179,0,0,0-1.474-.777" transform="translate(-499.529 -543.935)" fill="none"/></clipPath><radialGradient id="bj" cx="0.136" cy="1.067" r="1.099" gradientTransform="matrix(0, 1, 0.954, 0, -8.377, 8.541)" gradientUnits="objectBoundingBox"><stop offset="0" stop-color="#f79a11"/><stop offset="0.296" stop-color="#f79a11"/><stop offset="0.888" stop-color="#fcd945"/><stop offset="1" stop-color="#fabe2e"/></radialGradient><clipPath id="bl"><path d="M487.549,594.072c-.013.025-.026.052-.038.078a19.526,19.526,0,0,0-1.163,12.347,1.178,1.178,0,0,0,.564.763,1.158,1.158,0,0,0,.929.1l15.446-4.805a.753.753,0,0,0,.453-.371.8.8,0,0,0,.065-.579.761.761,0,0,0-.386-.475l-14.279-7.555a1.166,1.166,0,0,0-.547-.136,1.181,1.181,0,0,0-1.044.628" transform="translate(-485.838 -593.443)" fill="none"/></clipPath><radialGradient id="bm" cx="0.581" cy="1.044" r="1.01" gradientTransform="matrix(0, 1, 1.208, 0, -9.274, 8.671)" xlink:href="#bj"/><clipPath id="bo"><path d="M509.4,640.644,493.965,645.4a1.179,1.179,0,0,0-.777,1.474c.008.027.018.055.029.082a19.5,19.5,0,0,0,5.676,7.934h4.52l6.906-13.143a.753.753,0,0,0,.058-.583.8.8,0,0,0-.364-.455.745.745,0,0,0-.374-.1.8.8,0,0,0-.235.036" transform="translate(-493.136 -640.608)" fill="none"/></clipPath><radialGradient id="bp" cx="1.123" cy="0.917" r="1.059" gradientTransform="matrix(0, 1, 1.148, 0, -8.715, 8.343)" xlink:href="#bj"/><clipPath id="br"><path d="M554,644.918a.761.761,0,0,0-.475.385l-6.876,13h12.3l-4-12.865a.753.753,0,0,0-.371-.453.8.8,0,0,0-.373-.091.787.787,0,0,0-.206.027" transform="translate(-546.65 -644.891)" fill="none"/></clipPath><radialGradient id="bs" cx="1.124" cy="0.489" r="1.439" gradientTransform="matrix(0, 1, 0.942, 0, -10.134, 10.319)" xlink:href="#bj"/><clipPath id="bu"><path d="M590.364,641.167a.8.8,0,0,0-.455.364.759.759,0,0,0-.064.609l4.055,13.167h7.486a19.63,19.63,0,0,0,4.322-4.888,1.177,1.177,0,0,0,.141-.938,1.16,1.16,0,0,0-.583-.731l-14.32-7.524a.753.753,0,0,0-.582-.058" transform="translate(-589.809 -641.133)" fill="none"/></clipPath><radialGradient id="bv" cx="0.933" cy="-0.073" r="1.133" gradientTransform="matrix(0, 1, 1.094, 0, -9.992, 9.742)" xlink:href="#bj"/><clipPath id="bx"><path d="M594.637,613.5a.751.751,0,0,0-.453.371.8.8,0,0,0-.064.579.761.761,0,0,0,.385.475l14.28,7.555a1.17,1.17,0,0,0,.823.1V608.844Z" transform="translate(-594.092 -608.844)" fill="none"/></clipPath><radialGradient id="by" cx="0.535" cy="-0.058" r="1.176" gradientTransform="matrix(0, 1, 1.085, 0, -10.721, 10.457)" xlink:href="#bj"/><clipPath id="ca"><path d="M598.681,550.37a1.162,1.162,0,0,0-.731.583l-7.524,14.32a.754.754,0,0,0-.058.583.8.8,0,0,0,.364.455.76.76,0,0,0,.609.064l15.273-4.7v-3.621a19.506,19.506,0,0,0-6.994-7.538,1.179,1.179,0,0,0-.628-.182,1.2,1.2,0,0,0-.311.041" transform="translate(-590.334 -550.329)" fill="none"/></clipPath><radialGradient id="cb" cx="-0.028" cy="0.1" r="1.103" gradientTransform="matrix(0, 1, 1.009, 0, -9.867, 9.837)" xlink:href="#bj"/><clipPath id="cd"><path d="M557.979,537.148a1.179,1.179,0,0,0-.763.564,1.16,1.16,0,0,0-.1.929l4.805,15.446a.753.753,0,0,0,.371.453.8.8,0,0,0,.579.065.761.761,0,0,0,.475-.385l7.555-14.28a1.179,1.179,0,0,0-.493-1.591c-.025-.013-.051-.026-.078-.038a19.543,19.543,0,0,0-7.9-1.673,19.778,19.778,0,0,0-4.448.51" transform="translate(-557.059 -536.638)" fill="none"/></clipPath><radialGradient id="ce" cx="-0.008" cy="0.526" r="1.215" gradientTransform="matrix(0, 1, 0.848, 0, -8.765, 9.361)" xlink:href="#bj"/><clipPath id="ch"><rect width="4.096" height="4.095" fill="none"/></clipPath><clipPath id="cv"><rect width="1.164" height="1.165" fill="none"/></clipPath><clipPath id="cx"><rect width="23.667" height="162.128" fill="none"/></clipPath><clipPath id="dk"><rect width="1.934" height="1.165" fill="none"/></clipPath></defs><g transform="translate(-732.139 10074.381)"><g transform="translate(17899.465 3842.651)" opacity="0.59"><g transform="translate(-17090.398 -13866.758)"><g transform="translate(0 0)"><g clip-path="url(#c)"><g transform="translate(0.001)"><g clip-path="url(#d)"><rect width="12.755" height="12.755" transform="translate(0)" fill="#ffb338"/></g></g></g></g></g><g transform="matrix(1, 0, 0, 1, -17167.33, -13917.03)" filter="url(#e)"><path d="M255.245,102.329a18.1,18.1,0,1,1-18.1-18.1,18.1,18.1,0,0,1,18.1,18.1" transform="translate(-47.48 -78.23)" fill="#ffb338"/></g><g transform="translate(-17167.326 -13909.739)" opacity="0.75"><g transform="translate(0 0)"><g clip-path="url(#g)"><path d="M210.97,36.756h0c-27.85,30.227-59.4,48.838-109.06,48.838q-7.268,0-15.069-.539-2.536-.175-5.031-.174c-35.435,0-63.733,26.293-63.733,63.311,0,21.342,9.4,46.246,32.27,71.732,42.865,47.781,99.7,65.939,148.493,65.939,24.5,0,46.97-4.577,64.632-12.279,73.235-31.932,100.044-92.155,100.044-146.141,0-31.5-9.13-60.886-23.492-81.28C320.906,19.014,296.845,8.254,273.681,8.254c-24.053,0-47.139,11.6-62.711,28.5h0c15.572-16.9,38.657-28.5,62.711-28.5,23.164,0,47.225,10.76,66.342,37.907,14.362,20.395,23.492,49.775,23.492,81.28,0,53.986-26.808,114.209-100.044,146.141-17.663,7.7-40.135,12.279-64.632,12.279-48.8,0-105.628-18.158-148.493-65.939-22.865-25.485-32.27-50.39-32.27-71.732,0-37.018,28.3-63.311,63.733-63.311q2.493,0,5.031.174,7.808.542,15.069.539c49.66,0,81.21-18.611,109.06-48.838Z" transform="translate(-17.278 -7.454)" fill="url(#h)"/></g></g></g><rect width="254.232" height="219.531" transform="translate(-17129.811 -13874.102)" fill="none"/><g transform="translate(-17083.137 -13899.057)"><g opacity="0.19" clip-path="url(#i)"><g transform="translate(0 0.001)"><g clip-path="url(#j)"><path d="M526.005,354.418,123.294,564.1,6.468,124.613,409.179-85.067Z" transform="translate(-103.76 -88.056)" fill="#f9d9a2"/></g></g></g></g><g transform="translate(-17084.023 -13866.758)" opacity="0.51" clip-path="url(#k)"><g transform="matrix(1, 0, 0, 1, -83.3, -50.27)" filter="url(#l)"><path d="M0,0H350.325V277.143H0Z" transform="translate(68.14 43.17) rotate(-1.85)" fill="#ffb338"/></g></g><rect width="333.547" height="252.601" transform="translate(-17084.023 -13866.758)" fill="none"/><g transform="translate(-17161.811 -13916.617)" opacity="0.75"><g transform="translate(0 0)"><g clip-path="url(#n)"><path d="M220.16,38.114h0C190.984,69.781,157.931,89.279,105.9,89.279q-7.615,0-15.787-.565-2.657-.184-5.271-.183c-37.124,0-66.769,27.546-66.769,66.327,0,22.359,9.853,48.45,33.807,75.149,44.907,50.057,104.446,69.081,155.567,69.081,25.664,0,49.207-4.795,67.711-12.865,76.724-33.453,104.81-96.546,104.81-153.1,0-33.006-9.565-63.786-24.611-85.153-20.027-28.441-45.235-39.713-69.5-39.713-25.2,0-49.385,12.156-65.7,29.86h0c16.314-17.7,40.5-29.86,65.7-29.86,24.268,0,49.475,11.272,69.5,39.713,15.047,21.367,24.611,52.147,24.611,85.153,0,56.558-28.085,119.65-104.81,153.1-18.5,8.07-42.048,12.865-67.711,12.865-51.121,0-110.661-19.024-155.567-69.081-23.954-26.7-33.807-52.79-33.807-75.149,0-38.781,29.646-66.327,66.769-66.327q2.612,0,5.271.183,8.18.568,15.787.565c52.026,0,85.079-19.5,114.256-51.165Z" transform="translate(-17.24 -7.416)" fill="url(#h)"/></g></g></g><rect width="266.344" height="229.99" transform="translate(-17122.506 -13879.28)" fill="none"/><g transform="translate(-16763.742 -13715.853)"><g transform="translate(0 0)"><g clip-path="url(#c)"><g transform="translate(0.001)"><g clip-path="url(#d)"><rect width="12.755" height="12.755" transform="translate(0)" fill="#ffb338"/></g></g></g></g></g><g transform="matrix(1, 0, 0, 1, -17167.33, -13917.03)" filter="url(#r)"><path d="M262.821,106.117a21.886,21.886,0,1,1-21.886-21.886,21.886,21.886,0,0,1,21.886,21.886" transform="translate(119.08 2.81)" fill="#ffb338"/></g><g transform="matrix(1, 0, 0, 1, -17167.33, -13917.03)" filter="url(#t)"><path d="M255.154,102.284A18.053,18.053,0,1,1,237.1,84.231a18.053,18.053,0,0,1,18.053,18.053" transform="translate(-90.52 123.33)" fill="#ffb338"/></g></g><g transform="translate(830 -10009.337)" clip-path="url(#v)"><g clip-path="url(#w)"><path d="M883.735,78.557H862.956a2.083,2.083,0,1,1,0-4.166h20.779a2.083,2.083,0,0,1,0,4.166m-20.779-2.214a.131.131,0,1,0,0,.262h20.779a.131.131,0,0,0,0-.262Z" transform="translate(-685.832 -59.265)" fill="#55b26a"/><path d="M819.836,35.365V17.482H802.269V35.365a4.5,4.5,0,0,1-1.409,3.276c-4.441,4.2-17.873,18.076-18.179,32.287-.006,0,.067,0,.067.007V82.3a16.868,16.868,0,0,0,2.069,7.913l1.085,1.039a5.537,5.537,0,0,1,.026,7.835,12.11,12.11,0,0,0-1.127,1.052c-1.68,2.186-2.053,5.147-2.053,7.9v61.163a20.276,20.276,0,0,0,1.091,6.594l2.259,6.586a10.494,10.494,0,0,0,12.052,6.867,10.815,10.815,0,0,1,4.288.008c3.49,1.147,4.2,1.737,8.858,1.737,0-2.546.009-2.546.005,0,4.653,0,5.363-.663,8.853-1.81a10.82,10.82,0,0,1,4.277.029,10.458,10.458,0,0,0,12.03-6.849l2.052-6.577a20.018,20.018,0,0,0,.842-6.585V108.044a16.627,16.627,0,0,0-1.815-7.9l-.97-1.052a5.537,5.537,0,0,1-.036-7.835l1-1.039a16.627,16.627,0,0,0,1.82-7.913V70.935s.073,0,.068-.007c-.305-14.211-13.738-28.082-18.179-32.287a4.5,4.5,0,0,1-1.409-3.276" transform="translate(-623.539 -13.927)" fill="#55b26a"/><path d="M861.339,57.417a76.708,76.708,0,0,0-12.286-14.5,4.5,4.5,0,0,1-1.433-3.3V22.282l-7.808.976L832,22.282V39.687a4.51,4.51,0,0,1-1.347,3.223A84.111,84.111,0,0,0,818.78,57.417Z" transform="translate(-652.298 -17.751)" fill="#bce0cc"/></g><g transform="translate(159.21 97.049)"><g clip-path="url(#x)"><rect width="56.675" height="47.496" transform="translate(0 0)" fill="url(#y)"/></g></g><g clip-path="url(#w)"><path d="M839.462,523.888c-11.712,10.4-25.23,3.206-41.3,8.526a35.325,35.325,0,0,0-15.511,10.72v12.953c6.894-11.014,16.857-16.656,34.212-19.483,12.75-2.077,18.694-6.086,22.6-9.6Z" transform="translate(-623.516 -417.366)" fill="#f2f2f2"/><g transform="translate(182.525 41.55)" style="mix-blend-mode:overlay;isolation:isolate"><g clip-path="url(#aa)"><path d="M901.776,206.395a2.048,2.048,0,1,1-2.048-2.048,2.048,2.048,0,0,1,2.048,2.048" transform="translate(-897.68 -204.347)" fill="#fff"/></g></g><g transform="translate(189.426 51.181)" style="mix-blend-mode:overlay;isolation:isolate"><g clip-path="url(#ab)"><path d="M934.264,253.037a1.323,1.323,0,1,1-1.323-1.323,1.323,1.323,0,0,1,1.323,1.323" transform="translate(-931.619 -251.714)" fill="#fff"/></g></g><g transform="translate(188.449 77.185)" style="mix-blend-mode:overlay;isolation:isolate"><g clip-path="url(#ac)"><path d="M932.405,382.4a2.8,2.8,0,1,1-2.8-2.8,2.8,2.8,0,0,1,2.8,2.8" transform="translate(-926.813 -379.607)" fill="#fff"/></g></g><g transform="translate(192.587 69.638)" style="mix-blend-mode:overlay;isolation:isolate"><g clip-path="url(#ad)"><path d="M950.831,344.32A1.832,1.832,0,1,1,949,342.488a1.832,1.832,0,0,1,1.832,1.832" transform="translate(-947.166 -342.488)" fill="#fff"/></g></g><g transform="translate(193.563 44.337)" style="mix-blend-mode:overlay;isolation:isolate"><g clip-path="url(#ae)"><path d="M954.58,219.364a1.307,1.307,0,1,1-1.307-1.307,1.307,1.307,0,0,1,1.307,1.307" transform="translate(-951.966 -218.057)" fill="#fff"/></g></g><g transform="translate(182.235 68.465)" style="mix-blend-mode:overlay;isolation:isolate"><g clip-path="url(#af)"><path d="M899.392,338.287a1.57,1.57,0,1,1-1.569-1.57,1.57,1.57,0,0,1,1.569,1.57" transform="translate(-896.253 -336.717)" fill="#fff"/></g></g><g transform="translate(178.376 59.618)" style="mix-blend-mode:overlay;isolation:isolate"><g clip-path="url(#ag)"><path d="M881.539,295.34a2.133,2.133,0,1,1-2.133-2.133,2.133,2.133,0,0,1,2.133,2.133" transform="translate(-877.273 -293.207)" fill="#fff"/></g></g><g transform="translate(190.635 56.049)" style="mix-blend-mode:overlay;isolation:isolate"><g clip-path="url(#ae)"><path d="M940.18,276.963a1.307,1.307,0,1,1-1.307-1.307,1.307,1.307,0,0,1,1.307,1.307" transform="translate(-937.566 -275.656)" fill="#fff"/></g></g><g transform="translate(187.474 87.984)" style="mix-blend-mode:overlay;isolation:isolate"><g clip-path="url(#ai)"><path d="M926.422,434.917a2.2,2.2,0,1,1-2.2-2.2,2.2,2.2,0,0,1,2.2,2.2" transform="translate(-922.019 -432.716)" fill="#fff"/></g></g><path d="M887.559,81.406H866.78a1.107,1.107,0,1,1,0-2.214h20.779a1.107,1.107,0,1,1,0,2.214" transform="translate(-689.656 -63.09)" fill="#bce0cc"/><g transform="translate(196.455 15.16)" style="mix-blend-mode:multiply;isolation:isolate"><g clip-path="url(#aj)"><path d="M967.9,78.538h-1.712V74.56H967.9a1.785,1.785,0,0,1,1.785,1.785v.408a1.785,1.785,0,0,1-1.785,1.785" transform="translate(-966.191 -74.56)" fill="#e6e6e6"/></g></g><g transform="translate(187.705 13.419)" style="mix-blend-mode:multiply;isolation:isolate"><g clip-path="url(#ak)"><path d="M923.247,110.089l.024-34.166L923.278,66l8.686.006-.006,8a4.5,4.5,0,0,0,1.413,3.284c4.458,4.209,17.938,18.089,18.233,32.3.006,0,.017,0,.017.007l-.008,11.367a16.778,16.778,0,0,1-1.988,7.912l-1.043,1.038a5.537,5.537,0,0,0-.01,7.835l1.051,1.052A16.783,16.783,0,0,1,951.6,146.7l-.043,61.163a20.189,20.189,0,0,1-1.01,6.593l-2.22,6.584a10.47,10.47,0,0,1-12.035,6.859,10.762,10.762,0,0,0-4.277,0c-3.491,1.145-4.2,1.879-8.854,1.876.006-2.546.058-69.313.093-119.693Z" transform="translate(-923.156 -65.995)" fill="#d6e5e4"/></g></g><g transform="translate(192.504 13.419)" style="mix-blend-mode:multiply;isolation:isolate"><g clip-path="url(#al)"><path d="M968.427,128.872a16.78,16.78,0,0,0,1.989-7.912l.008-11.367s-.011,0-.017-.007c-.3-14.2-13.762-28.077-18.227-32.293a4.522,4.522,0,0,1-1.42-3.29l0-3.091,1.445-.039a1.1,1.1,0,0,0,1.074-1.1,1.13,1.13,0,0,0-1.161-1.13l-1.356.037,0-2.677L946.757,66l.013,7.434a10.735,10.735,0,0,0,1.762,5.881c3.681,5.594,11.886,19.265,12.115,30.277.006,0,.017,0,.017.007l-.008,11.367a16.78,16.78,0,0,1-1.989,7.912l-1.042,1.038a5.537,5.537,0,0,0-.01,7.835l1.051,1.052a16.78,16.78,0,0,1,1.972,7.905l-.044,61.163a20.2,20.2,0,0,1-1.01,6.593l-2.22,6.584a10.481,10.481,0,0,1-6.023,6.331,3.335,3.335,0,0,1-.018.427,11.443,11.443,0,0,1,3.766.1,10.47,10.47,0,0,0,12.035-6.859l2.22-6.584a20.194,20.194,0,0,0,1.01-6.593L970.4,146.7a16.78,16.78,0,0,0-1.973-7.905l-1.051-1.052a5.537,5.537,0,0,1,.01-7.835Z" transform="translate(-946.757 -65.995)" fill="#d6e5e4"/></g></g><g transform="translate(163.046 13.314)" style="mix-blend-mode:overlay;isolation:isolate"><g clip-path="url(#am)"><path d="M819.517,65.482v9.1a4.5,4.5,0,0,1-1.408,3.276c-4.441,4.2-15.921,17.1-16.227,31.311-.006,0,.067,0,.067.007v11.367c0,2.761.4,5.714,2.069,7.913.227.3.894,1.4.894,1.4,2.064,2.805,1.433,4.764,0,6.951-.211.322-.675,1.267-.91,1.572-1.68,2.186-2.053,5.147-2.053,7.9v61.163a20.272,20.272,0,0,0,1.091,6.594l2.259,6.586a8.34,8.34,0,0,0,3.159,4.609,7.744,7.744,0,0,0,4.885,1.276,4.137,4.137,0,0,0,1.647-.562,1.111,1.111,0,0,0,.267-1.521,7.846,7.846,0,0,0-.642-.976,15.276,15.276,0,0,1-1.948-3.412l-1.818-6a20.274,20.274,0,0,1-1.091-6.594V146.284c0-2.757-.913-6,.416-8.412a8.2,8.2,0,0,0,.939-6.7s-.226-.784-.626-2c-.861-2.623-.729-5.866-.729-8.627V109.175s-.073,0-.067-.007c.305-14.211,6.906-27.106,11.347-31.311a4.5,4.5,0,0,0,1.408-3.276v-9.1Z" transform="translate(-801.882 -65.482)" fill="#fff"/></g></g><path d="M885.531,2.129H875.483a5.621,5.621,0,0,0-5.62,5.62v6.6a.809.809,0,0,0,.809.809h19.672a.809.809,0,0,0,.809-.809v-6.6a5.62,5.62,0,0,0-5.62-5.62" transform="translate(-692.993 -1.696)" fill="#253791"/><g transform="translate(187.643 0.986)" style="mix-blend-mode:multiply;isolation:isolate"><g clip-path="url(#an)"><path d="M927.747,4.85h-4.895V17.538h9.706a1.228,1.228,0,0,0,1.03-1.022V9.909c0-3.107-2.737-5.059-5.841-5.059" transform="translate(-922.852 -4.85)" fill="#e6e6e6"/></g></g><g transform="translate(176.869 16.64)" style="mix-blend-mode:overlay;isolation:isolate"><g clip-path="url(#ao)"><path d="M871.8,82.417c0,.322-.433.582-.967.582s-.967-.261-.967-.582.433-.582.967-.582.967.261.967.582" transform="translate(-869.862 -81.835)" fill="#fff"/></g></g><g transform="translate(178.084 1.608)" style="mix-blend-mode:overlay;isolation:isolate"><g clip-path="url(#ap)"><path d="M879.283,11.441c-.788.788-2.247,2.023-3.058,1.211s-.209-2.88.578-3.668,2.963-1.541,3.774-.729-.507,2.4-1.295,3.186" transform="translate(-875.839 -7.906)" fill="#a0a0a0"/></g></g><path d="M1211.155,35.315V17.432h-17.568l.13,17.9a4.254,4.254,0,0,1-1.344,3.191c-4.44,4.2-18.068,18.14-18.373,32.351-.006,0,.067,0,.067.007V82.252a16.868,16.868,0,0,0,2.069,7.913l1.085,1.039a5.537,5.537,0,0,1,.026,7.834,12.118,12.118,0,0,0-1.127,1.052c-1.68,2.186-2.053,5.147-2.053,7.9v61.163a20.274,20.274,0,0,0,1.091,6.594l2.259,6.586a10.494,10.494,0,0,0,12.052,6.867,10.815,10.815,0,0,1,4.288.008c3.49,1.147,4.2,1.737,8.858,1.737,0-2.546.009-2.546.005,0,4.653,0,5.363-.663,8.852-1.81a10.821,10.821,0,0,1,4.278.029,10.458,10.458,0,0,0,12.03-6.849l2.052-6.577a20.01,20.01,0,0,0,.842-6.585V107.994a16.627,16.627,0,0,0-1.815-7.9l-.97-1.052a5.537,5.537,0,0,1-.036-7.834l1-1.039a16.627,16.627,0,0,0,1.82-7.913V70.885s.073,0,.068-.007c-.305-14.211-13.738-28.082-18.179-32.287a4.5,4.5,0,0,1-1.408-3.276" transform="translate(-935.291 -13.888)" fill="#232323"/><path d="M1203.621,53.4c4.084-6.832,9.883-12.276,12.341-14.687a5,5,0,0,0,1.412-3.4V17.9l7.808.976,7.808-.976V35.234a4.843,4.843,0,0,0,1.369,3.48A70.281,70.281,0,0,1,1246.58,53.4h1.151l-.323-.7a78.245,78.245,0,0,0-12.385-14.791,3.679,3.679,0,0,1-1.056-2.674V16.8l-1.162.137-7.719.961-7.638-.961L1216.4,16.8V35.306a5.228,5.228,0,0,1-1.12,2.527l-.224.187A77.282,77.282,0,0,0,1202.809,52.7l-.339.7Z" transform="translate(-957.972 -13.38)" fill="#ced8d8"/><path d="M1275.054,75.318a1.107,1.107,0,1,1,0,2.214h-20.779a1.107,1.107,0,1,1,0-2.214Zm0-.976h-20.779a2.083,2.083,0,1,0,0,4.166h20.779a2.083,2.083,0,1,0,0-4.166" transform="translate(-997.584 -59.226)" fill="#ced8d8"/><path d="M1203.8,55.69l.466-.746a81.431,81.431,0,0,1,12.156-14.409l.193-.189a3.992,3.992,0,0,0,1.2-2.874V19.514l8.3,1.037,8.3-1.037V37.4a4.02,4.02,0,0,0,1.277,2.942,76.565,76.565,0,0,1,12.367,14.6l.466.746Z" transform="translate(-959.032 -15.546)" fill="#e3f4ef"/><rect width="56.675" height="47.496" transform="translate(238.777 97.039)" fill="#e34844"/><path d="M1231.577,523.838c-11.712,10.4-25.23,3.206-41.3,8.526a34.691,34.691,0,0,0-15.308,10.72v12.953c6.832-10.916,17.258-16.755,34.009-19.483,12.75-2.077,18.694-6.087,22.6-9.6Z" transform="translate(-936.064 -417.326)" fill="#f9f9f9"/><g transform="translate(262.092 41.54)" style="mix-blend-mode:soft-light;isolation:isolate"><g clip-path="url(#aq)"><path d="M1293.094,206.346a2.048,2.048,0,1,1-2.048-2.048,2.048,2.048,0,0,1,2.048,2.048" transform="translate(-1288.999 -204.298)" fill="#fff"/></g></g><g transform="translate(268.993 51.171)" style="mix-blend-mode:overlay;isolation:isolate"><g clip-path="url(#ab)"><path d="M1325.582,252.987a1.323,1.323,0,1,1-1.323-1.323,1.323,1.323,0,0,1,1.323,1.323" transform="translate(-1322.938 -251.664)" fill="#fff"/></g></g><g transform="translate(268.015 77.175)" style="mix-blend-mode:overlay;isolation:isolate"><g clip-path="url(#ac)"><path d="M1323.724,382.353a2.8,2.8,0,1,1-2.8-2.8,2.8,2.8,0,0,1,2.8,2.8" transform="translate(-1318.131 -379.557)" fill="#fff"/></g></g><g transform="translate(272.153 69.628)" style="mix-blend-mode:overlay;isolation:isolate"><g clip-path="url(#at)"><path d="M1342.15,344.271a1.832,1.832,0,1,1-1.832-1.832,1.832,1.832,0,0,1,1.832,1.832" transform="translate(-1338.484 -342.439)" fill="#fff"/></g></g><g transform="translate(273.129 44.327)" style="mix-blend-mode:overlay;isolation:isolate"><g clip-path="url(#au)"><path d="M1345.9,219.314a1.307,1.307,0,1,1-1.307-1.307,1.307,1.307,0,0,1,1.307,1.307" transform="translate(-1343.283 -218.007)" fill="#fff"/></g></g><g transform="translate(261.801 68.454)" style="mix-blend-mode:soft-light;isolation:isolate"><g clip-path="url(#af)"><path d="M1290.711,338.236a1.57,1.57,0,1,1-1.569-1.569,1.57,1.57,0,0,1,1.569,1.569" transform="translate(-1287.572 -336.667)" fill="#fff"/></g></g><g transform="translate(257.942 59.608)" style="mix-blend-mode:soft-light;isolation:isolate"><g clip-path="url(#ag)"><path d="M1272.857,295.29a2.133,2.133,0,1,1-2.133-2.133,2.133,2.133,0,0,1,2.133,2.133" transform="translate(-1268.591 -293.157)" fill="#fff"/></g></g><g transform="translate(270.201 56.039)" style="mix-blend-mode:overlay;isolation:isolate"><g clip-path="url(#au)"><path d="M1331.5,276.914a1.307,1.307,0,1,1-1.307-1.307,1.307,1.307,0,0,1,1.307,1.307" transform="translate(-1328.883 -275.607)" fill="#fff"/></g></g><g transform="translate(267.041 87.974)" style="mix-blend-mode:overlay;isolation:isolate"><g clip-path="url(#ay)"><path d="M1317.74,434.868a2.2,2.2,0,1,1-2.2-2.2,2.2,2.2,0,0,1,2.2,2.2" transform="translate(-1313.338 -432.667)" fill="#fff"/></g></g><path d="M1278.878,81.357H1258.1a1.107,1.107,0,1,1,0-2.214h20.779a1.107,1.107,0,1,1,0,2.214" transform="translate(-1001.408 -63.051)" fill="#eaf9f4"/><g transform="translate(276.022 15.15)" style="mix-blend-mode:multiply;isolation:isolate"><g clip-path="url(#aj)"><path d="M1359.221,78.488h-1.712V74.51h1.712a1.785,1.785,0,0,1,1.785,1.785V76.7a1.785,1.785,0,0,1-1.785,1.785" transform="translate(-1357.509 -74.51)" fill="#e6e6e6"/></g></g><g transform="translate(267.33 13.419)" style="mix-blend-mode:multiply;isolation:isolate"><g clip-path="url(#ba)"><path d="M1314.766,110.088V65.994h8.686v8a4.5,4.5,0,0,0,1.416,3.283c4.461,4.205,17.95,18.076,18.256,32.286.006,0,.017,0,.017.007v11.366a16.778,16.778,0,0,1-1.983,7.913l-1.042,1.039a5.537,5.537,0,0,0,0,7.834l1.051,1.052a16.781,16.781,0,0,1,1.978,7.9v61.163a20.2,20.2,0,0,1-1.005,6.593l-2.216,6.586a10.47,10.47,0,0,1-12.03,6.867,10.765,10.765,0,0,0-4.277.007c-3.49,1.147-4.2,1.882-8.853,1.882,0-2.546.009-69.313.008-119.693Z" transform="translate(-1314.76 -65.994)" fill="#d8e7e5"/></g></g><g transform="translate(242.613 13.304)" style="mix-blend-mode:screen;isolation:isolate"><g clip-path="url(#am)"><g style="mix-blend-mode:overlay;isolation:isolate"><g clip-path="url(#am)"><path d="M1210.836,65.433v9.1a4.5,4.5,0,0,1-1.408,3.276c-4.44,4.2-15.921,17.1-16.227,31.311-.006,0,.067,0,.067.007v11.367c0,2.761.4,5.714,2.069,7.913.227.3.894,1.4.894,1.4,2.064,2.805,1.433,4.764,0,6.951-.211.322-.675,1.267-.91,1.572-1.68,2.186-2.053,5.147-2.053,7.9V207.4a20.269,20.269,0,0,0,1.091,6.594l2.259,6.586a8.34,8.34,0,0,0,3.158,4.609,7.744,7.744,0,0,0,4.885,1.276,4.136,4.136,0,0,0,1.646-.562,1.111,1.111,0,0,0,.267-1.521,7.856,7.856,0,0,0-.642-.976,15.269,15.269,0,0,1-1.948-3.412l-1.817-6a20.269,20.269,0,0,1-1.091-6.594V146.235c0-2.757-.913-6,.416-8.412a8.2,8.2,0,0,0,.939-6.7s-.226-.784-.626-2c-.861-2.623-.729-5.866-.729-8.627V109.126s-.073,0-.067-.007c.305-14.211,6.906-27.106,11.347-31.311a4.5,4.5,0,0,0,1.408-3.276v-9.1Z" transform="translate(-1193.2 -65.433)" fill="#918c8c"/></g></g></g></g><path d="M1276.849,2.08H1266.8a5.62,5.62,0,0,0-5.62,5.62v6.6a.809.809,0,0,0,.809.809h19.672a.809.809,0,0,0,.809-.809V7.7a5.62,5.62,0,0,0-5.62-5.62" transform="translate(-1004.745 -1.657)" fill="#e34844"/><g transform="translate(267.21)" style="mix-blend-mode:multiply;isolation:isolate"><g clip-path="url(#bd)"><path d="M1319.065,0h-4.895V13.664h9.706a1.238,1.238,0,0,0,1.03-1.038V5.914A6.033,6.033,0,0,0,1319.065,0" transform="translate(-1314.17)" fill="#e6e6da"/></g></g><g transform="translate(256.435 16.63)" style="mix-blend-mode:overlay;isolation:isolate"><g clip-path="url(#be)"><path d="M1262.344,82.368a.582.582,0,1,1-.582-.582.582.582,0,0,1,.582.582" transform="translate(-1261.18 -81.786)" fill="#fff"/></g></g><g transform="translate(257.651 1.597)" style="mix-blend-mode:overlay;isolation:isolate"><g clip-path="url(#bf)"><path d="M1270.6,11.392c-.788.788-2.246,2.023-3.058,1.211s-.209-2.88.578-3.668,2.963-1.541,3.774-.729-.507,2.4-1.295,3.186" transform="translate(-1267.158 -7.857)" fill="#c4c4c4"/></g></g><g transform="translate(272.072 13.409)" style="mix-blend-mode:multiply;isolation:isolate"><g clip-path="url(#bg)"><path d="M1359.747,128.823a16.778,16.778,0,0,0,1.989-7.912l.008-11.367s-.011,0-.017-.007c-.3-14.2-13.762-28.077-18.227-32.293a4.523,4.523,0,0,1-1.42-3.29l0-3.091,1.445-.039a1.1,1.1,0,0,0,1.074-1.1,1.13,1.13,0,0,0-1.161-1.13l-1.356.037,0-2.677-4.01-.006.013,7.434a10.734,10.734,0,0,0,1.762,5.881c3.681,5.594,11.886,19.265,12.115,30.277.006,0,.017,0,.017.007l-.008,11.367a16.778,16.778,0,0,1-1.989,7.912l-1.042,1.038a5.537,5.537,0,0,0-.01,7.835l1.051,1.052a16.781,16.781,0,0,1,1.973,7.905l-.043,61.163a20.193,20.193,0,0,1-1.01,6.593l-2.22,6.584a10.482,10.482,0,0,1-6.023,6.331,3.346,3.346,0,0,1-.018.427,11.445,11.445,0,0,1,3.766.1,10.47,10.47,0,0,0,12.035-6.859l2.22-6.584a20.2,20.2,0,0,0,1.01-6.593l.044-61.163a16.781,16.781,0,0,0-1.973-7.905l-1.051-1.052a5.537,5.537,0,0,1,.01-7.835Z" transform="translate(-1338.077 -65.945)" fill="#e2d9d3"/></g></g><path d="M492.387,78.508H471.608a2.083,2.083,0,1,1,0-4.166h20.779a2.083,2.083,0,0,1,0,4.166m-20.779-2.214a.131.131,0,1,0,0,.262h20.779a.131.131,0,0,0,0-.262Z" transform="translate(-374.057 -59.226)" fill="#f79a11"/><path d="M428.488,35.315V17.432H410.921V35.315a4.5,4.5,0,0,1-1.408,3.276c-4.44,4.2-17.873,18.076-18.178,32.287-.006,0,.067,0,.067.007V82.252a16.868,16.868,0,0,0,2.069,7.913l1.085,1.039a5.537,5.537,0,0,1,.026,7.834,12.117,12.117,0,0,0-1.127,1.052c-1.68,2.186-2.053,5.147-2.053,7.9v61.163a20.275,20.275,0,0,0,1.091,6.594l2.259,6.586A10.5,10.5,0,0,0,406.8,189.2a10.815,10.815,0,0,1,4.288.008c3.49,1.147,4.2,1.737,8.858,1.737,0-2.546.009-2.546.005,0,4.653,0,5.363-.663,8.853-1.81a10.82,10.82,0,0,1,4.277.029,10.458,10.458,0,0,0,12.03-6.849l2.052-6.577a20.017,20.017,0,0,0,.842-6.585V107.994a16.627,16.627,0,0,0-1.815-7.9l-.97-1.052a5.537,5.537,0,0,1-.036-7.834l1-1.039a16.627,16.627,0,0,0,1.82-7.913V70.885s.073,0,.068-.007C447.77,56.667,434.337,42.8,429.9,38.591a4.5,4.5,0,0,1-1.408-3.276" transform="translate(-311.764 -13.888)" fill="#ffa410"/><path d="M469.991,57.368a76.7,76.7,0,0,0-12.286-14.5,4.5,4.5,0,0,1-1.433-3.3V22.233l-7.808.976-7.808-.976V39.638a4.509,4.509,0,0,1-1.347,3.223,84.123,84.123,0,0,0-11.876,14.507Z" transform="translate(-340.522 -17.712)" fill="#edede7"/><rect width="56.675" height="47.496" transform="translate(79.637 97.039)" fill="#e34844"/><path d="M448.911,523.838c-11.712,10.4-25.23,3.206-41.3,8.526a34.69,34.69,0,0,0-15.307,10.72v12.953c6.832-10.916,17.258-16.755,34.009-19.483,12.75-2.077,18.694-6.087,22.6-9.6Z" transform="translate(-312.537 -417.326)" fill="#f9f9f9"/></g><g transform="translate(79.638 97.039)"><g clip-path="url(#x)"><path d="M499.52,517.346a24.254,24.254,0,1,1-32.779,10.092,24.253,24.253,0,0,1,32.779-10.092m7.688,31.51a21.534,21.534,0,1,0-29.108,8.96,21.535,21.535,0,0,0,29.108-8.96" transform="translate(-449.227 -506.945)" fill="#ffa004"/><path d="M508.9,530.4a21.535,21.535,0,1,1-29.105,8.961A21.535,21.535,0,0,1,508.9,530.4" transform="translate(-459.88 -517.598)" fill="#fff"/></g></g><g transform="translate(101.569 110.598)"><g clip-path="url(#bi)"><rect width="19.947" height="19.023" transform="translate(-3.129 16.738) rotate(-79.561)" fill="url(#bj)"/></g></g><g transform="translate(79.638 97.039)"><g clip-path="url(#x)"><path d="M508.8,543.54a1.028,1.028,0,0,1,1.284.677l4.755,15.439a.6.6,0,0,1-.05.489.65.65,0,0,1-.368.295.6.6,0,0,1-.468-.048l-14.319-7.523a1.01,1.01,0,0,1-.508-.637,1.027,1.027,0,0,1,.123-.819,19.375,19.375,0,0,1,9.479-7.847l.072-.025m-.089-.289c-.031.01-.062.02-.092.032a19.779,19.779,0,0,0-9.626,7.969,1.33,1.33,0,0,0,.5,1.884l14.32,7.524a.907.907,0,0,0,.7.069.925.925,0,0,0,.619-1.161l-4.755-15.439a1.329,1.329,0,0,0-1.662-.877" transform="translate(-477.008 -529.784)" fill="#fff"/></g></g><g transform="translate(98.785 120.665)"><g clip-path="url(#bl)"><rect width="17.133" height="20.705" transform="matrix(0.181, -0.983, 0.983, 0.181, -2.949, 13.558)" fill="url(#bm)"/></g></g><g transform="translate(79.638 97.039)"><g clip-path="url(#x)"><path d="M487.111,593.548a1.028,1.028,0,0,1,1.387-.43l14.279,7.555a.6.6,0,0,1,.31.381.649.649,0,0,1-.052.469.6.6,0,0,1-.365.3l-15.445,4.805a1.01,1.01,0,0,1-.81-.091,1.026,1.026,0,0,1-.492-.666,19.372,19.372,0,0,1,1.154-12.252c.01-.023.021-.046.033-.069m-.267-.141q-.023.043-.043.088a19.781,19.781,0,0,0-1.172,12.441,1.33,1.33,0,0,0,1.686.978l15.446-4.805a.907.907,0,0,0,.542-.444.925.925,0,0,0-.384-1.259l-14.279-7.555a1.33,1.33,0,0,0-1.8.555" transform="translate(-466.118 -569.223)" fill="#fff"/></g></g><g transform="translate(100.269 130.255)"><g clip-path="url(#bo)"><rect width="17.205" height="19.744" transform="translate(-2.683 13.811) rotate(-79.561)" fill="url(#bp)"/></g></g><g transform="translate(79.638 97.039)"><g clip-path="url(#x)"><path d="M492.741,646.234a1.028,1.028,0,0,1,.677-1.284l15.439-4.755a.6.6,0,0,1,.489.05.649.649,0,0,1,.295.368.6.6,0,0,1-.048.468L502.07,655.4a1.011,1.011,0,0,1-.637.508,1.027,1.027,0,0,1-.819-.123,19.373,19.373,0,0,1-7.847-9.479c-.009-.024-.018-.048-.025-.072m-.289.089c.01.031.02.062.032.093a19.779,19.779,0,0,0,7.969,9.626,1.331,1.331,0,0,0,1.884-.5l7.524-14.32a.907.907,0,0,0,.069-.7.925.925,0,0,0-1.161-.618l-15.439,4.755a1.33,1.33,0,0,0-.877,1.662" transform="translate(-471.913 -606.799)" fill="#fff"/></g></g><g transform="translate(111.15 131.126)"><g clip-path="url(#br)"><rect width="15.417" height="14.53" transform="translate(-2.389 12.969) rotate(-79.561)" fill="url(#bs)"/></g></g><g transform="translate(79.638 97.039)"><g clip-path="url(#x)"><path d="M542.75,660.448a1.028,1.028,0,0,1-.43-1.387l7.555-14.279a.6.6,0,0,1,.381-.31.649.649,0,0,1,.469.052.6.6,0,0,1,.3.365l4.805,15.445a1.01,1.01,0,0,1-.092.81,1.026,1.026,0,0,1-.666.492,19.372,19.372,0,0,1-12.251-1.154c-.023-.01-.046-.021-.069-.033m-.142.267c.029.015.058.029.088.043a19.782,19.782,0,0,0,12.441,1.172,1.331,1.331,0,0,0,.979-1.686L551.311,644.8a.907.907,0,0,0-.444-.542.925.925,0,0,0-1.259.384l-7.555,14.279a1.33,1.33,0,0,0,.555,1.8" transform="translate(-511.352 -610.213)" fill="#fff"/></g></g><g transform="translate(119.926 130.361)"><g clip-path="url(#bu)"><rect width="16.866" height="18.455" transform="translate(-2.554 13.708) rotate(-79.561)" fill="url(#bv)"/></g></g><g transform="translate(79.638 97.039)"><g clip-path="url(#x)"><path d="M595.435,657.619a1.028,1.028,0,0,1-1.284-.677L589.4,641.5a.6.6,0,0,1,.05-.489.65.65,0,0,1,.368-.295.6.6,0,0,1,.468.048L604.6,648.29a1.012,1.012,0,0,1,.508.637,1.026,1.026,0,0,1-.123.819,19.372,19.372,0,0,1-9.479,7.847c-.024.009-.048.018-.072.025m.089.289c.031-.01.062-.02.092-.032a19.779,19.779,0,0,0,9.626-7.968,1.33,1.33,0,0,0-.5-1.884l-14.32-7.524a.906.906,0,0,0-.7-.069.925.925,0,0,0-.619,1.161l4.755,15.439a1.33,1.33,0,0,0,1.662.877" transform="translate(-548.927 -607.219)" fill="#fff"/></g></g><g transform="translate(120.797 123.796)"><g clip-path="url(#bx)"><rect width="16.393" height="17.785" transform="translate(-2.485 13.352) rotate(-79.561)" fill="url(#by)"/></g></g><g transform="translate(79.638 97.039)"><g clip-path="url(#x)"><path d="M609.649,620.541a1.028,1.028,0,0,1-1.387.429l-14.279-7.555a.6.6,0,0,1-.31-.381.648.648,0,0,1,.052-.469.6.6,0,0,1,.365-.3l15.445-4.805a1.012,1.012,0,0,1,.81.092,1.026,1.026,0,0,1,.492.666,19.374,19.374,0,0,1-1.154,12.251c-.01.023-.022.046-.033.069m.267.141c.015-.029.029-.058.043-.088a19.781,19.781,0,0,0,1.172-12.441,1.331,1.331,0,0,0-1.686-.979L594,611.98a.907.907,0,0,0-.542.444.925.925,0,0,0,.384,1.259l14.279,7.555a1.33,1.33,0,0,0,1.8-.556" transform="translate(-552.341 -580.71)" fill="#fff"/></g></g><g transform="translate(120.032 111.898)"><g clip-path="url(#ca)"><rect width="18.799" height="18.96" transform="translate(-2.902 15.581) rotate(-79.561)" fill="url(#cb)"/></g></g><g transform="translate(79.638 97.039)"><g clip-path="url(#x)"><path d="M606.82,559.6a1.028,1.028,0,0,1-.677,1.284L590.7,565.64a.6.6,0,0,1-.489-.05.65.65,0,0,1-.295-.368.6.6,0,0,1,.048-.468l7.523-14.319a1.01,1.01,0,0,1,.637-.508,1.028,1.028,0,0,1,.819.123,19.377,19.377,0,0,1,7.847,9.479c.009.024.017.048.025.072m.289-.089c-.01-.031-.02-.062-.032-.092a19.779,19.779,0,0,0-7.969-9.626,1.331,1.331,0,0,0-1.884.5l-7.524,14.32a.907.907,0,0,0-.069.7.925.925,0,0,0,1.161.618l15.439-4.755a1.329,1.329,0,0,0,.877-1.662" transform="translate(-549.348 -534.88)" fill="#fff"/></g></g><g transform="translate(113.267 109.114)"><g clip-path="url(#cd)"><rect width="20.291" height="17.215" transform="translate(-3.255 17.428) rotate(-79.561)" fill="url(#ce)"/></g></g><g transform="translate(79.638 97.039)"><g clip-path="url(#x)"><path d="M569.743,537.909a1.028,1.028,0,0,1,.429,1.387l-7.555,14.279a.6.6,0,0,1-.381.31.649.649,0,0,1-.469-.052.6.6,0,0,1-.3-.365l-4.805-15.445a1.01,1.01,0,0,1,.091-.81,1.027,1.027,0,0,1,.666-.492,19.375,19.375,0,0,1,12.252,1.154l.069.033m.141-.267c-.029-.015-.058-.029-.088-.043a19.782,19.782,0,0,0-12.441-1.172,1.33,1.33,0,0,0-.978,1.686l4.805,15.445a.906.906,0,0,0,.444.542.925.925,0,0,0,1.259-.384l7.555-14.279a1.329,1.329,0,0,0-.556-1.8" transform="translate(-522.839 -523.989)" fill="#fff"/></g></g><g clip-path="url(#w)"><g transform="translate(102.952 41.54)" style="mix-blend-mode:overlay;isolation:isolate"><g clip-path="url(#ch)"><path d="M510.428,206.346a2.048,2.048,0,1,1-2.048-2.048,2.048,2.048,0,0,1,2.048,2.048" transform="translate(-506.332 -204.298)" fill="#fff"/></g></g><g transform="translate(109.853 51.171)" style="mix-blend-mode:overlay;isolation:isolate"><g clip-path="url(#ab)"><path d="M542.916,252.987a1.323,1.323,0,1,1-1.323-1.323,1.323,1.323,0,0,1,1.323,1.323" transform="translate(-540.271 -251.664)" fill="#fff"/></g></g><g transform="translate(108.876 77.175)" style="mix-blend-mode:overlay;isolation:isolate"><g clip-path="url(#ac)"><path d="M541.057,382.353a2.8,2.8,0,1,1-2.8-2.8,2.8,2.8,0,0,1,2.8,2.8" transform="translate(-535.465 -379.557)" fill="#fff"/></g></g><g transform="translate(113.014 69.628)" style="mix-blend-mode:overlay;isolation:isolate"><g clip-path="url(#ad)"><path d="M559.483,344.271a1.832,1.832,0,1,1-1.832-1.832,1.832,1.832,0,0,1,1.832,1.832" transform="translate(-555.818 -342.439)" fill="#fff"/></g></g><g transform="translate(113.99 44.327)" style="mix-blend-mode:overlay;isolation:isolate"><g clip-path="url(#ae)"><path d="M563.232,219.314a1.307,1.307,0,1,1-1.307-1.307,1.307,1.307,0,0,1,1.307,1.307" transform="translate(-560.618 -218.007)" fill="#fff"/></g></g><g transform="translate(102.662 68.454)" style="mix-blend-mode:overlay;isolation:isolate"><g clip-path="url(#af)"><path d="M508.044,338.236a1.57,1.57,0,1,1-1.569-1.569,1.57,1.57,0,0,1,1.569,1.569" transform="translate(-504.905 -336.667)" fill="#fff"/></g></g><g transform="translate(98.803 59.608)" style="mix-blend-mode:overlay;isolation:isolate"><g clip-path="url(#ag)"><path d="M490.19,295.29a2.133,2.133,0,1,1-2.133-2.133,2.133,2.133,0,0,1,2.133,2.133" transform="translate(-485.924 -293.157)" fill="#fff"/></g></g><g transform="translate(111.062 56.039)" style="mix-blend-mode:overlay;isolation:isolate"><g clip-path="url(#ae)"><path d="M548.832,276.914a1.307,1.307,0,1,1-1.307-1.307,1.307,1.307,0,0,1,1.307,1.307" transform="translate(-546.218 -275.607)" fill="#fff"/></g></g><g transform="translate(107.901 87.974)" style="mix-blend-mode:overlay;isolation:isolate"><g clip-path="url(#ai)"><path d="M535.074,434.868a2.2,2.2,0,1,1-2.2-2.2,2.2,2.2,0,0,1,2.2,2.2" transform="translate(-530.671 -432.667)" fill="#fff"/></g></g><path d="M496.211,81.357H475.432a1.107,1.107,0,1,1,0-2.214h20.779a1.107,1.107,0,1,1,0,2.214" transform="translate(-377.881 -63.051)" fill="#efefef"/><g transform="translate(116.883 15.15)" style="mix-blend-mode:multiply;isolation:isolate"><g clip-path="url(#aj)"><path d="M576.554,78.488h-1.712V74.51h1.712a1.785,1.785,0,0,1,1.785,1.785V76.7a1.785,1.785,0,0,1-1.785,1.785" transform="translate(-574.842 -74.51)" fill="#e6e6e6"/></g></g><g transform="translate(108.191 13.419)" style="mix-blend-mode:multiply;isolation:isolate"><g clip-path="url(#ba)"><path d="M532.1,110.088V65.994h8.686v8A4.5,4.5,0,0,0,542.2,77.28c4.461,4.205,17.951,18.076,18.256,32.286.006,0,.017,0,.017.007v11.366a16.778,16.778,0,0,1-1.983,7.913l-1.042,1.039a5.537,5.537,0,0,0,0,7.834l1.051,1.052a16.781,16.781,0,0,1,1.978,7.9v61.163a20.19,20.19,0,0,1-1.005,6.593l-2.216,6.586a10.47,10.47,0,0,1-12.03,6.867,10.765,10.765,0,0,0-4.277.007c-3.49,1.147-4.2,1.882-8.853,1.882,0-2.546.009-69.313.008-119.693Z" transform="translate(-532.093 -65.994)" fill="#e6e6da"/></g></g><g transform="translate(83.474 13.304)" style="mix-blend-mode:screen;isolation:isolate"><g clip-path="url(#am)"><g style="mix-blend-mode:overlay;isolation:isolate"><g clip-path="url(#am)"><path d="M428.169,65.433v9.1a4.5,4.5,0,0,1-1.408,3.276c-4.441,4.2-15.921,17.1-16.227,31.311-.006,0,.067,0,.067.007v11.367c0,2.761.4,5.714,2.069,7.913.227.3.894,1.4.894,1.4,2.064,2.805,1.433,4.764,0,6.951-.211.322-.675,1.267-.91,1.572-1.68,2.186-2.053,5.147-2.053,7.9V207.4a20.272,20.272,0,0,0,1.091,6.594l2.259,6.586a8.34,8.34,0,0,0,3.159,4.609,7.744,7.744,0,0,0,4.885,1.276,4.137,4.137,0,0,0,1.647-.562,1.111,1.111,0,0,0,.267-1.521,7.842,7.842,0,0,0-.642-.976,15.275,15.275,0,0,1-1.948-3.412l-1.818-6a20.273,20.273,0,0,1-1.091-6.594V146.235c0-2.757-.913-6,.416-8.412a8.2,8.2,0,0,0,.939-6.7s-.226-.784-.626-2c-.861-2.623-.729-5.866-.729-8.627V109.126s-.073,0-.067-.007c.305-14.211,6.906-27.106,11.347-31.311a4.5,4.5,0,0,0,1.408-3.276v-9.1Z" transform="translate(-410.533 -65.433)" fill="#918c8c"/></g></g></g></g><path d="M494.183,2.08H484.134a5.62,5.62,0,0,0-5.62,5.62v6.6a.809.809,0,0,0,.809.809h19.672a.809.809,0,0,0,.809-.809V7.7a5.621,5.621,0,0,0-5.62-5.62" transform="translate(-381.218 -1.657)" fill="#ef7700"/><g transform="translate(108.071 0.976)" style="mix-blend-mode:multiply;isolation:isolate"><g clip-path="url(#an)"><path d="M536.4,4.8H531.5V17.488h9.706a1.228,1.228,0,0,0,1.03-1.022V9.859c0-3.107-2.737-5.059-5.841-5.059" transform="translate(-531.504 -4.8)" fill="#e6e6da"/></g></g><g transform="translate(97.296 16.63)" style="mix-blend-mode:overlay;isolation:isolate"><g clip-path="url(#cv)"><path d="M479.678,82.368a.582.582,0,1,1-.582-.582.582.582,0,0,1,.582.582" transform="translate(-478.514 -81.786)" fill="#fff"/></g></g><g transform="translate(98.511 1.597)" style="mix-blend-mode:overlay;isolation:isolate"><g clip-path="url(#ap)"><path d="M487.934,11.392c-.788.788-2.246,2.023-3.058,1.211s-.209-2.88.578-3.668,2.963-1.541,3.774-.729-.507,2.4-1.295,3.186" transform="translate(-484.491 -7.857)" fill="#afafaf"/></g></g><g transform="translate(112.931 13.409)" style="mix-blend-mode:multiply;isolation:isolate"><g clip-path="url(#cx)"><path d="M577.08,128.823a16.781,16.781,0,0,0,1.989-7.912l.008-11.367s-.011,0-.017-.007c-.3-14.2-13.762-28.077-18.227-32.293a4.522,4.522,0,0,1-1.42-3.29l0-3.091,1.445-.039a1.1,1.1,0,0,0,1.074-1.1,1.13,1.13,0,0,0-1.161-1.13l-1.356.037,0-2.677-4.01-.006.013,7.434a10.736,10.736,0,0,0,1.762,5.881c3.681,5.594,11.887,19.265,12.115,30.277.006,0,.017,0,.017.007l-.008,11.367a16.781,16.781,0,0,1-1.989,7.912l-1.042,1.038a5.537,5.537,0,0,0-.01,7.835l1.051,1.052a16.781,16.781,0,0,1,1.972,7.905l-.043,61.163a20.2,20.2,0,0,1-1.01,6.593l-2.22,6.584a10.482,10.482,0,0,1-6.023,6.331,3.346,3.346,0,0,1-.018.427,11.444,11.444,0,0,1,3.766.1,10.47,10.47,0,0,0,12.035-6.859l2.22-6.584a20.2,20.2,0,0,0,1.01-6.593l.043-61.163a16.78,16.78,0,0,0-1.972-7.905l-1.051-1.052a5.537,5.537,0,0,1,.01-7.835Z" transform="translate(-555.409 -65.945)" fill="#e2e0d0"/></g></g><path d="M101.054,90.508H80.275a2.083,2.083,0,1,1,0-4.166h20.779a2.083,2.083,0,0,1,0,4.166M80.275,88.294a.131.131,0,1,0,0,.262h20.779a.131.131,0,0,0,0-.262Z" transform="translate(-62.293 -68.786)" fill="#a9e0ff"/><path d="M37.155,35.315V17.432H19.588V35.315a4.5,4.5,0,0,1-1.408,3.276C13.739,42.8.306,56.667,0,70.878c-.006,0,.067,0,.067.007V82.252a16.868,16.868,0,0,0,2.069,7.913L3.222,91.2a5.537,5.537,0,0,1,.026,7.834,12.115,12.115,0,0,0-1.127,1.052c-1.68,2.186-2.053,5.147-2.053,7.9v61.163a20.275,20.275,0,0,0,1.091,6.594l2.259,6.586A10.5,10.5,0,0,0,15.47,189.2a10.815,10.815,0,0,1,4.288.008c3.49,1.147,4.2,1.737,8.858,1.737,0-2.546.009-2.546.005,0,4.653,0,5.363-.663,8.853-1.81a10.82,10.82,0,0,1,4.277.029,10.458,10.458,0,0,0,12.03-6.849l2.052-6.577a20.017,20.017,0,0,0,.842-6.585V107.994a16.627,16.627,0,0,0-1.815-7.9l-.97-1.052a5.537,5.537,0,0,1-.036-7.834l1-1.039a16.627,16.627,0,0,0,1.82-7.913V70.885s.073,0,.068-.007C56.437,56.667,43,42.8,38.564,38.591a4.5,4.5,0,0,1-1.408-3.276" transform="translate(0 -13.888)" fill="#a9e0ff"/><path d="M78.658,57.368a76.7,76.7,0,0,0-12.286-14.5,4.5,4.5,0,0,1-1.433-3.3V22.233l-7.808.976-7.808-.976V39.638a4.509,4.509,0,0,1-1.347,3.223A84.123,84.123,0,0,0,36.1,57.368Z" transform="translate(-28.759 -17.712)" fill="#eff"/><rect width="56.675" height="47.496" transform="translate(0.068 97.039)" fill="#007dc6"/><g transform="translate(23.383 41.54)" style="mix-blend-mode:overlay;isolation:isolate"><g clip-path="url(#aq)"><path d="M119.094,206.346a2.048,2.048,0,1,1-2.048-2.048,2.048,2.048,0,0,1,2.048,2.048" transform="translate(-114.998 -204.298)" fill="#fff"/></g></g><g transform="translate(30.283 51.171)" style="mix-blend-mode:overlay;isolation:isolate"><g clip-path="url(#ab)"><path d="M151.582,252.987a1.323,1.323,0,1,1-1.323-1.323,1.323,1.323,0,0,1,1.323,1.323" transform="translate(-148.937 -251.664)" fill="#fff"/></g></g><g transform="translate(29.306 77.175)" style="mix-blend-mode:overlay;isolation:isolate"><g clip-path="url(#ac)"><path d="M149.724,382.353a2.8,2.8,0,1,1-2.8-2.8,2.8,2.8,0,0,1,2.8,2.8" transform="translate(-144.132 -379.557)" fill="#fff"/></g></g><g transform="translate(33.445 69.628)" style="mix-blend-mode:overlay;isolation:isolate"><g clip-path="url(#ad)"><path d="M168.15,344.271a1.832,1.832,0,1,1-1.832-1.832,1.832,1.832,0,0,1,1.832,1.832" transform="translate(-164.485 -342.439)" fill="#fff"/></g></g><g transform="translate(34.421 44.327)" style="mix-blend-mode:overlay;isolation:isolate"><g clip-path="url(#ae)"><path d="M171.9,219.314a1.307,1.307,0,1,1-1.307-1.307,1.307,1.307,0,0,1,1.307,1.307" transform="translate(-169.284 -218.007)" fill="#fff"/></g></g><g transform="translate(23.093 68.454)" style="mix-blend-mode:overlay;isolation:isolate"><g clip-path="url(#af)"><path d="M116.711,338.236a1.57,1.57,0,1,1-1.57-1.569,1.57,1.57,0,0,1,1.57,1.569" transform="translate(-113.572 -336.667)" fill="#fff"/></g></g><g transform="translate(19.233 59.608)" style="mix-blend-mode:overlay;isolation:isolate"><g clip-path="url(#ag)"><path d="M98.857,295.29a2.133,2.133,0,1,1-2.133-2.133,2.133,2.133,0,0,1,2.133,2.133" transform="translate(-94.591 -293.157)" fill="#fff"/></g></g><g transform="translate(31.493 56.039)" style="mix-blend-mode:overlay;isolation:isolate"><g clip-path="url(#ae)"><path d="M157.5,276.914a1.307,1.307,0,1,1-1.307-1.307,1.307,1.307,0,0,1,1.307,1.307" transform="translate(-154.884 -275.607)" fill="#fff"/></g></g><g transform="translate(28.331 87.974)" style="mix-blend-mode:overlay;isolation:isolate"><g clip-path="url(#ai)"><path d="M143.74,434.868a2.2,2.2,0,1,1-2.2-2.2,2.2,2.2,0,0,1,2.2,2.2" transform="translate(-139.337 -432.667)" fill="#fff"/></g></g><path d="M184.714,486.88v-9.63H160.633c15.722,1.208,21.762,6.12,24.081,9.63" transform="translate(-127.972 -380.211)" fill="#00a4e5"/><path d="M124.9,645.807v-16.6a19.445,19.445,0,0,0-2.215,3.17c-5.287,9.353-21.559,11.317-21.96,11.387-4.7.818-10.534,1.533-15.172,2.041Z" transform="translate(-68.157 -501.272)" fill="#00a4e5"/><path d="M57.008,642.778c-12.47,3.4-38.3.967-46.135-3.463a36.886,36.886,0,0,1-10.54-8.546V647.05H57.008Z" transform="translate(-0.265 -502.515)" fill="#0066a5"/><path d="M104.878,93.357H84.1a1.107,1.107,0,1,1,0-2.214h20.779a1.107,1.107,0,1,1,0,2.214" transform="translate(-66.117 -72.611)" fill="#eff"/><g transform="translate(37.313 17.59)" style="mix-blend-mode:multiply;isolation:isolate"><g clip-path="url(#aj)"><path d="M185.221,90.488h-1.712V86.51h1.712a1.785,1.785,0,0,1,1.785,1.785V88.7a1.785,1.785,0,0,1-1.785,1.785" transform="translate(-183.509 -86.51)" fill="#e6e6e6"/></g></g><g transform="translate(3.904 13.304)" style="mix-blend-mode:overlay;isolation:isolate"><g clip-path="url(#am)"><path d="M36.836,65.433v9.1a4.5,4.5,0,0,1-1.408,3.276c-4.441,4.2-15.921,17.1-16.227,31.311-.006,0,.067,0,.067.007v11.367c0,2.761.4,5.714,2.069,7.913.227.3.894,1.4.894,1.4,2.064,2.805,1.433,4.764,0,6.951-.211.322-.675,1.267-.91,1.572-1.68,2.186-2.053,5.147-2.053,7.9V207.4a20.273,20.273,0,0,0,1.091,6.594l2.259,6.586a8.34,8.34,0,0,0,3.159,4.609,7.744,7.744,0,0,0,4.885,1.276,4.137,4.137,0,0,0,1.647-.562,1.111,1.111,0,0,0,.267-1.521,7.842,7.842,0,0,0-.642-.976,15.275,15.275,0,0,1-1.948-3.412l-1.818-6a20.273,20.273,0,0,1-1.091-6.594V146.235c0-2.757-.913-6,.416-8.412a8.2,8.2,0,0,0,.939-6.7s-.226-.784-.626-2c-.861-2.623-.729-5.866-.729-8.627V109.126s-.073,0-.067-.007c.305-14.211,6.906-27.106,11.347-31.311a4.5,4.5,0,0,0,1.408-3.276v-9.1Z" transform="translate(-19.2 -65.433)" fill="#fff"/></g></g><path d="M102.849,14.08H92.8a5.621,5.621,0,0,0-5.62,5.62v6.6a.809.809,0,0,0,.809.809h19.672a.809.809,0,0,0,.809-.809V19.7a5.621,5.621,0,0,0-5.62-5.62" transform="translate(-69.454 -11.217)" fill="#007dc6"/><g transform="translate(28.501 3.416)" style="mix-blend-mode:multiply;isolation:isolate"><g clip-path="url(#an)"><path d="M145.065,16.8H140.17V29.488h9.706a1.228,1.228,0,0,0,1.03-1.022V21.859c0-3.107-2.737-5.059-5.841-5.059" transform="translate(-140.17 -16.8)" fill="#e6e6e6"/></g></g><g transform="translate(17.726 19.069)" style="mix-blend-mode:overlay;isolation:isolate"><g clip-path="url(#dk)"><path d="M89.114,94.368c0,.322-.433.582-.967.582s-.967-.261-.967-.582.433-.582.967-.582.967.261.967.582" transform="translate(-87.18 -93.786)" fill="#fff"/></g></g><g transform="translate(18.942 4.037)" style="mix-blend-mode:overlay;isolation:isolate"><g clip-path="url(#ap)"><path d="M96.6,23.392c-.788.788-2.246,2.023-3.058,1.211s-.209-2.88.578-3.668,2.963-1.541,3.774-.729-.507,2.4-1.295,3.186" transform="translate(-93.158 -19.857)" fill="#eaeaea"/></g></g><g transform="translate(28.621 13.419)" style="mix-blend-mode:multiply;isolation:isolate"><g clip-path="url(#ba)"><path d="M140.766,110.088V65.994h8.686v8a4.5,4.5,0,0,0,1.416,3.283c4.461,4.205,17.951,18.076,18.256,32.286.006,0,.017,0,.017.007v11.366a16.778,16.778,0,0,1-1.983,7.913l-1.042,1.039a5.537,5.537,0,0,0,0,7.834l1.051,1.052a16.781,16.781,0,0,1,1.978,7.9v61.163a20.192,20.192,0,0,1-1.005,6.593l-2.216,6.586a10.47,10.47,0,0,1-12.03,6.867,10.765,10.765,0,0,0-4.277.007c-3.49,1.147-4.2,1.882-8.853,1.882,0-2.546.009-69.313.008-119.693Z" transform="translate(-140.76 -65.994)" fill="#d6e5e4"/></g></g><g transform="translate(33.362 13.409)" style="mix-blend-mode:multiply;isolation:isolate"><g clip-path="url(#cx)"><path d="M185.746,128.823a16.78,16.78,0,0,0,1.989-7.912l.008-11.367s-.011,0-.017-.007c-.3-14.2-13.762-28.077-18.226-32.293a4.522,4.522,0,0,1-1.42-3.29l0-3.091,1.445-.039a1.1,1.1,0,0,0,1.074-1.1,1.13,1.13,0,0,0-1.161-1.13l-1.356.037,0-2.677-4.01-.006.013,7.434a10.736,10.736,0,0,0,1.762,5.881c3.681,5.594,11.886,19.265,12.115,30.277.006,0,.017,0,.017.007l-.008,11.367a16.78,16.78,0,0,1-1.989,7.912l-1.042,1.038a5.537,5.537,0,0,0-.01,7.835l1.051,1.052a16.781,16.781,0,0,1,1.972,7.905l-.044,61.163a20.2,20.2,0,0,1-1.01,6.593l-2.22,6.584a10.436,10.436,0,0,1-5.709,6.569c-.407,0-.318.048-.333.189a11.445,11.445,0,0,1,3.766.1,10.47,10.47,0,0,0,12.035-6.859l2.22-6.584a20.2,20.2,0,0,0,1.01-6.593l.044-61.163a16.781,16.781,0,0,0-1.973-7.905l-1.051-1.052a5.537,5.537,0,0,1,.01-7.835Z" transform="translate(-164.076 -65.945)" fill="#d6e5e4"/></g></g></g></g></g></svg>