<svg xmlns="http://www.w3.org/2000/svg" xmlns:xlink="http://www.w3.org/1999/xlink" width="387.305" height="387.299" viewBox="0 0 387.305 387.299"><defs><clipPath id="a"><rect width="387.305" height="387.299" fill="none"/></clipPath><clipPath id="d"><rect width="63.884" height="68.551" fill="none"/></clipPath></defs><g transform="translate(-969.346 -3966.85)"><g transform="translate(969.346 3966.85)"><g clip-path="url(#a)"><g clip-path="url(#a)"><g opacity="0.33"><g clip-path="url(#a)"><path d="M459.709,301.477H445.663c-3.8,0-8.233-3.44-9.679-7.513a111.177,111.177,0,0,0-4.672-11.17c-1.873-3.869-1.184-9.407,1.5-12.094l10-10a17.989,17.989,0,0,0,0-25.41l-16.231-16.23a17.968,17.968,0,0,0-25.41,0l-10,10a10.246,10.246,0,0,1-7.149,2.563,11.406,11.406,0,0,1-4.941-1.062,111.871,111.871,0,0,0-11.186-4.682c-4.071-1.445-7.511-5.877-7.511-9.676V202.154a17.988,17.988,0,0,0-17.967-17.967H319.463A17.988,17.988,0,0,0,301.5,202.154V216.2c0,3.8-3.439,8.233-7.51,9.676a111.62,111.62,0,0,0-11.176,4.67,11.542,11.542,0,0,1-4.931,1.058,10.28,10.28,0,0,1-7.171-2.569l-9.984-9.98a17.973,17.973,0,0,0-25.412,0l-16.247,16.236a17.96,17.96,0,0,0,0,25.408l10,10c2.689,2.689,3.38,8.231,1.507,12.1a111.184,111.184,0,0,0-4.666,11.164c-1.445,4.071-5.875,7.51-9.676,7.51H202.179a17.988,17.988,0,0,0-17.967,17.967V342.4a17.988,17.988,0,0,0,17.967,17.967h14.047c3.8,0,8.233,3.438,9.678,7.508a111.063,111.063,0,0,0,4.67,11.164c1.87,3.869,1.178,9.411-1.513,12.1l-10,10a17.989,17.989,0,0,0,0,25.41l16.253,16.254a17.968,17.968,0,0,0,25.41,0l10-10a10.269,10.269,0,0,1,7.167-2.569,11.389,11.389,0,0,1,4.931,1.058,111.316,111.316,0,0,0,11.165,4.67c4.071,1.446,7.511,5.877,7.511,9.679v14.048a17.989,17.989,0,0,0,17.968,17.968h22.958a17.988,17.988,0,0,0,17.967-17.968V445.646c0-3.8,3.44-8.233,7.51-9.677a111.5,111.5,0,0,0,11.176-4.67,11.55,11.55,0,0,1,4.931-1.058,10.271,10.271,0,0,1,7.169,2.569l10,10a17.963,17.963,0,0,0,25.41,0l16.236-16.247a18,18,0,0,0,0-25.412l-9.992-10c-2.687-2.687-3.376-8.229-1.505-12.1a111.507,111.507,0,0,0,4.668-11.17c1.444-4.071,5.873-7.508,9.674-7.508h14.047a17.988,17.988,0,0,0,17.967-17.967V319.448a17.994,17.994,0,0,0-17.971-17.971M383.6,330.924a52.655,52.655,0,1,1-52.655-52.655A52.715,52.715,0,0,1,383.6,330.924" transform="translate(-90.375 -90.363)" fill="#e8edef"/><path d="M131.7,95.838a2.924,2.924,0,0,1,2.01-1.763h7.035A11.991,11.991,0,0,0,152.726,82.1V70.618A11.991,11.991,0,0,0,140.747,58.64h-7.033a2.924,2.924,0,0,1-2.01-1.763,58.191,58.191,0,0,0-2.464-5.888,2.855,2.855,0,0,1,.172-2.623l5-5a11.993,11.993,0,0,0,0-16.939L126.3,18.311a11.979,11.979,0,0,0-16.941,0l-5,5a2.325,2.325,0,0,1-1.459.4,2.776,2.776,0,0,1-1.164-.231,58.236,58.236,0,0,0-5.887-2.462,2.926,2.926,0,0,1-1.765-2.01V11.978A11.991,11.991,0,0,0,82.1,0H70.624A11.991,11.991,0,0,0,58.646,11.978v7.036a2.921,2.921,0,0,1-1.763,2.008,58.314,58.314,0,0,0-5.891,2.464,2.794,2.794,0,0,1-1.164.229,2.32,2.32,0,0,1-1.457-.4l-5-5a11.979,11.979,0,0,0-16.939,0l-8.115,8.115a12,12,0,0,0,0,16.941l5,5a2.851,2.851,0,0,1,.174,2.621,58.421,58.421,0,0,0-2.464,5.89,2.93,2.93,0,0,1-2.01,1.765H11.978A11.992,11.992,0,0,0,0,70.622V82.1A11.991,11.991,0,0,0,11.976,94.08h7.035a2.924,2.924,0,0,1,2.01,1.763,57.938,57.938,0,0,0,2.464,5.887,2.856,2.856,0,0,1-.172,2.623l-5,5a11.979,11.979,0,0,0,0,16.941l8.115,8.114a11.979,11.979,0,0,0,16.939,0l5-5a2.325,2.325,0,0,1,1.459-.4,2.768,2.768,0,0,1,1.164.231,58.236,58.236,0,0,0,5.887,2.462,2.926,2.926,0,0,1,1.765,2.01v7.035a11.991,11.991,0,0,0,11.978,11.978H82.1a11.991,11.991,0,0,0,11.978-11.978v-7.033a2.923,2.923,0,0,1,1.763-2.009,58.206,58.206,0,0,0,5.887-2.463A2.777,2.777,0,0,1,102.9,129a2.33,2.33,0,0,1,1.459.4l5,5a11.979,11.979,0,0,0,16.939,0l8.115-8.116a11.993,11.993,0,0,0,0-16.939l-5-5a2.856,2.856,0,0,1-.174-2.623,59.165,59.165,0,0,0,2.462-5.9M99.7,76.358A23.333,23.333,0,1,1,76.364,53.024,23.361,23.361,0,0,1,99.7,76.358" fill="#e8edef"/></g></g><path d="M544.027,234.745a5.83,5.83,0,0,1-.784-2.989,6.032,6.032,0,0,1,6.168-5.893l.259.009a4.847,4.847,0,0,1,4.542-2.436c2.353.025,4.292,1.365,4.665,3.1a9.638,9.638,0,0,1,1.247-.068,9.067,9.067,0,0,1,3.778.849,4.793,4.793,0,0,1,8.423.495,6.633,6.633,0,0,1,3.525-.959,6.344,6.344,0,0,1,6.4,6.287,6.1,6.1,0,0,1-2.439,4.789,4.75,4.75,0,0,1,.906,2.835,5.126,5.126,0,0,1-5.33,4.9,10.1,10.1,0,0,1-1.567-.241c-2.28,3.659-8.689,1.938-8.138,1.291-7.239,8.512-15.072,7.448-15.26,7.373,3.087-.736,4.748-3.252,6.043-6.326a8.159,8.159,0,0,1-2.685.415,7.576,7.576,0,0,1-6.082-2.98,7.18,7.18,0,0,1-2.472.4c-3.5-.04-6.313-2.527-6.279-5.552a5.742,5.742,0,0,1,5.083-5.3" transform="translate(-264.409 -109.618)" fill="#ffa344"/><path d="M584.285,478.157H484.392a2.341,2.341,0,0,0-2.5,2.29v68.935a2.639,2.639,0,0,0,2.5,2.641h99.9a2.441,2.441,0,0,0,2.249-2.641V480.447a2.141,2.141,0,0,0-2.254-2.29" transform="translate(-236.421 -234.587)" fill="#012f58"/><path d="M585.445,548.638c0,1.5-.327,2.111-1.742,2.111H494.984c-1.415,0-3.268-.609-3.268-2.111V491.381c0-1.5,1.853-2.778,3.268-2.778H583.7c1.415,0,1.742,1.276,1.742,2.778Z" transform="translate(-241.239 -239.711)" fill="#fff"/><rect width="122.764" height="6.113" rx="2.044" transform="translate(236.214 319.697)" fill="#012f58"/><path d="M59.72,74.025l-.029,49.157a5.591,5.591,0,0,0,5.6,5.6l71.284.042a5.6,5.6,0,0,0,5.6-5.59l.029-49.156a5.6,5.6,0,0,0-5.6-5.6l-71.284-.042a5.6,5.6,0,0,0-5.606,5.592" transform="translate(-29.285 -33.574)" fill="#012f58"/><path d="M211.123,124.542a3.327,3.327,0,1,1-3.322-3.328,3.324,3.324,0,0,1,3.322,3.328" transform="translate(-100.314 -59.468)" fill="#fff"/><rect width="64.089" height="49.021" transform="translate(37.152 40.54)" fill="#fff"/><rect width="37.541" height="50.055" rx="2.416" transform="translate(216.973 37.93)" fill="#02345f"/><rect width="31.582" height="44.317" transform="translate(219.914 41.059)" fill="#fff"/><path d="M458.15,74.163s.1-3.654-2.77-3.654-2.667,3.654-2.667,3.654h-4.821v4.719h14.975V74.163Zm-2.77-2.6c1.679,0,1.618,2.293,1.608,2.6l-3.173-.013c-.09-2.744,1.564-2.585,1.564-2.585" transform="translate(-219.739 -34.592)" fill="#d43476"/><rect width="17.319" height="0.509" transform="translate(230.102 50.737)" fill="#02345f"/><rect width="17.319" height="0.509" transform="translate(230.102 58.378)" fill="#02345f"/><rect width="17.319" height="0.509" transform="translate(230.102 65.51)" fill="#02345f"/><rect width="17.319" height="0.509" transform="translate(230.102 73.151)" fill="#02345f"/><path d="M442.6,96.613l-1.828,1.535-.614-.731a.477.477,0,0,0-.732.614l.922,1.1a.477.477,0,0,0,.672.059l2.193-1.842a.477.477,0,0,0-.614-.731" transform="translate(-215.53 -47.344)" fill="#bbd655"/><path d="M442.6,111.917l-1.828,1.535-.614-.731a.477.477,0,0,0-.732.614l.922,1.1a.477.477,0,0,0,.672.059l2.193-1.842a.477.477,0,0,0-.614-.731" transform="translate(-215.53 -54.852)" fill="#bbd655"/><path d="M442.6,126.012l-1.828,1.535-.614-.731a.477.477,0,0,0-.732.614l.922,1.1a.477.477,0,0,0,.672.059l2.193-1.842a.477.477,0,0,0-.614-.731" transform="translate(-215.53 -61.767)" fill="#bbd655"/><path d="M442.519,140.29l-1.829,1.535-.614-.731a.477.477,0,1,0-.731.614l.922,1.1a.477.477,0,0,0,.672.059l2.193-1.842a.477.477,0,0,0-.613-.731" transform="translate(-215.49 -68.772)" fill="#bbd655"/><path d="M143.236,480.72l-49.157-.029a5.59,5.59,0,0,0-5.6,5.6l-.042,71.284a5.6,5.6,0,0,0,5.59,5.6l49.156.029a5.6,5.6,0,0,0,5.6-5.6l.042-71.284a5.6,5.6,0,0,0-5.592-5.606" transform="translate(-43.39 -235.83)" fill="#012f58"/><path d="M144.469,632.122A3.327,3.327,0,1,1,147.8,628.8a3.324,3.324,0,0,1-3.329,3.322" transform="translate(-69.246 -306.858)" fill="#fff"/><rect width="49.021" height="64.089" transform="translate(50.737 251.607)" fill="#fff"/><path d="M323.613,159.38a7.065,7.065,0,0,1-7.038,7.09H294.8a7.095,7.095,0,0,1-1.105-14.093,4.49,4.49,0,0,1,4.393-5.258,4.413,4.413,0,0,1,2.882,1.066c1.385-3.143,3.159-6.012,8.139-6.012,6.039,0,8.9,4.693,8.9,9.645,0,.207-.009.412-.023.615a7.08,7.08,0,0,1,5.626,6.947" transform="translate(-141.179 -69.751)" fill="#ffa344"/><path d="M337.717,574.633a11.668,11.668,0,0,1-11.623,11.711H290.129a11.718,11.718,0,0,1-1.826-23.276,7.474,7.474,0,0,1-.11-1.266,7.393,7.393,0,0,1,7.366-7.42,7.285,7.285,0,0,1,4.76,1.761c2.287-5.192,5.218-9.93,13.442-9.93,9.974,0,14.7,7.75,14.7,15.929,0,.342-.015.68-.038,1.016a11.693,11.693,0,0,1,9.291,11.474" transform="translate(-136.638 -267.975)" fill="#ffa344"/><path d="M581.448,384.788A11.493,11.493,0,0,0,592.9,396.323h35.423a11.542,11.542,0,0,0,1.8-22.926,7.36,7.36,0,0,0,.107-1.246,7.281,7.281,0,0,0-7.255-7.308,7.177,7.177,0,0,0-4.688,1.734c-2.252-5.114-5.14-9.781-13.24-9.781-9.824,0-14.48,7.634-14.48,15.69,0,.337.014.67.037,1a11.517,11.517,0,0,0-9.151,11.3" transform="translate(-285.262 -175.046)" fill="#d43476"/><path d="M652.232,204.065a1.528,1.528,0,1,0-1.528,1.528,1.528,1.528,0,0,0,1.528-1.528" transform="translate(-318.49 -99.366)" fill="#073953"/><path d="M652.191,214.865a1.528,1.528,0,1,0-1.528,1.528,1.528,1.528,0,0,0,1.528-1.528" transform="translate(-318.469 -104.664)" fill="#073953"/><path d="M652.149,225.665a1.528,1.528,0,1,0-1.528,1.528,1.528,1.528,0,0,0,1.528-1.528" transform="translate(-318.449 -109.963)" fill="#073953"/><path d="M652.107,236.465a1.528,1.528,0,1,0-1.528,1.528,1.528,1.528,0,0,0,1.528-1.528" transform="translate(-318.428 -115.261)" fill="#073953"/><path d="M652.066,247.265a1.528,1.528,0,1,0-1.528,1.528,1.528,1.528,0,0,0,1.528-1.528" transform="translate(-318.408 -120.56)" fill="#073953"/><path d="M652.024,258.065a1.528,1.528,0,1,0-1.528,1.528,1.528,1.528,0,0,0,1.528-1.528" transform="translate(-318.387 -125.859)" fill="#073953"/><path d="M651.982,268.865a1.528,1.528,0,1,0-1.528,1.528,1.528,1.528,0,0,0,1.528-1.528" transform="translate(-318.367 -131.157)" fill="#073953"/><path d="M651.94,279.665a1.528,1.528,0,1,0-1.528,1.528,1.528,1.528,0,0,0,1.528-1.528" transform="translate(-318.346 -136.456)" fill="#073953"/><path d="M651.9,290.465a1.528,1.528,0,1,0-1.528,1.528,1.528,1.528,0,0,0,1.528-1.528" transform="translate(-318.326 -141.754)" fill="#073953"/><path d="M651.857,301.265a1.528,1.528,0,1,0-1.528,1.528,1.528,1.528,0,0,0,1.528-1.528" transform="translate(-318.306 -147.053)" fill="#073953"/><path d="M651.815,312.065a1.528,1.528,0,1,0-1.528,1.528,1.528,1.528,0,0,0,1.528-1.528" transform="translate(-318.285 -152.351)" fill="#073953"/><path d="M651.773,322.864a1.528,1.528,0,1,0-1.528,1.528,1.528,1.528,0,0,0,1.528-1.528" transform="translate(-318.264 -157.649)" fill="#073953"/><path d="M641.239,323.131a1.528,1.528,0,1,0-1.528,1.528,1.528,1.528,0,0,0,1.528-1.528" transform="translate(-313.096 -157.78)" fill="#073953"/><path d="M630.439,323.131a1.528,1.528,0,1,0-1.528,1.528,1.528,1.528,0,0,0,1.528-1.528" transform="translate(-307.798 -157.78)" fill="#073953"/><path d="M619.639,323.131a1.528,1.528,0,1,0-1.528,1.528,1.528,1.528,0,0,0,1.528-1.528" transform="translate(-302.499 -157.78)" fill="#073953"/><path d="M608.839,323.131a1.528,1.528,0,1,0-1.528,1.528,1.528,1.528,0,0,0,1.528-1.528" transform="translate(-297.201 -157.78)" fill="#073953"/><path d="M598.039,323.131a1.528,1.528,0,1,0-1.528,1.528,1.528,1.528,0,0,0,1.528-1.528" transform="translate(-291.902 -157.78)" fill="#073953"/><path d="M587.239,323.131a1.528,1.528,0,1,0-1.528,1.528,1.528,1.528,0,0,0,1.528-1.528" transform="translate(-286.604 -157.78)" fill="#073953"/><path d="M576.439,323.131a1.528,1.528,0,1,0-1.528,1.528,1.528,1.528,0,0,0,1.528-1.528" transform="translate(-281.305 -157.78)" fill="#073953"/><path d="M565.639,323.131a1.528,1.528,0,1,0-1.528,1.528,1.528,1.528,0,0,0,1.528-1.528" transform="translate(-276.007 -157.78)" fill="#073953"/><path d="M554.839,323.131a1.528,1.528,0,1,0-1.528,1.528,1.528,1.528,0,0,0,1.528-1.528" transform="translate(-270.708 -157.78)" fill="#073953"/><path d="M544.039,323.131a1.528,1.528,0,1,0-1.528,1.528,1.528,1.528,0,0,0,1.528-1.528" transform="translate(-265.409 -157.78)" fill="#073953"/><path d="M533.239,323.131a1.528,1.528,0,1,0-1.528,1.528,1.528,1.528,0,0,0,1.528-1.528" transform="translate(-260.111 -157.78)" fill="#073953"/><path d="M522.439,323.131a1.528,1.528,0,1,0-1.528,1.528,1.528,1.528,0,0,0,1.528-1.528" transform="translate(-254.812 -157.78)" fill="#073953"/><path d="M387.3,243.037H267.053c-1.646,0-3.294.949-3.294,2.595v82.981a3.186,3.186,0,0,0,3.294,2.886h44.911s.03,7.666.041,7.666h-6.193a2.655,2.655,0,1,0,0,5.308h44.223a2.655,2.655,0,1,0,0-5.308H343.64c.009,0-.062-7.666-.062-7.666H387.3a3.146,3.146,0,0,0,3.25-2.886V245.632c0-1.646-1.609-2.595-3.257-2.595" transform="translate(-129.402 -119.235)" fill="#012f58"/><path d="M6.142,0H109.49a6.142,6.142,0,0,1,6.142,6.142V65.683a6.142,6.142,0,0,1-6.142,6.142H6.143A6.143,6.143,0,0,1,0,65.682V6.142A6.142,6.142,0,0,1,6.142,0Z" transform="translate(140.448 129.184)" fill="#fff"/><path d="M648.351,73.969H622.476A4.475,4.475,0,0,0,618,78.451V130.99a4.475,4.475,0,0,0,4.473,4.476h25.876a4.48,4.48,0,0,0,4.478-4.476V78.451a4.483,4.483,0,0,0-4.478-4.482" transform="translate(-303.195 -36.29)" fill="#073953"/><rect width="28.116" height="42.266" transform="translate(318.162 45.239)" fill="#fff"/><path d="M652.406,81.636h-12V80.328h12v1.308Z" transform="translate(-314.188 -39.41)" fill="#fff"/><path d="M671.828,80.62a1.147,1.147,0,1,1-1.147-1.145,1.148,1.148,0,0,1,1.147,1.145" transform="translate(-328.477 -38.991)" fill="#fff"/><rect width="10.925" height="3.361" transform="translate(326.754 91.04)" fill="#fff"/><path d="M221.716,129.1h65.2s12.99-.509,12.99,12.735v45.081" transform="translate(-108.775 -63.336)" fill="none" stroke="#012f58" stroke-miterlimit="10" stroke-width="3"/><rect width="3.056" height="8.15" transform="translate(111.667 61.18)" fill="#012f58"/><rect width="3.056" height="8.15" transform="translate(133.062 136.061)" fill="#012f58"/><path d="M547.659,129.923v-9.5h0a9.5,9.5,0,0,0-6.7,16.22l6.72-6.721Z" transform="translate(-264.025 -59.081)" fill="#073953"/><path d="M545.212,148.017a9.5,9.5,0,0,0,16.2-6.721h-9.478Z" transform="translate(-267.484 -69.321)" fill="#073953"/><path d="M559.294,120.424v9.5h9.494v0a9.5,9.5,0,0,0-9.494-9.5" transform="translate(-274.393 -59.081)" fill="#d43476"/><path d="M88.714,423.764,94.049,433a10.692,10.692,0,1,1-5.425-20.243V423.43a.669.669,0,0,0,.09.334" transform="translate(-38.557 -202.503)" fill="#ffa344"/><path d="M100.716,412.761v10.107h10.1a10.527,10.527,0,0,0-10.1-10.107m1.528,1.534a9.121,9.121,0,0,1,7.037,7.045h-7.037Z" transform="translate(-49.412 -202.503)" fill="#012f58"/><path d="M106.633,443.261a10.683,10.683,0,0,0,4.75-8.245h-9.509Z" transform="translate(-49.98 -213.421)" fill="#012f58"/><path d="M173.08,304.276a8.166,8.166,0,0,1,4.24-4.621l3.458,7.427Z" transform="translate(-84.914 -147.012)" fill="#012f58"/><path d="M180.445,302.307l3.458,7.427-7.7-2.807a8.192,8.192,0,1,0,4.239-4.621" transform="translate(-86.203 -147.937)" fill="#012f58"/><path d="M430.99,477.806l4.911,1.227,1.7-2.831,1.54.925.08-4.794-4.192,2.327,1.54.925-1.241,2.068-4.706-1.177-5.049,5.049.85.85Z" transform="translate(-208.788 -231.729)" fill="#012f58"/><path d="M438.56,488v1.2H419.327V469.972h1.2V488Z" transform="translate(-205.724 -230.571)" fill="#ffa344"/><path d="M433.486,494.513h2.4v-8.66l-.65-.162-1.755,1.755Z" transform="translate(-212.671 -238.283)" fill="#ffa344"/><path d="M426.406,493.05v4.311h2.4V491.5l-1.98,1.979Z" transform="translate(-209.197 -241.131)" fill="#ffa344"/><path d="M447.644,485.161v8.114h2.4v-9.383l-1.208-.724Z" transform="translate(-219.617 -237.045)" fill="#ffa344"/><path d="M442.969,494.959V487.2l-2.4-.6v8.359Z" transform="translate(-216.144 -238.729)" fill="#ffa344"/><path d="M205.533,275.1H160.451c-13.244,0-12.735,12.99-12.735,12.99v65.2l0,28.883" transform="translate(-72.469 -134.966)" fill="none" stroke="#012f58" stroke-miterlimit="10" stroke-width="3"/><rect width="12.225" height="4.585" transform="translate(69.388 242.524)" fill="#012f58"/><path d="M440.127,489.917l-36.422,0s-12.99.509-12.99-12.735V432.1" transform="translate(-191.688 -211.99)" fill="none" stroke="#012f58" stroke-miterlimit="10" stroke-width="3"/><rect width="4.075" height="9.169" transform="translate(243.091 273.597)" fill="#012f58"/><rect width="82.352" height="9.424" transform="translate(256.081 260.098)" fill="#012f58"/><rect width="82.522" height="4.585" transform="translate(256.081 272.833)" fill="#a0a0a0"/><rect width="24.706" height="26.522" transform="translate(319.755 47.681)" fill="#d43476"/><rect width="24.706" height="9.474" transform="translate(319.755 76.36)" fill="#ffa344"/><rect width="56.543" height="5.094" transform="translate(40.607 77.735)" fill="#a0a0a0"/><rect width="20.806" height="16.307" transform="translate(75.756 286.835)" fill="#ffa344"/><rect width="42.789" height="5.603" transform="translate(53.851 257.042)" fill="#012f58"/><rect width="42.789" height="2.038" transform="translate(54.361 303.906)" fill="#a0a0a0"/><rect width="42.789" height="2.038" transform="translate(54.361 307.981)" fill="#a0a0a0"/><rect width="57.263" height="8.175" transform="translate(40.437 45.718)" fill="#012f58"/><rect width="20.376" height="16.81" transform="translate(53.851 265.192)" fill="#d43476"/><path d="M519.716,393.767v-8.91l4.967,4.455Z" transform="translate(-254.976 -188.813)" fill="#d43476"/><path d="M537.716,393.767v-8.91l4.967,4.455Z" transform="translate(-263.807 -188.813)" fill="#d43476"/><path d="M555.716,393.767v-8.91l4.967,4.455Z" transform="translate(-272.638 -188.813)" fill="#d43476"/><path d="M313.846,188.6h8.91L318.3,193.57Z" transform="translate(-153.974 -92.53)" fill="#ffa344"/><path d="M313.846,206.6h8.91L318.3,211.57Z" transform="translate(-153.974 -101.361)" fill="#ffa344"/><path d="M313.846,224.6h8.91L318.3,229.57Z" transform="translate(-153.974 -110.192)" fill="#ffa344"/><path d="M213.716,585.767v-8.91l4.967,4.455Z" transform="translate(-104.851 -283.009)" fill="#ffa344"/><path d="M231.716,585.767v-8.91l4.967,4.455Z" transform="translate(-113.681 -283.009)" fill="#ffa344"/><path d="M249.716,585.767v-8.91l4.967,4.455Z" transform="translate(-122.512 -283.009)" fill="#ffa344"/><path d="M278.993,82.291h-5.011v6.465a1.709,1.709,0,0,1-1.708,1.707h-7.716v2.165a.976.976,0,0,0,.975.975h7.58l3.167,2.645c.414.345.636.2.5-.317l-.618-2.313c0-.005,0-.01-.006-.015h2.839a.976.976,0,0,0,.975-.975V83.266a.976.976,0,0,0-.975-.975" transform="translate(-129.794 -40.372)" fill="#d43476"/><path d="M252.346,86h1.491c0,.005,0,.01-.006.016l-.618,2.313c-.088.328-.032.506.125.506a.663.663,0,0,0,.371-.188L256.877,86h8.929a.976.976,0,0,0,.975-.975V75.663a.976.976,0,0,0-.975-.975H252.346a.976.976,0,0,0-.975.975v9.362a.975.975,0,0,0,.975.975" transform="translate(-123.324 -36.642)" fill="#d43476"/><path d="M624.1,399.637a13.763,13.763,0,0,0,3.146,1.581c.188.069.385.138.57.2.2.083.4.162.6.238a14.89,14.89,0,0,0,3.425.833,1.849,1.849,0,0,0,1.849-1.067l5.5-14.894a1.444,1.444,0,0,0-.833-1.859h0A33.038,33.038,0,0,0,634.7,383.1l-.271-.1a29.477,29.477,0,0,0-3.69-1.147,1.459,1.459,0,0,0-1.872.862l-5.5,14.894a1.633,1.633,0,0,0,.732,2.028m1.758-4.812.2.2a.575.575,0,0,1,.07.545c-.07.187-.126.34-.126.34a.155.155,0,0,1-.24.081l-.256-.163a.262.262,0,0,1-.1-.3l.244-.664a.117.117,0,0,1,.21-.044m.018-.574.245-.664a.117.117,0,0,1,.211-.043l.2.2a.574.574,0,0,1,.069.544l-.126.34a.155.155,0,0,1-.239.081l-.256-.164a.263.263,0,0,1-.1-.3m-.327,2.967a.156.156,0,0,1-.24.08l-.255-.164a.262.262,0,0,1-.1-.3l.245-.664a.116.116,0,0,1,.21-.044l.2.2a.577.577,0,0,1,.069.545l-.126.34m1.3-1.857.2.2a.573.573,0,0,1,.07.545l-.125.34a.155.155,0,0,1-.24.081l-.256-.164a.263.263,0,0,1-.1-.3l.245-.664a.116.116,0,0,1,.209-.044m.018-.574.245-.664a.116.116,0,0,1,.21-.043l.2.2a.573.573,0,0,1,.07.545l-.126.34a.156.156,0,0,1-.24.081l-.255-.164a.263.263,0,0,1-.1-.3m-.327,2.967a.155.155,0,0,1-.24.081l-.255-.164a.263.263,0,0,1-.1-.3l.246-.664a.116.116,0,0,1,.209-.043l.2.2a.575.575,0,0,1,.07.545c-.069.187-.126.34-.126.34m1.316-1.889.2.2a.576.576,0,0,1,.07.545l-.126.34a.155.155,0,0,1-.24.08l-.256-.164a.265.265,0,0,1-.1-.3l.245-.664a.116.116,0,0,1,.21-.044m.018-.574.245-.664a.117.117,0,0,1,.21-.044l.2.205a.571.571,0,0,1,.07.544l-.125.34a.156.156,0,0,1-.24.08l-.256-.163a.262.262,0,0,1-.1-.3m-.327,2.966a.155.155,0,0,1-.24.081l-.255-.164a.261.261,0,0,1-.1-.3l.245-.664a.116.116,0,0,1,.21-.044l.2.2a.573.573,0,0,1,.07.545c-.07.187-.126.34-.126.34m1.335-1.917.195.2a.573.573,0,0,1,.071.545c-.069.188-.126.34-.126.34a.155.155,0,0,1-.24.081l-.255-.163a.263.263,0,0,1-.1-.3l.245-.664a.117.117,0,0,1,.211-.044m.017-.574.245-.664a.117.117,0,0,1,.211-.044l.2.2a.575.575,0,0,1,.07.545l-.126.34a.156.156,0,0,1-.24.08l-.255-.163a.262.262,0,0,1-.1-.3m-.327,2.967a.156.156,0,0,1-.24.081l-.256-.164a.262.262,0,0,1-.1-.3l.245-.664a.117.117,0,0,1,.21-.044l.2.205a.574.574,0,0,1,.07.545l-.126.34m1.309-4.461a.55.55,0,1,1,.326.706.55.55,0,0,1-.326-.706m-.171,4.72a.262.262,0,0,1-.271.162l-.3-.042a.156.156,0,0,1-.13-.218l.125-.34a.575.575,0,0,1,.408-.368l.281-.029a.117.117,0,0,1,.131.17Zm.505-1.282a.262.262,0,0,1-.27.162l-.3-.042a.156.156,0,0,1-.13-.218l.125-.34a.575.575,0,0,1,.408-.368l.283-.028a.116.116,0,0,1,.13.169l-.245.665Zm.474-1.282a.263.263,0,0,1-.27.162l-.3-.042a.156.156,0,0,1-.13-.217l.125-.34a.575.575,0,0,1,.408-.368l.282-.028a.116.116,0,0,1,.131.169l-.246.665Zm.11,2.868a.264.264,0,0,1-.271.162l-.3-.042a.156.156,0,0,1-.13-.217l.126-.34a.576.576,0,0,1,.407-.368l.281-.028a.117.117,0,0,1,.133.17Zm.5-1.283a.263.263,0,0,1-.27.163l-.3-.042a.156.156,0,0,1-.13-.217l.126-.34a.576.576,0,0,1,.407-.368l.282-.029a.116.116,0,0,1,.131.17Zm.473-1.281a.263.263,0,0,1-.269.162l-.3-.042a.156.156,0,0,1-.13-.217s.057-.152.126-.34a.574.574,0,0,1,.407-.369l.283-.028a.116.116,0,0,1,.13.169Zm.114,2.835a.263.263,0,0,1-.27.163l-.3-.042a.156.156,0,0,1-.13-.218l.125-.34a.574.574,0,0,1,.408-.368l.283-.029a.116.116,0,0,1,.13.169Zm.505-1.283a.263.263,0,0,1-.27.162l-.3-.042a.155.155,0,0,1-.129-.217l.125-.34a.573.573,0,0,1,.407-.369l.282-.028a.116.116,0,0,1,.13.17Zm.473-1.282a.261.261,0,0,1-.27.162l-.3-.041a.155.155,0,0,1-.13-.218l.126-.34a.572.572,0,0,1,.407-.368l.282-.029a.116.116,0,0,1,.131.17Zm.121,2.8a.262.262,0,0,1-.271.162l-.3-.042a.155.155,0,0,1-.13-.217l.125-.34a.576.576,0,0,1,.407-.369l.282-.028a.116.116,0,0,1,.131.17l-.245.664Zm.506-1.283a.262.262,0,0,1-.269.162l-.3-.041a.156.156,0,0,1-.13-.218s.056-.152.126-.34a.575.575,0,0,1,.406-.369l.283-.028a.116.116,0,0,1,.13.17Zm.473-1.281a.264.264,0,0,1-.271.162l-.3-.042a.155.155,0,0,1-.13-.217l.125-.34a.577.577,0,0,1,.407-.368l.283-.028a.116.116,0,0,1,.131.17l-.246.664Zm-1.03-13.088,2.229.823a.162.162,0,1,1-.112.3l-2.23-.823a.162.162,0,0,1,.113-.3m-3.819.829,8.412,3.106-2.394,6.483-8.412-3.106Z" transform="translate(-305.771 -187.295)" fill="#fff"/><path d="M327.982,168.563h-.511a.422.422,0,0,1-.352-.274,4.154,4.154,0,0,0-.17-.407.418.418,0,0,1,.055-.441l.364-.364a.655.655,0,0,0,0-.926l-.591-.591a.654.654,0,0,0-.925,0l-.364.364a.373.373,0,0,1-.26.093.414.414,0,0,1-.18-.039,4.043,4.043,0,0,0-.407-.17.423.423,0,0,1-.274-.352v-.511a.655.655,0,0,0-.654-.654h-.836a.655.655,0,0,0-.654.654v.511a.423.423,0,0,1-.274.352,4.158,4.158,0,0,0-.407.17.419.419,0,0,1-.179.039.375.375,0,0,1-.261-.094l-.364-.363a.654.654,0,0,0-.925,0l-.591.591a.654.654,0,0,0,0,.926l.364.364a.418.418,0,0,1,.055.441,4.024,4.024,0,0,0-.17.407.422.422,0,0,1-.352.274h-.511a.655.655,0,0,0-.655.655v.835a.655.655,0,0,0,.655.655h.511a.422.422,0,0,1,.352.273,4.022,4.022,0,0,0,.17.406.417.417,0,0,1-.055.441l-.364.364a.656.656,0,0,0,0,.926l.592.591a.653.653,0,0,0,.925,0l.364-.364a.374.374,0,0,1,.261-.094.419.419,0,0,1,.18.038,3.92,3.92,0,0,0,.406.17.423.423,0,0,1,.274.353v.511a.655.655,0,0,0,.654.655h.836a.655.655,0,0,0,.654-.655v-.511a.423.423,0,0,1,.274-.353,4.032,4.032,0,0,0,.407-.17.419.419,0,0,1,.179-.039.375.375,0,0,1,.261.094l.364.364a.653.653,0,0,0,.925,0l.591-.591a.655.655,0,0,0,0-.925l-.364-.364a.419.419,0,0,1-.055-.441,4.04,4.04,0,0,0,.17-.406.422.422,0,0,1,.353-.274h.511a.655.655,0,0,0,.654-.654v-.836a.655.655,0,0,0-.655-.655m-2.771,1.072a1.917,1.917,0,1,1-1.917-1.917,1.92,1.92,0,0,1,1.917,1.917" transform="translate(-155.989 -80.603)" fill="#fff"/><path d="M316.04,161.076a.107.107,0,0,1,.073-.064h.256a.437.437,0,0,0,.436-.436v-.418a.436.436,0,0,0-.436-.436h-.256a.106.106,0,0,1-.073-.065,2.231,2.231,0,0,0-.09-.214.1.1,0,0,1,.006-.1l.182-.182a.437.437,0,0,0,0-.617l-.3-.3a.436.436,0,0,0-.617,0l-.182.182a.084.084,0,0,1-.053.015.1.1,0,0,1-.042-.008,2.012,2.012,0,0,0-.214-.09.106.106,0,0,1-.064-.074v-.256a.437.437,0,0,0-.436-.436h-.418a.437.437,0,0,0-.436.436v.256a.108.108,0,0,1-.064.074,2.029,2.029,0,0,0-.214.09.106.106,0,0,1-.042.008.086.086,0,0,1-.053-.015l-.182-.182a.436.436,0,0,0-.617,0l-.3.3a.437.437,0,0,0,0,.617l.182.182a.1.1,0,0,1,.007.1,1.965,1.965,0,0,0-.09.214.107.107,0,0,1-.073.064h-.256a.437.437,0,0,0-.436.436v.418a.437.437,0,0,0,.436.436h.256a.107.107,0,0,1,.073.064,2,2,0,0,0,.09.214.1.1,0,0,1-.007.1l-.182.182a.435.435,0,0,0,0,.616l.3.3a.436.436,0,0,0,.617,0l.182-.182a.085.085,0,0,1,.053-.015.106.106,0,0,1,.042.009,2.011,2.011,0,0,0,.214.09.108.108,0,0,1,.064.073v.256a.437.437,0,0,0,.436.436h.418a.437.437,0,0,0,.436-.436v-.256a.105.105,0,0,1,.064-.073,2.249,2.249,0,0,0,.214-.09.1.1,0,0,1,.042-.009.084.084,0,0,1,.053.015l.182.182a.435.435,0,0,0,.616,0l.3-.3a.437.437,0,0,0,0-.616l-.182-.182a.1.1,0,0,1-.006-.1,2.248,2.248,0,0,0,.09-.215m-1.165-.71a.85.85,0,1,1-.85-.849.851.851,0,0,1,.85.849" transform="translate(-152.699 -77.313)" fill="#fff"/><line x2="20.885" transform="translate(75.755 265.447)" fill="none" stroke="#a0a0a0" stroke-miterlimit="10" stroke-width="1"/><line x2="20.885" transform="translate(75.755 267.485)" fill="none" stroke="#a0a0a0" stroke-miterlimit="10" stroke-width="1"/><line x2="20.885" transform="translate(75.755 269.522)" fill="none" stroke="#a0a0a0" stroke-miterlimit="10" stroke-width="1"/><line x2="20.885" transform="translate(75.755 271.56)" fill="none" stroke="#a0a0a0" stroke-miterlimit="10" stroke-width="1"/><line x2="20.885" transform="translate(75.755 273.597)" fill="none" stroke="#a0a0a0" stroke-miterlimit="10" stroke-width="1"/><line x2="20.885" transform="translate(75.755 275.635)" fill="none" stroke="#a0a0a0" stroke-miterlimit="10" stroke-width="1"/><line x2="20.885" transform="translate(75.755 277.672)" fill="none" stroke="#a0a0a0" stroke-miterlimit="10" stroke-width="1"/><line x2="20.885" transform="translate(75.755 279.71)" fill="none" stroke="#a0a0a0" stroke-miterlimit="10" stroke-width="1"/><line x2="20.885" transform="translate(75.755 281.748)" fill="none" stroke="#a0a0a0" stroke-miterlimit="10" stroke-width="1"/><line x2="17.829" transform="translate(40.607 57.614)" fill="none" stroke="#a0a0a0" stroke-miterlimit="10" stroke-width="1"/><line x2="17.829" transform="translate(40.607 59.652)" fill="none" stroke="#a0a0a0" stroke-miterlimit="10" stroke-width="1"/><line x2="17.829" transform="translate(40.607 61.689)" fill="none" stroke="#a0a0a0" stroke-miterlimit="10" stroke-width="1"/><line x2="17.829" transform="translate(40.607 63.727)" fill="none" stroke="#a0a0a0" stroke-miterlimit="10" stroke-width="1"/><line x2="17.829" transform="translate(40.607 65.764)" fill="none" stroke="#a0a0a0" stroke-miterlimit="10" stroke-width="1"/><line x2="17.829" transform="translate(40.607 67.802)" fill="none" stroke="#a0a0a0" stroke-miterlimit="10" stroke-width="1"/><line x2="17.829" transform="translate(40.607 69.84)" fill="none" stroke="#a0a0a0" stroke-miterlimit="10" stroke-width="1"/><line x2="17.829" transform="translate(40.607 71.877)" fill="none" stroke="#a0a0a0" stroke-miterlimit="10" stroke-width="1"/><line x2="17.829" transform="translate(40.607 73.915)" fill="none" stroke="#a0a0a0" stroke-miterlimit="10" stroke-width="1"/><line x2="16.301" transform="translate(60.983 57.614)" fill="none" stroke="#a0a0a0" stroke-miterlimit="10" stroke-width="1"/><line x2="16.301" transform="translate(60.983 59.652)" fill="none" stroke="#a0a0a0" stroke-miterlimit="10" stroke-width="1"/><line x2="16.301" transform="translate(60.983 61.689)" fill="none" stroke="#a0a0a0" stroke-miterlimit="10" stroke-width="1"/><line x2="16.301" transform="translate(60.983 63.727)" fill="none" stroke="#a0a0a0" stroke-miterlimit="10" stroke-width="1"/><line x2="16.301" transform="translate(60.983 65.764)" fill="none" stroke="#a0a0a0" stroke-miterlimit="10" stroke-width="1"/><line x2="16.301" transform="translate(60.983 67.802)" fill="none" stroke="#a0a0a0" stroke-miterlimit="10" stroke-width="1"/><line x2="16.301" transform="translate(60.983 69.84)" fill="none" stroke="#a0a0a0" stroke-miterlimit="10" stroke-width="1"/><line x2="16.301" transform="translate(60.983 71.877)" fill="none" stroke="#a0a0a0" stroke-miterlimit="10" stroke-width="1"/><line x2="16.301" transform="translate(60.983 73.915)" fill="none" stroke="#a0a0a0" stroke-miterlimit="10" stroke-width="1"/><line x2="25.47" transform="translate(256.081 280.729)" fill="none" stroke="#a0a0a0" stroke-miterlimit="10" stroke-width="1"/><line x2="25.47" transform="translate(256.081 282.766)" fill="none" stroke="#a0a0a0" stroke-miterlimit="10" stroke-width="1"/><line x2="25.47" transform="translate(256.081 284.804)" fill="none" stroke="#a0a0a0" stroke-miterlimit="10" stroke-width="1"/><line x2="25.47" transform="translate(256.081 286.842)" fill="none" stroke="#a0a0a0" stroke-miterlimit="10" stroke-width="1"/><line x2="25.47" transform="translate(256.081 288.879)" fill="none" stroke="#a0a0a0" stroke-miterlimit="10" stroke-width="1"/><line x2="25.47" transform="translate(256.081 290.917)" fill="none" stroke="#a0a0a0" stroke-miterlimit="10" stroke-width="1"/><line x2="25.47" transform="translate(256.081 292.954)" fill="none" stroke="#a0a0a0" stroke-miterlimit="10" stroke-width="1"/><line x2="25.47" transform="translate(256.081 294.992)" fill="none" stroke="#a0a0a0" stroke-miterlimit="10" stroke-width="1"/><line x2="25.47" transform="translate(256.081 297.029)" fill="none" stroke="#a0a0a0" stroke-miterlimit="10" stroke-width="1"/><line x2="25.47" transform="translate(284.607 280.729)" fill="none" stroke="#a0a0a0" stroke-miterlimit="10" stroke-width="1"/><line x2="25.47" transform="translate(284.607 282.766)" fill="none" stroke="#a0a0a0" stroke-miterlimit="10" stroke-width="1"/><line x2="25.47" transform="translate(284.607 284.804)" fill="none" stroke="#a0a0a0" stroke-miterlimit="10" stroke-width="1"/><line x2="25.47" transform="translate(284.607 286.842)" fill="none" stroke="#a0a0a0" stroke-miterlimit="10" stroke-width="1"/><line x2="25.47" transform="translate(284.607 288.879)" fill="none" stroke="#a0a0a0" stroke-miterlimit="10" stroke-width="1"/><line x2="25.47" transform="translate(284.607 290.917)" fill="none" stroke="#a0a0a0" stroke-miterlimit="10" stroke-width="1"/><line x2="25.47" transform="translate(284.607 292.954)" fill="none" stroke="#a0a0a0" stroke-miterlimit="10" stroke-width="1"/><line x2="25.47" transform="translate(284.607 294.992)" fill="none" stroke="#a0a0a0" stroke-miterlimit="10" stroke-width="1"/><line x2="25.47" transform="translate(284.607 297.029)" fill="none" stroke="#a0a0a0" stroke-miterlimit="10" stroke-width="1"/><line x2="25.47" transform="translate(313.133 280.729)" fill="none" stroke="#a0a0a0" stroke-miterlimit="10" stroke-width="1"/><line x2="25.47" transform="translate(313.133 282.766)" fill="none" stroke="#a0a0a0" stroke-miterlimit="10" stroke-width="1"/><line x2="25.47" transform="translate(313.133 284.804)" fill="none" stroke="#a0a0a0" stroke-miterlimit="10" stroke-width="1"/><line x2="25.47" transform="translate(313.133 286.842)" fill="none" stroke="#a0a0a0" stroke-miterlimit="10" stroke-width="1"/><line x2="25.47" transform="translate(313.133 288.879)" fill="none" stroke="#a0a0a0" stroke-miterlimit="10" stroke-width="1"/><line x2="25.47" transform="translate(313.133 290.917)" fill="none" stroke="#a0a0a0" stroke-miterlimit="10" stroke-width="1"/><line x2="25.47" transform="translate(313.133 292.954)" fill="none" stroke="#a0a0a0" stroke-miterlimit="10" stroke-width="1"/><line x2="25.47" transform="translate(313.133 294.992)" fill="none" stroke="#a0a0a0" stroke-miterlimit="10" stroke-width="1"/><line x2="25.47" transform="translate(313.133 297.029)" fill="none" stroke="#a0a0a0" stroke-miterlimit="10" stroke-width="1"/><line x2="17.319" transform="translate(79.83 57.614)" fill="none" stroke="#a0a0a0" stroke-miterlimit="10" stroke-width="1"/><line x2="17.319" transform="translate(79.83 59.652)" fill="none" stroke="#a0a0a0" stroke-miterlimit="10" stroke-width="1"/><line x2="17.319" transform="translate(79.83 61.689)" fill="none" stroke="#a0a0a0" stroke-miterlimit="10" stroke-width="1"/><line x2="17.319" transform="translate(79.83 63.727)" fill="none" stroke="#a0a0a0" stroke-miterlimit="10" stroke-width="1"/><line x2="17.319" transform="translate(79.83 65.764)" fill="none" stroke="#a0a0a0" stroke-miterlimit="10" stroke-width="1"/><line x2="17.319" transform="translate(79.83 67.802)" fill="none" stroke="#a0a0a0" stroke-miterlimit="10" stroke-width="1"/><line x2="17.319" transform="translate(79.83 69.84)" fill="none" stroke="#a0a0a0" stroke-miterlimit="10" stroke-width="1"/><line x2="17.319" transform="translate(79.83 71.877)" fill="none" stroke="#a0a0a0" stroke-miterlimit="10" stroke-width="1"/><line x2="17.319" transform="translate(79.83 73.915)" fill="none" stroke="#a0a0a0" stroke-miterlimit="10" stroke-width="1"/><line x2="19.866" transform="translate(54.361 284.804)" fill="none" stroke="#a0a0a0" stroke-miterlimit="10" stroke-width="1"/><line x2="19.866" transform="translate(54.361 286.842)" fill="none" stroke="#a0a0a0" stroke-miterlimit="10" stroke-width="1"/><line x2="19.866" transform="translate(54.361 288.879)" fill="none" stroke="#a0a0a0" stroke-miterlimit="10" stroke-width="1"/><line x2="19.866" transform="translate(54.361 290.917)" fill="none" stroke="#a0a0a0" stroke-miterlimit="10" stroke-width="1"/><line x2="19.866" transform="translate(54.361 292.954)" fill="none" stroke="#a0a0a0" stroke-miterlimit="10" stroke-width="1"/><line x2="19.866" transform="translate(54.361 294.992)" fill="none" stroke="#a0a0a0" stroke-miterlimit="10" stroke-width="1"/><line x2="19.866" transform="translate(54.361 297.029)" fill="none" stroke="#a0a0a0" stroke-miterlimit="10" stroke-width="1"/><line x2="19.866" transform="translate(54.361 299.067)" fill="none" stroke="#a0a0a0" stroke-miterlimit="10" stroke-width="1"/><line x2="19.866" transform="translate(54.361 301.105)" fill="none" stroke="#a0a0a0" stroke-miterlimit="10" stroke-width="1"/><path d="M260.08,473.649l4.137-5.217a9.056,9.056,0,0,0,3.014,2.391l-4.137,5.217a1.924,1.924,0,1,1-3.014-2.391" transform="translate(-127.392 -229.815)" fill="#012f58"/><path d="M275.715,457.54a7.695,7.695,0,1,0-8.527-6.762,7.7,7.7,0,0,0,8.527,6.762m-6.615-6.983a5.771,5.771,0,1,1,6.395,5.072,5.778,5.778,0,0,1-6.395-5.072" transform="translate(-131.059 -216.946)" fill="#012f58"/><path d="M286.209,452.469l-1.274.147a3.21,3.21,0,0,0-3.553-2.817l-.147-1.274a4.494,4.494,0,0,1,4.974,3.945" transform="translate(-137.976 -220.034)" fill="#012f58"/><path d="M316.274,576.357a3.989,3.989,0,1,1,3.989,3.989,3.989,3.989,0,0,1-3.989-3.989m5.907,9.011a3.675,3.675,0,0,1,.643-4.671,5.1,5.1,0,0,0-.87-.079H318.57a5.113,5.113,0,0,0-5.107,5.107v4.14l.011.065.285.089a23.722,23.722,0,0,0,6.118,1.1v-1.889a4.4,4.4,0,0,1,2.3-3.863m9.1-5.022a3.989,3.989,0,1,0-3.989-3.989,3.989,3.989,0,0,0,3.989,3.989m1.692.272h-3.384a5.085,5.085,0,0,0-1.592.258,3.673,3.673,0,0,1,.46,4.492,4.4,4.4,0,0,1,2.3,3.863v1.882c.33.015.653.025.961.025A14.265,14.265,0,0,0,337.784,590l.266-.135h.028v-4.14a5.112,5.112,0,0,0-5.107-5.107m-10.128,2.938a2.474,2.474,0,1,0,2.474-2.474,2.475,2.475,0,0,0-2.474,2.474m3.524,2.643h-2.1a3.172,3.172,0,0,0-3.168,3.168v2.568l.007.04.177.055a14.414,14.414,0,0,0,4.308.695,8.856,8.856,0,0,0,3.761-.706l.166-.084h.017v-2.568a3.171,3.171,0,0,0-3.167-3.168" transform="translate(-153.787 -280.807)" fill="#fff"/><path d="M75.241,223.206c-9.126,0-16.524,6.011-16.524,13.426s7.4,13.426,16.524,13.426a20.375,20.375,0,0,0,2.576-.163c3.55,3.549,7.787,4.186,11.883,4.279v-.869c-2.212-1.083-4.131-3.058-4.131-5.313a6.235,6.235,0,0,1,.07-.926c3.737-2.461,6.126-6.221,6.126-10.434,0-7.415-7.4-13.426-16.524-13.426" transform="translate(-28.807 -109.506)" fill="#d43476"/><path d="M90.84,239.686l-.638.222-.659-1.9a3.867,3.867,0,1,0-7.3,2.536l.659,1.9-.694.241a.936.936,0,0,0-.536.929l2.517,7.25c.1.3.592.2.893.1l8.633-3c.3-.1.315-.179.21-.48l-2.517-7.25c-.1-.3-.265-.65-.566-.546m-2.1.728-4.381,1.521-.659-1.9a2.324,2.324,0,1,1,4.381-1.521Z" transform="translate(-40.058 -115.439)" fill="#fff"/><path d="M575.458,253.314l-1.811-1.586-5.18,4.44a1.059,1.059,0,0,0,.723.284h12.536a1.051,1.051,0,0,0,.72-.284l-5.176-4.44Z" transform="translate(-278.893 -123.499)" fill="#fff"/><path d="M582.45,240.751a1.053,1.053,0,0,0-.723-.283H569.191a1.05,1.05,0,0,0-.721.285l6.989,5.99Z" transform="translate(-278.895 -117.975)" fill="#fff"/><path d="M567.818,242.271v8.69l5.055-4.3Z" transform="translate(-278.575 -118.859)" fill="#fff"/><path d="M586.64,246.662l5.055,4.3v-8.693Z" transform="translate(-287.809 -118.856)" fill="#fff"/><g transform="translate(161.277 132.24)" opacity="0.38"><g clip-path="url(#d)"><path d="M371.932,322.087l8.639,8.213-10.695,5.264Z" transform="translate(-342.74 -290.258)" fill="#d4e7e0" fill-rule="evenodd"/><path d="M386.5,316.017l-3.947,11.3-8.639-8.213Z" transform="translate(-344.72 -287.28)" fill="#6bbdef" fill-rule="evenodd"/><path d="M401.791,323.061l-6.972-7.044-3.947,11.3Z" transform="translate(-353.04 -287.28)" fill="#508ccf" fill-rule="evenodd"/><path d="M399.934,344.2l1.856-14.356-10.919,4.261Z" transform="translate(-353.04 -294.064)" fill="#6bbdef" fill-rule="evenodd"/><path d="M380.788,353.467l-.216-15.258-10.695,5.264Z" transform="translate(-342.74 -298.168)" fill="#6bbdef" fill-rule="evenodd"/><path d="M399.934,348.3l-9.063-10.1.216,15.258Z" transform="translate(-353.04 -298.168)" fill="#508ccf" fill-rule="evenodd"/><path d="M369.876,348.543l2.807,12.617,8.1-2.623Z" transform="translate(-342.74 -303.237)" fill="#508ccf" fill-rule="evenodd"/><path d="M365.637,322.087l-8.591,6.241,6.536,7.236Z" transform="translate(-336.445 -290.258)" fill="#6bbdef" fill-rule="evenodd"/><path d="M409.14,309.975l-8.33-6.074-2.19,6.172,6.972,7.044Z" transform="translate(-356.842 -281.336)" fill="#467b92" fill-rule="evenodd"/><path d="M417.755,331.278l-5.447-8.311,3.547-7.142,6.183,9.98Z" transform="translate(-363.557 -287.186)" fill="#b41947" fill-rule="evenodd"/><path d="M408.663,344.2l1.856-14.356,5.447,8.311Z" transform="translate(-361.769 -294.064)" fill="#508ccf" fill-rule="evenodd"/><path d="M402.762,366.841l-2.619-8.813L391.3,363.19Z" transform="translate(-353.249 -307.891)" fill="#b41947" fill-rule="evenodd"/><path d="M415.967,346.161l2.68,6.926-9.984-.881Z" transform="translate(-361.769 -302.069)" fill="#b41947" fill-rule="evenodd"/><path d="M411.282,366.841l-2.619-8.813,9.984.881Z" transform="translate(-361.769 -307.891)" fill="#850037" fill-rule="evenodd"/><path d="M427.284,335.417l-1.6,12.4L423,340.89Z" transform="translate(-368.803 -296.798)" fill="#850037" fill-rule="evenodd"/><path d="M411.249,309.975l.479-2.964-8.809-3.11Z" transform="translate(-358.951 -281.336)" fill="#b41947" fill-rule="evenodd"/><path d="M425.454,325.805l1.145-3.985-7.327-5.995Z" transform="translate(-366.974 -287.186)" fill="#850037" fill-rule="evenodd"/><path d="M419.751,310.008l-.479,2.964,7.328,5.995Z" transform="translate(-366.974 -284.332)" fill="#354d6e" fill-rule="evenodd"/><path d="M433.629,339.318l-2.22-7.74,1.145-3.985Z" transform="translate(-372.928 -292.96)" fill="#211e67" fill-rule="evenodd"/><path d="M428.263,347.816l1.6-12.4,2.22,7.74Z" transform="translate(-371.385 -296.798)" fill="#354d6e" fill-rule="evenodd"/><path d="M427.989,360.018l.14-4.748,3.822-4.659Z" transform="translate(-371.251 -304.252)" fill="#32348c" fill-rule="evenodd"/><path d="M413.8,367.689l7.365-7.932-.14,4.748Z" transform="translate(-364.292 -308.739)" fill="#354d6e" fill-rule="evenodd"/><path d="M393.847,376.157l8.915-4.344-11.465-3.65Z" transform="translate(-353.249 -312.863)" fill="#850037" fill-rule="evenodd"/><path d="M375.388,370.786l8.1-2.622,2.551,7.993Z" transform="translate(-345.444 -312.863)" fill="#b41947" fill-rule="evenodd"/><path d="M378.245,378.951l-2.857-5.64,10.654,5.372Z" transform="translate(-345.444 -315.389)" fill="#850037" fill-rule="evenodd"/><path d="M388.817,384.993l-.023-1.136-7.8.268Z" transform="translate(-348.196 -320.562)" fill="#354d6e" fill-rule="evenodd"/><path d="M405.219,375.329l-.308,3.185-8.607,1.158Z" transform="translate(-355.706 -316.379)" fill="#354d6e" fill-rule="evenodd"/><path d="M420.734,369.079l-7.225,3.184-.308,3.185Z" transform="translate(-363.996 -313.312)" fill="#211e67" fill-rule="evenodd"/><path d="M396.327,383.877l-.023-1.136,8.608-1.159Z" transform="translate(-355.706 -319.446)" fill="#211e67" fill-rule="evenodd"/><path d="M363.732,348.543l-6.379,3.585,9.186,9.033Z" transform="translate(-336.596 -303.237)" fill="#467b92" fill-rule="evenodd"/><path d="M363.581,341.574l-6.536-7.236.157,10.821Z" transform="translate(-336.445 -296.268)" fill="#508ccf" fill-rule="evenodd"/><path d="M366.54,364.612l-5.14.151-4.047-9.183Z" transform="translate(-336.596 -306.69)" fill="#b41947" fill-rule="evenodd"/><path d="M373.294,378.951l-2.857-5.64-5.14.151Z" transform="translate(-340.493 -315.389)" fill="#354d6e" fill-rule="evenodd"/><path d="M355.36,355.58l-2.069,1.551,6.115,7.632Z" transform="translate(-334.604 -306.69)" fill="#850037" fill-rule="evenodd"/><path d="M356.874,364.56l2.533,1.7-6.115-7.632Z" transform="translate(-334.604 -308.184)" fill="#211e67" fill-rule="evenodd"/><path d="M370.855,377.462l-8-5.489-2.533-1.7,5.066,4.239Z" transform="translate(-338.054 -313.899)" fill="#32348c" fill-rule="evenodd"/><path d="M350.837,336.636,354,331.687l-1.8-2.752Z" transform="translate(-333.4 -293.618)" fill="#508ccf" fill-rule="evenodd"/><path d="M354.156,345.159l-3.319-5.872L354,334.338Z" transform="translate(-333.399 -296.268)" fill="#467b92" fill-rule="evenodd"/><path d="M352.088,351.476l2.069-1.551-3.319-5.872Z" transform="translate(-333.4 -301.034)" fill="#b41947" fill-rule="evenodd"/><path d="M402.92,303.179l.859-.75,7.95,3.861Z" transform="translate(-358.951 -280.613)" fill="#850037" fill-rule="evenodd"/><path d="M383.461,304.871,370.629,293.3l-2.907.8,3.153,13.863Z" transform="translate(-341.683 -276.134)" fill="#508ccf" fill-rule="evenodd"/><path d="M351.132,317.406l8.591-6.241-14.732-11.339Z" transform="translate(-330.532 -279.337)" fill="#d4e7e0" fill-rule="evenodd"/><path d="M345.719,321.643l-8.094-7.572.412,2.4,6.318,12.875Z" transform="translate(-326.918 -286.325)" fill="#6bbdef" fill-rule="evenodd"/><path d="M402.367,294.111l.859-.75L404.8,286.8l-3.007-2.858Z" transform="translate(-358.399 -271.546)" fill="#b41947" fill-rule="evenodd"/><path d="M394.725,296.446l-4.045-20.321,6.235,14.149Z" transform="translate(-352.946 -267.709)" fill="#508ccf" fill-rule="evenodd"/><path d="M370.629,283.485,369.558,273.3l-1.836,10.991Z" transform="translate(-341.683 -266.321)" fill="#6bbdef" fill-rule="evenodd"/><path d="M390.679,276.125l.62,17.232,3.425,3.088Z" transform="translate(-352.946 -267.709)" fill="#850037" fill-rule="evenodd"/><path d="M401.239,283.947l-.574,7.559,1.148,2.606Z" transform="translate(-357.845 -271.546)" fill="#354d6e" fill-rule="evenodd"/><path d="M344.992,299.826l13.122,7.689,1.609,3.651Z" transform="translate(-330.532 -279.337)" fill="#354d6e" fill-rule="evenodd"/><path d="M367.722,294.871l1.544,10.213,1.609,3.651Z" transform="translate(-341.683 -276.906)" fill="#b41947" fill-rule="evenodd"/><path d="M371.326,273.3l1.071,10.189,1.258,1.135Z" transform="translate(-343.451 -266.321)" fill="#211e67" fill-rule="evenodd"/><path d="M337.626,314.071l8.5,6.339.405,1.16-.812.072Z" transform="translate(-326.918 -286.325)" fill="#211e67" fill-rule="evenodd"/><path d="M355.313,331.618l-1.8-2.752.812-.072Z" transform="translate(-334.713 -293.548)" fill="#32348c" fill-rule="evenodd"/><path d="M359.775,295.935l-9.759-8.869,6.435,11.77,4.128,2.419Z" transform="translate(-332.997 -273.076)" fill="#850037" fill-rule="evenodd"/><path d="M387.312,293.635l-3.177-7.749L382.881,294l4.593,4.142Z" transform="translate(-349.12 -272.498)" fill="#354d6e" fill-rule="evenodd"/><path d="M348.387,317.675,344.61,315.3l2.22,3.681,2.723,2.031Z" transform="translate(-330.344 -286.929)" fill="#354d6e" fill-rule="evenodd"/><path d="M345.589,318.058l-.98-2.757,2.22,3.682Z" transform="translate(-330.344 -286.929)" fill="#32348c" fill-rule="evenodd"/><path d="M388.431,291.17l-3.087-5.285,3.177,7.749Z" transform="translate(-350.328 -272.497)" fill="#32348c" fill-rule="evenodd"/><path d="M355.183,298.093l-5.166-11.026,6.435,11.77Z" transform="translate(-332.997 -273.077)" fill="#211e67" fill-rule="evenodd"/><path d="M397.655,279.021l2.289-7.184-1.418,1.034Z" transform="translate(-356.369 -265.605)" fill="#467b92" fill-rule="evenodd"/><path d="M378.986,278.048l-1.294-3.436,2.4-8.308Z" transform="translate(-346.575 -262.89)" fill="#467b92" fill-rule="evenodd"/><path d="M386.5,280.7l-.185-3.541.951,2.157Z" transform="translate(-350.805 -268.215)" fill="#211e67" fill-rule="evenodd"/><path d="M387.081,272.863l1.458-3.067.519,1.81Z" transform="translate(-351.181 -264.604)" fill="#467b92" fill-rule="evenodd"/><path d="M355.252,286.2l-6.6-5.025,2.428.528Z" transform="translate(-332.325 -270.188)" fill="#850037" fill-rule="evenodd"/><path d="M363.2,288.655l-1.2-5.927,1.109-.875Z" transform="translate(-338.878 -270.519)" fill="#d4e7e0" fill-rule="evenodd"/><path d="M342.2,295.988l-7.661-2.134,2.538-.733Z" transform="translate(-325.406 -276.047)" fill="#850037" fill-rule="evenodd"/><path d="M342.141,308.648l-3.941-3.719,3.57,2.1Z" transform="translate(-327.2 -281.84)" fill="#467b92" fill-rule="evenodd"/><path d="M336.309,309.025l-6.6-3.923,4.068,3.7Z" transform="translate(-323.032 -281.925)" fill="#211e67" fill-rule="evenodd"/><path d="M334.257,306.9l-4.551-1.8,6.6,3.923Z" transform="translate(-323.032 -281.925)" fill="#467b92" fill-rule="evenodd"/><path d="M342.2,296.694l-6.628-.7-1.033-1.432Z" transform="translate(-325.406 -276.753)" fill="#211e67" fill-rule="evenodd"/><path d="M342.141,308.648l-3.941-3.719.468,1.061Z" transform="translate(-327.2 -281.84)" fill="#354d6e" fill-rule="evenodd"/><path d="M355.252,286.2l-6.6-5.025.773,1.753Z" transform="translate(-332.325 -270.188)" fill="#467b92" fill-rule="evenodd"/><path d="M364.268,288.655l-.087-6.8,1.031,2.989Z" transform="translate(-339.946 -270.519)" fill="#354d6e" fill-rule="evenodd"/><path d="M399.944,271.836l-.2,3.175-2.091,4.009Z" transform="translate(-356.369 -265.605)" fill="#211e67" fill-rule="evenodd"/><path d="M381.338,266.3l-1.107,11.744,1.384-2.113Z" transform="translate(-347.821 -262.891)" fill="#211e67" fill-rule="evenodd"/><path d="M385.85,277.155l-.482,2.024.668,1.516Z" transform="translate(-350.341 -268.214)" fill="#850037" fill-rule="evenodd"/><path d="M378.771,292.061l-.485-3.228-.265,1Z" transform="translate(-346.735 -273.943)" fill="#d4e7e0" fill-rule="evenodd"/><path d="M395.235,267.255l1.241-3.247-1.264.694Z" transform="translate(-355.17 -261.764)" fill="#d4e7e0" fill-rule="evenodd"/><path d="M375.6,269.934l.309,2.453-.7-.406Z" transform="translate(-345.357 -264.671)" fill="#467b92" fill-rule="evenodd"/><path d="M364.078,269.12l-.5-4.6-.449,1.521Z" transform="translate(-339.432 -262.014)" fill="#354d6e" fill-rule="evenodd"/><path d="M350.4,296.189l-2.776-3.758,1.006-.258Z" transform="translate(-331.822 -275.582)" fill="#467b92" fill-rule="evenodd"/><path d="M337.514,302.606l-1.9-.68.76-.087Z" transform="translate(-325.933 -280.324)" fill="#d4e7e0" fill-rule="evenodd"/><path d="M327.016,290.323l-3.027.012,1.269-.56Z" transform="translate(-320.228 -274.405)" fill="#354d6e" fill-rule="evenodd"/><path d="M350.4,296.437l-1.821-1.59-.955-2.168Z" transform="translate(-331.822 -275.831)" fill="#354d6e" fill-rule="evenodd"/><path d="M354.176,273.059l-2.056-2.749.03,1.162Z" transform="translate(-334.029 -264.856)" fill="#d4e7e0" fill-rule="evenodd"/><path d="M405.981,298.3l1.872-1.817-.1,1.034Z" transform="translate(-360.453 -277.696)" fill="#d4e7e0" fill-rule="evenodd"/><path d="M405.2,281.244l2.477.231-1.471.538Z" transform="translate(-360.071 -270.22)" fill="#467b92" fill-rule="evenodd"/><path d="M372.649,267.869l.358-1.554-.469.647Z" transform="translate(-344.046 -262.896)" fill="#d4e7e0" fill-rule="evenodd"/><path d="M384.615,262.53l1.152-1.052-.766.094Z" transform="translate(-349.971 -260.523)" fill="#354d6e" fill-rule="evenodd"/><path d="M387.619,312.654v-.008l-1.076-11.725v-.006h0l0-.006,0,0-6.848-8.958h0l0,0-.006,0,0,0-7.927-3.85,1.568-6.533a.031.031,0,0,0-.009-.03l-3.007-2.858a.025.025,0,0,0-.009-.006h0l-.008,0h0l-.012,0a.031.031,0,0,0-.015.014v0l0,.008h0l-.564,7.434-5.036-11.428,0,0,0-.005,0,0,0,0-.005,0-.006,0h-.015l0,0-.005,0,0,0,0,0,0,.005,0,0v.009l.365,10.132-3.024-5.177h0l0-.006,0,0-.006,0h0l-.007,0h0l-.01,0h0l-.008.006,0,0,0,.006v.008l-1.245,8.061-3.505-3.162-2.328-11.313,0,0,0-.007,0,0-.005-.005,0,0-.006,0h-.014l0,0-.005,0-.006,0,0,0-.005.006,0,0,0,.005v0l-1.836,10.991v.009l.727,4.806-9.694-8.809h0l0,0-.006,0H343.9l-.007,0h0l0,0,0,0,0,0,0,0,0,.006,0,0v.012l0,.007v0L349,291.228l-7.638-4.476h0l-.007,0,0,0h-.011l-.007,0,0,0h0a.025.025,0,0,0-.007.008h0v0a.026.026,0,0,0,0,.008v0a.017.017,0,0,0,0,.007v.007l3.553,10.173-3.7-2.326,0,0,0,0h-.011l-.011,0h0l-.008.005h0l0,0,0,.006v0l0,.006v.013l.944,2.659-4.453-3.321h0l-.007,0h-.014l-.009,0h0l-.009.007h0v0l0,.006v.017l.412,2.4a.029.029,0,0,0,0,.009l6.315,12.87,1.25,7.418h0v0l0,0,0,.005,3.582,5.934,0,0,0,0,5.066,4.239.006,0,5.464,2.948.012,0,7.82.867h.012l8.584-2.295h0l0,0,0,0h0l7.533-6.369,0-.005,0,0,0,0h0l3.963-9.409h0v-.006M344.96,297.026h0l-3.547-10.156,14.614,11.249-8.523,6.19-2.07-5.926Zm4.1-5.693.282.166,1.938,1.135,3.168,1.857L356,298.019,341.763,287.06Zm6.767-7.844.107.1,1.139,1.027,3.556,3.208,2.1,1.894,5.488,4.949.385.347-4.392,1.078-8.106,1.991-3.139-13.8.411-.113Zm3.78,46.267-7.816-5.364,5.024-.148,1.056,2.084Zm-13.861-28.122.736-.066.893,2.557-.528-.807Zm10.4-3.5,12.474-3.064-3.912,11.2ZM380.5,310.83l-6.673,5.522,1.835-14.193,5.385,8.217Zm-4.9-8.71-1.84,14.235-7.953-8.859-1.034-1.151Zm-1.867,14.3-8.767,5.117-.041-2.93-.173-12.191,5.424,6.041ZM354.079,311.6l10.609-5.221.214,15.135Zm10.8,9.973-8.019,2.6-2.778-12.486Zm18.844-4.3-9.857-.871,5.772-4.778,1.439-1.19,1.342,3.466Zm-8.136-15.214-10.811,4.218,3.908-11.192Zm-21.518,9.481,2.037-13.357,8.563,8.14Zm1.7-11.579L354,311.526l-6.468-7.161,8.5-6.176Zm-8.246,4.481,4.607,5.1,1.846,2.044-6.3,3.539-.066-4.569ZM368.3,319.66l5.458-3.185,2.591,8.717-11.342-3.61Zm5.52-3.2,9.482.838.391.034-7.283,7.844Zm7.262-6.134-3.591-5.478-1.823-2.781,3.514-7.075,6.141,9.913-1.658,2.118Zm-33.476,4.729-3.249-5.748,3.1-4.845Zm.085.13,5.912-3.322.394-.221,2.775,12.471-.583-.573Zm9.06,9-5.045.149-3.972-9.014Zm.158.036,2.98-.964,5.021-1.625,2.518,7.892-8.944-4.509Zm10.591,5.32-2.522-7.9,9.784,3.114,1.548.494Zm16.246-12.357-2.629-6.794,1.38-1.763,2.821-3.606-.254,1.968Zm2.726-16.247-1.12,3.9-.3-.487-5.744-9.27,3.4,2.78Zm-7.314-6.062-3.492-2.546-4.622-3.371,8.581,3.03Zm-8.291-5.968,3.714,2.707,4.56,3.326-3.516,7.079-6.927-7,1.3-3.661ZM347.45,304.36l-3.067,4.8,1.322-7.467Zm12.257,25.461-1.2-2.358-1.61-3.178,10.459,5.273-.572.02Zm7.968-.294,8.688-4.233-.3,3.1ZM383.811,317.2l1.568-12.14,2.174,7.577Zm-4.592-22.288.465-2.872,6.64,8.685Zm-25.726-8.026,2.483,10.916-1.475-3.347-.8-5.316-.612-4.046Zm-11.379,10.554,1.24.925.376.281,2.34,1.744.389,1.113-.068.007-.69.062-7.67-7.176Zm5.518,17.784.521,1.183,3.413,7.744-4.1-5.119-1.843-2.3,1-.746Zm19.886,14.382,8.09-1.089-8.068,2.157Zm16.078-7.576-7.068,3.114,7.2-7.758-.009.289ZM385.4,304.91l1.1-3.815,1.029,11.225ZM373.03,289.591l-2.113-.746.79-.689.013-.013,7.428,3.609Zm-1.344-1.5-.4.346-.407.356-.565-10.021,2.936,2.79Zm-1.409-8.921.537,9.516-1.075-2.439Zm.545,9.689-2.148,6.052-3.967-19.927Zm-2.206,6.083-2.371-2.138-.973-.877-.606-16.827Zm-3.657-9.967.028.778.054,1.5-2.939-7.169Zm-3.043-5.177,3.131,7.639.044,1.218.116,3.213-.7-.632-3.824-3.449Zm-5.966,3.722-.087-.079-.4-3.829-.6-5.709,2.181,10.6Zm-1.2-10.019.514,4.89.53,5.043-1.942.535-.891.246Zm-.326,20.909-3.293-1.93-.771-.451-1.3-2.377-5.041-9.222,9.612,8.736Zm-10.064-13.224,4.375,8,1.52,2.779-.6-.348-.567-.333Zm.538,15.874.465,1.332.663,1.9-2.636-1.966-2.148-3.563Zm-3.617-2.111.308.51,1.668,2.767-1.1-.823Zm-3.645-.823,8.013,7.5L345.3,303.6l-.993,5.606-6.274-12.784Zm9.961,21.049-.138.1-1.867,1.4-1.212-7.2Zm3.935,9.052-1.2-.8-1.156-.775-3.333-5.521Zm2.7,2.655-4.609-3.857.937.628,1.1.74,7.51,5.155Zm13.213,2.738.022,1.068-7.354-.817Zm8.677-1.266.3-3.089,7.009-3.088Zm7.665-11.031,3.678-4.483-3.813,9.051Z" transform="translate(-326.888 -266.29)"/><path d="M397.594,278.99V279l0,.005,0,0,0,0,.005,0,0,0h.012a.029.029,0,0,0,.015,0h0a.03.03,0,0,0,.01-.011h0L399.744,275a.03.03,0,0,0,0-.013l.2-3.176h0V271.8h0a.026.026,0,0,0-.005-.01l0,0,0,0h0l0,0-.007,0h-.015l-.006,0,0,0h0l-1.418,1.033a.033.033,0,0,0-.012.021l-.872,6.15v0m2.091-4.017-1.918,3.679,2.1-6.594Zm-1.159-2.116,1.329-.969-2.146,6.735Z" transform="translate(-356.339 -265.575)"/><path d="M378.926,278.029l0,0,0,0,0,0,0,0,.007,0,0,0h0l.01,0h0a.024.024,0,0,0,.011,0h0a.027.027,0,0,0,.01-.009l0,0,1.383-2.112a.029.029,0,0,0,.005-.018l-.277-9.631v-.01l0,0,0-.005,0,0-.005,0-.005,0,0,0h-.008l-.006,0,0,0-.006,0,0,0,0,.005,0,0v0l-2.4,8.308a.03.03,0,0,0,0,.02Zm1.381-2.133-1.308,2,1.046-11.106ZM380,266.6l-1.062,11.274-1.242-3.3Z" transform="translate(-346.544 -262.86)"/><path d="M387.051,272.865a.033.033,0,0,0,.017-.005l1.977-1.257a.032.032,0,0,0,.014-.035l-.519-1.81a.031.031,0,0,0-.027-.023.033.033,0,0,0-.032.018l-1.458,3.067a.031.031,0,0,0,.008.037.033.033,0,0,0,.021.008m1.451-3.01.489,1.707-1.865,1.185Z" transform="translate(-351.15 -264.574)"/><path d="M363.14,288.634l0,.005,0,0,0,0,0,0,0,0,.005,0h.013l.007,0,0,0,.005,0,0,0,0-.005,0,0v0l.945-3.813a.043.043,0,0,0,0-.018l-1.031-2.988,0-.005,0,0a.03.03,0,0,0-.011-.01h0a.024.024,0,0,0-.013,0h0a.027.027,0,0,0-.013.006h0l-1.108.875a.03.03,0,0,0-.011.031l1.2,5.927,0,0m.058-.255-.025-2-.056-4.357.965,2.795Zm-.145-6.491.072,5.646.009.754-1.124-5.577Z" transform="translate(-338.848 -270.489)"/><path d="M333.722,308.794a.029.029,0,0,0,.019.008l2.536.224h0l.012,0,0,0,.008-.007h0a.035.035,0,0,0,.005-.01v-.014l0-.007,0,0,0-.006h0l-2.052-2.127a.038.038,0,0,0-.011-.007l-4.551-1.8h0l-.006,0h-.011l0,0-.005,0,0,0,0,0,0,0,0,0v0l0,.006a.016.016,0,0,0,0,.005v.006l0,.006,0,.005,0,0,0,0Zm-3.794-3.536,6.217,3.693-2.388-.211Zm6.166,3.59-6.064-3.6,4.18,1.649Z" transform="translate(-323.003 -281.895)"/><path d="M334.482,293.823h0a.033.033,0,0,0,0,.01l0,0,0,0,1.033,1.432a.034.034,0,0,0,.022.013l6.628.7h0a.035.035,0,0,0,.016,0l0,0a.029.029,0,0,0,.01-.012h0v0l0,0v-.014l0-.006,0,0,0,0,0,0h0l-5.122-2.867a.031.031,0,0,0-.024,0l-2.539.733h0l-.005,0,0,0,0,0,0,0h0l0,0,0,0v.009m1.082,1.4-.972-1.347,2.647.738,4.562,1.271Zm1.484-2.1,4.882,2.732-7.3-2.034Z" transform="translate(-325.375 -276.017)"/><path d="M342.142,308.615v0l-.371-1.62a.031.031,0,0,0-.015-.02l-3.57-2.1h0l-.006,0h-.015l-.006,0,0,0h0l0,0,0,0h0a.028.028,0,0,0,0,.009v.012l0,0,0,.006h0l.467,1.06a.04.04,0,0,0,.01.013l3.474,2.658.006,0h0l.011,0a.034.034,0,0,0,.014,0h0l.008-.007h0l0-.008v-.015m-.085-.091-3.663-3.456,3.318,1.952Zm-3.8-3.495,3.384,3.194-2.983-2.283Z" transform="translate(-327.169 -281.81)"/><path d="M348.587,281.154v.008l.773,1.753a.031.031,0,0,0,.013.015l5.832,3.271h0a.028.028,0,0,0,.028,0l0,0,.006,0,0,0h0v0l0-.006v-.016l0-.006,0-.005,0,0-4.176-4.5a.035.035,0,0,0-.016-.01l-2.428-.528h-.019l0,0,0,0h0l0,0,0,0v.02m.109.094,6.147,4.677-5.428-3.045Zm6.254,4.679-3.441-2.618-2.758-2.1,2.279.5Z" transform="translate(-332.295 -270.158)"/><path d="M385.844,277.106a.028.028,0,0,0-.01-.009h0l-.01,0h-.011l-.006,0,0,0,0,0,0,0,0,0,0,.007h0l-.483,2.024a.03.03,0,0,0,0,.02l.668,1.517h0a.032.032,0,0,0,.011.013h0l.01,0h.014l.007,0h0a.033.033,0,0,0,.01-.01h0l.765-1.384a.029.029,0,0,0,0-.028l-.951-2.157a.018.018,0,0,0,0-.007m-.474,2.041.429-1.8.033.616.133,2.535Zm1.365.134-.7,1.274-.171-3.26Z" transform="translate(-350.31 -268.184)"/><path d="M378.256,288.772a.032.032,0,0,0-.033.023l-.265,1a.029.029,0,0,0,0,.018l.751,2.232a.032.032,0,0,0,.03.021h.008a.032.032,0,0,0,.024-.036l-.485-3.228a.031.031,0,0,0-.03-.026m.4,2.909-.634-1.883.224-.841Z" transform="translate(-346.705 -273.913)"/><path d="M395.2,267.255h.006a.032.032,0,0,0,.03-.02l1.241-3.247a.031.031,0,0,0-.009-.035.031.031,0,0,0-.036,0l-1.264.695a.031.031,0,0,0-.016.028l.022,2.552a.031.031,0,0,0,.026.031m1.187-3.209-1.151,3.011-.021-2.367Z" transform="translate(-355.14 -261.733)"/><path d="M375.164,271.977l.7.406a.029.029,0,0,0,.016,0,.027.027,0,0,0,.017-.005.031.031,0,0,0,.014-.031l-.31-2.453a.032.032,0,0,0-.03-.028.031.031,0,0,0-.032.026l-.393,2.047a.032.032,0,0,0,.015.033m.4-1.874.277,2.194-.628-.363Z" transform="translate(-345.326 -264.641)"/><path d="M364.017,269.1a.031.031,0,0,0,.03.022h.006a.032.032,0,0,0,.025-.035l-.5-4.6a.032.032,0,0,0-.028-.028.031.031,0,0,0-.033.022L363.073,266a.028.028,0,0,0,0,.018Zm-.48-4.452.443,4.118-.846-2.758Z" transform="translate(-339.402 -261.983)"/><path d="M337.5,302.549l-1.136-.766a.029.029,0,0,0-.021-.006l-.76.088a.03.03,0,0,0-.027.027.031.031,0,0,0,.02.033l1.9.68.011,0a.031.031,0,0,0,.017-.058m-1.777-.637.615-.07.918.619Z" transform="translate(-325.902 -280.294)"/><path d="M327.016,290.3a.031.031,0,0,0-.022-.035l-1.757-.548a.033.033,0,0,0-.022,0l-1.269.559a.032.032,0,0,0,.013.061l3.027-.012a.031.031,0,0,0,.031-.027m-2.907-.025,1.121-.494,1.551.483Z" transform="translate(-320.197 -274.375)"/><path d="M347.561,292.4v.009l.956,2.168a.034.034,0,0,0,.008.011l1.821,1.59,0,0,0,0,.013,0a.029.029,0,0,0,.014,0h0l0,0,0,0,0,0,0-.005,0,0,0-.006v-.019l-1.77-4.016a.032.032,0,0,0-.037-.018l-1.007.258h0l-.006,0,0,0,0,0a.041.041,0,0,0-.007.01h0a.042.042,0,0,0,0,.014m.174.243,2.435,3.3-1.6-1.395Zm2.489,3.264-2.58-3.492.935-.24Z" transform="translate(-331.792 -275.551)"/><path d="M352.1,271.467l2.026,1.586a.031.031,0,0,0,.019.007.031.031,0,0,0,.022-.009.032.032,0,0,0,0-.042l-2.056-2.749a.031.031,0,0,0-.057.02l.03,1.162a.033.033,0,0,0,.012.024m1.879,1.391-1.828-1.431-.026-1.049Z" transform="translate(-333.999 -264.826)"/><path d="M407.8,296.428l-1.872,1.816a.032.032,0,0,0,.022.055.028.028,0,0,0,.013,0l1.776-.783a.03.03,0,0,0,.019-.026l.1-1.034a.031.031,0,0,0-.018-.032.032.032,0,0,0-.036.006m-.1,1.035-1.6.7,1.685-1.635Z" transform="translate(-360.423 -277.665)"/><path d="M406.158,282.009a.03.03,0,0,0,.019.007l.011,0,1.471-.538a.032.032,0,0,0-.008-.061l-2.478-.231a.032.032,0,0,0-.032.02.031.031,0,0,0,.01.037Zm1.348-.545-1.324.484-.905-.692Z" transform="translate(-360.041 -270.19)"/><path d="M372.617,267.871h0a.032.032,0,0,0,.031-.024l.358-1.554a.032.032,0,0,0-.057-.025l-.469.647a.032.032,0,0,0-.006.022l.112.906a.032.032,0,0,0,.03.028m.294-1.441-.283,1.228-.088-.716Z" transform="translate(-344.016 -262.866)"/><path d="M384.566,262.526a.03.03,0,0,0,.018.006.032.032,0,0,0,.021-.009l1.152-1.052a.032.032,0,0,0-.025-.054l-.766.094a.032.032,0,0,0-.025.019l-.386.958a.031.031,0,0,0,.011.038m.426-.955.65-.079-.977.892Z" transform="translate(-349.94 -260.493)"/><path d="M389.665,337.849a.642.642,0,1,0,.329-.847.642.642,0,0,0-.329.847" transform="translate(-352.422 -297.549)"/><path d="M368.669,348.182a.642.642,0,1,0,.329-.847.643.643,0,0,0-.329.847" transform="translate(-342.121 -302.618)"/><path d="M390.093,367.337a.642.642,0,1,0,.329-.847.642.642,0,0,0-.329.847" transform="translate(-352.632 -312.016)"/><path d="M372.7,321.727a.642.642,0,1,0,.329-.847.643.643,0,0,0-.329.847" transform="translate(-344.101 -289.639)"/><path d="M397.655,315.729a.514.514,0,1,0,.263-.678.514.514,0,0,0-.263.678" transform="translate(-356.347 -286.785)"/><path d="M411.342,329.557a.514.514,0,1,0,.263-.677.514.514,0,0,0-.263.677" transform="translate(-363.062 -293.569)"/><path d="M407.7,357.739a.514.514,0,1,0,.263-.677.514.514,0,0,0-.263.677" transform="translate(-361.274 -307.395)"/><path d="M356.387,355.292a.514.514,0,1,0,.263-.677.513.513,0,0,0-.263.677" transform="translate(-336.101 -306.195)"/><path d="M356.08,334.05a.514.514,0,1,0,.263-.677.513.513,0,0,0-.263.677" transform="translate(-335.95 -295.773)"/><path d="M374.422,373.023a.514.514,0,1,0,.263-.676.514.514,0,0,0-.263.676" transform="translate(-344.949 -314.894)"/><path d="M412.84,375.042a.514.514,0,1,0,.262-.677.513.513,0,0,0-.262.677" transform="translate(-363.797 -315.884)"/><path d="M370.361,273.007a.514.514,0,1,0,.263-.677.514.514,0,0,0-.263.677" transform="translate(-342.956 -265.825)"/><path d="M366.757,294.583a.514.514,0,1,0,.263-.678.513.513,0,0,0-.263.678" transform="translate(-341.188 -276.411)"/><path d="M344.22,299.6a.411.411,0,1,0,.21-.542.411.411,0,0,0-.21.542" transform="translate(-330.136 -278.941)"/><path d="M336.853,313.84a.411.411,0,1,0,.21-.542.411.411,0,0,0-.21.542" transform="translate(-326.522 -285.929)"/><path d="M350.065,343.822a.411.411,0,1,0,.21-.542.411.411,0,0,0-.21.542" transform="translate(-333.004 -300.638)"/><path d="M402.147,303.671a.411.411,0,1,0,.21-.542.412.412,0,0,0-.21.542" transform="translate(-358.555 -280.94)"/><path d="M401.02,283.716a.411.411,0,1,0,.21-.542.411.411,0,0,0-.21.542" transform="translate(-358.002 -271.15)"/><path d="M389.907,275.894a.411.411,0,1,0,.21-.542.411.411,0,0,0-.21.542" transform="translate(-352.55 -267.312)"/><path d="M379.459,289.128a.411.411,0,1,0,.21-.542.411.411,0,0,0-.21.542" transform="translate(-347.424 -273.805)"/><path d="M360.839,290.812a.411.411,0,1,0,.21-.542.411.411,0,0,0-.21.542" transform="translate(-338.289 -274.631)"/><path d="M363.408,281.624a.411.411,0,1,0,.21-.542.411.411,0,0,0-.21.542" transform="translate(-339.55 -270.124)"/><path d="M418.5,315.595a.411.411,0,1,0,.21-.542.411.411,0,0,0-.21.542" transform="translate(-366.578 -286.79)"/><path d="M422.229,345.93a.411.411,0,1,0,.21-.542.411.411,0,0,0-.21.542" transform="translate(-368.408 -301.673)"/><path d="M430.637,335.186a.411.411,0,1,0,.21-.542.411.411,0,0,0-.21.542" transform="translate(-372.533 -296.401)"/><path d="M427.491,359.529a.411.411,0,1,0,.21-.542.411.411,0,0,0-.21.542" transform="translate(-370.989 -308.344)"/><path d="M395.531,383.626a.411.411,0,1,0,.21-.542.411.411,0,0,0-.21.542" transform="translate(-355.309 -320.166)"/><path d="M380.224,384.153a.411.411,0,1,0,.21-.542.412.412,0,0,0-.21.542" transform="translate(-347.8 -320.425)"/><path d="M352.519,358.4a.411.411,0,1,0,.21-.542.411.411,0,0,0-.21.542" transform="translate(-334.208 -307.788)"/><path d="M333.77,294.33a.411.411,0,1,0,.21-.542.411.411,0,0,0-.21.542" transform="translate(-325.009 -276.357)"/><path d="M381.632,266.074a.411.411,0,1,0,.21-.542.411.411,0,0,0-.21.542" transform="translate(-348.491 -262.495)"/><path d="M344.136,315.175a.257.257,0,1,0,.1-.348.257.257,0,0,0-.1.348" transform="translate(-330.097 -286.681)"/><path d="M337.726,304.8a.257.257,0,1,0,.1-.348.257.257,0,0,0-.1.348" transform="translate(-326.952 -281.592)"/><path d="M342.121,312.709a.257.257,0,1,0,.1-.348.257.257,0,0,0-.1.348" transform="translate(-329.108 -285.471)"/><path d="M349.108,298.625a.257.257,0,1,0,.1-.348.257.257,0,0,0-.1.348" transform="translate(-332.536 -278.561)"/><path d="M349.542,286.941a.257.257,0,1,0,.1-.348.257.257,0,0,0-.1.348" transform="translate(-332.749 -272.829)"/><path d="M348.174,281.053a.257.257,0,1,0,.1-.348.257.257,0,0,0-.1.348" transform="translate(-332.078 -269.94)"/><path d="M329.232,304.977a.257.257,0,1,0,.1-.348.257.257,0,0,0-.1.348" transform="translate(-322.785 -281.677)"/><path d="M345.463,312.1a.257.257,0,1,0,.1-.349.258.258,0,0,0-.1.349" transform="translate(-330.748 -285.174)"/><path d="M352.6,299.931a.257.257,0,1,0,.1-.348.256.256,0,0,0-.1.348" transform="translate(-334.248 -279.202)"/><path d="M363.877,295.08a.257.257,0,1,0,.1-.348.258.258,0,0,0-.1.348" transform="translate(-339.782 -276.822)"/><path d="M364.514,273.427a.257.257,0,1,0,.1-.349.258.258,0,0,0-.1.349" transform="translate(-340.094 -266.199)"/><path d="M351.646,270.184a.257.257,0,1,0,.1-.348.257.257,0,0,0-.1.348" transform="translate(-333.781 -264.608)"/><path d="M384.869,285.76a.257.257,0,1,0,.1-.348.257.257,0,0,0-.1.348" transform="translate(-350.081 -272.25)"/><path d="M385.84,277.03a.257.257,0,1,0,.1-.348.257.257,0,0,0-.1.348" transform="translate(-350.557 -267.967)"/><path d="M386.205,283.982a.257.257,0,1,0,.1-.348.257.257,0,0,0-.1.348" transform="translate(-350.736 -271.377)"/><path d="M401.675,271.711a.257.257,0,1,0,.1-.348.257.257,0,0,0-.1.348" transform="translate(-358.326 -265.357)"/><path d="M407.222,289.431a.257.257,0,1,0,.1-.348.257.257,0,0,0-.1.348" transform="translate(-361.047 -274.05)"/><path d="M397.181,285.814a.257.257,0,1,0,.1-.349.257.257,0,0,0-.1.349" transform="translate(-356.121 -272.276)"/><path d="M397.219,263.882a.257.257,0,1,0,.1-.348.257.257,0,0,0-.1.348" transform="translate(-356.139 -261.516)"/><path d="M389.554,269.861a.257.257,0,1,0,.1-.349.257.257,0,0,0-.1.349" transform="translate(-352.379 -264.449)"/><path d="M347.148,292.554a.257.257,0,1,0,.1-.348.258.258,0,0,0-.1.348" transform="translate(-331.574 -275.583)"/><path d="M419.738,309.882a.257.257,0,1,0,.1-.348.258.258,0,0,0-.1.348" transform="translate(-367.187 -284.084)"/><path d="M433.182,327.468a.257.257,0,1,0,.1-.349.257.257,0,0,0-.1.349" transform="translate(-373.783 -292.712)"/><path d="M435.294,350.485a.257.257,0,1,0,.1-.349.256.256,0,0,0-.1.349" transform="translate(-374.819 -304.004)"/><path d="M427.515,368.953a.257.257,0,1,0,.1-.348.256.256,0,0,0-.1.348" transform="translate(-371.003 -313.064)"/><path d="M412.727,381.456a.257.257,0,1,0,.1-.349.257.257,0,0,0-.1.349" transform="translate(-363.748 -319.198)"/><path d="M395.876,385.961a.257.257,0,1,0,.1-.348.257.257,0,0,0-.1.348" transform="translate(-355.481 -321.409)"/><path d="M364.823,373.483a.257.257,0,1,0,.1-.349.256.256,0,0,0-.1.349" transform="translate(-340.246 -315.287)"/><path d="M359.85,370.15a.257.257,0,1,0,.1-.348.257.257,0,0,0-.1.348" transform="translate(-337.806 -313.652)"/><path d="M385.342,310.087v-.008L382.8,297.036v-.006h0a.018.018,0,0,0,0-.007v0l-8.708-9.28h0l0,0-.006,0,0,0-9.342-3.423,1.018-7.517a.031.031,0,0,0-.012-.029l-3.7-2.866a.03.03,0,0,0-.016-.006h-.007l-.013,0h0a.022.022,0,0,0-.007.006h0l-.005.008v0l0,.007v0l.211,8.427-6.962-12.274v0l0,0,0,0,0,0-.006,0h-.02l0,0,0,0,0,0,0,0,0,.006,0,.005v.009l1.564,11.351-3.994-5.482,0,0-.006-.005,0,0-.007,0h-.016l-.01,0v0a.019.019,0,0,0-.007.006l0,0,0,.006v.008l-.482,9.2-4.3-3.156L344,269.584l0,0,0-.006,0,0,0,0-.005,0-.006,0h-.014l0,0-.006,0,0,0,0,0,0,0,0,.006,0,.005v0l-.812,12.55v.01l1.365,5.324-11.9-8.8h0l0,0-.006,0h-.016l-.007,0h0l0,0,0,0,0,0,0,0,0,.006v.016l0,.007v0l7,11.707-9.1-4.162h-.024l-.007,0h0l-.007.009v0a.026.026,0,0,0,0,.008v.011l0,0v0l5.151,11.029-4.431-2.2h-.02l-.01,0h0l-.008.006h0l0,0,0,.006v.023l1.369,2.891-5.39-3.23h0l-.007,0h-.014l-.009,0h0a.028.028,0,0,0-.008.008h0v0l0,.007v0a.014.014,0,0,0,0,.007v.006l.735,2.646a.032.032,0,0,0,0,.008l8.555,13.735,2.247,8.189h0v0l0,.005,0,0,4.7,6.256,0,0,.005,0,6.171,4.184.006,0,6.471,2.689a.023.023,0,0,0,.012,0l8.881.086h0l.011,0,9.378-3.553h0l0,0,.005,0,0,0h0l7.735-8.008v0l0,0h0l0,0v0l3.379-11.014v-.008ZM362.2,282.49l1.147,2.022.433.763-.632,2.581-1.1,4.475-.526-1.716-6.209-20.259L362.2,282.49Zm11.323,5.109-9.65-2.347.829-.885ZM337.862,308.33l1.458-2.886,1.379,11.906-4.312-6.1Zm.03-6.017,1.164,2.492.145.311-2.137-2.644.177-.034Zm44.032.966.041-1.479,3.311,8.282-3.693,5.562Zm-41.153,14.134-1.39-12,4.38,3.961,3.691,3.339-1.778,1.25Zm41.658-18.661-.509,2.819L374,291.274l8.735,5.783Zm-4.642,9.529,4.116-6.52-.383,13.868Zm-25.763,18.2-11.227-9,6.687-4.7,4.136,12.488Zm21.845-35.268,8.029,10.441-4.152,6.577-1.38-1.7-5.642-6.961.978-2.6Zm-26.313,21.513,9.238-5.77,2.091-1.306,1.964,16.987-2.707-2.019Zm14.521-20.215,8.554,7.055-11.673,5.972Zm-1.163,30.138-.377-3.263-1.585-13.709L370.187,315.9l-4.024,2.929Zm9.292-6.815L358.967,305.6l11.689-5.981-.33,11.914Zm-9.241,6.856,9.257-6.737,3.906,9.506Zm9.3-6.866.126-4.523.322-11.643L376,306.169l1.709,2.109-3.437,3.484Zm-21.306-4.051-1.428.892.77-15.246,10.552,8.175Zm11.864,10.926-8.721,3.831L347.563,312.8Zm20.669-6.973-11.184.144,7.43-7.532,2.083,4.1Zm-7.676-24.564-2.773,7.363-.374.993-8.58-7.077,1.742-7.119ZM362.015,292.5l-3.123,13.038L357.16,304.2l-8.819-6.833,10.249-3.646Zm-13.773,4.927-.769,15.225-1.689-1.528-6.4-5.787,5.567-4.973Zm3.769,29.12-5.66.742-5.5-9.69Zm12.667,4.8-2.226-5.124-1.509-3.474,13.153,2.767-5.485,3.4Zm9.51-5.908-3.9-9.5,2.481-.032,8.72-.112-4.939,6.531Zm-.159-37.647-.2,3.3-9.813-5.738,6.526,1.587Zm-37,14.747,2.269,2.808-2.908,5.757.442-5.92Zm1.611,16.915,2.094-1.928,5.45,9.608L340.173,321Zm7.79,7.893,1.751-.23,3.888-.509,3.347,5.223.425.664-8.153-4.46Zm5.733-.709,12.371,4.742-8.583,1.169Zm.005-.066,8.7-3.823,3.73,8.589-4.023-1.542Zm21.986.9.008,1.619-9.319,2.228,9.3-5.759Zm7.741-6.383-7.6,4.312,7.226-9.555.29,4.045Zm.072-19.438.8-4.431,2.444,12.551Zm-6.31-9.346-1.768-1.17.089-1.493.107-1.8,8.473,9.03Zm-15.607-6.286L362,292.368l-4.109-3.015-.693-5.034-.379-2.757h0l-1.527-11.087Zm1.94,6.429-13.7,4.872-5.1-15.15,1.535-.595,1.594-.618Zm-22.371-1.912,1.51.691,4.9,2.242,2.156,3.8-17.3-10.73,8.735,4m8.6,6.829-8.875,7.928-.3-.638-8.532-18.269Zm-11.253,3.415-2.915-1.747-2.828-3.771,4.383,2.173,1.641,3.513Zm.328.27.566,1.211-.6.116-.247.047-9.488-7.231Zm27.367-16.727-.291.311-.538.575-.93-5.864L362.06,274l3.624,2.807Zm-2.4-1.85-.2-8.069,1.7,10.707-.9-1.587Zm-5.5-.887.355,2.574-4.153-7.787Zm-4.013-5.48,4.392,8.235.484,3.517.2,1.451-5.554-4.075Zm-5.723,5.281-.66-.484-.585-2.806-1.643-7.874,3.683,11.747Zm-3.033-11.553,1.18,5.659,1.128,5.408-3.1,1.2Zm2.226,21.493,1.928,5.732-2.057-3.627-.735-2.865-.772-3.013h0l-1.174-4.58Zm-.958-.874.752,2.935-4.842-2.216-8.453-12.323,11.807,8.731Zm-12.128-10.888,2.732,3.983,5.194,7.572-1.4-.639Zm.785,19.382-1.352-.81-1.276-2.693Zm-6.8-3.99,9.861,7.515-.647,8.689-8.5-13.653Zm11.391,19.4,2.2,3.111-2.088,1.923-2.187-7.971Zm7.663,12.844-2.851-1.518-4.407-5.871Zm3.315,2.662L343.8,326.01l2.515,1.34,9.086,4.971Zm6.891,2.69,7-.954,1.261-.172.146,1.2v.007Zm8.473.069-.147-1.206,6.8-1.625,2.229-.533Zm9.383-3.587-.005-1.167-.011-2.348,7.546-4.28Zm7.723-8.1-.37-5.168,3.637-5.478Z" transform="translate(-321.718 -264.489)" fill="#fff"/><path d="M370.286,273.811h0a.038.038,0,0,0,.01.012h0l.009,0h.014l.008,0h0a.038.038,0,0,0,.011-.011h0l1.313-2.53a.034.034,0,0,0,0-.019l-1.405-10.783,0,0,0-.006,0,0,0-.005,0,0-.006,0-.005,0h-.012l-.007,0,0,0-.005,0,0,0,0,.006,0,.005v0l-1.751,9.6a.029.029,0,0,0,0,.019Zm.059-.142L370.257,261l1.338,10.264Zm-.152-12.85.027,3.869.063,8.972-1.778-3.58Z" transform="translate(-342.035 -260.02)" fill="#fff"/><path d="M378.241,267.19a.032.032,0,0,0,.02-.007l2.077-1.636a.031.031,0,0,0,.01-.036l-.788-1.974a.031.031,0,0,0-.03-.02.033.033,0,0,0-.03.021l-1.289,3.61a.031.031,0,0,0,.011.036.034.034,0,0,0,.018.006m1.291-3.552.748,1.875-1.973,1.554Z" transform="translate(-346.828 -261.523)" fill="#fff"/><path d="M335.663,281.028v.005l0,.005v0l1.067,1.881a.029.029,0,0,0,.015.013l6.92,3.011.013,0a.031.031,0,0,0,.015,0l0,0,.007-.005v0l0,0v0l0-.006v-.012l0-.005,0-.005,0,0,0,0-5.2-4.574a.036.036,0,0,0-.017-.008l-2.786-.317h-.013l-.006,0,0,0,0,0,0,0,0,0,0,.005v.015m1.12,1.853-1-1.766,7.5,4.591Zm1.684-1.509,4.919,4.326-7.554-4.626Z" transform="translate(-325.955 -270.098)" fill="#fff"/><path d="M325.018,313.724l0,0a.024.024,0,0,0,.01-.009h0a.022.022,0,0,0,0-.01v0a.057.057,0,0,0,0-.009v0a.018.018,0,0,0,0-.007l0,0,0-.005h0l-2.546-2.155-.012-.006-5.314-1.5h-.015l-.005,0-.005,0,0,0,0,0,0,0v0l0,0v.009a.01.01,0,0,0,0,.006v.005l0,.006,0,0,0,0,0,0,4.987,3.691a.036.036,0,0,0,.019.006h0l2.873-.037a.028.028,0,0,0,.013,0m-.213-.155-7.291-3.389,4.93,1.391Zm-2.663.133-4.729-3.5,7.209,3.351.245.114Z" transform="translate(-316.854 -284.333)" fill="#fff"/><path d="M321.346,296.586v0a.019.019,0,0,0,0,.009l0,0,0,0,1.323,1.49a.031.031,0,0,0,.023.011l7.522.035h.011l0,0,.006,0,0,0,0-.005,0,0,0,0v-.02l0-.005,0,0,0,0,0,0,0,0-6.078-2.637a.03.03,0,0,0-.024,0l-2.767,1.112h0l0,0,0,0,0,0,0,0h0v.005l0,0v.009m1.368,1.457-1.254-1.413,8.384,1.446Zm1.43-2.536,5.825,2.527-8.477-1.462Z" transform="translate(-318.931 -277.185)" fill="#fff"/><path d="M331.542,312.6v0l-.6-1.776a.031.031,0,0,0-.016-.018l-4.248-1.952h0l-.007,0h-.015l-.005,0,0,0h0l0,.005,0,0h0a.03.03,0,0,0,0,.01h0a.027.027,0,0,0,0,.011v0l0,.006h0l.645,1.138a.034.034,0,0,0,.011.011l4.2,2.59h0a.031.031,0,0,0,.015,0,.027.027,0,0,0,.013,0l0,0h0l.008-.008v0l0-.008v0a.035.035,0,0,0,0-.007v0m-.657-1.747.563,1.665-4.545-3.495ZM327.332,310l-.565-1,4.242,3.262Z" transform="translate(-321.524 -283.764)" fill="#fff"/><path d="M352.12,279.988h0a.032.032,0,0,0-.014,0h0a.036.036,0,0,0-.012.007h0l-1.146,1.107a.032.032,0,0,0-.008.032l2.016,6.519,0,0,0,0,0,.005,0,0,.006,0,0,0,.009,0h.011l.006,0,0,0,0,0,0,0,0-.005,0-.006v0l.627-4.389a.032.032,0,0,0,0-.018l-1.5-3.238,0,0,0,0a.036.036,0,0,0-.012-.009m-.036.1.825,7.228L351,281.134Zm.9,7.313-.571-5-.25-2.19,1.412,3.052Z" transform="translate(-333.446 -269.603)" fill="#fff"/><path d="M391.236,272.787l0,.005,0,.005,0,0,0,0,.005,0,0,0h.01a.029.029,0,0,0,.016-.005h0a.03.03,0,0,0,.01-.012v0l1.892-4.739a.034.034,0,0,0,0-.013l-.138-3.588h0l0-.009v0l-.006-.009,0,0-.005,0h0l0,0-.007,0h-.014l-.007,0,0,0h0l-1.475,1.322a.029.029,0,0,0-.01.022l-.28,7.006v.009m1.89-4.753-1.754,4.394,1.626-7.72Zm-1.55-2.246,1.393-1.249-1.657,7.867Z" transform="translate(-353.218 -261.966)" fill="#fff"/><path d="M377.2,272.213l0,.006h0l-.312,2.328a.034.034,0,0,0,0,.02l.923,1.628h0a.033.033,0,0,0,.01.01h0l.011,0h.014l.005,0,0,0a.03.03,0,0,0,.01-.012h0l.7-1.641a.032.032,0,0,0,0-.028l-1.313-2.314a.032.032,0,0,0-.028-.016h-.011l0,0,0,0,0,0,0,0,0,0m.031.232.327,2.116.225,1.453-.833-1.469Zm.623,3.621-.309-2-.259-1.677,1.22,2.151Z" transform="translate(-346.181 -265.78)" fill="#fff"/><path d="M369.951,286.19a.032.032,0,0,0-.03.026l-.184,1.149a.031.031,0,0,0,0,.018l1.1,2.421a.032.032,0,0,0,.029.018l.011,0a.031.031,0,0,0,.02-.038l-.912-3.569a.032.032,0,0,0-.032-.024m-.15,1.176.159-.99.786,3.075Z" transform="translate(-342.672 -272.647)" fill="#fff"/><path d="M384.809,265.676h0a.032.032,0,0,0,.031-.023l1.025-3.788a.032.032,0,0,0-.012-.034.033.033,0,0,0-.036,0l-1.34.924a.031.031,0,0,0-.013.03l.315,2.863a.031.031,0,0,0,.029.028m.974-3.744-.959,3.544-.3-2.679Z" transform="translate(-349.897 -260.693)" fill="#fff"/><path d="M364.685,267.661l.835.376a.028.028,0,0,0,.013,0,.029.029,0,0,0,.02-.008.03.03,0,0,0,.011-.031l-.627-2.72a.032.032,0,0,0-.062,0l-.208,2.343a.032.032,0,0,0,.018.032m.235-2.172.568,2.464-.757-.341Z" transform="translate(-340.184 -262.377)" fill="#fff"/><path d="M351.787,265.692a.032.032,0,0,0,.029.019h.009a.032.032,0,0,0,.022-.037l-1.08-5.112a.03.03,0,0,0-.031-.025.032.032,0,0,0-.031.026l-.332,1.758a.033.033,0,0,0,0,.018Zm-1.049-4.964.979,4.635-1.28-3.041Z" transform="translate(-333.172 -260.06)" fill="#fff"/><path d="M339.424,297.562l0-.006v0l-2.444-4.308a.032.032,0,0,0-.039-.014l-1.1.4,0,0-.006,0,0,0,0,0a.026.026,0,0,0-.005.011h0a.031.031,0,0,0,0,.014v0l0,.005,1.319,2.326a.035.035,0,0,0,.009.01l2.225,1.578,0,0,0,0,.011,0,.012,0,0,0,0,0,0,0,0,0v0l0-.005,0-.005v-.006a.02.02,0,0,0,0-.006v-.005m-.2-.224-3.322-3.659,1.032-.379Zm-3.21-3.441.025.028,3.134,3.452-1.983-1.407Z" transform="translate(-326.031 -276.101)" fill="#fff"/><path d="M325.653,306.24l-1.364-.732a.033.033,0,0,0-.022,0l-.844.184a.031.031,0,0,0,0,.061l2.207.547h.008a.031.031,0,0,0,.015-.059m-2.084-.518.7-.153,1.131.607Z" transform="translate(-319.938 -282.123)" fill="#fff"/><path d="M330.986,288.527a.031.031,0,0,0,.026.014.03.03,0,0,0,.014,0,.032.032,0,0,0,.017-.038l-.6-1.988a.031.031,0,0,0-.014-.017l-1.327-.83a.032.032,0,0,0-.04.005.031.031,0,0,0,0,.04Zm-.6-1.986.541,1.781-1.73-2.525Z" transform="translate(-322.71 -272.387)" fill="#fff"/><path d="M338.507,269.754l2.456,1.551a.031.031,0,0,0,.017.005.032.032,0,0,0,.023-.053l-2.621-2.853a.032.032,0,0,0-.055.025l.166,1.3a.03.03,0,0,0,.014.023m2.289,1.371-2.243-1.417-.151-1.189Z" transform="translate(-327.262 -263.916)" fill="#fff"/><path d="M402.2,293.545a.03.03,0,0,0,.024.011.029.029,0,0,0,.016,0l1.906-1.081a.03.03,0,0,0,.016-.027l-.01-1.172a.03.03,0,0,0-.021-.029.032.032,0,0,0-.035.009l-1.9,2.253a.031.031,0,0,0,0,.04m1.889-2.187.01,1.068-1.738.986Z" transform="translate(-358.592 -275.124)" fill="#fff"/><path d="M399.189,274.674l1.217.749a.031.031,0,0,0,.016,0,.031.031,0,0,0,.014,0l1.591-.771a.031.031,0,0,0,.017-.036.033.033,0,0,0-.031-.024l-2.808.022a.033.033,0,0,0-.03.023.032.032,0,0,0,.014.035m2.685-.016-1.449.7-1.109-.683Z" transform="translate(-357.114 -266.958)" fill="#fff"/><path d="M361.172,263.307a.032.032,0,0,0,.031.024h0a.031.031,0,0,0,.03-.027l.225-1.785a.032.032,0,0,0-.021-.034.031.031,0,0,0-.037.014l-.453.78a.031.031,0,0,0,0,.022Zm.205-1.642-.183,1.454-.185-.818Z" transform="translate(-338.357 -260.525)" fill="#fff"/><path d="M374.858,263.933a.034.034,0,0,0,.015,0,.032.032,0,0,0,.024-.011l1.174-1.312a.031.031,0,0,0,0-.037.032.032,0,0,0-.034-.015l-.85.193a.032.032,0,0,0-.023.022l-.324,1.119a.031.031,0,0,0,.015.036m.365-1.12.735-.167-1.016,1.135Z" transform="translate(-345.176 -261.055)" fill="#fff"/><path d="M388.293,339.953a.725.725,0,1,0,.273-.988.724.724,0,0,0-.273.988" transform="translate(-351.729 -298.492)" fill="#fff"/><path d="M365.892,353.944a.725.725,0,1,0,.273-.989.725.725,0,0,0-.273.989" transform="translate(-340.739 -305.356)" fill="#fff"/><path d="M392.126,373.016a.725.725,0,1,0,.273-.988.725.725,0,0,0-.273.988" transform="translate(-353.61 -314.713)" fill="#fff"/><path d="M367.415,323.778a.725.725,0,1,0,.273-.988.725.725,0,0,0-.273.988" transform="translate(-341.486 -290.556)" fill="#fff"/><path d="M394.737,314.221a.58.58,0,1,0,.217-.791.579.579,0,0,0-.217.791" transform="translate(-354.9 -285.974)" fill="#fff"/><path d="M411.678,328.193a.58.58,0,1,0,.218-.791.58.58,0,0,0-.218.791" transform="translate(-363.211 -292.828)" fill="#fff"/><path d="M410.79,360.253a.58.58,0,1,0,.218-.79.58.58,0,0,0-.218.79" transform="translate(-362.776 -308.558)" fill="#fff"/><path d="M352.894,363.338a.58.58,0,1,0,.219-.79.58.58,0,0,0-.219.79" transform="translate(-334.372 -310.071)" fill="#fff"/><path d="M350.135,339.52a.58.58,0,1,0,.218-.791.579.579,0,0,0-.218.791" transform="translate(-333.018 -298.385)" fill="#fff"/><path d="M375.162,381.2a.58.58,0,1,0,.218-.791.58.58,0,0,0-.218.791" transform="translate(-345.297 -318.833)" fill="#fff"/><path d="M418.53,379.1a.58.58,0,1,0,.219-.791.58.58,0,0,0-.219.791" transform="translate(-366.573 -317.802)" fill="#fff"/><path d="M359.23,269.352a.58.58,0,1,0,.218-.791.579.579,0,0,0-.218.791" transform="translate(-337.48 -263.961)" fill="#fff"/><path d="M357.636,293.989a.58.58,0,1,0,.218-.79.58.58,0,0,0-.218.79" transform="translate(-336.698 -276.048)" fill="#fff"/><path d="M332.889,302.192a.464.464,0,1,0,.175-.633.464.464,0,0,0-.175.633" transform="translate(-324.564 -280.158)" fill="#fff"/><path d="M326.237,319.025a.464.464,0,1,0,.175-.633.464.464,0,0,0-.175.633" transform="translate(-321.301 -288.416)" fill="#fff"/><path d="M344.481,351.19a.464.464,0,1,0,.175-.633.464.464,0,0,0-.175.633" transform="translate(-330.251 -304.196)" fill="#fff"/><path d="M398.4,300.182a.464.464,0,1,0,.175-.632.464.464,0,0,0-.175.632" transform="translate(-356.704 -279.171)" fill="#fff"/><path d="M394.865,277.9a.464.464,0,1,0,.175-.633.463.463,0,0,0-.175.633" transform="translate(-354.97 -268.241)" fill="#fff"/><path d="M381.5,270.383a.464.464,0,1,0,.175-.633.464.464,0,0,0-.175.633" transform="translate(-348.412 -264.552)" fill="#fff"/><path d="M371.27,286.431a.464.464,0,1,0,.175-.633.464.464,0,0,0-.175.633" transform="translate(-343.394 -272.425)" fill="#fff"/><path d="M350.553,290.44a.464.464,0,1,0,.175-.633.464.464,0,0,0-.175.633" transform="translate(-333.23 -274.392)" fill="#fff"/><path d="M352.393,279.829a.464.464,0,1,0,.175-.633.464.464,0,0,0-.175.633" transform="translate(-334.133 -269.186)" fill="#fff"/><path d="M418.117,311.711a.464.464,0,1,0,.174-.633.464.464,0,0,0-.174.633" transform="translate(-366.378 -284.828)" fill="#fff"/><path d="M425.754,345.352a.464.464,0,1,0,.175-.632.464.464,0,0,0-.175.632" transform="translate(-370.124 -301.332)" fill="#fff"/><path d="M433.973,332.331a.464.464,0,1,0,.175-.632.463.463,0,0,0-.175.632" transform="translate(-374.156 -294.944)" fill="#fff"/><path d="M433.208,360.023a.464.464,0,1,0,.175-.633.464.464,0,0,0-.175.633" transform="translate(-373.781 -308.529)" fill="#fff"/><path d="M400.061,390.715a.464.464,0,1,0,.175-.632.464.464,0,0,0-.175.632" transform="translate(-357.519 -323.587)" fill="#fff"/><path d="M382.933,393.048a.464.464,0,1,0,.174-.633.464.464,0,0,0-.174.633" transform="translate(-349.116 -324.732)" fill="#fff"/><path d="M348.894,367.274a.464.464,0,1,0,.175-.633.464.464,0,0,0-.175.633" transform="translate(-332.417 -312.087)" fill="#fff"/><path d="M320.557,297.467a.464.464,0,1,0,.175-.633.464.464,0,0,0-.175.633" transform="translate(-318.514 -277.839)" fill="#fff"/><path d="M371.088,260.3a.464.464,0,1,0,.175-.633.464.464,0,0,0-.175.633" transform="translate(-343.305 -259.603)" fill="#fff"/><path d="M334.55,319.713a.29.29,0,1,0,.077-.4.291.291,0,0,0-.077.4" transform="translate(-325.384 -288.871)" fill="#fff"/><path d="M326.173,308.795a.29.29,0,1,0,.077-.4.291.291,0,0,0-.077.4" transform="translate(-321.274 -283.514)" fill="#fff"/><path d="M332.008,317.173a.29.29,0,1,0,.077-.4.291.291,0,0,0-.077.4" transform="translate(-324.137 -287.625)" fill="#fff"/><path d="M338.252,300.563a.29.29,0,1,0,.077-.4.291.291,0,0,0-.077.4" transform="translate(-327.2 -279.476)" fill="#fff"/><path d="M337.411,287.393a.29.29,0,1,0,.077-.4.291.291,0,0,0-.077.4" transform="translate(-326.788 -273.015)" fill="#fff"/><path d="M335.2,280.939a.29.29,0,1,0,.077-.4.291.291,0,0,0-.077.4" transform="translate(-325.705 -269.848)" fill="#fff"/><path d="M316.656,309.955a.29.29,0,1,0,.077-.4.29.29,0,0,0-.077.4" transform="translate(-316.605 -284.084)" fill="#fff"/><path d="M335.691,316.114a.29.29,0,1,0,.077-.4.291.291,0,0,0-.077.4" transform="translate(-325.944 -287.105)" fill="#fff"/><path d="M342.318,301.633a.29.29,0,1,0,.077-.4.291.291,0,0,0-.077.4" transform="translate(-329.195 -280.001)" fill="#fff"/><path d="M354.433,294.9a.29.29,0,1,0,.077-.4.29.29,0,0,0-.077.4" transform="translate(-335.139 -276.699)" fill="#fff"/><path d="M352.686,270.518a.29.29,0,1,0,.077-.4.29.29,0,0,0-.077.4" transform="translate(-334.282 -264.736)" fill="#fff"/><path d="M337.868,268.339a.29.29,0,1,0,.076-.4.29.29,0,0,0-.076.4" transform="translate(-327.012 -263.667)" fill="#fff"/><path d="M376.945,282.051a.29.29,0,1,0,.077-.4.291.291,0,0,0-.077.4" transform="translate(-346.183 -270.394)" fill="#fff"/><path d="M377.044,272.138a.29.29,0,1,0,.077-.4.291.291,0,0,0-.077.4" transform="translate(-346.232 -265.53)" fill="#fff"/><path d="M378.244,279.9a.29.29,0,1,0,.077-.4.29.29,0,0,0-.077.4" transform="translate(-346.821 -269.34)" fill="#fff"/><path d="M394.22,264.365a.29.29,0,1,0,.077-.4.29.29,0,0,0-.077.4" transform="translate(-354.659 -261.717)" fill="#fff"/><path d="M402.463,283.632a.29.29,0,1,0,.077-.4.291.291,0,0,0-.077.4" transform="translate(-358.703 -271.169)" fill="#fff"/><path d="M390.777,280.713a.29.29,0,1,0,.077-.4.29.29,0,0,0-.077.4" transform="translate(-352.969 -269.737)" fill="#fff"/><path d="M386.638,261.771a.29.29,0,1,0,.077-.4.29.29,0,0,0-.077.4" transform="translate(-350.939 -260.444)" fill="#fff"/><path d="M380.4,263.666a.29.29,0,1,0,.077-.4.291.291,0,0,0-.077.4" transform="translate(-347.877 -261.374)" fill="#fff"/><path d="M335.361,293.969a.29.29,0,1,0,.077-.4.291.291,0,0,0-.077.4" transform="translate(-325.782 -276.241)" fill="#fff"/><path d="M418.843,305.174a.29.29,0,1,0,.077-.4.291.291,0,0,0-.077.4" transform="translate(-366.739 -281.738)" fill="#fff"/><path d="M435.938,323.392a.29.29,0,1,0,.077-.4.29.29,0,0,0-.077.4" transform="translate(-375.126 -290.676)" fill="#fff"/><path d="M440.926,349a.29.29,0,1,0,.077-.4.29.29,0,0,0-.077.4" transform="translate(-377.573 -303.239)" fill="#fff"/><path d="M434.291,370.621a.29.29,0,1,0,.077-.4.291.291,0,0,0-.077.4" transform="translate(-374.318 -313.847)" fill="#fff"/><path d="M419.108,386.342a.29.29,0,1,0,.077-.4.29.29,0,0,0-.077.4" transform="translate(-366.869 -321.56)" fill="#fff"/><path d="M400.7,393.317a.291.291,0,1,0,.077-.4.291.291,0,0,0-.077.4" transform="translate(-357.836 -324.982)" fill="#fff"/><path d="M364.409,382.835a.29.29,0,1,0,.077-.4.291.291,0,0,0-.077.4" transform="translate(-340.033 -319.839)" fill="#fff"/><path d="M358.445,379.658a.29.29,0,1,0,.077-.4.29.29,0,0,0-.077.4" transform="translate(-337.107 -318.28)" fill="#fff"/></g></g></g></g></g></g></svg>