<svg xmlns="http://www.w3.org/2000/svg" xmlns:xlink="http://www.w3.org/1999/xlink" width="1327.991" height="955.045" viewBox="0 0 1327.991 955.045"><defs><linearGradient id="a" x1="0.5" x2="0.5" y2="1" gradientUnits="objectBoundingBox"><stop offset="0" stop-color="#039be5"/><stop offset="1" stop-color="#fff"/></linearGradient><linearGradient id="b" y1="1" y2="0" xlink:href="#a"/><clipPath id="c"><ellipse cx="44.421" cy="44.421" rx="44.421" ry="44.421" fill="none"/></clipPath></defs><g opacity="0.59"><rect width="1327.991" height="409.646" transform="translate(0 545.398)" opacity="0.15" fill="url(#a)"/><rect width="1327.991" height="545.398" opacity="0.15" fill="url(#b)"/><g transform="translate(216.087 403.464)" opacity="0.711"><path d="M197.961,383.022A113.883,113.883,0,1,0,311.844,496.9,113.883,113.883,0,0,0,197.961,383.022Zm0,205A91.119,91.119,0,1,1,289.08,496.9,91.12,91.12,0,0,1,197.961,588.024Z" transform="translate(114.133 -83.343)" fill="#fdfdfd" opacity="0.69"/><g transform="translate(347.482 85.471)" opacity="0.16"><path d="M44.169,313.327-113.3,470.8a13.757,13.757,0,0,1-19.458,0h0a13.759,13.759,0,0,1,0-19.458L24.712,293.87a13.759,13.759,0,0,1,19.458,0h0A13.759,13.759,0,0,1,44.169,313.327Z" transform="translate(136.79 -289.84)" fill="none" stroke="#8f9294" stroke-miterlimit="10" stroke-width="2"/><path d="M46.11,406.09l-120.2,120.2a10.5,10.5,0,0,1-14.852,0h0a10.5,10.5,0,0,1,0-14.852l120.2-120.2a10.5,10.5,0,0,1,14.852,0h0A10.5,10.5,0,0,1,46.11,406.09Z" transform="translate(125.262 -315.154)" fill="none" stroke="#8f9294" stroke-miterlimit="10" stroke-width="2"/></g><g transform="translate(998.719 230.077)"><path d="M695.3,390.082l-7.984,13.829h15.968Z" transform="translate(-687.318 -343.76)" fill="#fdfdfd"/><path d="M695.3,361.354l-7.984,13.829h15.968Z" transform="translate(-687.318 -338.193)" fill="#fdfdfd"/><path d="M695.3,332.626l-7.984,13.829h15.968Z" transform="translate(-687.318 -332.626)" fill="#fdfdfd"/></g><g transform="translate(936.383 313.971)"><line x1="10.948" y2="10.948" transform="translate(0)" fill="none" stroke="#d8d9da" stroke-miterlimit="10" stroke-width="0.78"/><line x1="10.948" y2="10.948" transform="translate(5.334)" fill="none" stroke="#d8d9da" stroke-miterlimit="10" stroke-width="0.78"/><line x1="10.948" y2="10.948" transform="translate(10.667)" fill="none" stroke="#d8d9da" stroke-miterlimit="10" stroke-width="0.78"/><line x1="10.948" y2="10.948" transform="translate(16.001)" fill="none" stroke="#d8d9da" stroke-miterlimit="10" stroke-width="0.78"/><line x1="10.948" y2="10.948" transform="translate(21.335)" fill="none" stroke="#d8d9da" stroke-miterlimit="10" stroke-width="0.78"/><line x1="10.948" y2="10.948" transform="translate(26.668)" fill="none" stroke="#d8d9da" stroke-miterlimit="10" stroke-width="0.78"/><line x1="10.948" y2="10.948" transform="translate(32.002)" fill="none" stroke="#d8d9da" stroke-miterlimit="10" stroke-width="0.78"/><line x1="10.948" y2="10.948" transform="translate(37.336)" fill="none" stroke="#d8d9da" stroke-miterlimit="10" stroke-width="0.78"/><line x1="10.948" y2="10.948" transform="translate(42.669)" fill="none" stroke="#d8d9da" stroke-miterlimit="10" stroke-width="0.78"/><line x1="10.948" y2="10.948" transform="translate(48.003)" fill="none" stroke="#d8d9da" stroke-miterlimit="10" stroke-width="0.78"/><line x1="10.948" y2="10.948" transform="translate(53.336)" fill="none" stroke="#d8d9da" stroke-miterlimit="10" stroke-width="0.78"/><line x1="10.948" y2="10.948" transform="translate(58.67)" fill="none" stroke="#d8d9da" stroke-miterlimit="10" stroke-width="0.78"/><line x1="10.948" y2="10.948" transform="translate(64.004)" fill="none" stroke="#d8d9da" stroke-miterlimit="10" stroke-width="0.78"/></g><g transform="translate(969.648 82.69)"><g transform="translate(24.703)"><path d="M685.269,38.056a1.685,1.685,0,1,1-1.685-1.685A1.685,1.685,0,0,1,685.269,38.056Z" transform="translate(-681.9 -36.371)" fill="none" stroke="#d8d9da" stroke-miterlimit="10" stroke-width="0.78"/><path d="M700.589,38.056a1.684,1.684,0,1,1-1.684-1.685A1.684,1.684,0,0,1,700.589,38.056Z" transform="translate(-684.869 -36.371)" fill="none" stroke="#d8d9da" stroke-miterlimit="10" stroke-width="0.78"/></g><g transform="translate(0 10.668)"><ellipse cx="1.684" cy="1.684" rx="1.684" ry="1.684" transform="translate(0)" fill="none" stroke="#d8d9da" stroke-miterlimit="10" stroke-width="0.78"/><path d="M669.948,51.287a1.684,1.684,0,1,1-1.684-1.684A1.684,1.684,0,0,1,669.948,51.287Z" transform="translate(-654.228 -49.603)" fill="none" stroke="#004d91" stroke-miterlimit="10" stroke-width="0.78"/><path d="M685.269,51.287a1.685,1.685,0,1,1-1.685-1.684A1.685,1.685,0,0,1,685.269,51.287Z" transform="translate(-657.197 -49.603)" fill="none" stroke="#d8d9da" stroke-miterlimit="10" stroke-width="0.78"/><path d="M685.269,63.589a1.685,1.685,0,1,1-1.685-1.684A1.685,1.685,0,0,1,685.269,63.589Z" transform="translate(-657.197 -51.987)" fill="none" stroke="#0284c6" stroke-miterlimit="10" stroke-width="1"/></g></g><g transform="translate(920 91.144)" opacity="0.394"><g transform="translate(0)"><line y2="8.834" transform="translate(4.417)" fill="none" stroke="#8f9294" stroke-miterlimit="10" stroke-width="0.388"/><line x2="8.834" transform="translate(0 4.417)" fill="none" stroke="#8f9294" stroke-miterlimit="10" stroke-width="0.388"/></g><g transform="translate(24.072)"><line y2="8.834" transform="translate(4.417)" fill="none" stroke="#8f9294" stroke-miterlimit="10" stroke-width="0.388"/><line x2="8.834" transform="translate(0 4.417)" fill="none" stroke="#8f9294" stroke-miterlimit="10" stroke-width="0.388"/></g><g transform="translate(48.143)"><line y2="8.834" transform="translate(4.417)" fill="none" stroke="#8f9294" stroke-miterlimit="10" stroke-width="0.388"/><line x2="8.834" transform="translate(0 4.417)" fill="none" stroke="#8f9294" stroke-miterlimit="10" stroke-width="0.388"/></g><g transform="translate(72.215)"><line y2="8.834" transform="translate(4.417)" fill="none" stroke="#8f9294" stroke-miterlimit="10" stroke-width="0.388"/><line x2="8.834" transform="translate(0 4.417)" fill="none" stroke="#8f9294" stroke-miterlimit="10" stroke-width="0.388"/></g><g transform="translate(0 18.33)"><g transform="translate(0)"><line y2="8.834" transform="translate(4.417)" fill="none" stroke="#8f9294" stroke-miterlimit="10" stroke-width="0.388"/><line x2="8.834" transform="translate(0 4.417)" fill="none" stroke="#8f9294" stroke-miterlimit="10" stroke-width="0.388"/></g><g transform="translate(24.072)"><line y2="8.834" transform="translate(4.417)" fill="none" stroke="#8f9294" stroke-miterlimit="10" stroke-width="0.388"/><line x2="8.834" transform="translate(0 4.417)" fill="none" stroke="#8f9294" stroke-miterlimit="10" stroke-width="0.388"/></g><g transform="translate(48.143)"><line y2="8.834" transform="translate(4.417)" fill="none" stroke="#8f9294" stroke-miterlimit="10" stroke-width="0.388"/><line x2="8.834" transform="translate(0 4.417)" fill="none" stroke="#8f9294" stroke-miterlimit="10" stroke-width="0.388"/></g><g transform="translate(72.215)"><line y2="8.834" transform="translate(4.417)" fill="none" stroke="#8f9294" stroke-miterlimit="10" stroke-width="0.388"/><line x2="8.834" transform="translate(0 4.417)" fill="none" stroke="#8f9294" stroke-miterlimit="10" stroke-width="0.388"/></g></g><g transform="translate(0 36.66)"><g transform="translate(0)"><line y2="8.834" transform="translate(4.417)" fill="none" stroke="#8f9294" stroke-miterlimit="10" stroke-width="0.388"/><line x2="8.834" transform="translate(0 4.417)" fill="none" stroke="#8f9294" stroke-miterlimit="10" stroke-width="0.388"/></g><g transform="translate(24.072)"><line y2="8.834" transform="translate(4.417)" fill="none" stroke="#8f9294" stroke-miterlimit="10" stroke-width="0.388"/><line x2="8.834" transform="translate(0 4.417)" fill="none" stroke="#8f9294" stroke-miterlimit="10" stroke-width="0.388"/></g><g transform="translate(48.143)"><line y2="8.834" transform="translate(4.417)" fill="none" stroke="#8f9294" stroke-miterlimit="10" stroke-width="0.388"/><line x2="8.834" transform="translate(0 4.417)" fill="none" stroke="#8f9294" stroke-miterlimit="10" stroke-width="0.388"/></g><g transform="translate(72.215)"><line y2="8.834" transform="translate(4.417)" fill="none" stroke="#8f9294" stroke-miterlimit="10" stroke-width="0.388"/><line x2="8.834" transform="translate(0 4.417)" fill="none" stroke="#8f9294" stroke-miterlimit="10" stroke-width="0.388"/></g></g><g transform="translate(0 54.99)"><g transform="translate(0)"><line y2="8.834" transform="translate(4.417)" fill="none" stroke="#8f9294" stroke-miterlimit="10" stroke-width="0.388"/><line x2="8.834" transform="translate(0 4.417)" fill="none" stroke="#8f9294" stroke-miterlimit="10" stroke-width="0.388"/></g><g transform="translate(24.072)"><line y2="8.834" transform="translate(4.417)" fill="none" stroke="#8f9294" stroke-miterlimit="10" stroke-width="0.388"/><line x2="8.834" transform="translate(0 4.417)" fill="none" stroke="#8f9294" stroke-miterlimit="10" stroke-width="0.388"/></g><g transform="translate(48.143)"><line y2="8.834" transform="translate(4.417)" fill="none" stroke="#8f9294" stroke-miterlimit="10" stroke-width="0.388"/><line x2="8.834" transform="translate(0 4.417)" fill="none" stroke="#8f9294" stroke-miterlimit="10" stroke-width="0.388"/></g><g transform="translate(72.215)"><line y2="8.834" transform="translate(4.417)" fill="none" stroke="#8f9294" stroke-miterlimit="10" stroke-width="0.388"/><line x2="8.834" transform="translate(0 4.417)" fill="none" stroke="#8f9294" stroke-miterlimit="10" stroke-width="0.388"/></g></g></g><g transform="translate(0 170.866)" opacity="0.394"><g transform="translate(0)"><line y2="8.834" transform="translate(4.417)" fill="none" stroke="#8f9294" stroke-miterlimit="10" stroke-width="0.388"/><line x2="8.834" transform="translate(0 4.417)" fill="none" stroke="#8f9294" stroke-miterlimit="10" stroke-width="0.388"/></g><g transform="translate(24.072)"><line y2="8.834" transform="translate(4.417)" fill="none" stroke="#8f9294" stroke-miterlimit="10" stroke-width="0.388"/><line x2="8.834" transform="translate(0 4.417)" fill="none" stroke="#8f9294" stroke-miterlimit="10" stroke-width="0.388"/></g><g transform="translate(48.143)"><line y2="8.834" transform="translate(4.417)" fill="none" stroke="#8f9294" stroke-miterlimit="10" stroke-width="0.388"/><line x2="8.834" transform="translate(0 4.417)" fill="none" stroke="#8f9294" stroke-miterlimit="10" stroke-width="0.388"/></g><g transform="translate(72.215)"><line y2="8.834" transform="translate(4.417)" fill="none" stroke="#8f9294" stroke-miterlimit="10" stroke-width="0.388"/><line x2="8.834" transform="translate(0 4.417)" fill="none" stroke="#8f9294" stroke-miterlimit="10" stroke-width="0.388"/></g><g transform="translate(0 18.33)"><g transform="translate(0)"><line y2="8.834" transform="translate(4.417)" fill="none" stroke="#8f9294" stroke-miterlimit="10" stroke-width="0.388"/><line x2="8.834" transform="translate(0 4.417)" fill="none" stroke="#8f9294" stroke-miterlimit="10" stroke-width="0.388"/></g><g transform="translate(24.072)"><line y2="8.834" transform="translate(4.417)" fill="none" stroke="#8f9294" stroke-miterlimit="10" stroke-width="0.388"/><line x2="8.834" transform="translate(0 4.417)" fill="none" stroke="#8f9294" stroke-miterlimit="10" stroke-width="0.388"/></g><g transform="translate(48.143)"><line y2="8.834" transform="translate(4.417)" fill="none" stroke="#8f9294" stroke-miterlimit="10" stroke-width="0.388"/><line x2="8.834" transform="translate(0 4.417)" fill="none" stroke="#8f9294" stroke-miterlimit="10" stroke-width="0.388"/></g><g transform="translate(72.215)"><line y2="8.834" transform="translate(4.417)" fill="none" stroke="#8f9294" stroke-miterlimit="10" stroke-width="0.388"/><line x2="8.834" transform="translate(0 4.417)" fill="none" stroke="#8f9294" stroke-miterlimit="10" stroke-width="0.388"/></g></g><g transform="translate(0 36.66)"><g transform="translate(0)"><line y2="8.834" transform="translate(4.417)" fill="none" stroke="#8f9294" stroke-miterlimit="10" stroke-width="0.388"/><line x2="8.834" transform="translate(0 4.417)" fill="none" stroke="#8f9294" stroke-miterlimit="10" stroke-width="0.388"/></g><g transform="translate(24.072)"><line y2="8.834" transform="translate(4.417)" fill="none" stroke="#8f9294" stroke-miterlimit="10" stroke-width="0.388"/><line x2="8.834" transform="translate(0 4.417)" fill="none" stroke="#8f9294" stroke-miterlimit="10" stroke-width="0.388"/></g><g transform="translate(48.143)"><line y2="8.834" transform="translate(4.417)" fill="none" stroke="#8f9294" stroke-miterlimit="10" stroke-width="0.388"/><line x2="8.834" transform="translate(0 4.417)" fill="none" stroke="#8f9294" stroke-miterlimit="10" stroke-width="0.388"/></g><g transform="translate(72.215)"><line y2="8.834" transform="translate(4.417)" fill="none" stroke="#8f9294" stroke-miterlimit="10" stroke-width="0.388"/><line x2="8.834" transform="translate(0 4.417)" fill="none" stroke="#8f9294" stroke-miterlimit="10" stroke-width="0.388"/></g></g><g transform="translate(0 54.99)"><g transform="translate(0)"><line y2="8.834" transform="translate(4.417)" fill="none" stroke="#8f9294" stroke-miterlimit="10" stroke-width="0.388"/><line x2="8.834" transform="translate(0 4.417)" fill="none" stroke="#8f9294" stroke-miterlimit="10" stroke-width="0.388"/></g><g transform="translate(24.072)"><line y2="8.834" transform="translate(4.417)" fill="none" stroke="#8f9294" stroke-miterlimit="10" stroke-width="0.388"/><line x2="8.834" transform="translate(0 4.417)" fill="none" stroke="#8f9294" stroke-miterlimit="10" stroke-width="0.388"/></g><g transform="translate(48.143)"><line y2="8.834" transform="translate(4.417)" fill="none" stroke="#8f9294" stroke-miterlimit="10" stroke-width="0.388"/><line x2="8.834" transform="translate(0 4.417)" fill="none" stroke="#8f9294" stroke-miterlimit="10" stroke-width="0.388"/></g><g transform="translate(72.215)"><line y2="8.834" transform="translate(4.417)" fill="none" stroke="#8f9294" stroke-miterlimit="10" stroke-width="0.388"/><line x2="8.834" transform="translate(0 4.417)" fill="none" stroke="#8f9294" stroke-miterlimit="10" stroke-width="0.388"/></g></g></g><rect width="97.944" height="8.212" transform="translate(785.383 95.938)" fill="none" stroke="#8f9294" stroke-linecap="round" stroke-linejoin="round" stroke-width="1"/><g transform="translate(639.625 0)" opacity="0.189"><g transform="translate(0 85.648)"><g transform="translate(0 0)"><rect width="3.425" height="3.425" transform="matrix(0.707, -0.707, 0.707, 0.707, 0, 2.422)" fill="#8f9294"/><rect width="3.251" height="3.251" transform="translate(9.733 12.032) rotate(-44.999)" fill="#8f9294"/><rect width="3.076" height="3.076" transform="matrix(0.707, -0.707, 0.707, 0.707, 19.467, 21.642)" fill="#8f9294"/><rect width="2.902" height="2.902" transform="translate(29.2 31.252) rotate(-44.999)" fill="#8f9294"/><rect width="2.727" height="2.727" transform="matrix(0.707, -0.707, 0.707, 0.707, 38.933, 40.862)" fill="#8f9294"/><rect width="2.553" height="2.553" transform="translate(48.667 50.472) rotate(-45)" fill="#8f9294"/><rect width="2.379" height="2.379" transform="translate(58.4 60.082) rotate(-45)" fill="#8f9294"/><rect width="2.204" height="2.204" transform="translate(68.133 69.692) rotate(-45)" fill="#8f9294"/><rect width="2.03" height="2.03" transform="translate(77.867 79.302) rotate(-45)" fill="#8f9294"/><rect width="1.855" height="1.855" transform="translate(87.6 88.912) rotate(-45)" fill="#8f9294"/><rect width="1.681" height="1.681" transform="translate(97.333 98.522) rotate(-45)" fill="#8f9294"/><rect width="1.507" height="1.507" transform="translate(107.067 108.132) rotate(-45)" fill="#8f9294"/></g></g><g transform="translate(7.786 77.862)"><g transform="translate(0 0)"><rect width="3.425" height="3.425" transform="matrix(0.707, -0.707, 0.707, 0.707, 0, 2.422)" fill="#8f9294"/><rect width="3.251" height="3.251" transform="translate(9.733 12.032) rotate(-44.999)" fill="#8f9294"/><rect width="3.076" height="3.076" transform="translate(19.467 21.642) rotate(-45)" fill="#8f9294"/><rect width="2.902" height="2.902" transform="translate(29.2 31.252) rotate(-45)" fill="#8f9294"/><rect width="2.727" height="2.727" transform="translate(38.933 40.862) rotate(-45)" fill="#8f9294"/><rect width="2.553" height="2.553" transform="translate(48.667 50.472) rotate(-45)" fill="#8f9294"/><rect width="2.379" height="2.379" transform="translate(58.4 60.082) rotate(-45)" fill="#8f9294"/><rect width="2.204" height="2.204" transform="translate(68.133 69.692) rotate(-45)" fill="#8f9294"/><rect width="2.03" height="2.03" transform="matrix(0.707, -0.707, 0.707, 0.707, 77.867, 79.302)" fill="#8f9294"/><rect width="1.855" height="1.855" transform="translate(87.6 88.912) rotate(-45)" fill="#8f9294"/><rect width="1.681" height="1.681" transform="translate(97.333 98.522) rotate(-44.998)" fill="#8f9294"/><rect width="1.507" height="1.507" transform="translate(107.067 108.132) rotate(-45)" fill="#8f9294"/></g></g><g transform="translate(15.572 70.076)"><g transform="translate(0 0)"><rect width="3.425" height="3.425" transform="translate(0 2.422) rotate(-44.999)" fill="#8f9294"/><rect width="3.251" height="3.251" transform="translate(9.733 12.032) rotate(-45)" fill="#8f9294"/><rect width="3.076" height="3.076" transform="translate(19.467 21.642) rotate(-45)" fill="#8f9294"/><rect width="2.902" height="2.902" transform="translate(29.2 31.252) rotate(-44.999)" fill="#8f9294"/><rect width="2.727" height="2.727" transform="translate(38.933 40.862) rotate(-45)" fill="#8f9294"/><rect width="2.553" height="2.553" transform="translate(48.667 50.472) rotate(-45)" fill="#8f9294"/><rect width="2.379" height="2.379" transform="translate(58.4 60.082) rotate(-45)" fill="#8f9294"/><rect width="2.204" height="2.204" transform="translate(68.133 69.692) rotate(-45)" fill="#8f9294"/><rect width="2.03" height="2.03" transform="translate(77.867 79.302) rotate(-45)" fill="#8f9294"/><rect width="1.855" height="1.855" transform="translate(87.6 88.912) rotate(-45)" fill="#8f9294"/><rect width="1.681" height="1.681" transform="translate(97.333 98.522) rotate(-44.998)" fill="#8f9294"/><rect width="1.507" height="1.507" transform="translate(107.067 108.132) rotate(-45)" fill="#8f9294"/></g></g><g transform="translate(23.359 62.289)"><g transform="translate(0 0)"><rect width="3.425" height="3.425" transform="translate(0 2.422) rotate(-45.001)" fill="#8f9294"/><rect width="3.251" height="3.251" transform="translate(9.733 12.032) rotate(-45.001)" fill="#8f9294"/><rect width="3.076" height="3.076" transform="translate(19.467 21.642) rotate(-45.001)" fill="#8f9294"/><rect width="2.902" height="2.902" transform="translate(29.2 31.252) rotate(-45)" fill="#8f9294"/><rect width="2.727" height="2.727" transform="translate(38.933 40.862) rotate(-45)" fill="#8f9294"/><rect width="2.553" height="2.553" transform="translate(48.667 50.472) rotate(-45)" fill="#8f9294"/><rect width="2.379" height="2.379" transform="translate(58.4 60.082) rotate(-45)" fill="#8f9294"/><rect width="2.204" height="2.204" transform="translate(68.133 69.692) rotate(-45)" fill="#8f9294"/><rect width="2.03" height="2.03" transform="translate(77.867 79.302) rotate(-45)" fill="#8f9294"/><rect width="1.855" height="1.855" transform="translate(87.6 88.912) rotate(-45)" fill="#8f9294"/><rect width="1.681" height="1.681" transform="translate(97.333 98.522) rotate(-45.002)" fill="#8f9294"/><rect width="1.507" height="1.507" transform="translate(107.067 108.132) rotate(-45)" fill="#8f9294"/></g></g><g transform="translate(31.145 54.503)"><g transform="translate(0 0)"><rect width="3.425" height="3.425" transform="translate(0 2.422) rotate(-45.001)" fill="#8f9294"/><rect width="3.251" height="3.251" transform="translate(9.733 12.032) rotate(-45.001)" fill="#8f9294"/><rect width="3.076" height="3.076" transform="translate(19.467 21.642) rotate(-45.001)" fill="#8f9294"/><rect width="2.902" height="2.902" transform="translate(29.2 31.252) rotate(-45.001)" fill="#8f9294"/><rect width="2.727" height="2.727" transform="matrix(0.707, -0.707, 0.707, 0.707, 38.933, 40.862)" fill="#8f9294"/><rect width="2.553" height="2.553" transform="translate(48.667 50.472) rotate(-45.001)" fill="#8f9294"/><rect width="2.379" height="2.379" transform="matrix(0.707, -0.707, 0.707, 0.707, 58.4, 60.082)" fill="#8f9294"/><rect width="2.204" height="2.204" transform="translate(68.133 69.692) rotate(-45)" fill="#8f9294"/><rect width="2.03" height="2.03" transform="translate(77.867 79.302) rotate(-45.002)" fill="#8f9294"/><rect width="1.855" height="1.855" transform="translate(87.6 88.912) rotate(-45)" fill="#8f9294"/><rect width="1.681" height="1.681" transform="translate(97.333 98.522) rotate(-45.002)" fill="#8f9294"/><rect width="1.507" height="1.507" transform="translate(107.067 108.132) rotate(-45)" fill="#8f9294"/></g></g><g transform="translate(38.931 46.717)"><g transform="translate(0 0)"><rect width="3.425" height="3.425" transform="translate(0 2.422) rotate(-45.001)" fill="#8f9294"/><rect width="3.251" height="3.251" transform="translate(9.733 12.032) rotate(-45.001)" fill="#8f9294"/><rect width="3.076" height="3.076" transform="translate(19.467 21.642) rotate(-45.001)" fill="#8f9294"/><rect width="2.902" height="2.902" transform="translate(29.2 31.252) rotate(-45.001)" fill="#8f9294"/><rect width="2.727" height="2.727" transform="translate(38.933 40.862) rotate(-45.001)" fill="#8f9294"/><rect width="2.553" height="2.553" transform="matrix(0.707, -0.707, 0.707, 0.707, 48.667, 50.472)" fill="#8f9294"/><rect width="2.379" height="2.379" transform="translate(58.4 60.082) rotate(-45)" fill="#8f9294"/><rect width="2.204" height="2.204" transform="translate(68.133 69.692) rotate(-45.001)" fill="#8f9294"/><rect width="2.03" height="2.03" transform="translate(77.867 79.302) rotate(-45)" fill="#8f9294"/><rect width="1.855" height="1.855" transform="translate(87.6 88.912) rotate(-45)" fill="#8f9294"/><rect width="1.681" height="1.681" transform="translate(97.333 98.522) rotate(-45)" fill="#8f9294"/><rect width="1.507" height="1.507" transform="translate(107.067 108.132) rotate(-45)" fill="#8f9294"/></g></g><g transform="translate(46.717 38.931)"><g transform="translate(0 0)"><rect width="3.425" height="3.425" transform="translate(0 2.422) rotate(-44.999)" fill="#8f9294"/><rect width="3.251" height="3.251" transform="translate(9.733 12.032) rotate(-44.999)" fill="#8f9294"/><rect width="3.076" height="3.076" transform="matrix(0.707, -0.707, 0.707, 0.707, 19.467, 21.642)" fill="#8f9294"/><rect width="2.902" height="2.902" transform="translate(29.2 31.252) rotate(-44.999)" fill="#8f9294"/><rect width="2.727" height="2.727" transform="matrix(0.707, -0.707, 0.707, 0.707, 38.933, 40.862)" fill="#8f9294"/><rect width="2.553" height="2.553" transform="matrix(0.707, -0.707, 0.707, 0.707, 48.667, 50.472)" fill="#8f9294"/><rect width="2.379" height="2.379" transform="translate(58.4 60.082) rotate(-45)" fill="#8f9294"/><rect width="2.204" height="2.204" transform="translate(68.133 69.692) rotate(-45)" fill="#8f9294"/><rect width="2.03" height="2.03" transform="matrix(0.707, -0.707, 0.707, 0.707, 77.867, 79.302)" fill="#8f9294"/><rect width="1.855" height="1.855" transform="translate(87.6 88.912) rotate(-45)" fill="#8f9294"/><rect width="1.681" height="1.681" transform="translate(97.333 98.522) rotate(-45)" fill="#8f9294"/><rect width="1.507" height="1.507" transform="translate(107.067 108.132) rotate(-45)" fill="#8f9294"/></g></g><g transform="translate(54.503 31.145)"><g transform="translate(0 0)"><rect width="3.425" height="3.425" transform="translate(0 2.422) rotate(-44.999)" fill="#8f9294"/><rect width="3.251" height="3.251" transform="translate(9.733 12.032) rotate(-45)" fill="#8f9294"/><rect width="3.076" height="3.076" transform="translate(19.467 21.642) rotate(-45)" fill="#8f9294"/><rect width="2.902" height="2.902" transform="translate(29.2 31.252) rotate(-45)" fill="#8f9294"/><rect width="2.727" height="2.727" transform="translate(38.933 40.862) rotate(-45)" fill="#8f9294"/><rect width="2.553" height="2.553" transform="translate(48.667 50.472) rotate(-45)" fill="#8f9294"/><rect width="2.379" height="2.379" transform="translate(58.4 60.082) rotate(-45)" fill="#8f9294"/><rect width="2.204" height="2.204" transform="translate(68.133 69.692) rotate(-44.999)" fill="#8f9294"/><rect width="2.03" height="2.03" transform="translate(77.867 79.302) rotate(-45)" fill="#8f9294"/><rect width="1.855" height="1.855" transform="translate(87.6 88.912) rotate(-45)" fill="#8f9294"/><rect width="1.681" height="1.681" transform="translate(97.333 98.522) rotate(-45)" fill="#8f9294"/><rect width="1.507" height="1.507" transform="translate(107.067 108.132) rotate(-45)" fill="#8f9294"/></g></g><g transform="translate(62.289 23.359)"><g transform="translate(0 0)"><rect width="3.425" height="3.425" transform="matrix(0.707, -0.707, 0.707, 0.707, 0, 2.422)" fill="#8f9294"/><rect width="3.251" height="3.251" transform="translate(9.733 12.032) rotate(-45)" fill="#8f9294"/><rect width="3.076" height="3.076" transform="matrix(0.707, -0.707, 0.707, 0.707, 19.467, 21.642)" fill="#8f9294"/><rect width="2.902" height="2.902" transform="translate(29.2 31.252) rotate(-45)" fill="#8f9294"/><rect width="2.727" height="2.727" transform="translate(38.933 40.862) rotate(-45)" fill="#8f9294"/><rect width="2.553" height="2.553" transform="translate(48.667 50.472) rotate(-45)" fill="#8f9294"/><rect width="2.379" height="2.379" transform="translate(58.4 60.082) rotate(-45)" fill="#8f9294"/><rect width="2.204" height="2.204" transform="translate(68.133 69.692) rotate(-44.999)" fill="#8f9294"/><rect width="2.03" height="2.03" transform="translate(77.867 79.302) rotate(-45)" fill="#8f9294"/><rect width="1.855" height="1.855" transform="translate(87.6 88.912) rotate(-45)" fill="#8f9294"/><rect width="1.681" height="1.681" transform="translate(97.333 98.522) rotate(-45)" fill="#8f9294"/><rect width="1.507" height="1.507" transform="translate(107.067 108.132) rotate(-45)" fill="#8f9294"/></g></g><g transform="translate(70.076 15.572)"><g transform="translate(0 0)"><rect width="3.425" height="3.425" transform="translate(0 2.422) rotate(-45.001)" fill="#8f9294"/><rect width="3.251" height="3.251" transform="translate(9.733 12.032) rotate(-45.001)" fill="#8f9294"/><rect width="3.076" height="3.076" transform="translate(19.467 21.642) rotate(-45.001)" fill="#8f9294"/><rect width="2.902" height="2.902" transform="translate(29.2 31.252) rotate(-45.001)" fill="#8f9294"/><rect width="2.727" height="2.727" transform="translate(38.933 40.862) rotate(-45)" fill="#8f9294"/><rect width="2.553" height="2.553" transform="translate(48.667 50.472) rotate(-45.001)" fill="#8f9294"/><rect width="2.379" height="2.379" transform="translate(58.4 60.082) rotate(-45)" fill="#8f9294"/><rect width="2.204" height="2.204" transform="translate(68.133 69.692) rotate(-45)" fill="#8f9294"/><rect width="2.03" height="2.03" transform="matrix(0.707, -0.707, 0.707, 0.707, 77.867, 79.302)" fill="#8f9294"/><rect width="1.855" height="1.855" transform="translate(87.6 88.912) rotate(-45)" fill="#8f9294"/><rect width="1.681" height="1.681" transform="translate(97.333 98.522) rotate(-45)" fill="#8f9294"/><rect width="1.507" height="1.507" transform="matrix(0.707, -0.707, 0.707, 0.707, 107.067, 108.132)" fill="#8f9294"/></g></g><g transform="translate(77.862 7.786)"><g transform="translate(0 0)"><rect width="3.425" height="3.425" transform="translate(0 2.422) rotate(-45.001)" fill="#8f9294"/><rect width="3.251" height="3.251" transform="translate(9.733 12.032) rotate(-45.001)" fill="#8f9294"/><rect width="3.076" height="3.076" transform="translate(19.467 21.642) rotate(-45.001)" fill="#8f9294"/><rect width="2.902" height="2.902" transform="translate(29.2 31.252) rotate(-45.001)" fill="#8f9294"/><rect width="2.727" height="2.727" transform="matrix(0.707, -0.707, 0.707, 0.707, 38.933, 40.862)" fill="#8f9294"/><rect width="2.553" height="2.553" transform="translate(48.667 50.472) rotate(-45.001)" fill="#8f9294"/><rect width="2.379" height="2.379" transform="matrix(0.707, -0.707, 0.707, 0.707, 58.4, 60.082)" fill="#8f9294"/><rect width="2.204" height="2.204" transform="translate(68.133 69.692) rotate(-45.001)" fill="#8f9294"/><rect width="2.03" height="2.03" transform="translate(77.867 79.302) rotate(-45.002)" fill="#8f9294"/><rect width="1.855" height="1.855" transform="translate(87.6 88.912) rotate(-45)" fill="#8f9294"/><rect width="1.681" height="1.681" transform="translate(97.333 98.522) rotate(-45.002)" fill="#8f9294"/><rect width="1.507" height="1.507" transform="translate(107.067 108.132) rotate(-45)" fill="#8f9294"/></g></g><g transform="translate(85.648)"><rect width="3.425" height="3.425" transform="matrix(0.707, -0.707, 0.707, 0.707, 0, 2.422)" fill="#8f9294"/><rect width="3.251" height="3.251" transform="translate(9.733 12.032) rotate(-45.001)" fill="#8f9294"/><rect width="3.076" height="3.076" transform="translate(19.467 21.642) rotate(-45.001)" fill="#8f9294"/><rect width="2.902" height="2.902" transform="translate(29.2 31.252) rotate(-45.001)" fill="#8f9294"/><rect width="2.727" height="2.727" transform="translate(38.933 40.862) rotate(-45)" fill="#8f9294"/><rect width="2.553" height="2.553" transform="translate(48.667 50.472) rotate(-45.001)" fill="#8f9294"/><rect width="2.379" height="2.379" transform="translate(58.4 60.082) rotate(-45)" fill="#8f9294"/><rect width="2.204" height="2.204" transform="translate(68.133 69.692) rotate(-45.001)" fill="#8f9294"/><rect width="2.03" height="2.03" transform="translate(77.867 79.302) rotate(-45)" fill="#8f9294"/><rect width="1.855" height="1.855" transform="translate(87.6 88.912) rotate(-45.002)" fill="#8f9294"/><rect width="1.681" height="1.681" transform="translate(97.333 98.522) rotate(-45.001)" fill="#8f9294"/><rect width="1.507" height="1.507" transform="matrix(0.707, -0.707, 0.707, 0.707, 107.067, 108.132)" fill="#8f9294"/></g></g><path d="M745.488,275.471a20.844,20.844,0,1,0,20.845,20.844A20.844,20.844,0,0,0,745.488,275.471Zm0,30.591a9.747,9.747,0,1,1,9.747-9.747A9.747,9.747,0,0,1,745.488,306.062Z" transform="translate(304.168 -70.191)" fill="#fdfdfd"/><g transform="translate(639.625 147.376)" opacity="0.367"><g transform="translate(0)" clip-path="url(#c)"><path d="M501.577,136.445c-12.286,13.041-25.479,25.179-37.768,38.271" transform="translate(-468.586 -138.529)" fill="none" stroke="#606060" stroke-miterlimit="10" stroke-width="0.655"/><path d="M507.19,136.393c-13.685,14.666-28.989,28.914-43.418,43.4" transform="translate(-468.579 -138.518)" fill="none" stroke="#606060" stroke-miterlimit="10" stroke-width="0.655"/><path d="M512.364,136.4c-16.245,16.241-32.6,32.6-48.72,48.728" transform="translate(-468.554 -138.521)" fill="none" stroke="#606060" stroke-miterlimit="10" stroke-width="0.655"/><path d="M517.526,136.55q-26.553,26.559-53.831,53.822" transform="translate(-468.564 -138.549)" fill="none" stroke="#606060" stroke-miterlimit="10" stroke-width="0.655"/><path d="M523.855,136.489c-19.8,19.339-39.849,38.864-60.086,58.967" transform="translate(-468.578 -138.537)" fill="none" stroke="#606060" stroke-miterlimit="10" stroke-width="0.655"/><path d="M527.971,136.579c-20.768,21.377-41.349,41.43-62.457,63.066-.527.528-1.583.528-1.862,1.252" transform="translate(-468.556 -138.555)" fill="none" stroke="#606060" stroke-miterlimit="10" stroke-width="0.655"/><path d="M533.749,136.461c-12.784,13.556-26.5,25.694-40.226,39.414-10.026,10.554-20.053,19.526-29.661,30.06" transform="translate(-468.597 -138.532)" fill="none" stroke="#606060" stroke-miterlimit="10" stroke-width="0.655"/><path d="M537.292,137.765c-24.261,24.642-49.592,48.389-73.522,73.694" transform="translate(-468.579 -138.784)" fill="none" stroke="#606060" stroke-miterlimit="10" stroke-width="0.655"/><path d="M537.262,144.249c-24.21,24.164-49.013,48.967-73.382,73.475" transform="translate(-468.6 -140.041)" fill="none" stroke="#606060" stroke-miterlimit="10" stroke-width="0.655"/><path d="M539.925,147.767c-25.286,25.549-51.144,50.352-76.027,75.947" transform="translate(-468.604 -140.722)" fill="none" stroke="#606060" stroke-miterlimit="10" stroke-width="0.655"/><path d="M545.127,147.736c-27.376,27.158-53.762,55.126-81.511,81.437" transform="translate(-468.549 -140.716)" fill="none" stroke="#606060" stroke-miterlimit="10" stroke-width="0.655"/><path d="M550.692,147.97,467.2,231.457" transform="translate(-469.244 -140.762)" fill="none" stroke="#606060" stroke-miterlimit="10" stroke-width="0.655"/><path d="M557.061,147.974c-27.874,27.494-55.315,55.462-83.446,83.531" transform="translate(-470.487 -140.763)" fill="none" stroke="#606060" stroke-miterlimit="10" stroke-width="0.655"/><path d="M561.069,150.913c-26.94,26.707-53.325,54.148-81.012,81.183" transform="translate(-471.735 -141.332)" fill="none" stroke="#606060" stroke-miterlimit="10" stroke-width="0.655"/><path d="M562.482,157.09c-25.516,25.421-49.791,51.807-75.953,76.2" transform="translate(-472.989 -142.529)" fill="none" stroke="#606060" stroke-miterlimit="10" stroke-width="0.655"/><path d="M563.548,164.17c-23.739,23.407-46.959,47.154-70.519,70.467" transform="translate(-474.248 -143.901)" fill="none" stroke="#606060" stroke-miterlimit="10" stroke-width="0.655"/><path d="M564.966,170.164c-21.782,21.741-43.418,43.9-65.413,65.589" transform="translate(-475.513 -145.063)" fill="none" stroke="#606060" stroke-miterlimit="10" stroke-width="0.655"/><path d="M566.146,176.763q-30.212,30.172-60.2,60.333" transform="translate(-476.751 -146.341)" fill="none" stroke="#606060" stroke-miterlimit="10" stroke-width="0.655"/><path d="M567.479,183.234c-18.091,18.591-36.561,37.061-54.971,55.038" transform="translate(-478.023 -147.595)" fill="none" stroke="#606060" stroke-miterlimit="10" stroke-width="0.655"/><path d="M568.659,189.833c-16.443,16.437-33.329,33.324-49.727,49.754" transform="translate(-479.268 -148.874)" fill="none" stroke="#606060" stroke-miterlimit="10" stroke-width="0.655"/><path d="M569.768,196.537q-22.081,22.09-44.4,44.374" transform="translate(-480.515 -150.173)" fill="none" stroke="#606060" stroke-miterlimit="10" stroke-width="0.655"/><path d="M571.178,202.6q-15.364,15.3-30.648,30.68-4.363,4.4-8.714,8.821" transform="translate(-481.765 -151.348)" fill="none" stroke="#606060" stroke-miterlimit="10" stroke-width="0.655"/><path d="M572.392,209.851c-11.15,11.381-22.76,22.99-34.117,33.664" transform="translate(-483.016 -152.753)" fill="none" stroke="#606060" stroke-miterlimit="10" stroke-width="0.655"/></g></g><ellipse cx="4.324" cy="4.324" rx="4.324" ry="4.324" transform="translate(915.769 181.836)" fill="none" stroke="#606060" stroke-miterlimit="10" stroke-width="0.655"/><g transform="translate(956.79 158.829)"><g transform="translate(0 0)"><line x1="8.613" y2="8.613" transform="translate(0)" fill="none" stroke="#d8d9da" stroke-miterlimit="10" stroke-width="0.78"/><line x1="8.613" y2="8.613" transform="translate(4.196)" fill="none" stroke="#d8d9da" stroke-miterlimit="10" stroke-width="0.78"/><line x1="8.613" y2="8.613" transform="translate(8.392)" fill="none" stroke="#d8d9da" stroke-miterlimit="10" stroke-width="0.78"/><line x1="8.613" y2="8.613" transform="translate(12.589)" fill="none" stroke="#d8d9da" stroke-miterlimit="10" stroke-width="0.78"/><line x1="8.613" y2="8.613" transform="translate(16.785)" fill="none" stroke="#d8d9da" stroke-miterlimit="10" stroke-width="0.78"/><line x1="8.613" y2="8.613" transform="translate(20.981)" fill="none" stroke="#d8d9da" stroke-miterlimit="10" stroke-width="0.78"/><line x1="8.613" y2="8.613" transform="translate(25.177)" fill="none" stroke="#d8d9da" stroke-miterlimit="10" stroke-width="0.78"/><line x1="8.613" y2="8.613" transform="translate(29.373)" fill="none" stroke="#d8d9da" stroke-miterlimit="10" stroke-width="0.78"/><line x1="8.613" y2="8.613" transform="translate(33.57)" fill="none" stroke="#d8d9da" stroke-miterlimit="10" stroke-width="0.78"/><line x1="8.613" y2="8.613" transform="translate(37.766)" fill="none" stroke="#d8d9da" stroke-miterlimit="10" stroke-width="0.78"/><line x1="8.613" y2="8.613" transform="translate(41.962)" fill="none" stroke="#d8d9da" stroke-miterlimit="10" stroke-width="0.78"/><line x1="8.613" y2="8.613" transform="translate(46.158)" fill="none" stroke="#d8d9da" stroke-miterlimit="10" stroke-width="0.78"/><line x1="8.613" y2="8.613" transform="translate(50.354)" fill="none" stroke="#d8d9da" stroke-miterlimit="10" stroke-width="0.78"/></g></g><rect width="37.987" height="3.186" transform="translate(956.79 152.9)" fill="#f7c242"/><rect width="15.836" height="3.186" transform="translate(999.922 152.9)" fill="#fdfdfd"/></g></g></svg>