<svg xmlns="http://www.w3.org/2000/svg" xmlns:xlink="http://www.w3.org/1999/xlink" width="173.79" height="133.471" viewBox="0 0 173.79 133.471"><defs><clipPath id="a"><rect width="135.973" height="109.926" fill="none"/></clipPath></defs><g transform="translate(3364 4643)"><rect width="173.79" height="133.471" transform="translate(-3364 -4643)" fill="none"/><g transform="translate(-3344.535 -4631.183)"><rect width="48.915" height="75.992" transform="translate(87.058 19.024)" fill="#394277"/><g clip-path="url(#a)"><path d="M211.455,72.161H194.35a2.11,2.11,0,0,1-2.108-2.108V69.1a2.11,2.11,0,0,1,2.108-2.108h17.106a2.11,2.11,0,0,1,2.108,2.108v.95a2.11,2.11,0,0,1-2.108,2.108M194.35,67.546a1.559,1.559,0,0,0-1.557,1.557v.95a1.558,1.558,0,0,0,1.557,1.557h17.106a1.559,1.559,0,0,0,1.557-1.557V69.1a1.559,1.559,0,0,0-1.557-1.557Z" transform="translate(-86.315 -30.081)" fill="#fff"/><path d="M210.254,47.819h-.9a1.74,1.74,0,0,1-1.74-1.74V44.943a1.74,1.74,0,0,1,1.74-1.74h.9a1.74,1.74,0,0,1,1.74,1.74v1.136a1.74,1.74,0,0,1-1.74,1.74" transform="translate(-93.215 -19.399)" fill="#fff"/><path d="M212.988,84.3h-17.54a.275.275,0,1,1,0-.551h17.54a.275.275,0,1,1,0,.551" transform="translate(-87.631 -37.604)" fill="#fff"/><path d="M212.988,92.676h-17.54a.275.275,0,1,1,0-.551h17.54a.275.275,0,1,1,0,.551" transform="translate(-87.631 -41.365)" fill="#fff"/><path d="M212.988,101.053h-17.54a.275.275,0,1,1,0-.551h17.54a.275.275,0,1,1,0,.551" transform="translate(-87.631 -45.126)" fill="#fff"/><path d="M201.938,114.833a.275.275,0,0,1,0-.551l10.388-.038h0a.275.275,0,0,1,0,.551l-10.388.038Z" transform="translate(-90.544 -51.296)" fill="#8b8bc4"/><rect width="39.694" height="50.463" transform="translate(51.038 12.554)" fill="#fff"/><path d="M132.1,31.77a.285.285,0,0,1-.286-.275.266.266,0,0,1,.265-.275h.021a.275.275,0,1,1,0,.551m-1.124,0h-1.1a.275.275,0,0,1,0-.551h1.1a.275.275,0,1,1,0,.551m-2.2,0h-1.1a.275.275,0,0,1,0-.551h1.1a.275.275,0,0,1,0,.551m-2.2,0h-1.1a.275.275,0,1,1,0-.551h1.1a.275.275,0,1,1,0,.551m-2.2,0h-1.1a.275.275,0,1,1,0-.551h1.1a.275.275,0,0,1,0,.551m-2.2,0h-1.1a.275.275,0,0,1,0-.551h1.1a.275.275,0,0,1,0,.551m-2.2,0h-1.1a.275.275,0,1,1,0-.551h1.1a.275.275,0,1,1,0,.551m-2.2,0h-1.1a.275.275,0,1,1,0-.551h1.1a.275.275,0,1,1,0,.551m-2.2,0h-1.1a.275.275,0,0,1,0-.551h1.1a.275.275,0,0,1,0,.551m-2.2,0h-1.1a.275.275,0,1,1,0-.551h1.1a.275.275,0,0,1,0,.551m-2.2,0h-1.1a.275.275,0,0,1,0-.551h1.1a.275.275,0,1,1,0,.551m-2.2,0h-1.1a.275.275,0,1,1,0-.551h1.1a.275.275,0,1,1,0,.551m-2.2,0h-1.1a.275.275,0,1,1,0-.551h1.1a.275.275,0,0,1,0,.551m-2.2,0h-1.1a.275.275,0,0,1,0-.551h1.1a.275.275,0,0,1,0,.551m-2.2,0h-1.1a.275.275,0,1,1,0-.551h1.1a.275.275,0,1,1,0,.551m-2.2,0h-1.1a.275.275,0,0,1,0-.551h1.1a.275.275,0,0,1,0,.551m-2.2,0h-1.1a.275.275,0,0,1,0-.551h1.1a.275.275,0,0,1,0,.551m-2.2,0h-1.1a.275.275,0,1,1,0-.551h1.1a.275.275,0,0,1,0,.551m-2.2,0H92.4a.275.275,0,0,1,0-.551h1.1a.275.275,0,1,1,0,.551" transform="translate(-41.364 -14.018)" fill="#a3a3d1"/><path d="M130.957,39.309H103.57a.275.275,0,1,1,0-.551h27.386a.275.275,0,1,1,0,.551" transform="translate(-46.378 -17.403)" fill="#394277"/><path d="M121.033,50.2H103.57a.275.275,0,1,1,0-.551h17.463a.275.275,0,1,1,0,.551" transform="translate(-46.378 -22.292)" fill="#a3a3d1"/><path d="M116.648,57.737H103.57a.275.275,0,1,1,0-.551h13.078a.275.275,0,1,1,0,.551" transform="translate(-46.378 -25.677)" fill="#a3a3d1"/><path d="M121.033,65.276H103.57a.275.275,0,0,1,0-.551h17.463a.275.275,0,1,1,0,.551" transform="translate(-46.378 -29.062)" fill="#a3a3d1"/><path d="M112.032,72.815H103.57a.275.275,0,0,1,0-.551h8.462a.275.275,0,1,1,0,.551" transform="translate(-46.378 -32.447)" fill="#a3a3d1"/><path d="M118.957,80.355H103.572a.275.275,0,1,1,0-.551h15.385a.275.275,0,1,1,0,.551" transform="translate(-46.379 -35.833)" fill="#a3a3d1"/><path d="M149.888,50.2h-4.154a.275.275,0,1,1,0-.551h4.154a.275.275,0,1,1,0,.551" transform="translate(-65.309 -22.292)" fill="#a3a3d1"/><path d="M149.888,57.737h-4.154a.275.275,0,1,1,0-.551h4.154a.275.275,0,1,1,0,.551" transform="translate(-65.309 -25.677)" fill="#a3a3d1"/><path d="M149.888,65.276h-4.154a.275.275,0,1,1,0-.551h4.154a.275.275,0,1,1,0,.551" transform="translate(-65.309 -29.062)" fill="#a3a3d1"/><path d="M149.888,72.815h-4.154a.275.275,0,1,1,0-.551h4.154a.275.275,0,1,1,0,.551" transform="translate(-65.309 -32.447)" fill="#a3a3d1"/><path d="M149.888,80.355h-4.154a.275.275,0,1,1,0-.551h4.154a.275.275,0,1,1,0,.551" transform="translate(-65.309 -35.833)" fill="#a3a3d1"/><path d="M132.1,99.9a.285.285,0,0,1-.286-.276.266.266,0,0,1,.265-.275h.021a.276.276,0,1,1,0,.551m-1.124,0h-1.1a.276.276,0,0,1,0-.551h1.1a.276.276,0,1,1,0,.551m-2.2,0h-1.1a.276.276,0,0,1,0-.551h1.1a.276.276,0,0,1,0,.551m-2.2,0h-1.1a.276.276,0,1,1,0-.551h1.1a.276.276,0,1,1,0,.551m-2.2,0h-1.1a.276.276,0,1,1,0-.551h1.1a.276.276,0,0,1,0,.551m-2.2,0h-1.1a.276.276,0,0,1,0-.551h1.1a.276.276,0,0,1,0,.551m-2.2,0h-1.1a.276.276,0,1,1,0-.551h1.1a.276.276,0,1,1,0,.551m-2.2,0h-1.1a.276.276,0,1,1,0-.551h1.1a.276.276,0,1,1,0,.551m-2.2,0h-1.1a.276.276,0,0,1,0-.551h1.1a.276.276,0,0,1,0,.551m-2.2,0h-1.1a.276.276,0,1,1,0-.551h1.1a.276.276,0,0,1,0,.551m-2.2,0h-1.1a.276.276,0,0,1,0-.551h1.1a.276.276,0,1,1,0,.551m-2.2,0h-1.1a.276.276,0,1,1,0-.551h1.1a.276.276,0,1,1,0,.551m-2.2,0h-1.1a.276.276,0,1,1,0-.551h1.1a.276.276,0,0,1,0,.551m-2.2,0h-1.1a.276.276,0,0,1,0-.551h1.1a.276.276,0,0,1,0,.551m-2.2,0h-1.1a.276.276,0,1,1,0-.551h1.1a.276.276,0,1,1,0,.551m-2.2,0h-1.1a.276.276,0,0,1,0-.551h1.1a.276.276,0,0,1,0,.551m-2.2,0h-1.1a.276.276,0,0,1,0-.551h1.1a.276.276,0,0,1,0,.551m-2.2,0h-1.1a.276.276,0,1,1,0-.551h1.1a.276.276,0,0,1,0,.551m-2.2,0H92.4a.276.276,0,0,1,0-.551h1.1a.276.276,0,1,1,0,.551" transform="translate(-41.364 -44.609)" fill="#a3a3d1"/><path d="M95.577,114.659,98,116.01l2.416-1.351,2.415,1.351,2.415-1.351,2.416,1.351,2.416-1.351,2.416,1.351,2.415-1.351,2.413,1.351,2.415-1.351,2.412,1.351,2.414-1.351,2.411,1.351,2.413-1.351,2.943,1.092v-3.711h-39.7v3.713Z" transform="translate(-41.588 -50.307)" fill="#fff"/><path d="M121.647,103.837a8.524,8.524,0,0,1-1.784-.2,3.21,3.21,0,0,1-1.737-.893,6.246,6.246,0,0,1-2.3.721,2.891,2.891,0,0,1-1.3-.617c-.685-.447-1.538-1-2.181-.818a10.511,10.511,0,0,0-1.246.478,7.3,7.3,0,0,1-2.924.779,2.246,2.246,0,0,1-2.04-1.174c-.991,1.085-2.906,2.369-4.7,1.125a1.437,1.437,0,0,1-.581-.857c-1.165.534-2.091.855-2.2.892l-.177-.521a23.294,23.294,0,0,0,2.318-.95,4.074,4.074,0,0,1,.269-1.279c.742-2.041,2.907-4.566,4.192-4.446.27.025.743.19.881,1.016.352,2.107-2.487,3.936-4.77,5.047a.937.937,0,0,0,.382.646c2.07,1.432,4.165-1.25,4.253-1.365l.348-.453.138.554a1.7,1.7,0,0,0,1.691,1.215,6.763,6.763,0,0,0,2.707-.733,11.023,11.023,0,0,1,1.313-.5c.887-.251,1.855.379,2.634.887a3.16,3.16,0,0,0,1,.527,5.613,5.613,0,0,0,1.992-.626,1.308,1.308,0,0,1-.114-.387.646.646,0,0,1,.3-.7.583.583,0,0,1,.691.187.606.606,0,0,1,.152.684,1.009,1.009,0,0,1-.261.346,2.717,2.717,0,0,0,1.4.676c2.321.5,3.342-.133,3.352-.139l.3.46a3.766,3.766,0,0,1-1.987.422m-3.4-2.1a.54.54,0,0,0,.029.219.372.372,0,0,0,.056-.089c.009-.023.015-.037-.032-.084a.541.541,0,0,0-.052-.046m-13.1-5.114c-.88,0-2.839,2.061-3.576,4.088a4.162,4.162,0,0,0-.212.809c2.194-1.108,4.493-2.716,4.223-4.337-.088-.53-.314-.55-.388-.558l-.048,0" transform="translate(-44.212 -43.135)" fill="#394277"/><path d="M45.752,19.1a75.2,75.2,0,0,1-2.641-8c-.5-2.47,1.182-4.425,3.926-6.826s2.415-1.905,1.4-2.2S49.9.035,53.819,0s10.7,1.232,9.256,8.444S48.691,24.834,45.752,19.1" transform="translate(-19.317 0)" fill="#10101a"/><path d="M46.007,20.477c1.239-.674,3.02.161,4.187,1.878-.009-.256-.029-.559-.041-.9-.054-1.407.573-4.17,1.661-4.983s-.631-4.915-1.773-5.508,3.724-.49,6.8-1.244,4.23-1.416,6.527.657A12.254,12.254,0,0,1,67.048,18.3a59.4,59.4,0,0,1-.354,11.936c-.368,1.544-.226,2.561-2.7,3.462-.525.191-1.256,1.078-1.216,3.061.068,3.364,1.084,14.422.3,16.3-.473,1.126-1.61,1.822-4.016,2-6.162.449-8.624-2.116-9.469-2.727L49.17,31.323a4.736,4.736,0,0,0-.583-3.136,5.027,5.027,0,0,1-3-2.589c-1.135-2.085-.948-4.378.417-5.121" transform="translate(-20.136 -4.037)" fill="#fdd7c5"/><path d="M55.514,45.917s3.175,3.313,4.9,4.018,7.1-.116,8.958-.362-.647-.264-4.087,2.607S57.761,59.8,57,57.976s-2.089-5.2-1.991-6.668.508-5.391.508-5.391" transform="translate(-24.695 -20.617)" fill="#efaf9b"/><path d="M76.627,29.44a.551.551,0,0,1-.136-1.085,3.419,3.419,0,0,0,1.647-1.164l-2.726-4.814a.551.551,0,0,1,.959-.543l2.9,5.128a.551.551,0,0,1-.015.569,4.763,4.763,0,0,1-2.494,1.893.56.56,0,0,1-.137.017" transform="translate(-33.827 -9.678)" fill="#efaf9b"/><path d="M63.08,20.959a.551.551,0,0,1-.393-.937A3.546,3.546,0,0,1,66.6,18.946c.17.037.344.074.524.107a.551.551,0,1,1-.2,1.084c-.193-.035-.379-.074-.561-.114a2.5,2.5,0,0,0-2.9.771.551.551,0,0,1-.393.165" transform="translate(-28.075 -8.423)" fill="#010101"/><path d="M78.11,19.478a.551.551,0,0,1-.149-1.082,2.586,2.586,0,0,0,.707-.4,3.47,3.47,0,0,1,1.039-.554,2.333,2.333,0,0,1,2.324.869.551.551,0,0,1-.931.588,1.279,1.279,0,0,0-1.093-.4,2.583,2.583,0,0,0-.708.4,3.482,3.482,0,0,1-1.039.554.565.565,0,0,1-.15.021" transform="translate(-34.823 -7.807)" fill="#010101"/><path d="M70.027,25.834c.089.525-.144,1-.522,1.067s-.757-.309-.846-.834.144-1,.522-1.067.757.309.847.834" transform="translate(-30.818 -11.222)" fill="#010101"/><path d="M83.157,23.592c.09.525-.144,1-.522,1.067s-.757-.309-.846-.834.144-1,.522-1.067.757.309.846.834" transform="translate(-36.714 -10.215)" fill="#010101"/><path d="M76.845,39.314s-3.5.293-3.937.672.519,2.444,1.52,2.374,2.427-.617,2.417-3.046" transform="translate(-32.685 -17.652)" fill="#fff"/><path d="M50.014,36.038a.551.551,0,0,1-.542-.657c.22-1.117-.2-1.681-.631-1.824a.551.551,0,1,1,.35-1.045c.92.307,1.7,1.38,1.363,3.081a.552.552,0,0,1-.54.445" transform="translate(-21.76 -14.585)" fill="#efaf9b"/><path d="M43.721,134.188s-.623,4.1,8.289.6c6.148-2.418,21.969-2.806,21.969-2.806S68.038,77.818,66.1,73.949a13.4,13.4,0,0,0-4.145-5.25l-1.934,9.119L48.9,65.453s2,27.01,3.109,32.537-2.21,32.883-8.289,36.2" transform="translate(-19.627 -29.389)" fill="#9ec5e9"/><path d="M32.142,64.7s5.19,29.83,5.19,34.061,0,25.81-4.513,30.042-7.672,6.981-7.672,6.981l-4.062-3.6s3.385-15.232,4.062-15.232-3.611-8.674-3.611-8.674.668-16.432-5.757-21.613c-6.214-5.012-8.911-5.889-8.911-5.889Z" transform="translate(-3.083 -29.051)" fill="#303b67"/><path d="M4.145,93.662S14.3,97.807,17.2,104.646s2.693,9.533,2.693,9.533l-5.825,21.8L.342,146.131Z" transform="translate(-0.154 -42.055)" fill="#202a54"/><path d="M77.578,72.222S87.733,114.5,87.733,122.583s5.8-40,5.8-40Z" transform="translate(-34.832 -32.428)" fill="#202a54"/><path d="M51.658,105.218c-.2-7.027-8.951-21.553-9.039-21.7l-.293-.484,3.683-2.1-4.623-1.245,2.829-11.095,1.068.272-2.56,10.041,6.154,1.657-5.025,2.871c1.568,2.652,8.719,15.1,8.909,21.752Z" transform="translate(-18.582 -30.799)" fill="#8b8bc4"/><path d="M89.631,106.706l-1.1-.075,1.418-20.863-4.292-.858,1.661-4.743,1.04.364-1.241,3.547,4,.8Z" transform="translate(-38.459 -35.996)" fill="#8b8bc4"/><path d="M65.287,84.587l-.668-.719C60.375,79.3,53.859,72.343,53.309,71.925l.621-.91c.58.386,7.746,8.067,10.83,11.385l2.013-7.139,1.061.3Z" transform="translate(-23.935 -31.886)" fill="#fff"/><path d="M71.621,129.34A1.131,1.131,0,0,0,70,130.921l10.28,10.531a1.131,1.131,0,0,0,1.619-1.58Z" transform="translate(-31.286 -57.922)"/><path d="M25.285,155.967l21.789-1.74,6.494-10.284,10.955,3.731s-9.925,8.839-16.7,12.571-22.567,8.462-25.951,5.265c-3-2.834,3.41-9.543,3.41-9.543" transform="translate(-9.462 -64.632)" fill="#ffd8c5"/><path d="M88.527,151.462a.536.536,0,0,1-.1-.009l-5.469-1.025a.551.551,0,1,1,.2-1.083l5.469,1.025a.551.551,0,0,1-.1,1.093" transform="translate(-37.044 -67.052)" fill="#f0af9b"/><path d="M100.6,127.07l-1.057-1.634L76.663,146.714l.94,1.367Z" transform="translate(-34.421 -56.322)"/><path d="M119.181,127.038l-.993-1.6,20.477.064.7,1.314Z" transform="translate(-53.065 -56.322)"/><path d="M121.593,127.917H101.255L78.524,149.11l20.851.342Z" transform="translate(-35.256 -57.436)"/><path d="M127.91,141.052s-8.891,1.61-10.4,2.415a1.994,1.994,0,0,0-.775,2.542s-3.054-.113-3.447,2.527c-2.434,2.105.561,2.472.561,2.472s-.89,1.276,1.293,1.573c2.472.337,6.019.715,7.348.418s1.328-2.415,1.328-2.415,2.509-.466,2.988-1.907-.258-1.864.554-2.542,2.656-2.373,2.877-3.94a14.016,14.016,0,0,0-.111-3.559Z" transform="translate(-50.436 -62.249)" fill="#ffd8c5"/><path d="M129.781,151.013l-8.6.409Z" transform="translate(-54.411 -67.806)" fill="#fff"/><path d="M120.736,151.525a.551.551,0,0,1-.026-1.1l8.6-.409a.558.558,0,0,1,.576.525.55.55,0,0,1-.524.576l-8.595.409h-.027" transform="translate(-53.962 -67.357)" fill="#f0af9b"/><path d="M123.784,156.705h0Z" transform="translate(-51.807 -70.361)" fill="#fff"/><path d="M123.335,156.808h-8.4a.551.551,0,0,1,0-1.1h8.4a.551.551,0,1,1,0,1.1" transform="translate(-51.358 -69.913)" fill="#f0af9b"/><path d="M120.969,160.847l-5.414-.047Z" transform="translate(-51.883 -72.201)" fill="#fff"/><path d="M120.52,160.948h0L115.1,160.9a.551.551,0,0,1,.009-1.1l5.415.047a.551.551,0,0,1,0,1.1" transform="translate(-51.434 -71.751)" fill="#f0af9b"/><path d="M34.338,162.949,6.25,164.505.4,175.482a3.385,3.385,0,0,0,3.857,4.845l31.847-8.042Z" transform="translate(0 -73.165)" fill="#202a54"/></g></g></g></svg>