<svg xmlns="http://www.w3.org/2000/svg" xmlns:xlink="http://www.w3.org/1999/xlink" width="38.253" height="25.918" viewBox="0 0 38.253 25.918"><defs><clipPath id="a"><rect width="38.253" height="25.918" transform="translate(0 0)" fill="none" stroke="#707070" stroke-width="1"/></clipPath></defs><g clip-path="url(#a)"><path d="M89.074,31.215A2.884,2.884,0,0,1,86.19,34.1H85.16V25.448h1.03a2.884,2.884,0,0,1,2.884,2.884Z" transform="translate(-58.699 -17.541)" fill="#fff" stroke="#707070" stroke-width="1"/><path d="M89.074,31.215A2.884,2.884,0,0,1,86.19,34.1H85.16V25.448h1.03a2.884,2.884,0,0,1,2.884,2.884Z" transform="translate(-58.699 -17.541)" fill="none" stroke="#000" stroke-linecap="round" stroke-linejoin="round" stroke-width="1"/><path d="M32.755,53.787H29.437v4.171h2.031a1.287,1.287,0,0,0,1.287-1.287Z" transform="translate(-20.29 -37.074)" fill="#fff" stroke="#707070" stroke-width="1"/><path d="M32.755,53.787H29.437v4.171h2.031a1.287,1.287,0,0,0,1.287-1.287Z" transform="translate(-20.29 -37.074)" fill="none" stroke="#000" stroke-linecap="round" stroke-linejoin="round" stroke-width="1"/><path d="M1.5,35.268a1.184,1.184,0,0,0,1.185,1.184h.762v-4.5H2.685A1.184,1.184,0,0,0,1.5,33.139Z" transform="translate(-1.034 -22.026)" fill="#fff" stroke="#707070" stroke-width="1"/><path d="M1.5,35.268a1.184,1.184,0,0,0,1.185,1.184h.762v-4.5H2.685A1.184,1.184,0,0,0,1.5,33.139Z" transform="translate(-1.034 -22.026)" fill="none" stroke="#000" stroke-linecap="round" stroke-linejoin="round" stroke-width="1"/><path d="M22.659,50.252a1.613,1.613,0,0,1-1.619,1.607l-1.3-.005a1.613,1.613,0,0,1-1.607-1.62l.047-11.922,4.527.018Z" transform="translate(-12.499 -26.407)" fill="#ddd" stroke="#707070" stroke-width="1"/><path d="M22.659,50.252a1.613,1.613,0,0,1-1.619,1.607l-1.3-.005a1.613,1.613,0,0,1-1.607-1.62l.047-11.922,4.527.018Z" transform="translate(-12.499 -26.407)" fill="none" stroke="#000" stroke-linecap="round" stroke-linejoin="round" stroke-width="1"/><path d="M30.16,4.812,19.536,9.971a3.59,3.59,0,0,1-1.565.36H10.18A2.472,2.472,0,0,0,7.708,12.8v5.459a2.465,2.465,0,0,0,2.472,2.465l7.792-.024a3.563,3.563,0,0,1,1.565.357L30.16,26.219Z" transform="translate(-5.313 -3.317)" fill="#ddd" stroke="#707070" stroke-width="1"/><path d="M30.16,4.812,19.536,9.971a3.59,3.59,0,0,1-1.565.36H10.18A2.472,2.472,0,0,0,7.708,12.8v5.459a2.465,2.465,0,0,0,2.472,2.465l7.792-.024a3.563,3.563,0,0,1,1.565.357L30.16,26.219Z" transform="translate(-5.313 -3.317)" fill="none" stroke="#000" stroke-linecap="round" stroke-linejoin="round" stroke-width="1"/><path d="M17.921,22.574H10.18a2.472,2.472,0,0,0-2.472,2.472V30.5a2.465,2.465,0,0,0,2.472,2.465l7.741-.024Z" transform="translate(-5.313 -15.56)" fill="#3b94ec" stroke="#707070" stroke-width="1"/><path d="M17.921,22.574H10.18a2.472,2.472,0,0,0-2.472,2.472V30.5a2.465,2.465,0,0,0,2.472,2.465l7.741-.024Z" transform="translate(-5.313 -15.56)" fill="none" stroke="#000" stroke-linecap="round" stroke-linejoin="round" stroke-width="1"/><path d="M1.579,0h0A1.579,1.579,0,0,1,3.159,1.579V21.937A1.579,1.579,0,0,1,1.58,23.516h0A1.579,1.579,0,0,1,0,21.937V1.579A1.579,1.579,0,0,1,1.579,0Z" transform="translate(24.812 0.466)" fill="#3b94ec" stroke="#707070" stroke-width="1"/><path d="M1.579,0h0A1.579,1.579,0,0,1,3.159,1.579V21.937A1.579,1.579,0,0,1,1.58,23.516h0A1.579,1.579,0,0,1,0,21.937V1.579A1.579,1.579,0,0,1,1.579,0Z" transform="translate(24.812 0.466)" fill="none" stroke="#000" stroke-linecap="round" stroke-linejoin="round" stroke-width="1"/><line x2="5.078" transform="translate(32.709 12.06)" fill="#fff" stroke="#707070" stroke-width="1"/><line x2="5.078" transform="translate(32.709 12.06)" fill="none" stroke="#000" stroke-linecap="round" stroke-linejoin="round" stroke-width="1"/><line x2="3.591" y2="3.591" transform="translate(32.183 14.834)" fill="#fff" stroke="#707070" stroke-width="1"/><line x2="3.591" y2="3.591" transform="translate(32.183 14.834)" fill="none" stroke="#000" stroke-linecap="round" stroke-linejoin="round" stroke-width="1"/><line y1="3.591" x2="3.591" transform="translate(32.183 5.694)" fill="#fff" stroke="#707070" stroke-width="1"/><line y1="3.591" x2="3.591" transform="translate(32.183 5.694)" fill="none" stroke="#000" stroke-linecap="round" stroke-linejoin="round" stroke-width="1"/></g></svg>