<svg xmlns="http://www.w3.org/2000/svg" xmlns:xlink="http://www.w3.org/1999/xlink" width="440.293" height="190.144" viewBox="0 0 440.293 190.144"><defs><clipPath id="a"><rect width="440.294" height="183.183" fill="none"/></clipPath><clipPath id="b"><rect width="2.692" height="2.148" fill="none"/></clipPath><clipPath id="c"><rect width="4.02" height="2.45" fill="none"/></clipPath><clipPath id="d"><rect width="3.241" height="2.586" fill="none"/></clipPath><clipPath id="e"><rect width="4.84" height="2.95" fill="none"/></clipPath></defs><g transform="translate(-6.284 -2.457)"><rect width="78.774" height="190.144" transform="translate(223.819 2.457)" fill="#a6c7f9"/><rect width="14.045" height="190.144" transform="translate(223.747 2.457)" fill="#699dee"/><rect width="78.775" height="190.144" transform="translate(241.228 2.457)" fill="#d2e4ff"/><rect width="14.615" height="190.144" transform="translate(302.781 2.457)" fill="#a6c7f9"/><g transform="translate(6.284 2.457)"><g transform="translate(0 0)" clip-path="url(#a)"><path d="M1051.847,1141.437c-.124,1.533-2.289,1.534-4.743,1.231s-9.863-.777-10.026-1.27c-.145-.437,1.514-.792,3.29-1.21.223-.052.448-.107.672-.161a9.029,9.029,0,0,0,5.056-3.272c1.492-1.912,2.856-10.617,2.856-10.617l5.375,1s-3.129,7.461-3.45,9.908c-.144,1.1.637,1.831.82,2.792a6.014,6.014,0,0,1,.151,1.6" transform="translate(-884.235 -960.176)" fill="#b77446"/><path d="M1051.849,1220.714c-.124,1.533-2.289,1.534-4.743,1.231a7.08,7.08,0,0,0-2.989.193H1039.8c-1.877-.324-2.6-1.085-2.722-1.464-.146-.436,1.513-.791,3.289-1.21l.021.032a9.639,9.639,0,0,0,5.04.942c2.311-.215,4.673-1.161,6.268-1.322a6.032,6.032,0,0,1,.151,1.6" transform="translate(-884.237 -1039.454)" fill="#365da4"/><path d="M1104.732,761.361a8.791,8.791,0,0,0,2.732,1.172,5.49,5.49,0,0,0,2.907-.04s9.55-23.979,9.005-32.082q-.02-.293-.023-.621a34.014,34.014,0,0,1,.536-5.436c.129-.791.277-1.619.442-2.475.383-2,.857-4.153,1.378-6.351.229-.967.468-1.943.711-2.918,2.4-9.588,5.335-19.036,5.335-19.036s-17.234-5.63-18.209-.368a104.924,104.924,0,0,0-1.059,22.454,178.2,178.2,0,0,1-.7,26.705,147.26,147.26,0,0,1-3.055,19" transform="translate(-941.926 -589.132)" fill="#365da4"/><path d="M1194.681,826.512a34.049,34.049,0,0,1,.536-5.436c.129-.791.277-1.618.442-2.475.383-2,.857-4.153,1.378-6.35.229-.968.468-1.944.711-2.918-.341-2.926-.615-4.933-.615-4.933a24.525,24.525,0,0,0-2.452,22.113" transform="translate(-1017.253 -685.854)" fill="#285493"/><path d="M1199.378,1150.953c-.124,1.533-2.289,1.534-4.743,1.231s-9.863-.777-10.026-1.27c-.145-.437,1.514-.792,3.29-1.21.223-.052.448-.107.672-.161,2-.494,3.336-1.979,5.056-3.272,1.629-1.225.489-7.167.489-7.167l5.054-1.805s-.762,5.977-.762,9.267c0,1.107.637,1.831.82,2.791a6.03,6.03,0,0,1,.151,1.6" transform="translate(-1010.023 -969.692)" fill="#b77446"/><path d="M1199.378,1220.714c-.124,1.533-2.289,1.534-4.742,1.231a7.081,7.081,0,0,0-2.989.193h-4.315c-1.877-.324-2.6-1.085-2.722-1.464-.146-.436,1.514-.791,3.289-1.21l.021.032a9.639,9.639,0,0,0,5.04.942c2.311-.215,4.673-1.161,6.268-1.322a6.047,6.047,0,0,1,.15,1.6" transform="translate(-1010.024 -1039.454)" fill="#365da4"/><path d="M1190.51,657.423s5.607,27.945,6.554,43.154,2.13,27.8,2.13,27.8a7.413,7.413,0,0,0,2.627.361,9.656,9.656,0,0,0,2.658-.542s5.557-22.883,3.717-32.043-.307-17.609.576-25.206c1.267-10.894-3.608-15.957-7.011-19.409-3.445-3.494-11.251,5.883-11.251,5.883" transform="translate(-1015.062 -554.857)" fill="#365da4"/><path d="M1153.616,286.231c-.557-4.55.864-11.83,9.944-10.667s11.943,10.088,10.111,14.056,2.636,4.925,4.039,9.192c1.2,3.666,1.625,8.217,3.575,10.26,6.286,6.586-6.035,16.713-13.463,14.577-13.53-3.89-15.272-4.47-14.792-15.1.246-5.447,4.484-7.557,1.793-9.133-6.5-3.807.054-2.89-1.207-13.185" transform="translate(-982.143 -234.849)" fill="#aa443e"/><path d="M1182.2,384.721l2.686,4.029,5.412-.266,2.5-6.462s-.771-.146-1.13-8.2l-6.755,2.061a13.157,13.157,0,0,1-.12,4.388,7.284,7.284,0,0,1-2.593,4.454" transform="translate(-1007.975 -318.728)" fill="#d9935c"/><path d="M1148.431,424.988c.347,0,6.711-2.129,15.8,1.572,0,0-4.314,24.678-2.461,29.388a49.759,49.759,0,0,1,2.557,8.89l-20.1.249s.281-16.166-.645-21.887,4.853-18.211,4.853-18.211" transform="translate(-974.961 -361.838)" fill="#d9935c"/><path d="M998.062,456.636a8.383,8.383,0,0,1-.231-1.248,19.235,19.235,0,0,1,.933-7.79.025.025,0,0,0,0-.007l.036-.113c.021-.062.046-.159.076-.283,0,0,0-.006,0-.01.029-.113.06-.249.1-.4.011-.051.023-.1.035-.164.517-2.317,1.652-8.136,1.952-8.929a7.78,7.78,0,0,0,.308-1.271c.3-1.752.437-4.539-.585-5.7-1.422-1.621-6.305-2.785-6.305-2.785-.993,1.556-4.355,5.361-8.574,4.666-2.439-.4-2.816-5.149-2.816-5.149a10.63,10.63,0,0,0-3.291.759s-6.283,3.921-15.161,16.4c-.281.4-.952.351-2.591.034-2.087-.407-6.346-.354-12.772-1.3,0,0-.221.16-.281.863a10.387,10.387,0,0,1-.288,2.01,80.06,80.06,0,0,0,8.732,3.419c1.592.506,3.256.977,4.845,1.332a24.829,24.829,0,0,0,4.12.618,29.634,29.634,0,0,0,10.1-7.447c.29,4.6.931,10.533.537,14.868-.225,2.468-1.913,10.773-1.49,12.155.883,2.878,7.663,3.028,13.719,2.727.132-.006.263-.013.4-.022.938-.054,1.861-.136,2.721-.232a37.37,37.37,0,0,0,3.944-.628,19.109,19.109,0,0,0,3.873-1.242,4.118,4.118,0,0,0,2.022-1.714c-.583-3.132-3.388-9.956-4.063-13.417" transform="translate(-808.809 -364.451)" fill="#fbcc34"/><path d="M1171.509,496.375c1.147,3.891,1.814,7.093,4.695,9.258.939-.054,1.861-.136,2.721-.232a37.41,37.41,0,0,0,3.944-.628,19.126,19.126,0,0,0,3.873-1.242,4.119,4.119,0,0,0,2.022-1.714c-.583-3.132-3.388-9.956-4.063-13.417a8.28,8.28,0,0,1-.134-.908,22.576,22.576,0,0,1,.835-8.13.029.029,0,0,0,0-.007l.112-.4s0-.006,0-.01c.024-.085.057-.224.1-.4.011-.051.023-.1.035-.164.462-2.195,1.672-9.083,1.98-9.982a9.111,9.111,0,0,0,.3-1.372l-2.42-2.329s-13.885,5.929-16.944,14.108,1.295,11.987,2.942,17.569" transform="translate(-995.447 -396.215)" fill="#cea62e"/><path d="M1007.86,533.15a38.891,38.891,0,0,0,8.966,1.951,29.67,29.67,0,0,0,10.2-7.555c.211-.945.414-2.53-.73-2.072-1.605.641-7.542,8.264-9.789,8.424a69.813,69.813,0,0,1-8.644-.747" transform="translate(-859.33 -447.964)" fill="#cea62e"/><path d="M1082.271,460.563a71.245,71.245,0,0,0,12.779,4.861,26.62,26.62,0,0,0,4.756.765,22.728,22.728,0,0,0,11.252-8.785c8.757-12.79,2.145-14.6,2.145-14.6s-6.284,3.921-15.161,16.4c-.31.437-1.09.338-3.11-.07-2.157-.436-6.449-.384-12.375-1.254a3.3,3.3,0,0,0-.16.923c-.134,1.551-.126,1.755-.126,1.755" transform="translate(-922.775 -377.548)" fill="#fbcc34"/><path d="M921.841,528.25c-2.066-.4-6.458-.434-12.78-1.35a11,11,0,0,1-1.568-.621c-1.355-.677-4.967-1.129-5.734-.406s.813,3.657,4.109,3.748a21.12,21.12,0,0,1,2.659.219,80.1,80.1,0,0,0,8.706,3.407c1.592.505,3.256.977,4.845,1.332a11.689,11.689,0,0,0-.236-6.328" transform="translate(-768.702 -448.061)" fill="#a86337"/><path d="M1199.792,380.267c2.792-.226,6.874-6.449,6.874-6.449l-6.755,2.061a13.157,13.157,0,0,1-.12,4.388" transform="translate(-1022.976 -318.728)" fill="#cc7c46"/><path d="M1180.481,313.657s8.088,1.624,9.022-3.428,2.607-8.246-2.518-9.5-6.487.491-7.209,2.1-1.375,10.27.7,10.823" transform="translate(-1005.315 -256.049)" fill="#d9935c"/><path d="M1215.412,293.368s-.142,1.714,2.518,4.622,2.026,8.092,2.026,8.092,4.483-8.427,2.091-11.118-6.636-1.6-6.636-1.6" transform="translate(-1036.294 -249.946)" fill="#aa443e"/><path d="M1183.837,278.225s-4.021-1.345-8.011,2.587c-1.719,1.694-1.459,5.024-.539,6.956,0,0,1.414-4.14,3.988-5.044s4.562-4.5,4.562-4.5" transform="translate(-1001.466 -237.033)" fill="#aa443e"/><path d="M921.57,466.148l-17.223.388,3.953,23.928,17.435.565Z" transform="translate(-771.072 -397.452)" fill="#a6c7f9"/><path d="M1045.878,541.448a6.985,6.985,0,0,1-.118-6.284c-2.156-.436-6.479-.625-12.4-1.495v.01a13.18,13.18,0,0,1-2.428-.882c-1.446-.723-5.3-1.205-6.122-.434s.868,3.9,4.386,4a17.768,17.768,0,0,1,3.793.424,82.147,82.147,0,0,0,12.894,4.661" transform="translate(-873.602 -453.573)" fill="#b77446"/><rect width="41.285" height="41.285" transform="translate(103.925 97.587)" fill="#4a75cb"/><rect width="41.285" height="41.285" transform="translate(116.655 97.587)" fill="#699dee"/><rect width="44.311" height="44.311" transform="translate(139.101 138.872)" fill="#d86713"/><rect width="44.311" height="44.311" transform="translate(152.763 138.872)" fill="#f1a34f"/><path d="M957.538,942.327l-13.663,8.283v-8.283Z" transform="translate(-804.775 -803.455)" fill="#c95c12"/><path d="M2672.439,1141.738c-.126,1.553-14.795.459-14.959-.04-.147-.443,1.534-.8,3.332-1.226.226-.053.453-.108.68-.163a9.142,9.142,0,0,0,5.121-3.314c1.511-1.937,2.893-10.754,2.893-10.754l5.445,1.016s-3.169,7.558-3.494,10.036c-.146,1.112.645,1.854.83,2.828a6.093,6.093,0,0,1,.153,1.618" transform="translate(-2265.834 -960.265)" fill="#b77446"/><path d="M2672.439,1222.043a1.351,1.351,0,0,1-1.067,1.211h-4.05a5.837,5.837,0,0,0-1.508,0h-6.543c-1.192-.379-1.69-.942-1.792-1.251-.147-.442,1.534-.8,3.332-1.226l.02.034a9.77,9.77,0,0,0,5.107.953c2.339-.218,4.732-1.176,6.347-1.338a6.138,6.138,0,0,1,.153,1.617" transform="translate(-2265.834 -1040.57)" fill="#365da4"/><path d="M2726.006,756.763a8.906,8.906,0,0,0,2.768,1.187,5.56,5.56,0,0,0,2.945-.04s9.673-24.288,9.121-32.5q-.02-.3-.023-.629a34.447,34.447,0,0,1,.542-5.506c.13-.8.28-1.64.447-2.507.388-2.023.868-4.207,1.4-6.432.231-.98.474-1.969.72-2.956,2.432-9.711,5.4-19.281,5.4-19.281s-17.457-5.7-18.443-.373a106.231,106.231,0,0,0-1.073,22.743,180.5,180.5,0,0,1-.708,27.049,149.067,149.067,0,0,1-3.1,19.241" transform="translate(-2324.269 -584.437)" fill="#365da4"/><path d="M2817.116,822.755a34.473,34.473,0,0,1,.542-5.506c.13-.8.281-1.64.447-2.507.388-2.023.868-4.207,1.4-6.432.232-.98.474-1.969.72-2.956-.345-2.963-.623-5-.623-5a24.841,24.841,0,0,0-2.483,22.4" transform="translate(-2400.569 -682.407)" fill="#285493"/><path d="M2821.873,1151.378c-.126,1.553-14.795.459-14.959-.04-.147-.443,1.534-.8,3.332-1.226.226-.053.453-.108.68-.163,2.028-.5,3.38-2,5.121-3.314,1.649-1.241.5-7.26.5-7.26l5.12-1.828s-.772,6.054-.772,9.386c0,1.122.645,1.854.83,2.828a6.1,6.1,0,0,1,.153,1.618" transform="translate(-2393.245 -969.904)" fill="#b77446"/><path d="M2821.869,1222.043a1.351,1.351,0,0,1-1.067,1.211h-4.05a5.838,5.838,0,0,0-1.508,0H2808.7c-1.194-.379-1.691-.942-1.794-1.251-.147-.442,1.534-.8,3.333-1.226l.022.034a9.766,9.766,0,0,0,5.1.953c2.34-.218,4.733-1.176,6.347-1.338a6.067,6.067,0,0,1,.153,1.617" transform="translate(-2393.241 -1040.57)" fill="#365da4"/><path d="M2812.89,651.483s5.679,28.305,6.639,43.711,2.157,28.16,2.157,28.16a7.511,7.511,0,0,0,2.661.366,9.792,9.792,0,0,0,2.692-.549s5.629-23.179,3.765-32.456-.312-17.836.583-25.531c1.283-11.034-3.654-16.163-7.1-19.659-3.489-3.539-11.4,5.959-11.4,5.959" transform="translate(-2398.349 -549.719)" fill="#365da4"/><path d="M2775.521,275.506c-.564-4.608.875-11.983,10.073-10.8s12.1,10.218,10.241,14.237,2.671,4.988,4.091,9.311c1.22,3.713,1.646,8.323,3.621,10.392,6.367,6.671-6.113,16.928-13.637,14.765-13.7-3.94-15.469-4.528-14.983-15.3.249-5.517,4.541-7.655,1.816-9.251-6.583-3.856.054-2.927-1.222-13.355" transform="translate(-2365.005 -225.585)" fill="#163560"/><path d="M2807.219,366.317s1.047,6.085-2.741,8.957l2.726,4.084,5.475-.268,2.529-6.545s-.776-.152-1.146-8.311Z" transform="translate(-2391.177 -310.556)" fill="#a86337"/><path d="M2802.732,303.285s8.192,1.645,9.139-3.472,2.641-8.352-2.55-9.619-6.571.5-7.3,2.129-1.393,10.4.714,10.962" transform="translate(-2388.476 -247.059)" fill="#b77446"/><path d="M2770.268,416.052c.352,0,6.8-2.156,16,1.592,0,0-4.369,25-2.492,29.767a50.394,50.394,0,0,1,2.59,9l-20.359.253s.285-16.374-.654-22.17,4.915-18.446,4.915-18.446" transform="translate(-2357.73 -354.212)" fill="#a86337"/><path d="M2617.96,448.108a8.519,8.519,0,0,1-.234-1.264,19.484,19.484,0,0,1,.945-7.89.018.018,0,0,0,0-.007c.012-.038.024-.077.036-.115.021-.064.046-.161.077-.287,0,0,0-.006,0-.01.029-.115.061-.252.1-.41.011-.051.023-.106.035-.166.524-2.346,1.674-8.241,1.977-9.045a7.9,7.9,0,0,0,.312-1.287c.307-1.775.443-4.6-.593-5.778-1.441-1.642-6.532-2.859-6.532-2.859-1.006,1.576-4.265,5.469-8.539,4.765-2.471-.408-2.852-5.216-2.852-5.216a10.761,10.761,0,0,0-3.334.769s-6.364,3.971-15.356,16.615c-.285.4-.964.356-2.625.034-2.114-.412-6.428-.358-12.937-1.314,0,0-.224.162-.285.874a10.522,10.522,0,0,1-.292,2.036,81.117,81.117,0,0,0,8.845,3.463c1.613.512,3.3.99,4.907,1.349a25.162,25.162,0,0,0,4.174.627,30.017,30.017,0,0,0,10.229-7.543c.293,4.656.943,10.669.544,15.06-.228,2.5-1.938,10.912-1.509,12.312.895,2.916,7.762,3.067,13.9,2.762.134-.006.267-.013.4-.022.951-.055,1.885-.137,2.756-.235a37.841,37.841,0,0,0,3.994-.636,19.358,19.358,0,0,0,3.922-1.258,4.171,4.171,0,0,0,2.048-1.736c-.59-3.173-3.431-10.084-4.115-13.59" transform="translate(-2189.436 -356.859)" fill="#45627b"/><path d="M2838.115,282.734s-.144,1.736,2.551,4.681,2.052,8.2,2.052,8.2,4.541-8.536,2.118-11.261-6.721-1.617-6.721-1.617" transform="translate(-2419.855 -240.877)" fill="#163560"/><path d="M2806.131,267.4s-4.073-1.363-8.114,2.62c-1.741,1.716-1.478,5.089-.545,7.046,0,0,1.432-4.194,4.039-5.109s4.621-4.557,4.621-4.557" transform="translate(-2384.578 -227.798)" fill="#163560"/><path d="M2793.644,488.358c1.162,3.941,1.837,7.185,4.755,9.377.951-.055,1.885-.138,2.756-.235a37.886,37.886,0,0,0,3.994-.636,19.369,19.369,0,0,0,3.923-1.258,4.17,4.17,0,0,0,2.048-1.736c-.59-3.173-3.431-10.084-4.115-13.59a8.5,8.5,0,0,1-.135-.919,22.872,22.872,0,0,1,.846-8.235.014.014,0,0,0,0-.007l.114-.4a.07.07,0,0,1,0-.01c.024-.086.057-.227.1-.41.011-.051.023-.106.035-.166.468-2.223,1.693-9.2,2.005-10.111.1-.288-.134-1.579-.037-2.187l-2.108-1.561s-14.064,6.006-17.163,14.29,1.312,12.142,2.98,17.8" transform="translate(-2378.48 -389.032)" fill="#39506c"/><path d="M2627.885,525.608a39.392,39.392,0,0,0,9.081,1.976,30.056,30.056,0,0,0,10.329-7.653c.213-.957.419-2.562-.74-2.1-1.626.65-7.639,8.371-9.915,8.533a70.686,70.686,0,0,1-8.756-.757" transform="translate(-2240.608 -441.449)" fill="#39506c"/><path d="M2703.257,452.085a72.154,72.154,0,0,0,12.943,4.923,26.954,26.954,0,0,0,4.818.775,21.561,21.561,0,0,0,11.4-8.9c8.289-12.759,2.172-14.787,2.172-14.787s-6.366,3.971-15.356,16.615c-.315.442-1.1.343-3.15-.071-2.184-.441-6.532-.389-12.534-1.27a3.357,3.357,0,0,0-.162.935c-.135,1.571-.127,1.777-.127,1.777" transform="translate(-2304.873 -370.125)" fill="#45627b"/><path d="M2540.757,520.646c-2.092-.408-6.542-.44-12.945-1.367a11.171,11.171,0,0,1-1.589-.629c-1.372-.686-5.031-1.143-5.808-.412s.823,3.7,4.162,3.8a21.374,21.374,0,0,1,2.693.221,81.061,81.061,0,0,0,8.817,3.451c1.613.512,3.3.99,4.908,1.349a11.839,11.839,0,0,0-.239-6.409" transform="translate(-2148.812 -441.547)" fill="#a86337"/><path d="M2666.394,534.014a7.076,7.076,0,0,1-.12-6.365c-2.184-.441-6.563-.633-12.565-1.514v.01a13.364,13.364,0,0,1-2.459-.894c-1.464-.732-5.371-1.221-6.2-.439s.879,3.955,4.443,4.052a17.994,17.994,0,0,1,3.842.429,83.22,83.22,0,0,0,13.061,4.721" transform="translate(-2255.066 -447.131)" fill="#b77446"/><rect width="11.63" height="28.16" transform="translate(96.016 143.493)" fill="#d86713"/><rect width="11.63" height="28.16" transform="translate(104.698 143.493)" fill="#f1a34f"/><path d="M739.119,973.685l-8.683,5.264v-5.264Z" transform="translate(-622.79 -830.192)" fill="#c95c12"/><path d="M551.713,1069.935h28.874l.459-1.275-.459-1.377H551.611l-.663,1.428Z" transform="translate(-469.754 -909.995)" fill="#ffd5ab"/><path d="M757.523,1067.282v2.653h-5.458l.459-1.275-.459-1.377Z" transform="translate(-641.232 -909.995)" fill="#c95c12"/><rect width="23.597" height="16.194" transform="translate(85.741 127.301)" fill="#d86713"/><rect width="23.597" height="16.194" transform="translate(90.734 127.301)" fill="#f1a34f"/><path d="M746.909,863.814l-4.993,3.027v-3.027Z" transform="translate(-632.578 -736.513)" fill="#c95c12"/><rect width="12.753" height="12.753" transform="translate(80.954 130.741)" fill="#4a75cb"/><rect width="12.753" height="12.753" transform="translate(84.886 130.741)" fill="#699dee"/><rect width="4.826" height="2.452" transform="translate(85.911 140.434) rotate(-11.294)" fill="#ebf2f9"/><path d="M564.912,902.731H560.3l.194-.538-.194-.581h4.565l-.28.6Z" transform="translate(-477.731 -768.739)" fill="#ebf2f9"/><path d="M562.607,901.611v1.12h-2.3l.194-.538-.194-.581Z" transform="translate(-477.73 -768.74)" fill="#a6c7f9"/><path d="M762.783,879.931h-5.446l.229-.636-.229-.687h5.394l-.331.713Z" transform="translate(-645.727 -749.126)" fill="#ffd5ab"/><path d="M760.059,878.608v1.323h-2.723l.229-.636-.229-.687Z" transform="translate(-645.726 -749.127)" fill="#c95c12"/><path d="M762.783,946.289h-5.446l.229-.636-.229-.687h5.394l-.331.713Z" transform="translate(-645.727 -805.704)" fill="#ffd5ab"/><path d="M760.059,944.966v1.323h-2.723l.229-.636-.229-.687Z" transform="translate(-645.726 -805.705)" fill="#c95c12"/><rect width="22.403" height="22.403" transform="translate(91.795 149.251)" fill="#4a75cb"/><rect width="22.403" height="22.403" transform="translate(98.703 149.251)" fill="#699dee"/><rect width="5.473" height="2.781" transform="translate(113.884 151.671) rotate(-11.293)" fill="#ebf2f9"/><path d="M654.807,1028.291h-6.072l.255-.709-.255-.766h6.015l-.369.795Z" transform="translate(-553.129 -875.492)" fill="#ebf2f9"/><path d="M651.771,1026.815v1.475h-3.036l.255-.709-.255-.766Z" transform="translate(-553.13 -875.492)" fill="#a6c7f9"/><path d="M654.807,1141.523h-6.072l.255-.709-.255-.766h6.015l-.369.795Z" transform="translate(-553.129 -972.037)" fill="#ebf2f9"/><path d="M651.771,1140.048v1.475h-3.036l.255-.709-.255-.766Z" transform="translate(-553.13 -972.037)" fill="#a6c7f9"/><path d="M660.445,1197.965a3.076,3.076,0,1,0,3.076,3.076,3.076,3.076,0,0,0-3.076-3.076" transform="translate(-560.491 -1021.419)" fill="#1c468a"/><path d="M666.821,1205.263a1.974,1.974,0,1,0,1.973,1.974,1.974,1.974,0,0,0-1.973-1.974" transform="translate(-566.868 -1027.641)" fill="#699dee"/><path d="M810.479,1197.965a3.076,3.076,0,1,0,3.076,3.076,3.076,3.076,0,0,0-3.076-3.076" transform="translate(-688.414 -1021.419)" fill="#1c468a"/><path d="M816.855,1205.263a1.974,1.974,0,1,0,1.973,1.974,1.974,1.974,0,0,0-1.973-1.974" transform="translate(-694.79 -1027.641)" fill="#699dee"/><path d="M525.975,759.78H502.852L477.74,691.2a1.63,1.63,0,0,0-1.463-1.068l-8.373-.345a1.63,1.63,0,0,0-.134,3.257l7.284.3,24.327,66.441h-5.47a1.581,1.581,0,0,0-1.576,1.576v1.881a1.58,1.58,0,0,0,1.576,1.576h32.064a1.58,1.58,0,0,0,1.576-1.576v-1.881a1.581,1.581,0,0,0-1.576-1.576" transform="translate(-397.502 -588.127)" fill="#1c468a"/><path d="M454.475,655.922s3.134,2.064,5.545,2.157,3.849,2.506,4.181,3.511-.627,2.549-1.37,1.634c-1.123-1.383-3.418-.3-5.609-2.114a21.2,21.2,0,0,0-5.461-2.972Z" transform="translate(-385.183 -559.258)" fill="#9e6138"/><path d="M280.571,397.666s6.73,24.074,12.1,28.936c2.786,2.522,18.211,12.811,19.482,9.529,0,0,1.906-2.329.847-3.706,0,0-12.966-9.325-13.976-9.953-1.758-1.092.407-22.951-4.2-26.715s-11.685-4.739-14.254,1.909" transform="translate(-239.223 -334.912)" fill="#c03f42"/><path d="M375.991,1193.906s-.5.018-1.323.041H361.958a2.251,2.251,0,0,1-.606-.125c-1.142-.544-.615-5.58-.615-5.58s4.944-4.119,5.7-1.057,4.862,4.364,7.193,4.694,2.364,2.026,2.364,2.026" transform="translate(-307.472 -1011.263)" fill="#233862"/><path d="M171.443,698.083c2.446,4.991,8.245,11.943,10.384,17.329a9.908,9.908,0,0,1,.812,3.511c.05,12.088,13.172,35.924,13.172,35.924,1.251.81,6.592-.811,6.592-.811s-.619-5.3-3.684-23.6c-1.69-10.1-4.541-25.128-6.757-36.579-.571-2.949-1.1-5.661-1.555-7.99-.984-5.023-1.63-8.263-1.63-8.263l-5.088.084-13.743.227s-5.7,5.469,1.5,20.167" transform="translate(-143.073 -577.745)" fill="#2b478b"/><path d="M171.443,698.57c2.446,4.991,8.245,11.943,10.384,17.329,3.032-6.415,7.631-16.166,10.134-21.555-.571-2.949-1.1-5.661-1.555-7.99-1.977-2.42-4.52-5.523-6.719-8.179l-13.743.227s-5.7,5.469,1.5,20.167" transform="translate(-143.073 -578.232)" fill="#233862"/><path d="M11.741,1166.241H4.852a4.232,4.232,0,0,1-1.427-2.586c-.4-2.059-2.768-3.092-3.339-4.766s1.9-4.165,1.9-4.165l.831-1.166,4.309.828a40.353,40.353,0,0,1,.407,5.263c-.032,2.265.825,4.667,2.852,5.024,1.474.259,1.468,1.119,1.354,1.568" transform="translate(0 -983.556)" fill="#233862"/><path d="M42.775,724.059c-2.582,4.689-21.631,26.461-21.631,26.461s-6-2.028-7.073-5.675c0,0,11.267-18.513,16.391-26.4,1.465-2.256,2.279-36.74,7.5-43.025,6.546-7.878,18.4,7.069,18.4,7.069s-3.708,12.06-4.861,15.859c-2.555,8.425-6.942,22.482-8.722,25.714" transform="translate(-11.996 -573.925)" fill="#2b478b"/><path d="M442.262,668.136s3.134,2.064,5.545,2.157,3.849,2.506,4.181,3.511-.627,2.549-1.37,1.634c-1.123-1.383-3.418-.3-5.609-2.114a21.2,21.2,0,0,0-5.461-2.973Z" transform="translate(-374.77 -569.672)" fill="#ab7041"/><path d="M321.053,321.329a40.364,40.364,0,0,0,2.69-5.123l-4.439-7.787c-2.586,7.294-8.559,8.943-8.559,8.943s6.983,7.661,12.606,8.049a12.874,12.874,0,0,0-2.3-4.082" transform="translate(-264.949 -262.967)" fill="#9c5f33"/><path d="M365.246,272.511s-8.8-1.873-7.552-7.338.957-9.386,6.631-8.421,6.284,3.3,6.31,5.225-3.067,10.88-5.389,10.534" transform="translate(-304.876 -218.79)" fill="#ab7041"/><path d="M353.336,249.009a9.189,9.189,0,0,1,10.847-5c5.456,1.266,4.025-4.27,3.7-5.185,0,0-4.238-.8-8.621-1.5-9.2-1.468-6.421,10.3-5.93,11.678" transform="translate(-300.603 -202.248)" fill="#233862"/><path d="M207.517,376.947a75.342,75.342,0,0,1-2.116,11.466c-.435,1.779-.913,3.626-1.414,5.486-.814,3.018-1.663,6.053-2.538,8.91l-.033.1c-.063.291-.162.6-.251.881-.759,2.523-1.487,4.859-2.121,6.841-1.214,3.792-1.222,5.9-2.191,6.333-1.947.861-9.614-.063-14.208-2.054-3.881-1.652-9.8-6.636-9.765-9.144.035-2.908,3.937-11.661,6.523-21.883,3.191-12.485,10.269-22.456,16.172-24.511.441-.143.912.783,2.623,2.426a9.582,9.582,0,0,0,5.456,2.665l1.124,1.875a18.544,18.544,0,0,1,2.74,10.608" transform="translate(-147.402 -306.4)" fill="#ea4d4b"/><path d="M313.236,492.279c-.435,1.779.5-1.86,0,0-.814,3.018-1.663,6.053-2.538,8.91l-.033.1c-.063.29-.162.6-.251.881-.759,2.523-1.487,4.859-2.121,6.842-12.277-15.594-5.315-34.269-5.315-34.269Z" transform="translate(-256.652 -404.78)" fill="#c03f42"/><path d="M267.28,410.957s6.73,24.075,12.1,28.936c2.786,2.522,18.211,12.811,19.481,9.529,0,0,1.906-2.329.847-3.706,0,0-12.966-9.326-13.976-9.952-1.758-1.092.407-22.951-4.2-26.715s-11.685-4.739-14.254,1.909" transform="translate(-227.89 -346.244)" fill="#ea4d4b"/><path d="M362.681,283.178a4.779,4.779,0,0,1,3.63-1.9s-7.76.163-8.083,2.548-.408,2.762-.408,2.762,4.1.168,4.862-3.406" transform="translate(-305.087 -239.823)" fill="#233862"/><path d="M2270.919,462.426a83.945,83.945,0,0,1-8.843,3.432c-1.626.5-3.286.975-4.913,1.346a22.151,22.151,0,0,1-4.167.606,2.524,2.524,0,0,1-.3-.135,30.785,30.785,0,0,1-10.029-7.436c-.339-.4-.712-.808-1.051-1.245-.271-.3-.542-3.3-.746-6.427l-.034-.034c-.237-3.667-.407-7.571-.407-7.571s5.9,1.582,14.366,15.849c.237.4.948.336,2.608.034,2.135-.4,6.438-.371,12.943-1.313,0,0,.237.168.305.875a8.9,8.9,0,0,0,.271,2.019" transform="translate(-1910.25 -379.387)" fill="#f4be61"/><path d="M2255.239,511.676a30.791,30.791,0,0,1-10.029-7.436c-.339-.4-.712-.808-1.051-1.245-.271-.3-.542-3.3-.745-6.427.813.807,10.3,9.96,11.825,15.108" transform="translate(-1912.798 -423.388)" fill="#f2a83d"/><path d="M2094.562,271.265s-.54-1.1-3.237-.8-7.362.8-7.4,15.484c0,1.609-9.705,16.276,1.235,30.086l7.81-19.754Z" transform="translate(-1773.426 -230.565)" fill="#163560"/><path d="M2153.765,275.641s-2.877-.964-4.391.465a3.006,3.006,0,0,0-.656,3.319Z" transform="translate(-1831.85 -234.749)" fill="#c65447"/><path d="M2158.052,283.083s-.053-6.3-10.262-5.574a4.992,4.992,0,0,0-4.1,2.648c-1.148,2.229-1.649,6.152,2.061,12.444Z" transform="translate(-1827.052 -236.562)" fill="#163560"/><path d="M2158.32,389.23l2.3,8.93,6.646.322,3.308-4.924c-3.093-2.328-3.53-6.41-3.485-8.831,0-.024,0-.047,0-.071a14.235,14.235,0,0,1,.157-1.9l-4.715-1.426-3.592-1.086a27.007,27.007,0,0,1,.159,6.069,6.588,6.588,0,0,1-.78,2.911" transform="translate(-1840.244 -324.212)" fill="#e49963"/><path d="M2108.129,483.792l24.117-.032s-3-16.059-1.335-21.322-.081-12.954-.081-12.954c-2.423-5.715-3.04-11.065-4.118-11.344-.592-.155-1.069-.472-1.649-.587a31.225,31.225,0,0,0-17.175,1.543c-2.126,5.3,2.427,9.288,2.648,21.264a112.7,112.7,0,0,1-2.406,23.432" transform="translate(-1796.762 -372.589)" fill="#e49963"/><path d="M2118.625,486.833s-18.364,3.769-28.866-.135c-.576-.235,1.626-8.109,3.151-13.494a48.677,48.677,0,0,0,1.287-4.98c-.373-7.335-1.829-13.594-2.507-18.44a27.946,27.946,0,0,1-.373-3.5v-.538a8.9,8.9,0,0,1,.813-4.341c1.152-2.119,7.352-2.154,7.352-2.154a12.347,12.347,0,0,0,7.962,3c4.032-.034,2.039-2.864,2.039-2.864.169.034.435.071.57.1a10.289,10.289,0,0,1,3.354,1.379c3.219,3.5,4.269,20.931,4.2,21.5-.136,2.12,1.016,24.463,1.016,24.463" transform="translate(-1781.706 -374.519)" fill="#f4be61"/><path d="M2162.694,386.319c2.855-1.517,7.276-1.59,7.99-1.591h.1l-.1-.071c-.472-.346-2.593-1.9-4.558-3.321l-3.592-1.086a27,27,0,0,1,.159,6.069" transform="translate(-1843.838 -324.212)" fill="#d68d5d"/><path d="M2168.591,313.818s-10.132.46-10.324-5.811-1.628-10.435,4.834-10.994,7.791,1.8,8.368,3.874-.247,12.65-2.878,12.931" transform="translate(-1839.971 -253.17)" fill="#e49963"/><path d="M2191.734,292.52s4.34,2.965,3.644,6.4c0,0,2.149-1.123,1.947-4.4s-3.351-5.53-6.121-5.7a32.119,32.119,0,0,0-4.858.052Z" transform="translate(-1864.14 -246.202)" fill="#163560"/><path d="M2165.941,295.19c1.8.946-5.634,1.742-6.088,4.75s-4,4.159-4,4.159-4.494-16.578,10.086-8.909" transform="translate(-1837.585 -249.96)" fill="#163560"/><path d="M2125.507,498.466a34.972,34.972,0,0,1-23.039,12.315,48.815,48.815,0,0,0,1.287-4.98c-.373-7.335-1.829-13.594-2.507-18.44a27.992,27.992,0,0,1-.373-3.5v-.538c1.728.337,4.4,2.119,5.557,2.389,8.91,2.087,19.075,12.753,19.075,12.753" transform="translate(-1791.266 -412.096)" fill="#f2a83d"/><path d="M2220.8,387.176s-.073.637-1.637.724c0,0-1.313.073-1.355-.613a4.251,4.251,0,0,1,2.992-.111" transform="translate(-1890.963 -329.941)" fill="#fff"/><path d="M2132.408,465.523a72.458,72.458,0,0,1-12.943,4.89,27.141,27.141,0,0,1-4.817.77,24.392,24.392,0,0,1-11.4-8.837c-9.529-13.256-2.172-14.686-2.172-14.686s6.365,3.944,15.356,16.5c.315.439,1.1.34,3.15-.07,2.184-.438,6.532-.386,12.534-1.261a3.3,3.3,0,0,1,.162.928c.135,1.561.127,1.765.127,1.765" transform="translate(-1789.128 -381.687)" fill="#f4be61"/><path d="M2365.924,546.244a81.457,81.457,0,0,1-8.845,3.44c-1.613.508-3.3.983-4.907,1.34a11.684,11.684,0,0,1,.239-6.365c2.114-.409,6.631-.437,13.141-1.386Z" transform="translate(-2005.251 -463.21)" fill="#a86337"/><path d="M2433.8,535.711a13.684,13.684,0,0,0,3.019-1c1.372-.681,5.031-1.135,5.808-.409s-.823,3.679-4.162,3.77-4.3.636-4.3.636Z" transform="translate(-2075.13 -455.247)" fill="#a86337"/><path d="M2254.623,552.071a84.1,84.1,0,0,1-13.1,4.708,6.983,6.983,0,0,0,.119-6.322c2.185-.438,6.563-.628,12.565-1.5,0,0,.071.464.132,1.171a8.865,8.865,0,0,0,.288,1.947" transform="translate(-1911.182 -468.054)" fill="#b77446"/><path d="M1647.432,754.81v-.235h-25.173a5.543,5.543,0,0,0-5.625,5.452,5.484,5.484,0,0,0,4.716,5.38v61.082h94.66V754.81Z" transform="translate(-1378.388 -643.372)" fill="#aa443e"/><rect width="15.121" height="15.018" transform="translate(345.693 73.784)" fill="#d86713"/><rect width="15.121" height="15.018" transform="translate(350.355 73.784)" fill="#f1a34f"/><path d="M2350.377,500.669l-4.662,2.807v-2.807Z" transform="translate(-2000.022 -426.885)" fill="#c95c12"/><path d="M2365.2,515.617h-5.085l.214-.59-.214-.637h5.037l-.309.661Z" transform="translate(-2012.299 -438.583)" fill="#ffd5ab"/><path d="M2362.656,514.39v1.227h-2.542l.214-.59-.214-.637Z" transform="translate(-2012.299 -438.583)" fill="#c95c12"/><path d="M2365.2,577.156h-5.085l.214-.59-.214-.637h5.037l-.309.661Z" transform="translate(-2012.299 -491.054)" fill="#ffd5ab"/><path d="M2362.656,575.929v1.227h-2.542l.214-.59-.214-.637Z" transform="translate(-2012.299 -491.053)" fill="#c95c12"/><path d="M2322.42,539.255a14.609,14.609,0,0,0,3.222-1.067c1.465-.727,5.371-1.212,6.2-.437s-.879,3.928-4.443,4.025-4.589.679-4.589.679Z" transform="translate(-1980.16 -458.166)" fill="#b77446"/><rect width="94.66" height="71.678" transform="translate(269.22 111.437)" fill="#c65447"/><path d="M1756.225,754.575H1622.259a5.454,5.454,0,1,0,0,10.9h133.965c3.456,0,6.268-2.456,6.268-5.451s-2.812-5.452-6.268-5.452" transform="translate(-1378.388 -643.372)" fill="#e57970"/><rect width="16.991" height="15.098" transform="translate(231.867 79.295)" fill="#8cb3ed"/><rect width="16.991" height="15.098" transform="translate(234.972 79.295)" fill="#a6c7f9"/><rect width="21.407" height="17.367" transform="translate(253.678 77.026)" fill="#8cb3ed"/><rect width="21.407" height="17.367" transform="translate(257.59 77.026)" fill="#a6c7f9"/><path d="M1602.156,953.737s-7.048,5.241-8.422,4.923,5.151-5.658,5.151-5.658c-2.456-1.181-10.089-.44-10.089-.44s-2.542,8.2-3.8,7.552,2.621-7.145,2.621-7.145c-2.735-.165-6.089,1.866-6.089,1.866-4.592,3.627.3,9.336.3,9.336a13.955,13.955,0,0,1-3.842,5.393,12.117,12.117,0,0,0-4.429,8.535l.752.067s1.2-5.148,3.391-7.543c.082-.084.192-.2.323-.33.351-.325.6-.569.762-.75,1.078-1.036,2.57-2.358,3.289-2.486a1.384,1.384,0,0,1-.031-.361c.01.115.02.234.031.361.246,2.886,5.844,5.406,9.288,5.924s2.379-.9,1.193-3-4.942-3.038-5.8-4.005.915-.969,2.99-.021,2.359,3.475,5.688,5.069,8.337-3.929,8.337-3.929c-2.653-.135-6.441-3.016-6.3-3.9s6.431,1.521,7.506,1.636,3.524-1.223,3.9-5.557-6.725-5.543-6.725-5.543" transform="translate(-1341.664 -811.986)" fill="#82b378"/><path d="M1416.6,867.31s7.785-4.359,4.152-10.276c0,0-2.906-3.633-6.02-4.567,0,0,1.661,8.823,0,9.03s-1.142-9.964-1.142-9.964-8.2-3.944-11.417-3.633c0,0,5.086,8.615,3.425,8.407s4.42-8.927,4.42-8.927-8.407-1.557-9.757,3.425.83,7.473,2.076,7.785,9.238.207,9.03,1.245-5.6,2.7-8.615,1.764c0,0,3.321,8.2,7.681,7.785s-6.081-3.114-3.382-3.321,4.671.519,3.321,1.246-5.916.238-8.1,2.091c3.932-3.343,21.384,8.191.1,3.825,4.048.83,11.314.312,12.767-2.8Z" transform="translate(-1193.537 -722.305)" fill="#a8d29f"/><path d="M1443.355,905.044a16.56,16.56,0,0,1-2.076-7.577c-2.491-7.888-12.5-14.946-12.5-14.946,27.713,11.21,11.045,18.06,11.045,18.06.747.436,1.867,2.514,2.644,4.108.11.271.285.645.545,1.153.106.231.191.421.249.553,1.427,3.57.671,9.735.671,9.735l.865.232a14.377,14.377,0,0,0-1.445-11.318" transform="translate(-1218.219 -752.463)" fill="#82b378"/><path d="M1558.6,789.405s-10.261-5.746-5.473-13.545c0,0,3.831-4.789,7.936-6.02,0,0-2.189,11.63,0,11.9s1.5-13.135,1.5-13.135,10.809-5.2,15.05-4.789c0,0-6.7,11.356-4.515,11.082s9.714-11.767,9.714-11.767,11.082-2.052,12.861,4.515-1.095,9.851-2.737,10.261-12.177.274-11.9,1.642,7.388,3.557,11.356,2.326c0,0-4.378,10.809-10.125,10.262s-7.525-4.1-11.082-4.378-6.157.684-4.378,1.642,7.8.314,10.672,2.756,5.2,3.948-.137,5.042-14.913.41-16.829-3.694Z" transform="translate(-1323.15 -650.412)" fill="#a8d29f"/><path d="M1598.286,809.455s-28.732,9.3-32.016,19.7a21.827,21.827,0,0,1-2.736,9.988,18.95,18.95,0,0,0-1.9,14.919l1.14-.306s-1-8.127.884-12.833c.077-.173.188-.422.327-.726.343-.672.574-1.167.72-1.524,1.024-2.1,2.5-4.839,3.485-5.414,0,0-6.431-9.03,30.1-23.807" transform="translate(-1330.825 -690.165)" fill="#82b378"/><path d="M1458.885,1096.285a20.1,20.1,0,1,0,40.2,0Z" transform="translate(-1243.886 -934.724)" fill="#f1a34f"/><path d="M1498.105,1116.231a20.113,20.113,0,0,1-22.6-19.947h4.994a20.1,20.1,0,0,0,17.6,19.947" transform="translate(-1258.06 -934.723)" fill="#ffb973"/><path d="M1495.278,1222.793h-35.8a2.48,2.48,0,0,0-2.48,2.48h40.757a2.48,2.48,0,0,0-2.48-2.48" transform="translate(-1242.28 -1042.588)" fill="#f1a34f"/><rect width="41.32" height="0.617" transform="translate(214.338 161.561)" fill="#d86713"/><path d="M854.046,745.817l-4-14.94a1.064,1.064,0,0,0-1.3-.752L823.9,736.772a1.064,1.064,0,0,0-.752,1.3l4,14.94a1.068,1.068,0,0,0,1.3.752l24.853-6.647a1.068,1.068,0,0,0,.752-1.3" transform="translate(-701.805 -622.495)" fill="#f1a34f"/><path d="M850.051,730.877a1.064,1.064,0,0,0-1.3-.752L823.9,736.772a1.064,1.064,0,0,0-.752,1.3l15.451,3.872,11.571-10.636Z" transform="translate(-701.806 -622.495)" fill="#d86713"/><path d="M988.805,830.3a.429.429,0,0,0-.523-.3l-4.661,1.247a.428.428,0,1,0,.221.826l4.661-1.247a.429.429,0,0,0,.3-.524" transform="translate(-838.392 -707.669)" fill="#d86713"/><path d="M637.4,1089.6v4.174h-8.589l.722-2.007-.722-2.167Z" transform="translate(-536.146 -929.026)" fill="#c95c12"/><rect width="64.416" height="25.481" transform="translate(126.439 157.203)" fill="#f1a34f"/><path d="M1249.6,1066.714l-7.857,4.763v-4.763Z" transform="translate(-1058.745 -909.511)" fill="#c95c12"/><rect width="69.83" height="20.067" transform="translate(131.117 162.616)" fill="#4a75cb"/><rect width="7.594" height="3.859" transform="matrix(0.981, -0.196, 0.196, 0.981, 118.85, 177.868)" fill="#ebf2f9"/><path d="M817.081,1127.958h82.646l.3-.847-.3-.915H817.014l-.44.949Z" transform="translate(-696.233 -960.227)" fill="#ebf2f9"/><path d="M795.423,1126.2v1.762h86.272l.3-.847-.3-.915Z" transform="translate(-678.2 -960.227)" fill="#a6c7f9"/><path d="M1274.577,1092.075h-8.569l.36-1-.36-1.081h8.488l-.521,1.121Z" transform="translate(-1079.434 -929.359)" fill="#ffd5ab"/><path d="M1270.293,1089.993v2.082h-4.284l.36-1-.36-1.081Z" transform="translate(-1079.435 -929.359)" fill="#c95c12"/><path d="M1274.577,1196.489h-8.569l.36-1-.36-1.081h8.488l-.521,1.121Z" transform="translate(-1079.434 -1018.385)" fill="#ffd5ab"/><path d="M1270.293,1194.407v2.082h-4.284l.36-1-.36-1.081Z" transform="translate(-1079.435 -1018.386)" fill="#c95c12"/><rect width="8.611" height="4.376" transform="translate(160.183 151.885) rotate(-11.293)" fill="#ebf2f9"/><path d="M901.319,1029.239h-9.554l.4-1.116-.4-1.206h9.465l-.581,1.25Z" transform="translate(-760.344 -875.578)" fill="#ebf2f9"/><path d="M896.542,1026.917v2.322h-4.777l.4-1.116-.4-1.206Z" transform="translate(-760.344 -875.579)" fill="#a6c7f9"/><path d="M901.319,1207.412h-9.554l.4-1.116-.4-1.206h9.465l-.581,1.25Z" transform="translate(-760.344 -1027.495)" fill="#ebf2f9"/><path d="M896.542,1205.091v2.322h-4.777l.4-1.116-.4-1.206Z" transform="translate(-760.344 -1027.495)" fill="#a6c7f9"/><path d="M758.781,722.069H745.2l.571-1.586-.571-1.713h13.451l-.825,1.777Z" transform="translate(-635.381 -612.843)" fill="#ebf2f9"/><path d="M751.991,718.77v3.3H745.2l.571-1.586-.571-1.713Z" transform="translate(-635.381 -612.844)" fill="#a6c7f9"/><rect width="70.493" height="2.479" transform="translate(229.357 20.831)" fill="#91b6ed"/><rect width="91.583" height="2.479" transform="translate(212.728)" fill="#699dee"/><rect width="70.493" height="2.479" transform="translate(229.357 45.353)" fill="#91b6ed"/><rect width="70.493" height="2.479" transform="translate(229.357 69.876)" fill="#91b6ed"/><rect width="70.493" height="2.479" transform="translate(229.357 94.398)" fill="#91b6ed"/><rect width="20.011" height="20.01" transform="translate(231.79 25.343)" fill="#d86713"/><rect width="20.011" height="20.01" transform="translate(237.96 25.343)" fill="#f1a34f"/><path d="M1579,171.968l-6.17,3.74v-3.74Z" transform="translate(-1341.036 -146.625)" fill="#c95c12"/><rect width="15.759" height="15.759" transform="translate(245.886 29.594)" fill="#4a75cb"/><rect width="15.759" height="15.759" transform="translate(250.745 29.594)" fill="#699dee"/><rect width="5.963" height="3.031" transform="translate(252.011 41.649) rotate(-11.294)" fill="#ebf2f9"/><path d="M1687.742,220.6h-5.694l.239-.665-.239-.718h5.641l-.346.745Z" transform="translate(-1434.161 -186.906)" fill="#ebf2f9"/><path d="M1684.9,219.212V220.6h-2.847l.239-.665-.239-.718Z" transform="translate(-1434.161 -186.907)" fill="#a6c7f9"/><path d="M1598.612,191.631h-6.729l.283-.786-.283-.849h6.666l-.409.88Z" transform="translate(-1357.284 -161.996)" fill="#ffd5ab"/><path d="M1595.247,190v1.635h-3.365l.283-.786-.283-.849Z" transform="translate(-1357.284 -161.996)" fill="#c95c12"/><path d="M1598.612,273.628h-6.729l.283-.786-.283-.849h6.666l-.409.881Z" transform="translate(-1357.284 -231.909)" fill="#ffd5ab"/><path d="M1595.247,271.993v1.635h-3.365l.283-.786-.283-.849Z" transform="translate(-1357.284 -231.909)" fill="#c95c12"/><rect width="15.759" height="15.759" transform="translate(241.509 5.108)" fill="#4a75cb"/><rect width="15.759" height="15.759" transform="translate(246.368 5.108)" fill="#699dee"/><rect width="5.963" height="3.031" transform="translate(247.635 17.086) rotate(-11.294)" fill="#ebf2f9"/><path d="M1658.045,53.917h-5.694l.24-.665-.24-.718h5.641l-.346.745Z" transform="translate(-1408.841 -44.792)" fill="#ebf2f9"/><path d="M1655.2,52.533v1.384h-2.847l.239-.665-.239-.718Z" transform="translate(-1408.842 -44.792)" fill="#a6c7f9"/><rect width="11.136" height="11.136" transform="translate(264.22 9.692)" fill="#d86713"/><rect width="11.135" height="11.136" transform="translate(267.653 9.692)" fill="#f1a34f"/><path d="M1796.309,65.772l-3.434,2.082V65.772Z" transform="translate(-1528.656 -56.079)" fill="#c95c12"/><path d="M1807.224,76.856h-3.745l.157-.437-.157-.472h3.71l-.228.49Z" transform="translate(-1537.697 -64.754)" fill="#ffd5ab"/><path d="M1805.352,75.945v.91h-1.873l.158-.437-.158-.472Z" transform="translate(-1537.697 -64.754)" fill="#c95c12"/><path d="M1807.224,122.485h-3.745l.157-.437-.157-.472h3.71l-.228.49Z" transform="translate(-1537.697 -103.659)" fill="#ffd5ab"/><path d="M1805.352,121.575v.91h-1.873l.158-.437-.158-.472Z" transform="translate(-1537.697 -103.659)" fill="#c95c12"/><rect width="13.092" height="13.092" transform="translate(231.979 56.792)" fill="#4a75cb"/><rect width="13.092" height="13.092" transform="translate(236.016 56.792)" fill="#699dee"/><rect width="4.954" height="2.518" transform="matrix(0.981, -0.196, 0.196, 0.981, 237.068, 66.743)" fill="#ebf2f9"/><path d="M1590.117,401.367h-4.73l.2-.553-.2-.6h4.686l-.287.619Z" transform="translate(-1351.745 -341.237)" fill="#ebf2f9"/><path d="M1587.752,400.217v1.15h-2.365l.2-.553-.2-.6Z" transform="translate(-1351.745 -341.236)" fill="#a6c7f9"/><rect width="13.092" height="13.092" transform="translate(250.695 56.792)" fill="#4a75cb"/><rect width="13.092" height="13.092" transform="translate(254.732 56.792)" fill="#699dee"/><rect width="4.954" height="2.518" transform="matrix(0.981, -0.196, 0.196, 0.981, 255.784, 66.743)" fill="#ebf2f9"/><path d="M1717.117,401.367h-4.73l.2-.553-.2-.6h4.686l-.287.619Z" transform="translate(-1460.029 -341.237)" fill="#ebf2f9"/><path d="M1714.751,400.217v1.15h-2.365l.2-.553-.2-.6Z" transform="translate(-1460.029 -341.236)" fill="#a6c7f9"/><rect width="9.548" height="9.548" transform="translate(268.433 35.805)" fill="#d86713"/><rect width="9.548" height="9.548" transform="translate(271.377 35.805)" fill="#f1a34f"/><path d="M1824.412,242.961l-2.944,1.785v-1.785Z" transform="translate(-1553.035 -207.156)" fill="#c95c12"/><rect width="7.52" height="7.519" transform="translate(275.159 37.834)" fill="#4a75cb"/><rect width="7.519" height="7.519" transform="translate(277.477 37.834)" fill="#699dee"/><rect width="2.846" height="1.446" transform="translate(278.082 43.626) rotate(-11.292)" fill="#ebf2f9"/><path d="M1876.3,266.437h-2.717l.115-.317-.115-.343h2.692l-.165.356Z" transform="translate(-1597.47 -226.609)" fill="#ebf2f9"/><path d="M1874.942,265.777v.66h-1.359l.115-.317-.115-.343Z" transform="translate(-1597.47 -226.61)" fill="#a6c7f9"/><path d="M1833.771,252.617h-3.211l.135-.375-.135-.405h3.181l-.2.42Z" transform="translate(-1560.787 -214.724)" fill="#ffd5ab"/><path d="M1832.166,251.837v.78h-1.606l.135-.375-.135-.405Z" transform="translate(-1560.787 -214.724)" fill="#c95c12"/><path d="M1833.771,291.743h-3.211l.135-.375-.135-.405h3.181l-.2.42Z" transform="translate(-1560.787 -248.084)" fill="#ffd5ab"/><path d="M1832.166,290.962v.78h-1.606l.135-.375-.135-.405Z" transform="translate(-1560.787 -248.083)" fill="#c95c12"/><path d="M1943.152,355.987l-4.023,17.47h11.117l4.023-17.47Z" transform="translate(-1653.356 -303.525)" fill="#699dee"/><path d="M1894.3,355.987l-4.023,17.47h11.117l4.023-17.47Z" transform="translate(-1611.702 -303.525)" fill="#fff"/><path d="M1859.313,416.41l.005,7.59a.524.524,0,0,1-.521.522l-12.626.009a.524.524,0,0,1-.522-.521l-.005-7.59a.522.522,0,0,1,.521-.522l12.626-.009a.522.522,0,0,1,.522.521" transform="translate(-1573.648 -354.599)" fill="#f1a34f"/><path d="M1859.313,416.41v.219l-6.832,3.58-6.837-3.79a.522.522,0,0,1,.521-.522l12.626-.009a.522.522,0,0,1,.522.521" transform="translate(-1573.648 -354.599)" fill="#d86713"/><path d="M1916.8,465.719l-2.368,0a.21.21,0,0,0,0,.42h2.368a.21.21,0,0,0,0-.42" transform="translate(-1632.123 -397.086)" fill="#d86713"/><path d="M1843.509,416.029a.522.522,0,0,0-.522-.521l-12.626.009a.522.522,0,0,0-.521.522l.005,7.59a.524.524,0,0,0,.522.521l12.626-.009a.524.524,0,0,0,.521-.522Z" transform="translate(-1560.173 -354.274)" fill="#f1a34f"/><path d="M1843.509,416.029v.219l-6.832,3.58-6.837-3.79a.522.522,0,0,1,.521-.522l12.626-.009a.522.522,0,0,1,.522.521" transform="translate(-1560.173 -354.274)" fill="#d86713"/><path d="M1901,465.336l-2.368,0a.21.21,0,1,0,0,.42l2.368,0a.21.21,0,1,0,0-.42" transform="translate(-1618.646 -396.759)" fill="#d86713"/><g transform="translate(26.255 -124.004)"><path d="M300.759,356.374a1.519,1.519,0,0,1-3.037,0,7.208,7.208,0,0,0,3.037,0" transform="translate(-147.504 -177.239)" fill="#fff"/><g transform="translate(148.113 173.246)" opacity="0.2" style="mix-blend-mode:multiply;isolation:isolate"><g clip-path="url(#b)"><path d="M292.715,342.528l.033.533c.027.423.15.752.8.752.408,0,.939.7,1.476.7.406,0,.413-.92.356-1.343-.124-.918-2.524-.923-2.667-.64" transform="translate(-292.715 -342.363)" fill="#1b1464"/></g></g><g transform="translate(151.96 173.132)" opacity="0.2" style="mix-blend-mode:multiply;isolation:isolate"><g clip-path="url(#c)"><path d="M305.885,343.114l-.626-.744c-.335-.375-1.372-.369-3.077,0-.346.124-.377.379-.245.678.169.381.622,1.494,1.039,1.494.8,0,1.2-.887,1.671-.887,1.165,0,1.238-.541,1.238-.541" transform="translate(-301.865 -342.092)" fill="#1b1464"/></g></g><path d="M302.112,342.244a2.831,2.831,0,0,0,1.067.077c.354-.019.7-.076,1.037-.1a3.24,3.24,0,0,1,.981.031,1.276,1.276,0,0,1,.784.568,1.109,1.109,0,0,0-.694-.831,2.372,2.372,0,0,0-1.1-.127,7.291,7.291,0,0,0-1.047.185,8.243,8.243,0,0,1-1.026.2" transform="translate(-150.049 -168.82)" fill="#502f26"/><path d="M295.687,342.252c-.486-.069-.9-.243-1.384-.337a2.169,2.169,0,0,0-.754-.029.853.853,0,0,0-.641.4,1.961,1.961,0,0,1,1.328-.02,5.164,5.164,0,0,0,.715.1,1.486,1.486,0,0,0,.736-.116" transform="translate(-144.714 -168.828)" fill="#502f26"/><path d="M295.4,346.329c0,.458.191.829.427.829s.427-.371.427-.829-.191-.829-.427-.829-.427.371-.427.829" transform="translate(-146.159 -170.936)" fill="#49341f"/><path d="M305.236,346.329c0,.458.191.829.427.829s.427-.371.427-.829-.191-.829-.427-.829-.427.371-.427.829" transform="translate(-151.859 -170.936)" fill="#49341f"/><path d="M292.233,345.664l-.055-.449a1.1,1.1,0,0,1,.259-.862.893.893,0,0,1,.673-.312H294.8a.907.907,0,0,1,.716.365,1.12,1.12,0,0,1,.185.961l-.153.578a1.746,1.746,0,0,1-1.632,1.357,1.779,1.779,0,0,1-1.685-1.638m.876-1.261a.536.536,0,0,0-.4.19.738.738,0,0,0-.171.579l.054.449a1.42,1.42,0,0,0,1.327,1.32,1.368,1.368,0,0,0,1.283-1.087l.153-.578a.754.754,0,0,0-.123-.648.541.541,0,0,0-.43-.224Z" transform="translate(-144.286 -170.09)" fill="#fff"/><path d="M298.767,350.233c-.389.636.1.581.773.632a.69.69,0,0,0,.549-.117c.294-.292-.146-2.212-.363-2.212-.61,0-.414.808-.958,1.7" transform="translate(-148.03 -172.695)" fill="#e08068"/><path d="M301.753,345.667l-.061-.449a1.036,1.036,0,0,1,1.026-1.177h1.9a1.036,1.036,0,0,1,.992,1.331l-.172.577a1.881,1.881,0,0,1-1.814,1.352,1.9,1.9,0,0,1-1.876-1.635m.965-1.264a.674.674,0,0,0-.668.766l.062.449a1.532,1.532,0,0,0,2.985.229l.172-.577a.674.674,0,0,0-.647-.867Z" transform="translate(-149.799 -170.09)" fill="#fff"/><path d="M310.766,346.417h2.578a.181.181,0,1,0,0-.361h-2.578a.181.181,0,1,0,0,.361" transform="translate(-154.96 -171.258)" fill="#fff"/><path d="M299.987,346.417h.757a.181.181,0,1,0,0-.361h-.757a.181.181,0,1,0,0,.361" transform="translate(-148.712 -171.258)" fill="#fff"/></g><g transform="translate(319.83 49.478)"><path d="M297.722,356.374a1.829,1.829,0,0,0,3.657,0,8.679,8.679,0,0,1-3.657,0" transform="translate(-291.328 -349.022)" fill="#fff"/><g transform="translate(9.343 0.26)" opacity="0.2" style="mix-blend-mode:multiply;isolation:isolate"><g transform="translate(0)"><g clip-path="url(#d)"><path d="M295.957,342.561l-.04.642c-.032.509-.181.906-.964.906-.491,0-1.13.84-1.778.84-.489,0-.5-1.108-.429-1.617.149-1.106,3.039-1.112,3.211-.77" transform="translate(-292.715 -342.363)" fill="#1b1464"/></g></g></g><g transform="translate(3.113 0.123)" opacity="0.2" style="mix-blend-mode:multiply;isolation:isolate"><g clip-path="url(#e)"><path d="M301.865,343.323l.754-.9c.4-.452,1.652-.444,3.7,0,.417.149.454.456.295.816-.2.459-.749,1.8-1.251,1.8-.963,0-1.443-1.068-2.012-1.068-1.4,0-1.49-.651-1.49-.651" transform="translate(-301.865 -342.092)" fill="#1b1464"/></g></g><path d="M306.77,342.324a3.409,3.409,0,0,1-1.285.093c-.426-.023-.84-.091-1.248-.119a3.9,3.9,0,0,0-1.181.037,1.536,1.536,0,0,0-.944.684,1.336,1.336,0,0,1,.836-1,2.857,2.857,0,0,1,1.326-.153,8.786,8.786,0,0,1,1.26.223,9.911,9.911,0,0,0,1.236.237" transform="translate(-298.941 -341.85)" fill="#502f26"/><path d="M292.908,342.331c.585-.083,1.082-.293,1.667-.405a2.613,2.613,0,0,1,.908-.035,1.027,1.027,0,0,1,.771.486,2.361,2.361,0,0,0-1.6-.024,6.229,6.229,0,0,1-.861.117,1.79,1.79,0,0,1-.886-.139" transform="translate(-283.767 -341.856)" fill="#502f26"/><path d="M296.429,346.5c0,.551-.23,1-.514,1s-.514-.447-.514-1,.23-1,.514-1,.514.447.514,1" transform="translate(-285.204 -343.652)" fill="#49341f"/><path d="M306.264,346.5c0,.551-.23,1-.514,1s-.514-.447-.514-1,.23-1,.514-1,.514.447.514,1" transform="translate(-300.017 -343.652)" fill="#49341f"/><path d="M296.393,345.995l.066-.54a1.32,1.32,0,0,0-.311-1.038,1.075,1.075,0,0,0-.81-.376H293.3a1.092,1.092,0,0,0-.863.439,1.349,1.349,0,0,0-.223,1.157l.184.7a2.1,2.1,0,0,0,1.965,1.633,2.142,2.142,0,0,0,2.029-1.972m-1.055-1.518a.645.645,0,0,1,.484.229.888.888,0,0,1,.205.7l-.065.54a1.71,1.71,0,0,1-1.6,1.589,1.648,1.648,0,0,1-1.544-1.309l-.184-.7a.907.907,0,0,1,.148-.78.651.651,0,0,1,.517-.269Z" transform="translate(-283.609 -342.932)" fill="#fff"/><path d="M300.338,350.579c.469.766-.118.7-.93.761a.831.831,0,0,1-.661-.141c-.354-.351.176-2.663.437-2.663.735,0,.5.973,1.154,2.043" transform="translate(-290.913 -345.151)" fill="#e08068"/><path d="M306.385,346l.074-.541a1.247,1.247,0,0,0-1.236-1.417H302.93a1.247,1.247,0,0,0-1.2,1.6l.207.695a2.265,2.265,0,0,0,2.185,1.628A2.29,2.29,0,0,0,306.385,346m-1.162-1.522a.811.811,0,0,1,.8.922l-.074.541a1.845,1.845,0,0,1-3.595.276l-.207-.695a.812.812,0,0,1,.778-1.044Z" transform="translate(-298.425 -342.932)" fill="#fff"/><path d="M313.907,346.491h-3.1a.218.218,0,0,1,0-.435h3.1a.218.218,0,1,1,0,.435" transform="translate(-310.585 -343.927)" fill="#fff"/><path d="M300.935,346.491h-.911a.218.218,0,0,1,0-.435h.911a.218.218,0,0,1,0,.435" transform="translate(-292.157 -343.927)" fill="#fff"/></g><g transform="translate(263.353 -126.551)"><path d="M301.378,356.374a1.829,1.829,0,0,1-3.656,0,8.679,8.679,0,0,0,3.656,0" transform="translate(-147.027 -175.993)" fill="#fff"/><g transform="translate(148.16 173.29)" opacity="0.2" style="mix-blend-mode:multiply;isolation:isolate"><g clip-path="url(#d)"><path d="M292.715,342.561l.04.642c.032.509.181.906.964.906.491,0,1.13.84,1.778.84.489,0,.5-1.107.429-1.617-.149-1.106-3.039-1.112-3.211-.77" transform="translate(-292.715 -342.363)" fill="#1b1464"/></g></g><g transform="translate(152.792 173.153)" opacity="0.2" style="mix-blend-mode:multiply;isolation:isolate"><g clip-path="url(#e)"><path d="M306.705,343.323l-.754-.9c-.4-.452-1.652-.444-3.7,0-.417.149-.454.456-.295.816.2.459.749,1.8,1.251,1.8.963,0,1.443-1.068,2.012-1.068,1.4,0,1.49-.651,1.49-.651" transform="translate(-301.865 -342.092)" fill="#1b1464"/></g></g><path d="M302.112,342.324a3.409,3.409,0,0,0,1.285.093c.426-.023.84-.091,1.248-.119a3.9,3.9,0,0,1,1.181.037,1.536,1.536,0,0,1,.944.684,1.336,1.336,0,0,0-.836-1,2.857,2.857,0,0,0-1.326-.153,8.786,8.786,0,0,0-1.26.223,9.912,9.912,0,0,1-1.236.237" transform="translate(-149.196 -168.82)" fill="#502f26"/><path d="M296.254,342.331c-.585-.083-1.082-.293-1.667-.405a2.613,2.613,0,0,0-.908-.035,1.027,1.027,0,0,0-.771.486,2.361,2.361,0,0,1,1.6-.024,6.229,6.229,0,0,0,.861.117,1.79,1.79,0,0,0,.886-.139" transform="translate(-144.65 -168.827)" fill="#502f26"/><path d="M295.4,346.5c0,.551.23,1,.514,1s.514-.447.514-1-.23-1-.514-1-.514.447-.514,1" transform="translate(-145.881 -170.623)" fill="#49341f"/><path d="M305.236,346.5c0,.551.23,1,.514,1s.514-.447.514-1-.23-1-.514-1-.514.447-.514,1" transform="translate(-150.738 -170.623)" fill="#49341f"/><path d="M292.246,345.995l-.066-.54a1.32,1.32,0,0,1,.311-1.038,1.075,1.075,0,0,1,.81-.376h2.037a1.092,1.092,0,0,1,.862.439,1.349,1.349,0,0,1,.223,1.157l-.184.7a2.1,2.1,0,0,1-1.965,1.633,2.142,2.142,0,0,1-2.029-1.972m1.055-1.518a.645.645,0,0,0-.484.229.888.888,0,0,0-.205.7l.065.54a1.71,1.71,0,0,0,1.6,1.589,1.648,1.648,0,0,0,1.544-1.309l.184-.7a.907.907,0,0,0-.148-.78.651.651,0,0,0-.517-.269Z" transform="translate(-144.286 -169.902)" fill="#fff"/><path d="M298.8,350.579c-.469.766.118.7.93.761a.831.831,0,0,0,.661-.141c.354-.351-.176-2.663-.437-2.663-.735,0-.5.973-1.154,2.043" transform="translate(-147.476 -172.122)" fill="#e08068"/><path d="M301.768,346l-.074-.541a1.247,1.247,0,0,1,1.236-1.417h2.293a1.247,1.247,0,0,1,1.2,1.6l-.207.695a2.265,2.265,0,0,1-2.185,1.628A2.29,2.29,0,0,1,301.768,346m1.162-1.522a.811.811,0,0,0-.8.922l.074.541a1.845,1.845,0,0,0,3.595.276l.207-.695a.812.812,0,0,0-.778-1.044Z" transform="translate(-148.983 -169.902)" fill="#fff"/><path d="M310.8,346.491h3.1a.218.218,0,1,0,0-.435h-3.1a.218.218,0,1,0,0,.435" transform="translate(-153.38 -170.897)" fill="#fff"/><path d="M300.024,346.491h.911a.218.218,0,0,0,0-.435h-.911a.218.218,0,1,0,0,.435" transform="translate(-148.057 -170.897)" fill="#fff"/></g><g transform="translate(56.237 44.818)"><path d="M297.722,356.215c0,1.757,1.335.934,1.335-.823l-1.054.332-.281.491" transform="translate(-291.675 -350.475)" fill="#fff"/><path d="M306.77,342.324a3.409,3.409,0,0,1-1.285.093c-.426-.023-.84-.091-1.248-.119a3.9,3.9,0,0,0-1.181.037,1.536,1.536,0,0,0-.944.684,1.336,1.336,0,0,1,.836-1,2.857,2.857,0,0,1,1.326-.153,8.786,8.786,0,0,1,1.26.223,9.911,9.911,0,0,0,1.236.237" transform="translate(-297.941 -341.85)" fill="#502f26"/><path d="M306.264,346.5c0,.551-.23,1-.514,1s-.514-.447-.514-1,.23-1,.514-1,.514.447.514,1" transform="translate(-299.017 -343.652)" fill="#49341f"/><g transform="translate(196 924)"><path d="M297.722,356.215c0,1.757,1.335.934,1.335-.823l-1.054.332-.281.491" transform="translate(-291.675 -350.475)" fill="#fff"/><path d="M306.77,342.324a3.409,3.409,0,0,1-1.285.093c-.426-.023-.84-.091-1.248-.119a3.9,3.9,0,0,0-1.181.037,1.536,1.536,0,0,0-.944.684,1.336,1.336,0,0,1,.836-1,2.857,2.857,0,0,1,1.326-.153,8.786,8.786,0,0,1,1.26.223,9.911,9.911,0,0,0,1.236.237" transform="translate(-297.941 -341.85)" fill="#502f26"/><path d="M306.264,346.5c0,.551-.23,1-.514,1s-.514-.447-.514-1,.23-1,.514-1,.514.447.514,1" transform="translate(-299.017 -343.652)" fill="#49341f"/></g></g></g></g></g></svg>