<svg xmlns="http://www.w3.org/2000/svg" xmlns:xlink="http://www.w3.org/1999/xlink" width="423" height="248" viewBox="0 0 423 248"><defs><clipPath id="a"><rect width="423" height="248" transform="translate(-5919.063 -3558.719)" fill="#fff" stroke="#707070" stroke-width="1"/></clipPath><clipPath id="b"><rect width="506.957" height="247.814" fill="none"/></clipPath><clipPath id="c"><rect width="506.956" height="247.814" fill="none"/></clipPath><clipPath id="d"><path d="M301.42,32.482c-35.71,20.766-77.474,27.333-118.254,22.933-79.377-7.615-134.853,89.628-88.1,154.12,0,0,22.031,32.544,22.031,32.544H544.4l-15.245-124.64C518.071,41.91,459.635.007,395.864,0c-31.9,0-65.126,10.479-94.445,32.48" transform="translate(-77.941 -0.002)" fill="none"/></clipPath><clipPath id="e"><rect width="482.168" height="140.98" fill="none"/></clipPath><clipPath id="g"><path d="M1027.635,358.694l-8.282-9.067-10.752,9.821c1.264,1.4,8.8,9.6,9.83,10.806a11.132,11.132,0,0,0,16.481.041l23.33-25.9-4.984-6.5Z" transform="translate(-1008.601 -337.899)" fill="none"/></clipPath><clipPath id="i"><path d="M667.849,396.4c.483,3.071-3.557,37.176-.246,38.645,3.9,4.44,8.189.806,11.765-1.825l-5-.05,4.77-33.525,9.035-6.048-6.313-11.124c-5.345,3.151-14.136,6.416-14.013,13.927" transform="translate(-666.286 -382.471)" fill="none"/></clipPath><clipPath id="k"><path d="M802.779,546.7l2.375,124.48h8.371l17.544-124.76Z" transform="translate(-802.779 -546.417)" fill="none"/></clipPath><clipPath id="m"><path d="M917.068,671.177h8.769l2.375-124.48-28.289-.28Z" transform="translate(-899.923 -546.417)" fill="none"/></clipPath><clipPath id="o"><rect width="4.751" height="3.79" fill="none"/></clipPath><clipPath id="p"><rect width="7.094" height="4.323" fill="none"/></clipPath><clipPath id="q"><path d="M873.792,149.973c.236,15.241,18.811,15.243,19.048,0,.591-7.859-4.566-11.76-9.676-11.76-5.133,0-10.219,3.94-9.372,11.759" transform="translate(-873.699 -138.214)" fill="none"/></clipPath><clipPath id="s"><path d="M810.5,285.461c-8.551-.315-16.256,8.383-17.321,17.414-.137.9-6.979,46.1-6.979,46.1h53.426l-6.981-46.117c-1.708-11.373-9.755-17.59-19.245-17.59a22.562,22.562,0,0,0-2.9.19" transform="translate(-786.201 -285.271)" fill="none"/></clipPath></defs><g transform="translate(5919.063 3558.72)" clip-path="url(#a)"><g transform="translate(-5968.756 -3558.377)" clip-path="url(#b)"><g transform="translate(15.239 0)"><g clip-path="url(#d)"><g transform="translate(0.118 106.834)" opacity="0.7"><g clip-path="url(#e)"><path d="M78.545,685.918v-92.49h66.331v-47.01h118V604.7H396.707V556.761h93.231V586.35h70.774V687.4Z" transform="translate(-78.545 -546.417)" fill="#f1f8fe"/></g></g></g></g><g transform="translate(0 0)"><g clip-path="url(#c)"><path d="M1534.326,370.828h-29.451a3.883,3.883,0,0,0-3.768,2.943l-36.292,145.34,2.672,0,35.994-144.149a1.829,1.829,0,0,1,1.774-1.386h29.07a1.376,1.376,0,1,0,0-2.751" transform="translate(-1178.418 -298.325)" fill="#324d90"/><path d="M2070.827,371.441h-29.5a3.883,3.883,0,0,0-3.768,2.943l-36.292,145.34,2.672,0,35.994-144.149a1.829,1.829,0,0,1,1.774-1.386h29.118a1.376,1.376,0,1,0,0-2.751" transform="translate(-1609.985 -298.818)" fill="#324d90"/><path d="M1537.571,1105.717c-.059-5.612-2.2-12.038-7.837-14.016-2.588-.591-5.325-.175-7.965-.274-6.989-1.022-11.979,5.159-12.118,14.29.141,9.132,5.128,15.31,12.118,14.289,2.639-.1,5.377.317,7.965-.273,5.6-1.905,7.814-8.521,7.837-14.016" transform="translate(-1214.488 -877.946)" fill="#152e60"/><path d="M1286.8,1099.9c-1.27-3.923-4.369-8.083-8.848-8.1-2.8.013-5.7.007-8.451,0-5.4.127-9.74,6.613-9.652,14.541.093,7.819,4.463,14.112,9.88,14.069q4.11-.015,8.223,0c6.848-.311,9.852-8.328,9.816-14.306a19.823,19.823,0,0,0-.968-6.2" transform="translate(-1013.526 -878.331)" fill="#152e60"/><rect width="70.593" height="87.038" transform="translate(340.982 135.847)" fill="#f08f3c"/><rect width="8.363" height="9.925" transform="translate(378.511 135.847)" fill="#fdf1e6"/><rect width="106.361" height="87.038" transform="translate(246.322 135.847)" fill="#f3ac4a"/><rect width="12.601" height="9.925" transform="translate(293.202 135.847)" fill="#fdf1e6"/><rect width="185.519" height="4.964" transform="translate(236.189 222.121)" fill="#324d90"/><rect width="92.759" height="4.964" transform="translate(236.189 222.121)" fill="#152e60"/><path d="M2000.954,1091.377q-3.224.017-6.447,0c-14.589-2.071-15.432,28.146-1.841,28.614q3.223-.017,6.446,0c14.588,2.071,15.432-28.145,1.842-28.613" transform="translate(-1595.286 -877.913)" fill="#152e60"/><path d="M2044.276,1106.866c-.255,18.829-19.378,18.827-19.631,0,.255-18.829,19.377-18.827,19.631,0" transform="translate(-1628.792 -879.095)" fill="#324d90"/><path d="M2063.885,1142.582c-.092,7.255-6.949,7.254-7.04,0,.092-7.255,6.949-7.254,7.04,0" transform="translate(-1654.696 -914.811)" fill="#152e60"/><path d="M1751.151,1091.377q-3.224.017-6.447,0c-14.589-2.071-15.432,28.146-1.841,28.614q3.223-.017,6.446,0c14.589,2.071,15.432-28.145,1.842-28.613" transform="translate(-1394.323 -877.913)" fill="#152e60"/><path d="M1794.472,1106.866c-.255,18.829-19.377,18.827-19.631,0,.255-18.829,19.377-18.827,19.631,0" transform="translate(-1427.829 -879.095)" fill="#324d90"/><path d="M1814.081,1142.582c-.092,7.255-6.949,7.254-7.04,0,.092-7.254,6.948-7.254,7.04,0" transform="translate(-1453.733 -914.811)" fill="#152e60"/><path d="M1053.259,337.9l-25.624,20.795-8.282-9.067-10.752,9.821c1.264,1.4,8.8,9.6,9.83,10.806a11.132,11.132,0,0,0,16.481.041l23.33-25.9Z" transform="translate(-811.402 -271.834)" fill="#f4d2c6"/></g></g><g transform="translate(197.199 66.065)"><g clip-path="url(#g)"><path d="M1045.164,430.033l-7.022,15.26-7.752-6.835,12.262-11.882Z" transform="translate(-1026.13 -409.238)" fill="#eda19d"/></g></g><g transform="translate(0 0)"><g clip-path="url(#c)"><path d="M1202.176,399.94H1178.45a2.314,2.314,0,0,1-2.314-2.314V362.6a2.314,2.314,0,0,1,2.314-2.314h23.726a2.314,2.314,0,0,1,2.314,2.314v35.022a2.314,2.314,0,0,1-2.314,2.314" transform="translate(-946.181 -289.847)" fill="#324d90"/><rect width="22.805" height="33.574" transform="translate(232.729 73.491)" fill="#f3f5fb"/><path d="M1232.566,360.683h-7.88a.926.926,0,0,1-.926-.926v-3.01a.926.926,0,0,1,.926-.926h7.88a.926.926,0,0,1,.926.926v3.01a.926.926,0,0,1-.926.926" transform="translate(-984.494 -286.253)" fill="#152e60"/><rect width="18.939" height="2.283" transform="translate(234.663 79.093)" fill="#e3eaf4"/><rect width="18.939" height="2.283" transform="translate(234.663 84.11)" fill="#e3eaf4"/><rect width="18.939" height="2.283" transform="translate(234.663 89.126)" fill="#e3eaf4"/><rect width="18.939" height="2.283" transform="translate(234.663 94.142)" fill="#e3eaf4"/><rect width="13.279" height="2.283" transform="translate(234.663 99.159)" fill="#e3eaf4"/><path d="M1229.532,332.63c-.357,3,2.1,4.56,4.438,5.737,3.411,2.091,8.142-1.336,7.116-5.238-.367-2.759-2.132-4.1-4.713-4.738-2.894-.935-6.6,1.072-6.842,4.239" transform="translate(-989.109 -263.999)" fill="#f4d2c6"/><rect width="31.428" height="19.124" transform="translate(144.273 71.782) rotate(-27.68)" fill="#fbcc34"/><path d="M679.139,399.644l9.035-6.048-6.313-11.124c-5.344,3.15-14.135,6.416-14.013,13.927.483,3.071-3.557,37.176-.246,38.645,3.9,4.44,8.189.806,11.764-1.825l-5-.05Z" transform="translate(-536.016 -307.693)" fill="#f4d2c6"/></g></g><g transform="translate(130.27 74.78)"><g clip-path="url(#i)"><path d="M725.6,371.246l3.269,13.083,7.495-4.88-5.132-11.195Z" transform="translate(-714.002 -371.034)" fill="#eda19d"/></g></g><g transform="translate(0 0)"><g clip-path="url(#c)"><rect width="19.124" height="31.428" transform="translate(180.98 74.805) rotate(-45)" fill="#fbcc34"/><path d="M1026.362,409.8l-3.731-20.431,6.306,17.856Z" transform="translate(-822.689 -313.241)" fill="#e1b72f"/><path d="M802.78,546.7l2.375,124.48h8.371l17.544-124.76Z" transform="translate(-645.823 -439.584)" fill="#324d90"/></g></g><g transform="translate(156.957 106.834)"><g clip-path="url(#k)"><path d="M854.353,717.424c-12.163,16.157-15.826,69.759-16.787,93.014h7.344l9.083-57.029Z" transform="translate(-830.764 -683.989)" fill="#2a437d"/></g></g><g transform="translate(0 0)"><g clip-path="url(#c)"><path d="M928.212,546.7l-2.375,124.48h-8.769l-17.146-124.76Z" transform="translate(-723.972 -439.584)" fill="#324d90"/></g></g><g transform="translate(175.95 106.834)"><g clip-path="url(#m)"><path d="M923.424,717.424c10.342,13.139,16.044,73.43,16.3,92.287h-6.747Z" transform="translate(-918.829 -683.989)" fill="#2a437d"/></g></g><g transform="translate(0 0)"><g clip-path="url(#c)"><path d="M867.765,185.08c.644,3.868-2.685,4.434-3.355.57-.643-3.868,2.685-4.434,3.355-.57" transform="translate(-695.337 -146.778)" fill="#eda19d"/><path d="M963.528,185.08c-.644,3.868,2.685,4.434,3.355.57.643-3.868-2.685-4.434-3.355-.57" transform="translate(-775.076 -146.778)" fill="#eda19d"/><path d="M892.841,149.974c-.237,15.243-18.812,15.241-19.048,0-1.689-15.6,20.233-15.755,19.048,0" transform="translate(-702.877 -111.191)" fill="#f4d2c6"/><g transform="translate(170.238 35.672)"><path d="M297.722,356.374c0,3.475,5.359,3.475,5.359,0a12.721,12.721,0,0,1-5.359,0" transform="translate(-288.351 -345.599)" fill="#fff"/><g transform="translate(13.694 0.381)" opacity="0.2" style="mix-blend-mode:multiply;isolation:isolate"><g transform="translate(0)"><g clip-path="url(#o)"><path d="M297.466,342.654l-.059.941c-.047.746-.265,1.327-1.413,1.327-.72,0-1.657,1.231-2.605,1.231-.717,0-.729-1.623-.629-2.369.219-1.621,4.454-1.629,4.706-1.129" transform="translate(-292.715 -342.363)" fill="#1b1464"/></g></g></g><g transform="translate(4.562 0.18)" opacity="0.2" style="mix-blend-mode:multiply;isolation:isolate"><g clip-path="url(#p)"><path d="M301.865,343.9l1.105-1.313c.592-.662,2.421-.651,5.43,0,.611.219.665.668.432,1.2-.3.673-1.1,2.636-1.834,2.636-1.412,0-2.114-1.565-2.949-1.565-2.057,0-2.184-.954-2.184-.954" transform="translate(-301.865 -342.092)" fill="#1b1464"/></g></g><path d="M308.939,342.545a5,5,0,0,1-1.883.136c-.625-.033-1.231-.134-1.829-.175a5.717,5.717,0,0,0-1.731.054,2.252,2.252,0,0,0-1.384,1,1.957,1.957,0,0,1,1.226-1.467,4.187,4.187,0,0,1,1.943-.225,12.875,12.875,0,0,1,1.847.327,14.529,14.529,0,0,0,1.811.347" transform="translate(-297.465 -341.85)" fill="#502f26"/><path d="M292.908,342.549c.858-.122,1.586-.429,2.443-.594a3.828,3.828,0,0,1,1.331-.051,1.506,1.506,0,0,1,1.131.712,3.461,3.461,0,0,0-2.343-.035,9.131,9.131,0,0,1-1.263.172,2.624,2.624,0,0,1-1.3-.2" transform="translate(-279.51 -341.853)" fill="#502f26"/><path d="M296.908,346.963c0,.808-.337,1.463-.753,1.463s-.754-.655-.754-1.463.338-1.463.754-1.463.753.655.753,1.463" transform="translate(-280.455 -342.792)" fill="#49341f"/><path d="M306.743,346.963c0,.808-.338,1.463-.753,1.463s-.754-.655-.754-1.463.338-1.463.754-1.463.753.655.753,1.463" transform="translate(-297.587 -342.792)" fill="#49341f"/><path d="M298.36,346.9l.1-.792a1.935,1.935,0,0,0-.456-1.521,1.575,1.575,0,0,0-1.187-.551h-2.986a1.6,1.6,0,0,0-1.264.644,1.977,1.977,0,0,0-.327,1.7l.27,1.02a3.081,3.081,0,0,0,2.88,2.394,3.139,3.139,0,0,0,2.974-2.89m-1.547-2.226a.946.946,0,0,1,.709.335,1.3,1.3,0,0,1,.3,1.022l-.1.792a2.506,2.506,0,0,1-2.342,2.329,2.415,2.415,0,0,1-2.263-1.919l-.27-1.02a1.33,1.33,0,0,1,.217-1.144.954.954,0,0,1,.758-.395Z" transform="translate(-279.622 -342.415)" fill="#fff"/><path d="M301.133,351.531c.687,1.122-.173,1.026-1.363,1.115a1.218,1.218,0,0,1-.968-.206c-.519-.515.257-3.9.641-3.9,1.077,0,.731,1.426,1.691,2.995" transform="translate(-287.32 -343.575)" fill="#e08068"/><path d="M308.576,346.91l.108-.792a1.828,1.828,0,0,0-1.811-2.076h-3.361a1.828,1.828,0,0,0-1.752,2.349l.3,1.019a3.32,3.32,0,0,0,3.2,2.386,3.356,3.356,0,0,0,3.31-2.885m-1.7-2.231a1.189,1.189,0,0,1,1.179,1.352l-.109.792a2.7,2.7,0,0,1-5.269.4l-.3-1.019a1.189,1.189,0,0,1,1.141-1.53Z" transform="translate(-296.908 -342.415)" fill="#fff"/><path d="M315.454,346.694H310.9a.319.319,0,1,1,0-.638h4.55a.319.319,0,1,1,0,.638" transform="translate(-310.585 -342.935)" fill="#fff"/><path d="M301.46,346.694h-1.335a.319.319,0,1,1,0-.638h1.335a.319.319,0,1,1,0,.638" transform="translate(-288.595 -342.935)" fill="#fff"/></g></g></g><g transform="translate(170.823 27.023)"><g clip-path="url(#q)"><path d="M878.391,151.2a39.218,39.218,0,0,0,16.851-1.192h0l-1.045-3.45-14.047.5-1.759,3.554" transform="translate(-877.474 -144.925)" fill="#eda19d"/></g></g><g transform="translate(0 0)"><g clip-path="url(#c)"><path d="M902.254,219.419l-10.9-.408c1.191,3.4-.916,13.829-.916,13.829h12.687s-2.066-10.022-.875-13.422" transform="translate(-716.345 -170.833)" fill="#f4d2c6"/><path d="M897.21,249.549a8.351,8.351,0,0,0,9.6,0l.27,3.088s-5.522,2.58-10.144.032Z" transform="translate(-721.571 -200.758)" fill="#eda19d"/><path d="M878.348,119s12.455,1.24,15.667-.676,2.536-8.4,2.536-8.4c-1.826.292-22.517-.215-18.2,9.073" transform="translate(-706.141 -88.434)" fill="#59445a"/><path d="M865.79,135.046s-3.479,1.044-3.9,2.47,2.5,6.94,2.5,6.94a1.7,1.7,0,0,0,1.637-1.312l1.083-4.654Z" transform="translate(-693.346 -108.643)" fill="#59445a"/><path d="M958.214,135.046s3.479,1.044,3.9,2.47-2.5,6.94-2.5,6.94a1.719,1.719,0,0,1-1.637-1.314l-1.083-4.652Z" transform="translate(-769.803 -108.643)" fill="#59445a"/><path d="M956.892,141.311s2.81-1.627,2.875-3.246c0,0,1.061,3.9-2.875,3.246" transform="translate(-769.803 -111.071)" fill="#34254b"/><path d="M769.2,1184.519l-.924,3.236-9.978,4.276A3.233,3.233,0,0,0,756.34,1195h20.607l-.782-10.484Z" transform="translate(-608.463 -952.926)" fill="#152e60"/><path d="M991.362,1184.519l.924,3.236,9.978,4.276a3.233,3.233,0,0,1,1.959,2.972H983.617l.782-10.484Z" transform="translate(-791.303 -952.926)" fill="#152e60"/><path d="M832.647,302.861c-1.879-12.516-11.437-18.788-22.146-17.4-8.551-.315-16.257,8.383-17.321,17.414-.137.9-6.979,46.1-6.979,46.1h53.427Z" transform="translate(-632.485 -229.496)" fill="#fbcc34"/></g></g><g transform="translate(153.716 55.775)"><g clip-path="url(#s)"><path d="M792.183,435.967l9.837-10.538-20.607-33.456,7.033,31.062-21.109,14.849Z" transform="translate(-771.026 -371.11)" fill="#e1b72f"/></g></g><g transform="translate(0 0)"><g clip-path="url(#c)"><path d="M0,0H43.962V36.2H0Z" transform="translate(123.952 94.541) rotate(-24.033)" fill="#cf9039"/><rect width="6.834" height="5.443" transform="matrix(0.913, -0.407, 0.407, 0.913, 140.907, 86.98)" fill="#fdf1e6"/><path d="M691.782,626.794c2.123.465,6.215.328,6.612,3.226l-6.612.333Z" transform="translate(-556.527 -504.245)" fill="#f4d2c6"/><path d="M894.412,283.26c1.928,5.719,9.207,5.717,11.134,0a13.772,13.772,0,0,0-11.134,0" transform="translate(-719.539 -226.956)" fill="#f4d2c6"/><path d="M803.831,611.164h46.841l-46.638,9.063Z" transform="translate(-646.668 -491.671)" fill="#2a437d"/><path d="M886.935,287.973l5.312,4.305-2.2,1.391c-3.508,1.844-4.078-3.012-4.93-5.178a7.71,7.71,0,0,1,1.817-.518" transform="translate(-712.062 -231.67)" fill="#f3f5fb"/><path d="M928.389,292.176l2.069,1.283a2.438,2.438,0,0,0,3.678-1.609l.641-3.323s-1.45-.481-1.9-.554Z" transform="translate(-746.873 -231.67)" fill="#f3f5fb"/><rect width="60.309" height="72.864" transform="translate(58.475 169.214)" fill="#f3ac4a"/><rect width="9.319" height="7.069" transform="translate(83.97 169.214)" fill="#fdf1e6"/><rect width="31.501" height="72.864" transform="translate(118.784 169.214)" fill="#f08f3c"/><rect width="7.983" height="7.069" transform="translate(132.235 169.214)" fill="#fdf1e6"/><path d="M1541.306,123.95h-71.07a3.507,3.507,0,0,1-3.507-3.507V96.932a3.507,3.507,0,0,1,3.507-3.507h71.07a3.507,3.507,0,0,1,3.507,3.507v23.511a3.507,3.507,0,0,1-3.507,3.507" transform="translate(-1179.958 -75.159)" fill="#fff"/><rect width="66.12" height="3.829" transform="translate(292.753 23.336)" fill="#deeefc"/><rect width="66.12" height="3.829" transform="translate(292.753 31.614)" fill="#deeefc"/><rect width="43.894" height="3.829" transform="translate(292.752 39.892)" fill="#deeefc"/><path d="M445.406,201.8c-5.327,45.17-30.943,45.129-36.258,0,.406-23.827,35.855-23.828,36.258,0" transform="translate(-329.152 -147.964)" fill="#324d90"/><path d="M471.648,231.093c-.218,12.756-19.192,12.754-19.408,0,.218-12.756,19.192-12.754,19.408,0" transform="translate(-363.819 -178.215)" fill="#fff"/><path d="M376.264,640.055H320.4a1.8,1.8,0,0,1-1.8-1.8V618.784a1.8,1.8,0,0,1,1.8-1.8h55.86a1.8,1.8,0,0,1,1.8,1.8v19.475a1.8,1.8,0,0,1-1.8,1.8" transform="translate(-256.314 -496.357)" fill="#d4e8fc"/><path d="M362.661,626.2H307.853a2.7,2.7,0,0,1-2.7-2.7V605.365a2.7,2.7,0,0,1,2.7-2.7h54.808a2.7,2.7,0,0,1,2.7,2.7V623.5a2.7,2.7,0,0,1-2.7,2.7" transform="translate(-245.487 -484.831)" fill="#fff"/><rect width="50.99" height="2.953" transform="translate(64.275 121.74)" fill="#deeefc"/><rect width="50.99" height="2.953" transform="translate(64.275 128.124)" fill="#deeefc"/><rect width="33.85" height="2.953" transform="translate(64.275 134.508)" fill="#deeefc"/><path d="M1289.949,917.394h-30.1V938.48h30.1a2.423,2.423,0,0,0,2.422-2.423V919.816a2.423,2.423,0,0,0-2.422-2.423" transform="translate(-1013.526 -738.028)" fill="#f08f3c"/><path d="M1187.111,922.564h-49.094a2.422,2.422,0,0,1-2.422-2.422V903.9a2.422,2.422,0,0,1,2.422-2.422h49.094a2.422,2.422,0,0,1,2.422,2.422v16.241a2.422,2.422,0,0,1-2.422,2.422" transform="translate(-913.567 -725.224)" fill="#fff"/><rect width="45.675" height="2.645" transform="translate(226.161 179.757)" fill="#deeefc"/><rect width="45.675" height="2.645" transform="translate(226.161 185.475)" fill="#deeefc"/><rect width="30.321" height="2.645" transform="translate(226.161 191.193)" fill="#deeefc"/><path d="M2058.509,212.681l-11.086,22.3a.589.589,0,0,1-1.067-.026l-2.853-6.518Z" transform="translate(-1643.963 -171.099)" fill="#324d90"/><path d="M2011.715,228.441l-7.726-2.567,22.732-13.193Z" transform="translate(-1612.175 -171.098)" fill="#4292f3"/><path d="M2078.112,212.681l-10.242,17.5,9.2,3.082Z" transform="translate(-1663.566 -171.098)" fill="#4292f3"/><path d="M2051,350.635l-.291-.11q.193-.511.379-1.018l.292.107q-.186.509-.38,1.021" transform="translate(-1649.762 -281.173)" fill="#324d90"/><path d="M1306.8,414.22l-.053-.306a15.8,15.8,0,0,0,2.1-.516l.094.3a16.1,16.1,0,0,1-2.141.526m3.033-.836-.11-.291a20.416,20.416,0,0,0,1.983-.878l.14.278a20.825,20.825,0,0,1-2.013.892m2.847-1.334-.151-.272c.605-.336,1.214-.7,1.861-1.128l.17.26c-.654.427-1.269.8-1.88,1.139m2.662-1.664-.177-.256c.554-.381,1.132-.8,1.769-1.276l.187.249c-.64.481-1.222.9-1.779,1.284m2.527-1.852-.19-.246c.6-.465,1.205-.939,1.721-1.346l.193.244c-.517.408-1.119.883-1.724,1.349m2.459-1.929-.193-.244c.551-.435,1.141-.9,1.725-1.347l.189.247c-.583.447-1.172.91-1.721,1.344m2.467-1.908-.186-.249c.648-.483,1.184-.866,1.786-1.273l.174.258c-.6.4-1.131.785-1.775,1.265m2.554-1.779-.169-.261c.617-.4,1.249-.78,1.876-1.138l.154.27c-.623.355-1.249.735-1.862,1.129m2.678-1.581-.147-.274c.644-.347,1.3-.678,1.961-.985l.132.282c-.652.3-1.306.633-1.945.977m58.4-.075h-.2l0-.311c.729,0,1.47-.017,2.174-.064l.021.31c-.65.043-1.322.065-2,.065m-1.141-.02c-.729-.024-1.462-.079-2.19-.137l.025-.31c.723.057,1.452.112,2.175.136Zm4.078-.124-.031-.309c.741-.075,1.464-.181,2.149-.315l.06.305c-.694.135-1.427.243-2.177.319m-7.2-.093c-.7-.064-1.435-.138-2.178-.222l.034-.309c.741.083,1.472.158,2.172.221Zm-3.111-.331c-.7-.084-1.426-.179-2.171-.281l.042-.308c.744.1,1.473.2,2.166.281Zm13.413-.1-.073-.3a17.518,17.518,0,0,0,2.071-.636l.11.291a17.812,17.812,0,0,1-2.108.647m-16.513-.316q-1.084-.156-2.165-.325l.048-.307q1.079.168,2.161.324Zm30.944-.086v-.311c.7,0,1.43-.032,2.173-.087l.023.31c-.75.056-1.489.086-2.2.088m-.943-.013c-.757-.024-1.5-.082-2.194-.172l.04-.309c.689.089,1.417.145,2.165.169Zm4.076-.158-.031-.309c.7-.072,1.427-.167,2.159-.283l.048.307c-.737.117-1.47.213-2.177.285m-79.21-.049-.125-.285c.669-.292,1.354-.569,2.036-.82l.108.292c-.676.25-1.355.524-2.019.814m72.006-.107a16.588,16.588,0,0,1-2.142-.525l.095-.3a16.274,16.274,0,0,0,2.1.515Zm-29.965-.058q-1.081-.173-2.159-.353l.051-.307q1.077.179,2.157.352Zm22.586-.223-.128-.283a12.414,12.414,0,0,0,1.882-1.052l.176.256a12.7,12.7,0,0,1-1.93,1.079m17.687-.005-.056-.306c.716-.129,1.427-.276,2.131-.446l.073.3c-.711.172-1.427.319-2.148.449m-43.357-.279-2.156-.365.052-.307q1.077.183,2.156.365Zm30.014-.278a12.028,12.028,0,0,1-1.978-.992l.167-.263.039.025-.08-.1a9.5,9.5,0,0,0,1.5-1.536l.246.19a9.807,9.807,0,0,1-1.5,1.546,12.093,12.093,0,0,0,1.719.838Zm16.4-.125-.081-.3c.7-.187,1.4-.4,2.082-.63l.1.294c-.691.233-1.4.446-2.1.635m-82.475-.052-.1-.294c.687-.235,1.392-.453,2.1-.649l.083.3c-.7.194-1.4.411-2.08.643m32.977-.068q-1.08-.183-2.156-.362l.051-.307q1.077.178,2.157.362Zm-3.082-.513q-1.08-.176-2.158-.342l.047-.307q1.08.165,2.162.342Zm-26.916-.3-.076-.3c.7-.177,1.423-.337,2.141-.477l.059.305c-.712.138-1.427.3-2.124.473m82.484-.013-.107-.292c.675-.246,1.354-.518,2.02-.808l.124.285c-.672.292-1.356.566-2.037.815m-58.653-.168c-.762-.113-1.47-.213-2.163-.305l.041-.308c.7.093,1.4.193,2.168.306Zm36.507-.3a9.993,9.993,0,0,1-1.586-1.549l.241-.2a9.686,9.686,0,0,0,1.537,1.5Zm-39.6-.124c-.744-.094-1.474-.178-2.169-.251l.032-.309c.7.073,1.429.158,2.175.251Zm-17.7-.035-.052-.307c.71-.121,1.441-.226,2.171-.313l.036.309c-.725.086-1.45.19-2.155.311m14.594-.309c-.74-.07-1.472-.13-2.175-.177l.021-.31c.706.048,1.44.108,2.184.178Zm-11.511-.1-.03-.31c.713-.07,1.448-.124,2.187-.162l.016.31c-.734.038-1.465.092-2.173.161m8.4-.133c-.74-.041-1.474-.069-2.18-.084l.007-.311c.709.015,1.446.044,2.19.084Zm70.851-.029-.131-.282c.651-.3,1.3-.63,1.944-.973l.147.274c-.644.346-1.3.676-1.96.981m-76.145-.04-.01-.311c.714-.025,1.459-.035,2.193-.029l0,.311c-.725,0-1.469.005-2.18.029m54.295-1.145-.264-.164a8.188,8.188,0,0,0,.891-1.944l.3.09a8.5,8.5,0,0,1-.925,2.018m24.633-.251-.154-.27c.625-.355,1.252-.734,1.864-1.126l.168.262c-.617.4-1.248.777-1.878,1.135m-29.973-.15a7.953,7.953,0,0,1-.963-2l.3-.092a7.648,7.648,0,0,0,.926,1.925Zm32.637-1.5-.174-.258c.6-.4,1.193-.825,1.777-1.262l.186.249c-.588.44-1.19.868-1.789,1.272m-26.155-1.047-.307-.051a5.879,5.879,0,0,0-.019-2.118l.3-.062a6.184,6.184,0,0,1,.021,2.231m-7.664-.388a5.225,5.225,0,0,1,.1-2.234l.3.085a4.917,4.917,0,0,0-.089,2.1Zm36.356-.408-.191-.245c.565-.441,1.132-.907,1.687-1.383l.2.236c-.558.479-1.13.948-1.7,1.392m2.407-2.012-.207-.232c.534-.477,1.072-.977,1.6-1.488l.216.223c-.529.513-1.069,1.017-1.607,1.5m-31.688-.227a4.091,4.091,0,0,0-1.24-1.671l.189-.247a4.4,4.4,0,0,1,1.338,1.8Zm-6.337-.333-.272-.15a4.2,4.2,0,0,1,1.566-1.605l.156.269a3.9,3.9,0,0,0-1.45,1.487m40.3-1.6-.22-.219c.506-.509,1.014-1.04,1.509-1.578l.229.211c-.5.542-1.009,1.075-1.517,1.587m-35.981-.174a3.212,3.212,0,0,0-2.047-.067l-.087-.3a3.527,3.527,0,0,1,2.246.076Zm38.131-2.111-.232-.207c.477-.536.956-1.093,1.424-1.656l.239.2c-.47.566-.951,1.126-1.431,1.665m2.027-2.394-.242-.195c.45-.559.9-1.139,1.342-1.723l.249.187c-.443.587-.9,1.17-1.348,1.731m1.909-2.487-.251-.184c.426-.582.851-1.181,1.263-1.781l.256.176c-.415.6-.841,1.2-1.269,1.789m1.8-2.567-.258-.173c.4-.6.8-1.213,1.189-1.831l.263.166c-.391.621-.793,1.239-1.194,1.838m1.69-2.636-.265-.163c.377-.613.753-1.244,1.118-1.874l.269.156c-.367.633-.745,1.266-1.122,1.881m1.589-2.695-.271-.153c.354-.627.708-1.27,1.051-1.912l.274.147c-.344.644-.7,1.289-1.054,1.918m1.492-2.746-.276-.144c.333-.638.665-1.292.987-1.944l.279.138c-.323.654-.656,1.31-.989,1.95m1.4-2.794-.28-.135c.313-.65.625-1.315.927-1.978l.283.129c-.3.664-.616,1.332-.93,1.984m1.316-2.839-.284-.127c.293-.657.585-1.331.868-2l.286.121c-.284.675-.577,1.351-.87,2.01m1.231-2.877-.288-.118c.275-.67.548-1.352.81-2.029l.29.112c-.263.678-.536,1.363-.812,2.034" transform="translate(-1051.255 -288.958)" fill="#324d90"/><path d="M1296.551,640.15l-.01-.311c.359-.011.72-.037,1.074-.075l.033.309c-.362.039-.731.065-1.1.077" transform="translate(-1043.045 -514.679)" fill="#324d90"/><path d="M1251.977,595.958a10.348,10.348,0,0,1-2.084-.721l.132-.282a10.037,10.037,0,0,0,2.021.7Zm-2.922-1.162a10.691,10.691,0,0,1-1.779-1.3l.208-.231a10.365,10.365,0,0,0,1.727,1.264Zm-2.451-1.968a10.173,10.173,0,0,1-1.311-1.774l.268-.157a9.866,9.866,0,0,0,1.271,1.72Zm-1.75-2.612a10.644,10.644,0,0,1-.721-2.083l.3-.071a10.33,10.33,0,0,0,.7,2.022Zm-.9-3.013a10.4,10.4,0,0,1-.078-2.2l.31.022a10.086,10.086,0,0,0,.075,2.138Z" transform="translate(-1000.659 -470.621)" fill="#324d90"/><path d="M0,1237.338c166.507-.655,340.451-.66,506.956,0-166.507.66-340.451.655-506.956,0" transform="translate(0 -995.021)" fill="#152e60"/></g></g></g></g></svg>