<svg xmlns="http://www.w3.org/2000/svg" xmlns:xlink="http://www.w3.org/1999/xlink" width="476" height="318" viewBox="0 0 476 318"><defs><clipPath id="a"><rect width="326.516" height="245.88" fill="#b3b0d1"/></clipPath><clipPath id="c"><rect width="34.269" height="33.411" fill="#b3b0d1"/></clipPath><clipPath id="d"><rect width="18.754" height="18.285" fill="#b3b0d1"/></clipPath><clipPath id="e"><rect width="18.753" height="18.285" fill="#b3b0d1"/></clipPath><clipPath id="g"><rect width="34.269" height="33.413" fill="#b3b0d1"/></clipPath><clipPath id="h"><rect width="110.731" height="107.963" fill="#b3b0d1"/></clipPath><clipPath id="i"><rect width="152.92" height="149.098" fill="#b3b0d1"/></clipPath><clipPath id="j"><rect width="87.065" height="84.888" fill="#b3b0d1"/></clipPath><clipPath id="k"><rect width="81.952" height="79.902" fill="#b3b0d1"/></clipPath><clipPath id="l"><rect width="50.614" height="49.348" fill="#b3b0d1"/></clipPath><clipPath id="m"><rect width="476" height="318" transform="translate(0.031 -0.313)" fill="none"/></clipPath><clipPath id="o"><rect width="50.033" height="32.137" fill="none"/></clipPath><clipPath id="p"><rect width="45.296" height="28.05" fill="none"/></clipPath><clipPath id="q"><rect width="30.474" height="18.541" fill="none"/></clipPath><clipPath id="r"><rect width="23.449" height="22.44" fill="none"/></clipPath><clipPath id="s"><rect width="78.544" height="86.351" fill="none"/></clipPath><clipPath id="t"><rect width="11.445" height="16.757" fill="#f5b3a1"/></clipPath><clipPath id="u"><rect width="48.002" height="43.321" fill="none"/></clipPath><clipPath id="v"><rect width="14.604" height="16.86" fill="#f5b3a1"/></clipPath><clipPath id="w"><rect width="6.198" height="22.717" fill="none"/></clipPath><clipPath id="x"><rect width="13.628" height="11.508" fill="#f5b3a1"/></clipPath><clipPath id="y"><rect width="25.287" height="25.669" fill="none"/></clipPath><clipPath id="z"><rect width="29.177" height="13.29" fill="none"/></clipPath><clipPath id="aa"><rect width="4.505" height="17.258" fill="none"/></clipPath><clipPath id="ab"><rect width="6.109" height="6.37" fill="none"/></clipPath><clipPath id="ac"><rect width="6.639" height="13.631" fill="none"/></clipPath><clipPath id="ad"><rect width="13.283" height="20.368" fill="none"/></clipPath><clipPath id="ae"><rect width="9.608" height="12.552" fill="none"/></clipPath><clipPath id="af"><rect width="19.978" height="30.524" fill="none"/></clipPath><clipPath id="ag"><rect width="18.686" height="25.717" fill="none"/></clipPath><clipPath id="ah"><rect width="33.831" height="16.502" fill="none"/></clipPath><clipPath id="ai"><rect width="4.56" height="3.637" fill="none"/></clipPath><clipPath id="aj"><rect width="6.809" height="4.149" fill="none"/></clipPath></defs><g transform="translate(5437 5364.324)"><g transform="translate(-5358.794 -5325.711)" opacity="0.35"><g clip-path="url(#a)"><g clip-path="url(#a)"><g transform="translate(141.37)" style="mix-blend-mode:multiply;isolation:isolate"><g clip-path="url(#c)"><path d="M117.2,16.706a17.14,17.14,0,0,0-34.269,0,17.14,17.14,0,0,0,34.269,0" transform="translate(-82.936 -0.001)" fill="#b3b0d1"/></g></g><g transform="translate(307.762 139.668)" style="mix-blend-mode:multiply;isolation:isolate"><g clip-path="url(#d)"><path d="M199.3,91.079a9.38,9.38,0,1,0-9.377,9.142,9.261,9.261,0,0,0,9.377-9.142" transform="translate(-180.551 -81.937)" fill="#b3b0d1"/></g></g><g transform="translate(53.782 6.711)" style="mix-blend-mode:multiply;isolation:isolate"><g clip-path="url(#e)"><path d="M50.3,13.079a9.38,9.38,0,0,0-18.754,0,9.38,9.38,0,0,0,18.754,0" transform="translate(-31.552 -3.937)" fill="#b3b0d1"/></g></g><g transform="translate(133.896 216.373)" style="mix-blend-mode:multiply;isolation:isolate"><g clip-path="url(#e)"><path d="M97.3,136.079a9.38,9.38,0,1,0-9.377,9.142,9.262,9.262,0,0,0,9.377-9.142" transform="translate(-78.552 -126.937)" fill="#b3b0d1"/></g></g><g transform="translate(0 134.66)" style="mix-blend-mode:multiply;isolation:isolate"><g clip-path="url(#g)"><path d="M34.269,95.706A16.925,16.925,0,0,0,17.134,79a16.712,16.712,0,1,0,0,33.413A16.925,16.925,0,0,0,34.269,95.706" transform="translate(0 -79)" fill="#b3b0d1"/></g></g><g transform="translate(14.125 33.116)" style="mix-blend-mode:multiply;isolation:isolate"><g clip-path="url(#h)"><path d="M119.018,73.41c0-29.813-24.788-53.982-55.366-53.982S8.287,43.6,8.287,73.41s24.788,53.982,55.365,53.982,55.366-24.169,55.366-53.982" transform="translate(-8.286 -19.428)" fill="#b3b0d1"/></g></g><g transform="translate(148.256 22.35)" style="mix-blend-mode:multiply;isolation:isolate"><g clip-path="url(#i)"><path d="M239.9,87.661c0-41.172-34.233-74.548-76.46-74.548s-76.46,33.376-76.46,74.548,34.233,74.55,76.46,74.55,76.46-33.377,76.46-74.55" transform="translate(-86.975 -13.111)" fill="#b3b0d1"/></g></g><g transform="translate(42.261 160.991)" style="mix-blend-mode:multiply;isolation:isolate"><g clip-path="url(#j)"><path d="M111.858,136.891c0-23.441-19.49-42.444-43.533-42.444s-43.531,19-43.531,42.444,19.49,42.444,43.531,42.444,43.533-19,43.533-42.444" transform="translate(-24.792 -94.446)" fill="#b3b0d1"/></g></g><g transform="translate(165.842 148.995)" style="mix-blend-mode:multiply;isolation:isolate"><g clip-path="url(#k)"><path d="M179.244,127.361c0-22.064-18.345-39.952-40.976-39.952S97.293,105.3,97.293,127.361s18.345,39.952,40.975,39.952,40.976-17.888,40.976-39.952" transform="translate(-97.292 -87.409)" fill="#b3b0d1"/></g></g><g transform="translate(273.083 159.932)" style="mix-blend-mode:multiply;isolation:isolate"><g clip-path="url(#l)"><path d="M210.82,118.5c0-13.626-11.33-24.674-25.306-24.674s-25.308,11.047-25.308,24.674,11.33,24.674,25.308,24.674S210.82,132.127,210.82,118.5" transform="translate(-160.206 -93.826)" fill="#b3b0d1"/></g></g></g></g></g><g transform="translate(-5437.031 -5364.012)"><g clip-path="url(#m)"><g clip-path="url(#m)"><path d="M569.36,369.782c-.7,1.638-1.422,3.282-2.158,4.913-6.392,14.123-13.761,27.224-13.761,27.224H519.329c-.114-.463,5.725-10.448,13.812-22.254.076-.108.146-.216.222-.324,11.94-17.373,28.659-38.517,38.478-39.075,8.245-.47,4,14.314-2.482,29.516" transform="translate(-189.685 -124.279)" fill="#6ca179"/><path d="M578.009,354.978c-.241.311-22.331,29.4-31.484,52.132h-.685c9.134-22.864,31.426-52.2,31.661-52.519a.315.315,0,0,1,.444-.057.322.322,0,0,1,.064.444" transform="translate(-199.369 -129.469)" fill="#00c9b9"/><g transform="translate(329.642 245.503)" opacity="0.45" style="mix-blend-mode:multiply;isolation:isolate"><g clip-path="url(#o)"><path d="M569.36,386.772c-.7,1.638-1.422,3.282-2.158,4.913-6.392,14.123-13.761,27.224-13.761,27.224H519.329c-.114-.463,5.725-10.448,13.812-22.254,8.449,1.2,23.714,1.3,36.219-9.883" transform="translate(-519.327 -386.772)" fill="#09aaa2"/></g></g><path d="M608.642,377.124c-7.052,9.464-10.873,20.49-17.665,37.666l-12.492-.083-.686-.006-15.78-.1s10.53-15.285,20.775-27.224c4.621-5.383,9.191-10.092,12.708-12.4l6.138,1,.717.121Z" transform="translate(-205.279 -136.959)" fill="#6ca179"/><path d="M611.438,376.487a.266.266,0,0,1-.057.089c-.165.184-15.462,17.443-23.816,38.523l-.686-.006c7.884-20.02,22.045-36.657,23.841-38.726.114-.133.178-.2.19-.216a.317.317,0,0,1,.527.336" transform="translate(-214.359 -137.351)" fill="#36ead9"/><path d="M614.772,372.865s11.765,6.54,15.838,4.184.226-7.262-5.317-7.8-10.52,3.614-10.52,3.614" transform="translate(-224.546 -134.852)" fill="#6ca179"/><path d="M520.712,374.033a146.031,146.031,0,0,1-11.076,22.578H484.69s22.159-61.932,35.508-69.886c10.632-6.341,11.743,18.363.514,47.308" transform="translate(-177.034 -118.971)" fill="#6ca179"/><path d="M529.622,344.342c-4.393,21.347-18.338,50.088-22.788,58.93h-.7c4.272-8.461,18.446-37.545,22.87-59.057a.317.317,0,1,1,.622.127" transform="translate(-184.865 -125.632)" fill="#36ead9"/><path d="M368.651,399.715H341.636s-.578-2.444-1.428-6.392c-3.834-17.729-13.311-65.735-1.669-58.333,14.237,9.052,30.112,64.725,30.112,64.725" transform="translate(-121.602 -122.074)" fill="#6ca179"/><path d="M359.371,407.11h-.654A474.869,474.869,0,0,0,343.338,354.9a.318.318,0,0,1,.19-.406.315.315,0,0,1,.407.184,477.859,477.859,0,0,1,15.437,52.437" transform="translate(-125.398 -129.47)" fill="#36ead9"/><path d="M318.243,401.668H286.125s-1.822-3.643-4.462-9.159c-1.581-3.3-3.453-7.268-5.4-11.533-.126-.267-.247-.533-.368-.8-.971-2.133-1.961-4.335-2.946-6.557-.222-.514-.45-1.035-.679-1.555-6.493-14.917-12.206-30.214-9.14-31.864,9.477-5.091,29.5,21.677,42.618,41.506,3.478,5.249,6.468,10.016,8.657,13.571,2.413,3.935,3.841,6.392,3.841,6.392" transform="translate(-95.797 -124.027)" fill="#6ca179"/><path d="M307.143,406.633h-.673c-4.513-11.375-11.172-23.194-17.138-32.772q-1.285-2.057-2.514-3.961c-6.144-9.547-11.032-16.059-11.159-16.231a.317.317,0,0,1,.508-.381c.133.178,5.459,7.274,11.99,17.532.006.006.006.013.013.019.14.216.279.438.425.667a.134.134,0,0,0,.025.038c6.322,9.978,13.672,22.787,18.522,35.089" transform="translate(-100.662 -128.992)" fill="#00c9b9"/><g transform="translate(177.15 249.591)" opacity="0.45" style="mix-blend-mode:multiply;isolation:isolate"><g clip-path="url(#p)"><path d="M324.383,421.262H292.265s-1.822-3.643-4.462-9.159c-1.581-3.3-3.453-7.268-5.4-11.533-.126-.267-.247-.533-.368-.8-.971-2.133-1.961-4.335-2.946-6.557,8.366,5.833,21.785,12.9,32.8,8.087,3.478,5.249,6.468,10.016,8.657,13.571,2.413,3.935,3.841,6.392,3.841,6.392" transform="translate(-279.087 -393.212)" fill="#09aaa2"/></g></g><path d="M245.856,405.8l-7.611.051-6.049.038-.66.006-14.5.1s-.724-3.294-1.65-8.277c-2.9-15.615-7.763-47.8,1.65-46.813,7.547.787,16.573,20.9,22.483,36.549.958,2.533,1.834,4.951,2.609,7.154,2.317,6.57,3.732,11.2,3.732,11.2" transform="translate(-77.256 -128.158)" fill="#6ca179"/><path d="M236.335,413.214l-.661.006-12.816-41.874a.312.312,0,0,1,.209-.394.307.307,0,0,1,.394.209Z" transform="translate(-81.394 -135.485)" fill="#36ead9"/><g transform="translate(138.126 259.29)" opacity="0.45" style="mix-blend-mode:multiply;isolation:isolate"><g clip-path="url(#q)"><path d="M248.081,426.843l-7.611.051-6.049.038-.66.006-14.5.1s-.724-3.294-1.65-8.277a45.585,45.585,0,0,0,24.133-10.264c.958,2.533,1.834,4.951,2.609,7.154,2.317,6.57,3.732,11.2,3.732,11.2" transform="translate(-217.607 -408.492)" fill="#09aaa2"/></g></g><path d="M277.379,407.045c-1.27,5.357-2.457,9.35-2.457,9.35l-11.178-.07-.686-.006-10.555-.063-1.955-.013s2.386-4.951,5.833-11.235a150.339,150.339,0,0,1,11.6-18.408c3.441-4.437,6.741-7.477,9.21-7.217a3.713,3.713,0,0,1,.476.089,2.7,2.7,0,0,1,1.339.92c.006.006.006.013.013.019a3.821,3.821,0,0,1,.425.667.149.149,0,0,0,.025.038,8.22,8.22,0,0,1,.711,2.317c.978,5.643-1,16.008-2.8,23.613" transform="translate(-91.513 -138.564)" fill="#6ca179"/><path d="M283.226,388.422l-4.05,10.238-8.233,20.813-.686-.006,8.55-21.607,3.828-9.674a.321.321,0,0,1,.413-.178.317.317,0,0,1,.178.413" transform="translate(-98.712 -141.713)" fill="#36ead9"/><path d="M436.409,176.889a5.1,5.1,0,1,0-5.1,5.1,5.1,5.1,0,0,0,5.1-5.1" transform="translate(-155.672 -62.745)" fill="#b5c1ea"/><path d="M440.352,169.063a20.333,20.333,0,0,0-.013-7.775l4.075-3.427a18.969,18.969,0,0,0-5.737-9.937l-4.99,1.9a20.333,20.333,0,0,0-6.736-3.878l-.93-5.242a18.97,18.97,0,0,0-11.474,0l-.85,5.267a20.333,20.333,0,0,0-6.72,3.9l-5.012-1.818a18.966,18.966,0,0,0-5.737,9.937l4.137,3.369a20.333,20.333,0,0,0,.013,7.775l-4.075,3.427a18.967,18.967,0,0,0,5.737,9.937l4.992-1.9a20.336,20.336,0,0,0,6.734,3.878l.931,5.244a18.97,18.97,0,0,0,11.474,0l.849-5.265a20.338,20.338,0,0,0,6.723-3.9l5.01,1.817a18.967,18.967,0,0,0,5.737-9.937Zm-33.927-3.852a13.933,13.933,0,1,1,13.933,13.933,13.935,13.935,0,0,1-13.933-13.933" transform="translate(-144.722 -51.067)" fill="#b5c1ea"/><g transform="translate(243.548 69.473)" opacity="0.67"><g clip-path="url(#r)"><path d="M404.221,117.376a9.4,9.4,0,0,0-1.876-3.061l.781-2.331a8.76,8.76,0,0,0-4.652-2.535l-1.509,1.949a9.384,9.384,0,0,0-3.587.093l-1.628-1.842a8.759,8.759,0,0,0-4.521,2.761l.932,2.28a9.4,9.4,0,0,0-1.709,3.154l-2.413.49a8.758,8.758,0,0,0,.131,5.3l2.441.332a9.39,9.39,0,0,0,1.876,3.06l-.781,2.331a8.764,8.764,0,0,0,4.652,2.535l1.509-1.95a9.4,9.4,0,0,0,3.587-.093l1.628,1.842a8.756,8.756,0,0,0,4.521-2.762l-.932-2.279a9.381,9.381,0,0,0,1.709-3.155l2.412-.489a8.758,8.758,0,0,0-.131-5.3ZM398,124.905a4.963,4.963,0,1,1,1.648-6.822A4.964,4.964,0,0,1,398,124.905" transform="translate(-383.692 -109.45)" fill="#b5c1ea"/></g></g><path d="M246.795,85.908v56.619L263.739,155.7H246.795V180.34a6.9,6.9,0,0,1-6.9,6.893H175.144a6.892,6.892,0,0,1-6.893-6.893V85.908a6.892,6.892,0,0,1,6.893-6.893H239.9a6.9,6.9,0,0,1,6.9,6.893" transform="translate(-61.454 -28.86)" fill="#cfd6f9"/><g transform="translate(106.797 72.022)" opacity="0.29" style="mix-blend-mode:multiply;isolation:isolate"><g clip-path="url(#s)"><path d="M246.795,171.779v21.143a6.9,6.9,0,0,1-6.9,6.893H175.144a6.892,6.892,0,0,1-6.893-6.893V128.178l25.625-14.713,9.172,30.557L244.8,170.6l2,1.181" transform="translate(-168.251 -113.465)" fill="#3f51ba"/></g></g><path d="M292.255,151.814a16.978,16.978,0,0,1-4.735,4.431s-1.5,13.876-2.209,20.109-4.6,11.908-7.814,12.39c-1.625.248-4.424-1.085-7.2-3.047a35.341,35.341,0,0,1-5.465-4.735c-.476-.514-.908-1.028-1.295-1.53-3.244-4.221,6.843-9.959,7.744-10.461a.438.438,0,0,0,.063-.032l4.183,3.548,6.633-19.176a12.068,12.068,0,0,1,.394-6.468c1.181-3.713,2.761-5.922,3.231-5.446s-.7,4.418-.47,5.757a7.165,7.165,0,0,0,4.811-3.942c1.5-3.313,1.657-6.316,3.4-4.418s1.339,9.705-1.263,13.019" transform="translate(-96.022 -50.48)" fill="#f9a993"/><g transform="translate(168.806 118.46)" opacity="0.42" style="mix-blend-mode:multiply;isolation:isolate"><g clip-path="url(#t)"><path d="M277.386,201.25l-2.476-6.106a25.292,25.292,0,0,1-3.5,8.239,35.344,35.344,0,0,1-5.465-4.735l6.449-11.99a.439.439,0,0,0,.063-.032l4.183,3.548Z" transform="translate(-265.941 -186.625)" fill="#f5b3a1"/></g></g><path d="M244.231,175.645c-.375,10.163-9.94,14.431-9.94,14.431l-5.513-4.525v29.738H190.372L187.9,193.114a10.819,10.819,0,0,1-6.117-.084,88.906,88.906,0,0,1-.966-15.606c.215-6.555,1.369-12.755,4.358-15.286,3.664-3.093,8.808-4.852,11.894-5.693h.007c1.606-.438,2.655-.625,2.655-.625l2.419.187,7.181.556a34.657,34.657,0,0,1,6.493.028,28.1,28.1,0,0,1,10.107,2.711c7.619,3.893,18.3,16.343,18.3,16.343" transform="translate(-66.029 -56.913)" fill="#fff"/><g transform="translate(114.748 115.055)" opacity="0.29" style="mix-blend-mode:multiply;isolation:isolate"><g clip-path="url(#u)"><path d="M228.779,214.46v10.121H190.372L187.9,202.406a10.826,10.826,0,0,1-6.118-.083,89.031,89.031,0,0,1-.966-15.606l.007-.007c.55-.16,11.949-5.45,11.949-5.45.438.438,11.442,30.822,36.009,33.2" transform="translate(-180.777 -181.26)" fill="#d84023"/></g></g><path d="M221.878,167.7c-9.085,2.072-15.439-11.143-15.439-11.143h.007c.167-.021,2.3-.243,5.074-.438l7.181.556a34.59,34.59,0,0,1,6.493.028c1.619,1.967,5.769,8.932-3.316,11" transform="translate(-75.402 -57.022)" fill="#ff9a55"/><path d="M224.073,157.037c-5.567,1.672-12.744-8.5-12.744-8.5a56.319,56.319,0,0,0,.859-13.2c0-.027-.006-.053-.006-.074-.007-.04-.007-.067-.014-.094-.006-.087-.006-.128-.006-.128s14.182,9.729,13.537,10.723-.195,3.256-.195,3.256a10.951,10.951,0,0,1,1.263,2.881c.49,1.907.349,4.217-2.693,5.136" transform="translate(-77.188 -49.324)" fill="#f9a993"/><g transform="translate(134.974 85.716)" opacity="0.42" style="mix-blend-mode:multiply;isolation:isolate"><g clip-path="url(#v)"><path d="M227.245,151.9c-12.341-.128-14.343-14.336-14.578-16.565,0-.027-.006-.054-.006-.074-.007-.041-.007-.067-.014-.094-.006-.088-.006-.128-.006-.128s14.182,9.729,13.537,10.723-.195,3.257-.195,3.257a10.941,10.941,0,0,1,1.263,2.88" transform="translate(-212.641 -135.04)" fill="#f5b3a1"/></g></g><path d="M208.91,117.513s-1.92-6.8-.564-9.474,3.47-2.444,3.47-2.444.014-4.061,3.2-5.976,10.5-1,14.446,1.868,6.3,1.755,6.3,1.755.239,3.47-1.994,4.148c0,0,2.154-.239,2.952,1.276a5.009,5.009,0,0,0-3.032,2.992,6.67,6.67,0,0,1-3.749,6.94c-4.587,2.314-15.038,3.59-15.038,3.59l-3.789-1.316Z" transform="translate(-75.922 -36.017)" fill="#020331"/><path d="M232.024,120.03s.24,15.776-4.429,18.659c-6.079,3.754-15.435-3.581-15.914-9.405,0,0-2.713-.678-2.354-4.108s4.867-3.112,5.066,1.157l1.348-3.749s4.041.753,5.513-4.548c0,0,7.02,2.513,10.291,0Z" transform="translate(-76.445 -43.113)" fill="#f9a993"/><g transform="translate(160.804 109.357)" opacity="0.29" style="mix-blend-mode:multiply;isolation:isolate"><g clip-path="url(#w)"><path d="M255.281,191.564s.4-10.774-1.945-19.28c0,0,6.948,10.164,6.131,22.717Z" transform="translate(-253.335 -172.284)" fill="#d84023"/></g></g><path d="M257.219,174.835l-3.51,15.175a2.057,2.057,0,0,1-1.863,1.592l-6.966.486a2.063,2.063,0,0,1-2.155-2.5l3.365-15.4a2.051,2.051,0,0,1,1.939-1.62l7.1-.257a2.057,2.057,0,0,1,1.988,1.279,2.035,2.035,0,0,1,.1,1.244" transform="translate(-88.637 -62.937)" fill="#212572"/><path d="M257.863,175.479l-3.51,15.175a2.057,2.057,0,0,1-1.863,1.592l-6.966.486a2.065,2.065,0,0,1-.931-.153,2.015,2.015,0,0,1-.1-1.223l3.364-15.4a2.067,2.067,0,0,1,1.939-1.62l7.1-.257a2,2,0,0,1,.869.16,2.035,2.035,0,0,1,.1,1.244" transform="translate(-89.281 -63.58)" fill="#393bc6"/><path d="M261.536,178.723a.945.945,0,1,1-.732-1.117.944.944,0,0,1,.732,1.117" transform="translate(-94.844 -64.863)" fill="#5e6ddd"/><path d="M235.318,189.132c-.908,3.053-4.786,6.189-8.011,6.773s-6.608-1.612-6.608-1.612-10.816,15.735-17.341,20.769-8.544,5.56-12.409,1.168a18.948,18.948,0,0,1-3.1-5.681,55.6,55.6,0,0,1-2.5-9.363l13.628-2.145v4.38s14.917-11.813,18.4-14.041,4.83-4.05,6.4-4.215l-.679,2.882s7.185.254,10.238-.819,2.888-1.155,1.98,1.9" transform="translate(-67.7 -67.632)" fill="#f9a993"/><g transform="translate(117.651 131.409)" opacity="0.42" style="mix-blend-mode:multiply;isolation:isolate"><g clip-path="url(#x)"><path d="M198.979,207.025v4.38s-3.447,4.608-11.127,7.128a55.6,55.6,0,0,1-2.5-9.363Z" transform="translate(-185.351 -207.025)" fill="#f5b3a1"/></g></g><path d="M181.044,196.025s6.277,2.974,16.271-2.642c0,0-.866-18.074-4.295-24.777s-8.934-5.668-11.363.593-1.934,14.769-.613,26.826" transform="translate(-65.724 -59.909)" fill="#fff"/><path d="M455.722,424.154s-6.811,4.556-10.631,6.167-4,2.3-4,2.3h23.978a19.8,19.8,0,0,0-1.059-6.627c-1.2-3.4-8.284-1.841-8.284-1.841" transform="translate(-161.108 -154.792)" fill="#d16115"/><path d="M459.141,414.862l3.4,6.137s2.443,3.527,8.057,1.733l-2.531-7.87Z" transform="translate(-167.702 -151.529)" fill="#ef8986"/><path d="M456.9,393.192a10.114,10.114,0,0,1-7.918,3.961L436.577,374.97l-9.591-17.153v-3.006l13.656-1.2.981-.088c.77,1.358,1.447,2.592,2.092,3.878a114.988,114.988,0,0,1,5.18,12.324c1.018,2.727,2.221,6.161,3.378,9.555,2.407,7.04,4.628,13.914,4.628,13.914" transform="translate(-155.957 -129.124)" fill="#45627b"/><g transform="translate(271.029 224.485)" opacity="0.75"><g clip-path="url(#y)"><path d="M452.273,379.328c-4.953-1.363-10.707-2.949-15.7-4.307l-9.591-17.153v-3.006l13.656-1.2,3.073,3.791a114.861,114.861,0,0,1,5.18,12.324c1.017,2.727,2.221,6.161,3.378,9.555" transform="translate(-426.986 -353.659)" fill="#212572"/></g></g><path d="M374.915,424.154s-6.811,4.556-10.631,6.167-4,2.3-4,2.3h23.978a19.8,19.8,0,0,0-1.059-6.627c-1.2-3.4-8.284-1.841-8.284-1.841" transform="translate(-131.593 -154.792)" fill="#ea711f"/><path d="M386.045,414.427l-2.35,6.413s2.443,3.527,8.057,1.733l3.221-8.146Z" transform="translate(-140.145 -151.37)" fill="#f9a993"/><path d="M456.135,321.926l-.189,2.493A14.7,14.7,0,0,1,442.5,337.966l-28.731,2.408s.122,1.676-4.176,11.632-14.851,30.189-14.851,30.189c-.567.091-1.11.171-1.622.225-.195.018-.378.043-.567.055-7,.652-8.735-1.994-8.735-1.994s14.734-48,18.167-50.812c2.451-2.018,16.941-8.65,25.062-12.29.128-.061.256-.116.378-.171,3.073-1.377,5.14-2.286,5.14-2.286l2.463.731Z" transform="translate(-140.189 -115.026)" fill="#45627b"/><path d="M454.553,324.879c-.077.1-8.135,9.854-21.342,11.507-9.048,1.131-14.689,1.963-17.245,2.361a2.907,2.907,0,0,0-2.309,1.937l-15.51,45.254c-.2.021-.382.041-.568.057l15.593-45.477a3.418,3.418,0,0,1,2.717-2.283c2.557-.4,8.2-1.23,17.261-2.36,12.995-1.628,20.923-11.224,21-11.322Z" transform="translate(-145.216 -118.543)" fill="#98a1f4"/><g transform="translate(286.769 200.628)" opacity="0.29" style="mix-blend-mode:multiply;isolation:isolate"><g clip-path="url(#z)"><path d="M480.961,322.347l-.189,2.493a14.7,14.7,0,0,1-1.079,4.523c-15.057-.225-26.72-10.552-27.823-11.564-.055-.055-.086-.079-.086-.079l.463-.091,7.6-1.555Z" transform="translate(-451.784 -316.075)" fill="#3f51ba"/></g></g><path d="M506.312,320.845,504.186,336.9a5.252,5.252,0,0,1-5.207,4.563v4.418a8.621,8.621,0,0,0,8.57-7.687l1.892-17.35Z" transform="translate(-182.253 -117.189)" fill="#6a73a0"/><path d="M474.416,352.427v4.514a1.521,1.521,0,0,1-1.518,1.518H425.768a1.52,1.52,0,0,1-1.518-1.518V355.65a4.047,4.047,0,0,1,.057-.707,4.731,4.731,0,0,1,4.684-4.034H472.9a1.521,1.521,0,0,1,1.518,1.518" transform="translate(-154.958 -128.17)" fill="#020331"/><path d="M474.449,352.427v2.118a1.518,1.518,0,0,1-1.518,1.518H425.8a1.507,1.507,0,0,1-1.462-1.12,4.731,4.731,0,0,1,4.684-4.034H472.93a1.521,1.521,0,0,1,1.518,1.518" transform="translate(-154.99 -128.17)" fill="#1b1f5b"/><path d="M513.5,294.85a2.368,2.368,0,0,1-2.586,1.972l-5.512-.58a2.372,2.372,0,0,1-2.083-2.759c.025-.132.044-.265.068-.4,2.754-16.152,4.67-31.614,4.912-45.7a2.366,2.366,0,0,1,3.034-2.231l1.023.3a5.693,5.693,0,0,1,4.075,5.5c-.126,13.292-.465,28.26-2.931,43.9" transform="translate(-183.825 -89.505)" fill="#020331"/><path d="M512.115,291.826a2.364,2.364,0,0,1-2.582,1.977l-5.517-.58a2.19,2.19,0,0,1-.572-.138c2.753-16.152,4.67-31.614,4.912-45.7a2.365,2.365,0,0,1,3.033-2.231l1.023.3a5.661,5.661,0,0,1,2.573,1.605,5.251,5.251,0,0,1,.059.873c-.12,13.288-.465,28.26-2.929,43.9" transform="translate(-183.884 -89.505)" fill="#1b1f5b"/><path d="M466.93,367.736v40.077a1.158,1.158,0,0,1-1.158,1.158h-2.189a1.158,1.158,0,0,1-1.158-1.158V367.736Z" transform="translate(-168.901 -134.316)" fill="#6a73a0"/><g transform="translate(293.524 233.42)" opacity="0.29" style="mix-blend-mode:multiply;isolation:isolate"><g clip-path="url(#aa)"><path d="M466.931,367.736v17.258l-4.505-1.286V367.736Z" transform="translate(-462.426 -367.736)" fill="#6a73a0"/></g></g><path d="M423,427.856l25.024-4.2v-5.851L423,425.661Z" transform="translate(-154.501 -152.605)" fill="#4b5275"/><path d="M424.827,430.546a3.194,3.194,0,1,1-3.195-3.195,3.195,3.195,0,0,1,3.195,3.195" transform="translate(-152.835 -156.091)" fill="#1b1f5b"/><path d="M424.083,431.554a1.442,1.442,0,1,1-1.442-1.442,1.442,1.442,0,0,1,1.442,1.442" transform="translate(-153.844 -157.099)" fill="#5b6189"/><path d="M494.548,427.856l-25.024-4.2v-5.851l25.024,7.852Z" transform="translate(-171.494 -152.605)" fill="#4b5275"/><path d="M503.442,430.546a3.194,3.194,0,1,0,3.195-3.195,3.195,3.195,0,0,0-3.195,3.195" transform="translate(-183.883 -156.091)" fill="#1b1f5b"/><path d="M506.2,431.554a1.442,1.442,0,1,0,1.442-1.442,1.442,1.442,0,0,0-1.442,1.442" transform="translate(-184.891 -157.099)" fill="#5b6189"/><path d="M468.282,366.914H456.72a1.583,1.583,0,0,1-1.583-1.582V362.8h14.727v2.527a1.582,1.582,0,0,1-1.582,1.582" transform="translate(-166.239 -132.515)" fill="#1b1f5b"/><rect width="101.359" height="3.314" transform="translate(164.101 191.198)" fill="#933306"/><rect width="93.566" height="3.682" transform="translate(167.046 194.512)" fill="#841807"/><path d="M269.636,312.243l-.671,6.37-7.675,73.265h-2.762l5-73.741.4-5.895Z" transform="translate(-94.428 -114.047)" fill="#dee9fc"/><path d="M407.293,391.878h-2.762l-6.962-66.455-1.384-13.181H401.9l.927,13.632Z" transform="translate(-144.707 -114.047)" fill="#dee9fc"/><g transform="translate(169.1 198.196)" opacity="0.29" style="mix-blend-mode:multiply;isolation:isolate"><g clip-path="url(#ab)"><path d="M266.807,312.243h5.706l-.671,6.37-5.438-.475Z" transform="translate(-266.404 -312.243)" fill="#6a73a0"/></g></g><g transform="translate(251.479 198.196)" opacity="0.29" style="mix-blend-mode:multiply;isolation:isolate"><g clip-path="url(#ac)"><path d="M402.825,325.874l-5.255-.451-1.384-13.18H401.9Z" transform="translate(-396.186 -312.243)" fill="#6a73a0"/></g></g><path d="M323.277,281.232H301.642l2.182-14.362,1.9-12.5a4.606,4.606,0,0,1,2.3-3.329l8.1-4.542.982,4.481-6.261,3.408a1.1,1.1,0,0,0-.567.817l-1.317,9.474L307.1,278.044l15.344,1.658Z" transform="translate(-110.175 -90.035)" fill="#6a73a0"/><g transform="translate(193.65 156.467)" opacity="0.29" style="mix-blend-mode:multiply;isolation:isolate"><g clip-path="url(#ad)"><path d="M318.364,250.983l-6.261,3.408a1.1,1.1,0,0,0-.567.817l-1.316,9.474-5.139,2.189,1.9-12.5a4.606,4.606,0,0,1,2.3-3.329l8.1-4.542Z" transform="translate(-305.081 -246.502)" fill="#6a73a0"/></g></g><path d="M323.289,239.105l-1.534,1.735,3.007,11.612,3.178.26Z" transform="translate(-117.521 -87.334)" fill="#212572"/><path d="M337.262,258.363h-3.176a98.519,98.519,0,0,1-12.333-47.685h2c.183,17.368,5.468,33.261,13.509,47.685" transform="translate(-117.521 -76.95)" fill="#636aea"/><path d="M340.638,258.363h-2.225c-8.041-14.424-13.327-30.317-13.509-47.685h.823a105.389,105.389,0,0,0,14.911,47.685" transform="translate(-118.672 -76.95)" fill="#86f7f5"/><path d="M367.91,297.836h25.681l.706,2.148H366.806Z" transform="translate(-133.976 -108.785)" fill="#636aea"/><path d="M483.041,218.2c-5.789,6.03-7.046,8.118-4.481,10.861s.184,9.077-8,8.658-17.665-27.58-17.665-27.58l-12.492-4.723-1.352-.508a12.928,12.928,0,0,1-2.076-4.754,15.673,15.673,0,0,1-.381-4.4c.3-5.675,3.942-5.973,3.942-5.973s.952-4.3,6.563-4.894,7.941,3.1,11.165,3.047,8.118,2.647,8.239,6.455.121,8.886,7.579,10.08,14.745,7.7,8.956,13.73" transform="translate(-159.459 -67.506)" fill="#933306"/><path d="M440.638,212.258l-1.352-.508A12.928,12.928,0,0,1,437.21,207c.6-1.815,1.32-3.434,1.32-3.434Z" transform="translate(-159.691 -74.351)" fill="#6b1f10"/><path d="M448.179,206.881a14.166,14.166,0,0,0,11.867,2.492s4.731,4.973,9.874,4.538,11.684,1.5,9.706,12.595,1.647,9.782,1.322,13.7c-.346,4.165-7.333,3.1-7.333,3.1l-19.086-24.042,1.231-7.882s-5.71-.371-7.581-4.5" transform="translate(-163.698 -75.564)" fill="#6b1f10"/><path d="M466.074,226.109l-7.944,8.315-1.26,1.322s1.059-6.321-3.853-7.856c-4.467-1.4,6.167-7.845,8.1-8.982l.294-.176Z" transform="translate(-165.068 -79.893)" fill="#f9a993"/><path d="M458.131,234.525l-1.26,1.322s1.059-6.321-3.853-7.856c-4.468-1.4,6.167-7.845,8.1-8.982.114.677,1.534,9.4-2.985,15.515" transform="translate(-165.069 -79.994)" fill="#ea7b73"/><path d="M439.291,203.566s0,9.628,2.776,14.371c2.91,4.97,4.208,6.313,6.984,5.642s8.462-4.656,7.88-10.253a2.817,2.817,0,0,0,1.209-3.268c-.538-2.373-3.179-3.134-3.9,0,0,0-7.208-.179-9.312-4.387a8.754,8.754,0,0,0,6.985,5.552s-8.775-.716-12.626-7.656" transform="translate(-160.452 -74.353)" fill="#f9a993"/><path d="M468.892,212.281a3.522,3.522,0,1,1-3.522-3.522,3.522,3.522,0,0,1,3.522,3.522" transform="translate(-168.691 -76.249)" fill="#5e6ddd"/><path d="M468.661,212.594a2.979,2.979,0,1,1-2.979-2.979,2.979,2.979,0,0,1,2.979,2.979" transform="translate(-169.003 -76.562)" fill="#393bc6"/><path d="M448.406,229.651l-.109-.847c10.331-1.32,11.686-14.427,11.7-14.559l.851.079c-.013.139-1.429,13.919-12.44,15.326" transform="translate(-163.741 -78.254)" fill="#dee9fc"/><path d="M449.226,237.137a1.15,1.15,0,1,1-1.15-1.15,1.15,1.15,0,0,1,1.15,1.15" transform="translate(-163.24 -86.195)" fill="#86f7f5"/><path d="M468.022,213.461a1.473,1.473,0,1,1-1.473-1.473,1.473,1.473,0,0,1,1.473,1.473" transform="translate(-169.87 -77.429)" fill="#86f7f5"/><path d="M419.491,239.569l-1.523-1.311s-1.741-3.725-4.008-4.981-4.342-1.179-4.17-.607c.364,1.214,2.308.956,3,2.9a13.779,13.779,0,0,1-6.721-.591c-3.24-1.256-4.413-1.734-4.009.591s3.442,6.089,5.831,6.251,5.456.251,5.456.251l1.973,2.344Z" transform="translate(-146.823 -84.838)" fill="#ef8986"/><path d="M443.668,259.979,425.515,241.82a12.042,12.042,0,0,0-5.411,5.64s13.255,18.164,15.648,19.7,7.519-.368,11.584-4.05-3.668-3.129-3.668-3.129" transform="translate(-153.444 -88.325)" fill="#fbcc34"/><path d="M480.087,291.214a50.847,50.847,0,0,1-29.542-5s.4-1.463.908-3.585c1.116-4.56,2.8-12.155,2.341-14.673a9,9,0,0,0-1.646-3.762c-.317-.445-.658-.859-1-1.262a24.13,24.13,0,0,1-2.1-2.646,4.429,4.429,0,0,1-.622-1.945,10.381,10.381,0,0,1,.622-4.255l8.659-15.339,9.587-8.93s7.456,4.426,8.932,12.7-.921,22.367.091,26.878,3.767,21.813,3.767,21.813" transform="translate(-163.775 -83.942)" fill="#fbcc34"/><g transform="translate(284.654 166.44)" opacity="0.75"><g clip-path="url(#ae)"><path d="M458.06,262.214l-6.889,12.552a24.269,24.269,0,0,1-2.1-2.646,4.437,4.437,0,0,1-.621-1.945,85.632,85.632,0,0,1,9.608-7.962" transform="translate(-448.452 -262.214)" fill="#212572"/></g></g><g transform="translate(287.68 168.167)" opacity="0.75"><g clip-path="url(#af)"><path d="M473.2,264.935s-3.207,20.334-11.342,26.713a18.99,18.99,0,0,1-8.636,3.812c1.116-4.561,2.8-12.158,2.34-14.673a9.067,9.067,0,0,0-1.647-3.765Z" transform="translate(-453.219 -264.935)" fill="#212572"/></g></g><path d="M404.018,287.966l-4.464.414s-7.916-2.486-9.159-2.531-8.146,5.937-8.146,6.443,2.118.23,2.118.23l6.9-2.761s2.393,3.084,4.556,3.452a12.562,12.562,0,0,0,4.05,0l5.2,1.15Z" transform="translate(-139.617 -104.407)" fill="#f9a993"/><path d="M415.045,272.044s-.649,5.591,1.376,8.66c0,0,15.833,0,22.767-.307s7.43-1.289,8.719-2.761,9.015-10.555,10.979-18.471.46-14.093-4.234-14.114c-5.645-.025-15.586,23.2-15.586,23.2s-6.382,1.043-13.93,2.209-10.09,1.588-10.09,1.588" transform="translate(-151.56 -89.505)" fill="#fbcc34"/><g transform="translate(284.836 145.881)" opacity="0.75"><g clip-path="url(#ag)"><path d="M448.738,255.542l13.309-10.833-2.39-4.491,4.869.4,2.9-10.8-9.794,8.167Z" transform="translate(-448.738 -229.825)" fill="#212572"/></g></g><path d="M464.29,228.163s-12.238,10.435-15.552,26.359c0,0,8.561-9.149,12.242-11.818l-2.3-4.6,5.611.184,3.134-9.481a3.874,3.874,0,0,0-3.659-1.772Z" transform="translate(-163.902 -82.924)" fill="#fbcc34"/><path d="M325.294,98.719H278.2a2.744,2.744,0,0,1-2.744-2.744v-32.1a2.744,2.744,0,0,1,2.744-2.744h47.1a2.744,2.744,0,0,1,2.744,2.744v32.1a2.744,2.744,0,0,1-2.744,2.744" transform="translate(-100.61 -22.327)" fill="#636aea"/><path d="M284.512,118.036l-4.676,9.065,13.989-8.522Z" transform="translate(-102.21 -43.113)" fill="#636aea"/><rect width="19.985" height="1.961" transform="translate(181.623 45.602)" fill="#fff"/><rect width="38.538" height="1.961" transform="translate(181.623 51.786)" fill="#fff"/><rect width="38.538" height="1.961" transform="translate(181.623 57.97)" fill="#fff"/><rect width="24.435" height="1.961" transform="translate(181.623 64.154)" fill="#fff"/><path d="M599.836,226.516H534.6a7.919,7.919,0,0,1,0-15.838h65.236a7.919,7.919,0,0,1,0,15.838" transform="translate(-192.371 -76.95)" fill="#636aea"/><path d="M550.537,216.875l.958,1.942a.44.44,0,0,0,.332.241l2.142.311a.441.441,0,0,1,.244.752l-1.55,1.511a.44.44,0,0,0-.127.39l.366,2.134a.442.442,0,0,1-.641.465l-1.916-1.008a.442.442,0,0,0-.41,0l-1.917,1.008a.441.441,0,0,1-.64-.465l.366-2.134a.44.44,0,0,0-.127-.39l-1.55-1.511a.441.441,0,0,1,.244-.752l2.142-.311a.441.441,0,0,0,.332-.241l.958-1.942a.441.441,0,0,1,.791,0" transform="translate(-199.403 -79.124)" fill="#f2a825"/><path d="M569.46,216.875l.958,1.942a.44.44,0,0,0,.332.241l2.142.311a.441.441,0,0,1,.244.752l-1.55,1.511a.44.44,0,0,0-.127.39l.366,2.134a.441.441,0,0,1-.64.465l-1.916-1.008a.442.442,0,0,0-.41,0l-1.917,1.008a.441.441,0,0,1-.64-.465l.366-2.134a.44.44,0,0,0-.127-.39l-1.55-1.511a.441.441,0,0,1,.244-.752l2.142-.311a.44.44,0,0,0,.332-.241l.958-1.942a.441.441,0,0,1,.791,0" transform="translate(-206.315 -79.124)" fill="#f2a825"/><path d="M588.428,216.875l.958,1.942a.44.44,0,0,0,.332.241l2.142.311a.441.441,0,0,1,.244.752l-1.55,1.511a.441.441,0,0,0-.127.39l.366,2.134a.442.442,0,0,1-.641.465l-1.916-1.008a.442.442,0,0,0-.41,0l-1.917,1.008a.441.441,0,0,1-.64-.465l.366-2.134a.44.44,0,0,0-.127-.39l-1.55-1.511a.441.441,0,0,1,.244-.752l2.142-.311a.44.44,0,0,0,.332-.241l.958-1.942a.441.441,0,0,1,.791,0" transform="translate(-213.243 -79.124)" fill="#f2a825"/><path d="M607.35,216.875l.958,1.942a.44.44,0,0,0,.332.241l2.142.311a.441.441,0,0,1,.244.752l-1.55,1.511a.441.441,0,0,0-.127.39l.366,2.134a.442.442,0,0,1-.641.465l-1.916-1.008a.442.442,0,0,0-.41,0l-1.917,1.008a.441.441,0,0,1-.64-.465l.366-2.134a.44.44,0,0,0-.127-.39l-1.55-1.511a.441.441,0,0,1,.244-.752l2.142-.311a.441.441,0,0,0,.332-.241l.958-1.942a.441.441,0,0,1,.791,0" transform="translate(-220.155 -79.124)" fill="#f2a825"/><path d="M626.5,216.875l.958,1.942a.44.44,0,0,0,.332.241l2.142.311a.441.441,0,0,1,.244.752l-1.55,1.511a.441.441,0,0,0-.127.39l.366,2.134a.441.441,0,0,1-.64.465l-1.916-1.008a.442.442,0,0,0-.41,0l-1.917,1.008a.441.441,0,0,1-.64-.465l.366-2.134a.44.44,0,0,0-.127-.39l-1.55-1.511a.441.441,0,0,1,.244-.752l2.142-.311a.44.44,0,0,0,.332-.241l.958-1.942a.441.441,0,0,1,.791,0" transform="translate(-227.149 -79.124)" fill="#fff"/><path d="M516.216,118.117v19.617a1.534,1.534,0,0,1-1.533,1.533H483.918a1.531,1.531,0,0,1-1.533-1.533V118.117a1.531,1.531,0,0,1,1.533-1.533h30.766a1.534,1.534,0,0,1,1.533,1.533" transform="translate(-176.192 -42.582)" fill="#f2a825"/><g transform="translate(306.194 74.002)" opacity="0.29" style="mix-blend-mode:multiply;isolation:isolate"><g clip-path="url(#ah)"><path d="M516.216,118.117v2.948l-15.643,11.579a2.036,2.036,0,0,1-2.545-.01l-15.643-11.688v-2.829a1.531,1.531,0,0,1,1.533-1.533h30.766a1.534,1.534,0,0,1,1.533,1.533" transform="translate(-482.386 -116.584)" fill="#ea711f"/></g></g><path d="M516.216,118.117v.59L500.365,131.3a1.7,1.7,0,0,1-2.128-.005l-15.852-12.706v-.472a1.531,1.531,0,0,1,1.533-1.533h30.766a1.534,1.534,0,0,1,1.533,1.533" transform="translate(-176.192 -42.582)" fill="#f2a825"/><path d="M499.092,171.321h0a.452.452,0,0,1-.453-.453v-8.9a.453.453,0,1,1,.905,0v8.9a.452.452,0,0,1-.453.453" transform="translate(-182.129 -58.994)" fill="#cfd6f9"/><path d="M505.508,181.809h0a.452.452,0,0,1-.453-.453v-15a.453.453,0,0,1,.905,0v15a.452.452,0,0,1-.453.453" transform="translate(-184.472 -60.597)" fill="#cfd6f9"/><path d="M505.508,160.3h0a.452.452,0,0,1-.453-.453V157.18a.453.453,0,1,1,.905,0v2.668a.452.452,0,0,1-.453.453" transform="translate(-184.472 -57.245)" fill="#cfd6f9"/><path d="M518.458,168.174h0a.452.452,0,0,1-.453-.453v-5.373a.453.453,0,1,1,.905,0v5.373a.452.452,0,0,1-.453.453" transform="translate(-189.202 -59.133)" fill="#cfd6f9"/><path d="M513.23,172.613h0a.452.452,0,0,1-.453-.453V157.181a.453.453,0,0,1,.905,0V172.16a.452.452,0,0,1-.453.453" transform="translate(-187.292 -57.245)" fill="#cfd6f9"/><g transform="translate(136.682 79.456)"><path d="M297.722,356.374c0,3.335,5.143,3.335,5.143,0a12.209,12.209,0,0,1-5.143,0" transform="translate(-288.728 -346.033)" fill="#fff"/><g transform="translate(13.142 0.366)" opacity="0.2" style="mix-blend-mode:multiply;isolation:isolate"><g transform="translate(0)"><g clip-path="url(#ai)"><path d="M297.275,342.642l-.056.9c-.046.716-.254,1.274-1.356,1.274-.691,0-1.59,1.181-2.5,1.181-.688,0-.7-1.558-.6-2.274.21-1.556,4.275-1.564,4.517-1.084" transform="translate(-292.715 -342.363)" fill="#1b1464"/></g></g></g><g transform="translate(4.379 0.173)" opacity="0.2" style="mix-blend-mode:multiply;isolation:isolate"><g clip-path="url(#aj)"><path d="M301.865,343.824l1.061-1.26c.568-.635,2.324-.625,5.211,0,.586.21.639.641.414,1.148-.286.646-1.054,2.53-1.76,2.53-1.355,0-2.029-1.5-2.83-1.5-1.974,0-2.1-.916-2.1-.916" transform="translate(-301.865 -342.092)" fill="#1b1464"/></g></g><path d="M308.664,342.517a4.8,4.8,0,0,1-1.807.13c-.6-.032-1.182-.128-1.756-.168a5.488,5.488,0,0,0-1.661.052,2.161,2.161,0,0,0-1.328.962,1.879,1.879,0,0,1,1.176-1.408,4.019,4.019,0,0,1,1.865-.216,12.355,12.355,0,0,1,1.773.314,13.944,13.944,0,0,0,1.738.333" transform="translate(-297.652 -341.849)" fill="#502f26"/><path d="M292.908,342.521c.823-.117,1.522-.411,2.345-.57a3.675,3.675,0,0,1,1.277-.049,1.445,1.445,0,0,1,1.085.684,3.321,3.321,0,0,0-2.249-.033,8.766,8.766,0,0,1-1.212.165,2.518,2.518,0,0,1-1.247-.2" transform="translate(-280.05 -341.853)" fill="#502f26"/><path d="M296.847,346.9c0,.775-.324,1.4-.723,1.4s-.723-.629-.723-1.4.324-1.4.723-1.4.723.629.723,1.4" transform="translate(-281.057 -342.901)" fill="#49341f"/><path d="M306.682,346.9c0,.775-.324,1.4-.723,1.4s-.723-.629-.723-1.4.324-1.4.723-1.4.723.629.723,1.4" transform="translate(-297.895 -342.901)" fill="#49341f"/><path d="M298.111,346.789l.093-.76a1.857,1.857,0,0,0-.438-1.46,1.512,1.512,0,0,0-1.139-.529h-2.866a1.536,1.536,0,0,0-1.213.618,1.9,1.9,0,0,0-.314,1.628l.259.979a2.956,2.956,0,0,0,2.764,2.3,3.013,3.013,0,0,0,2.854-2.774m-1.484-2.136a.907.907,0,0,1,.681.322,1.25,1.25,0,0,1,.289.98l-.092.76a2.4,2.4,0,0,1-2.248,2.236,2.318,2.318,0,0,1-2.172-1.842l-.259-.979a1.276,1.276,0,0,1,.208-1.1.916.916,0,0,1,.728-.379Z" transform="translate(-280.127 -342.48)" fill="#fff"/><path d="M301.033,351.41c.659,1.077-.166.985-1.309,1.07a1.168,1.168,0,0,1-.929-.2c-.5-.494.247-3.746.615-3.746,1.034,0,.7,1.368,1.623,2.874" transform="translate(-287.775 -343.775)" fill="#e08068"/><path d="M308.3,346.794l.1-.76a1.755,1.755,0,0,0-1.738-1.993h-3.226a1.754,1.754,0,0,0-1.681,2.255l.291.977a3.186,3.186,0,0,0,3.073,2.29,3.221,3.221,0,0,0,3.177-2.769m-1.634-2.141a1.141,1.141,0,0,1,1.131,1.3l-.1.76a2.595,2.595,0,0,1-5.057.388l-.291-.978a1.142,1.142,0,0,1,1.1-1.468Z" transform="translate(-297.1 -342.48)" fill="#fff"/><path d="M315.258,346.668h-4.367a.306.306,0,1,1,0-.612h4.367a.306.306,0,1,1,0,.612" transform="translate(-310.585 -343.061)" fill="#fff"/><path d="M301.394,346.668h-1.282a.306.306,0,0,1,0-.612h1.282a.306.306,0,1,1,0,.612" transform="translate(-289.047 -343.061)" fill="#fff"/></g><g transform="translate(275.004 135.655)"><path d="M297.722,356.531c0,2.43,1.847,1.292,1.847-1.138l-1.458.459-.389.68" transform="translate(-290.956 -348.59)" fill="#fff"/><path d="M308.555,342.506a4.716,4.716,0,0,1-1.777.128c-.59-.031-1.162-.126-1.727-.165a5.4,5.4,0,0,0-1.633.051,2.125,2.125,0,0,0-1.306.946,1.848,1.848,0,0,1,1.157-1.384,3.952,3.952,0,0,1,1.834-.212,12.154,12.154,0,0,1,1.743.309,13.706,13.706,0,0,0,1.709.328" transform="translate(-297.941 -341.85)" fill="#502f26"/><path d="M306.658,346.881c0,.763-.319,1.381-.711,1.381s-.711-.618-.711-1.381.319-1.381.711-1.381.711.618.711,1.381" transform="translate(-298.232 -342.944)" fill="#49341f"/></g></g></g></g></g></svg>