<svg xmlns="http://www.w3.org/2000/svg" xmlns:xlink="http://www.w3.org/1999/xlink" width="382.772" height="262.743" viewBox="0 0 382.772 262.743"><defs><clipPath id="a"><rect width="342.256" height="257.732" fill="#ffb338"/></clipPath><clipPath id="c"><rect width="35.921" height="35.022" fill="#ffb338"/></clipPath><clipPath id="d"><rect width="19.658" height="19.166" fill="#ffb338"/></clipPath><clipPath id="e"><rect width="19.657" height="19.166" fill="#ffb338"/></clipPath><clipPath id="g"><rect width="35.921" height="35.023" fill="#ffb338"/></clipPath><clipPath id="h"><rect width="116.069" height="113.168" fill="#ffb338"/></clipPath><clipPath id="i"><rect width="160.292" height="156.285" fill="#ffb338"/></clipPath><clipPath id="j"><rect width="91.262" height="88.98" fill="#ffb338"/></clipPath><clipPath id="k"><rect width="85.902" height="83.754" fill="#ffb338"/></clipPath><clipPath id="l"><rect width="53.054" height="51.727" fill="#ffb338"/></clipPath><clipPath id="m"><rect width="233.668" height="217.234" fill="none"/></clipPath><clipPath id="p"><rect width="170.772" height="244.366" fill="none"/></clipPath></defs><g transform="translate(8973 2414.249)"><g transform="translate(-8936.418 -2409.238)" opacity="0.35"><g clip-path="url(#a)"><g clip-path="url(#a)"><g transform="translate(148.185)" style="mix-blend-mode:multiply;isolation:isolate"><g clip-path="url(#c)"><path d="M118.857,17.511a17.966,17.966,0,0,0-35.921,0,17.966,17.966,0,0,0,35.921,0" transform="translate(-82.936 -0.001)" fill="#ffb338"/></g></g><g transform="translate(322.598 146.4)" style="mix-blend-mode:multiply;isolation:isolate"><g clip-path="url(#d)"><path d="M200.209,91.519a9.832,9.832,0,1,0-9.829,9.582,9.708,9.708,0,0,0,9.829-9.582" transform="translate(-180.551 -81.937)" fill="#ffb338"/></g></g><g transform="translate(56.374 7.034)" style="mix-blend-mode:multiply;isolation:isolate"><g clip-path="url(#e)"><path d="M51.209,13.519a9.832,9.832,0,0,0-19.658,0,9.832,9.832,0,0,0,19.658,0" transform="translate(-31.552 -3.937)" fill="#ffb338"/></g></g><g transform="translate(140.351 226.804)" style="mix-blend-mode:multiply;isolation:isolate"><g clip-path="url(#e)"><path d="M98.209,136.519A9.832,9.832,0,1,0,88.38,146.1a9.708,9.708,0,0,0,9.829-9.582" transform="translate(-78.552 -126.937)" fill="#ffb338"/></g></g><g transform="translate(0 141.152)" style="mix-blend-mode:multiply;isolation:isolate"><g clip-path="url(#g)"><path d="M35.921,96.511A17.741,17.741,0,0,0,17.96,79a17.517,17.517,0,1,0,0,35.024,17.741,17.741,0,0,0,17.96-17.512" transform="translate(0 -79)" fill="#ffb338"/></g></g><g transform="translate(14.806 34.713)" style="mix-blend-mode:multiply;isolation:isolate"><g clip-path="url(#h)"><path d="M124.356,76.012c0-31.25-25.983-56.584-58.035-56.584S8.287,44.762,8.287,76.012,34.27,132.6,66.32,132.6s58.035-25.334,58.035-56.584" transform="translate(-8.286 -19.428)" fill="#ffb338"/></g></g><g transform="translate(155.402 23.428)" style="mix-blend-mode:multiply;isolation:isolate"><g clip-path="url(#i)"><path d="M247.267,91.254c0-43.157-35.883-78.141-80.146-78.141S86.975,48.1,86.975,91.254,122.858,169.4,167.121,169.4s80.146-34.986,80.146-78.143" transform="translate(-86.975 -13.111)" fill="#ffb338"/></g></g><g transform="translate(44.298 168.752)" style="mix-blend-mode:multiply;isolation:isolate"><g clip-path="url(#j)"><path d="M116.054,138.937c0-24.571-20.43-44.49-45.632-44.49s-45.63,19.919-45.63,44.49,20.43,44.49,45.63,44.49,45.632-19.919,45.632-44.49" transform="translate(-24.792 -94.446)" fill="#ffb338"/></g></g><g transform="translate(173.837 156.178)" style="mix-blend-mode:multiply;isolation:isolate"><g clip-path="url(#k)"><path d="M183.194,129.287c0-23.128-19.229-41.878-42.951-41.878s-42.95,18.75-42.95,41.878,19.229,41.878,42.95,41.878,42.951-18.75,42.951-41.878" transform="translate(-97.292 -87.409)" fill="#ffb338"/></g></g><g transform="translate(286.247 167.642)" style="mix-blend-mode:multiply;isolation:isolate"><g clip-path="url(#l)"><path d="M213.26,119.688c0-14.283-11.876-25.863-26.526-25.863s-26.528,11.58-26.528,25.863,11.877,25.863,26.528,25.863,26.526-11.578,26.526-25.863" transform="translate(-160.206 -93.826)" fill="#ffb338"/></g></g></g></g></g><g transform="translate(-3 10)"><g transform="translate(-8970 -2397.117)"><path d="M31.568,61.064l-26.91,37.5,74.116,29.116,26.469-44.115Z" fill="#1f353e"/><g clip-path="url(#m)"><path d="M31.568,61.064l-26.91,37.5,74.116,29.116,26.469-44.115Z" fill="none" stroke="#1f353e" stroke-width="5.966"/></g><path d="M82.745,140.914,29.364,120.178v57.793l82.056,39.263V92.256Z" fill="#1f353e"/><path d="M128.624,83.563,196.563,59.74l32.205,38.822-74.116,30Z" fill="#1f353e"/><g clip-path="url(#m)"><path d="M128.624,83.563,196.563,59.74l32.205,38.822-74.116,30Z" fill="none" stroke="#1f353e" stroke-width="5.966"/></g><path d="M121.122,217.1l82.5-39.575V120.308l-52.939,22.369L121.125,91.556Z" fill="#1f353e"/><path d="M110.979,78.71V40.771L31.568,61.065" fill="none" stroke="#1f353e" stroke-linejoin="round" stroke-width="5.966"/><path d="M122.891,77.828V41.211L196.562,59.74" fill="none" stroke="#1f353e" stroke-linejoin="round" stroke-width="5.966"/><rect width="56.027" height="56.029" transform="translate(86.716 2.389)" fill="#ffb338"/><g clip-path="url(#m)"><rect width="56.027" height="56.029" transform="translate(86.716 2.389)" fill="none" stroke="#fff" stroke-width="4.776"/></g></g><g transform="translate(-8758 -2424.249)"><g clip-path="url(#p)"><path d="M97.091,59.15a29.575,29.575,0,1,1,29.863-29.294A29.55,29.55,0,0,1,97.091,59.15" fill="#1f353e"/><path d="M.739,69.811a29.918,29.918,0,0,1,6.107-6.7s65.544.815,65.875.989c3.118,1.592,15.561,9.019,26.525,8.6,9.245-.343,24.1-9.69,24.1-9.69S146.014,73.306,151,75.882c1.038.546,11.9,28.665,13.41,33.892s7.8,25.705,6.058,43.948-22.453,2.389-22.453,2.389l-4.855-34.41L131.67,105.352l10.811,138.883-41.735.131-2.99-69.422L88.27,174.9,87.189,243.2l-40.7.652,17.4-145.9s.6-3.682,1.5-8.6L5.089,84.92S-2.316,74.3.739,69.811" fill="#1f353e"/></g></g></g></g></svg>