<svg xmlns="http://www.w3.org/2000/svg" xmlns:xlink="http://www.w3.org/1999/xlink" width="414.47" height="257.732" viewBox="0 0 414.47 257.732"><defs><clipPath id="a"><rect width="342.256" height="257.732" fill="#ffb338"/></clipPath><clipPath id="c"><rect width="35.921" height="35.022" fill="#ffb338"/></clipPath><clipPath id="d"><rect width="19.658" height="19.166" fill="#ffb338"/></clipPath><clipPath id="e"><rect width="19.657" height="19.166" fill="#ffb338"/></clipPath><clipPath id="g"><rect width="35.921" height="35.023" fill="#ffb338"/></clipPath><clipPath id="h"><rect width="116.069" height="113.168" fill="#ffb338"/></clipPath><clipPath id="i"><rect width="160.292" height="156.285" fill="#ffb338"/></clipPath><clipPath id="j"><rect width="91.262" height="88.98" fill="#ffb338"/></clipPath><clipPath id="k"><rect width="85.902" height="83.754" fill="#ffb338"/></clipPath><clipPath id="l"><rect width="53.054" height="51.727" fill="#ffb338"/></clipPath><clipPath id="m"><rect width="414.47" height="199.167" fill="none"/></clipPath></defs><g transform="translate(8990 2002.238)"><g transform="translate(-8983.418 -2002.238)" opacity="0.35"><g clip-path="url(#a)"><g clip-path="url(#a)"><g transform="translate(148.185)" style="mix-blend-mode:multiply;isolation:isolate"><g clip-path="url(#c)"><path d="M118.857,17.511a17.966,17.966,0,0,0-35.921,0,17.966,17.966,0,0,0,35.921,0" transform="translate(-82.936 -0.001)" fill="#ffb338"/></g></g><g transform="translate(322.598 146.4)" style="mix-blend-mode:multiply;isolation:isolate"><g clip-path="url(#d)"><path d="M200.209,91.519a9.832,9.832,0,1,0-9.829,9.582,9.708,9.708,0,0,0,9.829-9.582" transform="translate(-180.551 -81.937)" fill="#ffb338"/></g></g><g transform="translate(56.374 7.034)" style="mix-blend-mode:multiply;isolation:isolate"><g clip-path="url(#e)"><path d="M51.209,13.519a9.832,9.832,0,0,0-19.658,0,9.832,9.832,0,0,0,19.658,0" transform="translate(-31.552 -3.937)" fill="#ffb338"/></g></g><g transform="translate(140.351 226.804)" style="mix-blend-mode:multiply;isolation:isolate"><g clip-path="url(#e)"><path d="M98.209,136.519A9.832,9.832,0,1,0,88.38,146.1a9.708,9.708,0,0,0,9.829-9.582" transform="translate(-78.552 -126.937)" fill="#ffb338"/></g></g><g transform="translate(0 141.152)" style="mix-blend-mode:multiply;isolation:isolate"><g clip-path="url(#g)"><path d="M35.921,96.511A17.741,17.741,0,0,0,17.96,79a17.517,17.517,0,1,0,0,35.024,17.741,17.741,0,0,0,17.96-17.512" transform="translate(0 -79)" fill="#ffb338"/></g></g><g transform="translate(14.806 34.713)" style="mix-blend-mode:multiply;isolation:isolate"><g clip-path="url(#h)"><path d="M124.356,76.012c0-31.25-25.983-56.584-58.035-56.584S8.287,44.762,8.287,76.012,34.27,132.6,66.32,132.6s58.035-25.334,58.035-56.584" transform="translate(-8.286 -19.428)" fill="#ffb338"/></g></g><g transform="translate(155.402 23.428)" style="mix-blend-mode:multiply;isolation:isolate"><g clip-path="url(#i)"><path d="M247.267,91.254c0-43.157-35.883-78.141-80.146-78.141S86.975,48.1,86.975,91.254,122.858,169.4,167.121,169.4s80.146-34.986,80.146-78.143" transform="translate(-86.975 -13.111)" fill="#ffb338"/></g></g><g transform="translate(44.298 168.752)" style="mix-blend-mode:multiply;isolation:isolate"><g clip-path="url(#j)"><path d="M116.054,138.937c0-24.571-20.43-44.49-45.632-44.49s-45.63,19.919-45.63,44.49,20.43,44.49,45.63,44.49,45.632-19.919,45.632-44.49" transform="translate(-24.792 -94.446)" fill="#ffb338"/></g></g><g transform="translate(173.837 156.178)" style="mix-blend-mode:multiply;isolation:isolate"><g clip-path="url(#k)"><path d="M183.194,129.287c0-23.128-19.229-41.878-42.951-41.878s-42.95,18.75-42.95,41.878,19.229,41.878,42.95,41.878,42.951-18.75,42.951-41.878" transform="translate(-97.292 -87.409)" fill="#ffb338"/></g></g><g transform="translate(286.247 167.642)" style="mix-blend-mode:multiply;isolation:isolate"><g clip-path="url(#l)"><path d="M213.26,119.688c0-14.283-11.876-25.863-26.526-25.863s-26.528,11.58-26.528,25.863,11.877,25.863,26.528,25.863,26.526-11.578,26.526-25.863" transform="translate(-160.206 -93.826)" fill="#ffb338"/></g></g></g></g></g><rect width="136.194" height="35.195" transform="matrix(0.005, -1, 1, 0.005, -8878.62, -1763.538)" fill="#1f353e"/><rect width="93.79" height="35.198" transform="translate(-8927.213 -1763.763) rotate(-89.733)" fill="#1f353e"/><rect width="58.15" height="35.198" transform="matrix(0.005, -1, 1, 0.005, -8975.796, -1763.982)" fill="#1f353e"/><g transform="translate(-8990 -1960.802)"><g clip-path="url(#m)"><path d="M1.491,117.282c47.776-13.948,105.79-53.993,119.075-104.329" transform="translate(-0.079 -0.69)" fill="none" stroke="#ffb338" stroke-width="10.637"/><path d="M92.365,26.2,126.148,7.44l15.511,33.85" transform="translate(-4.917 -0.396)" fill="none" stroke="#ffb338" stroke-width="10.637"/><path d="M300.678,73.121l-.595,108.249s13.864,6.777,35.221,8.049c30.149,1.794,42.018-8.783,42.018-8.783l-.269-102.695Z" transform="translate(-15.974 -3.892)" fill="#fff"/><path d="M377.782,150.212c-4.707,4.369-21.153,8.655-39.251,8.54-21.824-.14-39.485-4.942-39.446-10.727" transform="translate(-15.921 -7.88)" fill="none" stroke="#1f353e" stroke-width="2.682"/><path d="M377.664,169.724c-4.71,4.368-21.16,8.652-39.256,8.54-21.826-.14-39.484-4.941-39.448-10.733" transform="translate(-15.915 -8.918)" fill="none" stroke="#1f353e" stroke-width="2.682"/><path d="M377.532,185.562c-.033,5.788-17.682,10.361-39.409,10.224s-39.313-4.941-39.276-10.727" transform="translate(-15.909 -9.851)" fill="none" stroke="#1f353e" stroke-width="2.676"/><line x1="0.346" y2="54.273" transform="translate(282.933 121.887)" fill="none" stroke="#1f353e" stroke-width="2.682"/><line x1="0.349" y2="54.277" transform="translate(361.641 122.389)" fill="none" stroke="#1f353e" stroke-width="2.682"/><path d="M378.792,72.724c-.04,5.786-17.763,10.363-39.587,10.224S299.72,78,299.759,72.221,317.517,61.857,339.341,62s39.485,4.944,39.451,10.727" transform="translate(-15.957 -3.3)" fill="#1f353e"/><path d="M378.792,72.724c-.04,5.786-17.763,10.363-39.587,10.224S299.72,78,299.759,72.221,317.517,61.857,339.341,62,378.826,66.941,378.792,72.724Z" transform="translate(-15.957 -3.3)" fill="none" stroke="#1f353e" stroke-width="2.682"/><path d="M378.339,94.265c-4.709,4.371-21.156,8.655-39.255,8.541-21.823-.141-39.485-4.94-39.448-10.731" transform="translate(-15.951 -4.901)" fill="none" stroke="#1f353e" stroke-width="2.682"/><path d="M378.216,113.777c-4.712,4.37-21.16,8.654-39.257,8.537-21.824-.138-39.484-4.942-39.447-10.726" transform="translate(-15.944 -5.94)" fill="none" stroke="#1f353e" stroke-width="2.682"/><path d="M378.086,129.615c-.036,5.789-17.684,10.361-39.409,10.226S299.362,134.9,299.4,129.115" transform="translate(-15.938 -6.873)" fill="none" stroke="#1f353e" stroke-width="2.676"/><line x1="0.347" y2="54.273" transform="translate(283.454 68.92)" fill="none" stroke="#1f353e" stroke-width="2.682"/><line x1="0.347" y2="54.274" transform="translate(362.168 69.42)" fill="none" stroke="#1f353e" stroke-width="2.682"/><path d="M352.056,140.491l-.345,52.809s11.884,13.013,37.329,12.381,40.866-6.66,40.866-6.66l1.784-55.448Z" transform="translate(-18.723 -7.479)" fill="#fff"/><path d="M431.989,141.825c-.112,5.78-17.894,10.119-39.714,9.686s-39.414-5.48-39.3-11.26,17.895-10.122,39.717-9.686,39.414,5.475,39.295,11.26" transform="translate(-18.79 -6.949)" fill="#1f353e"/><path d="M431.989,141.825c-.112,5.78-17.894,10.119-39.714,9.686s-39.414-5.48-39.3-11.26,17.895-10.122,39.717-9.686S432.109,136.04,431.989,141.825Z" transform="translate(-18.79 -6.949)" fill="none" stroke="#1f353e" stroke-width="2.682"/><path d="M431.256,163.329c-4.767,4.306-21.269,8.367-39.367,8.01-21.817-.438-39.413-5.476-39.3-11.262" transform="translate(-18.77 -8.521)" fill="none" stroke="#1f353e" stroke-width="2.682"/><path d="M430.867,182.836c-4.768,4.306-21.269,8.367-39.362,8.007-21.824-.436-39.416-5.473-39.3-11.262" transform="translate(-18.749 -9.56)" fill="none" stroke="#1f353e" stroke-width="2.682"/><path d="M430.527,198.672c-.115,5.786-17.818,10.122-39.544,9.69S351.74,202.89,351.855,197.1" transform="translate(-18.73 -10.493)" fill="none" stroke="#1f353e" stroke-width="2.676"/><line x1="1.081" y2="54.263" transform="translate(333.106 133.302)" fill="none" stroke="#1f353e" stroke-width="2.682"/><line x1="1.076" y2="54.265" transform="translate(411.806 134.869)" fill="none" stroke="#1f353e" stroke-width="2.682"/><path d="M289.12,168.828a14.541,14.541,0,0,1-13.3,15.69l-74.409,6.15a14.539,14.539,0,0,1-15.693-13.3L176.128,61.331a14.546,14.546,0,0,1,13.3-15.69l74.411-6.15a14.664,14.664,0,0,1,11.627,4.358,13.992,13.992,0,0,1,3,4.534,14.3,14.3,0,0,1,1.056,4.4Z" transform="translate(-9.373 -2.1)" fill="#ffb338" stroke="#ffb338" stroke-width="1"/><path d="M289.12,168.828a14.541,14.541,0,0,1-13.3,15.69l-74.409,6.15a14.539,14.539,0,0,1-15.693-13.3L176.128,61.331a14.546,14.546,0,0,1,13.3-15.69l74.411-6.15a14.538,14.538,0,0,1,15.688,13.294Z" transform="translate(-9.373 -2.1)" fill="none" stroke="#ffb338" stroke-width="0.903"/><path d="M208.046,126.088a2.812,2.812,0,0,1-2.571,3.033l-6.538.545a2.819,2.819,0,0,1-3.038-2.572l-.582-7.069a2.807,2.807,0,0,1,2.571-3.033l6.54-.543a2.815,2.815,0,0,1,3.034,2.574Z" transform="translate(-10.397 -6.199)" fill="#fff"/><path d="M208.046,126.088a2.812,2.812,0,0,1-2.571,3.033l-6.538.545a2.819,2.819,0,0,1-3.038-2.572l-.582-7.069a2.807,2.807,0,0,1,2.571-3.033l6.54-.543a2.815,2.815,0,0,1,3.034,2.574Z" transform="translate(-10.397 -6.199)" fill="none" stroke="#fff" stroke-width="1.048"/><path d="M230.169,124.258a2.811,2.811,0,0,1-2.57,3.037l-6.538.54a2.817,2.817,0,0,1-3.036-2.571l-.58-7.066a2.8,2.8,0,0,1,2.57-3.033l6.537-.543a2.814,2.814,0,0,1,3.035,2.573Z" transform="translate(-11.575 -6.101)" fill="#fff"/><path d="M230.169,124.258a2.811,2.811,0,0,1-2.57,3.037l-6.538.54a2.817,2.817,0,0,1-3.036-2.571l-.58-7.066a2.8,2.8,0,0,1,2.57-3.033l6.537-.543a2.814,2.814,0,0,1,3.035,2.573Z" transform="translate(-11.575 -6.101)" fill="none" stroke="#fff" stroke-width="1.048"/><path d="M252.294,122.431a2.813,2.813,0,0,1-2.572,3.035l-6.538.538a2.808,2.808,0,0,1-3.033-2.57l-.584-7.064a2.812,2.812,0,0,1,2.571-3.038l6.537-.541a2.815,2.815,0,0,1,3.035,2.573Z" transform="translate(-12.752 -6.004)" fill="#fff"/><path d="M252.294,122.431a2.813,2.813,0,0,1-2.572,3.035l-6.538.538a2.808,2.808,0,0,1-3.033-2.57l-.584-7.064a2.812,2.812,0,0,1,2.571-3.038l6.537-.541a2.815,2.815,0,0,1,3.035,2.573Z" transform="translate(-12.752 -6.004)" fill="none" stroke="#fff" stroke-width="1.048"/><path d="M274.42,120.6a2.818,2.818,0,0,1-2.576,3.039l-6.533.539a2.814,2.814,0,0,1-3.038-2.572l-.583-7.066a2.813,2.813,0,0,1,2.57-3.035l6.539-.543a2.813,2.813,0,0,1,3.033,2.574Z" transform="translate(-13.93 -5.906)" fill="#fff"/><path d="M274.42,120.6a2.818,2.818,0,0,1-2.576,3.039l-6.533.539a2.814,2.814,0,0,1-3.038-2.572l-.583-7.066a2.813,2.813,0,0,1,2.57-3.035l6.539-.543a2.813,2.813,0,0,1,3.033,2.574Z" transform="translate(-13.93 -5.906)" fill="none" stroke="#fff" stroke-width="1.048"/><path d="M210.006,149.793a2.816,2.816,0,0,1-2.572,3.034l-6.537.54a2.811,2.811,0,0,1-3.034-2.57l-.586-7.067a2.81,2.81,0,0,1,2.571-3.035l6.537-.541a2.814,2.814,0,0,1,3.036,2.572Z" transform="translate(-10.501 -7.46)" fill="#fff"/><path d="M210.006,149.793a2.816,2.816,0,0,1-2.572,3.034l-6.537.54a2.811,2.811,0,0,1-3.034-2.57l-.586-7.067a2.81,2.81,0,0,1,2.571-3.035l6.537-.541a2.814,2.814,0,0,1,3.036,2.572Z" transform="translate(-10.501 -7.46)" fill="none" stroke="#fff" stroke-width="1.048"/><path d="M232.131,147.963A2.82,2.82,0,0,1,229.558,151l-6.538.537a2.811,2.811,0,0,1-3.037-2.57L219.4,141.9a2.813,2.813,0,0,1,2.572-3.035l6.538-.543a2.817,2.817,0,0,1,3.035,2.573Z" transform="translate(-11.679 -7.363)" fill="#fff"/><path d="M232.131,147.963A2.82,2.82,0,0,1,229.558,151l-6.538.537a2.811,2.811,0,0,1-3.037-2.57L219.4,141.9a2.813,2.813,0,0,1,2.572-3.035l6.538-.543a2.817,2.817,0,0,1,3.035,2.573Z" transform="translate(-11.679 -7.363)" fill="none" stroke="#fff" stroke-width="1.048"/><path d="M254.256,146.134a2.819,2.819,0,0,1-2.577,3.035l-6.536.542a2.812,2.812,0,0,1-3.033-2.573l-.587-7.064a2.816,2.816,0,0,1,2.573-3.036l6.538-.542a2.815,2.815,0,0,1,3.034,2.575Z" transform="translate(-12.857 -7.266)" fill="#fff"/><path d="M254.256,146.134a2.819,2.819,0,0,1-2.577,3.035l-6.536.542a2.812,2.812,0,0,1-3.033-2.573l-.587-7.064a2.816,2.816,0,0,1,2.573-3.036l6.538-.542a2.815,2.815,0,0,1,3.034,2.575Z" transform="translate(-12.857 -7.266)" fill="none" stroke="#fff" stroke-width="1.048"/><path d="M276.378,144.307a2.814,2.814,0,0,1-2.571,3.035l-6.537.54a2.817,2.817,0,0,1-3.037-2.571l-.582-7.064a2.814,2.814,0,0,1,2.571-3.038l6.537-.541a2.819,2.819,0,0,1,3.037,2.575Z" transform="translate(-14.034 -7.168)" fill="#fff"/><path d="M276.378,144.307a2.814,2.814,0,0,1-2.571,3.035l-6.537.54a2.817,2.817,0,0,1-3.037-2.571l-.582-7.064a2.814,2.814,0,0,1,2.571-3.038l6.537-.541a2.819,2.819,0,0,1,3.037,2.575Z" transform="translate(-14.034 -7.168)" fill="none" stroke="#fff" stroke-width="1.048"/><path d="M211.965,173.5a2.814,2.814,0,0,1-2.574,3.034l-6.537.542a2.816,2.816,0,0,1-3.036-2.574l-.583-7.06a2.815,2.815,0,0,1,2.572-3.039l6.536-.541a2.813,2.813,0,0,1,3.036,2.573Z" transform="translate(-10.605 -8.722)" fill="#fff"/><path d="M211.965,173.5a2.814,2.814,0,0,1-2.574,3.034l-6.537.542a2.816,2.816,0,0,1-3.036-2.574l-.583-7.06a2.815,2.815,0,0,1,2.572-3.039l6.536-.541a2.813,2.813,0,0,1,3.036,2.573Z" transform="translate(-10.605 -8.722)" fill="none" stroke="#fff" stroke-width="1.048"/><path d="M234.09,171.668a2.818,2.818,0,0,1-2.572,3.039l-6.537.539a2.814,2.814,0,0,1-3.035-2.571l-.586-7.067a2.816,2.816,0,0,1,2.573-3.035l6.536-.541A2.814,2.814,0,0,1,233.5,164.6Z" transform="translate(-11.783 -8.625)" fill="#fff"/><path d="M234.09,171.668a2.818,2.818,0,0,1-2.572,3.039l-6.537.539a2.814,2.814,0,0,1-3.035-2.571l-.586-7.067a2.816,2.816,0,0,1,2.573-3.035l6.536-.541A2.814,2.814,0,0,1,233.5,164.6Z" transform="translate(-11.783 -8.625)" fill="none" stroke="#fff" stroke-width="1.048"/><path d="M256.212,169.842a2.815,2.815,0,0,1-2.57,3.034l-6.539.539a2.809,2.809,0,0,1-3.035-2.571l-.583-7.066a2.814,2.814,0,0,1,2.57-3.036l6.538-.538a2.811,2.811,0,0,1,3.036,2.572Z" transform="translate(-12.961 -8.528)" fill="#fff"/><path d="M256.212,169.842a2.815,2.815,0,0,1-2.57,3.034l-6.539.539a2.809,2.809,0,0,1-3.035-2.571l-.583-7.066a2.814,2.814,0,0,1,2.57-3.036l6.538-.538a2.811,2.811,0,0,1,3.036,2.572Z" transform="translate(-12.961 -8.528)" fill="none" stroke="#fff" stroke-width="1.048"/><path d="M278.339,168.012a2.815,2.815,0,0,1-2.572,3.035l-6.539.54a2.814,2.814,0,0,1-3.036-2.573l-.584-7.062a2.819,2.819,0,0,1,2.572-3.038l6.537-.538a2.811,2.811,0,0,1,3.037,2.57Z" transform="translate(-14.139 -8.43)" fill="#fff"/><path d="M278.339,168.012a2.815,2.815,0,0,1-2.572,3.035l-6.539.54a2.814,2.814,0,0,1-3.036-2.573l-.584-7.062a2.819,2.819,0,0,1,2.572-3.038l6.537-.538a2.811,2.811,0,0,1,3.037,2.57Z" transform="translate(-14.139 -8.43)" fill="none" stroke="#fff" stroke-width="1.048"/><path d="M268.149,76.628c.149,1.782-.817,3.314-2.148,3.424l-69.822,5.771c-1.337.111-2.535-1.244-2.683-3.025l-.966-11.662c-.146-1.782.819-3.316,2.153-3.423L264.5,61.939c1.334-.109,2.534,1.246,2.684,3.025Z" transform="translate(-10.248 -3.297)" fill="#fff"/><path d="M268.149,76.628c.149,1.782-.817,3.314-2.148,3.424l-69.822,5.771c-1.337.111-2.535-1.244-2.683-3.025l-.966-11.662c-.146-1.782.819-3.316,2.153-3.423L264.5,61.939c1.334-.109,2.534,1.246,2.684,3.025Z" transform="translate(-10.248 -3.297)" fill="none" stroke="#fff" stroke-width="1.212"/></g></g></g></svg>