<svg xmlns="http://www.w3.org/2000/svg" xmlns:xlink="http://www.w3.org/1999/xlink" width="95.183" height="92.22" viewBox="0 0 95.183 92.22"><defs><clipPath id="a"><rect width="95.183" height="92.22" fill="none"/></clipPath></defs><g transform="translate(4.569)"><g transform="translate(-4.569 0)" clip-path="url(#a)"><path d="M95.177,65.849c-.01-1.372-.539-1.958-1.926-1.869-.949.061-1.067-.276-1.066-1.121q.039-26.718.019-53.435c0-3.134-1.823-4.958-4.952-4.959q-14.915,0-29.83,0c-.768,0-1.771.252-2.241-.132-.5-.406-.1-1.449-.155-2.211-.013-.185.007-.372-.006-.557A1.467,1.467,0,0,0,53.5.02q-5.9-.04-11.8,0a1.452,1.452,0,0,0-1.536,1.522,13.365,13.365,0,0,0,0,2.043c.074.738-.185.9-.9.9q-15.7-.037-31.41-.016A4.507,4.507,0,0,0,2.975,9.309q0,9.293,0,18.586,0,17.61.017,35.221c0,.69-.152.954-.854.844A2.085,2.085,0,0,0,0,64.883V70.46a2.433,2.433,0,0,0,2.232.944c8.58-.025,17.161-.015,25.741-.015h1a.9.9,0,0,1-.1.667q-3.2,8.937-6.391,17.875C22,91.3,22.6,92.2,24.047,92.208c2.323.007,4.647-.015,6.97.01a1.606,1.606,0,0,0,1.713-1.23c.639-1.869,1.345-3.715,1.971-5.588a.8.8,0,0,1,.923-.637q11.942.024,23.883,0a.852.852,0,0,1,.99.678c.612,1.845,1.321,3.658,1.938,5.5a1.64,1.64,0,0,0,1.771,1.277c2.323-.028,4.646,0,6.97-.011,1.391-.006,2-.917,1.532-2.229-2.114-5.9-4.206-11.8-6.353-17.691-.318-.872-.052-.915.707-.913q13.057.034,26.113.014c1.506,0,2-.5,2-2.008,0-1.177.008-2.354,0-3.531M43.758,2.965c1.3.043,2.6.014,3.9.014,1.237,0,2.476.037,3.711-.016.6-.026.736.186.7.733-.032.447.053.8-.642.788q-3.85-.071-7.7,0c-.74.013-.557-.421-.6-.826-.051-.5.073-.711.637-.692m-37.81,6.8c0-1.934.395-2.325,2.344-2.325q37.544,0,75.087,0c.339,0,.68.019,1.02.029,1.052-.01,2.1-.043,3.156-.024a1.538,1.538,0,0,1,1.674,1.684c.008.185,0,.372,0,.557q0,26.611.018,53.221c0,.832-.184,1.129-1.051,1.063-1.139-.087-2.289-.039-3.433-.049-.34.01-.68.029-1.021.029q-38.332,0-76.666.024c-.929,0-1.155-.208-1.154-1.148Q5.973,36.3,5.949,9.766M32.614,82.4c-.7,1.947-1.441,3.878-2.06,5.849-.251.795-.6,1.125-1.419.994a7.1,7.1,0,0,0-1.113-.01H27c-1.1,0-1.1,0-.751-.99,1.912-5.349,3.835-10.693,5.719-16.051.223-.634.51-.866,1.175-.821.893.061,1.8.034,2.692.008.515-.015.725.036.5.652-1.264,3.447-2.486,6.91-3.721,10.368m25.546-.6q-10.544,0-21.087-.018c-.312,0-.964.318-.925-.264.035-.526.092-1.286,1.106-1.23,1.729.093,3.467.026,5.2.026H57.41c1.375,0,1.375,0,1.67,1.487ZM37.607,77.3c.676-1.892,1.342-3.713,1.969-5.547.126-.371.355-.363.637-.363H54.972c.287,0,.507,0,.633.37.627,1.834,1.293,3.655,1.968,5.541Zm30.62,9c.33.926.657,1.853,1.04,2.93-1.384,0-2.662-.01-3.939.005-.516.006-.481-.429-.581-.706Q62.1,81.172,59.484,73.8c-.267-.752-.532-1.506-.852-2.412,1.337,0,2.544.038,3.748-.016.579-.026.647.347.777.713q2.538,7.108,5.069,14.219m23.311-17.88c-1.268-.039-2.538-.028-3.806-.036-.278.008-.557.025-.835.025l-82.9,0c-.553,0-1.12.145-1.05-.794.045-.6.235-.7.771-.7q41.914.018,83.829.015a1.657,1.657,0,0,1,.185.021c1.269-.008,2.539.011,3.806-.038.647-.025.67.312.68.8.01.508-.136.723-.68.706" transform="translate(0 0)"/><path d="M8.887,66.247q38.333-.043,76.666-.024c.34,0,.68-.02,1.021-.03q0-27.425.01-54.85a3.518,3.518,0,0,0-.376-1.6c-.34-.01-.68-.029-1.02-.029q-37.544,0-75.087,0c-1.949,0-2.344.392-2.344,2.326q0,26.53-.024,53.062c0,.94.225,1.148,1.154,1.148m40.075-8.5c.464.409.886.865,1.318,1.309a1.8,1.8,0,0,1,.593,1.221,1.463,1.463,0,0,1-2.112,1.3,4.287,4.287,0,0,1-.73-.562c-.565-.47-.991-1.453-1.618-1.387-.585.061-1.086.914-1.624,1.419-.068.064-.13.133-.2.194a1.493,1.493,0,0,1-2.164.082,1.471,1.471,0,0,1,.048-2.161,20.075,20.075,0,0,1,1.443-1.447c.328-.3.335-.519,0-.822a19.767,19.767,0,0,1-1.443-1.447,1.483,1.483,0,1,1,2.107-2.08,9.046,9.046,0,0,1,1.178,1.183c.5.648.885.559,1.355-.03A9.3,9.3,0,0,1,48.3,53.336a1.48,1.48,0,1,1,2.11,2.072,17.127,17.127,0,0,1-1.441,1.447c-.364.326-.373.561,0,.889M71.069,26.5c.583-.215.647-.511.643-1.014-.015-2.2-.011-4.4,0-6.6,0-1.218.529-1.743,1.748-1.746,2.819-.005,5.637-.01,8.455,0,1.462.006,2.212,1.162,1.4,2.378a3.333,3.333,0,0,0-.024,4.115c.833,1.293.113,2.416-1.417,2.424-2.075.011-4.15,0-6.224,0h-.874a9.5,9.5,0,0,1,2.98,2.161A5.941,5.941,0,1,1,71.069,26.5M67.336,46.363c1.4,1.39,1.4,1.39,2.781.008.066-.066.13-.133.2-.2.916-.89,1.752-1,2.43-.315s.547,1.5-.324,2.437c-.495.536-1.448.952-1.371,1.623.064.561.89,1.04,1.391,1.545.609.613,1.028,1.27.5,2.138a1.422,1.422,0,0,1-2.242.3,15.412,15.412,0,0,1-1.523-1.495c-.326-.358-.55-.373-.89-.01A20.658,20.658,0,0,1,66.614,54a1.276,1.276,0,0,1-1.559.114,1.494,1.494,0,0,1-.777-1.265,2.4,2.4,0,0,1,.933-1.574c1.409-1.411,1.408-1.411.042-2.78-1.09-1.093-1.257-1.9-.544-2.628s1.548-.581,2.627.495m-27.9-31.731a1.492,1.492,0,0,1,2.164.047c.654.552,1.15,1.669,1.892,1.615.641-.047,1.2-1.054,1.818-1.612a1.456,1.456,0,0,1,1.7-.359,1.5,1.5,0,0,1,.886,1.175,1.434,1.434,0,0,1-.34,1.075c-.613.69-1.689,1.321-1.753,2.048-.067.763,1.18,1.292,1.732,2.031a1.44,1.44,0,0,1-.1,2.016,1.422,1.422,0,0,1-2.018,0,16.117,16.117,0,0,1-1.522-1.5c-.331-.364-.562-.364-.89,0a17.126,17.126,0,0,1-1.447,1.441,1.46,1.46,0,0,1-2.093.052,1.485,1.485,0,0,1,.015-2.164c.552-.656,1.664-1.155,1.628-1.889-.031-.631-1.043-1.2-1.594-1.822a1.475,1.475,0,0,1-.081-2.162M27.5,44.408A22.02,22.02,0,0,1,30.271,41.8,48.858,48.858,0,0,1,51.146,31.779,57.488,57.488,0,0,1,59.2,30.65c-.24-.319-.429-.549-.6-.8A1.34,1.34,0,0,1,58.8,28a1.265,1.265,0,0,1,1.774-.178,24.477,24.477,0,0,1,3.487,3.454,1.362,1.362,0,0,1-.312,1.912c-.82.8-1.63,1.61-2.445,2.416-.948.938-1.609,1.1-2.346.563s-.789-1.209-.1-2.482a45.261,45.261,0,0,0-4.866.582,47.343,47.343,0,0,0-18.934,7.67,35.276,35.276,0,0,0-5.092,4.177,1.868,1.868,0,0,1-1.527.748,1.434,1.434,0,0,1-1.2-.9,1.375,1.375,0,0,1,.264-1.555M16.841,25.469a1.411,1.411,0,0,1,2.253-.51A14.373,14.373,0,0,1,20.7,26.5c.331.359.553.363.89,0a20.919,20.919,0,0,1,1.676-1.6,1.275,1.275,0,0,1,1.559-.11,1.5,1.5,0,0,1,.774,1.266,2.416,2.416,0,0,1-.936,1.574c-1.406,1.407-1.4,1.409-.036,2.78,1.089,1.091,1.253,1.9.538,2.627s-1.547.577-2.627-.5c-1.392-1.388-1.392-1.388-2.78,0-.066.065-.131.132-.2.2-.915.889-1.754,1-2.43.309s-.542-1.494.329-2.437c.495-.535,1.449-.951,1.37-1.623-.067-.562-.9-1.038-1.394-1.545-.546-.557-.978-1.145-.589-1.974M21.178,46.9a5.942,5.942,0,1,1-5.978,5.86,6.006,6.006,0,0,1,5.978-5.86" transform="translate(-1.808 -2.271)" fill="#48ceac"/><path d="M110.781,10.813a9.585,9.585,0,0,1,.048,1.391q0,26.1-.006,52.206c0,.6.155,1.25-.3,1.784,1.145.01,2.294-.038,3.433.049.867.067,1.052-.231,1.051-1.063q-.038-26.611-.019-53.221c0-.185.007-.372,0-.557a1.539,1.539,0,0,0-1.674-1.684c-1.051-.019-2.1.014-3.156.024a1.223,1.223,0,0,1,.624,1.071" transform="translate(-25.758 -2.271)" fill="#37bb9a"/><path d="M110.523,66.2c.455-.534.3-1.181.3-1.784q.013-26.1.006-52.206a9.476,9.476,0,0,0-.049-1.391,1.224,1.224,0,0,0-.624-1.071,3.5,3.5,0,0,1,.376,1.6q-.013,27.425-.01,54.85" transform="translate(-25.758 -2.28)" fill="#37bb9a"/><path d="M88.628,87.379a1.659,1.659,0,0,0-.185-.021q-41.914,0-83.829-.015c-.536,0-.726.108-.771.7-.07.939.5.794,1.05.794q41.45,0,82.9,0c.278,0,.557-.017.835-.026V87.379" transform="translate(-0.898 -20.424)" fill="#656d78"/><path d="M43.784,93.164c-.9.025-1.8.053-2.692-.008-.667-.045-.952.186-1.175.821-1.883,5.359-3.807,10.7-5.719,16.051-.353.989-.351.989.751.99H35.97a7.19,7.19,0,0,1,1.113.01c.82.13,1.168-.2,1.418-.994.62-1.971,1.365-3.9,2.061-5.849,1.235-3.458,2.456-6.921,3.721-10.368.225-.616.015-.667-.5-.652" transform="translate(-7.948 -21.782)" fill="#fed1a5"/><path d="M80.275,93.156c-1.2.054-2.41.016-3.747.016.32.906.584,1.66.852,2.412q2.625,7.368,5.261,14.732c.1.278.066.713.581.706,1.277-.015,2.554,0,3.939,0-.382-1.077-.709-2-1.04-2.931q-2.533-7.109-5.068-14.219c-.131-.365-.2-.739-.778-.713" transform="translate(-17.895 -21.783)" fill="#fed1a5"/><path d="M68.441,104.815H53.485c-1.734,0-3.471.068-5.2-.026-1.014-.054-1.071.7-1.106,1.23-.039.583.613.264.925.265q10.543.034,21.087.018h.92c-.295-1.487-.295-1.487-1.67-1.487" transform="translate(-11.032 -24.503)" fill="#f6c191"/><path d="M56.877,5.387q3.85-.067,7.7,0c.695.013.61-.342.642-.788.04-.547-.092-.759-.7-.733-1.235.053-2.474.015-3.711.015-1.3,0-2.6.03-3.9-.013-.564-.019-.687.2-.637.692.041.4-.141.839.6.826" transform="translate(-13.158 -0.904)" fill="#fed1a5"/><path d="M118.312,87.339c-1.267.05-2.538.03-3.806.038a1.076,1.076,0,0,1,0,1.434c1.269.008,2.538,0,3.806.036.544.017.69-.2.68-.706-.009-.49-.032-.827-.68-.8" transform="translate(-26.775 -20.422)" fill="#434a54"/><path d="M114.506,87.39v1.433a1.077,1.077,0,0,0,0-1.433" transform="translate(-26.775 -20.435)" fill="#434a54"/><path d="M89.862,40.028a5.924,5.924,0,0,0,6.05-9.529,9.5,9.5,0,0,0-2.98-2.161h.874c2.075,0,4.15.008,6.224,0,1.53-.008,2.249-1.131,1.417-2.424a3.333,3.333,0,0,1,.024-4.115c.816-1.215.066-2.371-1.4-2.377-2.818-.012-5.636-.008-8.455,0-1.22,0-1.745.527-1.748,1.745-.007,2.2-.011,4.4,0,6.6,0,.5-.06.8-.643,1.013a5.9,5.9,0,0,0-3.807,5.8,5.981,5.981,0,0,0,4.435,5.453M95.105,22.39h2.786a2.424,2.424,0,0,0,0,2.973c-1.63,0-3.1-.008-4.577.005-.363,0-.51-.133-.472-.486a.623.623,0,0,0,0-.093c-.14-2.4-.14-2.4,2.26-2.4m-5.234,9.435c0,.786-.008,1.466,0,2.145.018,1.1.57,1.775,1.459,1.793.924.018,1.5-.67,1.511-1.833.009-.673,0-1.345,0-2.044A2.663,2.663,0,0,1,94.292,34.8a3.025,3.025,0,0,1-2.77,2.454,2.944,2.944,0,0,1-3-2.141,2.746,2.746,0,0,1,1.346-3.287" transform="translate(-19.973 -4.539)"/><path d="M34.346,52.306a1.867,1.867,0,0,0,1.526-.748,35.36,35.36,0,0,1,5.092-4.177A47.34,47.34,0,0,1,59.9,39.711a45.308,45.308,0,0,1,4.866-.582c-.685,1.273-.639,1.943.1,2.482s1.4.375,2.345-.563c.814-.806,1.625-1.616,2.445-2.416a1.36,1.36,0,0,0,.312-1.912,24.432,24.432,0,0,0-3.486-3.454,1.266,1.266,0,0,0-1.775.178,1.34,1.34,0,0,0-.193,1.853c.165.246.355.477.6.8a57.5,57.5,0,0,0-8.055,1.129A48.851,48.851,0,0,0,36.182,47.241a21.916,21.916,0,0,0-2.771,2.607,1.375,1.375,0,0,0-.265,1.555,1.434,1.434,0,0,0,1.2.9" transform="translate(-7.719 -7.711)"/><path d="M23.383,70.131a5.942,5.942,0,1,0-5.906-6.025,6,6,0,0,0,5.906,6.025m.04-8.911a2.969,2.969,0,1,1-2.973,3.036,2.991,2.991,0,0,1,2.973-3.036" transform="translate(-4.087 -13.62)"/><path d="M50.649,19.981c.036.734-1.076,1.233-1.628,1.889a1.485,1.485,0,0,0-.016,2.164,1.461,1.461,0,0,0,2.094-.052,17.242,17.242,0,0,0,1.447-1.441c.328-.365.559-.365.889,0a16.125,16.125,0,0,0,1.522,1.5,1.422,1.422,0,0,0,2.018,0,1.44,1.44,0,0,0,.1-2.016c-.552-.739-1.8-1.267-1.732-2.031.064-.727,1.14-1.358,1.753-2.048a1.434,1.434,0,0,0,.34-1.075,1.5,1.5,0,0,0-.886-1.175,1.455,1.455,0,0,0-1.7.359c-.618.558-1.177,1.566-1.818,1.612-.742.054-1.237-1.063-1.892-1.615A1.491,1.491,0,0,0,48.974,16a1.474,1.474,0,0,0,.081,2.161c.552.621,1.564,1.191,1.594,1.822" transform="translate(-11.35 -3.635)"/><path d="M21.558,33.526c.08.672-.875,1.088-1.37,1.624-.871.942-1,1.752-.329,2.436s1.515.58,2.43-.309c.067-.064.132-.131.2-.2,1.389-1.384,1.389-1.384,2.78,0,1.081,1.077,1.909,1.234,2.628.5s.55-1.537-.539-2.628c-1.368-1.371-1.37-1.372.036-2.78a2.411,2.411,0,0,0,.936-1.574,1.493,1.493,0,0,0-.774-1.266A1.275,1.275,0,0,0,26,29.447a20.9,20.9,0,0,0-1.676,1.6c-.338.36-.559.355-.891,0a14.379,14.379,0,0,0-1.6-1.546,1.411,1.411,0,0,0-2.253.51c-.389.83.043,1.418.589,1.974.5.507,1.327.982,1.394,1.545" transform="translate(-4.542 -6.81)"/><path d="M82.51,59.392c1.365,1.368,1.367,1.37-.042,2.78a2.408,2.408,0,0,0-.933,1.574,1.5,1.5,0,0,0,.777,1.266,1.277,1.277,0,0,0,1.559-.115,20.781,20.781,0,0,0,1.676-1.6c.34-.364.564-.348.89.009A15.412,15.412,0,0,0,87.96,64.8a1.422,1.422,0,0,0,2.242-.3c.524-.868.1-1.524-.5-2.138-.5-.5-1.328-.984-1.391-1.545-.077-.67.876-1.087,1.371-1.623.87-.942,1-1.754.324-2.436s-1.514-.576-2.43.314c-.067.065-.131.131-.2.2-1.386,1.382-1.386,1.382-2.781-.008-1.079-1.076-1.909-1.232-2.627-.495s-.546,1.535.544,2.628" transform="translate(-19.066 -13.167)"/><path d="M60.857,68.575a1.479,1.479,0,1,0-2.11-2.072,9.247,9.247,0,0,0-1.181,1.181c-.47.589-.853.679-1.355.031a9,9,0,0,0-1.178-1.184,1.483,1.483,0,1,0-2.107,2.08,19.922,19.922,0,0,0,1.443,1.447c.332.3.325.522,0,.823a19.77,19.77,0,0,0-1.443,1.447,1.471,1.471,0,0,0-.048,2.16,1.493,1.493,0,0,0,2.164-.082c.07-.061.133-.13.2-.194.537-.5,1.039-1.357,1.623-1.419.627-.066,1.053.917,1.618,1.387a4.325,4.325,0,0,0,.73.562,1.464,1.464,0,0,0,2.112-1.3,1.805,1.805,0,0,0-.593-1.221c-.431-.444-.854-.9-1.318-1.309-.37-.327-.361-.562,0-.889a17.013,17.013,0,0,0,1.441-1.447" transform="translate(-12.259 -15.437)"/><path d="M92.43,41.041A3.025,3.025,0,0,0,95.2,38.586a2.661,2.661,0,0,0-1.447-2.913c0,.7.008,1.371,0,2.044-.015,1.164-.587,1.852-1.512,1.833-.888-.018-1.44-.689-1.459-1.792-.011-.68,0-1.36,0-2.145A2.745,2.745,0,0,0,89.432,38.9a2.944,2.944,0,0,0,3,2.141" transform="translate(-20.88 -8.328)" fill="#f3f5f8"/><path d="M95.1,25.792c-.038.353.109.49.472.486,1.473-.014,2.947-.005,4.577-.005a2.424,2.424,0,0,1,0-2.973H97.356c-2.4,0-2.4,0-2.259,2.4a.623.623,0,0,1,0,.093" transform="translate(-22.225 -5.448)" fill="#ec5565"/><path d="M24.371,68.065a2.969,2.969,0,1,0-3.012-2.9,2.99,2.99,0,0,0,3.012,2.9m-.008-4.447a1.478,1.478,0,0,1,.011,2.955A1.556,1.556,0,0,1,22.88,65.1a1.54,1.54,0,0,1,1.482-1.481" transform="translate(-4.994 -14.527)" fill="#f3f5f8"/><path d="M24.838,67.029a1.478,1.478,0,0,0-.011-2.955,1.539,1.539,0,0,0-1.482,1.481,1.556,1.556,0,0,0,1.493,1.474" transform="translate(-5.459 -14.983)" fill="#030303"/></g></g></svg>