<svg xmlns="http://www.w3.org/2000/svg" xmlns:xlink="http://www.w3.org/1999/xlink" width="138.129" height="111.204" viewBox="0 0 138.129 111.204"><defs><clipPath id="a"><rect width="138.129" height="111.205" fill="none"/></clipPath><clipPath id="c"><rect width="134.033" height="63.132" fill="none"/></clipPath><clipPath id="e"><rect width="21.354" height="33.111" fill="none"/></clipPath></defs><g clip-path="url(#a)"><g clip-path="url(#a)"><g transform="translate(4.096 48.073)" opacity="0.3" style="mix-blend-mode:multiply;isolation:isolate"><g clip-path="url(#c)"><path d="M115.26,153.649,40.741,142.561l-28.6,39.795c.064,2.426,2.322,4.847,6.777,6.7,9,3.74,23.55,3.74,32.491,0,.09-.037.173-.077.261-.115l3.789,6.292.491,3.76c.384,2.4,3.151,4.477,8.234,5.681,10.268,2.432,26.085.368,35.321-4.61l9.868-5.938,36.8-21.369Z" transform="translate(-12.145 -142.561)" fill="#294266"/></g></g></g><path d="M177.132,158.082V169.76l-35.764,20.648L72.734,150.522V138.845Z" transform="translate(-48.208 -92.025)" fill="#4b964b"/><path d="M276.268,216.543v11.678l35.764-20.649V195.894Z" transform="translate(-183.108 -129.837)" fill="#3c7f3c"/><path d="M72.728,98.26l68.635,39.887L177.127,117.5,108.492,77.612Z" transform="translate(-48.203 -51.441)" fill="#77c677"/><g clip-path="url(#a)"><path d="M206.463,149.9a15.67,15.67,0,0,1,7.743,1.849c1.91,1.11,2.962,2.541,2.959,4.027s-1.071,2.941-3.011,4.06a15.8,15.8,0,0,1-7.766,1.849h0a15.668,15.668,0,0,1-7.742-1.848c-1.91-1.11-2.961-2.54-2.959-4.027s1.071-2.941,3.011-4.06a15.8,15.8,0,0,1,7.767-1.85" transform="translate(-129.699 -99.35)" fill="#55a555"/><path d="M167.782,132.777a.714.714,0,0,1-.361-.1l-9.965-5.791a.719.719,0,0,1,.723-1.244l9.966,5.791a.72.72,0,0,1-.362,1.341" transform="translate(-104.123 -83.211)" fill="#55a555"/><path d="M274.826,194.987a.72.72,0,0,1-.361-.1L264.5,189.1a.719.719,0,1,1,.723-1.244l9.965,5.792a.719.719,0,0,1-.362,1.341" transform="translate(-175.071 -124.444)" fill="#55a555"/><path d="M82.456,92.642l16.308-9.416h0l9.724-5.614,9.66,5.614,48.56,28.219,10.416,6.054-9.852,5.686-16.184,9.344-9.728,5.618-9.651-5.61L82.384,103.87,72.728,98.26Zm3.469,8.344,51.221,29.765,4.225,2.457,4.268-2.465,17.752-10.249,5.212-3.008-5.529-3.213L112.713,85.007l-4.225-2.457-4.268,2.465L85.972,95.547l-4.717,2.726Z" transform="translate(-48.204 -51.441)" fill="#55a555"/><path d="M338.557,180.773a9.653,9.653,0,0,1,2.9-2.435c.239-.137.487-.269.739-.393L352.609,184l-9.852,5.686a13.351,13.351,0,0,1-1.371-.7,10.026,10.026,0,0,1-2.512-2,4.969,4.969,0,0,1-1.384-3.307,4.8,4.8,0,0,1,1.068-2.914" transform="translate(-223.685 -117.94)" fill="#55a555"/><path d="M253.081,234.477a25,25,0,0,1,8.494-.008,18.668,18.668,0,0,1,5.451,1.786l-9.728,5.618-9.651-5.609a18.816,18.816,0,0,1,5.434-1.786" transform="translate(-164.138 -155.166)" fill="#55a555"/><path d="M159.674,77.612l9.66,5.614a18.8,18.8,0,0,1-5.439,1.781,24.4,24.4,0,0,1-4.272.368,24.706,24.706,0,0,1-4.221-.359c-.444-.077-.884-.167-1.316-.269a18.009,18.009,0,0,1-4.136-1.521Z" transform="translate(-99.386 -51.441)" fill="#55a555"/><path d="M82.456,122.184c.175.094.35.192.521.291a9.194,9.194,0,0,1,2.995,2.615,4.461,4.461,0,0,1-.047,5.438,9.356,9.356,0,0,1-3.016,2.6c-.171.1-.346.2-.525.286L72.728,127.8Z" transform="translate(-48.204 -80.983)" fill="#55a555"/><path d="M219.978,156.748l-.923-.533a.728.728,0,0,0-.658,0l-.735.427a6.9,6.9,0,0,0-2.986-.549,5.5,5.5,0,0,0-2.51.686c-.743.432-1.113.87-1.105,1.31a2.32,2.32,0,0,0,.678,1.432c.036.053.155.19.348.409a5.341,5.341,0,0,1,.8,1.093q.174.382-.253.63a2.179,2.179,0,0,1-2.285-.184,4.945,4.945,0,0,1-1.3-1.057,3.4,3.4,0,0,1-.426-.619.406.406,0,0,0-.163-.159,1,1,0,0,0-.911,0l-1.04.6c-.147.085-.2.214-.123.329a6.112,6.112,0,0,0,1.76,1.6l-.861.5a.2.2,0,0,0,0,.381l.924.533a.727.727,0,0,0,.657,0l.9-.524a6.589,6.589,0,0,0,2.859.494,5.639,5.639,0,0,0,2.577-.726,2.067,2.067,0,0,0,.978-.954,1.194,1.194,0,0,0-.075-.986,5.055,5.055,0,0,0-.863-1.139c-.334-.363-.571-.631-.7-.806a.822.822,0,0,1-.2-.52c0-.173.126-.33.366-.47a1.683,1.683,0,0,1,1.065-.192,3.19,3.19,0,0,1,1.22.425,3.137,3.137,0,0,1,1.055.947,3.774,3.774,0,0,1,.281.484.416.416,0,0,0,.171.169,1,1,0,0,0,.912,0l1.052-.611c.148-.086.2-.214.123-.329a4.457,4.457,0,0,0-.479-.606,5.589,5.589,0,0,0-.836-.7l.695-.4a.2.2,0,0,0,0-.381" transform="translate(-136.775 -103.452)" fill="#77c677"/><path d="M168.774,123.069v11.678L133.01,155.395,64.376,115.509V103.831Z" transform="translate(-42.668 -68.819)" fill="#4b964b"/><path d="M267.91,181.53v11.678l35.764-20.649V160.881Z" transform="translate(-177.569 -106.631)" fill="#3c7f3c"/><path d="M64.37,63.247l68.635,39.887,35.764-20.648L100.134,42.6Z" transform="translate(-42.664 -28.234)" fill="#77c677"/><path d="M198.105,114.883a15.67,15.67,0,0,1,7.743,1.849c1.911,1.11,2.962,2.541,2.959,4.027s-1.071,2.941-3.011,4.06a15.8,15.8,0,0,1-7.766,1.849h0a15.668,15.668,0,0,1-7.742-1.848c-1.91-1.11-2.961-2.54-2.959-4.027s1.071-2.941,3.011-4.06a15.8,15.8,0,0,1,7.767-1.85" transform="translate(-124.159 -76.144)" fill="#55a555"/><path d="M159.424,97.764a.714.714,0,0,1-.361-.1L149.1,91.875a.719.719,0,0,1,.723-1.244l9.965,5.792a.719.719,0,0,1-.362,1.341" transform="translate(-98.584 -60.005)" fill="#55a555"/><path d="M266.468,159.974a.714.714,0,0,1-.361-.1l-9.965-5.791a.719.719,0,1,1,.723-1.244l9.965,5.791a.719.719,0,0,1-.362,1.341" transform="translate(-169.531 -101.237)" fill="#55a555"/><path d="M74.1,57.629l16.308-9.416h0l9.724-5.614,9.66,5.614,48.56,28.219,10.416,6.054-9.852,5.686-16.184,9.344-9.728,5.618-9.651-5.61L74.026,68.857,64.37,63.247Zm3.469,8.344,51.221,29.765,4.225,2.457,4.268-2.465L155.034,85.48l5.212-3.008-5.529-3.213L104.355,49.994l-4.226-2.457L95.862,50,77.614,60.534,72.9,63.26Z" transform="translate(-42.664 -28.234)" fill="#55a555"/><path d="M330.2,145.759a9.643,9.643,0,0,1,2.9-2.435c.239-.137.487-.269.739-.393l10.416,6.054-9.852,5.686a13.349,13.349,0,0,1-1.371-.7,10.026,10.026,0,0,1-2.512-2,4.969,4.969,0,0,1-1.384-3.307,4.8,4.8,0,0,1,1.068-2.914" transform="translate(-218.145 -94.733)" fill="#55a555"/><path d="M244.723,199.464a25,25,0,0,1,8.493-.008,18.667,18.667,0,0,1,5.452,1.786l-9.728,5.618-9.651-5.609a18.817,18.817,0,0,1,5.434-1.786" transform="translate(-158.599 -131.959)" fill="#55a555"/><path d="M151.317,42.6l9.66,5.614a18.786,18.786,0,0,1-5.439,1.781,24.362,24.362,0,0,1-4.272.368A24.671,24.671,0,0,1,147.044,50c-.444-.077-.884-.167-1.316-.269a18,18,0,0,1-4.136-1.521Z" transform="translate(-93.847 -28.234)" fill="#55a555"/><path d="M74.1,87.171c.175.094.35.192.521.291a9.2,9.2,0,0,1,2.995,2.614,4.46,4.46,0,0,1-.047,5.439,9.355,9.355,0,0,1-3.016,2.6c-.171.1-.346.2-.525.286L64.37,92.789Z" transform="translate(-42.664 -57.776)" fill="#55a555"/><path d="M211.621,121.735l-.923-.533a.727.727,0,0,0-.658,0l-.735.427a6.905,6.905,0,0,0-2.986-.549,5.5,5.5,0,0,0-2.51.686c-.743.432-1.112.87-1.1,1.31a2.316,2.316,0,0,0,.678,1.432c.036.053.155.19.348.409a5.366,5.366,0,0,1,.8,1.093q.173.382-.253.63a2.179,2.179,0,0,1-2.285-.184A4.936,4.936,0,0,1,200.7,125.4a3.371,3.371,0,0,1-.426-.619.408.408,0,0,0-.163-.159,1,1,0,0,0-.911,0l-1.039.6c-.147.085-.2.215-.123.329a6.116,6.116,0,0,0,1.76,1.6l-.861.5a.2.2,0,0,0,0,.381l.923.533a.726.726,0,0,0,.657,0l.9-.524a6.587,6.587,0,0,0,2.859.494,5.637,5.637,0,0,0,2.577-.726,2.067,2.067,0,0,0,.978-.954,1.194,1.194,0,0,0-.075-.986,5.051,5.051,0,0,0-.863-1.139c-.335-.363-.571-.631-.7-.806a.818.818,0,0,1-.2-.52q.007-.26.366-.47a1.681,1.681,0,0,1,1.064-.192,3.191,3.191,0,0,1,1.221.425,3.132,3.132,0,0,1,1.055.947,3.773,3.773,0,0,1,.282.484.417.417,0,0,0,.171.169,1,1,0,0,0,.911,0l1.052-.611c.148-.086.2-.214.123-.329a4.459,4.459,0,0,0-.48-.606,5.6,5.6,0,0,0-.836-.7l.695-.4a.2.2,0,0,0,0-.381" transform="translate(-131.236 -80.245)" fill="#77c677"/><path d="M175.567,88.278V99.956L139.8,120.6,71.169,80.719V69.041Z" transform="translate(-47.17 -45.76)" fill="#4b964b"/><path d="M274.7,146.74v11.678l35.764-20.649V126.09Z" transform="translate(-182.071 -83.572)" fill="#3c7f3c"/><path d="M71.163,28.456,139.8,68.343l35.764-20.648L106.927,7.808Z" transform="translate(-47.166 -5.175)" fill="#77c677"/><path d="M204.9,80.092a15.67,15.67,0,0,1,7.743,1.849c1.91,1.11,2.962,2.541,2.959,4.027s-1.071,2.941-3.011,4.06a15.8,15.8,0,0,1-7.766,1.849h0a15.668,15.668,0,0,1-7.742-1.848c-1.91-1.11-2.961-2.54-2.959-4.027s1.071-2.941,3.011-4.06a15.8,15.8,0,0,1,7.767-1.85" transform="translate(-128.662 -53.084)" fill="#55a555"/><path d="M166.217,62.973a.714.714,0,0,1-.361-.1l-9.965-5.791a.719.719,0,0,1,.723-1.244l9.965,5.792a.719.719,0,0,1-.362,1.341" transform="translate(-103.086 -36.946)" fill="#55a555"/><path d="M273.261,125.183a.717.717,0,0,1-.361-.1l-9.965-5.792a.719.719,0,1,1,.723-1.244l9.966,5.792a.719.719,0,0,1-.362,1.341" transform="translate(-174.034 -78.178)" fill="#55a555"/><path d="M80.891,22.839,97.2,13.423h0l9.724-5.614,9.66,5.614,48.56,28.219L175.562,47.7l-9.852,5.686-16.184,9.344L139.8,68.344l-9.651-5.61L80.819,34.067l-9.656-5.609Zm3.469,8.344,51.221,29.765,4.225,2.457,4.268-2.465L161.827,50.69l5.213-3.008-5.529-3.213L111.148,15.2l-4.226-2.457-4.268,2.465L84.407,25.744,79.691,28.47Z" transform="translate(-47.166 -5.176)" fill="#55a555"/><path d="M336.992,110.969a9.644,9.644,0,0,1,2.9-2.435c.239-.137.487-.269.739-.393l10.416,6.054-9.852,5.686a13.284,13.284,0,0,1-1.371-.7,10.026,10.026,0,0,1-2.512-2,4.97,4.97,0,0,1-1.384-3.307,4.8,4.8,0,0,1,1.068-2.914" transform="translate(-222.648 -71.675)" fill="#55a555"/><path d="M251.516,164.673a25,25,0,0,1,8.493-.008,18.667,18.667,0,0,1,5.452,1.786l-9.728,5.618-9.651-5.609a18.815,18.815,0,0,1,5.434-1.786" transform="translate(-163.101 -108.9)" fill="#55a555"/><path d="M158.11,7.808l9.66,5.614a18.8,18.8,0,0,1-5.438,1.781,24.362,24.362,0,0,1-4.272.368,24.672,24.672,0,0,1-4.221-.359c-.444-.077-.884-.167-1.316-.269a17.991,17.991,0,0,1-4.136-1.521Z" transform="translate(-98.349 -5.175)" fill="#55a555"/><path d="M80.891,52.38c.175.094.35.193.521.291a9.2,9.2,0,0,1,2.995,2.614,4.46,4.46,0,0,1-.047,5.438,9.347,9.347,0,0,1-3.016,2.6c-.171.1-.346.2-.525.286L71.163,58Z" transform="translate(-47.166 -34.717)" fill="#55a555"/><path d="M218.414,86.944l-.923-.533a.728.728,0,0,0-.658,0l-.735.427a6.9,6.9,0,0,0-2.986-.549,5.5,5.5,0,0,0-2.51.686c-.743.432-1.113.87-1.105,1.31a2.32,2.32,0,0,0,.678,1.432c.036.053.155.19.348.409a5.343,5.343,0,0,1,.8,1.093q.173.382-.253.63a2.179,2.179,0,0,1-2.285-.184,4.944,4.944,0,0,1-1.3-1.057,3.4,3.4,0,0,1-.426-.619.406.406,0,0,0-.163-.158,1,1,0,0,0-.911,0l-1.04.6c-.147.085-.2.214-.123.329a6.113,6.113,0,0,0,1.76,1.6l-.861.5a.2.2,0,0,0,0,.381l.923.533a.727.727,0,0,0,.657,0l.9-.524a6.588,6.588,0,0,0,2.859.494,5.639,5.639,0,0,0,2.577-.726,2.067,2.067,0,0,0,.978-.954,1.194,1.194,0,0,0-.075-.986,5.054,5.054,0,0,0-.863-1.139c-.334-.363-.571-.631-.7-.806a.822.822,0,0,1-.2-.52q.007-.26.366-.47a1.684,1.684,0,0,1,1.065-.192,3.19,3.19,0,0,1,1.22.425,3.133,3.133,0,0,1,1.055.947,3.772,3.772,0,0,1,.281.484.416.416,0,0,0,.171.169,1,1,0,0,0,.912,0l1.052-.611c.148-.086.2-.214.123-.329a4.458,4.458,0,0,0-.479-.606,5.591,5.591,0,0,0-.836-.7l.695-.4a.2.2,0,0,0,0-.381" transform="translate(-135.738 -57.186)" fill="#77c677"/><path d="M80.891,15.281,97.2,5.865h0L106.927.251l9.66,5.614,48.56,28.219,10.416,6.054-9.852,5.686-16.184,9.344L139.8,60.786l-9.651-5.609L80.819,26.508,71.163,20.9Z" transform="translate(-47.166 -0.166)" fill="none" stroke="#e9f3ff" stroke-linecap="round" stroke-linejoin="round" stroke-width="0.5"/><g transform="translate(109.377 63.824)" opacity="0.3" style="mix-blend-mode:multiply;isolation:isolate"><g clip-path="url(#e)"><path d="M336.521,214.836a25.524,25.524,0,0,0,4.469-10.75,20.049,20.049,0,0,0-.657-10.716c-1.067-2.644-2.788-4.1-4.846-4.1-2.075,0-4.333,1.483-6.36,4.167a25.529,25.529,0,0,0-4.468,10.75h0a27.65,27.65,0,0,0,.3,9.934,34.448,34.448,0,0,0,9.457,6.817c7.558,3.592,14.59-.17,9.655-4.256-2.751-2.278-7.548-1.851-7.548-1.851" transform="translate(-324.361 -189.274)" fill="#294266"/></g></g><path d="M363.093,283.442h0" transform="translate(-240.543 -187.863)" fill="#ff9d08"/><path d="M344.861,218.71a10.3,10.3,0,0,0,3.917-4.084,21.39,21.39,0,0,0,2.484-7.593l.52-.949V200.21l-.5-.914a21.265,21.265,0,0,0-2.5-7.7,10.1,10.1,0,0,0-3.941-4.052l-.372-.678h-3.734c-2.389.046-4.773,1.646-6.6,4.8-3.683,6.38-3.683,16.695,0,23.033,1.818,3.128,4.193,4.7,6.575,4.729h3.756Z" transform="translate(-219.631 -123.852)" fill="#ff9d08"/><path d="M358.6,214.619c3.685-6.382,3.685-16.692,0-23.033s-9.657-6.307-13.342.075-3.683,16.695,0,23.033,9.658,6.305,13.342-.075" transform="translate(-227.004 -123.845)" fill="#ffdc4c"/><path d="M358.6,214.619c3.685-6.382,3.685-16.692,0-23.033s-9.657-6.307-13.342.075-3.683,16.695,0,23.033,9.658,6.305,13.342-.075" transform="translate(-227.004 -123.845)" fill="#ffdc4c"/><path d="M362.429,205.254a22.153,22.153,0,0,0-2.614-10.947c-1.57-2.7-3.592-4.187-5.693-4.184-2.119,0-4.158,1.515-5.741,4.257a22.332,22.332,0,0,0-2.615,10.981h0a22.153,22.153,0,0,0,2.613,10.946c1.57,2.7,3.592,4.187,5.693,4.184,2.119,0,4.158-1.515,5.741-4.257a22.332,22.332,0,0,0,2.616-10.981" transform="translate(-229.17 -126.011)" fill="#ff9d08"/><path d="M360.31,207.07a22.156,22.156,0,0,0-2.614-10.947c-1.57-2.7-3.592-4.187-5.693-4.184-2.119,0-4.158,1.514-5.741,4.257a22.332,22.332,0,0,0-2.615,10.981h0a22.152,22.152,0,0,0,2.613,10.946c1.57,2.7,3.592,4.187,5.693,4.184,2.119,0,4.158-1.514,5.741-4.257a22.332,22.332,0,0,0,2.616-10.981" transform="translate(-227.766 -127.215)" fill="#ffdc4c"/><path d="M366.8,226.721l.675-1.169a.921.921,0,0,0,0-.832l-.54-.93a8.739,8.739,0,0,0,.7-3.779,6.961,6.961,0,0,0-.869-3.176q-.82-1.411-1.658-1.4a2.933,2.933,0,0,0-1.812.857c-.067.047-.24.2-.518.441a6.753,6.753,0,0,1-1.384,1.017c-.322.146-.587.041-.8-.32a2.758,2.758,0,0,1,.233-2.891,6.255,6.255,0,0,1,1.338-1.639,4.31,4.31,0,0,1,.784-.539.521.521,0,0,0,.2-.206,1.269,1.269,0,0,0,0-1.153l-.765-1.316c-.108-.185-.271-.253-.416-.155a7.742,7.742,0,0,0-2.024,2.227l-.633-1.089a.255.255,0,0,0-.482,0l-.674,1.169a.918.918,0,0,0,0,.832l.663,1.141a8.335,8.335,0,0,0-.626,3.619,7.139,7.139,0,0,0,.918,3.262,2.615,2.615,0,0,0,1.208,1.237,1.509,1.509,0,0,0,1.248-.094A6.393,6.393,0,0,0,363,220.747c.459-.423.8-.723,1.02-.89a1.037,1.037,0,0,1,.658-.251c.22.005.419.16.595.463a2.13,2.13,0,0,1,.243,1.347,4.034,4.034,0,0,1-.538,1.545,3.96,3.96,0,0,1-1.2,1.336,4.745,4.745,0,0,1-.613.356.526.526,0,0,0-.214.216,1.263,1.263,0,0,0,0,1.154l.773,1.331c.109.187.272.253.416.155a5.663,5.663,0,0,0,.768-.607,7.076,7.076,0,0,0,.892-1.058l.511.879a.255.255,0,0,0,.482,0" transform="translate(-237.313 -138.847)" fill="#ff9d08"/><path d="M184.7,213.526v.171c0-.057,0-.114,0-.171" transform="translate(-122.42 -141.523)" fill="#ff9d08"/><path d="M118.975,191.641a10.45,10.45,0,0,0-4.147-3.977,21.711,21.711,0,0,0-7.709-2.523l-.963-.528h-5.966l-.927.508a21.585,21.585,0,0,0-7.822,2.542,10.255,10.255,0,0,0-4.114,4l-.688.377v3.792c.046,2.427,1.671,4.847,4.878,6.7,6.478,3.74,16.952,3.74,23.388,0,3.177-1.846,4.774-4.258,4.8-6.676v-3.814Z" transform="translate(-57.423 -122.36)" fill="#ff9d08"/><path d="M114.821,180.769c-6.48-3.742-16.949-3.742-23.388,0s-6.4,9.806.076,13.547,16.952,3.74,23.388,0,6.4-9.807-.076-13.547" transform="translate(-57.416 -117.952)" fill="#ffdc4c"/><path d="M105.311,181.282a22.5,22.5,0,0,0-11.116,2.654c-2.743,1.594-4.252,3.647-4.249,5.781,0,2.151,1.538,4.222,4.322,5.829a22.682,22.682,0,0,0,11.15,2.655h0a22.494,22.494,0,0,0,11.115-2.653c2.743-1.594,4.252-3.647,4.249-5.781,0-2.152-1.538-4.222-4.322-5.83a22.678,22.678,0,0,0-11.15-2.656" transform="translate(-59.615 -120.152)" fill="#ff9d08"/><path d="M107.155,183.433a22.5,22.5,0,0,0-11.116,2.655c-2.743,1.594-4.252,3.647-4.249,5.781,0,2.151,1.538,4.222,4.322,5.829a22.682,22.682,0,0,0,11.15,2.655h0a22.494,22.494,0,0,0,11.115-2.654c2.743-1.594,4.252-3.647,4.249-5.781,0-2.152-1.538-4.222-4.322-5.83a22.678,22.678,0,0,0-11.15-2.656" transform="translate(-60.838 -121.578)" fill="#ffdc4c"/><path d="M127.108,190.973l-1.187-.685a.934.934,0,0,0-.845,0l-.944.548a8.877,8.877,0,0,0-3.837-.705,7.071,7.071,0,0,0-3.226.882c-.955.555-1.43,1.118-1.42,1.683a2.978,2.978,0,0,0,.871,1.84c.047.068.2.243.448.526a6.872,6.872,0,0,1,1.033,1.4q.223.491-.325.809a2.8,2.8,0,0,1-2.936-.237,6.348,6.348,0,0,1-1.664-1.359,4.364,4.364,0,0,1-.547-.8.527.527,0,0,0-.209-.2,1.288,1.288,0,0,0-1.17,0l-1.336.776c-.188.109-.256.276-.158.422a7.877,7.877,0,0,0,2.262,2.056l-1.106.642a.259.259,0,0,0,0,.49l1.187.685a.935.935,0,0,0,.845,0l1.159-.673a8.466,8.466,0,0,0,3.674.635,7.254,7.254,0,0,0,3.312-.932,2.66,2.66,0,0,0,1.256-1.226,1.534,1.534,0,0,0-.1-1.268,6.485,6.485,0,0,0-1.109-1.464c-.429-.466-.734-.811-.9-1.036a1.055,1.055,0,0,1-.255-.668q.008-.334.47-.6a2.164,2.164,0,0,1,1.368-.247,4.1,4.1,0,0,1,1.568.546,4.02,4.02,0,0,1,1.356,1.217,4.793,4.793,0,0,1,.361.621.532.532,0,0,0,.219.218,1.282,1.282,0,0,0,1.172,0l1.352-.785c.191-.111.256-.276.158-.423a5.718,5.718,0,0,0-.616-.779,7.189,7.189,0,0,0-1.074-.905l.893-.519a.259.259,0,0,0,0-.49" transform="translate(-72.649 -126.01)" fill="#ff9d08"/><path d="M185.842,199.176v.171c0-.057,0-.114,0-.171" transform="translate(-123.175 -132.012)" fill="#ff9d08"/><path d="M120.114,177.291a10.45,10.45,0,0,0-4.147-3.977,21.712,21.712,0,0,0-7.709-2.523l-.963-.528h-5.966l-.927.509a21.586,21.586,0,0,0-7.822,2.542,10.255,10.255,0,0,0-4.114,4l-.688.377v3.792c.046,2.427,1.672,4.847,4.878,6.7,6.478,3.74,16.952,3.74,23.388,0,3.176-1.846,4.774-4.257,4.8-6.676v-3.814Z" transform="translate(-58.178 -112.849)" fill="#ff9d08"/><path d="M115.96,166.419c-6.48-3.742-16.949-3.742-23.388,0s-6.4,9.806.076,13.547,16.952,3.74,23.388,0,6.4-9.807-.076-13.547" transform="translate(-58.17 -108.441)" fill="#ffdc4c"/><path d="M106.45,166.932a22.5,22.5,0,0,0-11.116,2.654c-2.743,1.594-4.252,3.647-4.249,5.781,0,2.152,1.538,4.222,4.322,5.829a22.678,22.678,0,0,0,11.15,2.655h0a22.5,22.5,0,0,0,11.115-2.653c2.743-1.594,4.252-3.647,4.249-5.781,0-2.151-1.538-4.222-4.322-5.829a22.674,22.674,0,0,0-11.15-2.656" transform="translate(-60.37 -110.641)" fill="#ff9d08"/><path d="M108.294,169.083a22.5,22.5,0,0,0-11.116,2.654c-2.743,1.594-4.252,3.647-4.249,5.781,0,2.152,1.538,4.222,4.322,5.829A22.678,22.678,0,0,0,108.4,186h0a22.5,22.5,0,0,0,11.115-2.653c2.743-1.594,4.252-3.647,4.249-5.781,0-2.151-1.538-4.222-4.322-5.829a22.675,22.675,0,0,0-11.15-2.656" transform="translate(-61.593 -112.067)" fill="#ffdc4c"/><path d="M128.247,176.622l-1.187-.685a.935.935,0,0,0-.845,0l-.944.549a8.873,8.873,0,0,0-3.837-.706,7.071,7.071,0,0,0-3.226.882c-.955.555-1.43,1.118-1.42,1.683a2.979,2.979,0,0,0,.871,1.84c.047.068.2.243.448.525a6.866,6.866,0,0,1,1.033,1.405q.223.491-.325.809a2.8,2.8,0,0,1-2.936-.237,6.346,6.346,0,0,1-1.664-1.359,4.376,4.376,0,0,1-.547-.8.527.527,0,0,0-.209-.2,1.287,1.287,0,0,0-1.17,0l-1.336.776c-.188.11-.256.276-.158.423a7.867,7.867,0,0,0,2.262,2.055l-1.106.643a.259.259,0,0,0,0,.49l1.187.685a.934.934,0,0,0,.845,0l1.159-.673a8.466,8.466,0,0,0,3.674.635,7.25,7.25,0,0,0,3.312-.932,2.659,2.659,0,0,0,1.256-1.226,1.533,1.533,0,0,0-.1-1.267,6.494,6.494,0,0,0-1.109-1.465c-.429-.466-.734-.811-.9-1.035a1.055,1.055,0,0,1-.255-.668q.008-.334.47-.6a2.164,2.164,0,0,1,1.368-.247,4.1,4.1,0,0,1,1.568.546,4.021,4.021,0,0,1,1.356,1.217,4.775,4.775,0,0,1,.361.622.534.534,0,0,0,.219.217,1.283,1.283,0,0,0,1.172,0l1.352-.785c.191-.111.256-.276.158-.423a5.711,5.711,0,0,0-.616-.779,7.17,7.17,0,0,0-1.074-.905l.893-.519a.259.259,0,0,0,0-.489" transform="translate(-73.404 -116.498)" fill="#ff9d08"/><path d="M188.456,185.237v.171c0-.057,0-.114,0-.171" transform="translate(-124.907 -122.774)" fill="#ff9d08"/><path d="M122.728,163.352a10.454,10.454,0,0,0-4.147-3.977,21.719,21.719,0,0,0-7.709-2.522l-.963-.528h-5.966l-.927.508a21.6,21.6,0,0,0-7.822,2.542,10.256,10.256,0,0,0-4.114,4l-.688.377v3.792c.046,2.427,1.671,4.847,4.878,6.7,6.478,3.74,16.952,3.74,23.388,0,3.176-1.846,4.774-4.258,4.8-6.677v-3.814Z" transform="translate(-59.91 -103.61)" fill="#ff9d08"/><path d="M118.574,152.479c-6.48-3.742-16.949-3.742-23.388,0s-6.4,9.806.076,13.547,16.952,3.74,23.388,0,6.4-9.807-.076-13.547" transform="translate(-59.903 -99.202)" fill="#ffdc4c"/><path d="M109.065,152.992a22.5,22.5,0,0,0-11.116,2.655c-2.743,1.594-4.252,3.647-4.249,5.781,0,2.151,1.538,4.222,4.322,5.829a22.682,22.682,0,0,0,11.15,2.655h0a22.494,22.494,0,0,0,11.115-2.653c2.743-1.594,4.252-3.647,4.249-5.781,0-2.152-1.538-4.222-4.322-5.83a22.674,22.674,0,0,0-11.15-2.656" transform="translate(-62.104 -101.402)" fill="#ff9d08"/><path d="M110.908,155.143A22.5,22.5,0,0,0,99.792,157.8c-2.743,1.594-4.252,3.647-4.249,5.781,0,2.151,1.538,4.222,4.322,5.829a22.682,22.682,0,0,0,11.15,2.655h0a22.494,22.494,0,0,0,11.115-2.653c2.743-1.594,4.252-3.647,4.249-5.781,0-2.152-1.538-4.222-4.322-5.83a22.678,22.678,0,0,0-11.15-2.656" transform="translate(-63.325 -102.827)" fill="#ffdc4c"/><path d="M130.862,162.683,129.676,162a.935.935,0,0,0-.845,0l-.944.549a8.874,8.874,0,0,0-3.837-.706,7.071,7.071,0,0,0-3.226.882q-1.432.833-1.42,1.683a2.979,2.979,0,0,0,.871,1.84c.047.068.2.243.448.525a6.864,6.864,0,0,1,1.033,1.405q.223.491-.325.809a2.8,2.8,0,0,1-2.936-.237,6.354,6.354,0,0,1-1.664-1.359,4.377,4.377,0,0,1-.547-.8.527.527,0,0,0-.209-.2,1.288,1.288,0,0,0-1.17,0l-1.336.776c-.188.11-.256.276-.158.423a7.866,7.866,0,0,0,2.262,2.055l-1.106.643a.259.259,0,0,0,0,.49l1.187.685a.934.934,0,0,0,.845,0l1.159-.673a8.461,8.461,0,0,0,3.674.635,7.25,7.25,0,0,0,3.312-.932A2.659,2.659,0,0,0,126,169.265a1.534,1.534,0,0,0-.1-1.267,6.5,6.5,0,0,0-1.109-1.464c-.429-.466-.734-.811-.9-1.036a1.055,1.055,0,0,1-.255-.668q.008-.334.47-.6a2.164,2.164,0,0,1,1.368-.247,4.1,4.1,0,0,1,1.568.546,4.021,4.021,0,0,1,1.356,1.217,4.782,4.782,0,0,1,.361.622.534.534,0,0,0,.219.218,1.283,1.283,0,0,0,1.172,0l1.352-.785c.191-.111.256-.276.158-.423a5.713,5.713,0,0,0-.616-.779,7.205,7.205,0,0,0-1.074-.905l.893-.519a.259.259,0,0,0,0-.489" transform="translate(-75.137 -107.26)" fill="#ff9d08"/><path d="M186.981,170.624v.171c0-.057,0-.114,0-.171" transform="translate(-123.929 -113.088)" fill="#ff9d08"/><path d="M121.253,148.738a10.453,10.453,0,0,0-4.147-3.978,21.719,21.719,0,0,0-7.709-2.522l-.963-.528h-5.966l-.927.509a21.591,21.591,0,0,0-7.822,2.542,10.258,10.258,0,0,0-4.114,4l-.688.377v3.792c.046,2.427,1.671,4.847,4.878,6.7,6.478,3.74,16.952,3.74,23.388,0,3.176-1.846,4.774-4.257,4.8-6.676v-3.814Z" transform="translate(-58.933 -93.924)" fill="#ff9d08"/><path d="M117.1,137.866c-6.48-3.742-16.949-3.742-23.388,0s-6.4,9.806.076,13.547,16.952,3.74,23.388,0,6.4-9.807-.076-13.547" transform="translate(-58.925 -89.517)" fill="#ffdc4c"/><path d="M107.59,138.379a22.5,22.5,0,0,0-11.116,2.655c-2.743,1.594-4.252,3.647-4.249,5.781,0,2.151,1.538,4.222,4.322,5.829A22.678,22.678,0,0,0,107.7,155.3h0a22.494,22.494,0,0,0,11.115-2.654c2.743-1.594,4.252-3.647,4.249-5.781,0-2.152-1.538-4.222-4.322-5.83a22.678,22.678,0,0,0-11.15-2.656" transform="translate(-61.126 -91.716)" fill="#ff9d08"/><path d="M109.433,140.53a22.5,22.5,0,0,0-11.116,2.655c-2.743,1.594-4.252,3.647-4.249,5.781,0,2.151,1.538,4.222,4.322,5.829a22.678,22.678,0,0,0,11.15,2.655h0a22.494,22.494,0,0,0,11.115-2.654c2.743-1.594,4.252-3.647,4.249-5.781,0-2.152-1.538-4.222-4.322-5.83a22.678,22.678,0,0,0-11.15-2.656" transform="translate(-62.347 -93.142)" fill="#ffdc4c"/><path d="M129.387,148.07l-1.187-.685a.935.935,0,0,0-.845,0l-.944.549a8.874,8.874,0,0,0-3.837-.706,7.071,7.071,0,0,0-3.226.882q-1.432.833-1.42,1.683a2.979,2.979,0,0,0,.871,1.84c.047.068.2.243.448.525a6.866,6.866,0,0,1,1.033,1.405q.223.491-.325.809a2.8,2.8,0,0,1-2.936-.237,6.353,6.353,0,0,1-1.664-1.359,4.377,4.377,0,0,1-.547-.8.527.527,0,0,0-.209-.2,1.288,1.288,0,0,0-1.17,0l-1.336.776c-.188.11-.256.276-.158.423a7.867,7.867,0,0,0,2.262,2.055l-1.106.643a.259.259,0,0,0,0,.49l1.187.685a.933.933,0,0,0,.845,0l1.159-.673a8.461,8.461,0,0,0,3.674.635,7.246,7.246,0,0,0,3.312-.932,2.659,2.659,0,0,0,1.256-1.226,1.534,1.534,0,0,0-.1-1.267,6.5,6.5,0,0,0-1.109-1.464c-.429-.466-.734-.811-.9-1.036a1.055,1.055,0,0,1-.255-.668q.008-.334.47-.6a2.164,2.164,0,0,1,1.368-.247,4.1,4.1,0,0,1,1.568.546,4.02,4.02,0,0,1,1.356,1.217,4.769,4.769,0,0,1,.361.622.534.534,0,0,0,.219.217,1.283,1.283,0,0,0,1.172,0l1.352-.785c.191-.111.256-.276.158-.423a5.714,5.714,0,0,0-.616-.779,7.206,7.206,0,0,0-1.074-.905l.893-.519a.259.259,0,0,0,0-.489" transform="translate(-74.16 -97.574)" fill="#ff9d08"/><path d="M184.7,156.01v.171c0-.057,0-.114,0-.171" transform="translate(-122.42 -103.402)" fill="#ff9d08"/><path d="M118.975,134.125a10.453,10.453,0,0,0-4.147-3.978,21.719,21.719,0,0,0-7.709-2.522l-.963-.528h-5.966l-.927.509a21.591,21.591,0,0,0-7.822,2.542,10.258,10.258,0,0,0-4.114,4l-.688.377v3.792c.046,2.427,1.672,4.847,4.878,6.7,6.478,3.74,16.952,3.74,23.388,0,3.177-1.846,4.774-4.257,4.8-6.676v-3.813Z" transform="translate(-57.423 -84.239)" fill="#ff9d08"/><path d="M114.82,123.253c-6.48-3.742-16.949-3.742-23.388,0s-6.4,9.806.076,13.547,16.952,3.74,23.388,0,6.4-9.807-.076-13.547" transform="translate(-57.415 -79.831)" fill="#ffdc4c"/><path d="M105.311,123.766a22.5,22.5,0,0,0-11.116,2.654c-2.743,1.594-4.252,3.647-4.249,5.781,0,2.151,1.538,4.222,4.322,5.829a22.678,22.678,0,0,0,11.15,2.655h0a22.494,22.494,0,0,0,11.115-2.653c2.743-1.594,4.252-3.647,4.249-5.781,0-2.152-1.538-4.222-4.322-5.83a22.678,22.678,0,0,0-11.15-2.656" transform="translate(-59.615 -82.031)" fill="#ff9d08"/><path d="M107.155,125.917a22.5,22.5,0,0,0-11.116,2.655c-2.743,1.594-4.252,3.647-4.249,5.781,0,2.151,1.538,4.222,4.322,5.829a22.678,22.678,0,0,0,11.15,2.655h0a22.494,22.494,0,0,0,11.115-2.654c2.743-1.594,4.252-3.647,4.249-5.781,0-2.152-1.538-4.222-4.322-5.83a22.677,22.677,0,0,0-11.15-2.656" transform="translate(-60.838 -83.457)" fill="#ffdc4c"/><path d="M127.108,133.456l-1.187-.685a.936.936,0,0,0-.845,0l-.944.549a8.874,8.874,0,0,0-3.837-.705,7.067,7.067,0,0,0-3.226.882q-1.432.833-1.42,1.683a2.98,2.98,0,0,0,.871,1.841c.047.068.2.243.448.525A6.873,6.873,0,0,1,118,138.951c.148.327.041.6-.325.809a2.8,2.8,0,0,1-2.936-.237,6.368,6.368,0,0,1-1.664-1.359,4.375,4.375,0,0,1-.547-.8.525.525,0,0,0-.209-.2,1.286,1.286,0,0,0-1.17,0l-1.336.776c-.188.11-.256.276-.158.423a7.872,7.872,0,0,0,2.262,2.055l-1.106.642a.259.259,0,0,0,0,.49l1.187.685a.934.934,0,0,0,.845,0l1.159-.673a8.466,8.466,0,0,0,3.674.635,7.242,7.242,0,0,0,3.312-.932,2.659,2.659,0,0,0,1.256-1.226,1.533,1.533,0,0,0-.1-1.267,6.506,6.506,0,0,0-1.109-1.465c-.429-.466-.734-.811-.9-1.035a1.056,1.056,0,0,1-.255-.669c.005-.223.162-.425.47-.6a2.164,2.164,0,0,1,1.368-.247,4.1,4.1,0,0,1,1.568.546,4.022,4.022,0,0,1,1.356,1.217,4.775,4.775,0,0,1,.361.622.536.536,0,0,0,.219.217,1.285,1.285,0,0,0,1.172,0l1.352-.785c.191-.111.256-.276.158-.423a5.716,5.716,0,0,0-.616-.779,7.227,7.227,0,0,0-1.074-.905l.893-.519a.259.259,0,0,0,0-.489" transform="translate(-72.649 -87.889)" fill="#ff9d08"/><path d="M184.367,143.547v.171c0-.057,0-.114,0-.171" transform="translate(-122.197 -95.142)" fill="#ff9d08"/><path d="M118.639,121.662a10.453,10.453,0,0,0-4.147-3.978,21.719,21.719,0,0,0-7.709-2.522l-.963-.528H99.853l-.927.509a21.591,21.591,0,0,0-7.822,2.542,10.258,10.258,0,0,0-4.114,4l-.688.377v3.792c.046,2.427,1.671,4.847,4.878,6.7,6.478,3.74,16.952,3.74,23.388,0,3.176-1.846,4.774-4.258,4.8-6.677v-3.814Z" transform="translate(-57.2 -75.978)" fill="#ff9d08"/><path d="M114.485,110.79c-6.48-3.742-16.949-3.742-23.388,0s-6.4,9.806.076,13.547,16.952,3.74,23.388,0,6.4-9.807-.076-13.547" transform="translate(-57.193 -71.571)" fill="#ffdc4c"/><path d="M104.975,111.3a22.5,22.5,0,0,0-11.116,2.655c-2.743,1.594-4.252,3.647-4.249,5.781,0,2.152,1.538,4.222,4.322,5.829a22.678,22.678,0,0,0,11.15,2.655h0A22.494,22.494,0,0,0,116.2,125.57c2.743-1.594,4.252-3.647,4.249-5.781,0-2.151-1.538-4.222-4.322-5.829a22.675,22.675,0,0,0-11.15-2.656" transform="translate(-59.393 -73.771)" fill="#ff9d08"/><path d="M106.819,113.454A22.5,22.5,0,0,0,95.7,116.109c-2.743,1.594-4.252,3.647-4.249,5.781,0,2.151,1.538,4.222,4.322,5.829a22.682,22.682,0,0,0,11.15,2.655h0a22.494,22.494,0,0,0,11.115-2.653c2.743-1.594,4.252-3.647,4.249-5.781,0-2.152-1.538-4.222-4.322-5.83a22.675,22.675,0,0,0-11.15-2.656" transform="translate(-60.615 -75.196)" fill="#ffdc4c"/><path d="M126.772,120.994l-1.187-.685a.935.935,0,0,0-.845,0l-.944.549a8.874,8.874,0,0,0-3.837-.706,7.071,7.071,0,0,0-3.226.882q-1.432.833-1.42,1.683a2.979,2.979,0,0,0,.871,1.84c.047.068.2.243.448.525a6.864,6.864,0,0,1,1.033,1.405q.223.491-.325.809a2.8,2.8,0,0,1-2.936-.237,6.353,6.353,0,0,1-1.664-1.359,4.375,4.375,0,0,1-.547-.8.527.527,0,0,0-.209-.2,1.287,1.287,0,0,0-1.17,0l-1.336.776c-.188.11-.256.276-.158.423a7.867,7.867,0,0,0,2.262,2.055l-1.106.643a.259.259,0,0,0,0,.49l1.187.685a.934.934,0,0,0,.845,0l1.159-.673a8.466,8.466,0,0,0,3.674.635,7.25,7.25,0,0,0,3.312-.932,2.658,2.658,0,0,0,1.256-1.226,1.533,1.533,0,0,0-.1-1.267,6.494,6.494,0,0,0-1.109-1.464c-.429-.466-.734-.811-.9-1.035a1.055,1.055,0,0,1-.255-.668q.008-.334.47-.6a2.164,2.164,0,0,1,1.368-.247,4.1,4.1,0,0,1,1.568.546,4.02,4.02,0,0,1,1.356,1.217,4.775,4.775,0,0,1,.361.622.534.534,0,0,0,.219.218,1.283,1.283,0,0,0,1.172,0l1.352-.785c.191-.111.256-.276.158-.423a5.716,5.716,0,0,0-.616-.779,7.207,7.207,0,0,0-1.074-.905l.893-.519a.259.259,0,0,0,0-.489" transform="translate(-72.426 -79.629)" fill="#ff9d08"/><path d="M187.256,127.366v.171c0-.057,0-.114,0-.171" transform="translate(-124.112 -84.417)" fill="#ff9d08"/><path d="M121.527,105.481a10.453,10.453,0,0,0-4.147-3.978,21.718,21.718,0,0,0-7.709-2.522l-.963-.528h-5.966l-.927.509a21.591,21.591,0,0,0-7.822,2.542,10.258,10.258,0,0,0-4.114,4l-.688.377v3.792c.046,2.427,1.671,4.847,4.878,6.7,6.478,3.74,16.952,3.74,23.388,0,3.176-1.846,4.774-4.258,4.8-6.677v-3.813Z" transform="translate(-59.114 -65.254)" fill="#ff9d08"/><path d="M117.374,94.608c-6.48-3.742-16.949-3.742-23.388,0s-6.4,9.806.076,13.547,16.952,3.74,23.388,0,6.4-9.807-.076-13.547" transform="translate(-59.108 -60.846)" fill="#ffdc4c"/><path d="M107.864,95.121a22.5,22.5,0,0,0-11.116,2.655C94,99.37,92.5,101.423,92.5,103.557c0,2.151,1.538,4.222,4.322,5.829a22.678,22.678,0,0,0,11.15,2.655h0a22.494,22.494,0,0,0,11.115-2.653c2.743-1.594,4.252-3.647,4.249-5.781,0-2.152-1.538-4.222-4.322-5.83a22.678,22.678,0,0,0-11.15-2.656" transform="translate(-61.308 -63.045)" fill="#ff9d08"/><path d="M109.708,97.272a22.5,22.5,0,0,0-11.116,2.654c-2.743,1.594-4.252,3.647-4.249,5.781,0,2.151,1.538,4.222,4.322,5.829a22.678,22.678,0,0,0,11.15,2.655h0a22.494,22.494,0,0,0,11.115-2.653c2.743-1.594,4.252-3.647,4.249-5.781,0-2.152-1.538-4.222-4.322-5.83a22.678,22.678,0,0,0-11.15-2.656" transform="translate(-62.53 -64.471)" fill="#ffdc4c"/><path d="M129.661,104.812l-1.187-.685a.935.935,0,0,0-.845,0l-.944.549a8.873,8.873,0,0,0-3.837-.706,7.071,7.071,0,0,0-3.226.882q-1.432.833-1.42,1.683a2.979,2.979,0,0,0,.871,1.84c.047.068.2.243.448.525a6.866,6.866,0,0,1,1.033,1.405q.223.491-.325.809a2.8,2.8,0,0,1-2.936-.237,6.36,6.36,0,0,1-1.664-1.359,4.377,4.377,0,0,1-.547-.8.527.527,0,0,0-.209-.2,1.287,1.287,0,0,0-1.17,0l-1.336.776c-.188.11-.256.276-.158.423a7.867,7.867,0,0,0,2.262,2.055l-1.106.643a.259.259,0,0,0,0,.49l1.187.685a.934.934,0,0,0,.845,0l1.159-.673a8.466,8.466,0,0,0,3.674.635,7.25,7.25,0,0,0,3.312-.932,2.659,2.659,0,0,0,1.256-1.226,1.533,1.533,0,0,0-.1-1.267,6.5,6.5,0,0,0-1.109-1.465c-.429-.466-.734-.811-.9-1.035a1.055,1.055,0,0,1-.255-.668c.005-.223.162-.425.47-.6a2.165,2.165,0,0,1,1.368-.247,4.1,4.1,0,0,1,1.568.546,4.02,4.02,0,0,1,1.356,1.217,4.774,4.774,0,0,1,.361.622.534.534,0,0,0,.219.217,1.283,1.283,0,0,0,1.172,0l1.352-.785c.191-.111.256-.276.158-.423a5.715,5.715,0,0,0-.616-.779,7.172,7.172,0,0,0-1.074-.905l.893-.519a.259.259,0,0,0,0-.489" transform="translate(-74.341 -68.903)" fill="#ff9d08"/><path d="M185.781,112.753v.171c0-.057,0-.114,0-.171" transform="translate(-123.134 -74.732)" fill="#ff9d08"/><path d="M120.052,90.867a10.453,10.453,0,0,0-4.147-3.978,21.719,21.719,0,0,0-7.709-2.522l-.963-.528h-5.966l-.927.509a21.591,21.591,0,0,0-7.822,2.542,10.258,10.258,0,0,0-4.114,4l-.688.377V95.06c.046,2.427,1.672,4.847,4.878,6.7,6.478,3.74,16.952,3.74,23.388,0,3.177-1.846,4.774-4.258,4.8-6.677V91.268Z" transform="translate(-58.137 -55.568)" fill="#ff9d08"/><path d="M115.9,80c-6.48-3.742-16.949-3.742-23.388,0s-6.4,9.806.076,13.547,16.952,3.74,23.388,0,6.4-9.807-.076-13.547" transform="translate(-58.13 -51.16)" fill="#ffdc4c"/><path d="M106.389,80.508a22.5,22.5,0,0,0-11.116,2.655c-2.743,1.594-4.252,3.647-4.249,5.781,0,2.151,1.538,4.222,4.322,5.829a22.678,22.678,0,0,0,11.15,2.655h0a22.494,22.494,0,0,0,11.115-2.653c2.743-1.594,4.252-3.647,4.249-5.781,0-2.152-1.538-4.222-4.322-5.83a22.675,22.675,0,0,0-11.15-2.656" transform="translate(-60.33 -53.36)" fill="#ff9d08"/><path d="M108.233,82.659a22.5,22.5,0,0,0-11.116,2.655c-2.743,1.594-4.252,3.647-4.249,5.781,0,2.151,1.538,4.222,4.322,5.829a22.682,22.682,0,0,0,11.15,2.655h0a22.494,22.494,0,0,0,11.115-2.654c2.743-1.594,4.252-3.647,4.249-5.781,0-2.152-1.538-4.222-4.322-5.83a22.679,22.679,0,0,0-11.15-2.656" transform="translate(-61.552 -54.786)" fill="#ffdc4c"/><path d="M128.186,90.2,127,89.514a.935.935,0,0,0-.845,0l-.944.549a8.873,8.873,0,0,0-3.837-.706,7.071,7.071,0,0,0-3.226.882q-1.432.833-1.42,1.683a2.979,2.979,0,0,0,.871,1.84c.047.068.2.243.448.525a6.865,6.865,0,0,1,1.033,1.405q.223.491-.325.809a2.8,2.8,0,0,1-2.936-.237,6.353,6.353,0,0,1-1.664-1.359,4.376,4.376,0,0,1-.547-.8.527.527,0,0,0-.209-.2,1.288,1.288,0,0,0-1.17,0l-1.336.776c-.188.11-.256.276-.158.423A7.867,7.867,0,0,0,113,97.161l-1.106.643a.259.259,0,0,0,0,.49l1.187.685a.934.934,0,0,0,.845,0l1.159-.673a8.466,8.466,0,0,0,3.674.635,7.25,7.25,0,0,0,3.312-.932,2.659,2.659,0,0,0,1.256-1.226,1.533,1.533,0,0,0-.1-1.267,6.494,6.494,0,0,0-1.109-1.464c-.429-.466-.734-.811-.9-1.035a1.055,1.055,0,0,1-.255-.668q.008-.334.47-.6a2.164,2.164,0,0,1,1.368-.247,4.1,4.1,0,0,1,1.568.546,4.021,4.021,0,0,1,1.356,1.217,4.773,4.773,0,0,1,.361.622.534.534,0,0,0,.219.217,1.283,1.283,0,0,0,1.172,0l1.352-.785c.191-.111.256-.276.158-.423a5.716,5.716,0,0,0-.616-.779,7.17,7.17,0,0,0-1.074-.905l.893-.519a.259.259,0,0,0,0-.489" transform="translate(-73.364 -59.218)" fill="#ff9d08"/><path d="M185.78,92.838v.171c0-.057,0-.114,0-.171" transform="translate(-123.133 -61.532)" fill="#ff9d08"/><path d="M120.052,70.953a10.453,10.453,0,0,0-4.147-3.978,21.718,21.718,0,0,0-7.709-2.522l-.963-.528h-5.966l-.927.509a21.591,21.591,0,0,0-7.822,2.542,10.258,10.258,0,0,0-4.114,4l-.688.377v3.792c.046,2.427,1.671,4.847,4.878,6.7,6.478,3.74,16.952,3.74,23.388,0,3.177-1.846,4.774-4.258,4.8-6.677V71.354Z" transform="translate(-58.137 -42.369)" fill="#ff9d08"/><path d="M115.9,60.081c-6.48-3.741-16.949-3.741-23.388,0s-6.4,9.806.076,13.547,16.952,3.74,23.388,0,6.4-9.807-.076-13.547" transform="translate(-58.13 -37.961)" fill="#ffdc4c"/><path d="M106.389,60.594a22.5,22.5,0,0,0-11.116,2.655c-2.743,1.594-4.252,3.647-4.249,5.781,0,2.152,1.538,4.222,4.322,5.829a22.678,22.678,0,0,0,11.15,2.655h0a22.494,22.494,0,0,0,11.115-2.653c2.743-1.594,4.252-3.647,4.249-5.781,0-2.151-1.538-4.222-4.322-5.829a22.675,22.675,0,0,0-11.15-2.656" transform="translate(-60.33 -40.161)" fill="#ff9d08"/><path d="M108.233,62.745A22.5,22.5,0,0,0,97.117,65.4c-2.743,1.594-4.252,3.647-4.249,5.781,0,2.152,1.538,4.222,4.322,5.829a22.678,22.678,0,0,0,11.15,2.655h0a22.494,22.494,0,0,0,11.115-2.654c2.743-1.594,4.252-3.647,4.249-5.781,0-2.151-1.538-4.222-4.322-5.829a22.675,22.675,0,0,0-11.15-2.656" transform="translate(-61.552 -41.587)" fill="#ffdc4c"/><path d="M128.186,70.284,127,69.6a.935.935,0,0,0-.845,0l-.944.549a8.873,8.873,0,0,0-3.837-.706,7.071,7.071,0,0,0-3.226.882q-1.432.833-1.42,1.683a2.979,2.979,0,0,0,.871,1.84c.047.068.2.243.448.525a6.865,6.865,0,0,1,1.033,1.405q.223.491-.325.809a2.8,2.8,0,0,1-2.936-.237,6.354,6.354,0,0,1-1.664-1.359,4.376,4.376,0,0,1-.547-.8.527.527,0,0,0-.209-.2,1.287,1.287,0,0,0-1.17,0l-1.336.776c-.188.11-.256.276-.158.423A7.873,7.873,0,0,0,113,77.246l-1.106.642a.259.259,0,0,0,0,.49l1.187.685a.933.933,0,0,0,.845,0l1.159-.673a8.466,8.466,0,0,0,3.674.635,7.246,7.246,0,0,0,3.312-.932,2.659,2.659,0,0,0,1.256-1.226,1.533,1.533,0,0,0-.1-1.267,6.486,6.486,0,0,0-1.109-1.464c-.429-.466-.734-.811-.9-1.036a1.055,1.055,0,0,1-.255-.668q.008-.334.47-.6a2.164,2.164,0,0,1,1.368-.247,4.1,4.1,0,0,1,1.568.546,4.02,4.02,0,0,1,1.356,1.217,4.772,4.772,0,0,1,.361.622.534.534,0,0,0,.219.218,1.283,1.283,0,0,0,1.172,0l1.352-.785c.191-.111.256-.276.158-.423a5.715,5.715,0,0,0-.616-.779,7.188,7.188,0,0,0-1.074-.905l.893-.519a.259.259,0,0,0,0-.489" transform="translate(-73.364 -46.018)" fill="#ff9d08"/><path d="M181.6,77.358v.171c0-.057,0-.114,0-.171" transform="translate(-120.364 -51.272)" fill="#ff9d08"/><path d="M115.874,55.473a10.452,10.452,0,0,0-4.147-3.977,21.712,21.712,0,0,0-7.709-2.523l-.963-.528H97.088l-.927.509A21.585,21.585,0,0,0,88.339,51.5a10.255,10.255,0,0,0-4.114,4l-.688.377v3.792c.046,2.427,1.672,4.847,4.878,6.7,6.478,3.74,16.952,3.74,23.388,0,3.177-1.846,4.774-4.257,4.8-6.676V55.874Z" transform="translate(-55.368 -32.109)" fill="#ff9d08"/><path d="M111.719,44.6c-6.48-3.742-16.949-3.742-23.388,0s-6.4,9.806.076,13.547,16.952,3.74,23.388,0,6.4-9.807-.076-13.547" transform="translate(-55.36 -27.701)" fill="#ffdc4c"/><path d="M102.21,45.113a22.5,22.5,0,0,0-11.116,2.655c-2.743,1.594-4.252,3.647-4.249,5.781,0,2.151,1.538,4.222,4.322,5.829a22.682,22.682,0,0,0,11.15,2.655h0a22.494,22.494,0,0,0,11.115-2.653c2.743-1.594,4.252-3.647,4.249-5.781,0-2.152-1.538-4.222-4.322-5.83a22.675,22.675,0,0,0-11.15-2.656" transform="translate(-57.56 -29.901)" fill="#ff9d08"/><path d="M104.054,47.264a22.5,22.5,0,0,0-11.116,2.655c-2.743,1.594-4.252,3.647-4.249,5.781,0,2.151,1.538,4.222,4.322,5.829a22.682,22.682,0,0,0,11.15,2.655h0a22.494,22.494,0,0,0,11.115-2.653c2.743-1.594,4.252-3.647,4.249-5.781,0-2.152-1.538-4.222-4.322-5.83a22.675,22.675,0,0,0-11.15-2.656" transform="translate(-58.782 -31.326)" fill="#ffdc4c"/><path d="M124.007,54.8l-1.187-.685a.935.935,0,0,0-.845,0l-.944.549a8.873,8.873,0,0,0-3.837-.706,7.071,7.071,0,0,0-3.226.882c-.955.555-1.43,1.118-1.42,1.683a2.979,2.979,0,0,0,.871,1.84c.047.068.2.243.448.525A6.865,6.865,0,0,1,114.9,60.3q.223.491-.325.809a2.8,2.8,0,0,1-2.936-.237,6.353,6.353,0,0,1-1.664-1.359,4.377,4.377,0,0,1-.547-.8.527.527,0,0,0-.209-.2,1.287,1.287,0,0,0-1.17,0l-1.336.776c-.188.11-.256.276-.158.423a7.867,7.867,0,0,0,2.262,2.055l-1.106.643a.259.259,0,0,0,0,.49l1.187.685a.934.934,0,0,0,.845,0l1.159-.673a8.466,8.466,0,0,0,3.674.635,7.25,7.25,0,0,0,3.312-.932,2.658,2.658,0,0,0,1.256-1.226,1.533,1.533,0,0,0-.1-1.267,6.494,6.494,0,0,0-1.109-1.464c-.429-.466-.734-.811-.9-1.035a1.055,1.055,0,0,1-.255-.668q.008-.334.47-.6a2.164,2.164,0,0,1,1.368-.247,4.1,4.1,0,0,1,1.568.546,4.02,4.02,0,0,1,1.356,1.217,4.774,4.774,0,0,1,.361.622.534.534,0,0,0,.219.218,1.283,1.283,0,0,0,1.172,0l1.352-.785c.191-.111.256-.276.158-.423a5.716,5.716,0,0,0-.616-.779,7.171,7.171,0,0,0-1.074-.905l.893-.519a.259.259,0,0,0,0-.489" transform="translate(-70.594 -35.758)" fill="#ff9d08"/><path d="M184.216,63.418v.171c0-.057,0-.114,0-.171" transform="translate(-122.097 -42.033)" fill="#ff9d08"/><path d="M118.488,41.533a10.453,10.453,0,0,0-4.147-3.978,21.719,21.719,0,0,0-7.709-2.522l-.963-.528H99.7l-.927.509a21.591,21.591,0,0,0-7.822,2.542,10.258,10.258,0,0,0-4.114,4l-.688.377v3.792c.046,2.427,1.671,4.847,4.878,6.7,6.478,3.74,16.952,3.74,23.388,0,3.177-1.846,4.774-4.258,4.8-6.676V41.934Z" transform="translate(-57.1 -22.87)" fill="#ff9d08"/><path d="M114.334,30.661c-6.48-3.742-16.949-3.742-23.388,0s-6.4,9.806.076,13.547,16.952,3.74,23.388,0,6.4-9.807-.076-13.547" transform="translate(-57.093 -18.462)" fill="#ffdc4c"/><path d="M104.824,31.174a22.5,22.5,0,0,0-11.116,2.655c-2.743,1.594-4.252,3.647-4.249,5.781,0,2.151,1.538,4.222,4.322,5.829a22.682,22.682,0,0,0,11.15,2.655h0a22.494,22.494,0,0,0,11.115-2.653c2.743-1.594,4.252-3.647,4.249-5.781,0-2.152-1.538-4.222-4.322-5.83a22.675,22.675,0,0,0-11.15-2.656" transform="translate(-59.293 -20.662)" fill="#ff9d08"/><path d="M106.668,33.325A22.5,22.5,0,0,0,95.552,35.98c-2.743,1.594-4.252,3.647-4.249,5.781,0,2.151,1.538,4.222,4.322,5.829a22.682,22.682,0,0,0,11.15,2.655h0a22.494,22.494,0,0,0,11.115-2.653c2.743-1.594,4.252-3.647,4.249-5.781,0-2.152-1.538-4.222-4.322-5.83a22.675,22.675,0,0,0-11.15-2.656" transform="translate(-60.515 -22.088)" fill="#ffdc4c"/><path d="M126.622,40.865l-1.187-.685a.935.935,0,0,0-.845,0l-.944.548a8.878,8.878,0,0,0-3.837-.705,7.071,7.071,0,0,0-3.226.882q-1.432.833-1.42,1.683a2.979,2.979,0,0,0,.871,1.84c.047.068.2.243.448.525a6.875,6.875,0,0,1,1.033,1.4q.223.491-.325.809a2.8,2.8,0,0,1-2.936-.237,6.36,6.36,0,0,1-1.664-1.359,4.376,4.376,0,0,1-.547-.8.525.525,0,0,0-.209-.2,1.288,1.288,0,0,0-1.17,0l-1.336.777c-.188.11-.256.276-.158.423a7.867,7.867,0,0,0,2.262,2.055l-1.106.642a.259.259,0,0,0,0,.49l1.187.685a.934.934,0,0,0,.845,0l1.159-.673a8.466,8.466,0,0,0,3.674.635,7.25,7.25,0,0,0,3.312-.932,2.659,2.659,0,0,0,1.256-1.226,1.534,1.534,0,0,0-.1-1.267,6.486,6.486,0,0,0-1.109-1.464c-.429-.466-.734-.812-.9-1.036a1.055,1.055,0,0,1-.255-.668c.005-.223.162-.425.47-.6a2.164,2.164,0,0,1,1.368-.247,4.1,4.1,0,0,1,1.568.546,4.02,4.02,0,0,1,1.356,1.217,4.775,4.775,0,0,1,.361.622.534.534,0,0,0,.219.217,1.283,1.283,0,0,0,1.172,0l1.352-.785c.191-.111.256-.276.158-.423a5.714,5.714,0,0,0-.616-.779,7.167,7.167,0,0,0-1.074-.905l.893-.519a.259.259,0,0,0,0-.49" transform="translate(-72.327 -26.52)" fill="#ff9d08"/><path d="M188.825,48.773v.172c0-.057,0-.114,0-.172" transform="translate(-125.152 -32.326)" fill="#ff9d08"/><path d="M123.1,26.888a10.453,10.453,0,0,0-4.147-3.978,21.719,21.719,0,0,0-7.709-2.522l-.963-.528h-5.966l-.927.509a21.591,21.591,0,0,0-7.822,2.542,10.258,10.258,0,0,0-4.114,4l-.688.377v3.792c.046,2.427,1.671,4.847,4.878,6.7,6.478,3.74,16.952,3.74,23.388,0,3.177-1.846,4.774-4.257,4.8-6.676V27.289Z" transform="translate(-60.155 -13.163)" fill="#ff9d08"/><path d="M118.943,16.016c-6.48-3.741-16.949-3.741-23.388,0s-6.4,9.806.076,13.548,16.952,3.74,23.388,0,6.4-9.807-.076-13.547" transform="translate(-60.148 -8.755)" fill="#ffdc4c"/><path d="M109.433,16.529a22.5,22.5,0,0,0-11.116,2.655c-2.743,1.594-4.252,3.647-4.249,5.781,0,2.152,1.538,4.222,4.322,5.829a22.678,22.678,0,0,0,11.15,2.655h0A22.494,22.494,0,0,0,120.656,30.8c2.743-1.594,4.252-3.647,4.249-5.781,0-2.151-1.538-4.222-4.322-5.829a22.675,22.675,0,0,0-11.15-2.656" transform="translate(-62.347 -10.955)" fill="#ff9d08"/><path d="M111.277,18.68a22.5,22.5,0,0,0-11.116,2.655c-2.743,1.594-4.252,3.647-4.249,5.781,0,2.152,1.538,4.222,4.322,5.829a22.678,22.678,0,0,0,11.15,2.655h0A22.494,22.494,0,0,0,122.5,32.947c2.743-1.594,4.252-3.647,4.249-5.781,0-2.151-1.538-4.222-4.322-5.829a22.675,22.675,0,0,0-11.15-2.656" transform="translate(-63.57 -12.381)" fill="#ffdc4c"/><path d="M131.23,26.219l-1.187-.685a.935.935,0,0,0-.845,0l-.944.549a8.873,8.873,0,0,0-3.837-.706,7.071,7.071,0,0,0-3.226.882q-1.432.833-1.42,1.683a2.979,2.979,0,0,0,.871,1.84c.047.068.2.243.448.525a6.865,6.865,0,0,1,1.033,1.405q.223.491-.325.809a2.8,2.8,0,0,1-2.936-.237,6.353,6.353,0,0,1-1.664-1.359,4.377,4.377,0,0,1-.547-.8.527.527,0,0,0-.209-.2,1.287,1.287,0,0,0-1.17,0l-1.336.776c-.188.11-.256.276-.158.423a7.873,7.873,0,0,0,2.262,2.056l-1.106.642a.259.259,0,0,0,0,.49l1.187.685a.933.933,0,0,0,.845,0l1.159-.673a8.466,8.466,0,0,0,3.674.635,7.246,7.246,0,0,0,3.312-.932,2.659,2.659,0,0,0,1.256-1.226,1.534,1.534,0,0,0-.1-1.267,6.486,6.486,0,0,0-1.109-1.464c-.429-.466-.734-.811-.9-1.036a1.055,1.055,0,0,1-.255-.668q.008-.334.47-.6a2.165,2.165,0,0,1,1.368-.247,4.1,4.1,0,0,1,1.568.546,4.02,4.02,0,0,1,1.356,1.217,4.771,4.771,0,0,1,.362.622.534.534,0,0,0,.219.217,1.283,1.283,0,0,0,1.172,0l1.352-.785c.191-.111.256-.276.158-.423a5.718,5.718,0,0,0-.616-.779,7.189,7.189,0,0,0-1.074-.905l.893-.519a.259.259,0,0,0,0-.489" transform="translate(-75.381 -16.813)" fill="#ff9d08"/><path d="M101.292,252.494v.171c0-.057,0-.114,0-.171" transform="translate(-67.136 -167.351)" fill="#ff9d08"/><path d="M35.564,230.609a10.45,10.45,0,0,0-4.147-3.977,21.712,21.712,0,0,0-7.709-2.523l-.963-.528H16.778l-.927.508a21.585,21.585,0,0,0-7.822,2.542,10.255,10.255,0,0,0-4.114,4l-.688.377V234.8c.046,2.427,1.671,4.847,4.878,6.7,6.478,3.74,16.952,3.74,23.388,0,3.177-1.846,4.774-4.258,4.8-6.676V231.01Z" transform="translate(-2.139 -148.188)" fill="#ff9d08"/><path d="M31.409,219.736c-6.48-3.742-16.949-3.742-23.388,0s-6.4,9.806.076,13.547,16.952,3.74,23.388,0,6.4-9.807-.076-13.547" transform="translate(-2.131 -143.779)" fill="#ffdc4c"/><path d="M21.9,220.249A22.5,22.5,0,0,0,10.785,222.9c-2.743,1.594-4.252,3.647-4.249,5.781,0,2.151,1.538,4.222,4.322,5.829a22.682,22.682,0,0,0,11.15,2.655h0a22.494,22.494,0,0,0,11.115-2.654c2.743-1.594,4.252-3.647,4.249-5.781,0-2.152-1.538-4.222-4.322-5.83a22.678,22.678,0,0,0-11.15-2.656" transform="translate(-4.332 -145.979)" fill="#ff9d08"/><path d="M23.744,222.4a22.5,22.5,0,0,0-11.116,2.655c-2.743,1.594-4.252,3.647-4.249,5.781,0,2.151,1.538,4.222,4.322,5.829a22.682,22.682,0,0,0,11.15,2.655h0a22.494,22.494,0,0,0,11.115-2.653c2.743-1.594,4.252-3.647,4.249-5.781,0-2.152-1.538-4.222-4.322-5.83a22.679,22.679,0,0,0-11.15-2.656" transform="translate(-5.554 -147.405)" fill="#ffdc4c"/><path d="M43.7,229.94l-1.187-.685a.935.935,0,0,0-.845,0l-.944.549a8.873,8.873,0,0,0-3.837-.706,7.071,7.071,0,0,0-3.226.882q-1.432.833-1.42,1.683a2.979,2.979,0,0,0,.871,1.84c.047.068.2.243.448.525a6.865,6.865,0,0,1,1.033,1.405q.223.491-.325.809a2.8,2.8,0,0,1-2.936-.237,6.353,6.353,0,0,1-1.664-1.359,4.365,4.365,0,0,1-.547-.8.527.527,0,0,0-.209-.2,1.288,1.288,0,0,0-1.17,0l-1.336.777c-.188.109-.256.275-.158.422a7.872,7.872,0,0,0,2.262,2.056l-1.106.642a.259.259,0,0,0,0,.49l1.187.685a.933.933,0,0,0,.845,0l1.159-.673a8.461,8.461,0,0,0,3.674.635,7.25,7.25,0,0,0,3.312-.932,2.659,2.659,0,0,0,1.256-1.226,1.533,1.533,0,0,0-.1-1.267,6.487,6.487,0,0,0-1.109-1.464c-.429-.466-.734-.811-.9-1.036a1.055,1.055,0,0,1-.255-.668q.008-.334.47-.6a2.164,2.164,0,0,1,1.368-.247,4.1,4.1,0,0,1,1.568.546A4.02,4.02,0,0,1,41.236,233a4.774,4.774,0,0,1,.361.622.534.534,0,0,0,.219.217,1.283,1.283,0,0,0,1.172,0l1.352-.785c.191-.111.256-.276.158-.423a5.717,5.717,0,0,0-.616-.779,7.188,7.188,0,0,0-1.074-.905l.893-.519a.259.259,0,0,0,0-.489" transform="translate(-17.366 -151.837)" fill="#ff9d08"/><path d="M99.817,237.881v.171c0-.057,0-.114,0-.171" transform="translate(-66.158 -157.666)" fill="#ff9d08"/><path d="M34.089,216a10.453,10.453,0,0,0-4.147-3.978,21.719,21.719,0,0,0-7.709-2.522l-.963-.528H15.3l-.927.509a21.592,21.592,0,0,0-7.822,2.542,10.258,10.258,0,0,0-4.114,4l-.688.377v3.792c.046,2.427,1.671,4.847,4.878,6.7,6.478,3.74,16.952,3.74,23.388,0,3.177-1.846,4.774-4.257,4.8-6.676V216.4Z" transform="translate(-1.161 -138.502)" fill="#ff9d08"/><path d="M29.934,205.123c-6.48-3.742-16.949-3.742-23.388,0s-6.4,9.806.076,13.547,16.952,3.74,23.388,0,6.4-9.807-.076-13.547" transform="translate(-1.154 -134.094)" fill="#ffdc4c"/><path d="M20.426,205.636A22.5,22.5,0,0,0,9.31,208.291c-2.743,1.594-4.252,3.647-4.249,5.781,0,2.151,1.538,4.222,4.322,5.829a22.682,22.682,0,0,0,11.15,2.655h0A22.494,22.494,0,0,0,31.649,219.9c2.743-1.594,4.252-3.647,4.249-5.781,0-2.152-1.538-4.222-4.322-5.83a22.678,22.678,0,0,0-11.15-2.656" transform="translate(-3.354 -136.294)" fill="#ff9d08"/><path d="M22.269,207.787a22.5,22.5,0,0,0-11.116,2.654C8.41,212.036,6.9,214.089,6.9,216.223c0,2.151,1.538,4.222,4.322,5.829a22.682,22.682,0,0,0,11.15,2.655h0a22.5,22.5,0,0,0,11.115-2.653c2.743-1.594,4.252-3.647,4.249-5.781,0-2.152-1.538-4.222-4.322-5.83a22.678,22.678,0,0,0-11.15-2.656" transform="translate(-4.576 -137.72)" fill="#ffdc4c"/><path d="M42.223,215.327l-1.187-.685a.935.935,0,0,0-.845,0l-.944.549a8.874,8.874,0,0,0-3.837-.706,7.071,7.071,0,0,0-3.226.882q-1.432.833-1.42,1.683a2.979,2.979,0,0,0,.871,1.84c.047.068.2.243.448.525a6.865,6.865,0,0,1,1.033,1.405c.148.327.041.6-.325.809a2.8,2.8,0,0,1-2.936-.237,6.353,6.353,0,0,1-1.664-1.359,4.349,4.349,0,0,1-.547-.8.527.527,0,0,0-.209-.2,1.288,1.288,0,0,0-1.17,0l-1.336.776c-.188.11-.256.276-.158.423a7.867,7.867,0,0,0,2.262,2.055l-1.106.643a.259.259,0,0,0,0,.49l1.187.685a.932.932,0,0,0,.845,0l1.159-.673a8.46,8.46,0,0,0,3.674.635,7.246,7.246,0,0,0,3.312-.932,2.656,2.656,0,0,0,1.256-1.226,1.532,1.532,0,0,0-.1-1.267,6.5,6.5,0,0,0-1.109-1.464c-.429-.466-.734-.811-.9-1.036a1.055,1.055,0,0,1-.255-.668q.008-.334.47-.6a2.164,2.164,0,0,1,1.368-.247,4.1,4.1,0,0,1,1.568.546,4.02,4.02,0,0,1,1.356,1.217,4.775,4.775,0,0,1,.361.622.534.534,0,0,0,.219.217,1.283,1.283,0,0,0,1.172,0l1.352-.785c.191-.111.256-.276.158-.423a5.716,5.716,0,0,0-.616-.779,7.206,7.206,0,0,0-1.074-.905l.893-.519a.259.259,0,0,0,0-.489" transform="translate(-16.388 -142.152)" fill="#ff9d08"/><path d="M102.431,223.941v.171c0-.057,0-.114,0-.171" transform="translate(-67.89 -148.426)" fill="#ff9d08"/><path d="M36.7,202.056a10.453,10.453,0,0,0-4.147-3.978,21.718,21.718,0,0,0-7.709-2.522l-.963-.528H17.917l-.927.509a21.588,21.588,0,0,0-7.822,2.542,10.258,10.258,0,0,0-4.114,4l-.688.377v3.792c.046,2.427,1.671,4.847,4.878,6.7,6.478,3.74,16.952,3.74,23.388,0,3.177-1.846,4.774-4.257,4.8-6.676v-3.814Z" transform="translate(-2.894 -129.263)" fill="#ff9d08"/><path d="M32.55,191.184c-6.48-3.742-16.949-3.742-23.388,0s-6.4,9.806.076,13.547,16.952,3.74,23.388,0,6.4-9.807-.076-13.547" transform="translate(-2.887 -124.855)" fill="#ffdc4c"/><path d="M23.04,191.7a22.5,22.5,0,0,0-11.116,2.654c-2.743,1.594-4.252,3.647-4.249,5.781,0,2.152,1.538,4.222,4.322,5.829a22.678,22.678,0,0,0,11.15,2.655h0a22.5,22.5,0,0,0,11.115-2.654c2.743-1.594,4.252-3.647,4.249-5.781,0-2.151-1.538-4.222-4.322-5.829A22.675,22.675,0,0,0,23.04,191.7" transform="translate(-5.087 -127.055)" fill="#ff9d08"/><path d="M24.884,193.848A22.5,22.5,0,0,0,13.768,196.5c-2.743,1.594-4.252,3.647-4.249,5.781,0,2.152,1.538,4.222,4.322,5.829a22.678,22.678,0,0,0,11.15,2.655h0a22.5,22.5,0,0,0,11.115-2.653c2.743-1.594,4.252-3.647,4.249-5.781,0-2.151-1.538-4.222-4.322-5.829a22.675,22.675,0,0,0-11.15-2.656" transform="translate(-6.309 -128.481)" fill="#ffdc4c"/><path d="M44.837,201.387l-1.187-.685a.935.935,0,0,0-.845,0l-.944.549a8.873,8.873,0,0,0-3.837-.706,7.071,7.071,0,0,0-3.226.882c-.955.555-1.43,1.118-1.42,1.683a2.979,2.979,0,0,0,.871,1.84c.047.068.2.243.448.525a6.856,6.856,0,0,1,1.033,1.405q.223.491-.325.809a2.8,2.8,0,0,1-2.936-.237,6.351,6.351,0,0,1-1.664-1.359,4.378,4.378,0,0,1-.547-.8.527.527,0,0,0-.209-.2,1.286,1.286,0,0,0-1.17,0l-1.336.776c-.188.11-.256.276-.158.423a7.867,7.867,0,0,0,2.262,2.055l-1.106.643a.259.259,0,0,0,0,.49l1.187.685a.934.934,0,0,0,.845,0l1.159-.673a8.466,8.466,0,0,0,3.674.635,7.25,7.25,0,0,0,3.312-.932,2.658,2.658,0,0,0,1.256-1.226,1.534,1.534,0,0,0-.1-1.267,6.5,6.5,0,0,0-1.109-1.464c-.429-.466-.734-.811-.9-1.035a1.055,1.055,0,0,1-.255-.668c.005-.223.162-.425.47-.6a2.164,2.164,0,0,1,1.368-.247,4.1,4.1,0,0,1,1.568.546,4.021,4.021,0,0,1,1.356,1.217,4.775,4.775,0,0,1,.361.622.534.534,0,0,0,.219.217,1.283,1.283,0,0,0,1.172,0l1.352-.785c.191-.111.256-.276.158-.423a5.714,5.714,0,0,0-.616-.779,7.2,7.2,0,0,0-1.074-.905l.893-.519a.259.259,0,0,0,0-.489" transform="translate(-18.121 -132.912)" fill="#ff9d08"/><path d="M100.956,209.328v.171c0-.057,0-.114,0-.171" transform="translate(-66.913 -138.741)" fill="#ff9d08"/><path d="M35.228,187.443a10.45,10.45,0,0,0-4.147-3.977,21.712,21.712,0,0,0-7.709-2.523l-.963-.528H16.442l-.927.509a21.582,21.582,0,0,0-7.822,2.542,10.255,10.255,0,0,0-4.114,4l-.688.377v3.792c.046,2.427,1.671,4.847,4.878,6.7,6.478,3.74,16.952,3.74,23.388,0,3.177-1.846,4.774-4.257,4.8-6.676v-3.813Z" transform="translate(-1.916 -119.578)" fill="#ff9d08"/><path d="M31.074,176.571c-6.481-3.742-16.949-3.742-23.388,0s-6.4,9.806.076,13.547,16.952,3.74,23.388,0,6.4-9.807-.076-13.547" transform="translate(-1.909 -115.17)" fill="#ffdc4c"/><path d="M21.565,177.084a22.5,22.5,0,0,0-11.116,2.655C7.706,181.333,6.2,183.386,6.2,185.52c0,2.152,1.538,4.222,4.322,5.829A22.678,22.678,0,0,0,21.672,194h0a22.5,22.5,0,0,0,11.115-2.654c2.743-1.594,4.252-3.647,4.249-5.781,0-2.151-1.538-4.222-4.322-5.829a22.675,22.675,0,0,0-11.15-2.656" transform="translate(-4.109 -117.37)" fill="#ff9d08"/><path d="M23.408,179.235a22.5,22.5,0,0,0-11.116,2.655c-2.743,1.594-4.252,3.647-4.249,5.781,0,2.152,1.538,4.222,4.322,5.829a22.678,22.678,0,0,0,11.15,2.655h0A22.5,22.5,0,0,0,34.631,193.5c2.743-1.594,4.252-3.647,4.249-5.781,0-2.151-1.538-4.222-4.322-5.829a22.677,22.677,0,0,0-11.15-2.656" transform="translate(-5.331 -118.795)" fill="#ffdc4c"/><path d="M43.362,186.774l-1.187-.685a.935.935,0,0,0-.845,0l-.944.549a8.874,8.874,0,0,0-3.837-.706,7.071,7.071,0,0,0-3.226.882q-1.432.833-1.42,1.683a2.979,2.979,0,0,0,.871,1.84c.047.068.2.243.448.525a6.865,6.865,0,0,1,1.033,1.405q.223.491-.325.809a2.8,2.8,0,0,1-2.936-.237,6.354,6.354,0,0,1-1.664-1.359,4.378,4.378,0,0,1-.547-.8.527.527,0,0,0-.209-.2,1.287,1.287,0,0,0-1.17,0l-1.336.776c-.188.11-.256.276-.158.423a7.868,7.868,0,0,0,2.262,2.055l-1.106.643a.259.259,0,0,0,0,.49l1.187.685a.934.934,0,0,0,.845,0l1.159-.673a8.466,8.466,0,0,0,3.674.635,7.25,7.25,0,0,0,3.312-.932,2.659,2.659,0,0,0,1.256-1.226,1.533,1.533,0,0,0-.1-1.267,6.5,6.5,0,0,0-1.109-1.464c-.429-.466-.734-.811-.9-1.036a1.055,1.055,0,0,1-.255-.668q.008-.334.47-.6a2.165,2.165,0,0,1,1.368-.247,4.1,4.1,0,0,1,1.568.546,4.021,4.021,0,0,1,1.356,1.217,4.777,4.777,0,0,1,.361.622.533.533,0,0,0,.219.218,1.283,1.283,0,0,0,1.172,0L44,189.889c.191-.111.256-.276.158-.423a5.717,5.717,0,0,0-.616-.779,7.206,7.206,0,0,0-1.074-.905l.893-.519a.259.259,0,0,0,0-.489" transform="translate(-17.143 -123.227)" fill="#ff9d08"/><path d="M98.678,194.715v.171c0-.057,0-.114,0-.171" transform="translate(-65.403 -129.055)" fill="#ff9d08"/><path d="M32.95,172.829a10.452,10.452,0,0,0-4.147-3.977,21.719,21.719,0,0,0-7.709-2.522l-.963-.528H14.164l-.927.509a21.6,21.6,0,0,0-7.822,2.542,10.256,10.256,0,0,0-4.114,4l-.688.377v3.792c.046,2.427,1.672,4.847,4.878,6.7,6.478,3.74,16.952,3.74,23.388,0,3.177-1.846,4.774-4.257,4.8-6.676V173.23Z" transform="translate(-0.406 -109.892)" fill="#ff9d08"/><path d="M28.8,161.957c-6.48-3.742-16.949-3.742-23.388,0s-6.4,9.806.076,13.547,16.952,3.74,23.388,0,6.4-9.807-.076-13.547" transform="translate(-0.399 -105.484)" fill="#ffdc4c"/><path d="M19.286,162.47A22.5,22.5,0,0,0,8.17,165.125c-2.743,1.594-4.252,3.647-4.249,5.781,0,2.151,1.538,4.222,4.322,5.829a22.678,22.678,0,0,0,11.15,2.655h0a22.494,22.494,0,0,0,11.115-2.654c2.743-1.594,4.252-3.647,4.249-5.781,0-2.152-1.538-4.222-4.322-5.83a22.674,22.674,0,0,0-11.15-2.656" transform="translate(-2.599 -107.684)" fill="#ff9d08"/><path d="M21.13,164.621a22.5,22.5,0,0,0-11.116,2.655c-2.743,1.594-4.252,3.647-4.249,5.781,0,2.151,1.538,4.222,4.322,5.829a22.678,22.678,0,0,0,11.15,2.655h0a22.5,22.5,0,0,0,11.115-2.654c2.743-1.594,4.252-3.647,4.249-5.781,0-2.152-1.538-4.222-4.322-5.83a22.675,22.675,0,0,0-11.15-2.656" transform="translate(-3.821 -109.109)" fill="#ffdc4c"/><path d="M41.084,172.161l-1.187-.685a.934.934,0,0,0-.845,0l-.944.549a8.872,8.872,0,0,0-3.837-.706,7.071,7.071,0,0,0-3.226.882c-.955.555-1.43,1.118-1.42,1.683a2.98,2.98,0,0,0,.87,1.84c.048.068.2.243.448.525a6.869,6.869,0,0,1,1.033,1.405q.223.491-.325.809a2.8,2.8,0,0,1-2.936-.237,6.353,6.353,0,0,1-1.664-1.359,4.361,4.361,0,0,1-.547-.8.527.527,0,0,0-.209-.2,1.287,1.287,0,0,0-1.17,0l-1.336.776c-.189.11-.256.276-.158.423a7.867,7.867,0,0,0,2.262,2.055l-1.106.643a.259.259,0,0,0,0,.49l1.187.685a.934.934,0,0,0,.845,0l1.159-.673a8.467,8.467,0,0,0,3.674.635,7.25,7.25,0,0,0,3.312-.932,2.658,2.658,0,0,0,1.256-1.226,1.533,1.533,0,0,0-.1-1.267,6.5,6.5,0,0,0-1.109-1.465c-.429-.466-.733-.811-.9-1.035a1.057,1.057,0,0,1-.255-.668c.006-.223.163-.425.47-.6a2.165,2.165,0,0,1,1.368-.247,4.1,4.1,0,0,1,1.568.546,4.017,4.017,0,0,1,1.356,1.217,4.735,4.735,0,0,1,.361.622.536.536,0,0,0,.219.218,1.283,1.283,0,0,0,1.172,0l1.352-.785c.19-.111.256-.276.157-.423a5.664,5.664,0,0,0-.616-.779,7.188,7.188,0,0,0-1.074-.905l.893-.519a.259.259,0,0,0,0-.489" transform="translate(-15.633 -113.542)" fill="#ff9d08"/><path d="M104.98,180.743v.172c0-.057,0-.114,0-.172" transform="translate(-69.58 -119.795)" fill="#ff9d08"/><path d="M39.252,158.858A10.452,10.452,0,0,0,35.1,154.88a21.717,21.717,0,0,0-7.709-2.522l-.963-.528H20.466l-.927.509a21.589,21.589,0,0,0-7.822,2.542,10.258,10.258,0,0,0-4.114,4l-.688.377v3.792c.046,2.427,1.671,4.847,4.878,6.7,6.478,3.74,16.951,3.74,23.387,0,3.177-1.846,4.774-4.258,4.8-6.677v-3.814Z" transform="translate(-4.583 -100.632)" fill="#ff9d08"/><path d="M35.1,147.986c-6.48-3.742-16.949-3.742-23.388,0s-6.4,9.806.076,13.547,16.952,3.74,23.388,0,6.4-9.807-.076-13.547" transform="translate(-4.576 -96.224)" fill="#ffdc4c"/><path d="M25.588,148.5a22.5,22.5,0,0,0-11.116,2.655c-2.743,1.594-4.252,3.647-4.249,5.781,0,2.151,1.538,4.222,4.322,5.829a22.682,22.682,0,0,0,11.15,2.655h0a22.494,22.494,0,0,0,11.115-2.653c2.743-1.594,4.252-3.647,4.249-5.781,0-2.152-1.538-4.222-4.322-5.83a22.675,22.675,0,0,0-11.15-2.656" transform="translate(-6.776 -98.424)" fill="#ff9d08"/><path d="M27.432,150.65A22.5,22.5,0,0,0,16.316,153.3c-2.743,1.594-4.252,3.647-4.249,5.781,0,2.151,1.538,4.222,4.322,5.829a22.682,22.682,0,0,0,11.15,2.655h0a22.494,22.494,0,0,0,11.115-2.653c2.743-1.594,4.252-3.647,4.249-5.781,0-2.152-1.538-4.222-4.322-5.83a22.675,22.675,0,0,0-11.15-2.656" transform="translate(-7.998 -99.85)" fill="#ffdc4c"/><path d="M47.385,158.189,46.2,157.5a.935.935,0,0,0-.845,0l-.944.549a8.873,8.873,0,0,0-3.837-.706,7.071,7.071,0,0,0-3.226.882q-1.432.833-1.42,1.683a2.979,2.979,0,0,0,.871,1.84c.047.068.2.243.448.525a6.856,6.856,0,0,1,1.033,1.405q.223.491-.325.809a2.8,2.8,0,0,1-2.936-.237,6.353,6.353,0,0,1-1.664-1.359,4.377,4.377,0,0,1-.547-.8.527.527,0,0,0-.209-.2,1.287,1.287,0,0,0-1.17,0l-1.336.776c-.188.11-.256.276-.158.423a7.867,7.867,0,0,0,2.262,2.055l-1.106.643a.259.259,0,0,0,0,.49l1.187.685a.934.934,0,0,0,.845,0l1.159-.673a8.466,8.466,0,0,0,3.674.635A7.25,7.25,0,0,0,41.268,166a2.658,2.658,0,0,0,1.256-1.226,1.534,1.534,0,0,0-.1-1.267,6.494,6.494,0,0,0-1.109-1.464c-.429-.466-.734-.811-.9-1.035a1.055,1.055,0,0,1-.255-.668q.008-.334.47-.6A2.164,2.164,0,0,1,42,159.485a4.1,4.1,0,0,1,1.568.546,4.021,4.021,0,0,1,1.356,1.217,4.775,4.775,0,0,1,.361.622.534.534,0,0,0,.219.218,1.283,1.283,0,0,0,1.172,0l1.352-.785c.191-.111.256-.276.158-.423a5.714,5.714,0,0,0-.616-.779A7.188,7.188,0,0,0,46.5,159.2l.893-.519a.259.259,0,0,0,0-.489" transform="translate(-19.809 -104.281)" fill="#ff9d08"/><path d="M99.817,166.162v.171c0-.057,0-.114,0-.171" transform="translate(-66.158 -110.131)" fill="#ff9d08"/><path d="M34.089,144.277a10.453,10.453,0,0,0-4.147-3.978,21.718,21.718,0,0,0-7.709-2.522l-.963-.528H15.3l-.927.509A21.591,21.591,0,0,0,6.554,140.3a10.258,10.258,0,0,0-4.114,4l-.688.377v3.792c.046,2.427,1.671,4.847,4.878,6.7,6.478,3.74,16.952,3.74,23.388,0,3.177-1.846,4.774-4.258,4.8-6.677v-3.813Z" transform="translate(-1.161 -90.968)" fill="#ff9d08"/><path d="M29.934,133.405c-6.48-3.742-16.949-3.742-23.388,0s-6.4,9.806.076,13.547,16.952,3.74,23.388,0,6.4-9.807-.076-13.547" transform="translate(-1.154 -86.56)" fill="#ffdc4c"/><path d="M20.426,133.918A22.5,22.5,0,0,0,9.31,136.573c-2.743,1.594-4.252,3.647-4.249,5.781,0,2.151,1.538,4.222,4.322,5.829a22.678,22.678,0,0,0,11.15,2.655h0a22.494,22.494,0,0,0,11.115-2.653c2.743-1.594,4.252-3.647,4.249-5.781,0-2.152-1.538-4.222-4.322-5.83a22.675,22.675,0,0,0-11.15-2.656" transform="translate(-3.354 -88.76)" fill="#ff9d08"/><path d="M22.269,136.069a22.5,22.5,0,0,0-11.116,2.655C8.41,140.318,6.9,142.371,6.9,144.5c0,2.151,1.538,4.222,4.322,5.829a22.682,22.682,0,0,0,11.15,2.655h0a22.494,22.494,0,0,0,11.115-2.653c2.743-1.594,4.252-3.647,4.249-5.781,0-2.152-1.538-4.222-4.322-5.83a22.678,22.678,0,0,0-11.15-2.656" transform="translate(-4.576 -90.185)" fill="#ffdc4c"/><path d="M42.223,143.608l-1.187-.685a.935.935,0,0,0-.845,0l-.944.549a8.874,8.874,0,0,0-3.837-.706,7.071,7.071,0,0,0-3.226.882q-1.432.833-1.42,1.683a2.979,2.979,0,0,0,.871,1.841c.047.068.2.243.448.525a6.865,6.865,0,0,1,1.033,1.405c.148.327.041.6-.325.809a2.8,2.8,0,0,1-2.936-.237,6.353,6.353,0,0,1-1.664-1.359,4.36,4.36,0,0,1-.547-.8.527.527,0,0,0-.209-.2,1.288,1.288,0,0,0-1.17,0l-1.336.776c-.188.11-.256.276-.158.423a7.868,7.868,0,0,0,2.262,2.055l-1.106.643a.259.259,0,0,0,0,.49l1.187.685a.934.934,0,0,0,.845,0l1.159-.673a8.466,8.466,0,0,0,3.674.635,7.25,7.25,0,0,0,3.312-.932,2.656,2.656,0,0,0,1.256-1.226,1.532,1.532,0,0,0-.1-1.267,6.505,6.505,0,0,0-1.109-1.464c-.429-.466-.734-.811-.9-1.035a1.055,1.055,0,0,1-.255-.668q.008-.334.47-.6a2.164,2.164,0,0,1,1.368-.247,4.1,4.1,0,0,1,1.568.546,4.021,4.021,0,0,1,1.356,1.217,4.775,4.775,0,0,1,.361.622.534.534,0,0,0,.219.217,1.283,1.283,0,0,0,1.172,0l1.352-.785c.191-.111.256-.276.158-.423a5.717,5.717,0,0,0-.616-.779,7.207,7.207,0,0,0-1.074-.905l.893-.519a.259.259,0,0,0,0-.489" transform="translate(-16.388 -94.617)" fill="#ff9d08"/><path d="M98.342,151.549v.171c0-.057,0-.114,0-.171" transform="translate(-65.18 -100.445)" fill="#ff9d08"/><path d="M32.614,129.664a10.453,10.453,0,0,0-4.147-3.978,21.718,21.718,0,0,0-7.709-2.522l-.963-.528H13.828l-.927.509a21.591,21.591,0,0,0-7.822,2.542,10.258,10.258,0,0,0-4.114,4l-.688.377v3.792c.046,2.427,1.671,4.847,4.878,6.7,6.478,3.74,16.952,3.74,23.388,0,3.177-1.846,4.774-4.257,4.8-6.676v-3.813Z" transform="translate(-0.184 -81.282)" fill="#ff9d08"/><path d="M28.46,118.791c-6.48-3.742-16.949-3.742-23.388,0s-6.4,9.806.076,13.547,16.952,3.74,23.388,0,6.4-9.807-.076-13.547" transform="translate(-0.176 -76.874)" fill="#ffdc4c"/><path d="M18.951,119.305A22.5,22.5,0,0,0,7.835,121.96c-2.743,1.594-4.252,3.647-4.249,5.781,0,2.151,1.538,4.222,4.322,5.829a22.677,22.677,0,0,0,11.15,2.655h0a22.5,22.5,0,0,0,11.115-2.653c2.743-1.594,4.252-3.647,4.249-5.781,0-2.152-1.538-4.222-4.323-5.83a22.678,22.678,0,0,0-11.15-2.656" transform="translate(-2.377 -79.074)" fill="#ff9d08"/><path d="M20.794,121.456a22.5,22.5,0,0,0-11.116,2.655c-2.743,1.594-4.252,3.647-4.249,5.781,0,2.151,1.538,4.222,4.322,5.829a22.678,22.678,0,0,0,11.15,2.655h0a22.494,22.494,0,0,0,11.115-2.653c2.743-1.594,4.252-3.647,4.249-5.781,0-2.152-1.538-4.222-4.322-5.83a22.678,22.678,0,0,0-11.15-2.656" transform="translate(-3.598 -80.5)" fill="#ffdc4c"/><path d="M40.748,128.995l-1.187-.685a.935.935,0,0,0-.845,0l-.944.549a8.874,8.874,0,0,0-3.837-.706,7.071,7.071,0,0,0-3.226.882q-1.432.833-1.42,1.683a2.979,2.979,0,0,0,.871,1.84c.047.068.2.243.448.525a6.865,6.865,0,0,1,1.033,1.405q.223.491-.325.809a2.8,2.8,0,0,1-2.936-.237,6.353,6.353,0,0,1-1.664-1.359,4.377,4.377,0,0,1-.547-.8.527.527,0,0,0-.209-.2,1.288,1.288,0,0,0-1.17,0l-1.336.776c-.188.11-.256.276-.158.423a7.867,7.867,0,0,0,2.262,2.055l-1.106.643a.259.259,0,0,0,0,.49l1.187.685a.933.933,0,0,0,.845,0l1.159-.673a8.465,8.465,0,0,0,3.674.635,7.246,7.246,0,0,0,3.312-.932,2.659,2.659,0,0,0,1.256-1.226,1.533,1.533,0,0,0-.1-1.267,6.486,6.486,0,0,0-1.109-1.464c-.429-.466-.734-.811-.9-1.036a1.055,1.055,0,0,1-.255-.668q.008-.334.47-.6a2.164,2.164,0,0,1,1.368-.247,4.1,4.1,0,0,1,1.568.546,4.02,4.02,0,0,1,1.356,1.217,4.774,4.774,0,0,1,.361.622.534.534,0,0,0,.219.217,1.283,1.283,0,0,0,1.172,0l1.352-.785c.191-.111.256-.276.158-.423a5.717,5.717,0,0,0-.616-.779A7.187,7.187,0,0,0,39.858,130l.893-.519a.259.259,0,0,0,0-.489" transform="translate(-15.41 -84.932)" fill="#ff9d08"/><path d="M224.539,294.555v.171c0-.057,0-.114,0-.171" transform="translate(-148.823 -195.229)" fill="#ff9d08"/><path d="M158.811,272.67a10.452,10.452,0,0,0-4.147-3.977,21.717,21.717,0,0,0-7.709-2.522l-.963-.528h-5.966l-.927.508a21.582,21.582,0,0,0-7.822,2.542,10.253,10.253,0,0,0-4.114,4l-.688.377v3.791c.046,2.427,1.671,4.847,4.878,6.7,6.478,3.74,16.952,3.74,23.388,0,3.177-1.846,4.774-4.257,4.8-6.676v-3.813Z" transform="translate(-83.826 -176.065)" fill="#ff9d08"/><path d="M154.657,261.8c-6.48-3.742-16.949-3.742-23.388,0s-6.4,9.806.076,13.547,16.952,3.74,23.388,0,6.4-9.807-.076-13.547" transform="translate(-83.819 -171.657)" fill="#ffdc4c"/><path d="M145.147,262.31a22.5,22.5,0,0,0-11.116,2.654c-2.743,1.594-4.252,3.647-4.249,5.781,0,2.151,1.538,4.222,4.322,5.829a22.682,22.682,0,0,0,11.15,2.655h0a22.494,22.494,0,0,0,11.115-2.654c2.743-1.594,4.252-3.647,4.249-5.781,0-2.152-1.538-4.222-4.322-5.83a22.678,22.678,0,0,0-11.15-2.656" transform="translate(-86.018 -173.857)" fill="#ff9d08"/><path d="M146.991,264.461a22.5,22.5,0,0,0-11.116,2.655c-2.743,1.594-4.252,3.647-4.249,5.781,0,2.151,1.538,4.222,4.322,5.829a22.682,22.682,0,0,0,11.15,2.655h0a22.494,22.494,0,0,0,11.115-2.654c2.743-1.594,4.252-3.647,4.249-5.781,0-2.152-1.538-4.222-4.322-5.83a22.678,22.678,0,0,0-11.15-2.656" transform="translate(-87.241 -175.283)" fill="#ffdc4c"/><path d="M166.945,272l-1.187-.685a.935.935,0,0,0-.845,0l-.944.549a8.872,8.872,0,0,0-3.837-.706,7.072,7.072,0,0,0-3.226.882c-.955.555-1.43,1.118-1.42,1.683a2.981,2.981,0,0,0,.871,1.84c.047.068.2.243.448.525a6.864,6.864,0,0,1,1.033,1.405q.223.491-.324.809a2.8,2.8,0,0,1-2.936-.237,6.348,6.348,0,0,1-1.664-1.359,4.352,4.352,0,0,1-.547-.8.525.525,0,0,0-.209-.2,1.288,1.288,0,0,0-1.17,0l-1.336.776c-.188.11-.256.276-.158.423a7.873,7.873,0,0,0,2.262,2.055l-1.106.643a.259.259,0,0,0,0,.49l1.187.685a.932.932,0,0,0,.845,0l1.16-.673a8.458,8.458,0,0,0,3.674.635,7.249,7.249,0,0,0,3.312-.932,2.66,2.66,0,0,0,1.256-1.226,1.533,1.533,0,0,0-.1-1.267,6.476,6.476,0,0,0-1.109-1.464c-.429-.466-.734-.811-.9-1.036a1.059,1.059,0,0,1-.255-.668c.005-.223.162-.425.47-.6a2.165,2.165,0,0,1,1.368-.247,4.1,4.1,0,0,1,1.568.546,4.019,4.019,0,0,1,1.356,1.217,4.743,4.743,0,0,1,.361.622.536.536,0,0,0,.219.218,1.283,1.283,0,0,0,1.172,0l1.352-.785c.19-.111.256-.276.157-.423a5.686,5.686,0,0,0-.616-.779,7.184,7.184,0,0,0-1.074-.905l.893-.519a.259.259,0,0,0,0-.489" transform="translate(-99.052 -179.715)" fill="#ff9d08"/><path d="M227.428,278.373v.171c0-.057,0-.114,0-.171" transform="translate(-150.737 -184.503)" fill="#ff9d08"/><path d="M161.7,256.488a10.453,10.453,0,0,0-4.147-3.978,21.719,21.719,0,0,0-7.709-2.522l-.963-.528h-5.966l-.927.509a21.589,21.589,0,0,0-7.822,2.542,10.258,10.258,0,0,0-4.114,4l-.688.377v3.792c.046,2.426,1.671,4.847,4.878,6.7,6.478,3.74,16.952,3.74,23.388,0,3.176-1.846,4.774-4.258,4.8-6.676v-3.814Z" transform="translate(-85.741 -165.34)" fill="#ff9d08"/><path d="M157.546,245.616c-6.48-3.742-16.949-3.742-23.388,0s-6.4,9.806.076,13.547,16.952,3.74,23.388,0,6.4-9.807-.076-13.547" transform="translate(-85.733 -160.932)" fill="#ffdc4c"/><path d="M148.036,246.129a22.5,22.5,0,0,0-11.116,2.655c-2.743,1.594-4.252,3.647-4.249,5.781,0,2.152,1.538,4.222,4.322,5.829a22.679,22.679,0,0,0,11.15,2.655h0a22.494,22.494,0,0,0,11.115-2.654c2.743-1.594,4.252-3.647,4.249-5.781,0-2.152-1.538-4.222-4.322-5.83a22.674,22.674,0,0,0-11.15-2.656" transform="translate(-87.933 -163.132)" fill="#ff9d08"/><path d="M149.88,248.28a22.5,22.5,0,0,0-11.116,2.655c-2.743,1.594-4.252,3.647-4.249,5.781,0,2.152,1.538,4.222,4.322,5.829a22.678,22.678,0,0,0,11.15,2.655h0a22.5,22.5,0,0,0,11.115-2.654c2.743-1.594,4.252-3.647,4.249-5.781,0-2.152-1.538-4.222-4.322-5.83a22.675,22.675,0,0,0-11.15-2.656" transform="translate(-89.155 -164.558)" fill="#ffdc4c"/><path d="M169.833,255.819l-1.187-.685a.935.935,0,0,0-.845,0l-.944.549a8.873,8.873,0,0,0-3.837-.706,7.071,7.071,0,0,0-3.226.882q-1.432.833-1.42,1.683a2.981,2.981,0,0,0,.871,1.84c.047.068.2.243.448.525a6.865,6.865,0,0,1,1.033,1.405q.223.491-.325.809a2.8,2.8,0,0,1-2.936-.237,6.358,6.358,0,0,1-1.664-1.359,4.364,4.364,0,0,1-.547-.8.527.527,0,0,0-.209-.2,1.288,1.288,0,0,0-1.17,0l-1.336.776c-.188.11-.256.276-.158.423a7.873,7.873,0,0,0,2.262,2.056l-1.106.642a.259.259,0,0,0,0,.49l1.187.685a.934.934,0,0,0,.845,0l1.159-.673a8.461,8.461,0,0,0,3.674.635,7.249,7.249,0,0,0,3.312-.932,2.657,2.657,0,0,0,1.256-1.226,1.533,1.533,0,0,0-.1-1.267,6.494,6.494,0,0,0-1.109-1.464c-.43-.466-.734-.811-.9-1.036a1.052,1.052,0,0,1-.255-.668c.005-.223.162-.425.47-.6a2.165,2.165,0,0,1,1.368-.247,4.1,4.1,0,0,1,1.568.546,4.025,4.025,0,0,1,1.357,1.217,4.808,4.808,0,0,1,.361.622.534.534,0,0,0,.219.217,1.283,1.283,0,0,0,1.172,0l1.352-.785c.191-.111.256-.276.158-.423a5.717,5.717,0,0,0-.616-.779,7.186,7.186,0,0,0-1.074-.905l.893-.519a.259.259,0,0,0,0-.489" transform="translate(-100.967 -168.99)" fill="#ff9d08"/><path d="M225.953,263.76v.171c0-.057,0-.114,0-.171" transform="translate(-149.76 -174.818)" fill="#ff9d08"/><path d="M160.225,241.875a10.453,10.453,0,0,0-4.147-3.978,21.719,21.719,0,0,0-7.709-2.522l-.963-.528h-5.966l-.927.508a21.591,21.591,0,0,0-7.822,2.542,10.258,10.258,0,0,0-4.114,4l-.688.377v3.792c.046,2.427,1.671,4.847,4.878,6.7,6.478,3.74,16.952,3.74,23.388,0,3.176-1.846,4.774-4.257,4.8-6.676v-3.814Z" transform="translate(-84.763 -155.655)" fill="#ff9d08"/><path d="M156.071,231c-6.48-3.742-16.949-3.742-23.388,0s-6.4,9.806.076,13.547,16.952,3.74,23.388,0,6.4-9.807-.076-13.547" transform="translate(-84.756 -151.246)" fill="#ffdc4c"/><path d="M146.561,231.515a22.5,22.5,0,0,0-11.116,2.654c-2.743,1.595-4.252,3.647-4.249,5.782,0,2.151,1.538,4.222,4.322,5.829a22.682,22.682,0,0,0,11.15,2.655h0a22.494,22.494,0,0,0,11.115-2.653c2.743-1.594,4.252-3.647,4.249-5.781,0-2.152-1.538-4.222-4.322-5.829a22.675,22.675,0,0,0-11.15-2.657" transform="translate(-86.956 -153.446)" fill="#ff9d08"/><path d="M148.4,233.666a22.5,22.5,0,0,0-11.116,2.655c-2.743,1.595-4.252,3.647-4.249,5.782,0,2.151,1.538,4.222,4.322,5.829a22.682,22.682,0,0,0,11.15,2.655h0a22.494,22.494,0,0,0,11.115-2.653c2.743-1.594,4.252-3.647,4.249-5.781,0-2.151-1.538-4.222-4.322-5.829a22.679,22.679,0,0,0-11.15-2.657" transform="translate(-88.178 -154.872)" fill="#ffdc4c"/><path d="M168.358,241.206l-1.187-.685a.935.935,0,0,0-.845,0l-.944.549a8.873,8.873,0,0,0-3.837-.706,7.071,7.071,0,0,0-3.226.882q-1.432.833-1.42,1.683a2.979,2.979,0,0,0,.871,1.84c.047.068.2.243.448.525a6.864,6.864,0,0,1,1.033,1.405q.223.491-.325.809a2.8,2.8,0,0,1-2.936-.237,6.353,6.353,0,0,1-1.664-1.359,4.366,4.366,0,0,1-.547-.8.527.527,0,0,0-.209-.2,1.288,1.288,0,0,0-1.17,0l-1.336.777c-.188.109-.256.275-.158.422a7.873,7.873,0,0,0,2.262,2.056l-1.106.642a.259.259,0,0,0,0,.49l1.187.685a.932.932,0,0,0,.845,0l1.159-.673a8.461,8.461,0,0,0,3.674.635,7.246,7.246,0,0,0,3.312-.932,2.658,2.658,0,0,0,1.256-1.226,1.533,1.533,0,0,0-.1-1.267,6.486,6.486,0,0,0-1.109-1.464c-.429-.466-.734-.811-.9-1.036a1.055,1.055,0,0,1-.255-.668q.008-.334.47-.6a2.165,2.165,0,0,1,1.368-.247,4.1,4.1,0,0,1,1.568.546,4.021,4.021,0,0,1,1.356,1.217,4.776,4.776,0,0,1,.361.622.534.534,0,0,0,.219.217,1.283,1.283,0,0,0,1.172,0l1.352-.785c.191-.111.256-.276.158-.423a5.716,5.716,0,0,0-.616-.779,7.191,7.191,0,0,0-1.074-.905l.893-.519a.259.259,0,0,0,0-.489" transform="translate(-99.989 -159.304)" fill="#ff9d08"/><path d="M225.953,243.845v.171c0-.057,0-.114,0-.171" transform="translate(-149.76 -161.618)" fill="#ff9d08"/><path d="M160.225,221.96a10.453,10.453,0,0,0-4.147-3.978,21.718,21.718,0,0,0-7.71-2.522l-.963-.528h-5.966l-.927.509a21.591,21.591,0,0,0-7.822,2.542,10.258,10.258,0,0,0-4.114,4l-.688.377v3.792c.046,2.427,1.671,4.847,4.878,6.7,6.478,3.74,16.952,3.74,23.388,0,3.176-1.846,4.774-4.258,4.8-6.676v-3.814Z" transform="translate(-84.763 -142.455)" fill="#ff9d08"/><path d="M156.071,211.088c-6.48-3.742-16.949-3.742-23.388,0s-6.4,9.806.076,13.547,16.952,3.74,23.388,0,6.4-9.807-.076-13.547" transform="translate(-84.756 -138.048)" fill="#ffdc4c"/><path d="M146.561,211.6a22.5,22.5,0,0,0-11.116,2.654c-2.743,1.594-4.252,3.647-4.249,5.781,0,2.151,1.538,4.222,4.322,5.829a22.682,22.682,0,0,0,11.15,2.655h0a22.494,22.494,0,0,0,11.115-2.653c2.743-1.594,4.252-3.647,4.249-5.781,0-2.152-1.538-4.222-4.322-5.83a22.678,22.678,0,0,0-11.15-2.656" transform="translate(-86.956 -140.247)" fill="#ff9d08"/><path d="M148.4,213.752a22.5,22.5,0,0,0-11.116,2.655c-2.743,1.594-4.252,3.647-4.249,5.781,0,2.151,1.538,4.222,4.322,5.829a22.682,22.682,0,0,0,11.15,2.655h0a22.494,22.494,0,0,0,11.115-2.653c2.743-1.594,4.252-3.647,4.249-5.781,0-2.152-1.538-4.222-4.322-5.83a22.678,22.678,0,0,0-11.15-2.656" transform="translate(-88.178 -141.673)" fill="#ffdc4c"/><path d="M168.358,221.292l-1.187-.685a.935.935,0,0,0-.845,0l-.944.549a8.873,8.873,0,0,0-3.837-.706,7.066,7.066,0,0,0-3.226.882c-.955.555-1.43,1.118-1.42,1.683a2.98,2.98,0,0,0,.871,1.84c.047.068.2.243.448.526a6.873,6.873,0,0,1,1.033,1.4q.223.491-.325.809a2.8,2.8,0,0,1-2.936-.237A6.353,6.353,0,0,1,154.326,226a4.364,4.364,0,0,1-.547-.8.527.527,0,0,0-.209-.2,1.288,1.288,0,0,0-1.17,0l-1.336.776c-.188.109-.256.276-.158.423a7.873,7.873,0,0,0,2.262,2.055l-1.106.643a.259.259,0,0,0,0,.49l1.187.685a.935.935,0,0,0,.845,0l1.159-.673a8.466,8.466,0,0,0,3.674.635,7.254,7.254,0,0,0,3.312-.932,2.66,2.66,0,0,0,1.256-1.226,1.534,1.534,0,0,0-.1-1.268,6.492,6.492,0,0,0-1.109-1.464c-.43-.466-.734-.812-.9-1.036a1.055,1.055,0,0,1-.255-.668q.008-.334.47-.6a2.165,2.165,0,0,1,1.368-.247,4.094,4.094,0,0,1,1.568.546,4.021,4.021,0,0,1,1.357,1.217,4.875,4.875,0,0,1,.361.621.529.529,0,0,0,.219.218,1.282,1.282,0,0,0,1.172,0l1.352-.785c.191-.111.256-.276.158-.423a5.732,5.732,0,0,0-.616-.779,7.17,7.17,0,0,0-1.074-.905l.893-.519a.259.259,0,0,0,0-.49" transform="translate(-99.989 -146.105)" fill="#ff9d08"/><path d="M221.774,228.365v.171c0-.057,0-.114,0-.171" transform="translate(-146.99 -151.358)" fill="#ff9d08"/><path d="M156.046,206.48A10.453,10.453,0,0,0,151.9,202.5a21.718,21.718,0,0,0-7.709-2.522l-.963-.528H137.26l-.927.509a21.591,21.591,0,0,0-7.822,2.542,10.258,10.258,0,0,0-4.114,4l-.688.377v3.792c.046,2.427,1.671,4.847,4.878,6.7,6.478,3.74,16.952,3.74,23.388,0,3.176-1.846,4.774-4.257,4.8-6.676v-3.813Z" transform="translate(-81.993 -132.195)" fill="#ff9d08"/><path d="M151.892,195.608c-6.48-3.742-16.949-3.742-23.388,0s-6.4,9.806.076,13.547,16.952,3.74,23.388,0,6.4-9.807-.076-13.547" transform="translate(-81.986 -127.788)" fill="#ffdc4c"/><path d="M142.382,196.121a22.5,22.5,0,0,0-11.116,2.655c-2.743,1.594-4.252,3.647-4.249,5.781,0,2.151,1.538,4.222,4.322,5.829a22.678,22.678,0,0,0,11.15,2.655h0a22.494,22.494,0,0,0,11.115-2.654c2.743-1.594,4.252-3.647,4.249-5.781,0-2.152-1.538-4.222-4.322-5.83a22.678,22.678,0,0,0-11.15-2.656" transform="translate(-84.186 -129.987)" fill="#ff9d08"/><path d="M144.226,198.272a22.5,22.5,0,0,0-11.116,2.655c-2.743,1.594-4.252,3.647-4.249,5.781,0,2.151,1.538,4.222,4.322,5.829a22.678,22.678,0,0,0,11.15,2.655h0a22.494,22.494,0,0,0,11.115-2.654c2.743-1.594,4.252-3.647,4.249-5.781,0-2.152-1.538-4.222-4.322-5.83a22.679,22.679,0,0,0-11.15-2.656" transform="translate(-85.408 -131.413)" fill="#ffdc4c"/><path d="M164.18,205.811l-1.187-.685a.935.935,0,0,0-.845,0l-.944.549a8.874,8.874,0,0,0-3.837-.706,7.072,7.072,0,0,0-3.226.882q-1.432.833-1.42,1.683a2.981,2.981,0,0,0,.871,1.84c.047.068.2.243.448.525a6.856,6.856,0,0,1,1.033,1.405q.223.491-.324.809a2.8,2.8,0,0,1-2.936-.237,6.354,6.354,0,0,1-1.664-1.359,4.362,4.362,0,0,1-.547-.8.525.525,0,0,0-.209-.2,1.287,1.287,0,0,0-1.17,0l-1.336.776c-.188.11-.256.276-.158.423a7.872,7.872,0,0,0,2.262,2.055l-1.106.643a.259.259,0,0,0,0,.49l1.187.685a.934.934,0,0,0,.845,0l1.16-.673a8.464,8.464,0,0,0,3.674.635,7.253,7.253,0,0,0,3.312-.932,2.659,2.659,0,0,0,1.256-1.226,1.533,1.533,0,0,0-.1-1.267,6.494,6.494,0,0,0-1.109-1.465c-.429-.466-.734-.811-.9-1.035a1.059,1.059,0,0,1-.255-.668c.005-.223.162-.425.47-.6a2.164,2.164,0,0,1,1.368-.247,4.1,4.1,0,0,1,1.568.546,4.017,4.017,0,0,1,1.356,1.217,4.736,4.736,0,0,1,.361.622.536.536,0,0,0,.219.217,1.283,1.283,0,0,0,1.172,0l1.352-.785c.19-.111.256-.276.157-.423a5.691,5.691,0,0,0-.616-.779,7.208,7.208,0,0,0-1.074-.905l.893-.519a.259.259,0,0,0,0-.489" transform="translate(-97.219 -135.845)" fill="#ff9d08"/><path d="M224.388,214.426v.171c0-.057,0-.114,0-.171" transform="translate(-148.723 -142.12)" fill="#ff9d08"/><path d="M158.66,192.54a10.45,10.45,0,0,0-4.147-3.977,21.711,21.711,0,0,0-7.71-2.523l-.963-.528h-5.966l-.927.509a21.583,21.583,0,0,0-7.822,2.542,10.255,10.255,0,0,0-4.114,4l-.688.377v3.792c.046,2.427,1.671,4.847,4.878,6.7,6.478,3.74,16.952,3.74,23.388,0,3.176-1.846,4.774-4.257,4.8-6.676v-3.813Z" transform="translate(-83.726 -122.956)" fill="#ff9d08"/><path d="M154.506,181.668c-6.48-3.742-16.949-3.742-23.388,0s-6.4,9.806.076,13.547,16.952,3.74,23.388,0,6.4-9.807-.076-13.547" transform="translate(-83.718 -118.548)" fill="#ffdc4c"/><path d="M145,182.181a22.5,22.5,0,0,0-11.116,2.655c-2.743,1.594-4.252,3.647-4.249,5.781,0,2.152,1.538,4.222,4.322,5.829A22.678,22.678,0,0,0,145.1,199.1h0a22.5,22.5,0,0,0,11.115-2.653c2.743-1.594,4.252-3.647,4.249-5.781,0-2.151-1.538-4.222-4.322-5.829A22.674,22.674,0,0,0,145,182.181" transform="translate(-85.918 -120.748)" fill="#ff9d08"/><path d="M146.84,184.332a22.5,22.5,0,0,0-11.116,2.655c-2.743,1.594-4.252,3.647-4.249,5.781,0,2.152,1.538,4.222,4.322,5.829a22.678,22.678,0,0,0,11.15,2.655h0a22.5,22.5,0,0,0,11.115-2.654c2.743-1.594,4.252-3.647,4.249-5.781,0-2.151-1.538-4.222-4.322-5.829a22.675,22.675,0,0,0-11.15-2.656" transform="translate(-87.141 -122.174)" fill="#ffdc4c"/><path d="M166.794,191.872l-1.187-.685a.935.935,0,0,0-.845,0l-.944.549a8.873,8.873,0,0,0-3.837-.706,7.072,7.072,0,0,0-3.226.882q-1.432.833-1.42,1.683a2.979,2.979,0,0,0,.871,1.84c.047.068.2.243.448.525a6.863,6.863,0,0,1,1.033,1.405q.223.491-.325.809a2.8,2.8,0,0,1-2.936-.237,6.346,6.346,0,0,1-1.664-1.359,4.376,4.376,0,0,1-.547-.8.527.527,0,0,0-.209-.2,1.288,1.288,0,0,0-1.17,0l-1.336.777c-.188.11-.256.276-.158.423a7.867,7.867,0,0,0,2.262,2.055l-1.106.643a.259.259,0,0,0,0,.49l1.187.685a.934.934,0,0,0,.845,0l1.159-.673a8.466,8.466,0,0,0,3.674.635,7.25,7.25,0,0,0,3.312-.932,2.659,2.659,0,0,0,1.256-1.226,1.533,1.533,0,0,0-.1-1.267,6.494,6.494,0,0,0-1.109-1.465c-.429-.466-.734-.811-.9-1.035a1.055,1.055,0,0,1-.255-.668c.005-.223.162-.425.47-.6a2.165,2.165,0,0,1,1.368-.247,4.1,4.1,0,0,1,1.568.546,4.02,4.02,0,0,1,1.356,1.217,4.778,4.778,0,0,1,.361.622.533.533,0,0,0,.219.217,1.283,1.283,0,0,0,1.172,0l1.352-.785c.191-.111.256-.276.158-.423a5.721,5.721,0,0,0-.616-.779,7.192,7.192,0,0,0-1.074-.905l.893-.519a.259.259,0,0,0,0-.489" transform="translate(-98.953 -126.606)" fill="#ff9d08"/><path d="M222.913,199.813v.171c0-.057,0-.114,0-.171" transform="translate(-147.745 -132.434)" fill="#ff9d08"/><path d="M157.185,177.927a10.45,10.45,0,0,0-4.147-3.977,21.712,21.712,0,0,0-7.709-2.523l-.963-.528H138.4l-.927.509a21.583,21.583,0,0,0-7.822,2.542,10.255,10.255,0,0,0-4.114,4l-.688.377v3.792c.046,2.426,1.671,4.847,4.878,6.7,6.478,3.74,16.952,3.74,23.388,0,3.176-1.846,4.774-4.258,4.8-6.677v-3.814Z" transform="translate(-82.748 -113.27)" fill="#ff9d08"/><path d="M153.031,167.055c-6.48-3.742-16.949-3.742-23.388,0s-6.4,9.806.076,13.547,16.952,3.74,23.388,0,6.4-9.807-.076-13.547" transform="translate(-82.741 -108.863)" fill="#ffdc4c"/><path d="M143.522,167.568a22.5,22.5,0,0,0-11.116,2.655c-2.743,1.594-4.252,3.647-4.249,5.781,0,2.152,1.538,4.222,4.322,5.829a22.678,22.678,0,0,0,11.15,2.655h0a22.5,22.5,0,0,0,11.115-2.653c2.743-1.594,4.252-3.647,4.249-5.781,0-2.152-1.538-4.222-4.322-5.83a22.675,22.675,0,0,0-11.15-2.656" transform="translate(-84.941 -111.063)" fill="#ff9d08"/><path d="M145.365,169.719a22.5,22.5,0,0,0-11.116,2.655c-2.743,1.594-4.252,3.647-4.249,5.781,0,2.152,1.538,4.222,4.322,5.829a22.678,22.678,0,0,0,11.15,2.655h0a22.5,22.5,0,0,0,11.115-2.653c2.743-1.594,4.252-3.647,4.249-5.781,0-2.152-1.538-4.222-4.322-5.83a22.675,22.675,0,0,0-11.15-2.656" transform="translate(-86.163 -112.488)" fill="#ffdc4c"/><path d="M165.319,177.259l-1.187-.685a.935.935,0,0,0-.845,0l-.944.549a8.867,8.867,0,0,0-3.837-.705,7.067,7.067,0,0,0-3.226.882q-1.432.833-1.42,1.683a2.981,2.981,0,0,0,.871,1.84c.047.068.2.243.448.525a6.865,6.865,0,0,1,1.033,1.405q.223.491-.325.809a2.8,2.8,0,0,1-2.936-.237,6.359,6.359,0,0,1-1.664-1.359,4.366,4.366,0,0,1-.547-.8.527.527,0,0,0-.209-.2,1.288,1.288,0,0,0-1.17,0l-1.336.777c-.188.109-.256.275-.158.422a7.873,7.873,0,0,0,2.262,2.056l-1.106.642a.259.259,0,0,0,0,.49l1.187.685a.934.934,0,0,0,.845,0l1.159-.673a8.462,8.462,0,0,0,3.674.635,7.25,7.25,0,0,0,3.312-.932,2.659,2.659,0,0,0,1.256-1.226,1.533,1.533,0,0,0-.1-1.267,6.486,6.486,0,0,0-1.109-1.464c-.429-.466-.734-.811-.9-1.036a1.055,1.055,0,0,1-.255-.668q.008-.334.47-.6a2.165,2.165,0,0,1,1.368-.247,4.1,4.1,0,0,1,1.568.546,4.021,4.021,0,0,1,1.356,1.217,4.778,4.778,0,0,1,.361.622.534.534,0,0,0,.219.218,1.283,1.283,0,0,0,1.172,0l1.352-.785c.191-.111.256-.276.158-.423a5.715,5.715,0,0,0-.616-.779,7.186,7.186,0,0,0-1.074-.905l.893-.519a.259.259,0,0,0,0-.49" transform="translate(-97.975 -116.921)" fill="#ff9d08"/><path d="M220.635,185.2v.172c0-.057,0-.114,0-.172" transform="translate(-146.235 -122.748)" fill="#ff9d08"/><path d="M154.907,163.314a10.453,10.453,0,0,0-4.147-3.978,21.719,21.719,0,0,0-7.709-2.522l-.963-.528h-5.966l-.927.509a21.591,21.591,0,0,0-7.822,2.542,10.258,10.258,0,0,0-4.114,4l-.688.377v3.792c.046,2.427,1.671,4.847,4.878,6.7,6.478,3.74,16.952,3.74,23.388,0,3.177-1.846,4.774-4.257,4.8-6.676v-3.814Z" transform="translate(-81.238 -103.585)" fill="#ff9d08"/><path d="M150.753,152.442c-6.48-3.742-16.949-3.742-23.388,0s-6.4,9.806.076,13.547,16.952,3.74,23.388,0,6.4-9.807-.076-13.547" transform="translate(-81.231 -99.178)" fill="#ffdc4c"/><path d="M141.243,152.955a22.5,22.5,0,0,0-11.116,2.655c-2.743,1.594-4.252,3.647-4.249,5.781,0,2.151,1.538,4.222,4.322,5.829a22.682,22.682,0,0,0,11.15,2.655h0a22.494,22.494,0,0,0,11.115-2.654c2.743-1.594,4.252-3.647,4.249-5.781,0-2.152-1.538-4.222-4.322-5.83a22.678,22.678,0,0,0-11.15-2.656" transform="translate(-83.431 -101.377)" fill="#ff9d08"/><path d="M143.087,155.106a22.5,22.5,0,0,0-11.116,2.654c-2.743,1.594-4.252,3.647-4.249,5.781,0,2.151,1.538,4.222,4.322,5.829a22.681,22.681,0,0,0,11.15,2.655h0a22.494,22.494,0,0,0,11.115-2.653c2.743-1.594,4.252-3.647,4.249-5.781,0-2.152-1.538-4.222-4.322-5.83a22.675,22.675,0,0,0-11.15-2.656" transform="translate(-84.653 -102.803)" fill="#ffdc4c"/><path d="M163.04,162.645l-1.187-.685a.935.935,0,0,0-.845,0l-.944.549a8.874,8.874,0,0,0-3.837-.706,7.071,7.071,0,0,0-3.226.882q-1.432.833-1.42,1.683a2.979,2.979,0,0,0,.871,1.84c.047.068.2.243.448.525a6.865,6.865,0,0,1,1.033,1.405q.223.491-.325.809a2.8,2.8,0,0,1-2.936-.237,6.353,6.353,0,0,1-1.664-1.359,4.364,4.364,0,0,1-.547-.8.527.527,0,0,0-.209-.2,1.288,1.288,0,0,0-1.17,0l-1.336.777c-.188.109-.256.276-.158.422a7.873,7.873,0,0,0,2.262,2.056l-1.106.642a.259.259,0,0,0,0,.49l1.187.685a.932.932,0,0,0,.845,0l1.159-.673a8.461,8.461,0,0,0,3.674.635,7.246,7.246,0,0,0,3.312-.932,2.659,2.659,0,0,0,1.256-1.226,1.534,1.534,0,0,0-.1-1.267,6.486,6.486,0,0,0-1.109-1.464c-.429-.466-.734-.811-.9-1.036a1.055,1.055,0,0,1-.255-.668q.008-.334.47-.6a2.164,2.164,0,0,1,1.368-.247,4.1,4.1,0,0,1,1.568.546,4.021,4.021,0,0,1,1.356,1.217,4.776,4.776,0,0,1,.361.622.534.534,0,0,0,.219.218,1.283,1.283,0,0,0,1.172,0l1.352-.785c.191-.111.256-.276.158-.423a5.718,5.718,0,0,0-.616-.779,7.205,7.205,0,0,0-1.074-.905l.893-.519a.259.259,0,0,0,0-.49" transform="translate(-96.465 -107.235)" fill="#ff9d08"/><path d="M226.936,171.228v.171c0-.057,0-.114,0-.171" transform="translate(-150.411 -113.489)" fill="#ff9d08"/><path d="M161.208,149.342a10.45,10.45,0,0,0-4.147-3.977,21.712,21.712,0,0,0-7.709-2.523l-.963-.528h-5.966l-.927.509a21.582,21.582,0,0,0-7.822,2.542,10.255,10.255,0,0,0-4.114,4l-.688.377v3.792c.046,2.427,1.671,4.847,4.878,6.7,6.478,3.74,16.952,3.74,23.388,0,3.177-1.846,4.774-4.257,4.8-6.676v-3.813Z" transform="translate(-85.415 -94.325)" fill="#ff9d08"/><path d="M157.055,138.47c-6.48-3.742-16.949-3.742-23.388,0s-6.4,9.806.076,13.547,16.952,3.74,23.388,0,6.4-9.807-.076-13.547" transform="translate(-85.408 -89.917)" fill="#ffdc4c"/><path d="M147.545,138.983a22.5,22.5,0,0,0-11.116,2.655c-2.743,1.594-4.252,3.647-4.249,5.781,0,2.152,1.538,4.222,4.322,5.829a22.678,22.678,0,0,0,11.15,2.655h0a22.5,22.5,0,0,0,11.115-2.654c2.743-1.594,4.252-3.647,4.249-5.781,0-2.151-1.538-4.222-4.322-5.829a22.674,22.674,0,0,0-11.15-2.656" transform="translate(-87.608 -92.117)" fill="#ff9d08"/><path d="M149.389,141.134a22.5,22.5,0,0,0-11.116,2.655c-2.743,1.594-4.252,3.647-4.249,5.781,0,2.152,1.538,4.222,4.322,5.829a22.678,22.678,0,0,0,11.15,2.655h0a22.5,22.5,0,0,0,11.115-2.654c2.743-1.594,4.252-3.647,4.249-5.781,0-2.151-1.538-4.222-4.322-5.829a22.674,22.674,0,0,0-11.15-2.656" transform="translate(-88.83 -93.542)" fill="#ffdc4c"/><path d="M169.342,148.674l-1.187-.685a.935.935,0,0,0-.845,0l-.944.549a8.873,8.873,0,0,0-3.837-.706,7.071,7.071,0,0,0-3.226.882c-.955.555-1.43,1.118-1.42,1.683a2.979,2.979,0,0,0,.871,1.84c.047.068.2.243.448.525a6.865,6.865,0,0,1,1.033,1.405q.223.491-.325.809a2.8,2.8,0,0,1-2.936-.237,6.353,6.353,0,0,1-1.664-1.359,4.377,4.377,0,0,1-.547-.8.527.527,0,0,0-.209-.2,1.287,1.287,0,0,0-1.17,0l-1.336.776c-.188.11-.256.276-.158.423a7.867,7.867,0,0,0,2.262,2.055l-1.106.643a.259.259,0,0,0,0,.49l1.187.685a.934.934,0,0,0,.845,0l1.159-.673a8.466,8.466,0,0,0,3.674.635,7.25,7.25,0,0,0,3.312-.932,2.659,2.659,0,0,0,1.256-1.226,1.533,1.533,0,0,0-.1-1.267,6.487,6.487,0,0,0-1.109-1.464c-.429-.466-.734-.811-.9-1.036a1.055,1.055,0,0,1-.255-.668q.008-.334.47-.6a2.164,2.164,0,0,1,1.368-.247,4.1,4.1,0,0,1,1.568.546,4.021,4.021,0,0,1,1.356,1.217,4.773,4.773,0,0,1,.361.622.534.534,0,0,0,.219.218,1.283,1.283,0,0,0,1.172,0l1.352-.785c.191-.111.256-.276.158-.423a5.717,5.717,0,0,0-.616-.779,7.192,7.192,0,0,0-1.074-.905l.893-.519a.259.259,0,0,0,0-.489" transform="translate(-100.641 -97.975)" fill="#ff9d08"/><path d="M221.774,156.647v.171c0-.057,0-.114,0-.171" transform="translate(-146.99 -103.824)" fill="#ff9d08"/><path d="M156.046,134.761a10.453,10.453,0,0,0-4.147-3.978,21.719,21.719,0,0,0-7.709-2.522l-.963-.528H137.26l-.927.508a21.592,21.592,0,0,0-7.822,2.542,10.258,10.258,0,0,0-4.114,4l-.688.377v3.792c.046,2.427,1.671,4.847,4.878,6.7,6.478,3.74,16.952,3.74,23.388,0,3.176-1.846,4.774-4.257,4.8-6.676v-3.813Z" transform="translate(-81.993 -84.66)" fill="#ff9d08"/><path d="M151.892,123.889c-6.48-3.742-16.949-3.742-23.388,0s-6.4,9.806.076,13.547,16.952,3.74,23.388,0,6.4-9.807-.076-13.547" transform="translate(-81.986 -80.253)" fill="#ffdc4c"/><path d="M142.382,124.4a22.5,22.5,0,0,0-11.116,2.654c-2.743,1.594-4.252,3.647-4.249,5.781,0,2.152,1.538,4.222,4.322,5.829a22.678,22.678,0,0,0,11.15,2.655h0a22.5,22.5,0,0,0,11.115-2.653c2.743-1.594,4.252-3.647,4.249-5.781,0-2.151-1.538-4.222-4.322-5.829a22.674,22.674,0,0,0-11.15-2.656" transform="translate(-84.186 -82.453)" fill="#ff9d08"/><path d="M144.226,126.553a22.5,22.5,0,0,0-11.116,2.654c-2.743,1.594-4.252,3.647-4.249,5.781,0,2.152,1.538,4.222,4.322,5.829a22.678,22.678,0,0,0,11.15,2.655h0a22.494,22.494,0,0,0,11.115-2.653c2.743-1.594,4.252-3.647,4.249-5.781,0-2.151-1.538-4.222-4.322-5.829a22.675,22.675,0,0,0-11.15-2.656" transform="translate(-85.408 -83.878)" fill="#ffdc4c"/><path d="M164.18,134.093l-1.187-.685a.935.935,0,0,0-.845,0l-.944.549a8.873,8.873,0,0,0-3.837-.706,7.072,7.072,0,0,0-3.226.882c-.955.555-1.429,1.118-1.42,1.683a2.981,2.981,0,0,0,.871,1.84c.047.068.2.243.448.525a6.865,6.865,0,0,1,1.033,1.405q.223.491-.324.809a2.8,2.8,0,0,1-2.936-.237,6.348,6.348,0,0,1-1.664-1.359,4.362,4.362,0,0,1-.547-.8.525.525,0,0,0-.209-.2,1.287,1.287,0,0,0-1.17,0l-1.336.776c-.188.11-.256.276-.158.423a7.872,7.872,0,0,0,2.262,2.055l-1.106.643a.259.259,0,0,0,0,.49l1.187.685a.933.933,0,0,0,.845,0l1.16-.673a8.464,8.464,0,0,0,3.674.635,7.253,7.253,0,0,0,3.312-.932,2.659,2.659,0,0,0,1.256-1.226,1.534,1.534,0,0,0-.1-1.267,6.485,6.485,0,0,0-1.109-1.464c-.429-.466-.734-.811-.9-1.036a1.059,1.059,0,0,1-.255-.668q.008-.334.47-.6a2.164,2.164,0,0,1,1.368-.247,4.1,4.1,0,0,1,1.568.546,4.018,4.018,0,0,1,1.356,1.217,4.736,4.736,0,0,1,.361.622.536.536,0,0,0,.219.217,1.283,1.283,0,0,0,1.172,0l1.352-.785c.19-.111.256-.276.157-.423a5.691,5.691,0,0,0-.616-.779,7.206,7.206,0,0,0-1.074-.905l.893-.519a.259.259,0,0,0,0-.489" transform="translate(-97.219 -88.311)" fill="#ff9d08"/><path d="M220.3,142.033v.171c0-.057,0-.114,0-.171" transform="translate(-146.012 -94.138)" fill="#ff9d08"/><path d="M154.571,120.148a10.453,10.453,0,0,0-4.147-3.978,21.719,21.719,0,0,0-7.709-2.522l-.963-.528h-5.966l-.927.509a21.589,21.589,0,0,0-7.822,2.542,10.258,10.258,0,0,0-4.114,4l-.688.377v3.792c.046,2.427,1.671,4.847,4.878,6.7,6.478,3.74,16.952,3.74,23.388,0,3.176-1.846,4.774-4.257,4.8-6.676v-3.813Z" transform="translate(-81.016 -74.975)" fill="#ff9d08"/><path d="M150.417,109.276c-6.48-3.742-16.949-3.742-23.388,0s-6.4,9.806.076,13.547,16.952,3.74,23.388,0,6.4-9.807-.076-13.547" transform="translate(-81.008 -70.567)" fill="#ffdc4c"/><path d="M140.907,109.789a22.5,22.5,0,0,0-11.116,2.655c-2.743,1.594-4.252,3.647-4.249,5.781,0,2.152,1.538,4.222,4.322,5.829a22.678,22.678,0,0,0,11.15,2.655h0a22.494,22.494,0,0,0,11.115-2.653c2.743-1.594,4.252-3.647,4.249-5.781,0-2.152-1.538-4.222-4.322-5.83a22.675,22.675,0,0,0-11.15-2.656" transform="translate(-83.208 -72.767)" fill="#ff9d08"/><path d="M142.751,111.94a22.5,22.5,0,0,0-11.116,2.655c-2.743,1.594-4.252,3.647-4.249,5.781,0,2.152,1.538,4.222,4.322,5.829a22.678,22.678,0,0,0,11.15,2.655h0a22.5,22.5,0,0,0,11.115-2.654c2.743-1.594,4.252-3.647,4.249-5.781,0-2.152-1.538-4.222-4.322-5.83a22.675,22.675,0,0,0-11.15-2.656" transform="translate(-84.43 -74.193)" fill="#ffdc4c"/><path d="M162.7,119.48l-1.187-.685a.935.935,0,0,0-.845,0l-.944.549a8.874,8.874,0,0,0-3.837-.706,7.071,7.071,0,0,0-3.226.882q-1.432.833-1.42,1.683a2.979,2.979,0,0,0,.871,1.84c.047.068.2.243.448.525a6.856,6.856,0,0,1,1.033,1.405c.148.327.041.6-.325.809a2.8,2.8,0,0,1-2.936-.237,6.353,6.353,0,0,1-1.664-1.359,4.36,4.36,0,0,1-.547-.8.527.527,0,0,0-.209-.2,1.287,1.287,0,0,0-1.17,0l-1.336.776c-.189.11-.256.276-.158.423a7.867,7.867,0,0,0,2.262,2.055l-1.106.643a.259.259,0,0,0,0,.49l1.187.685a.934.934,0,0,0,.845,0l1.159-.673a8.466,8.466,0,0,0,3.674.635,7.25,7.25,0,0,0,3.312-.932,2.656,2.656,0,0,0,1.256-1.226,1.532,1.532,0,0,0-.1-1.267,6.505,6.505,0,0,0-1.109-1.465c-.429-.466-.734-.811-.9-1.035a1.055,1.055,0,0,1-.255-.668c.005-.223.162-.425.47-.6a2.164,2.164,0,0,1,1.368-.247,4.1,4.1,0,0,1,1.568.546,4.021,4.021,0,0,1,1.356,1.217,4.772,4.772,0,0,1,.361.622.534.534,0,0,0,.219.218,1.283,1.283,0,0,0,1.172,0l1.352-.785c.191-.111.256-.276.158-.423a5.718,5.718,0,0,0-.616-.779,7.206,7.206,0,0,0-1.074-.905l.893-.519a.259.259,0,0,0,0-.489" transform="translate(-96.242 -78.625)" fill="#ff9d08"/><path d="M107.163,24.731a24.034,24.034,0,0,1-11.754-2.812c-3.173-1.832-4.923-4.274-4.927-6.875,0-2.583,1.719-5.008,4.85-6.828,6.452-3.749,16.984-3.749,23.478,0,3.173,1.832,4.923,4.273,4.927,6.875,0,2.583-1.719,5.008-4.851,6.827a23.852,23.852,0,0,1-11.724,2.812m-.107-19.15a23.668,23.668,0,0,0-11.633,2.79c-3.074,1.786-4.765,4.156-4.761,6.673,0,2.534,1.721,4.92,4.837,6.719,6.444,3.72,16.9,3.72,23.3,0,3.074-1.786,4.764-4.156,4.761-6.672,0-2.534-1.721-4.921-4.837-6.72a23.853,23.853,0,0,0-11.665-2.79" transform="translate(-59.971 -3.582)" fill="#e9f3ff"/><path d="M16.681,127.507a24.031,24.031,0,0,1-11.754-2.812C1.753,122.863,0,120.421,0,117.82c0-2.583,1.719-5.008,4.85-6.828,6.452-3.749,16.984-3.749,23.478,0,3.173,1.832,4.923,4.273,4.927,6.875,0,2.583-1.719,5.008-4.85,6.828a23.86,23.86,0,0,1-11.724,2.812m-.107-19.15a23.672,23.672,0,0,0-11.633,2.79C1.867,112.934.176,115.3.18,117.82c0,2.534,1.721,4.92,4.837,6.719,6.444,3.72,16.9,3.72,23.3,0,3.074-1.786,4.765-4.156,4.761-6.672,0-2.534-1.721-4.921-4.837-6.72a23.853,23.853,0,0,0-11.665-2.79" transform="translate(0 -71.701)" fill="#e9f3ff"/><path d="M138.638,117.991a24.037,24.037,0,0,1-11.755-2.812c-3.173-1.832-4.923-4.274-4.926-6.875,0-2.583,1.719-5.008,4.85-6.828,6.452-3.749,16.985-3.749,23.478,0,3.173,1.832,4.923,4.273,4.927,6.875,0,2.583-1.72,5.008-4.851,6.828a23.855,23.855,0,0,1-11.723,2.812m-.107-19.15a23.667,23.667,0,0,0-11.633,2.79c-3.074,1.786-4.764,4.156-4.761,6.673,0,2.534,1.721,4.92,4.837,6.719,6.444,3.72,16.9,3.72,23.3,0,3.074-1.787,4.764-4.156,4.761-6.672,0-2.534-1.721-4.921-4.837-6.72a23.854,23.854,0,0,0-11.665-2.79" transform="translate(-80.832 -65.394)" fill="#e9f3ff"/><path d="M357.7,218.4c-2.542,0-4.927-1.7-6.717-4.778-3.693-6.354-3.693-16.728,0-23.123,1.8-3.126,4.209-4.849,6.771-4.853h.008c2.542,0,4.927,1.7,6.718,4.777,3.693,6.355,3.693,16.728,0,23.124-1.8,3.126-4.21,4.849-6.772,4.853Zm.062-32.574h-.008c-2.5,0-4.845,1.7-6.616,4.763-3.664,6.346-3.664,16.638,0,22.943,1.758,3.023,4.088,4.688,6.562,4.688h.008c2.5,0,4.845-1.7,6.616-4.763,3.664-6.346,3.664-16.638,0-22.943-1.757-3.023-4.088-4.688-6.562-4.688" transform="translate(-230.795 -123.042)" fill="#e9f3ff"/></g></g></svg>