<svg xmlns="http://www.w3.org/2000/svg" xmlns:xlink="http://www.w3.org/1999/xlink" width="415.265" height="265.493" viewBox="0 0 415.265 265.493"><defs><clipPath id="a"><rect width="342.256" height="257.732" fill="#ffb338"/></clipPath><clipPath id="c"><rect width="35.921" height="35.022" fill="#ffb338"/></clipPath><clipPath id="d"><rect width="19.658" height="19.166" fill="#ffb338"/></clipPath><clipPath id="e"><rect width="19.657" height="19.166" fill="#ffb338"/></clipPath><clipPath id="g"><rect width="35.921" height="35.023" fill="#ffb338"/></clipPath><clipPath id="h"><rect width="116.069" height="113.168" fill="#ffb338"/></clipPath><clipPath id="i"><rect width="160.292" height="156.285" fill="#ffb338"/></clipPath><clipPath id="j"><rect width="91.262" height="88.98" fill="#ffb338"/></clipPath><clipPath id="k"><rect width="85.902" height="83.754" fill="#ffb338"/></clipPath><clipPath id="l"><rect width="53.054" height="51.727" fill="#ffb338"/></clipPath><clipPath id="m"><rect width="415.265" height="197.509" fill="none"/></clipPath></defs><g transform="translate(8998 2435.984)"><g transform="translate(-3556 3771.49)"><g transform="translate(-5418.418 -6207.474)" opacity="0.35"><g clip-path="url(#a)"><g clip-path="url(#a)"><g transform="translate(148.185)" style="mix-blend-mode:multiply;isolation:isolate"><g clip-path="url(#c)"><path d="M118.857,17.511a17.966,17.966,0,0,0-35.921,0,17.966,17.966,0,0,0,35.921,0" transform="translate(-82.936 -0.001)" fill="#ffb338"/></g></g><g transform="translate(322.598 146.4)" style="mix-blend-mode:multiply;isolation:isolate"><g clip-path="url(#d)"><path d="M200.209,91.519a9.832,9.832,0,1,0-9.829,9.582,9.708,9.708,0,0,0,9.829-9.582" transform="translate(-180.551 -81.937)" fill="#ffb338"/></g></g><g transform="translate(56.374 7.034)" style="mix-blend-mode:multiply;isolation:isolate"><g clip-path="url(#e)"><path d="M51.209,13.519a9.832,9.832,0,0,0-19.658,0,9.832,9.832,0,0,0,19.658,0" transform="translate(-31.552 -3.937)" fill="#ffb338"/></g></g><g transform="translate(140.351 226.804)" style="mix-blend-mode:multiply;isolation:isolate"><g clip-path="url(#e)"><path d="M98.209,136.519A9.832,9.832,0,1,0,88.38,146.1a9.708,9.708,0,0,0,9.829-9.582" transform="translate(-78.552 -126.937)" fill="#ffb338"/></g></g><g transform="translate(0 141.152)" style="mix-blend-mode:multiply;isolation:isolate"><g clip-path="url(#g)"><path d="M35.921,96.511A17.741,17.741,0,0,0,17.96,79a17.517,17.517,0,1,0,0,35.024,17.741,17.741,0,0,0,17.96-17.512" transform="translate(0 -79)" fill="#ffb338"/></g></g><g transform="translate(14.806 34.713)" style="mix-blend-mode:multiply;isolation:isolate"><g clip-path="url(#h)"><path d="M124.356,76.012c0-31.25-25.983-56.584-58.035-56.584S8.287,44.762,8.287,76.012,34.27,132.6,66.32,132.6s58.035-25.334,58.035-56.584" transform="translate(-8.286 -19.428)" fill="#ffb338"/></g></g><g transform="translate(155.402 23.428)" style="mix-blend-mode:multiply;isolation:isolate"><g clip-path="url(#i)"><path d="M247.267,91.254c0-43.157-35.883-78.141-80.146-78.141S86.975,48.1,86.975,91.254,122.858,169.4,167.121,169.4s80.146-34.986,80.146-78.143" transform="translate(-86.975 -13.111)" fill="#ffb338"/></g></g><g transform="translate(44.298 168.752)" style="mix-blend-mode:multiply;isolation:isolate"><g clip-path="url(#j)"><path d="M116.054,138.937c0-24.571-20.43-44.49-45.632-44.49s-45.63,19.919-45.63,44.49,20.43,44.49,45.63,44.49,45.632-19.919,45.632-44.49" transform="translate(-24.792 -94.446)" fill="#ffb338"/></g></g><g transform="translate(173.837 156.178)" style="mix-blend-mode:multiply;isolation:isolate"><g clip-path="url(#k)"><path d="M183.194,129.287c0-23.128-19.229-41.878-42.951-41.878s-42.95,18.75-42.95,41.878,19.229,41.878,42.95,41.878,42.951-18.75,42.951-41.878" transform="translate(-97.292 -87.409)" fill="#ffb338"/></g></g><g transform="translate(286.247 167.642)" style="mix-blend-mode:multiply;isolation:isolate"><g clip-path="url(#l)"><path d="M213.26,119.688c0-14.283-11.876-25.863-26.526-25.863s-26.528,11.58-26.528,25.863,11.877,25.863,26.528,25.863,26.526-11.578,26.526-25.863" transform="translate(-160.206 -93.826)" fill="#ffb338"/></g></g></g></g></g></g><g transform="translate(-8998 -2368)" clip-path="url(#m)"><path d="M87.069,40.889,16.4,45.723,3.5,94.68l.043,55.706,23.711-.019a25.355,25.355,0,1,0,45.362-.033l14.542-.014Z" fill="#1f353e"/><path d="M88.507,39.265,64.586,40.9l-38.075,2.6-8.67.593c-1.194.082-4.462.608-4.872,2.162L8.217,64.286Q4.678,77.709,1.139,91.133A22.24,22.24,0,0,0,.034,95.69c-.077,2.059,0,4.137,0,6.2L.06,130.136Q.066,136.9.071,143.66l0,4.671a23.877,23.877,0,0,0,0,2.635,3.09,3.09,0,0,1,0,.347c0,.734,1.65.7,2.024.7l20.766-.016,2.945,0-2-1.084a26.225,26.225,0,0,0-.46,22.118A26.609,26.609,0,0,0,37.2,186.491c13.479,5.741,30.912-.079,38.182-12.763a26.167,26.167,0,0,0,.688-24.322l-4.9,2.551,14.542-.014c1.329,0,4.9-.736,4.9-2.552q0-5.46-.008-10.921-.011-13.047-.02-26.093L90.563,80.7q-.011-13.635-.021-27.272,0-4.5-.007-8.994a24.979,24.979,0,0,0,0-4.281,1.107,1.107,0,0,1,0-.191c0-1.531-6.926-.422-6.924,1.855q0,5.46.008,10.921.011,13.047.021,26.094l.024,31.677q.01,13.636.021,27.272,0,4.5.007,8.994c0,1.416-.092,2.868,0,4.281,0,.064,0,.128,0,.192l4.9-2.551-14.542.014a7.779,7.779,0,0,0-3.5.937c-.367.2-1.729.956-1.4,1.614a25.045,25.045,0,0,1,.883,20.421,23.409,23.409,0,0,1-11.28,12.22c-.529.256.127-.028-.422.181-.364.139-.722.288-1.088.419-.158.057-.315.112-.474.165.062-.02.518-.158.109-.04-.431.124-.863.246-1.3.352-.165.04-.329.08-.495.116.067-.015.519-.1.1-.03-.394.067-.786.137-1.182.192a13.2,13.2,0,0,1-1.9.141,22.467,22.467,0,0,1-8.353-1.487,24.519,24.519,0,0,1-12.89-11.551,25.06,25.06,0,0,1-.173-22.532c.5-1.018-1.575-1.085-2-1.085l-20.766.017-2.945,0,2.024.7Q7,140.776,6.988,132.1q-.012-14.607-.023-29.215l-.006-8.344c0-.226.021-.465,0-.69-.026-.277-.173.46,0,.182a8.7,8.7,0,0,0,.567-2.153q3.309-12.552,6.619-25.106c1.86-7.056,3.984-14.1,5.594-21.216.028-.124.065-.247.1-.369l-4.872,2.162L38.886,45.71l38.075-2.6,8.67-.593c1.465-.1,3.653-.491,4.609-1.749.93-1.226-.81-1.561-1.733-1.5" fill="#1f353e"/><path d="M269.285,35.192l-167.23.132.09,114.984,17.24-.012a25.355,25.355,0,1,0,45.362-.038l38.791-.03a25.354,25.354,0,1,0,45.362-.035l20.475-.014Z" fill="#1f353e"/><path d="M270.621,33.19,253.99,33.2l-39.941.032-48.319.038-41.769.033c-6.761.005-13.526-.053-20.287.016-.094,0-.188,0-.282,0a6.593,6.593,0,0,0-3.106.736c-.554.293-1.7.92-1.7,1.689q0,5.74.009,11.482.011,13.719.022,27.439.012,16.587.025,33.175.012,14.389.023,28.778.006,6.957.011,13.916v.194c0,1.166,1.064,1.581,2.129,1.58l17.239-.012-1.894-2.1a26.447,26.447,0,0,0,13.093,36.372c13.486,5.854,30.854.5,38.152-12.426a26.7,26.7,0,0,0,.81-24.816l-4.8,2.93,34.029-.026,4.762,0-1.893-2.1A26.448,26.448,0,0,0,213.4,186.507c13.487,5.855,30.856.5,38.152-12.426a26.705,26.705,0,0,0,.811-24.815l-4.8,2.93,20.474-.014a6.6,6.6,0,0,0,3.106-.736c.554-.293,1.7-.92,1.7-1.688q0-5.742-.009-11.483-.01-13.72-.022-27.44-.012-16.587-.026-33.176-.01-14.389-.022-28.778-.006-6.958-.011-13.916V34.77c0-1.536-1.786-1.682-3-1.538-1,.12-3.928.919-3.926,2.383q0,5.74.009,11.482.01,13.72.021,27.44.014,16.587.026,33.176.01,14.39.022,28.779,0,4.705.008,9.412c0,1.49-.1,3.017,0,4.5.005.064,0,.13,0,.194l4.8-2.425-20.475.014a6.588,6.588,0,0,0-3.495.936c-.494.312-1.683,1.221-1.3,1.994a24.838,24.838,0,0,1,.914,20.152,22.647,22.647,0,0,1-4.51,7.111q-.735.77-1.526,1.48-.366.327-.745.64c-.127.1-.255.206-.383.308-.081.066-.58.443-.287.228-.573.421-1.173.809-1.782,1.175-.282.17-.569.332-.856.493-.144.08-.289.16-.436.235.49-.251-.168.071-.258.112-.659.3-1.319.573-1.994.83-.644.245.3-.066-.365.117-.433.118-.861.252-1.3.36-.328.082-.659.158-.99.227.655-.135-.4.056-.576.081-.34.05-.682.092-1.024.127-.23.024-.46.042-.69.062-.576.049.411-.009-.17.015a20.553,20.553,0,0,1-8.331-1.265,24.183,24.183,0,0,1-12.911-11.24,24.579,24.579,0,0,1-.454-22.045c.676-1.381-.566-2.1-1.893-2.1l-34.029.027-4.762,0a6.587,6.587,0,0,0-3.495.937c-.495.311-1.684,1.221-1.3,1.994a24.832,24.832,0,0,1,.916,20.153,22.656,22.656,0,0,1-4.511,7.11q-.735.77-1.526,1.48-.366.327-.745.64c-.127.1-.255.206-.383.308-.081.066-.58.443-.287.228-.573.421-1.173.809-1.782,1.175-.282.17-.569.332-.856.493-.144.08-.289.159-.436.234.49-.25-.167.072-.258.113-.658.294-1.319.573-1.993.829-.645.246.3-.066-.365.117-.433.119-.861.252-1.3.361q-.493.123-.991.226c.656-.135-.4.057-.575.082-.34.049-.682.091-1.024.127-.23.023-.46.042-.69.061-.576.05.411-.008-.17.016a20.562,20.562,0,0,1-8.332-1.266,24.185,24.185,0,0,1-12.911-11.239,24.579,24.579,0,0,1-.454-22.042c.676-1.382-.566-2.1-1.893-2.1l-17.24.012,2.129,1.58q0-5.74-.009-11.482-.01-13.719-.021-27.439-.014-16.587-.026-33.175-.012-14.39-.023-28.778,0-4.706-.007-9.412c0-1.49.1-3.017,0-4.5,0-.064,0-.129,0-.194l-4.8,2.425,16.631-.013,39.94-.032,48.32-.038,41.769-.033c6.761,0,13.526.053,20.287-.016h.282c1.551,0,3.673-.5,4.566-1.907.863-1.362-.736-2.1-1.893-2.1" fill="#1f353e"/><path d="M21.613,54.5,11.591,89.293l40.053-.033-.027-34.221Z" fill="#fff"/><path d="M21.613,54.5,11.591,89.293l40.053-.033-.027-34.221Z" fill="none" stroke="#1f353e" stroke-width="3.584"/><rect width="131.406" height="73.094" transform="translate(118.277 52.859)" fill="#ffb338"/><rect width="131.406" height="73.094" transform="translate(118.277 52.859)" fill="none" stroke="#ffb338" stroke-width="6"/><path d="M412.23,140.637a13.306,13.306,0,0,1-12.521,14.053l-12.631.73A13.312,13.312,0,0,1,373.019,142.9l-2.031-35.268a13.309,13.309,0,0,1,12.519-14.06l12.629-.734A13.316,13.316,0,0,1,410.2,105.36Z" fill="none" stroke="#1f353e" stroke-width="6.024"/><path d="M370.328,115.385c10.272-4.473,29.074-5,39.236-1.713" fill="none" stroke="#1f353e" stroke-width="6.024"/><path d="M389.6,93.029c1,6.14,1.152,12.536,1.494,18.5" fill="none" stroke="#1f353e" stroke-width="6.024"/><path d="M393.964,155.7c-.27,18.618-11.75,30.224-31.861,29.583-8.192-.329-19.409-8.826-5.631-8.9,5.578-.4,24.615,7.692,16.09,15.553-6.3,5.99-29.414-.21-36.871-1.665-9.688-1.433-18.633-3.621-28.321-4.312-5.955-.341-12.287.065-18.246-.646" fill="none" stroke="#1f353e" stroke-width="6.024"/><path d="M357.6,125.913v-.018l-.152-109.527a16.893,16.893,0,0,0-4.282-11.3A15.137,15.137,0,0,0,341.966,0c-.015,0-.039,0-.066,0L140.748.281a15.081,15.081,0,0,0-11.191,5.068,16.816,16.816,0,0,0-4.276,11.29,1.578,1.578,0,0,1-.006.2l.149,109.372a16.862,16.862,0,0,0,4.283,11.282,15.12,15.12,0,0,0,11.18,5.082.058.058,0,0,1,.021-.006l.018.009,72.369-.1a15.44,15.44,0,0,0-.123,1.831l.043,27.515-19.707.033.031,16.1L289.7,187.8l-.023-16.108-17.57.034-.043-27.513a14.948,14.948,0,0,0-.125-1.824l70.191-.1a15.108,15.108,0,0,0,11.192-5.078,16.913,16.913,0,0,0,4.277-11.28ZM227.941,171.8l-.05-27.514a.236.236,0,0,1,.23-.227l29-.043a.232.232,0,0,1,.232.226l.041,27.509Zm117.305-44.435v2.855H136.435V12.132H345.246Z" fill="#1f353e"/><rect width="208.811" height="119.334" transform="translate(136.435 12.132)" fill="#fff"/><path d="M301.527,75.679A29.856,29.856,0,0,0,266.2,40.485a29.137,29.137,0,0,0-53.377,8.969,26.145,26.145,0,0,0-25.547,23.678h-.121a20.35,20.35,0,0,0-20.35,20.352v2.2a20.349,20.349,0,0,0,20.35,20.35H291.677a20.35,20.35,0,0,0,20.352-20.35v-2.2A20.337,20.337,0,0,0,301.527,75.679Z" fill="none" stroke="#ffb338" stroke-width="8.504"/></g></g></svg>