<svg xmlns="http://www.w3.org/2000/svg" width="1117" height="451.82" viewBox="0 0 1117 451.82"><g transform="translate(-255 -13784.074)"><g transform="translate(0 60)"><g transform="translate(255 13778.148)"><path d="M235.088,359.907c2.61,13.993,35.573,22.7,73.626,19.451s66.785-17.229,64.175-31.223-35.573-22.7-73.627-19.451-66.784,17.229-64.174,31.223" transform="translate(-195.264 -23.334)" fill="#b4c6d5"/><path d="M367.493,215.865s-.722,20.18-2.529,24.947-25.153,23.845-25.153,23.845L346.22,224.4Z" transform="translate(-202.726 -15.357)" fill="#f19c7c"/><path d="M366.967,230.048c.6-6.864.866-14.184.866-14.184L346.56,224.4l-1.978,12.429c7.5-2.1,14.952-4.408,22.385-6.777" transform="translate(-203.065 -15.357)" fill="#d86c5d"/><path d="M205.487,265.283s6.339,23.339,9.263,28.285,43.778,4.327,43.778,4.327L254.35,287.53l-17.39-10.054-3.906-23.819Z" transform="translate(-193.17 -18.046)" fill="#f19c7c"/><path d="M250.632,300.009c6.235.095,10.853.026,10.853.026l-4.178-10.364-10.241-5.921c1.158,5.427,2.368,10.843,3.566,16.26" transform="translate(-196.128 -20.186)" fill="#d86c5d"/><path d="M226.921,272.83q4.673.27,9.353.471l-3.22-19.643-27.568,11.626s.874,3.217,2.122,7.513a124.839,124.839,0,0,1,19.314.033" transform="translate(-193.17 -18.046)" fill="#d86c5d"/><path d="M295.717,344.373s-.064,23.735-6.014,23.355-7.2-25.539-7.2-25.539Z" transform="translate(-198.648 -24.344)" fill="#fff"/><path d="M294.873,356.688a107.052,107.052,0,0,0,.843-12.315L282.5,342.189a121.818,121.818,0,0,0,1.663,14.258,24.086,24.086,0,0,1,10.712.241" transform="translate(-198.648 -24.344)" fill="#352c38"/><path d="M293.868,355.381a.517.517,0,0,1-.244-.061,9.2,9.2,0,0,0-5.976-1.264,4.256,4.256,0,0,0-1.949.863.52.52,0,1,1-.717-.752,5.133,5.133,0,0,1,2.381-1.113c1.38-.291,3.672-.294,6.75,1.349a.52.52,0,0,1-.245.978Z" transform="translate(-198.848 -25.14)" fill="#fff"/><path d="M293.962,352.861a.516.516,0,0,1-.244-.061,9.2,9.2,0,0,0-5.976-1.264,4.256,4.256,0,0,0-1.949.863.52.52,0,1,1-.717-.752,5.132,5.132,0,0,1,2.381-1.113c1.38-.291,3.672-.294,6.75,1.349a.52.52,0,0,1-.245.978Z" transform="translate(-198.855 -24.962)" fill="#fff"/><path d="M294.043,350.694a.517.517,0,0,1-.244-.061,9.2,9.2,0,0,0-5.976-1.263,4.255,4.255,0,0,0-1.949.863.52.52,0,1,1-.717-.752,5.133,5.133,0,0,1,2.381-1.113c1.38-.291,3.672-.294,6.75,1.349a.52.52,0,0,1-.245.978Z" transform="translate(-198.861 -24.807)" fill="#fff"/><path d="M316.182,347.371s11.611,20.7,16.623,17.473-6.14-25.816-6.14-25.816Z" transform="translate(-201.045 -24.119)" fill="#fff"/><path d="M322.808,357.316a107.127,107.127,0,0,1-6.732-10.347l-1.392-13.579,11.875,5.237a122.018,122.018,0,0,1,5.489,13.264,24.077,24.077,0,0,0-9.239,5.425" transform="translate(-200.938 -23.718)" fill="#352c38"/><path d="M323.186,356.223a.52.52,0,0,1-.436-.8c1.889-2.935,3.892-4.048,5.239-4.465a5.131,5.131,0,0,1,2.622-.187.52.52,0,0,1-.26,1.006h0a4.253,4.253,0,0,0-2.123.2,9.2,9.2,0,0,0-4.6,4.013A.519.519,0,0,1,323.186,356.223Z" transform="translate(-201.541 -24.983)" fill="#fff"/><path d="M321.876,354.067a.52.52,0,0,1-.436-.8c1.889-2.934,3.892-4.047,5.24-4.465a5.132,5.132,0,0,1,2.622-.187.52.52,0,0,1-.26,1.006h0a4.255,4.255,0,0,0-2.123.195,9.2,9.2,0,0,0-4.6,4.013A.519.519,0,0,1,321.876,354.067Z" transform="translate(-201.447 -24.829)" fill="#fff"/><path d="M320.751,352.214a.52.52,0,0,1-.436-.8c1.889-2.934,3.892-4.047,5.239-4.464a5.131,5.131,0,0,1,2.622-.187.52.52,0,0,1-.26,1.006h0a4.255,4.255,0,0,0-2.123.195,9.2,9.2,0,0,0-4.6,4.013A.519.519,0,0,1,320.751,352.214Z" transform="translate(-201.367 -24.698)" fill="#fff"/><path d="M301.763,265.666,312.009,335.6l16.523.619s11.951-46.2,14.96-72.847-41.73,2.294-41.73,2.294" transform="translate(-200.019 -17.935)" fill="#567d9b"/><path d="M246.391,258.806s1.325,36.387,31.924,77.29c0,0,8.28,5.683,15.992.6l-2.659-43.839s34.723-9.026,47.806-28.414l1.312-34.985Z" transform="translate(-196.079 -16.324)" fill="#6f96bd"/><path d="M341.979,208.217l7.384,23.212,21.223-10.673s2.831-22.013-6.5-39.111-22.106,26.572-22.106,26.572" transform="translate(-202.88 -12.641)" fill="#1f1a21"/><path d="M239.995,166.79s-50.162,34.385-46.168,57.1a355.055,355.055,0,0,0,9.025,39.02l33.494,1.256.3-8.048s25.61,25.136,61.584,16.007,43.237-52.373,43.237-52.373S364,195.709,353.53,179.909s-39.987-26.631-39.987-26.631Z" transform="translate(-192.324 -10.905)" fill="#352c38"/><path d="M265.222,183.774c13.039,4.55,28.668,6.151,41.944,1.589,12.3-4.227,21.225-12.906,28.382-23.221a139.323,139.323,0,0,0-18.713-8.864L243.287,166.79s-1.278.877-3.4,2.438c7.859,5.871,16.1,11.323,25.338,14.546" transform="translate(-195.617 -10.905)" fill="#1f1a21"/><path d="M230.982,260.161c-7.395-5.321-15.079-10.227-22.429-15.61A171.149,171.149,0,0,1,194.57,233.3a349.381,349.381,0,0,0,8.35,35.3l33.494,1.255.225-5.984q-2.88-1.712-5.657-3.714" transform="translate(-192.393 -16.598)" fill="#1f1a21"/><path d="M275.443,63.751l17.02-3.727s36.559,63.217,24.286,92.536c-9.982,23.846-70.288,42.4-88.687-14.174-21.369-65.7,10.719-79.888,47.38-74.635" transform="translate(-194.287 -4.27)" fill="#f19c7c"/><path d="M289.288,57.91c-15.874-8.013-34.821-17.623-46.58-32.129-7.331,3.237-15.358,6.465-22.249,11.241C209,44.963,208.6,54.1,209.8,59.67c-5.53,1.6-14.048,5.713-16.978,16.084-4.473,15.836,17.805,55.469,17.805,55.469-2.633-7.373,1.35-10.134,6.215-10.542,1.769-.149,5.158,6.227,9.161,15.268a82.853,82.853,0,0,1,9.326-5.2c-4.778-12.087-8.315-22.673-8.315-22.673,18.839-10.934,4.588-31.837,4.588-31.837,18.313,3.111,41.256-.879,62.624-14.583.409-.263.779-.534,1.161-.8-2.04-.948-4.074-1.921-6.1-2.942" transform="translate(-192.226 -1.834)" fill="#965450"/><path d="M216.84,121.436c1.769-.149,5.158,6.227,9.161,15.268a82.862,82.862,0,0,1,9.326-5.2c-4.778-12.087-8.315-22.673-8.315-22.673C245.851,97.9,231.6,76.992,231.6,76.992a74.835,74.835,0,0,0,17.127.835,55.754,55.754,0,0,1-17.1-9.333c-8.354-6.822-11.444-17.92-9.721-28.311.193-1.166.414-2.453.673-3.8-.713.451-1.421.909-2.114,1.39C209,45.717,208.6,54.858,209.8,60.425c-5.53,1.6-14.048,5.713-16.978,16.084-4.473,15.836,17.805,55.47,17.805,55.47-2.633-7.373,1.35-10.134,6.215-10.543" transform="translate(-192.226 -2.589)" fill="#76413b"/><path d="M252.3,75.239s55.915,2.492,59.474-40.7-41.218-43.9-39.077-13.1,26.561.348,11.116-10.253-26.35-4.332-26.037,13.194,13.188-7.533-3.155-11.055-14.5,16.354-4.344,21.38S252.3,75.239,252.3,75.239" transform="translate(-195.802 0)" fill="#965450"/><path d="M271.077,98.277l-.453-.063c-.286-.053-.724-.09-1.247-.183-1.063-.152-2.555-.364-4.273-.57-.858-.1-1.776-.2-2.726-.256-.949-.085-1.932-.085-2.917-.093a25.406,25.406,0,0,0-2.919.237,13.774,13.774,0,0,0-2.716.708,10.623,10.623,0,0,0-2.4,1.23,13.69,13.69,0,0,0-2.094,1.751c-.332.323-.6.707-.927,1.035-.3.354-.552.747-.844,1.1s-.5.764-.764,1.125l-.374.549-.322.56-.643,1.06-.543,1c-.356.631-.693,1.191-.924,1.671s-.475.848-.615,1.107l-.241.395s-.031-.155-.09-.447c-.042-.291-.137-.725-.19-1.273a12.768,12.768,0,0,1-.12-2c0-.388.006-.8.019-1.239.051-.437.1-.9.159-1.374a10.272,10.272,0,0,1,.281-1.5,15.8,15.8,0,0,1,.449-1.595c.2-.54.412-1.1.67-1.658.285-.553.581-1.116.935-1.671a13.27,13.27,0,0,1,1.232-1.616l.717-.774c.246-.255.541-.467.814-.7a13,13,0,0,1,3.791-2.189,14.77,14.77,0,0,1,4.191-.865,14.313,14.313,0,0,1,2.029.018,15.561,15.561,0,0,1,1.923.231,19.265,19.265,0,0,1,3.426.965,20.221,20.221,0,0,1,2.814,1.327,20.461,20.461,0,0,1,2.174,1.424A18.279,18.279,0,0,1,269.882,97a12,12,0,0,1,.9.924c.2.223.294.355.294.355" transform="translate(-195.819 -6.525)" fill="#76413b"/><path d="M281.817,96.148a4.109,4.109,0,0,1-.121-.4,9.858,9.858,0,0,1-.231-1.156,14.5,14.5,0,0,1-.006-4.214,13.2,13.2,0,0,1,2.323-5.878,10.534,10.534,0,0,1,2.941-2.712,9.956,9.956,0,0,1,4.042-1.4,11.966,11.966,0,0,1,4.043.231c.621.141,1.208.34,1.792.532.55.232,1.091.458,1.609.709a18.815,18.815,0,0,1,2.708,1.713,19.659,19.659,0,0,1,2.108,1.83,22.315,22.315,0,0,1,1.552,1.743,14.982,14.982,0,0,1,1.048,1.469c.283.409.469.768.61,1l.2.367-.409-.106c-.255-.082-.65-.174-1.107-.34l-1.654-.561c-.635-.2-1.313-.487-2.064-.734s-1.527-.568-2.356-.807c-.815-.3-1.67-.513-2.519-.769-.43-.08-.853-.19-1.278-.3-.423-.046-.844-.134-1.255-.2a9.73,9.73,0,0,0-2.317-.009,6.132,6.132,0,0,0-2,.545,8.794,8.794,0,0,0-1.827,1.188,18.577,18.577,0,0,0-3.035,3.632c-.837,1.268-1.522,2.438-2.017,3.276-.225.424-.449.757-.57.992l-.209.361" transform="translate(-198.564 -5.713)" fill="#76413b"/><path d="M281.243,99.079q1.471,1.531,2.838,3.134c.926,1.059,1.808,2.148,2.7,3.232s1.73,2.2,2.6,3.3l2.508,3.362q1.24,1.689,2.438,3.409c.805,1.142,1.586,2.3,2.371,3.455s1.546,2.327,2.289,3.512,1.514,2.35,2.223,3.558l.694,1.18-1.107.493c-.881.393-1.754.8-2.64,1.182l-2.669,1.128c-1.8.713-3.593,1.439-5.451,2.041,1.549-1.189,3.165-2.252,4.773-3.329l2.443-1.557c.818-.513,1.649-1,2.472-1.5l-.413,1.673c-.874-1.093-1.69-2.227-2.529-3.347s-1.652-2.253-2.464-3.391-1.6-2.289-2.382-3.448-1.557-2.32-2.314-3.5l-2.245-3.542c-.717-1.2-1.456-2.389-2.156-3.6s-1.4-2.43-2.057-3.673-1.312-2.488-1.914-3.769" transform="translate(-198.559 -7.048)" fill="#d86c5d"/><path d="M254.144,120.736l-.106-.3a7.216,7.216,0,0,1-.269-.872,9.359,9.359,0,0,1-.264-1.41,9.707,9.707,0,0,1-.064-1.883,8.769,8.769,0,0,1,.389-2.243,7.755,7.755,0,0,1,3.2-4.338l.643-.363.081-.045.02-.011.01-.006.063-.03.038-.016.151-.064.3-.128.615-.255.749-.213a8.285,8.285,0,0,1,1.5-.223,8.4,8.4,0,0,1,1.492.088,7.422,7.422,0,0,1,2.689.995,8.82,8.82,0,0,1,1.977,1.681,9.8,9.8,0,0,1,1.319,1.833,10.6,10.6,0,0,1,.805,1.692,10.952,10.952,0,0,1,.442,1.358c.112.377.145.691.191.895s.059.315.059.315-.22-.386-.607-1.062c-.2-.328-.439-.728-.743-1.162a16.609,16.609,0,0,0-1.062-1.4,12.862,12.862,0,0,0-1.422-1.44,9.8,9.8,0,0,0-1.795-1.221,6.8,6.8,0,0,0-2.118-.632,6.461,6.461,0,0,0-1.123-.038,6.764,6.764,0,0,0-1.11.193l-.532.123-.611.236-.307.12-.152.06-.039.015c.1-.046.025-.01.046-.02l-.008,0-.016.008-.062.033-.505.267a6.978,6.978,0,0,0-1.693,1.429,8.974,8.974,0,0,0-1.781,3.717,14.2,14.2,0,0,0-.3,1.72c-.051.522-.09.99-.093,1.369s-.016.693-.008.9l0,.321" transform="translate(-196.579 -7.707)" fill="#1f1a21"/><path d="M291.926,108.488s-.047-.1-.135-.277a6.839,6.839,0,0,1-.354-.8,9.021,9.021,0,0,1-.41-1.31,9.233,9.233,0,0,1-.272-1.782,8.379,8.379,0,0,1,.117-2.174,7.247,7.247,0,0,1,.816-2.365,7.33,7.33,0,0,1,1.736-2.116l.569-.417.072-.052a.561.561,0,0,1,.084-.054l.034-.02.137-.078.274-.155.555-.312.687-.286a6.985,6.985,0,0,1,2.825-.464,7.118,7.118,0,0,1,2.666.643,8.4,8.4,0,0,1,2.067,1.374,9.388,9.388,0,0,1,1.459,1.593,11.925,11.925,0,0,1,1.529,2.756c.148.346.215.64.281.829s.092.293.092.293l-.7-.94c-.23-.289-.5-.643-.837-1.02a15.913,15.913,0,0,0-1.166-1.209,12.216,12.216,0,0,0-1.513-1.208,9.393,9.393,0,0,0-1.841-.959,6.522,6.522,0,0,0-2.083-.361,6.227,6.227,0,0,0-1.07.09,6.556,6.556,0,0,0-1.033.308l-.491.176-.555.293-.278.149-.138.074-.035.019c.087-.05.008,0,.02-.008l-.056.039-.449.31a6.646,6.646,0,0,0-1.449,1.548,8.6,8.6,0,0,0-1.273,3.73,13.6,13.6,0,0,0-.086,1.667c.009.5.025.95.065,1.311s.064.66.094.858.039.3.039.3" transform="translate(-199.234 -6.817)" fill="#1f1a21"/><path d="M263.463,146.8s.719.251,1.974.642,3.054.9,5.215,1.417c1.083.247,2.257.492,3.5.722s2.558.4,3.913.56,2.763.209,4.183.257a37.821,37.821,0,0,0,4.286-.173,32.188,32.188,0,0,0,4.212-.66c.686-.153,1.352-.359,2.025-.516.651-.221,1.306-.417,1.934-.651.618-.26,1.235-.5,1.827-.761.581-.283,1.17-.533,1.716-.828l1.58-.89,1.436-.92c.477-.28.864-.637,1.281-.921.4-.3.813-.56,1.146-.863.674-.594,1.331-1.059,1.8-1.514.959-.892,1.543-1.39,1.543-1.39s-.379.651-1.106,1.774c-.357.568-.874,1.191-1.454,1.928a25.035,25.035,0,0,1-2.163,2.3l-1.358,1.208-1.573,1.155c-.551.384-1.151.726-1.751,1.105s-1.273.652-1.928.991c-.671.3-1.373.57-2.076.861-.721.234-1.447.5-2.2.685a28.338,28.338,0,0,1-4.616.816,31.858,31.858,0,0,1-4.663.093,35.743,35.743,0,0,1-4.454-.547,33.206,33.206,0,0,1-4.05-.986,34.742,34.742,0,0,1-3.5-1.245,35.114,35.114,0,0,1-4.941-2.48,19.007,19.007,0,0,1-1.735-1.168" transform="translate(-197.294 -9.983)" fill="#d86c5d"/><path d="M229.874,149.506s-8.029-27-16.771-24.074c-6.74,2.255-6.362,42.524,23.777,32.014Z" transform="translate(-193.459 -8.908)" fill="#f19c7c"/><path d="M225.175,156.1a7.785,7.785,0,0,1-2.422-.636,3.528,3.528,0,0,1-1.137-.773,2.085,2.085,0,0,1-.431-.685,1.845,1.845,0,0,1-.107-.886,2.455,2.455,0,0,1,.259-.805,3.654,3.654,0,0,1,.426-.636,7.03,7.03,0,0,1,1.006-.951,10.988,10.988,0,0,1,1.075-.76c.361-.244.741-.429,1.114-.64l-.554,1.333-1.8-3.863c-.594-1.29-1.234-2.557-1.843-3.831-.625-1.266-1.252-2.524-1.919-3.743a27.637,27.637,0,0,0-2.129-3.429,4.461,4.461,0,0,0-1.036-1.072c-.062-.049-.033-.012-.006-.045a.118.118,0,0,0,.1-.017l.01-.007,0,0,0,0c.059-.024-.13.053.134-.057l-.061.026-.124.055a1.12,1.12,0,0,0-.1.049.063.063,0,0,0,.035,0c.02,0,.038-.053.006-.008a.74.74,0,0,0-.154.184,4.643,4.643,0,0,0-.549,1.577,15.594,15.594,0,0,0-.227,2c-.111,1.377-.072,2.794-.056,4.219l.159,4.314a31,31,0,0,1-1.315-4.158,29.093,29.093,0,0,1-.759-4.348,15.866,15.866,0,0,1-.03-2.3,6.357,6.357,0,0,1,.609-2.534,3.273,3.273,0,0,1,.475-.685,2.266,2.266,0,0,1,.4-.368c.08-.06.163-.117.245-.173l.134-.073.118-.063.059-.032c.268-.114.085-.035.15-.062l.02-.006.038-.01.076-.02a3.514,3.514,0,0,1,.628-.1,2.857,2.857,0,0,1,1.028.218,6.043,6.043,0,0,1,2.165,1.74,23.761,23.761,0,0,1,2.51,3.8c.365.643.687,1.3,1.014,1.958s.631,1.318.925,1.983c.6,1.325,1.118,2.683,1.636,4.035s.965,2.726,1.405,4.12l.311.988-.866.345a19.418,19.418,0,0,0-2.082.913,3.243,3.243,0,0,0-1.405,1.2.611.611,0,0,0-.049.316.965.965,0,0,0,.131.382,3.194,3.194,0,0,0,.711.788,10.5,10.5,0,0,0,2.044,1.248" transform="translate(-193.684 -9.396)" fill="#d86c5d"/></g><g transform="translate(-225 -152.571)"><path d="M-22.985-2.382a1.131,1.131,0,0,0-.469-.967,4.514,4.514,0,0,0-1.635-.594,7.731,7.731,0,0,1-1.851-.6,2.633,2.633,0,0,1-1.013-.83,1.986,1.986,0,0,1-.328-1.146,2.33,2.33,0,0,1,.934-1.868,3.647,3.647,0,0,1,2.386-.764,3.753,3.753,0,0,1,2.478.789,2.5,2.5,0,0,1,.95,2.017h-1.544a1.386,1.386,0,0,0-.535-1.087,2.006,2.006,0,0,0-1.349-.457,2.1,2.1,0,0,0-1.312.365,1.15,1.15,0,0,0-.473.955.932.932,0,0,0,.44.838,5.413,5.413,0,0,0,1.59.54,8.283,8.283,0,0,1,1.864.614,2.718,2.718,0,0,1,1.058.859,2.112,2.112,0,0,1,.344,1.224,2.3,2.3,0,0,1-.963,1.93,4.039,4.039,0,0,1-2.5.726A4.523,4.523,0,0,1-26.82-.216a3.105,3.105,0,0,1-1.3-1.067,2.571,2.571,0,0,1-.469-1.482h1.536a1.59,1.59,0,0,0,.618,1.224,2.4,2.4,0,0,0,1.523.452,2.476,2.476,0,0,0,1.4-.353A1.084,1.084,0,0,0-22.985-2.382ZM-15.722.166a3.924,3.924,0,0,1-2.972-1.2,4.452,4.452,0,0,1-1.146-3.208v-.282a5.39,5.39,0,0,1,.51-2.386A3.982,3.982,0,0,1-17.9-8.554a3.59,3.59,0,0,1,1.988-.594A3.364,3.364,0,0,1-13.19-7.994a5,5,0,0,1,.971,3.3v.639H-18.3a3.193,3.193,0,0,0,.776,2.146,2.44,2.44,0,0,0,1.888.818,2.675,2.675,0,0,0,1.378-.332,3.462,3.462,0,0,0,.988-.88l.938.73A3.772,3.772,0,0,1-15.722.166Zm-.191-8.052a2.048,2.048,0,0,0-1.561.677,3.288,3.288,0,0,0-.78,1.9h4.5v-.116a2.925,2.925,0,0,0-.631-1.814A1.928,1.928,0,0,0-15.913-7.886ZM-6.1-7.6a4.6,4.6,0,0,0-.755-.058,2.024,2.024,0,0,0-2.05,1.287V0h-1.536V-8.981h1.494l.025,1.038a2.391,2.391,0,0,1,2.142-1.2,1.569,1.569,0,0,1,.681.116Zm4.524,5.52,2.225-6.9H2.216L-1,0h-1.17L-5.429-8.981H-3.86ZM5.362,0H3.827V-8.981H5.362ZM3.7-11.364a.917.917,0,0,1,.228-.631.857.857,0,0,1,.677-.257.87.87,0,0,1,.681.257.907.907,0,0,1,.232.631.877.877,0,0,1-.232.623.886.886,0,0,1-.681.249.872.872,0,0,1-.677-.249A.886.886,0,0,1,3.7-11.364Zm7.72,10.276a2.212,2.212,0,0,0,1.436-.5,1.752,1.752,0,0,0,.681-1.245h1.453a2.785,2.785,0,0,1-.531,1.469A3.5,3.5,0,0,1,13.153-.249a3.772,3.772,0,0,1-1.731.415A3.7,3.7,0,0,1,8.5-1.058,4.877,4.877,0,0,1,7.421-4.408v-.257A5.407,5.407,0,0,1,7.9-7,3.667,3.667,0,0,1,9.284-8.583a3.926,3.926,0,0,1,2.129-.564,3.6,3.6,0,0,1,2.511.9,3.234,3.234,0,0,1,1.067,2.349H13.539a2.116,2.116,0,0,0-.66-1.432,2.053,2.053,0,0,0-1.465-.56A2.149,2.149,0,0,0,9.6-7.043a3.957,3.957,0,0,0-.643,2.436v.291A3.878,3.878,0,0,0,9.6-1.926,2.16,2.16,0,0,0,11.422-1.087ZM18.386,0H16.851V-8.981h1.536Zm-1.66-11.364a.917.917,0,0,1,.228-.631.857.857,0,0,1,.677-.257.87.87,0,0,1,.681.257.907.907,0,0,1,.232.631.877.877,0,0,1-.232.623.886.886,0,0,1-.681.249.872.872,0,0,1-.677-.249A.886.886,0,0,1,16.726-11.364Zm3.71,6.79a5.3,5.3,0,0,1,.519-2.374A3.87,3.87,0,0,1,22.4-8.575a3.932,3.932,0,0,1,2.113-.573,3.788,3.788,0,0,1,2.968,1.27A4.886,4.886,0,0,1,28.613-4.5v.108a5.351,5.351,0,0,1-.5,2.353A3.813,3.813,0,0,1,26.675-.415a3.977,3.977,0,0,1-2.146.581A3.778,3.778,0,0,1,21.57-1.1a4.861,4.861,0,0,1-1.133-3.362Zm1.544.183a3.842,3.842,0,0,0,.693,2.4,2.218,2.218,0,0,0,1.855.9A2.2,2.2,0,0,0,26.388-2a4.2,4.2,0,0,0,.689-2.569,3.836,3.836,0,0,0-.7-2.395,2.23,2.23,0,0,0-1.864-.917,2.205,2.205,0,0,0-1.834.9A4.17,4.17,0,0,0,21.98-4.391Z" transform="translate(1320.651 14186.006)" fill="#12263f"/><path d="M0,0H151.262V154.279H0Z" transform="translate(777 14104.431)" fill="#3d672f"/><path d="M-7457,1610.7h750.7l19.063,33.181H-7457Z" transform="translate(8234 12450.986)" fill="#ffb338"/><path d="M-7457,1610.7h729.2l18.519,33.181H-7457Z" transform="translate(8233.999 12407.393)" fill="#ffb338"/><path d="M-7457,1610.7h710.4l18.041,33.181H-7457Z" transform="translate(8233.999 12364.28)" fill="#ffb338"/><path d="M-7457,1610.7h689.924l17.522,33.181H-7457Z" transform="translate(8234 12321.165)" fill="#ffb338"/><path d="M-7087.96,1796.55h52.431l73.234-155.266h-127.091Z" transform="translate(8510.528 12462.052)" fill="#3d672f"/><path d="M-7041.293,1841.732h36.372l75.941-158.551-82.055-166.7h-37.414l82.238,166.7Z" transform="translate(8525.98 12414.94)" fill="#eb6f2d"/><g transform="translate(1259.447 14104.431)"><rect width="151.262" height="154.279" transform="translate(0 0.258)" fill="#3d672f"/><text transform="translate(74.845 68.258)" fill="#fff" font-size="22" font-family="Roboto-Italic, Roboto" font-style="italic"><tspan x="-48.222" y="0">Marketing</tspan><tspan font-family="Roboto-Regular, Roboto" font-style="normal"><tspan x="-40.401" y="35">y ventas</tspan></tspan></text></g><path d="M-32.447-6.972a9.7,9.7,0,0,1-3.862-1.875,3.582,3.582,0,0,1-1.208-2.745,3.783,3.783,0,0,1,1.477-3.056,5.87,5.87,0,0,1,3.84-1.208,6.408,6.408,0,0,1,2.874.623,4.725,4.725,0,0,1,1.955,1.719,4.395,4.395,0,0,1,.693,2.4h-2.073a2.86,2.86,0,0,0-.9-2.237,3.669,3.669,0,0,0-2.546-.814,3.757,3.757,0,0,0-2.379.673,2.244,2.244,0,0,0-.854,1.867,2.019,2.019,0,0,0,.811,1.62A7.955,7.955,0,0,0-31.861-8.8a12.81,12.81,0,0,1,3.051,1.21,4.63,4.63,0,0,1,1.633,1.542,3.934,3.934,0,0,1,.532,2.073A3.654,3.654,0,0,1-28.128-.929,6.321,6.321,0,0,1-32.092.215,7.352,7.352,0,0,1-35.1-.4a5.062,5.062,0,0,1-2.154-1.692,4.129,4.129,0,0,1-.757-2.438h2.073a2.694,2.694,0,0,0,1.047,2.24,4.41,4.41,0,0,0,2.8.822,4.054,4.054,0,0,0,2.5-.666,2.163,2.163,0,0,0,.87-1.815,2.124,2.124,0,0,0-.806-1.778A9.289,9.289,0,0,0-32.447-6.972ZM-19.492.215a5.078,5.078,0,0,1-3.846-1.552A5.761,5.761,0,0,1-24.82-5.489v-.365a6.975,6.975,0,0,1,.661-3.088,5.154,5.154,0,0,1,1.848-2.127,4.645,4.645,0,0,1,2.573-.768,4.353,4.353,0,0,1,3.523,1.493,6.465,6.465,0,0,1,1.257,4.275v.827h-7.874a4.132,4.132,0,0,0,1,2.777,3.157,3.157,0,0,0,2.444,1.058,3.461,3.461,0,0,0,1.783-.43,4.48,4.48,0,0,0,1.278-1.139l1.214.945A4.881,4.881,0,0,1-19.492.215Zm-.247-10.42a2.651,2.651,0,0,0-2.02.875,4.255,4.255,0,0,0-1.01,2.455h5.822v-.15a3.785,3.785,0,0,0-.816-2.347A2.5,2.5,0,0,0-19.739-10.205Zm12.7.365a5.955,5.955,0,0,0-.978-.075A2.619,2.619,0,0,0-10.672-8.25V0H-12.66V-11.623h1.934l.032,1.343a3.094,3.094,0,0,1,2.771-1.558,2.03,2.03,0,0,1,.881.15ZM-1.187-2.7l2.879-8.927h2.03L-.446,0H-1.96L-6.171-11.623h2.03ZM7.793,0H5.806V-11.623H7.793ZM5.645-14.706a1.186,1.186,0,0,1,.3-.816,1.109,1.109,0,0,1,.875-.333,1.126,1.126,0,0,1,.881.333,1.174,1.174,0,0,1,.3.816,1.135,1.135,0,0,1-.3.806,1.147,1.147,0,0,1-.881.322A1.129,1.129,0,0,1,5.94-13.9,1.147,1.147,0,0,1,5.645-14.706Zm9.99,13.3a2.863,2.863,0,0,0,1.858-.645,2.268,2.268,0,0,0,.881-1.611h1.88a3.6,3.6,0,0,1-.687,1.9A4.528,4.528,0,0,1,17.875-.322a4.882,4.882,0,0,1-2.24.537A4.788,4.788,0,0,1,11.859-1.37a6.311,6.311,0,0,1-1.4-4.334v-.333a7,7,0,0,1,.623-3.019,4.745,4.745,0,0,1,1.789-2.052,5.081,5.081,0,0,1,2.755-.73,4.662,4.662,0,0,1,3.25,1.171,4.185,4.185,0,0,1,1.38,3.04h-1.88a2.739,2.739,0,0,0-.854-1.853,2.657,2.657,0,0,0-1.9-.725,2.781,2.781,0,0,0-2.347,1.09,5.121,5.121,0,0,0-.833,3.153v.376a5.019,5.019,0,0,0,.827,3.094A2.8,2.8,0,0,0,15.635-1.407ZM24.648,0H22.661V-11.623h1.987ZM22.5-14.706a1.186,1.186,0,0,1,.3-.816,1.109,1.109,0,0,1,.875-.333,1.126,1.126,0,0,1,.881.333,1.174,1.174,0,0,1,.3.816,1.135,1.135,0,0,1-.3.806,1.147,1.147,0,0,1-.881.322,1.129,1.129,0,0,1-.875-.322A1.147,1.147,0,0,1,22.5-14.706Zm4.8,8.787a6.865,6.865,0,0,1,.671-3.072A5.008,5.008,0,0,1,29.842-11.1a5.088,5.088,0,0,1,2.734-.741,4.9,4.9,0,0,1,3.84,1.644,6.323,6.323,0,0,1,1.466,4.372v.14a6.925,6.925,0,0,1-.65,3.045,4.935,4.935,0,0,1-1.858,2.1A5.146,5.146,0,0,1,32.6.215a4.889,4.889,0,0,1-3.83-1.644A6.291,6.291,0,0,1,27.3-5.779Zm2,.236a4.972,4.972,0,0,0,.9,3.1,2.871,2.871,0,0,0,2.4,1.171A2.853,2.853,0,0,0,35-2.594,5.437,5.437,0,0,0,35.9-5.919a4.964,4.964,0,0,0-.908-3.1,2.886,2.886,0,0,0-2.412-1.187A2.854,2.854,0,0,0,30.2-9.034,5.4,5.4,0,0,0,29.3-5.683Z" transform="translate(1466.172 14170.848)" fill="#fff"/><path d="M-32.9-15.641l5.113,12.762,5.113-12.762H-20V0h-2.062V-6.091l.193-6.574L-27,0H-28.58L-33.7-12.633l.2,6.542V0h-2.062V-15.641ZM-9.491,0A4.175,4.175,0,0,1-9.77-1.225,4.434,4.434,0,0,1-13.079.215,4.1,4.1,0,0,1-15.9-.757,3.145,3.145,0,0,1-17-3.223a3.286,3.286,0,0,1,1.38-2.82,6.508,6.508,0,0,1,3.883-1H-9.8V-7.96a2.232,2.232,0,0,0-.623-1.66,2.5,2.5,0,0,0-1.837-.618,2.9,2.9,0,0,0-1.783.537,1.583,1.583,0,0,0-.72,1.3h-2a2.743,2.743,0,0,1,.618-1.681,4.216,4.216,0,0,1,1.676-1.284,5.638,5.638,0,0,1,2.326-.473,4.6,4.6,0,0,1,3.147,1A3.623,3.623,0,0,1-7.815-8.067v5.35A6.54,6.54,0,0,0-7.407-.172V0Zm-3.3-1.515A3.493,3.493,0,0,0-11.016-2,2.924,2.924,0,0,0-9.8-3.255V-5.64H-11.36q-3.652,0-3.652,2.138a1.809,1.809,0,0,0,.623,1.461A2.4,2.4,0,0,0-12.789-1.515ZM.918-9.84a5.955,5.955,0,0,0-.978-.075A2.619,2.619,0,0,0-2.712-8.25V0H-4.7V-11.623h1.934l.032,1.343A3.094,3.094,0,0,1,.038-11.838a2.03,2.03,0,0,1,.881.15ZM2.272-5.908a6.831,6.831,0,0,1,1.257-4.324,4.019,4.019,0,0,1,3.33-1.606,4,4,0,0,1,3.319,1.5l.1-1.289H12.09V-.279a4.728,4.728,0,0,1-1.337,3.556,4.935,4.935,0,0,1-3.593,1.3A5.978,5.978,0,0,1,4.7,4.039,4.235,4.235,0,0,1,2.863,2.567L3.894,1.375A3.886,3.886,0,0,0,7.02,2.954a3.045,3.045,0,0,0,2.261-.816,3.12,3.12,0,0,0,.811-2.3v-1A4.085,4.085,0,0,1,6.837.215a3.97,3.97,0,0,1-3.3-1.644A7.182,7.182,0,0,1,2.272-5.908Zm2,.226a5.211,5.211,0,0,0,.806,3.088A2.618,2.618,0,0,0,7.332-1.472,2.911,2.911,0,0,0,10.092-3.18V-8.486a2.945,2.945,0,0,0-2.739-1.665A2.641,2.641,0,0,0,5.086-9.023,5.676,5.676,0,0,0,4.27-5.683ZM19.911.215a5.078,5.078,0,0,1-3.846-1.552,5.761,5.761,0,0,1-1.482-4.152v-.365a6.975,6.975,0,0,1,.661-3.088,5.154,5.154,0,0,1,1.848-2.127,4.645,4.645,0,0,1,2.573-.768,4.353,4.353,0,0,1,3.523,1.493,6.465,6.465,0,0,1,1.257,4.275v.827H16.57a4.132,4.132,0,0,0,1,2.777,3.157,3.157,0,0,0,2.444,1.058,3.461,3.461,0,0,0,1.783-.43A4.48,4.48,0,0,0,23.08-2.976l1.214.945A4.881,4.881,0,0,1,19.911.215Zm-.247-10.42a2.651,2.651,0,0,0-2.02.875,4.255,4.255,0,0,0-1.01,2.455h5.822v-.15a3.785,3.785,0,0,0-.816-2.347A2.5,2.5,0,0,0,19.664-10.205Zm8.959-1.418.064,1.461a4.236,4.236,0,0,1,3.48-1.676q3.685,0,3.717,4.157V0H33.9V-7.691a2.676,2.676,0,0,0-.575-1.858,2.3,2.3,0,0,0-1.756-.6,2.868,2.868,0,0,0-1.7.516A3.5,3.5,0,0,0,28.73-8.282V0H26.743V-11.623Z" transform="translate(1532.373 14020.182) rotate(65)" fill="#12263f"/><path d="M-32.9-15.641l5.113,12.762,5.113-12.762H-20V0h-2.062V-6.091l.193-6.574L-27,0H-28.58L-33.7-12.633l.2,6.542V0h-2.062V-15.641ZM-9.491,0A4.175,4.175,0,0,1-9.77-1.225,4.434,4.434,0,0,1-13.079.215,4.1,4.1,0,0,1-15.9-.757,3.145,3.145,0,0,1-17-3.223a3.286,3.286,0,0,1,1.38-2.82,6.508,6.508,0,0,1,3.883-1H-9.8V-7.96a2.232,2.232,0,0,0-.623-1.66,2.5,2.5,0,0,0-1.837-.618,2.9,2.9,0,0,0-1.783.537,1.583,1.583,0,0,0-.72,1.3h-2a2.743,2.743,0,0,1,.618-1.681,4.216,4.216,0,0,1,1.676-1.284,5.638,5.638,0,0,1,2.326-.473,4.6,4.6,0,0,1,3.147,1A3.623,3.623,0,0,1-7.815-8.067v5.35A6.54,6.54,0,0,0-7.407-.172V0Zm-3.3-1.515A3.493,3.493,0,0,0-11.016-2,2.924,2.924,0,0,0-9.8-3.255V-5.64H-11.36q-3.652,0-3.652,2.138a1.809,1.809,0,0,0,.623,1.461A2.4,2.4,0,0,0-12.789-1.515ZM.918-9.84a5.955,5.955,0,0,0-.978-.075A2.619,2.619,0,0,0-2.712-8.25V0H-4.7V-11.623h1.934l.032,1.343A3.094,3.094,0,0,1,.038-11.838a2.03,2.03,0,0,1,.881.15ZM2.272-5.908a6.831,6.831,0,0,1,1.257-4.324,4.019,4.019,0,0,1,3.33-1.606,4,4,0,0,1,3.319,1.5l.1-1.289H12.09V-.279a4.728,4.728,0,0,1-1.337,3.556,4.935,4.935,0,0,1-3.593,1.3A5.978,5.978,0,0,1,4.7,4.039,4.235,4.235,0,0,1,2.863,2.567L3.894,1.375A3.886,3.886,0,0,0,7.02,2.954a3.045,3.045,0,0,0,2.261-.816,3.12,3.12,0,0,0,.811-2.3v-1A4.085,4.085,0,0,1,6.837.215a3.97,3.97,0,0,1-3.3-1.644A7.182,7.182,0,0,1,2.272-5.908Zm2,.226a5.211,5.211,0,0,0,.806,3.088A2.618,2.618,0,0,0,7.332-1.472,2.911,2.911,0,0,0,10.092-3.18V-8.486a2.945,2.945,0,0,0-2.739-1.665A2.641,2.641,0,0,0,5.086-9.023,5.676,5.676,0,0,0,4.27-5.683ZM19.911.215a5.078,5.078,0,0,1-3.846-1.552,5.761,5.761,0,0,1-1.482-4.152v-.365a6.975,6.975,0,0,1,.661-3.088,5.154,5.154,0,0,1,1.848-2.127,4.645,4.645,0,0,1,2.573-.768,4.353,4.353,0,0,1,3.523,1.493,6.465,6.465,0,0,1,1.257,4.275v.827H16.57a4.132,4.132,0,0,0,1,2.777,3.157,3.157,0,0,0,2.444,1.058,3.461,3.461,0,0,0,1.783-.43A4.48,4.48,0,0,0,23.08-2.976l1.214.945A4.881,4.881,0,0,1,19.911.215Zm-.247-10.42a2.651,2.651,0,0,0-2.02.875,4.255,4.255,0,0,0-1.01,2.455h5.822v-.15a3.785,3.785,0,0,0-.816-2.347A2.5,2.5,0,0,0,19.664-10.205Zm8.959-1.418.064,1.461a4.236,4.236,0,0,1,3.48-1.676q3.685,0,3.717,4.157V0H33.9V-7.691a2.676,2.676,0,0,0-.575-1.858,2.3,2.3,0,0,0-1.756-.6,2.868,2.868,0,0,0-1.7.516A3.5,3.5,0,0,0,28.73-8.282V0H26.743V-11.623Z" transform="translate(1534.347 14173.256) rotate(115)" fill="#12263f"/><path d="M-28.262-4.512A5.231,5.231,0,0,1-29.927-1.03,5.457,5.457,0,0,1-33.652.2,5.01,5.01,0,0,1-37.69-1.611a7.268,7.268,0,0,1-1.519-4.834V-7.812A8.1,8.1,0,0,1-38.5-11.3a5.288,5.288,0,0,1,2.007-2.31,5.588,5.588,0,0,1,3.008-.806,5.138,5.138,0,0,1,3.633,1.265,5.294,5.294,0,0,1,1.592,3.5h-1.885a4.085,4.085,0,0,0-1.06-2.468,3.206,3.206,0,0,0-2.28-.764A3.355,3.355,0,0,0-36.3-11.552a6.1,6.1,0,0,0-1.021,3.782v1.378a6.273,6.273,0,0,0,.967,3.685,3.124,3.124,0,0,0,2.705,1.368,3.608,3.608,0,0,0,2.4-.708,3.929,3.929,0,0,0,1.108-2.466Zm1.8-.869a6.241,6.241,0,0,1,.61-2.793,4.553,4.553,0,0,1,1.7-1.914,4.626,4.626,0,0,1,2.485-.674,4.456,4.456,0,0,1,3.491,1.494,5.748,5.748,0,0,1,1.333,3.975v.127A6.3,6.3,0,0,1-17.437-2.4,4.486,4.486,0,0,1-19.126-.488,4.679,4.679,0,0,1-21.65.2,4.445,4.445,0,0,1-25.132-1.3a5.719,5.719,0,0,1-1.333-3.955Zm1.816.215a4.52,4.52,0,0,0,.815,2.822A2.61,2.61,0,0,0-21.65-1.279a2.594,2.594,0,0,0,2.188-1.079,4.943,4.943,0,0,0,.811-3.022A4.513,4.513,0,0,0-19.478-8.2,2.623,2.623,0,0,0-21.67-9.277a2.594,2.594,0,0,0-2.158,1.064A4.906,4.906,0,0,0-24.648-5.166Zm11.768-5.4.049,1.172A3.9,3.9,0,0,1-9.7-10.762a3.021,3.021,0,0,1,3.018,1.7,4,4,0,0,1,1.372-1.23,4.052,4.052,0,0,1,2-.469q3.477,0,3.535,3.682V0H-1.582V-6.973A2.426,2.426,0,0,0-2.1-8.667a2.279,2.279,0,0,0-1.738-.562,2.4,2.4,0,0,0-1.67.6,2.436,2.436,0,0,0-.771,1.616V0H-8.1V-6.924a2.016,2.016,0,0,0-2.256-2.3,2.417,2.417,0,0,0-2.432,1.514V0H-14.59V-10.566Zm24.756,5.4a6.327,6.327,0,0,1-1.1,3.887A3.537,3.537,0,0,1,7.783.2,3.875,3.875,0,0,1,4.756-1.025V4.063H2.949V-10.566H4.6l.088,1.172a3.722,3.722,0,0,1,3.066-1.367,3.6,3.6,0,0,1,3.013,1.436,6.4,6.4,0,0,1,1.108,3.994Zm-1.807-.205a4.669,4.669,0,0,0-.762-2.822,2.454,2.454,0,0,0-2.09-1.035A2.656,2.656,0,0,0,4.756-7.773v5.049a2.661,2.661,0,0,0,2.48,1.445A2.442,2.442,0,0,0,9.3-2.31,5.1,5.1,0,0,0,10.068-5.371Zm9.209-3.574a5.414,5.414,0,0,0-.889-.068A2.381,2.381,0,0,0,15.977-7.5V0H14.17V-10.566h1.758l.029,1.221a2.813,2.813,0,0,1,2.52-1.416,1.846,1.846,0,0,1,.8.137ZM27.07,0a3.8,3.8,0,0,1-.254-1.113A4.031,4.031,0,0,1,23.809.2a3.73,3.73,0,0,1-2.563-.884,2.859,2.859,0,0,1-1-2.241A2.987,2.987,0,0,1,21.5-5.493a5.916,5.916,0,0,1,3.53-.913h1.758v-.83a2.029,2.029,0,0,0-.566-1.509,2.276,2.276,0,0,0-1.67-.562,2.634,2.634,0,0,0-1.621.488,1.439,1.439,0,0,0-.654,1.182H20.459a2.493,2.493,0,0,1,.562-1.528,3.832,3.832,0,0,1,1.523-1.167,5.125,5.125,0,0,1,2.114-.43,4.177,4.177,0,0,1,2.861.913,3.294,3.294,0,0,1,1.074,2.515v4.863a5.946,5.946,0,0,0,.371,2.314V0Zm-3-1.377a3.175,3.175,0,0,0,1.611-.439,2.658,2.658,0,0,0,1.1-1.143V-5.127H25.371q-3.32,0-3.32,1.943a1.645,1.645,0,0,0,.566,1.328A2.177,2.177,0,0,0,24.072-1.377ZM37.578-2.8a1.33,1.33,0,0,0-.552-1.138,5.311,5.311,0,0,0-1.924-.7,9.1,9.1,0,0,1-2.178-.7,3.1,3.1,0,0,1-1.191-.977,2.336,2.336,0,0,1-.386-1.348,2.741,2.741,0,0,1,1.1-2.2,4.291,4.291,0,0,1,2.808-.9,4.415,4.415,0,0,1,2.915.928,2.947,2.947,0,0,1,1.118,2.373H37.471a1.631,1.631,0,0,0-.63-1.279,2.36,2.36,0,0,0-1.587-.537,2.47,2.47,0,0,0-1.543.43,1.353,1.353,0,0,0-.557,1.123,1.1,1.1,0,0,0,.518.986,6.368,6.368,0,0,0,1.87.635,9.744,9.744,0,0,1,2.192.723A3.2,3.2,0,0,1,38.979-4.37a2.485,2.485,0,0,1,.405,1.44A2.7,2.7,0,0,1,38.252-.659,4.752,4.752,0,0,1,35.313.2a5.321,5.321,0,0,1-2.246-.449,3.653,3.653,0,0,1-1.528-1.255,3.025,3.025,0,0,1-.552-1.743h1.807a1.87,1.87,0,0,0,.728,1.44,2.822,2.822,0,0,0,1.792.532,2.913,2.913,0,0,0,1.646-.415A1.275,1.275,0,0,0,37.578-2.8Z" transform="translate(1122 14085.688)" fill="#12263f"/><path d="M-116.918,0V-15.641h4.415a7.107,7.107,0,0,1,3.609.9,6.1,6.1,0,0,1,2.422,2.567,8.357,8.357,0,0,1,.865,3.824v1a8.386,8.386,0,0,1-.854,3.878A6.007,6.007,0,0,1-108.9-.913a7.56,7.56,0,0,1-3.69.913Zm2.063-13.954V-1.687h2.17a4.721,4.721,0,0,0,3.711-1.484A6.13,6.13,0,0,0-107.647-7.4V-8.31a6.227,6.227,0,0,0-1.251-4.145,4.453,4.453,0,0,0-3.55-1.5ZM-97.979.215a5.078,5.078,0,0,1-3.846-1.552,5.761,5.761,0,0,1-1.482-4.152v-.365a6.975,6.975,0,0,1,.661-3.088A5.154,5.154,0,0,1-100.8-11.07a4.645,4.645,0,0,1,2.573-.768A4.353,4.353,0,0,1-94.7-10.345a6.465,6.465,0,0,1,1.257,4.275v.827h-7.874a4.132,4.132,0,0,0,1,2.777,3.157,3.157,0,0,0,2.444,1.058,3.461,3.461,0,0,0,1.783-.43,4.48,4.48,0,0,0,1.278-1.139l1.214.945A4.881,4.881,0,0,1-97.979.215Zm-.247-10.42a2.651,2.651,0,0,0-2.02.875,4.255,4.255,0,0,0-1.01,2.455h5.822v-.15a3.785,3.785,0,0,0-.816-2.347A2.5,2.5,0,0,0-98.227-10.205ZM-84.38-3.083a1.463,1.463,0,0,0-.607-1.251A5.842,5.842,0,0,0-87.1-5.1a10.005,10.005,0,0,1-2.4-.773A3.408,3.408,0,0,1-90.809-6.95a2.57,2.57,0,0,1-.424-1.482,3.015,3.015,0,0,1,1.208-2.417,4.72,4.72,0,0,1,3.088-.988,4.857,4.857,0,0,1,3.207,1.021,3.241,3.241,0,0,1,1.23,2.61h-2a1.794,1.794,0,0,0-.693-1.407,2.6,2.6,0,0,0-1.746-.591,2.717,2.717,0,0,0-1.7.473A1.488,1.488,0,0,0-89.246-8.5a1.205,1.205,0,0,0,.569,1.085,7,7,0,0,0,2.057.7,10.719,10.719,0,0,1,2.412.795,3.518,3.518,0,0,1,1.37,1.112,2.734,2.734,0,0,1,.446,1.584,2.975,2.975,0,0,1-1.246,2.5,5.227,5.227,0,0,1-3.233.94,5.853,5.853,0,0,1-2.471-.494,4.018,4.018,0,0,1-1.681-1.38,3.327,3.327,0,0,1-.607-1.917h1.987a2.058,2.058,0,0,0,.8,1.584,3.1,3.1,0,0,0,1.971.585,3.2,3.2,0,0,0,1.81-.457A1.4,1.4,0,0,0-84.38-3.083ZM-72.628,0a4.175,4.175,0,0,1-.279-1.225A4.434,4.434,0,0,1-76.216.215a4.1,4.1,0,0,1-2.82-.972,3.145,3.145,0,0,1-1.1-2.465,3.286,3.286,0,0,1,1.38-2.82,6.508,6.508,0,0,1,3.883-1h1.934V-7.96a2.232,2.232,0,0,0-.623-1.66,2.5,2.5,0,0,0-1.837-.618,2.9,2.9,0,0,0-1.783.537,1.583,1.583,0,0,0-.72,1.3h-2a2.743,2.743,0,0,1,.618-1.681,4.216,4.216,0,0,1,1.676-1.284,5.638,5.638,0,0,1,2.326-.473,4.6,4.6,0,0,1,3.147,1,3.623,3.623,0,0,1,1.182,2.766v5.35a6.54,6.54,0,0,0,.408,2.546V0Zm-3.3-1.515A3.493,3.493,0,0,0-74.153-2a2.924,2.924,0,0,0,1.214-1.257V-5.64H-74.5q-3.652,0-3.652,2.138a1.809,1.809,0,0,0,.623,1.461A2.4,2.4,0,0,0-75.926-1.515ZM-62.219-9.84a5.955,5.955,0,0,0-.978-.075A2.619,2.619,0,0,0-65.85-8.25V0h-1.987V-11.623H-65.9l.032,1.343A3.094,3.094,0,0,1-63.1-11.838a2.03,2.03,0,0,1,.881.15Zm7.444,0a5.955,5.955,0,0,0-.978-.075A2.619,2.619,0,0,0-58.405-8.25V0h-1.987V-11.623h1.934l.032,1.343a3.094,3.094,0,0,1,2.771-1.558,2.03,2.03,0,0,1,.881.15Zm1.085,3.921a6.865,6.865,0,0,1,.671-3.072A5.008,5.008,0,0,1-51.149-11.1a5.088,5.088,0,0,1,2.734-.741,4.9,4.9,0,0,1,3.84,1.644,6.323,6.323,0,0,1,1.466,4.372v.14a6.925,6.925,0,0,1-.65,3.045,4.935,4.935,0,0,1-1.858,2.1,5.146,5.146,0,0,1-2.777.752,4.889,4.889,0,0,1-3.83-1.644,6.291,6.291,0,0,1-1.466-4.351Zm2,.236a4.972,4.972,0,0,0,.9,3.1,2.871,2.871,0,0,0,2.4,1.171,2.853,2.853,0,0,0,2.406-1.187A5.437,5.437,0,0,0-45.1-5.919,4.964,4.964,0,0,0-46-9.018a2.886,2.886,0,0,0-2.412-1.187,2.854,2.854,0,0,0-2.374,1.171A5.4,5.4,0,0,0-51.691-5.683ZM-38.457,0h-1.987V-16.5h1.987Zm5.339,0h-1.987V-16.5h1.987Zm2.653-5.919a6.865,6.865,0,0,1,.671-3.072A5.008,5.008,0,0,1-27.924-11.1a5.088,5.088,0,0,1,2.734-.741,4.9,4.9,0,0,1,3.84,1.644,6.323,6.323,0,0,1,1.466,4.372v.14a6.925,6.925,0,0,1-.65,3.045,4.935,4.935,0,0,1-1.858,2.1,5.146,5.146,0,0,1-2.777.752A4.889,4.889,0,0,1-29-1.429a6.291,6.291,0,0,1-1.466-4.351Zm2,.236a4.972,4.972,0,0,0,.9,3.1,2.871,2.871,0,0,0,2.4,1.171,2.853,2.853,0,0,0,2.406-1.187,5.437,5.437,0,0,0,.892-3.325,4.964,4.964,0,0,0-.908-3.1,2.886,2.886,0,0,0-2.412-1.187,2.854,2.854,0,0,0-2.374,1.171A5.4,5.4,0,0,0-28.467-5.683Zm16.038-.226a6.809,6.809,0,0,1,1.268-4.3,4.008,4.008,0,0,1,3.319-1.627,4.031,4.031,0,0,1,3.233,1.4V-16.5h1.987V0H-4.447l-.1-1.246A4.047,4.047,0,0,1-7.863.215a3.97,3.97,0,0,1-3.292-1.654,6.886,6.886,0,0,1-1.273-4.318Zm1.987.226a5.155,5.155,0,0,0,.816,3.094A2.639,2.639,0,0,0-7.369-1.472a2.9,2.9,0,0,0,2.761-1.7V-8.508a2.921,2.921,0,0,0-2.739-1.644A2.652,2.652,0,0,0-9.625-9.023,5.676,5.676,0,0,0-10.441-5.683ZM5.285.215A5.078,5.078,0,0,1,1.439-1.337,5.761,5.761,0,0,1-.043-5.489v-.365A6.975,6.975,0,0,1,.618-8.943,5.154,5.154,0,0,1,2.465-11.07a4.645,4.645,0,0,1,2.573-.768,4.353,4.353,0,0,1,3.523,1.493A6.465,6.465,0,0,1,9.818-6.069v.827H1.944a4.132,4.132,0,0,0,1,2.777A3.157,3.157,0,0,0,5.393-1.407a3.461,3.461,0,0,0,1.783-.43A4.48,4.48,0,0,0,8.454-2.976l1.214.945A4.881,4.881,0,0,1,5.285.215Zm-.247-10.42a2.651,2.651,0,0,0-2.02.875,4.255,4.255,0,0,0-1.01,2.455H7.831v-.15a3.785,3.785,0,0,0-.816-2.347A2.5,2.5,0,0,0,5.038-10.205ZM20.26-14.437v2.814h2.17v1.536H20.26V-2.87a1.613,1.613,0,0,0,.29,1.049,1.221,1.221,0,0,0,.988.35,4.811,4.811,0,0,0,.945-.129V0a5.8,5.8,0,0,1-1.525.214,2.475,2.475,0,0,1-2.009-.806,3.461,3.461,0,0,1-.677-2.288v-7.208H16.156v-1.536h2.116v-2.814ZM29.573.215a5.078,5.078,0,0,1-3.846-1.552,5.761,5.761,0,0,1-1.482-4.152v-.365a6.975,6.975,0,0,1,.661-3.088,5.154,5.154,0,0,1,1.848-2.127,4.645,4.645,0,0,1,2.573-.768,4.353,4.353,0,0,1,3.523,1.493,6.465,6.465,0,0,1,1.257,4.275v.827H26.232a4.132,4.132,0,0,0,1,2.777,3.157,3.157,0,0,0,2.444,1.058,3.461,3.461,0,0,0,1.783-.43,4.48,4.48,0,0,0,1.278-1.139l1.214.945A4.881,4.881,0,0,1,29.573.215Zm-.247-10.42a2.651,2.651,0,0,0-2.02.875A4.255,4.255,0,0,0,26.3-6.875h5.822v-.15A3.785,3.785,0,0,0,31.3-9.373,2.5,2.5,0,0,0,29.326-10.205Zm11.741,8.8a2.863,2.863,0,0,0,1.858-.645,2.268,2.268,0,0,0,.881-1.611h1.88A3.6,3.6,0,0,1,45-1.762,4.528,4.528,0,0,1,43.307-.322a4.882,4.882,0,0,1-2.24.537A4.788,4.788,0,0,1,37.292-1.37,6.311,6.311,0,0,1,35.89-5.7v-.333a7,7,0,0,1,.623-3.019A4.745,4.745,0,0,1,38.3-11.107a5.081,5.081,0,0,1,2.755-.73,4.662,4.662,0,0,1,3.25,1.171,4.185,4.185,0,0,1,1.38,3.04h-1.88a2.739,2.739,0,0,0-.854-1.853,2.657,2.657,0,0,0-1.9-.725,2.781,2.781,0,0,0-2.347,1.09,5.121,5.121,0,0,0-.833,3.153v.376A5.019,5.019,0,0,0,38.7-2.492,2.8,2.8,0,0,0,41.067-1.407ZM49.8-11.623l.064,1.461a4.236,4.236,0,0,1,3.48-1.676q3.685,0,3.717,4.157V0H55.075V-7.691A2.676,2.676,0,0,0,54.5-9.55a2.3,2.3,0,0,0-1.756-.6,2.868,2.868,0,0,0-1.7.516,3.5,3.5,0,0,0-1.139,1.354V0H47.921V-11.623Zm9.732,5.7A6.865,6.865,0,0,1,60.2-8.991,5.008,5.008,0,0,1,62.074-11.1a5.088,5.088,0,0,1,2.734-.741,4.9,4.9,0,0,1,3.84,1.644,6.323,6.323,0,0,1,1.466,4.372v.14a6.925,6.925,0,0,1-.65,3.045,4.935,4.935,0,0,1-1.858,2.1,5.147,5.147,0,0,1-2.777.752A4.889,4.889,0,0,1,61-1.429a6.291,6.291,0,0,1-1.466-4.351Zm2,.236a4.972,4.972,0,0,0,.9,3.1,2.871,2.871,0,0,0,2.4,1.171,2.853,2.853,0,0,0,2.406-1.187,5.437,5.437,0,0,0,.892-3.325,4.964,4.964,0,0,0-.908-3.1,2.886,2.886,0,0,0-2.412-1.187,2.854,2.854,0,0,0-2.374,1.171A5.4,5.4,0,0,0,61.531-5.683ZM74.766,0H72.778V-16.5h1.987Zm2.653-5.919a6.865,6.865,0,0,1,.671-3.072A5.009,5.009,0,0,1,79.959-11.1a5.088,5.088,0,0,1,2.734-.741,4.9,4.9,0,0,1,3.84,1.644A6.323,6.323,0,0,1,88-5.822v.14a6.925,6.925,0,0,1-.65,3.045,4.935,4.935,0,0,1-1.858,2.1,5.147,5.147,0,0,1-2.777.752,4.889,4.889,0,0,1-3.83-1.644,6.291,6.291,0,0,1-1.466-4.351Zm2,.236a4.972,4.972,0,0,0,.9,3.1,2.871,2.871,0,0,0,2.4,1.171,2.853,2.853,0,0,0,2.406-1.187,5.437,5.437,0,0,0,.892-3.325,4.964,4.964,0,0,0-.908-3.1,2.886,2.886,0,0,0-2.412-1.187,2.854,2.854,0,0,0-2.374,1.171A5.4,5.4,0,0,0,79.417-5.683Zm10.6-.226a6.831,6.831,0,0,1,1.257-4.324,4.019,4.019,0,0,1,3.33-1.606,4,4,0,0,1,3.319,1.5l.1-1.289h1.815V-.279A4.728,4.728,0,0,1,98.5,3.276a4.935,4.935,0,0,1-3.593,1.3,5.978,5.978,0,0,1-2.46-.537A4.235,4.235,0,0,1,90.61,2.567l1.031-1.192a3.886,3.886,0,0,0,3.126,1.579,3.045,3.045,0,0,0,2.261-.816,3.12,3.12,0,0,0,.811-2.3v-1A4.085,4.085,0,0,1,94.585.215a3.97,3.97,0,0,1-3.3-1.644A7.182,7.182,0,0,1,90.02-5.908Zm2,.226a5.211,5.211,0,0,0,.806,3.088,2.618,2.618,0,0,0,2.256,1.123A2.911,2.911,0,0,0,97.84-3.18V-8.486A2.945,2.945,0,0,0,95.1-10.151a2.641,2.641,0,0,0-2.267,1.128A5.676,5.676,0,0,0,92.018-5.683ZM104.994,0h-2V-11.623h2Zm.021-16.489h2.406l-2.879,3.158-1.6-.005ZM115.446,0a4.175,4.175,0,0,1-.279-1.225A4.434,4.434,0,0,1,111.858.215a4.1,4.1,0,0,1-2.82-.972,3.145,3.145,0,0,1-1.1-2.465,3.286,3.286,0,0,1,1.38-2.82,6.508,6.508,0,0,1,3.883-1h1.934V-7.96a2.232,2.232,0,0,0-.623-1.66,2.5,2.5,0,0,0-1.837-.618,2.9,2.9,0,0,0-1.783.537,1.583,1.583,0,0,0-.72,1.3h-2a2.743,2.743,0,0,1,.618-1.681,4.216,4.216,0,0,1,1.676-1.284,5.638,5.638,0,0,1,2.326-.473,4.6,4.6,0,0,1,3.147,1,3.623,3.623,0,0,1,1.182,2.766v5.35a6.54,6.54,0,0,0,.408,2.546V0Zm-3.3-1.515A3.493,3.493,0,0,0,113.921-2a2.924,2.924,0,0,0,1.214-1.257V-5.64h-1.558q-3.652,0-3.652,2.138a1.809,1.809,0,0,0,.623,1.461A2.4,2.4,0,0,0,112.148-1.515Z" transform="translate(1122 14041.096)" fill="#12263f"/><path d="M-135.631-2.052a4.764,4.764,0,0,1-2.218,1.7,8.96,8.96,0,0,1-3.314.564,6.427,6.427,0,0,1-3.395-.9,5.976,5.976,0,0,1-2.293-2.551,8.812,8.812,0,0,1-.833-3.835V-8.433a8.225,8.225,0,0,1,1.649-5.479,5.746,5.746,0,0,1,4.635-1.944,5.935,5.935,0,0,1,3.942,1.251,5.452,5.452,0,0,1,1.826,3.55h-2.062a3.41,3.41,0,0,0-3.7-3.115,3.651,3.651,0,0,0-3.142,1.457,7.113,7.113,0,0,0-1.08,4.22v1.279a6.666,6.666,0,0,0,1.2,4.188,3.9,3.9,0,0,0,3.255,1.554,7.189,7.189,0,0,0,2.03-.257,3.14,3.14,0,0,0,1.439-.868V-6.1h-3.62V-7.788h5.672Zm7.949,2.267a5.078,5.078,0,0,1-3.846-1.552,5.761,5.761,0,0,1-1.482-4.152v-.365a6.975,6.975,0,0,1,.661-3.088A5.154,5.154,0,0,1-130.5-11.07a4.645,4.645,0,0,1,2.573-.768,4.353,4.353,0,0,1,3.523,1.493,6.465,6.465,0,0,1,1.257,4.275v.827h-7.874a4.132,4.132,0,0,0,1,2.777,3.157,3.157,0,0,0,2.444,1.058,3.461,3.461,0,0,0,1.783-.43,4.48,4.48,0,0,0,1.278-1.139l1.214.945A4.881,4.881,0,0,1-127.682.215Zm-.247-10.42a2.651,2.651,0,0,0-2.02.875,4.255,4.255,0,0,0-1.01,2.455h5.822v-.15a3.785,3.785,0,0,0-.816-2.347A2.5,2.5,0,0,0-127.929-10.205Zm13.847,7.122a1.463,1.463,0,0,0-.607-1.251,5.842,5.842,0,0,0-2.116-.768,10.005,10.005,0,0,1-2.4-.773,3.408,3.408,0,0,1-1.311-1.074,2.57,2.57,0,0,1-.424-1.482,3.015,3.015,0,0,1,1.208-2.417,4.72,4.72,0,0,1,3.088-.988,4.857,4.857,0,0,1,3.207,1.021,3.241,3.241,0,0,1,1.23,2.61h-2a1.794,1.794,0,0,0-.693-1.407,2.6,2.6,0,0,0-1.746-.591,2.717,2.717,0,0,0-1.7.473,1.488,1.488,0,0,0-.612,1.235,1.205,1.205,0,0,0,.569,1.085,7,7,0,0,0,2.057.7,10.719,10.719,0,0,1,2.412.795,3.518,3.518,0,0,1,1.37,1.112,2.734,2.734,0,0,1,.446,1.584,2.975,2.975,0,0,1-1.246,2.5,5.227,5.227,0,0,1-3.233.94,5.853,5.853,0,0,1-2.471-.494,4.018,4.018,0,0,1-1.681-1.38,3.327,3.327,0,0,1-.607-1.917h1.987a2.058,2.058,0,0,0,.8,1.584,3.1,3.1,0,0,0,1.971.585,3.2,3.2,0,0,0,1.81-.457A1.4,1.4,0,0,0-114.082-3.083Zm7.272-11.354v2.814h2.17v1.536h-2.17V-2.87a1.613,1.613,0,0,0,.29,1.049,1.221,1.221,0,0,0,.988.35,4.811,4.811,0,0,0,.945-.129V0a5.8,5.8,0,0,1-1.525.214,2.475,2.475,0,0,1-2.009-.806,3.461,3.461,0,0,1-.677-2.288v-7.208h-2.116v-1.536h2.116v-2.814ZM-100.16,0h-1.987V-11.623h1.987Zm-2.148-14.706a1.186,1.186,0,0,1,.3-.816,1.109,1.109,0,0,1,.875-.333,1.126,1.126,0,0,1,.881.333,1.174,1.174,0,0,1,.3.816,1.135,1.135,0,0,1-.3.806,1.147,1.147,0,0,1-.881.322,1.129,1.129,0,0,1-.875-.322A1.147,1.147,0,0,1-102.309-14.706Zm4.8,8.787a6.865,6.865,0,0,1,.671-3.072A5.009,5.009,0,0,1-94.966-11.1a5.088,5.088,0,0,1,2.734-.741,4.9,4.9,0,0,1,3.84,1.644,6.323,6.323,0,0,1,1.466,4.372v.14a6.925,6.925,0,0,1-.65,3.045,4.935,4.935,0,0,1-1.858,2.1,5.147,5.147,0,0,1-2.777.752,4.889,4.889,0,0,1-3.83-1.644,6.291,6.291,0,0,1-1.466-4.351Zm2,.236a4.972,4.972,0,0,0,.9,3.1,2.871,2.871,0,0,0,2.4,1.171A2.853,2.853,0,0,0-89.8-2.594a5.437,5.437,0,0,0,.892-3.325,4.964,4.964,0,0,0-.908-3.1,2.886,2.886,0,0,0-2.412-1.187,2.854,2.854,0,0,0-2.374,1.171A5.4,5.4,0,0,0-95.509-5.683ZM-91.33-16.5h2.406L-91.8-13.342l-1.6-.005Zm8.776,4.877.064,1.461a4.236,4.236,0,0,1,3.48-1.676q3.685,0,3.717,4.157V0h-1.987V-7.691a2.676,2.676,0,0,0-.575-1.858,2.3,2.3,0,0,0-1.756-.6,2.868,2.868,0,0,0-1.7.516,3.5,3.5,0,0,0-1.139,1.354V0h-1.987V-11.623Zm15.222,5.715a6.809,6.809,0,0,1,1.268-4.3,4.008,4.008,0,0,1,3.319-1.627,4.031,4.031,0,0,1,3.233,1.4V-16.5h1.987V0h-1.826l-.1-1.246A4.047,4.047,0,0,1-62.767.215a3.97,3.97,0,0,1-3.292-1.654,6.886,6.886,0,0,1-1.273-4.318Zm1.987.226a5.155,5.155,0,0,0,.816,3.094,2.639,2.639,0,0,0,2.256,1.117,2.9,2.9,0,0,0,2.761-1.7V-8.508a2.921,2.921,0,0,0-2.739-1.644,2.652,2.652,0,0,0-2.277,1.128A5.676,5.676,0,0,0-65.345-5.683Zm15.727,5.9a5.078,5.078,0,0,1-3.846-1.552,5.761,5.761,0,0,1-1.482-4.152v-.365a6.975,6.975,0,0,1,.661-3.088,5.154,5.154,0,0,1,1.848-2.127,4.645,4.645,0,0,1,2.573-.768,4.353,4.353,0,0,1,3.523,1.493,6.465,6.465,0,0,1,1.257,4.275v.827h-7.874a4.132,4.132,0,0,0,1,2.777,3.157,3.157,0,0,0,2.444,1.058,3.461,3.461,0,0,0,1.783-.43,4.48,4.48,0,0,0,1.278-1.139l1.214.945A4.881,4.881,0,0,1-49.618.215Zm-.247-10.42a2.651,2.651,0,0,0-2.02.875,4.255,4.255,0,0,0-1.01,2.455h5.822v-.15a3.785,3.785,0,0,0-.816-2.347A2.5,2.5,0,0,0-49.865-10.205Zm18.144.365a5.955,5.955,0,0,0-.978-.075A2.619,2.619,0,0,0-35.353-8.25V0H-37.34V-11.623h1.934l.032,1.343A3.094,3.094,0,0,1-32.6-11.838a2.03,2.03,0,0,1,.881.15ZM-25.072.215a5.078,5.078,0,0,1-3.846-1.552A5.761,5.761,0,0,1-30.4-5.489v-.365a6.975,6.975,0,0,1,.661-3.088,5.154,5.154,0,0,1,1.848-2.127,4.645,4.645,0,0,1,2.573-.768A4.353,4.353,0,0,1-21.8-10.345a6.465,6.465,0,0,1,1.257,4.275v.827h-7.874a4.132,4.132,0,0,0,1,2.777,3.157,3.157,0,0,0,2.444,1.058,3.461,3.461,0,0,0,1.783-.43A4.48,4.48,0,0,0-21.9-2.976l1.214.945A4.881,4.881,0,0,1-25.072.215Zm-.247-10.42a2.651,2.651,0,0,0-2.02.875,4.255,4.255,0,0,0-1.01,2.455h5.822v-.15a3.785,3.785,0,0,0-.816-2.347A2.5,2.5,0,0,0-25.319-10.205Zm11.741,8.8a2.863,2.863,0,0,0,1.858-.645,2.268,2.268,0,0,0,.881-1.611h1.88a3.6,3.6,0,0,1-.687,1.9A4.528,4.528,0,0,1-11.338-.322a4.882,4.882,0,0,1-2.24.537A4.788,4.788,0,0,1-17.354-1.37a6.311,6.311,0,0,1-1.4-4.334v-.333a7,7,0,0,1,.623-3.019,4.745,4.745,0,0,1,1.789-2.052,5.081,5.081,0,0,1,2.755-.73,4.662,4.662,0,0,1,3.25,1.171,4.185,4.185,0,0,1,1.38,3.04h-1.88a2.739,2.739,0,0,0-.854-1.853,2.657,2.657,0,0,0-1.9-.725,2.781,2.781,0,0,0-2.347,1.09,5.121,5.121,0,0,0-.833,3.153v.376a5.019,5.019,0,0,0,.827,3.094A2.8,2.8,0,0,0-13.578-1.407ZM.451-1.149A4.221,4.221,0,0,1-2.954.215,3.613,3.613,0,0,1-5.785-.865a4.673,4.673,0,0,1-.983-3.2v-7.562H-4.78v7.509q0,2.643,2.148,2.643A2.975,2.975,0,0,0,.4-3.169v-8.454H2.385V0H.494Zm10.57-8.69a5.955,5.955,0,0,0-.978-.075A2.619,2.619,0,0,0,7.391-8.25V0H5.4V-11.623H7.337l.032,1.343a3.094,3.094,0,0,1,2.771-1.558,2.03,2.03,0,0,1,.881.15Zm8.594,6.757a1.463,1.463,0,0,0-.607-1.251A5.842,5.842,0,0,0,16.892-5.1a10.005,10.005,0,0,1-2.4-.773A3.408,3.408,0,0,1,13.186-6.95a2.57,2.57,0,0,1-.424-1.482A3.015,3.015,0,0,1,13.97-10.85a4.72,4.72,0,0,1,3.088-.988,4.857,4.857,0,0,1,3.207,1.021,3.241,3.241,0,0,1,1.23,2.61h-2A1.794,1.794,0,0,0,18.8-9.614a2.6,2.6,0,0,0-1.746-.591,2.717,2.717,0,0,0-1.7.473A1.488,1.488,0,0,0,14.749-8.5a1.205,1.205,0,0,0,.569,1.085,7,7,0,0,0,2.057.7,10.719,10.719,0,0,1,2.412.795,3.518,3.518,0,0,1,1.37,1.112A2.734,2.734,0,0,1,21.6-3.223a2.975,2.975,0,0,1-1.246,2.5,5.227,5.227,0,0,1-3.233.94,5.853,5.853,0,0,1-2.471-.494,4.018,4.018,0,0,1-1.681-1.38,3.327,3.327,0,0,1-.607-1.917h1.987a2.058,2.058,0,0,0,.8,1.584,3.1,3.1,0,0,0,1.971.585,3.2,3.2,0,0,0,1.81-.457A1.4,1.4,0,0,0,19.615-3.083Zm4.05-2.836a6.865,6.865,0,0,1,.671-3.072A5.008,5.008,0,0,1,26.206-11.1a5.088,5.088,0,0,1,2.734-.741,4.9,4.9,0,0,1,3.84,1.644,6.323,6.323,0,0,1,1.466,4.372v.14a6.925,6.925,0,0,1-.65,3.045,4.935,4.935,0,0,1-1.858,2.1,5.146,5.146,0,0,1-2.777.752,4.889,4.889,0,0,1-3.83-1.644,6.291,6.291,0,0,1-1.466-4.351Zm2,.236a4.972,4.972,0,0,0,.9,3.1,2.871,2.871,0,0,0,2.4,1.171,2.853,2.853,0,0,0,2.406-1.187,5.437,5.437,0,0,0,.892-3.325,4.964,4.964,0,0,0-.908-3.1,2.886,2.886,0,0,0-2.412-1.187,2.854,2.854,0,0,0-2.374,1.171A5.4,5.4,0,0,0,25.663-5.683Zm17.843,2.6A1.463,1.463,0,0,0,42.9-4.334,5.842,5.842,0,0,0,40.783-5.1a10.005,10.005,0,0,1-2.4-.773A3.408,3.408,0,0,1,37.077-6.95a2.57,2.57,0,0,1-.424-1.482,3.015,3.015,0,0,1,1.208-2.417,4.72,4.72,0,0,1,3.088-.988,4.857,4.857,0,0,1,3.207,1.021,3.241,3.241,0,0,1,1.23,2.61h-2a1.794,1.794,0,0,0-.693-1.407,2.6,2.6,0,0,0-1.746-.591,2.717,2.717,0,0,0-1.7.473A1.488,1.488,0,0,0,38.64-8.5a1.205,1.205,0,0,0,.569,1.085,7,7,0,0,0,2.057.7,10.719,10.719,0,0,1,2.412.795,3.518,3.518,0,0,1,1.37,1.112,2.734,2.734,0,0,1,.446,1.584,2.975,2.975,0,0,1-1.246,2.5,5.227,5.227,0,0,1-3.233.94,5.853,5.853,0,0,1-2.471-.494,4.018,4.018,0,0,1-1.681-1.38,3.327,3.327,0,0,1-.607-1.917h1.987a2.058,2.058,0,0,0,.8,1.584,3.1,3.1,0,0,0,1.971.585,3.2,3.2,0,0,0,1.81-.457A1.4,1.4,0,0,0,43.506-3.083Zm12.01-7.133a4.225,4.225,0,0,1,3.438-1.622q3.685,0,3.717,4.157V0H60.683V-7.691a2.676,2.676,0,0,0-.575-1.858,2.3,2.3,0,0,0-1.756-.6,2.868,2.868,0,0,0-1.7.516,3.5,3.5,0,0,0-1.139,1.354V0H53.528V-16.5h1.987ZM72.821-1.149A4.221,4.221,0,0,1,69.416.215a3.613,3.613,0,0,1-2.831-1.08,4.673,4.673,0,0,1-.983-3.2v-7.562H67.59v7.509q0,2.643,2.148,2.643a2.975,2.975,0,0,0,3.029-1.7v-8.454h1.987V0H72.864Zm6.821-10.474.054,1.289a4.292,4.292,0,0,1,3.448-1.5,3.323,3.323,0,0,1,3.319,1.869,4.4,4.4,0,0,1,1.509-1.354,4.458,4.458,0,0,1,2.2-.516q3.824,0,3.889,4.05V0H92.071V-7.67A2.669,2.669,0,0,0,91.5-9.534a2.507,2.507,0,0,0-1.912-.618,2.635,2.635,0,0,0-1.837.661A2.68,2.68,0,0,0,86.9-7.713V0h-2V-7.616a2.217,2.217,0,0,0-2.481-2.535A2.659,2.659,0,0,0,79.75-8.486V0H77.763V-11.623ZM104.231,0a4.175,4.175,0,0,1-.279-1.225A4.434,4.434,0,0,1,100.644.215a4.1,4.1,0,0,1-2.82-.972,3.145,3.145,0,0,1-1.1-2.465,3.286,3.286,0,0,1,1.38-2.82,6.508,6.508,0,0,1,3.883-1h1.934V-7.96a2.232,2.232,0,0,0-.623-1.66,2.5,2.5,0,0,0-1.837-.618,2.9,2.9,0,0,0-1.783.537,1.583,1.583,0,0,0-.72,1.3h-2a2.743,2.743,0,0,1,.618-1.681,4.216,4.216,0,0,1,1.676-1.284,5.638,5.638,0,0,1,2.326-.473,4.6,4.6,0,0,1,3.147,1,3.623,3.623,0,0,1,1.182,2.766v5.35a6.54,6.54,0,0,0,.408,2.546V0Zm-3.3-1.515A3.493,3.493,0,0,0,102.706-2a2.924,2.924,0,0,0,1.214-1.257V-5.64h-1.558Q98.71-5.64,98.71-3.5a1.809,1.809,0,0,0,.623,1.461A2.4,2.4,0,0,0,100.934-1.515ZM110.9-11.623l.064,1.461a4.236,4.236,0,0,1,3.48-1.676q3.685,0,3.717,4.157V0h-1.987V-7.691A2.676,2.676,0,0,0,115.6-9.55a2.3,2.3,0,0,0-1.756-.6,2.868,2.868,0,0,0-1.7.516,3.5,3.5,0,0,0-1.139,1.354V0h-1.987V-11.623Zm9.732,5.7a6.865,6.865,0,0,1,.671-3.072,5.009,5.009,0,0,1,1.869-2.105,5.088,5.088,0,0,1,2.734-.741,4.9,4.9,0,0,1,3.84,1.644,6.323,6.323,0,0,1,1.466,4.372v.14a6.925,6.925,0,0,1-.65,3.045,4.935,4.935,0,0,1-1.858,2.1,5.147,5.147,0,0,1-2.777.752,4.889,4.889,0,0,1-3.83-1.644,6.291,6.291,0,0,1-1.466-4.351Zm2,.236a4.972,4.972,0,0,0,.9,3.1,2.871,2.871,0,0,0,2.4,1.171,2.853,2.853,0,0,0,2.406-1.187,5.437,5.437,0,0,0,.892-3.325,4.964,4.964,0,0,0-.908-3.1,2.886,2.886,0,0,0-2.412-1.187,2.854,2.854,0,0,0-2.374,1.171A5.4,5.4,0,0,0,122.633-5.683Zm17.843,2.6a1.463,1.463,0,0,0-.607-1.251,5.842,5.842,0,0,0-2.116-.768,10.005,10.005,0,0,1-2.4-.773,3.408,3.408,0,0,1-1.311-1.074,2.57,2.57,0,0,1-.424-1.482,3.015,3.015,0,0,1,1.208-2.417,4.72,4.72,0,0,1,3.088-.988,4.857,4.857,0,0,1,3.207,1.021,3.241,3.241,0,0,1,1.23,2.61h-2a1.794,1.794,0,0,0-.693-1.407,2.6,2.6,0,0,0-1.746-.591,2.717,2.717,0,0,0-1.7.473,1.488,1.488,0,0,0-.612,1.235,1.205,1.205,0,0,0,.569,1.085,7,7,0,0,0,2.057.7,10.719,10.719,0,0,1,2.412.795,3.518,3.518,0,0,1,1.37,1.112,2.734,2.734,0,0,1,.446,1.584,2.975,2.975,0,0,1-1.246,2.5,5.227,5.227,0,0,1-3.233.94,5.853,5.853,0,0,1-2.471-.494,4.018,4.018,0,0,1-1.681-1.38,3.327,3.327,0,0,1-.607-1.917h1.987a2.058,2.058,0,0,0,.8,1.584,3.1,3.1,0,0,0,1.971.585,3.2,3.2,0,0,0,1.81-.457A1.4,1.4,0,0,0,140.476-3.083Z" transform="translate(1122 13997.983)" fill="#12263f"/><path d="M-139.826,0h-2.062V-15.641h2.063Zm5.339-11.623.064,1.461a4.236,4.236,0,0,1,3.48-1.676q3.685,0,3.717,4.157V0h-1.987V-7.691a2.676,2.676,0,0,0-.575-1.858,2.3,2.3,0,0,0-1.756-.6,2.868,2.868,0,0,0-1.7.516,3.5,3.5,0,0,0-1.139,1.354V0h-1.987V-11.623ZM-123.25,0V-10.087h-1.837v-1.536h1.837v-1.192a3.958,3.958,0,0,1,1-2.89,3.774,3.774,0,0,1,2.825-1.021,5.247,5.247,0,0,1,1.364.181l-.107,1.6a5.708,5.708,0,0,0-1.074-.1,1.939,1.939,0,0,0-1.493.566,2.294,2.294,0,0,0-.526,1.622v1.228h2.481v1.536h-2.481V0Zm12.278-9.84a5.955,5.955,0,0,0-.978-.075A2.619,2.619,0,0,0-114.6-8.25V0h-1.987V-11.623h1.934l.032,1.343a3.094,3.094,0,0,1,2.771-1.558,2.03,2.03,0,0,1,.881.15ZM-102.4,0a4.175,4.175,0,0,1-.279-1.225A4.434,4.434,0,0,1-105.988.215a4.1,4.1,0,0,1-2.82-.972,3.145,3.145,0,0,1-1.1-2.465,3.286,3.286,0,0,1,1.38-2.82,6.508,6.508,0,0,1,3.883-1h1.934V-7.96a2.232,2.232,0,0,0-.623-1.66,2.5,2.5,0,0,0-1.837-.618,2.9,2.9,0,0,0-1.783.537,1.583,1.583,0,0,0-.72,1.3h-2a2.743,2.743,0,0,1,.618-1.681,4.216,4.216,0,0,1,1.676-1.284,5.638,5.638,0,0,1,2.326-.473,4.6,4.6,0,0,1,3.147,1,3.623,3.623,0,0,1,1.182,2.766v5.35a6.54,6.54,0,0,0,.408,2.546V0Zm-3.3-1.515A3.493,3.493,0,0,0-103.925-2a2.924,2.924,0,0,0,1.214-1.257V-5.64h-1.558q-3.652,0-3.652,2.138a1.809,1.809,0,0,0,.623,1.461A2.4,2.4,0,0,0-105.7-1.515ZM-92.786.215a5.078,5.078,0,0,1-3.846-1.552,5.761,5.761,0,0,1-1.482-4.152v-.365a6.975,6.975,0,0,1,.661-3.088,5.154,5.154,0,0,1,1.848-2.127,4.645,4.645,0,0,1,2.573-.768,4.353,4.353,0,0,1,3.523,1.493,6.465,6.465,0,0,1,1.257,4.275v.827h-7.874a4.132,4.132,0,0,0,1,2.777,3.157,3.157,0,0,0,2.444,1.058,3.461,3.461,0,0,0,1.783-.43,4.48,4.48,0,0,0,1.278-1.139l1.214.945A4.881,4.881,0,0,1-92.786.215Zm-.247-10.42a2.651,2.651,0,0,0-2.02.875,4.255,4.255,0,0,0-1.01,2.455h5.822v-.15a3.785,3.785,0,0,0-.816-2.347A2.5,2.5,0,0,0-93.033-10.205Zm13.847,7.122a1.463,1.463,0,0,0-.607-1.251A5.842,5.842,0,0,0-81.909-5.1a10.005,10.005,0,0,1-2.4-.773A3.408,3.408,0,0,1-85.615-6.95a2.57,2.57,0,0,1-.424-1.482,3.015,3.015,0,0,1,1.208-2.417,4.72,4.72,0,0,1,3.088-.988,4.857,4.857,0,0,1,3.207,1.021,3.241,3.241,0,0,1,1.23,2.61h-2A1.794,1.794,0,0,0-80-9.614a2.6,2.6,0,0,0-1.746-.591,2.717,2.717,0,0,0-1.7.473A1.488,1.488,0,0,0-84.052-8.5a1.205,1.205,0,0,0,.569,1.085,7,7,0,0,0,2.057.7,10.719,10.719,0,0,1,2.412.795,3.518,3.518,0,0,1,1.37,1.112A2.734,2.734,0,0,1-77.2-3.223a2.975,2.975,0,0,1-1.246,2.5,5.227,5.227,0,0,1-3.233.94,5.853,5.853,0,0,1-2.471-.494A4.018,4.018,0,0,1-85.83-1.66a3.327,3.327,0,0,1-.607-1.917h1.987a2.058,2.058,0,0,0,.8,1.584,3.1,3.1,0,0,0,1.971.585,3.2,3.2,0,0,0,1.81-.457A1.4,1.4,0,0,0-79.186-3.083Zm7.272-11.354v2.814h2.17v1.536h-2.17V-2.87a1.613,1.613,0,0,0,.29,1.049,1.221,1.221,0,0,0,.988.35A4.811,4.811,0,0,0-69.69-1.6V0a5.8,5.8,0,0,1-1.525.214,2.475,2.475,0,0,1-2.009-.806A3.461,3.461,0,0,1-73.9-2.879v-7.208h-2.116v-1.536H-73.9v-2.814Zm10.108,4.6a5.955,5.955,0,0,0-.978-.075A2.619,2.619,0,0,0-65.436-8.25V0h-1.987V-11.623h1.934l.032,1.343a3.094,3.094,0,0,1,2.771-1.558,2.03,2.03,0,0,1,.881.15Zm9,8.69A4.221,4.221,0,0,1-56.208.215a3.613,3.613,0,0,1-2.831-1.08,4.673,4.673,0,0,1-.983-3.2v-7.562h1.987v7.509q0,2.643,2.148,2.643a2.975,2.975,0,0,0,3.029-1.7v-8.454h1.987V0H-52.76Zm9.614-.258a2.863,2.863,0,0,0,1.858-.645,2.268,2.268,0,0,0,.881-1.611h1.88a3.6,3.6,0,0,1-.687,1.9A4.528,4.528,0,0,1-40.949-.322a4.882,4.882,0,0,1-2.24.537A4.788,4.788,0,0,1-46.965-1.37a6.311,6.311,0,0,1-1.4-4.334v-.333a7,7,0,0,1,.623-3.019,4.745,4.745,0,0,1,1.789-2.052,5.081,5.081,0,0,1,2.755-.73,4.662,4.662,0,0,1,3.25,1.171,4.185,4.185,0,0,1,1.38,3.04h-1.88A2.739,2.739,0,0,0-41.3-9.48a2.657,2.657,0,0,0-1.9-.725,2.781,2.781,0,0,0-2.347,1.09,5.121,5.121,0,0,0-.833,3.153v.376a5.019,5.019,0,0,0,.827,3.094A2.8,2.8,0,0,0-43.189-1.407Zm9.55-13.03v2.814h2.17v1.536h-2.17V-2.87a1.613,1.613,0,0,0,.29,1.049,1.221,1.221,0,0,0,.988.35,4.811,4.811,0,0,0,.945-.129V0a5.8,5.8,0,0,1-1.525.214A2.475,2.475,0,0,1-34.95-.591a3.461,3.461,0,0,1-.677-2.288v-7.208h-2.116v-1.536h2.116v-2.814ZM-21.973-1.149A4.221,4.221,0,0,1-25.378.215a3.613,3.613,0,0,1-2.831-1.08,4.673,4.673,0,0,1-.983-3.2v-7.562H-27.2v7.509q0,2.643,2.148,2.643a2.975,2.975,0,0,0,3.029-1.7v-8.454h1.987V0H-21.93ZM-11.4-9.84a5.955,5.955,0,0,0-.978-.075A2.619,2.619,0,0,0-15.034-8.25V0h-1.987V-11.623h1.934l.032,1.343a3.094,3.094,0,0,1,2.771-1.558,2.03,2.03,0,0,1,.881.15ZM-2.831,0A4.175,4.175,0,0,1-3.11-1.225,4.434,4.434,0,0,1-6.418.215a4.1,4.1,0,0,1-2.82-.972,3.145,3.145,0,0,1-1.1-2.465,3.286,3.286,0,0,1,1.38-2.82,6.508,6.508,0,0,1,3.883-1h1.934V-7.96a2.232,2.232,0,0,0-.623-1.66A2.5,2.5,0,0,0-5.6-10.237,2.9,2.9,0,0,0-7.385-9.7,1.583,1.583,0,0,0-8.1-8.4h-2a2.743,2.743,0,0,1,.618-1.681A4.216,4.216,0,0,1-7.81-11.365a5.638,5.638,0,0,1,2.326-.473,4.6,4.6,0,0,1,3.147,1A3.623,3.623,0,0,1-1.155-8.067v5.35A6.54,6.54,0,0,0-.747-.172V0Zm-3.3-1.515A3.493,3.493,0,0,0-4.356-2,2.924,2.924,0,0,0-3.142-3.255V-5.64H-4.7q-3.652,0-3.652,2.138a1.809,1.809,0,0,0,.623,1.461A2.4,2.4,0,0,0-6.128-1.515ZM6.923-5.908a6.809,6.809,0,0,1,1.268-4.3,4.008,4.008,0,0,1,3.319-1.627,4.031,4.031,0,0,1,3.233,1.4V-16.5h1.987V0H14.9l-.1-1.246A4.047,4.047,0,0,1,11.489.215,3.97,3.97,0,0,1,8.2-1.439,6.886,6.886,0,0,1,6.923-5.758Zm1.987.226a5.155,5.155,0,0,0,.816,3.094,2.639,2.639,0,0,0,2.256,1.117,2.9,2.9,0,0,0,2.761-1.7V-8.508A2.921,2.921,0,0,0,12-10.151,2.652,2.652,0,0,0,9.727-9.023,5.676,5.676,0,0,0,8.911-5.683ZM24.637.215a5.078,5.078,0,0,1-3.846-1.552,5.761,5.761,0,0,1-1.482-4.152v-.365a6.975,6.975,0,0,1,.661-3.088,5.154,5.154,0,0,1,1.848-2.127,4.645,4.645,0,0,1,2.573-.768,4.353,4.353,0,0,1,3.523,1.493A6.465,6.465,0,0,1,29.17-6.069v.827H21.3a4.132,4.132,0,0,0,1,2.777,3.157,3.157,0,0,0,2.444,1.058,3.461,3.461,0,0,0,1.783-.43,4.48,4.48,0,0,0,1.278-1.139l1.214.945A4.881,4.881,0,0,1,24.637.215Zm-.247-10.42a2.651,2.651,0,0,0-2.02.875,4.255,4.255,0,0,0-1.01,2.455h5.822v-.15a3.785,3.785,0,0,0-.816-2.347A2.5,2.5,0,0,0,24.39-10.205ZM39.075,0H37.087V-16.5h1.987ZM49.43,0a4.175,4.175,0,0,1-.279-1.225A4.434,4.434,0,0,1,45.842.215a4.1,4.1,0,0,1-2.82-.972,3.145,3.145,0,0,1-1.1-2.465,3.286,3.286,0,0,1,1.38-2.82,6.508,6.508,0,0,1,3.883-1h1.934V-7.96A2.232,2.232,0,0,0,48.5-9.62a2.5,2.5,0,0,0-1.837-.618,2.9,2.9,0,0,0-1.783.537,1.583,1.583,0,0,0-.72,1.3h-2a2.743,2.743,0,0,1,.618-1.681,4.216,4.216,0,0,1,1.676-1.284,5.638,5.638,0,0,1,2.326-.473,4.6,4.6,0,0,1,3.147,1,3.623,3.623,0,0,1,1.182,2.766v5.35a6.54,6.54,0,0,0,.408,2.546V0Zm-3.3-1.515A3.493,3.493,0,0,0,47.9-2a2.924,2.924,0,0,0,1.214-1.257V-5.64H47.561q-3.652,0-3.652,2.138a1.809,1.809,0,0,0,.623,1.461A2.4,2.4,0,0,0,46.132-1.515ZM64.491.215a5.078,5.078,0,0,1-3.846-1.552,5.761,5.761,0,0,1-1.482-4.152v-.365a6.975,6.975,0,0,1,.661-3.088,5.154,5.154,0,0,1,1.848-2.127,4.645,4.645,0,0,1,2.573-.768,4.353,4.353,0,0,1,3.523,1.493,6.465,6.465,0,0,1,1.257,4.275v.827H61.15a4.132,4.132,0,0,0,1,2.777A3.157,3.157,0,0,0,64.6-1.407a3.461,3.461,0,0,0,1.783-.43A4.48,4.48,0,0,0,67.66-2.976l1.214.945A4.881,4.881,0,0,1,64.491.215Zm-.247-10.42a2.651,2.651,0,0,0-2.02.875,4.255,4.255,0,0,0-1.01,2.455h5.822v-.15a3.785,3.785,0,0,0-.816-2.347A2.5,2.5,0,0,0,64.244-10.205Zm8.948-1.418.054,1.289a4.292,4.292,0,0,1,3.448-1.5,3.323,3.323,0,0,1,3.319,1.869,4.4,4.4,0,0,1,1.509-1.354,4.458,4.458,0,0,1,2.2-.516q3.824,0,3.889,4.05V0H85.621V-7.67a2.669,2.669,0,0,0-.569-1.864,2.507,2.507,0,0,0-1.912-.618,2.635,2.635,0,0,0-1.837.661,2.68,2.68,0,0,0-.849,1.778V0h-2V-7.616a2.217,2.217,0,0,0-2.481-2.535A2.659,2.659,0,0,0,73.3-8.486V0H71.312V-11.623Zm27.231,5.94a6.96,6.96,0,0,1-1.214,4.275A3.89,3.89,0,0,1,95.922.215a4.263,4.263,0,0,1-3.33-1.343v5.6H90.6V-11.623H92.42l.1,1.289a4.094,4.094,0,0,1,3.373-1.5A3.963,3.963,0,0,1,99.2-10.259a7.036,7.036,0,0,1,1.219,4.394Zm-1.987-.226a5.135,5.135,0,0,0-.838-3.1,2.7,2.7,0,0,0-2.3-1.139,2.921,2.921,0,0,0-2.707,1.6V-3a2.927,2.927,0,0,0,2.729,1.59,2.686,2.686,0,0,0,2.272-1.133A5.606,5.606,0,0,0,98.436-5.908Zm10.13-3.932a5.955,5.955,0,0,0-.978-.075,2.619,2.619,0,0,0-2.653,1.665V0h-1.987V-11.623h1.934l.032,1.343a3.094,3.094,0,0,1,2.771-1.558,2.03,2.03,0,0,1,.881.15ZM115.215.215a5.078,5.078,0,0,1-3.846-1.552,5.761,5.761,0,0,1-1.482-4.152v-.365a6.975,6.975,0,0,1,.661-3.088A5.154,5.154,0,0,1,112.4-11.07a4.645,4.645,0,0,1,2.573-.768,4.353,4.353,0,0,1,3.523,1.493,6.465,6.465,0,0,1,1.257,4.275v.827h-7.874a4.132,4.132,0,0,0,1,2.777,3.157,3.157,0,0,0,2.444,1.058,3.461,3.461,0,0,0,1.783-.43,4.48,4.48,0,0,0,1.278-1.139l1.214.945A4.881,4.881,0,0,1,115.215.215Zm-.247-10.42a2.651,2.651,0,0,0-2.02.875,4.255,4.255,0,0,0-1.01,2.455h5.822v-.15a3.785,3.785,0,0,0-.816-2.347A2.5,2.5,0,0,0,114.968-10.205Zm13.847,7.122a1.463,1.463,0,0,0-.607-1.251,5.842,5.842,0,0,0-2.116-.768,10.005,10.005,0,0,1-2.4-.773,3.408,3.408,0,0,1-1.311-1.074,2.57,2.57,0,0,1-.424-1.482,3.015,3.015,0,0,1,1.208-2.417,4.72,4.72,0,0,1,3.088-.988,4.857,4.857,0,0,1,3.207,1.021,3.241,3.241,0,0,1,1.23,2.61h-2A1.794,1.794,0,0,0,128-9.614a2.6,2.6,0,0,0-1.746-.591,2.717,2.717,0,0,0-1.7.473,1.488,1.488,0,0,0-.612,1.235,1.205,1.205,0,0,0,.569,1.085,7,7,0,0,0,2.057.7,10.719,10.719,0,0,1,2.412.795,3.518,3.518,0,0,1,1.37,1.112,2.734,2.734,0,0,1,.446,1.584,2.975,2.975,0,0,1-1.246,2.5,5.227,5.227,0,0,1-3.233.94,5.853,5.853,0,0,1-2.471-.494,4.018,4.018,0,0,1-1.681-1.38,3.327,3.327,0,0,1-.607-1.917h1.987a2.058,2.058,0,0,0,.8,1.584,3.1,3.1,0,0,0,1.971.585,3.2,3.2,0,0,0,1.81-.457A1.4,1.4,0,0,0,128.815-3.083ZM140.567,0a4.175,4.175,0,0,1-.279-1.225A4.434,4.434,0,0,1,136.979.215a4.1,4.1,0,0,1-2.82-.972,3.145,3.145,0,0,1-1.1-2.465,3.286,3.286,0,0,1,1.38-2.82,6.508,6.508,0,0,1,3.883-1h1.934V-7.96a2.232,2.232,0,0,0-.623-1.66,2.5,2.5,0,0,0-1.837-.618,2.9,2.9,0,0,0-1.783.537,1.583,1.583,0,0,0-.72,1.3h-2a2.743,2.743,0,0,1,.618-1.681,4.216,4.216,0,0,1,1.676-1.284,5.638,5.638,0,0,1,2.326-.473,4.6,4.6,0,0,1,3.147,1,3.623,3.623,0,0,1,1.182,2.766v5.35a6.54,6.54,0,0,0,.408,2.546V0Zm-3.3-1.515A3.493,3.493,0,0,0,139.042-2a2.924,2.924,0,0,0,1.214-1.257V-5.64H138.7q-3.652,0-3.652,2.138a1.809,1.809,0,0,0,.623,1.461A2.4,2.4,0,0,0,137.269-1.515Z" transform="translate(1122 13956.93)" fill="#12263f"/><path d="M-106.509-3.223h-5.65L-113.233,0h-3.427l5.822-15.641h2.986L-102,0h-3.427Zm-4.78-2.61h3.91l-1.966-5.854Zm15.383,3.545a2.036,2.036,0,0,0,1.4-.473,1.656,1.656,0,0,0,.559-1.257h2.911a3.982,3.982,0,0,1-.645,2.165A4.253,4.253,0,0,1-93.419-.328a5.43,5.43,0,0,1-2.433.542A5.046,5.046,0,0,1-99.784-1.37a6.27,6.27,0,0,1-1.439-4.377v-.2a6.2,6.2,0,0,1,1.429-4.286,4.987,4.987,0,0,1,3.921-1.6,4.889,4.889,0,0,1,3.5,1.241,4.393,4.393,0,0,1,1.337,3.3h-2.911a2.133,2.133,0,0,0-.559-1.474,1.862,1.862,0,0,0-1.418-.567,1.87,1.87,0,0,0-1.638.791,4.583,4.583,0,0,0-.553,2.566v.323a4.641,4.641,0,0,0,.548,2.582A1.893,1.893,0,0,0-95.906-2.288ZM-85.551-14.48v2.857h1.987v2.277h-1.987v5.8a1.385,1.385,0,0,0,.247.924,1.241,1.241,0,0,0,.945.279,4.951,4.951,0,0,0,.913-.075V-.064a6.391,6.391,0,0,1-1.88.279q-3.266,0-3.33-3.3V-9.346h-1.7v-2.277h1.7V-14.48ZM-78.558,0h-3.115V-11.623h3.115Zm-3.3-14.631a1.529,1.529,0,0,1,.467-1.149,1.755,1.755,0,0,1,1.273-.451,1.759,1.759,0,0,1,1.268.451,1.52,1.52,0,0,1,.473,1.149,1.524,1.524,0,0,1-.478,1.16,1.764,1.764,0,0,1-1.262.451,1.764,1.764,0,0,1-1.262-.451A1.524,1.524,0,0,1-81.855-14.631ZM-71.65-3.792l2.159-7.831h3.244L-70.168,0h-2.965l-3.921-11.623h3.244ZM-61.606,0h-3.115V-11.623h3.115Zm-3.3-14.631a1.529,1.529,0,0,1,.467-1.149,1.755,1.755,0,0,1,1.273-.451,1.759,1.759,0,0,1,1.268.451,1.52,1.52,0,0,1,.473,1.149,1.524,1.524,0,0,1-.478,1.16,1.764,1.764,0,0,1-1.262.451,1.764,1.764,0,0,1-1.262-.451A1.524,1.524,0,0,1-64.9-14.631ZM-59.533-5.9a7,7,0,0,1,1.219-4.329,3.956,3.956,0,0,1,3.335-1.611,3.56,3.56,0,0,1,2.8,1.268V-16.5h3.115V0h-2.8l-.15-1.235A3.653,3.653,0,0,1-55,.215,3.945,3.945,0,0,1-58.292-1.4,7.23,7.23,0,0,1-59.533-5.9Zm3.1.231a4.588,4.588,0,0,0,.569,2.507,1.855,1.855,0,0,0,1.654.871A2.077,2.077,0,0,0-52.175-3.5V-8.1a2.048,2.048,0,0,0-2.009-1.216Q-56.429-9.313-56.429-5.666ZM-39.918,0a3.447,3.447,0,0,1-.312-1.042A3.756,3.756,0,0,1-43.162.215a4.127,4.127,0,0,1-2.831-.988,3.178,3.178,0,0,1-1.123-2.492A3.285,3.285,0,0,1-45.746-6.1a6.758,6.758,0,0,1,3.958-1h1.429v-.666a1.915,1.915,0,0,0-.414-1.289,1.627,1.627,0,0,0-1.305-.483,1.85,1.85,0,0,0-1.23.376,1.277,1.277,0,0,0-.446,1.031h-3.1A3.119,3.119,0,0,1-46.234-10a4.118,4.118,0,0,1,1.762-1.348,6.42,6.42,0,0,1,2.557-.489,5.073,5.073,0,0,1,3.411,1.08,3.777,3.777,0,0,1,1.262,3.035v5.038a5.557,5.557,0,0,0,.462,2.5V0Zm-2.567-2.159a2.674,2.674,0,0,0,1.268-.306,2.011,2.011,0,0,0,.859-.822v-2h-1.16q-2.331,0-2.481,1.611l-.011.183a1.243,1.243,0,0,0,.408.956A1.586,1.586,0,0,0-42.485-2.159ZM-35.342-5.9a7,7,0,0,1,1.219-4.329,3.956,3.956,0,0,1,3.335-1.611,3.56,3.56,0,0,1,2.8,1.268V-16.5h3.115V0h-2.8l-.15-1.235A3.653,3.653,0,0,1-30.809.215,3.945,3.945,0,0,1-34.1-1.4,7.23,7.23,0,0,1-35.342-5.9Zm3.1.231a4.588,4.588,0,0,0,.569,2.507,1.855,1.855,0,0,0,1.654.871A2.077,2.077,0,0,0-27.983-3.5V-8.1a2.048,2.048,0,0,0-2.009-1.216Q-32.237-9.313-32.237-5.666ZM-17.112.215a5.706,5.706,0,0,1-4.163-1.568,5.575,5.575,0,0,1-1.606-4.179v-.3A7.021,7.021,0,0,1-22.2-8.964a4.967,4.967,0,0,1,1.917-2.127,5.382,5.382,0,0,1,2.831-.747,4.824,4.824,0,0,1,3.754,1.5,6.111,6.111,0,0,1,1.37,4.265V-4.8h-7.4a2.884,2.884,0,0,0,.908,1.826,2.744,2.744,0,0,0,1.917.688,3.351,3.351,0,0,0,2.8-1.3l1.525,1.708A4.66,4.66,0,0,1-14.47-.338,6.2,6.2,0,0,1-17.112.215Zm-.354-9.55a1.94,1.94,0,0,0-1.5.626A3.241,3.241,0,0,0-19.7-6.918h4.318v-.248a2.311,2.311,0,0,0-.559-1.6A2,2,0,0,0-17.467-9.335ZM-4.275-3.212a1,1,0,0,0-.564-.9,6.406,6.406,0,0,0-1.81-.585Q-10.8-5.564-10.8-8.218A3.194,3.194,0,0,1-9.512-10.8a5.178,5.178,0,0,1,3.357-1.037A5.573,5.573,0,0,1-2.616-10.8,3.284,3.284,0,0,1-1.289-8.089h-3.1a1.5,1.5,0,0,0-.43-1.1,1.818,1.818,0,0,0-1.343-.435,1.858,1.858,0,0,0-1.214.354,1.119,1.119,0,0,0-.43.9.957.957,0,0,0,.489.833,5.028,5.028,0,0,0,1.649.548,13.468,13.468,0,0,1,1.955.521,3.212,3.212,0,0,1,2.46,3.126A3.032,3.032,0,0,1-2.621-.768,5.885,5.885,0,0,1-6.145.215,6.147,6.147,0,0,1-8.739-.306a4.353,4.353,0,0,1-1.778-1.429,3.32,3.32,0,0,1-.645-1.96h2.943a1.621,1.621,0,0,0,.612,1.268,2.429,2.429,0,0,0,1.525.44,2.248,2.248,0,0,0,1.348-.338A1.053,1.053,0,0,0-4.275-3.212ZM5.736-5.9a7,7,0,0,1,1.219-4.329,3.956,3.956,0,0,1,3.335-1.611,3.56,3.56,0,0,1,2.8,1.268V-16.5H16.21V0h-2.8l-.15-1.235A3.653,3.653,0,0,1,10.27.215,3.945,3.945,0,0,1,6.977-1.4,7.23,7.23,0,0,1,5.736-5.9Zm3.1.231A4.588,4.588,0,0,0,9.41-3.16a1.855,1.855,0,0,0,1.654.871A2.077,2.077,0,0,0,13.095-3.5V-8.1a2.048,2.048,0,0,0-2.009-1.216Q8.841-9.313,8.841-5.666ZM23.966.215A5.706,5.706,0,0,1,19.8-1.354,5.575,5.575,0,0,1,18.2-5.532v-.3a7.021,7.021,0,0,1,.677-3.131,4.967,4.967,0,0,1,1.917-2.127,5.382,5.382,0,0,1,2.831-.747,4.824,4.824,0,0,1,3.754,1.5,6.111,6.111,0,0,1,1.37,4.265V-4.8h-7.4a2.884,2.884,0,0,0,.908,1.826,2.744,2.744,0,0,0,1.917.688,3.351,3.351,0,0,0,2.8-1.3L28.5-1.88A4.66,4.66,0,0,1,26.608-.338,6.2,6.2,0,0,1,23.966.215Zm-.354-9.55a1.94,1.94,0,0,0-1.5.626,3.241,3.241,0,0,0-.736,1.791H25.7v-.248a2.311,2.311,0,0,0-.559-1.6A2,2,0,0,0,23.611-9.335Zm18.67,6.123a1,1,0,0,0-.564-.9,6.406,6.406,0,0,0-1.81-.585q-4.146-.87-4.146-3.523A3.194,3.194,0,0,1,37.044-10.8,5.178,5.178,0,0,1,40.4-11.838a5.573,5.573,0,0,1,3.54,1.042,3.284,3.284,0,0,1,1.327,2.707h-3.1a1.5,1.5,0,0,0-.43-1.1,1.818,1.818,0,0,0-1.343-.435,1.858,1.858,0,0,0-1.214.354,1.119,1.119,0,0,0-.43.9.957.957,0,0,0,.489.833,5.028,5.028,0,0,0,1.649.548,13.468,13.468,0,0,1,1.955.521A3.212,3.212,0,0,1,45.3-3.341,3.032,3.032,0,0,1,43.936-.768a5.885,5.885,0,0,1-3.523.983,6.147,6.147,0,0,1-2.594-.521A4.353,4.353,0,0,1,36.04-1.735,3.32,3.32,0,0,1,35.4-3.7h2.943a1.621,1.621,0,0,0,.612,1.268,2.429,2.429,0,0,0,1.525.44,2.248,2.248,0,0,0,1.348-.338A1.053,1.053,0,0,0,42.281-3.212Zm4.533-2.707A6.893,6.893,0,0,1,47.48-9,4.876,4.876,0,0,1,49.4-11.1a5.594,5.594,0,0,1,2.906-.741,5.293,5.293,0,0,1,3.84,1.439,5.777,5.777,0,0,1,1.66,3.91l.021.795A6.075,6.075,0,0,1,56.332-1.4,5.19,5.19,0,0,1,52.325.215,5.216,5.216,0,0,1,48.313-1.4a6.182,6.182,0,0,1-1.5-4.383Zm3.1.22a4.345,4.345,0,0,0,.623,2.534,2.055,2.055,0,0,0,1.783.877,2.06,2.06,0,0,0,1.762-.866,4.754,4.754,0,0,0,.634-2.77,4.3,4.3,0,0,0-.634-2.518A2.06,2.06,0,0,0,52.3-9.335a2.027,2.027,0,0,0-1.762.888A4.834,4.834,0,0,0,49.919-5.7ZM70.2-5.7a6.971,6.971,0,0,1-1.219,4.3A3.909,3.909,0,0,1,65.688.215,3.621,3.621,0,0,1,62.842-1.01V4.469h-3.1V-11.623h2.879l.107,1.139a3.649,3.649,0,0,1,2.943-1.354,3.936,3.936,0,0,1,3.341,1.59A7.16,7.16,0,0,1,70.2-5.865ZM67.1-5.93a4.574,4.574,0,0,0-.575-2.5,1.872,1.872,0,0,0-1.67-.881A2.033,2.033,0,0,0,62.842-8.2v4.759a2.067,2.067,0,0,0,2.03,1.149Q67.1-2.288,67.1-5.93Zm4.544.011A6.893,6.893,0,0,1,72.306-9,4.876,4.876,0,0,1,74.223-11.1a5.594,5.594,0,0,1,2.906-.741,5.293,5.293,0,0,1,3.84,1.439,5.777,5.777,0,0,1,1.66,3.91l.021.795A6.075,6.075,0,0,1,81.157-1.4,5.19,5.19,0,0,1,77.15.215,5.216,5.216,0,0,1,73.138-1.4a6.182,6.182,0,0,1-1.5-4.383Zm3.1.22a4.345,4.345,0,0,0,.623,2.534,2.055,2.055,0,0,0,1.783.877,2.06,2.06,0,0,0,1.762-.866,4.754,4.754,0,0,0,.634-2.77,4.3,4.3,0,0,0-.634-2.518,2.06,2.06,0,0,0-1.783-.893,2.027,2.027,0,0,0-1.762.888A4.834,4.834,0,0,0,74.744-5.7Zm16.35-3.013A8.434,8.434,0,0,0,89.977-8.8a2.274,2.274,0,0,0-2.31,1.192V0h-3.1V-11.623H87.5l.086,1.386a2.877,2.877,0,0,1,2.589-1.6,3.253,3.253,0,0,1,.967.14Zm5.747-5.769v2.857h1.987v2.277H96.841v5.8a1.385,1.385,0,0,0,.247.924,1.241,1.241,0,0,0,.945.279,4.951,4.951,0,0,0,.913-.075V-.064a6.391,6.391,0,0,1-1.88.279q-3.266,0-3.33-3.3V-9.346h-1.7v-2.277h1.7V-14.48Zm9.066,14.7a5.706,5.706,0,0,1-4.163-1.568,5.575,5.575,0,0,1-1.606-4.179v-.3a7.021,7.021,0,0,1,.677-3.131,4.967,4.967,0,0,1,1.917-2.127,5.382,5.382,0,0,1,2.831-.747,4.824,4.824,0,0,1,3.754,1.5,6.111,6.111,0,0,1,1.37,4.265V-4.8h-7.4a2.884,2.884,0,0,0,.908,1.826,2.744,2.744,0,0,0,1.917.688,3.351,3.351,0,0,0,2.8-1.3L110.44-1.88A4.66,4.66,0,0,1,108.55-.338,6.2,6.2,0,0,1,105.907.215Zm-.354-9.55a1.94,1.94,0,0,0-1.5.626,3.241,3.241,0,0,0-.736,1.791h4.318v-.248a2.311,2.311,0,0,0-.559-1.6A2,2,0,0,0,105.553-9.335Z" transform="translate(1122 13893.146)" fill="#12263f"/><path d="M-97.679-3.223h-5.65L-104.4,0h-3.427l5.822-15.641h2.986L-93.167,0h-3.427Zm-4.78-2.61h3.91l-1.966-5.854Zm15.383,3.545a2.036,2.036,0,0,0,1.4-.473,1.656,1.656,0,0,0,.559-1.257h2.911a3.982,3.982,0,0,1-.645,2.165A4.253,4.253,0,0,1-84.589-.328a5.43,5.43,0,0,1-2.433.542A5.046,5.046,0,0,1-90.954-1.37a6.27,6.27,0,0,1-1.439-4.377v-.2a6.2,6.2,0,0,1,1.429-4.286,4.987,4.987,0,0,1,3.921-1.6,4.889,4.889,0,0,1,3.5,1.241,4.393,4.393,0,0,1,1.337,3.3h-2.911a2.133,2.133,0,0,0-.559-1.474A1.862,1.862,0,0,0-87.1-9.335a1.87,1.87,0,0,0-1.638.791,4.583,4.583,0,0,0-.553,2.566v.323a4.641,4.641,0,0,0,.548,2.582A1.893,1.893,0,0,0-87.076-2.288ZM-76.721-14.48v2.857h1.987v2.277h-1.987v5.8a1.385,1.385,0,0,0,.247.924,1.241,1.241,0,0,0,.945.279,4.951,4.951,0,0,0,.913-.075V-.064A6.391,6.391,0,0,1-76.5.215q-3.266,0-3.33-3.3V-9.346h-1.7v-2.277h1.7V-14.48ZM-69.728,0h-3.115V-11.623h3.115Zm-3.3-14.631a1.529,1.529,0,0,1,.467-1.149,1.755,1.755,0,0,1,1.273-.451,1.759,1.759,0,0,1,1.268.451,1.52,1.52,0,0,1,.473,1.149,1.524,1.524,0,0,1-.478,1.16,1.764,1.764,0,0,1-1.262.451,1.764,1.764,0,0,1-1.262-.451A1.524,1.524,0,0,1-73.025-14.631ZM-62.82-3.792l2.159-7.831h3.244L-61.338,0H-64.3l-3.921-11.623h3.244ZM-52.776,0h-3.115V-11.623h3.115Zm-3.3-14.631a1.529,1.529,0,0,1,.467-1.149,1.755,1.755,0,0,1,1.273-.451,1.759,1.759,0,0,1,1.268.451,1.52,1.52,0,0,1,.473,1.149,1.524,1.524,0,0,1-.478,1.16,1.764,1.764,0,0,1-1.262.451,1.764,1.764,0,0,1-1.262-.451A1.524,1.524,0,0,1-56.074-14.631ZM-50.7-5.9a7,7,0,0,1,1.219-4.329,3.956,3.956,0,0,1,3.335-1.611,3.56,3.56,0,0,1,2.8,1.268V-16.5h3.115V0h-2.8l-.15-1.235A3.653,3.653,0,0,1-46.17.215,3.945,3.945,0,0,1-49.462-1.4,7.23,7.23,0,0,1-50.7-5.9Zm3.1.231a4.588,4.588,0,0,0,.569,2.507,1.855,1.855,0,0,0,1.654.871A2.077,2.077,0,0,0-43.345-3.5V-8.1a2.048,2.048,0,0,0-2.009-1.216Q-47.6-9.313-47.6-5.666ZM-31.088,0A3.448,3.448,0,0,1-31.4-1.042,3.756,3.756,0,0,1-34.332.215a4.127,4.127,0,0,1-2.831-.988,3.178,3.178,0,0,1-1.123-2.492A3.285,3.285,0,0,1-36.916-6.1a6.758,6.758,0,0,1,3.958-1h1.429v-.666a1.915,1.915,0,0,0-.414-1.289,1.627,1.627,0,0,0-1.305-.483,1.85,1.85,0,0,0-1.23.376,1.277,1.277,0,0,0-.446,1.031h-3.1A3.119,3.119,0,0,1-37.4-10a4.118,4.118,0,0,1,1.762-1.348,6.42,6.42,0,0,1,2.557-.489,5.073,5.073,0,0,1,3.411,1.08,3.777,3.777,0,0,1,1.262,3.035v5.038a5.557,5.557,0,0,0,.462,2.5V0Zm-2.567-2.159a2.674,2.674,0,0,0,1.268-.306,2.011,2.011,0,0,0,.859-.822v-2h-1.16q-2.331,0-2.481,1.611l-.011.183a1.243,1.243,0,0,0,.408.956A1.586,1.586,0,0,0-33.655-2.159ZM-26.512-5.9a7,7,0,0,1,1.219-4.329,3.956,3.956,0,0,1,3.335-1.611,3.56,3.56,0,0,1,2.8,1.268V-16.5h3.115V0h-2.8l-.15-1.235A3.653,3.653,0,0,1-21.979.215,3.945,3.945,0,0,1-25.271-1.4,7.23,7.23,0,0,1-26.512-5.9Zm3.1.231a4.588,4.588,0,0,0,.569,2.507,1.855,1.855,0,0,0,1.654.871A2.077,2.077,0,0,0-19.153-3.5V-8.1a2.048,2.048,0,0,0-2.009-1.216Q-23.407-9.313-23.407-5.666ZM-8.282.215a5.706,5.706,0,0,1-4.163-1.568,5.575,5.575,0,0,1-1.606-4.179v-.3a7.021,7.021,0,0,1,.677-3.131,4.967,4.967,0,0,1,1.917-2.127,5.382,5.382,0,0,1,2.831-.747,4.824,4.824,0,0,1,3.754,1.5A6.111,6.111,0,0,1-3.5-6.069V-4.8h-7.4A2.884,2.884,0,0,0-10-2.976a2.744,2.744,0,0,0,1.917.688,3.351,3.351,0,0,0,2.8-1.3L-3.749-1.88A4.66,4.66,0,0,1-5.64-.338,6.2,6.2,0,0,1-8.282.215Zm-.354-9.55a1.94,1.94,0,0,0-1.5.626,3.241,3.241,0,0,0-.736,1.791h4.318v-.248a2.311,2.311,0,0,0-.559-1.6A2,2,0,0,0-8.637-9.335ZM4.555-3.212a1,1,0,0,0-.564-.9,6.406,6.406,0,0,0-1.81-.585q-4.146-.87-4.146-3.523A3.194,3.194,0,0,1-.682-10.8a5.178,5.178,0,0,1,3.357-1.037A5.573,5.573,0,0,1,6.214-10.8,3.284,3.284,0,0,1,7.541-8.089h-3.1a1.5,1.5,0,0,0-.43-1.1,1.818,1.818,0,0,0-1.343-.435,1.858,1.858,0,0,0-1.214.354,1.119,1.119,0,0,0-.43.9.957.957,0,0,0,.489.833,5.028,5.028,0,0,0,1.649.548,13.468,13.468,0,0,1,1.955.521,3.212,3.212,0,0,1,2.46,3.126A3.032,3.032,0,0,1,6.209-.768,5.885,5.885,0,0,1,2.686.215,6.147,6.147,0,0,1,.091-.306,4.353,4.353,0,0,1-1.687-1.735,3.32,3.32,0,0,1-2.331-3.7H.612a1.621,1.621,0,0,0,.612,1.268,2.429,2.429,0,0,0,1.525.44A2.248,2.248,0,0,0,4.1-2.326,1.053,1.053,0,0,0,4.555-3.212ZM25.513-5.7a6.971,6.971,0,0,1-1.219,4.3A3.909,3.909,0,0,1,21,.215,3.621,3.621,0,0,1,18.154-1.01V4.469h-3.1V-11.623h2.879l.107,1.139a3.649,3.649,0,0,1,2.943-1.354,3.936,3.936,0,0,1,3.341,1.59,7.16,7.16,0,0,1,1.192,4.383Zm-3.1-.226a4.574,4.574,0,0,0-.575-2.5,1.872,1.872,0,0,0-1.67-.881A2.033,2.033,0,0,0,18.154-8.2v4.759a2.067,2.067,0,0,0,2.03,1.149Q22.408-2.288,22.408-5.93ZM33.967-8.712A8.434,8.434,0,0,0,32.85-8.8a2.274,2.274,0,0,0-2.31,1.192V0h-3.1V-11.623h2.933l.086,1.386a2.877,2.877,0,0,1,2.589-1.6,3.253,3.253,0,0,1,.967.14ZM38.736,0H35.621V-11.623h3.115Zm-3.3-14.631a1.529,1.529,0,0,1,.467-1.149,1.755,1.755,0,0,1,1.273-.451,1.759,1.759,0,0,1,1.268.451,1.52,1.52,0,0,1,.473,1.149,1.524,1.524,0,0,1-.478,1.16,1.764,1.764,0,0,1-1.262.451,1.764,1.764,0,0,1-1.262-.451A1.524,1.524,0,0,1,35.438-14.631ZM44.2-11.623l.1,1.3a4.085,4.085,0,0,1,3.341-1.515,3.1,3.1,0,0,1,3.083,1.772,3.991,3.991,0,0,1,3.491-1.772,3.467,3.467,0,0,1,2.814,1.1,5.061,5.061,0,0,1,.924,3.314V0H54.839V-7.412a2.213,2.213,0,0,0-.387-1.445,1.714,1.714,0,0,0-1.364-.457,1.938,1.938,0,0,0-1.934,1.332L51.165,0h-3.1V-7.4a2.186,2.186,0,0,0-.4-1.461,1.731,1.731,0,0,0-1.354-.451,2.012,2.012,0,0,0-1.912,1.1V0h-3.1V-11.623ZM67.074,0a3.448,3.448,0,0,1-.312-1.042A3.756,3.756,0,0,1,63.83.215,4.127,4.127,0,0,1,61-.773a3.178,3.178,0,0,1-1.123-2.492A3.285,3.285,0,0,1,61.247-6.1a6.758,6.758,0,0,1,3.958-1h1.429v-.666a1.915,1.915,0,0,0-.414-1.289,1.627,1.627,0,0,0-1.305-.483,1.85,1.85,0,0,0-1.23.376,1.277,1.277,0,0,0-.446,1.031h-3.1A3.119,3.119,0,0,1,60.758-10a4.118,4.118,0,0,1,1.762-1.348,6.42,6.42,0,0,1,2.557-.489,5.073,5.073,0,0,1,3.411,1.08,3.777,3.777,0,0,1,1.262,3.035v5.038a5.557,5.557,0,0,0,.462,2.5V0ZM64.507-2.159a2.674,2.674,0,0,0,1.268-.306,2.011,2.011,0,0,0,.859-.822v-2h-1.16q-2.331,0-2.481,1.611l-.011.183a1.243,1.243,0,0,0,.408.956A1.586,1.586,0,0,0,64.507-2.159ZM78.665-8.712A8.434,8.434,0,0,0,77.548-8.8a2.274,2.274,0,0,0-2.31,1.192V0h-3.1V-11.623h2.933l.086,1.386a2.877,2.877,0,0,1,2.589-1.6,3.253,3.253,0,0,1,.967.14ZM83.435,0H80.319V-11.623h3.115Zm-3.3-14.631A1.529,1.529,0,0,1,80.6-15.78a1.755,1.755,0,0,1,1.273-.451,1.759,1.759,0,0,1,1.268.451,1.52,1.52,0,0,1,.473,1.149,1.524,1.524,0,0,1-.478,1.16,1.764,1.764,0,0,1-1.262.451,1.764,1.764,0,0,1-1.262-.451A1.524,1.524,0,0,1,80.137-14.631ZM92.727,0a3.448,3.448,0,0,1-.312-1.042A3.756,3.756,0,0,1,89.482.215a4.127,4.127,0,0,1-2.831-.988,3.178,3.178,0,0,1-1.123-2.492A3.285,3.285,0,0,1,86.9-6.1a6.758,6.758,0,0,1,3.958-1h1.429v-.666a1.915,1.915,0,0,0-.414-1.289,1.627,1.627,0,0,0-1.305-.483,1.85,1.85,0,0,0-1.23.376,1.277,1.277,0,0,0-.446,1.031h-3.1A3.118,3.118,0,0,1,86.41-10a4.118,4.118,0,0,1,1.762-1.348,6.42,6.42,0,0,1,2.557-.489,5.073,5.073,0,0,1,3.411,1.08A3.777,3.777,0,0,1,95.4-7.724v5.038a5.557,5.557,0,0,0,.462,2.5V0ZM90.159-2.159a2.674,2.674,0,0,0,1.268-.306,2.011,2.011,0,0,0,.859-.822v-2h-1.16q-2.331,0-2.481,1.611l-.011.183a1.243,1.243,0,0,0,.408.956A1.586,1.586,0,0,0,90.159-2.159Zm13.922-1.053a1,1,0,0,0-.564-.9,6.406,6.406,0,0,0-1.81-.585q-4.146-.87-4.146-3.523A3.194,3.194,0,0,1,98.844-10.8a5.178,5.178,0,0,1,3.357-1.037,5.573,5.573,0,0,1,3.54,1.042,3.284,3.284,0,0,1,1.327,2.707h-3.1a1.5,1.5,0,0,0-.43-1.1,1.818,1.818,0,0,0-1.343-.435,1.858,1.858,0,0,0-1.214.354,1.119,1.119,0,0,0-.43.9.957.957,0,0,0,.489.833,5.028,5.028,0,0,0,1.649.548,13.468,13.468,0,0,1,1.955.521,3.212,3.212,0,0,1,2.46,3.126,3.032,3.032,0,0,1-1.364,2.573,5.885,5.885,0,0,1-3.523.983,6.147,6.147,0,0,1-2.594-.521A4.353,4.353,0,0,1,97.84-1.735,3.32,3.32,0,0,1,97.2-3.7h2.943a1.621,1.621,0,0,0,.612,1.268,2.429,2.429,0,0,0,1.525.44,2.248,2.248,0,0,0,1.348-.338A1.053,1.053,0,0,0,104.081-3.212Z" transform="translate(1126 14323.997)" fill="#12263f"/><path d="M-41.61-1.61h7.075V0h-9.054V-14.93h1.979Zm8.521-4.04a6.553,6.553,0,0,1,.641-2.933,4.781,4.781,0,0,1,1.784-2.01,4.857,4.857,0,0,1,2.61-.708,4.679,4.679,0,0,1,3.666,1.569,6.036,6.036,0,0,1,1.4,4.173v.133a6.61,6.61,0,0,1-.62,2.907,4.71,4.71,0,0,1-1.774,2,4.913,4.913,0,0,1-2.651.718A4.667,4.667,0,0,1-31.69-1.364a6.005,6.005,0,0,1-1.4-4.153Zm1.907.226a4.746,4.746,0,0,0,.856,2.963,2.74,2.74,0,0,0,2.292,1.118,2.724,2.724,0,0,0,2.3-1.133,5.19,5.19,0,0,0,.851-3.174,4.738,4.738,0,0,0-.866-2.958,2.755,2.755,0,0,0-2.3-1.133,2.724,2.724,0,0,0-2.266,1.118A5.152,5.152,0,0,0-31.182-5.424Zm10.121-.215a6.521,6.521,0,0,1,1.2-4.127A3.837,3.837,0,0,1-16.683-11.3a3.817,3.817,0,0,1,3.168,1.436l.092-1.23h1.733V-.267a4.514,4.514,0,0,1-1.277,3.394A4.711,4.711,0,0,1-16.4,4.368a5.706,5.706,0,0,1-2.348-.513,4.042,4.042,0,0,1-1.753-1.4l.984-1.138A3.71,3.71,0,0,0-16.529,2.82a2.906,2.906,0,0,0,2.158-.779A2.979,2.979,0,0,0-13.6-.154v-.954A3.9,3.9,0,0,1-16.7.205a3.79,3.79,0,0,1-3.153-1.569A6.856,6.856,0,0,1-21.062-5.64Zm1.907.215a4.975,4.975,0,0,0,.769,2.948A2.5,2.5,0,0,0-16.232-1.4,2.779,2.779,0,0,0-13.6-3.035V-8.1A2.811,2.811,0,0,0-16.211-9.69a2.521,2.521,0,0,0-2.164,1.077A5.418,5.418,0,0,0-19.154-5.424ZM-6.768,0H-8.675V-11.095h1.907Zm.021-15.74h2.3L-7.2-12.725l-1.528-.005ZM2.82-2.943A1.4,1.4,0,0,0,2.24-4.137,5.576,5.576,0,0,0,.22-4.871a9.551,9.551,0,0,1-2.287-.738A3.253,3.253,0,0,1-3.317-6.634a2.453,2.453,0,0,1-.405-1.415,2.878,2.878,0,0,1,1.154-2.307A4.505,4.505,0,0,1,.379-11.3a4.636,4.636,0,0,1,3.061.974A3.094,3.094,0,0,1,4.614-7.834H2.707a1.713,1.713,0,0,0-.661-1.343A2.478,2.478,0,0,0,.379-9.741a2.593,2.593,0,0,0-1.62.451,1.42,1.42,0,0,0-.584,1.179,1.151,1.151,0,0,0,.543,1.036,6.687,6.687,0,0,0,1.964.667,10.231,10.231,0,0,1,2.3.759A3.358,3.358,0,0,1,4.291-4.589a2.609,2.609,0,0,1,.426,1.512A2.839,2.839,0,0,1,3.527-.692a4.989,4.989,0,0,1-3.086.9A5.587,5.587,0,0,1-1.917-.267a3.836,3.836,0,0,1-1.6-1.318A3.176,3.176,0,0,1-4.1-3.415h1.9A1.964,1.964,0,0,0-1.441-1.9a2.964,2.964,0,0,0,1.882.559,3.059,3.059,0,0,0,1.728-.436A1.339,1.339,0,0,0,2.82-2.943ZM9.762-13.781v2.687h2.071v1.466H9.762v6.889a1.54,1.54,0,0,0,.277,1,1.165,1.165,0,0,0,.943.334,4.593,4.593,0,0,0,.9-.123V0a5.532,5.532,0,0,1-1.456.2A2.362,2.362,0,0,1,8.511-.564a3.3,3.3,0,0,1-.646-2.184v-6.88H5.845v-1.466h2.02v-2.687ZM16.109,0h-1.9V-11.095h1.9ZM14.058-14.038a1.132,1.132,0,0,1,.282-.779,1.059,1.059,0,0,1,.836-.318,1.075,1.075,0,0,1,.841.318,1.12,1.12,0,0,1,.287.779,1.084,1.084,0,0,1-.287.769,1.1,1.1,0,0,1-.841.308,1.078,1.078,0,0,1-.836-.308A1.1,1.1,0,0,1,14.058-14.038ZM23.594-1.343a2.732,2.732,0,0,0,1.774-.615A2.164,2.164,0,0,0,26.209-3.5H28a3.44,3.44,0,0,1-.656,1.815A4.322,4.322,0,0,1,25.732-.308a4.66,4.66,0,0,1-2.138.513,4.57,4.57,0,0,1-3.6-1.512,6.024,6.024,0,0,1-1.338-4.137v-.318a6.679,6.679,0,0,1,.595-2.881A4.53,4.53,0,0,1,20.954-10.6a4.85,4.85,0,0,1,2.63-.7,4.45,4.45,0,0,1,3.1,1.118A3.994,3.994,0,0,1,28-7.28H26.209a2.614,2.614,0,0,0-.815-1.769,2.536,2.536,0,0,0-1.81-.692A2.655,2.655,0,0,0,21.344-8.7a4.888,4.888,0,0,0-.795,3.01v.359a4.79,4.79,0,0,0,.79,2.953A2.668,2.668,0,0,0,23.594-1.343ZM36.986,0a3.985,3.985,0,0,1-.267-1.169A4.233,4.233,0,0,1,33.561.205a3.916,3.916,0,0,1-2.692-.928,3,3,0,0,1-1.051-2.353,3.136,3.136,0,0,1,1.318-2.692,6.212,6.212,0,0,1,3.707-.959h1.846V-7.6a2.131,2.131,0,0,0-.595-1.584,2.39,2.39,0,0,0-1.753-.59,2.766,2.766,0,0,0-1.7.513,1.511,1.511,0,0,0-.687,1.241H30.044a2.618,2.618,0,0,1,.59-1.6,4.024,4.024,0,0,1,1.6-1.225,5.381,5.381,0,0,1,2.22-.451,4.386,4.386,0,0,1,3,.959A3.458,3.458,0,0,1,38.585-7.7v5.106a6.243,6.243,0,0,0,.39,2.43V0ZM33.838-1.446a3.334,3.334,0,0,0,1.692-.461,2.791,2.791,0,0,0,1.159-1.2V-5.383H35.2q-3.486,0-3.486,2.041a1.727,1.727,0,0,0,.595,1.395A2.286,2.286,0,0,0,33.838-1.446ZM-48.588,26.36a6.5,6.5,0,0,1,1.21-4.107A3.826,3.826,0,0,1-44.21,20.7a3.848,3.848,0,0,1,3.086,1.333V16.25h1.9V32h-1.743l-.092-1.189a3.863,3.863,0,0,1-3.168,1.395,3.789,3.789,0,0,1-3.143-1.579A6.573,6.573,0,0,1-48.588,26.5Zm1.9.215a4.921,4.921,0,0,0,.779,2.953A2.519,2.519,0,0,0-43.759,30.6a2.767,2.767,0,0,0,2.635-1.62v-5.1a2.789,2.789,0,0,0-2.615-1.569,2.531,2.531,0,0,0-2.174,1.077A5.418,5.418,0,0,0-46.691,26.576Zm15.012,5.629a4.848,4.848,0,0,1-3.671-1.482,5.5,5.5,0,0,1-1.415-3.963v-.349a6.658,6.658,0,0,1,.631-2.948,4.919,4.919,0,0,1,1.764-2.03,4.434,4.434,0,0,1,2.456-.733,4.155,4.155,0,0,1,3.363,1.425,6.171,6.171,0,0,1,1.2,4.081V27h-7.516a3.944,3.944,0,0,0,.959,2.651,3.014,3.014,0,0,0,2.333,1.01,3.3,3.3,0,0,0,1.7-.41,4.277,4.277,0,0,0,1.22-1.087l1.159.9A4.659,4.659,0,0,1-31.679,32.205Zm-.236-9.946a2.53,2.53,0,0,0-1.928.836,4.062,4.062,0,0,0-.964,2.343h5.558v-.144a3.613,3.613,0,0,0-.779-2.24A2.382,2.382,0,0,0-31.915,22.259Zm16.56,9.946a4.848,4.848,0,0,1-3.671-1.482,5.5,5.5,0,0,1-1.415-3.963v-.349a6.658,6.658,0,0,1,.631-2.948,4.919,4.919,0,0,1,1.764-2.03,4.434,4.434,0,0,1,2.456-.733,4.155,4.155,0,0,1,3.363,1.425,6.171,6.171,0,0,1,1.2,4.081V27h-7.516a3.944,3.944,0,0,0,.959,2.651,3.014,3.014,0,0,0,2.333,1.01,3.3,3.3,0,0,0,1.7-.41,4.277,4.277,0,0,0,1.22-1.087l1.159.9A4.659,4.659,0,0,1-15.355,32.205Zm-.236-9.946a2.53,2.53,0,0,0-1.928.836,4.062,4.062,0,0,0-.964,2.343h5.558v-.144a3.613,3.613,0,0,0-.779-2.24A2.382,2.382,0,0,0-15.591,22.259Zm8.552-1.354.062,1.395a4.043,4.043,0,0,1,3.322-1.6q3.517,0,3.548,3.968V32H-2V24.658a2.554,2.554,0,0,0-.549-1.774A2.2,2.2,0,0,0-4.23,22.31a2.738,2.738,0,0,0-1.62.492,3.342,3.342,0,0,0-1.087,1.292V32h-1.9V20.905ZM5.327,18.219v2.687H7.4v1.466H5.327v6.889a1.54,1.54,0,0,0,.277,1,1.165,1.165,0,0,0,.943.334,4.593,4.593,0,0,0,.9-.123V32a5.532,5.532,0,0,1-1.456.2,2.362,2.362,0,0,1-1.917-.769,3.3,3.3,0,0,1-.646-2.184v-6.88H1.41V20.905H3.43V18.219Zm9.649,4.389a5.685,5.685,0,0,0-.933-.072,2.5,2.5,0,0,0-2.533,1.589V32h-1.9V20.905h1.846l.031,1.282A2.954,2.954,0,0,1,14.135,20.7a1.938,1.938,0,0,1,.841.144ZM23.158,32a3.985,3.985,0,0,1-.267-1.169,4.233,4.233,0,0,1-3.158,1.374,3.916,3.916,0,0,1-2.692-.928,3,3,0,0,1-1.051-2.353,3.136,3.136,0,0,1,1.318-2.692,6.212,6.212,0,0,1,3.707-.959h1.846V24.4a2.131,2.131,0,0,0-.595-1.584,2.39,2.39,0,0,0-1.753-.59,2.766,2.766,0,0,0-1.7.513,1.511,1.511,0,0,0-.687,1.241H16.217a2.618,2.618,0,0,1,.59-1.6,4.024,4.024,0,0,1,1.6-1.225,5.381,5.381,0,0,1,2.22-.451,4.386,4.386,0,0,1,3,.959,3.458,3.458,0,0,1,1.128,2.64v5.106a6.243,6.243,0,0,0,.39,2.43V32ZM20.01,30.554a3.334,3.334,0,0,0,1.692-.461,2.791,2.791,0,0,0,1.159-1.2V26.617H21.374q-3.486,0-3.486,2.041a1.727,1.727,0,0,0,.595,1.395A2.286,2.286,0,0,0,20.01,30.554Zm7.26-4.194a6.5,6.5,0,0,1,1.21-4.107,4.117,4.117,0,0,1,6.255-.22V16.25h1.9V32H34.889L34.8,30.811a3.863,3.863,0,0,1-3.168,1.395,3.789,3.789,0,0,1-3.143-1.579A6.573,6.573,0,0,1,27.27,26.5Zm1.9.215a4.921,4.921,0,0,0,.779,2.953A2.519,2.519,0,0,0,32.1,30.6a2.767,2.767,0,0,0,2.635-1.62v-5.1A2.789,2.789,0,0,0,32.12,22.31a2.531,2.531,0,0,0-2.174,1.077A5.418,5.418,0,0,0,29.167,26.576ZM46.425,32a3.985,3.985,0,0,1-.267-1.169A4.233,4.233,0,0,1,43,32.205a3.916,3.916,0,0,1-2.692-.928,3,3,0,0,1-1.051-2.353,3.136,3.136,0,0,1,1.318-2.692,6.212,6.212,0,0,1,3.707-.959h1.846V24.4a2.131,2.131,0,0,0-.595-1.584,2.39,2.39,0,0,0-1.753-.59,2.766,2.766,0,0,0-1.7.513,1.511,1.511,0,0,0-.687,1.241H39.483a2.618,2.618,0,0,1,.59-1.6,4.024,4.024,0,0,1,1.6-1.225,5.381,5.381,0,0,1,2.22-.451,4.386,4.386,0,0,1,3,.959,3.458,3.458,0,0,1,1.128,2.64v5.106a6.243,6.243,0,0,0,.39,2.43V32Zm-3.148-1.446a3.334,3.334,0,0,0,1.692-.461,2.791,2.791,0,0,0,1.159-1.2V26.617H44.64q-3.486,0-3.486,2.041a1.727,1.727,0,0,0,.595,1.395A2.286,2.286,0,0,0,43.277,30.554Z" transform="translate(854.068 14169.848)" fill="#fff"/><g transform="translate(937.816 14104.431)"><rect width="151.262" height="154.279" transform="translate(0 0.258)" fill="#3d672f"/><text transform="translate(74.495 85.258)" fill="#fff" font-size="20" font-family="Roboto-Regular, Roboto" letter-spacing="-0.032em"><tspan x="-52.547" y="0">Operaciones</tspan></text></g><g transform="translate(1099.427 14104.431)"><rect width="151.262" height="154.279" transform="translate(0 0.258)" fill="#3d672f"/><text transform="translate(73.66 69.258)" fill="#fff" font-size="22" font-family="Roboto-Regular, Roboto"><tspan x="-44.757" y="0">Logstica</tspan><tspan x="-44.79" y="33">de Salida</tspan></text></g><path d="M-7474.3,1481.21l.243-10.04h688.938l-.243,13.833" transform="translate(8251.805 12441.086)" fill="none" stroke="#727997" stroke-width="2"/><path d="M-7474,1477.117v14.865h697.915v-20.811" transform="translate(8251.5 12793.916)" fill="none" stroke="#727997" stroke-width="2"/></g></g></g></svg>