<svg xmlns="http://www.w3.org/2000/svg" xmlns:xlink="http://www.w3.org/1999/xlink" width="412.401" height="326.325" viewBox="0 0 412.401 326.325"><defs><clipPath id="a"><path d="M17.3,0H382.7A17.3,17.3,0,0,1,400,17.3V130.944a17.3,17.3,0,0,1-17.3,17.3H17.3A17.3,17.3,0,0,1,0,130.945V17.3A17.3,17.3,0,0,1,17.3,0Z" fill="#ffb338"/></clipPath><clipPath id="b"><rect width="262.547" height="257.959" fill="none"/></clipPath><filter id="c" x="22.909" y="238.325" width="76" height="88" filterUnits="userSpaceOnUse"><feOffset dy="3" input="SourceAlpha"/><feGaussianBlur stdDeviation="3" result="d"/><feFlood flood-opacity="0.161"/><feComposite operator="in" in2="d"/><feComposite in="SourceGraphic"/></filter><filter id="e" x="0" y="0" width="412.401" height="274.641" filterUnits="userSpaceOnUse"><feOffset dy="3" input="SourceAlpha"/><feGaussianBlur stdDeviation="8" result="f"/><feFlood flood-opacity="0.161"/><feComposite operator="in" in2="f"/><feComposite in="SourceGraphic"/></filter></defs><g transform="translate(-803.999 -14553.246)"><g transform="translate(0 13580.726)"><g transform="translate(810 1054.376)" clip-path="url(#a)"><path d="M0,0H400V148.246H0Z" transform="translate(0 0)" fill="#ffb338"/></g><rect width="262.547" height="257.959" transform="translate(810 1016.562)" fill="none"/><path d="M0,0H262.547V257.959H0V0Z" transform="translate(813.115 1016.562)" fill="none"/><text transform="translate(919.415 1230.751)" fill="#12263f" font-size="18" font-family="Roboto-Black, Roboto" font-weight="800"><tspan x="43.186" y="19">Actividades </tspan><tspan x="52.339" y="43">primarias</tspan></text><g transform="matrix(1, 0, 0, 1, 804, 972.52)" filter="url(#c)"><text transform="translate(31.91 301.33)" fill="#12263f" font-size="53" font-family="SegoeUI, Segoe UI"><tspan x="0" y="0">01</tspan></text></g><g transform="matrix(1, 0, 0, 1, 804, 972.52)" filter="url(#e)"><path d="M5015.819,11911.543l-24.937-35.015c-.079-.11-.151-.222-.22-.335H4855a18,18,0,0,1-18-18V11705a18,18,0,0,1,18-18h328.4a18,18,0,0,1,18,18v153.192a18,18,0,0,1-18,18H5049.125c-.068.113-.142.225-.22.335l-24.94,35.015a5,5,0,0,1-8.145,0Z" transform="translate(-4813 -11666)" fill="#fff"/></g></g></g></svg>